<svg width="20" height="20" viewBox="0 0 20 20" fill="none" xmlns="http://www.w3.org/2000/svg">
<g clip-path="url(#clip0_823_2569)">
<path fill-rule="evenodd" clip-rule="evenodd" d="M4 5.5H16V14.5H4V5.5Z" fill="black"/>
<path fill-rule="evenodd" clip-rule="evenodd" d="M12.0005 5.5H15.9999V14.5H12.0005V5.5Z" fill="#009900"/>
<path fill-rule="evenodd" clip-rule="evenodd" d="M7.99927 5.5H12.0005V14.5H7.99927V5.5Z" fill="#BF0000"/>
<path fill-rule="evenodd" clip-rule="evenodd" d="M10.3895 10.5142H10.555C10.555 10.578 10.5949 10.6458 10.6447 10.6836H10.3257C10.3755 10.6398 10.3895 10.5839 10.3895 10.5142Z" fill="white" stroke="#BD6B00" stroke-width="0.00996994"/>
<path fill-rule="evenodd" clip-rule="evenodd" d="M9.33667 9.57093L9.42839 9.67063L10.565 9.67462L10.6567 9.57492L10.3656 9.56894L10.226 9.46924H9.76737L9.63577 9.57093H9.33667Z" fill="white"/>
<path fill-rule="evenodd" clip-rule="evenodd" d="M9.80123 9.45528H10.194C10.2459 9.42737 10.2638 9.33764 10.2638 9.28779C10.2638 9.14024 10.1582 9.06845 10.0545 9.06446C10.0385 9.06446 10.0206 9.0525 10.0166 9.03854C10.0066 9.00664 10.0086 8.9847 9.99664 8.9867C9.98866 8.9867 9.99066 9.00664 9.98268 9.03455C9.9767 9.05051 9.96075 9.06446 9.9428 9.06646C9.81519 9.07244 9.73144 9.16616 9.73343 9.28779C9.73543 9.36755 9.7454 9.41541 9.80123 9.45528Z" fill="white" stroke="#BD6B00" stroke-width="0.00996994"/>
<path fill-rule="evenodd" clip-rule="evenodd" d="M9.15727 10.8531H10.8382L10.6886 10.7314H9.30482L9.15527 10.8531H9.15727Z" fill="white"/>
<path fill-rule="evenodd" clip-rule="evenodd" d="M9.9288 10.3926L9.95871 10.4843H10.0285L9.97267 10.3926H9.9288ZM9.88892 10.4843L9.90886 10.576H9.98862L9.95871 10.4843H9.88892ZM10.0285 10.4843L10.0843 10.576H10.202L10.1103 10.4843H10.0285ZM9.34058 10.6917C9.40239 10.6338 9.44227 10.586 9.44227 10.5162H9.59381C9.59381 10.5561 9.60777 10.578 9.6297 10.576H9.78324V10.4863H9.67158V9.99376C9.66759 9.81829 9.88294 9.71859 9.97068 9.71859H9.44626V9.70264H10.5489V9.71859H10.0205C10.1781 9.71859 10.3296 9.86814 10.3316 9.99376V10.1333H10.3116L10.3097 9.99575C10.3097 9.85817 10.1362 9.73055 9.9966 9.73454C9.87696 9.73653 9.68952 9.85219 9.69152 9.99376V10.0376L9.97666 10.0396L9.97466 10.0895L10.0185 10.1174L10.1083 10.1453V10.2211L10.1721 10.239V10.3128L10.2478 10.3467V10.4225L10.2977 10.4524L10.2957 10.5301L10.3615 10.576H10.206L10.3037 10.6857H10.1581L10.0863 10.576H9.99261L10.0345 10.6837H9.93478L9.90886 10.576H9.78524V10.6917H9.34257H9.34058ZM9.78324 10.3926V10.4843H9.88892L9.86898 10.3926H9.78125H9.78324Z" fill="white" stroke="#BD6B00" stroke-width="0.00996994"/>
<path fill-rule="evenodd" clip-rule="evenodd" d="M9.78931 10.2329H9.85511V10.3845H9.78931V10.2329Z" stroke="#BD6B00" stroke-width="0.00996994"/>
<path fill-rule="evenodd" clip-rule="evenodd" d="M9.69556 10.3946H9.75936V10.2829C9.75936 10.235 9.80323 10.1852 9.82317 10.1832C9.8471 10.1832 9.881 10.2291 9.88299 10.2789V10.3946H9.95079V10.1074H9.69556V10.3946V10.3946ZM10.206 10.4604H10.2858V10.5242H10.206V10.4604ZM10.1582 10.3547H10.2379V10.4165H10.1582V10.3547ZM10.0804 10.247H10.1602V10.3088H10.0804V10.247ZM10.0146 10.1573H10.0944V10.2191H10.0146V10.1573Z" stroke="#BD6B00" stroke-width="0.00996994"/>
<path fill-rule="evenodd" clip-rule="evenodd" d="M9.96069 10.3945L10.0444 10.3985L10.19 10.5261V10.4503L10.1402 10.4145V10.3546L10.0684 10.3148V10.249L9.99858 10.225V10.1393L9.96468 10.1094L9.96269 10.3965L9.96069 10.3945Z" stroke="#BD6B00" stroke-width="0.00996994"/>
<path fill-rule="evenodd" clip-rule="evenodd" d="M10.3079 10.2051H10.3278V10.3467H10.3079V10.2051Z" fill="white" stroke="#BD6B00" stroke-width="0.00996994"/>
<path fill-rule="evenodd" clip-rule="evenodd" d="M9.14877 9.73058C9.12484 9.6907 9.09493 9.78642 8.99324 9.85621C8.94738 9.88811 8.91348 9.97385 8.91348 10.0297C8.91348 10.0696 8.91747 10.1074 8.91348 10.1453C8.91149 10.1673 8.88557 10.2211 8.90351 10.2351C8.94738 10.267 9.00521 10.3427 9.03113 10.3687C9.05505 10.3886 9.07499 10.263 9.09095 10.2091C9.11089 10.1493 9.10291 10.0755 9.15475 10.0217C9.19065 9.98183 9.28237 9.94594 9.27439 9.92998L9.14877 9.73058Z" fill="white" stroke="#BD6B00" stroke-width="0.00996994"/>
<path fill-rule="evenodd" clip-rule="evenodd" d="M9.1431 10.0375C9.13518 10.0187 9.12442 10.0012 9.1112 9.98569C9.09848 9.96993 9.08203 9.95759 9.06334 9.9498C9.04497 9.94435 9.02843 9.93401 9.01549 9.91989C9.00786 9.91133 9.00239 9.90108 8.99953 9.88998C8.99726 9.87678 8.99726 9.86329 8.99953 9.8501L8.99355 9.85608C8.94769 9.88798 8.91379 9.97372 8.91379 10.0296C8.91318 10.0448 8.91318 10.0601 8.91379 10.0754C8.91778 10.0854 8.91977 10.0954 8.92576 10.1013L8.94769 10.1173L9.00153 10.1313C9.02169 10.1403 9.03944 10.154 9.05337 10.1711C9.06788 10.1865 9.07999 10.204 9.08926 10.223L9.09325 10.207C9.1092 10.1532 9.10721 10.0894 9.1451 10.0375H9.1431Z" fill="#BF0000" stroke="#BD6B00" stroke-width="0.00996994"/>
<path d="M8.9994 9.84814C8.98943 9.91395 9.02731 9.93787 9.0632 9.94984C9.0991 9.9638 9.12901 10.0017 9.14296 10.0376M8.90967 10.0675C8.92562 10.1273 8.9655 10.1193 9.00139 10.1313C9.03728 10.1452 9.07517 10.1911 9.09112 10.227" stroke="#BD6B00" stroke-width="0.00996994"/>
<path fill-rule="evenodd" clip-rule="evenodd" d="M9.11523 9.69067L9.13517 9.67871L9.48811 10.2749L9.46817 10.2869L9.11523 9.68868V9.69067Z" fill="white" stroke="#BD6B00" stroke-width="0.00996994"/>
<path fill-rule="evenodd" clip-rule="evenodd" d="M9.15276 9.66668C9.15276 9.67726 9.14856 9.6874 9.14108 9.69488C9.1336 9.70236 9.12345 9.70656 9.11288 9.70656C9.1023 9.70656 9.09216 9.70236 9.08468 9.69488C9.0772 9.6874 9.073 9.67726 9.073 9.66668C9.073 9.6561 9.0772 9.64596 9.08468 9.63848C9.09216 9.631 9.1023 9.6268 9.11288 9.6268C9.12345 9.6268 9.1336 9.631 9.14108 9.63848C9.14856 9.64596 9.15276 9.6561 9.15276 9.66668ZM9.45584 9.18812H9.59941V9.22003H9.45584V9.18812ZM9.45584 9.24994H9.59941V9.52511H9.45584V9.24994ZM9.44787 9.15024H9.60739C9.61137 9.0964 9.55754 9.03857 9.52763 9.03857C9.49572 9.04057 9.44587 9.09839 9.44787 9.15024Z" fill="white" stroke="#BD6B00" stroke-width="0.00996994"/>
<path fill-rule="evenodd" clip-rule="evenodd" d="M9.85286 9.11836C9.82295 9.13032 9.79903 9.16422 9.78507 9.2041C9.77111 9.24398 9.76513 9.28984 9.7731 9.32573C9.7731 9.33969 9.77909 9.34767 9.78307 9.35564C9.78706 9.36162 9.79105 9.36561 9.79504 9.36561C9.80102 9.36561 9.807 9.36561 9.809 9.35963L9.81298 9.34368C9.81099 9.3038 9.81099 9.26791 9.81897 9.236C9.82784 9.20057 9.84904 9.16947 9.87878 9.14827C9.88477 9.14428 9.88676 9.1383 9.88875 9.13431C9.88868 9.12905 9.88653 9.12403 9.88277 9.12035C9.8748 9.11437 9.86283 9.11238 9.85286 9.11836ZM9.85685 9.12633C9.86483 9.12235 9.8728 9.12633 9.87679 9.12833L9.87878 9.13232C9.87878 9.13431 9.87878 9.1363 9.8728 9.14029C9.84217 9.16276 9.82031 9.19519 9.81099 9.23202C9.80272 9.26863 9.80069 9.30639 9.80501 9.34368C9.80501 9.34799 9.80361 9.35219 9.80102 9.35564C9.80102 9.35564 9.80102 9.35764 9.79703 9.35564C9.79703 9.35564 9.79304 9.35564 9.78906 9.34966C9.78511 9.34217 9.78242 9.33409 9.78108 9.32573C9.7751 9.28984 9.78108 9.24597 9.79504 9.20609C9.809 9.1702 9.83093 9.1383 9.85486 9.12633H9.85685Z" fill="#BD6B00"/>
<path fill-rule="evenodd" clip-rule="evenodd" d="M9.90483 9.15637C9.87492 9.17033 9.85498 9.20223 9.84501 9.24012C9.83442 9.27842 9.83238 9.31858 9.83903 9.35776C9.84302 9.38369 9.85897 9.39764 9.87093 9.39764C9.87691 9.39964 9.8829 9.39764 9.88688 9.39166C9.89087 9.38568 9.89287 9.3797 9.89087 9.37172C9.8829 9.33982 9.8809 9.30393 9.88489 9.27003C9.89087 9.23613 9.90483 9.20622 9.92876 9.18828C9.93474 9.18229 9.93873 9.17831 9.93873 9.17232C9.93891 9.17016 9.93865 9.16799 9.93797 9.16593C9.93728 9.16387 9.93618 9.16198 9.93474 9.16036C9.92676 9.15438 9.9148 9.15238 9.90483 9.15637ZM9.90882 9.16634C9.91679 9.16235 9.92477 9.16435 9.92876 9.16634L9.93075 9.17232L9.92477 9.1803C9.91138 9.19103 9.90026 9.20431 9.89205 9.21937C9.88383 9.23443 9.87869 9.25097 9.87691 9.26804C9.87093 9.30393 9.87492 9.34181 9.8809 9.37172C9.8829 9.3797 9.8809 9.38369 9.8809 9.38767L9.87093 9.38967C9.86495 9.38967 9.85099 9.3797 9.847 9.35577C9.84102 9.32187 9.84302 9.278 9.85299 9.24211C9.86296 9.20622 9.8829 9.17631 9.90882 9.16634Z" fill="#BD6B00"/>
<path fill-rule="evenodd" clip-rule="evenodd" d="M9.44816 9.74854H9.60768V9.96787H9.44816V9.74854ZM9.45813 10.0955H9.61167V10.1433H9.45813V10.0955ZM9.45414 10.1772H9.61366V10.3507H9.45414V10.1772ZM9.44218 10.3866H9.61566V10.4843H9.44218V10.3866ZM9.46411 10.0556H9.60369L9.63161 10.0078H9.44019L9.46411 10.0556ZM9.65155 9.88413L9.65354 9.76449H9.74925C9.70811 9.79652 9.67471 9.83741 9.65155 9.88413Z" fill="white" stroke="#BD6B00" stroke-width="0.00996994"/>
<path fill-rule="evenodd" clip-rule="evenodd" d="M9.47412 9.93402C9.47412 9.95995 9.50403 9.94998 9.50403 9.93602V9.82436C9.50403 9.80442 9.55189 9.8084 9.55189 9.82236V9.942C9.55189 9.96194 9.58578 9.95995 9.58379 9.942V9.80242C9.58379 9.75855 9.47412 9.76055 9.47412 9.80043V9.93402ZM9.47412 10.1992H9.58778V10.3388H9.47412V10.1992Z" stroke="#BD6B00" stroke-width="0.00996994"/>
<path fill-rule="evenodd" clip-rule="evenodd" d="M9.54579 10.259H9.58567V10.2789H9.54579V10.259ZM9.476 10.259H9.51588V10.2789H9.476V10.259ZM9.51588 10.1991H9.54579V10.259H9.51588V10.1991ZM9.51588 10.2789H9.54579V10.3407H9.51588V10.2789ZM8.88379 8.78341C8.89176 8.89308 8.85587 8.9549 8.79804 8.94493C8.78209 8.88511 8.81798 8.84323 8.88379 8.78341ZM8.75418 9.02867C8.70233 9.00275 8.74022 8.79936 8.76016 8.71362C8.77412 8.82329 8.80004 8.97882 8.75418 9.02867Z" fill="white" stroke="#BD6B00" stroke-width="0.00996994"/>
<path fill-rule="evenodd" clip-rule="evenodd" d="M8.77204 9.03863C8.85977 9.06854 8.93155 8.97483 8.95349 8.86516C8.8817 8.96486 8.76406 8.96486 8.77403 9.03863H8.77204ZM8.70623 9.14033C8.63844 9.12238 8.67832 8.90703 8.69228 8.82129C8.70623 8.91102 8.75409 9.11042 8.70623 9.14033ZM8.73016 9.13435C8.73415 9.06057 8.80793 9.08051 8.85977 9.04063C8.8498 9.08051 8.81989 9.14432 8.73016 9.13435ZM8.64641 9.23404C8.57862 9.2141 8.6185 8.9828 8.61451 8.88709C8.63445 8.97084 8.69826 9.21211 8.64641 9.23404ZM8.67832 9.22407C8.73415 9.24202 8.80793 9.20413 8.81391 9.13833C8.76406 9.17223 8.68829 9.14631 8.67832 9.22407Z" fill="white" stroke="#BD6B00" stroke-width="0.00996994"/>
<path fill-rule="evenodd" clip-rule="evenodd" d="M8.59471 9.33581C8.5309 9.34179 8.55881 9.14438 8.55881 8.96094C8.58274 9.13242 8.64854 9.28995 8.59471 9.33581Z" fill="white" stroke="#BD6B00" stroke-width="0.00996994"/>
<path fill-rule="evenodd" clip-rule="evenodd" d="M8.61865 9.32767C8.66252 9.34761 8.74029 9.31372 8.76222 9.23994C8.68246 9.27384 8.63062 9.23994 8.61865 9.32767ZM9.12911 8.88501C9.11715 8.98272 9.07727 9.03855 9.01944 9.02858C9.00349 8.96876 9.05135 8.92888 9.12911 8.88501ZM8.97358 9.13226C9.07129 9.14622 9.10519 9.07244 9.17298 8.97474C9.07926 9.04253 8.96959 9.0545 8.97358 9.13426V9.13226Z" fill="white" stroke="#BD6B00" stroke-width="0.00996994"/>
<path fill-rule="evenodd" clip-rule="evenodd" d="M8.94356 9.12229C8.89172 9.05848 8.94356 8.97673 8.98344 8.90894C8.97547 9.01063 9.00937 9.06845 8.94356 9.12229ZM8.92362 9.22797C8.91565 9.16417 9.02332 9.15021 9.07118 9.11631C9.05323 9.1522 9.0313 9.24991 8.92163 9.22797H8.92362Z" fill="white" stroke="#BD6B00" stroke-width="0.00996994"/>
<path fill-rule="evenodd" clip-rule="evenodd" d="M8.89972 9.228C8.82594 9.22003 8.85585 9.09441 8.90969 9.02661C8.88775 9.12232 8.94957 9.18812 8.89972 9.228Z" fill="white" stroke="#BD6B00" stroke-width="0.00996994"/>
<path fill-rule="evenodd" clip-rule="evenodd" d="M8.84387 9.3338C8.76012 9.29392 8.81396 9.19023 8.84387 9.12842C8.8319 9.21017 8.8997 9.27199 8.84387 9.3318V9.3338Z" fill="white" stroke="#BD6B00" stroke-width="0.00996994"/>
<path fill-rule="evenodd" clip-rule="evenodd" d="M8.85999 9.3217C8.90386 9.38152 8.9896 9.30575 9.00755 9.21802C8.93377 9.27983 8.87794 9.26986 8.85999 9.3237V9.3217ZM8.66857 9.72648C8.66059 9.64074 8.7244 9.48721 8.67854 9.40346C8.67256 9.39149 8.6925 9.36158 8.70645 9.37953C8.72639 9.40944 8.74633 9.49319 8.7563 9.46128C8.76428 9.42739 8.76627 9.36956 8.79618 9.3576C8.81612 9.35161 8.84205 9.34563 8.83407 9.37754C8.82609 9.40545 8.81014 9.44533 8.82809 9.44733C8.83806 9.44733 8.86797 9.40745 8.89389 9.38751C8.91383 9.37155 8.94573 9.39947 8.91383 9.4234C8.81812 9.50316 8.7244 9.54104 8.66857 9.72648ZM8.49509 11.0126C8.48313 11.0126 8.46917 11.0066 8.48313 11.0246C8.59678 11.1641 8.62869 11.204 8.79419 11.1841C8.95969 11.1622 8.99957 11.1163 9.11722 11.0505C9.15127 11.0326 9.18855 11.0216 9.22688 11.0182C9.26522 11.0147 9.30385 11.0189 9.34054 11.0306C9.37245 11.0405 9.39239 11.0405 9.36846 11.0166C9.34453 10.9947 9.31861 10.9628 9.2887 10.9408C9.21431 10.8911 9.12366 10.8718 9.03546 10.887C8.91582 10.9069 8.81413 10.9847 8.6925 11.0146C8.62735 11.0278 8.56024 11.0278 8.49509 11.0146V11.0126ZM9.44822 11.2619C9.46816 11.2658 9.48212 11.3057 9.49408 11.2798C9.51003 11.2339 9.49807 11.2 9.47813 11.202C9.4542 11.208 9.41631 11.2619 9.44822 11.2619Z" fill="white" stroke="#BD6B00" stroke-width="0.00996994"/>
<path fill-rule="evenodd" clip-rule="evenodd" d="M8.41706 9.66081C8.39314 9.63289 8.39912 9.62492 8.437 9.62292C8.46492 9.62292 8.52075 9.64286 8.54268 9.62492C8.56262 9.61096 8.55265 9.55114 8.56262 9.52522C8.56661 9.50727 8.57658 9.48534 8.6025 9.52123C8.67429 9.63688 8.76202 9.77646 8.8019 9.91205C8.82184 9.98782 8.8019 10.1075 8.73411 10.1872C8.73411 10.1194 8.71018 10.0736 8.68027 10.0157C8.64039 9.94196 8.49882 9.73658 8.41706 9.65881V9.66081Z" fill="white"/>
<path fill-rule="evenodd" clip-rule="evenodd" d="M8.71432 10.2669C8.79408 10.2669 8.80804 10.1613 8.80804 10.1313C8.76816 10.1393 8.70036 10.2051 8.71432 10.2669ZM9.40225 11.3018C9.45808 11.3138 9.45609 11.1782 9.39826 11.1204C9.42418 11.2081 9.35838 11.2879 9.40025 11.2998L9.40225 11.3018ZM9.37832 11.2998C9.38231 11.3636 9.2188 11.2918 9.17892 11.24C9.27463 11.2819 9.37433 11.248 9.37832 11.2998ZM9.30853 11.2081C9.31451 11.2699 9.16895 11.2141 9.12309 11.1662C9.22079 11.1981 9.30255 11.1563 9.30853 11.2061V11.2081ZM9.33445 11.2161C9.39228 11.23 9.38231 11.0885 9.32648 11.0406C9.35439 11.1343 9.29058 11.2021 9.33445 11.2161ZM9.27463 11.1303C9.33246 11.1443 9.29856 11.0227 9.25669 10.9748C9.26466 11.0625 9.23675 11.1244 9.27663 11.1303H9.27463ZM9.24472 11.1303C9.2507 11.1941 9.13705 11.1463 9.09318 11.0845C9.18889 11.1144 9.23874 11.0785 9.24472 11.1303ZM9.21481 11.0805C9.2507 11.0546 9.21282 10.9848 9.14104 10.9888C9.14901 11.0306 9.17294 11.1064 9.21481 11.0805ZM9.49397 11.3736C9.49597 11.4374 9.33445 11.4055 9.28261 11.3377C9.3863 11.3577 9.48799 11.3218 9.49198 11.3736H9.49397ZM8.84792 11.258C8.8539 11.3218 8.67644 11.25 8.63257 11.1902C8.72629 11.2221 8.84194 11.2061 8.84792 11.258ZM8.95559 11.2839C8.99348 11.258 8.91771 11.1902 8.8559 11.1742C8.86387 11.2161 8.91571 11.3098 8.95559 11.2859V11.2839ZM8.96756 11.3297C8.97155 11.3876 8.77813 11.3557 8.72828 11.3018C8.89378 11.3317 8.96158 11.2799 8.96756 11.3297Z" fill="white" stroke="#BD6B00" stroke-width="0.00996994"/>
<path fill-rule="evenodd" clip-rule="evenodd" d="M9.05943 11.3676C9.07937 11.4215 8.89393 11.4075 8.82812 11.3776C8.93381 11.3776 9.04348 11.3297 9.05943 11.3676Z" fill="white" stroke="#BD6B00" stroke-width="0.00996994"/>
<path fill-rule="evenodd" clip-rule="evenodd" d="M9.14496 11.4075C9.1649 11.4554 8.99342 11.4554 8.90967 11.4275C9.02133 11.4275 9.12502 11.3597 9.14496 11.4075ZM9.27058 11.4335C9.30248 11.4913 9.11904 11.4953 9.06121 11.4673C9.1649 11.4534 9.24466 11.3876 9.27058 11.4335ZM9.05722 11.3357C8.9994 11.3716 9.00339 11.264 8.95752 11.1902C9.02931 11.256 9.0971 11.3018 9.05722 11.3357Z" fill="white" stroke="#BD6B00" stroke-width="0.00996994"/>
<path fill-rule="evenodd" clip-rule="evenodd" d="M9.16088 11.3755C9.11303 11.4174 9.07315 11.2698 9.02928 11.1861C9.10106 11.2658 9.20475 11.3396 9.16088 11.3735V11.3755ZM9.29648 11.4154C9.2566 11.4632 9.13696 11.2758 9.09309 11.1761C9.15889 11.2539 9.32838 11.3755 9.29648 11.4154ZM9.18082 11.5589C9.16088 11.6307 8.8578 11.4911 8.82191 11.4174C8.99738 11.5091 9.18481 11.4891 9.18082 11.5569V11.5589ZM8.20975 10.0874C8.20178 10.0774 8.18184 10.0874 8.18582 10.1093C8.19181 10.1392 8.23567 10.2928 8.31145 10.3446C8.36528 10.3845 8.65042 10.4463 8.77804 10.4742C8.84982 10.4882 8.90765 10.5241 8.9555 10.5799C8.93912 10.5137 8.91915 10.4485 8.89568 10.3845C8.87176 10.3247 8.80795 10.2608 8.74015 10.2589C8.61852 10.2529 8.459 10.2429 8.34136 10.1931C8.28807 10.1706 8.24189 10.1341 8.20776 10.0874H8.20975Z" fill="white" stroke="#BD6B00" stroke-width="0.00996994"/>
<path fill-rule="evenodd" clip-rule="evenodd" d="M8.91372 10.6957C8.9536 10.7236 8.99547 10.6219 8.94762 10.5242C8.94562 10.6179 8.87185 10.6498 8.91372 10.6957Z" fill="white" stroke="#BD6B00" stroke-width="0.00996994"/>
<path fill-rule="evenodd" clip-rule="evenodd" d="M8.95167 10.7893C9.0055 10.8053 9.02146 10.7096 8.98756 10.6338C8.99354 10.7155 8.90182 10.7654 8.95167 10.7893Z" fill="white" stroke="#BD6B00" stroke-width="0.00996994"/>
<path fill-rule="evenodd" clip-rule="evenodd" d="M8.99335 10.8652C9.04519 10.8911 9.06313 10.7934 9.02724 10.7236C9.03123 10.8134 8.95347 10.8413 8.99335 10.8632V10.8652Z" fill="white" stroke="#BD6B00" stroke-width="0.00996994"/>
<path fill-rule="evenodd" clip-rule="evenodd" d="M8.97153 10.871C8.95159 10.9308 8.83195 10.8172 8.81201 10.7554C8.88579 10.8291 8.98549 10.8192 8.97153 10.869V10.871Z" fill="white" stroke="#BD6B00" stroke-width="0.00996994"/>
<path fill-rule="evenodd" clip-rule="evenodd" d="M8.91758 10.7775C8.89365 10.8373 8.7441 10.6778 8.71021 10.604C8.78398 10.6778 8.93353 10.7336 8.91758 10.7755V10.7775Z" fill="white" stroke="#BD6B00" stroke-width="0.00996994"/>
<path fill-rule="evenodd" clip-rule="evenodd" d="M8.88784 10.6837C8.86391 10.7534 8.7024 10.568 8.65454 10.5022C8.7343 10.574 8.90578 10.6338 8.88784 10.6837ZM8.88186 10.6159C8.94168 10.6039 8.87986 10.556 8.80808 10.4783C8.80608 10.56 8.81805 10.6179 8.88186 10.6159Z" fill="white" stroke="#BD6B00" stroke-width="0.00996994"/>
<path fill-rule="evenodd" clip-rule="evenodd" d="M8.78407 10.5679C8.80999 10.542 8.76213 10.53 8.70232 10.4622C8.69235 10.5081 8.75815 10.5918 8.78606 10.5679H8.78407ZM9.06323 10.871C9.09513 10.8909 9.11507 10.8251 9.07718 10.7673C9.06722 10.8311 9.03531 10.8471 9.06323 10.871ZM8.38128 10.4662C8.31548 10.5061 8.2098 10.3466 8.18188 10.2808C8.23971 10.3565 8.39325 10.4243 8.38128 10.4662Z" fill="white" stroke="#BD6B00" stroke-width="0.00996994"/>
<path fill-rule="evenodd" clip-rule="evenodd" d="M8.43927 10.558C8.40138 10.5979 8.28573 10.4882 8.24585 10.4324C8.30567 10.4862 8.45522 10.4922 8.43927 10.558Z" fill="white" stroke="#BD6B00" stroke-width="0.00996994"/>
<path fill-rule="evenodd" clip-rule="evenodd" d="M8.50108 10.6418C8.48911 10.6976 8.32162 10.572 8.28174 10.5122C8.35352 10.582 8.51304 10.576 8.50108 10.6418Z" fill="white" stroke="#BD6B00" stroke-width="0.00996994"/>
<path fill-rule="evenodd" clip-rule="evenodd" d="M8.47499 10.7037C8.44907 10.7535 8.31149 10.6279 8.27759 10.5641C8.36333 10.6359 8.49693 10.6538 8.47699 10.7037H8.47499ZM8.4052 10.4584C8.44708 10.4126 8.42913 10.3906 8.39723 10.3188C8.38128 10.3926 8.35535 10.4225 8.4052 10.4584ZM8.46303 10.5442C8.54279 10.5482 8.46303 10.4524 8.44309 10.3707C8.45106 10.4624 8.42315 10.5362 8.46303 10.5442Z" fill="white" stroke="#BD6B00" stroke-width="0.00996994"/>
<path fill-rule="evenodd" clip-rule="evenodd" d="M8.5128 10.62C8.56663 10.608 8.55268 10.5302 8.50881 10.4365C8.51878 10.5382 8.46295 10.596 8.5128 10.62ZM8.49286 10.7735C8.47292 10.8333 8.31738 10.6937 8.29346 10.6379C8.37322 10.7057 8.50681 10.7276 8.49286 10.7735Z" fill="white" stroke="#BD6B00" stroke-width="0.00996994"/>
<path fill-rule="evenodd" clip-rule="evenodd" d="M8.58661 10.8692C8.56468 10.929 8.40117 10.8053 8.35132 10.7375C8.44902 10.8173 8.59857 10.8093 8.58661 10.8692Z" fill="white" stroke="#BD6B00" stroke-width="0.00996994"/>
<path fill-rule="evenodd" clip-rule="evenodd" d="M8.68231 10.9669C8.65639 11.0526 8.48491 10.915 8.43506 10.8472C8.54273 10.931 8.69428 10.9071 8.68231 10.9669ZM8.52279 10.7475C8.56866 10.7695 8.5866 10.6399 8.56068 10.5461C8.56068 10.6458 8.46696 10.7216 8.5208 10.7455L8.52279 10.7475Z" fill="white" stroke="#BD6B00" stroke-width="0.00996994"/>
<path fill-rule="evenodd" clip-rule="evenodd" d="M8.60072 10.8512C8.65655 10.8671 8.6406 10.7255 8.59075 10.6318C8.58477 10.7255 8.54489 10.8113 8.60072 10.8512ZM8.70042 10.9489C8.76024 10.9509 8.72036 10.8272 8.66852 10.7575C8.67649 10.8472 8.64858 10.9369 8.70042 10.9489ZM8.59075 11.0007C8.57081 11.0326 8.52694 10.9748 8.45117 10.9309C8.51897 10.9509 8.59873 10.9708 8.59075 11.0007ZM8.55486 9.94989C8.61468 9.90602 8.56882 9.82626 8.55486 9.75049C8.53492 9.82227 8.48706 9.91798 8.55486 9.94989ZM8.55486 10.0556C8.46513 10.0456 8.47909 9.93394 8.4751 9.86215C8.50302 9.95986 8.5748 9.97581 8.55486 10.0576V10.0556ZM8.56682 10.0416C8.6406 10.0376 8.63661 9.95388 8.6406 9.87013C8.60271 9.94789 8.56084 9.95986 8.56682 10.0416Z" fill="white" stroke="#BD6B00" stroke-width="0.00996994"/>
<path fill-rule="evenodd" clip-rule="evenodd" d="M8.56479 10.1453C8.50497 10.1513 8.47705 10.0935 8.46509 10.0057C8.51893 10.0875 8.56678 10.0616 8.56479 10.1453ZM8.58473 10.1393C8.6585 10.1493 8.64455 10.0636 8.64455 9.99976C8.62062 10.0596 8.5608 10.0795 8.58473 10.1393Z" fill="white" stroke="#BD6B00" stroke-width="0.00996994"/>
<path fill-rule="evenodd" clip-rule="evenodd" d="M8.46899 10.1035C8.47498 10.1593 8.51087 10.2551 8.56869 10.2331C8.59063 10.1653 8.51685 10.1514 8.46899 10.1035Z" fill="white" stroke="#BD6B00" stroke-width="0.00996994"/>
<path fill-rule="evenodd" clip-rule="evenodd" d="M8.58475 10.239C8.56082 10.1911 8.64457 10.1652 8.66052 10.1014C8.67049 10.1931 8.66251 10.253 8.58475 10.241V10.239ZM8.34746 9.65676C8.39332 9.6089 8.35344 9.52914 8.33949 9.45337C8.31955 9.52515 8.28964 9.62086 8.34746 9.65676ZM8.34746 9.74848C8.2677 9.75845 8.24776 9.59494 8.23779 9.52316C8.26571 9.62086 8.35743 9.66274 8.34746 9.75047V9.74848ZM8.36341 9.74848C8.41925 9.71857 8.40728 9.65476 8.42323 9.6089C8.38734 9.66673 8.35145 9.6747 8.36341 9.74848Z" fill="white" stroke="#BD6B00" stroke-width="0.00996994"/>
<path fill-rule="evenodd" clip-rule="evenodd" d="M8.34555 9.85614C8.2638 9.86212 8.21395 9.68067 8.20996 9.60889C8.23588 9.70659 8.35752 9.75844 8.34755 9.85614H8.34555ZM8.3635 9.85215C8.44326 9.83421 8.43329 9.78236 8.42132 9.70061C8.3954 9.78436 8.35153 9.76641 8.3635 9.85215Z" fill="white" stroke="#BD6B00" stroke-width="0.00996994"/>
<path fill-rule="evenodd" clip-rule="evenodd" d="M8.34531 9.95994C8.25359 9.97589 8.25957 9.82834 8.18579 9.72266C8.2496 9.80242 8.36525 9.90212 8.34531 9.95994ZM8.36525 9.95396C8.43703 9.95795 8.44501 9.85227 8.44102 9.8084C8.42308 9.85227 8.34132 9.89215 8.36724 9.95595L8.36525 9.95396Z" fill="white" stroke="#BD6B00" stroke-width="0.00996994"/>
<path fill-rule="evenodd" clip-rule="evenodd" d="M8.2019 9.84619C8.2358 9.95985 8.28565 10.0735 8.34547 10.0655C8.37538 9.99973 8.28765 9.99175 8.2019 9.84619Z" fill="white" stroke="#BD6B00" stroke-width="0.00996994"/>
<path fill-rule="evenodd" clip-rule="evenodd" d="M8.3674 10.0475C8.34348 9.99765 8.42722 9.97372 8.44317 9.90991C8.45314 10.0016 8.44517 10.0615 8.3674 10.0475ZM8.22583 9.97571C8.27568 10.0774 8.29761 10.1951 8.36541 10.1771C8.39133 10.0973 8.28964 10.0814 8.22583 9.97571Z" fill="white" stroke="#BD6B00" stroke-width="0.00996994"/>
<path fill-rule="evenodd" clip-rule="evenodd" d="M8.37922 10.1592C8.34931 10.1033 8.43306 10.0854 8.455 10.0116C8.46497 10.1073 8.455 10.1771 8.37922 10.1572V10.1592ZM8.52279 9.47124C8.57065 9.4832 8.62249 9.42937 8.60454 9.34761C8.54871 9.35958 8.52478 9.41142 8.52279 9.47124ZM8.36527 9.42937C8.36925 9.45329 8.39916 9.45529 8.38919 9.42139C8.38175 9.3994 8.38175 9.37558 8.38919 9.35359C8.3988 9.32377 8.3988 9.29169 8.38919 9.26187C8.38122 9.24193 8.3533 9.25389 8.36527 9.26985C8.37723 9.28779 8.37922 9.32568 8.36925 9.34362C8.35729 9.36955 8.36128 9.40344 8.36527 9.42937ZM8.82189 9.7484C8.80195 9.77433 8.76406 9.75638 8.79397 9.71849C8.8179 9.68858 8.85379 9.66266 8.85379 9.63076C8.85778 9.59088 8.87971 9.53106 8.90165 9.50913C8.92358 9.48719 8.9495 9.5171 8.92558 9.53305C8.89965 9.54901 8.88171 9.62079 8.8837 9.6487C8.88171 9.68858 8.84382 9.71849 8.82189 9.7484ZM8.76207 9.70254C8.74213 9.73046 8.71421 9.71251 8.73017 9.66864C8.74412 9.63873 8.74612 9.59885 8.76207 9.57692C8.786 9.54302 8.82189 9.51511 8.84382 9.49317C8.86775 9.47323 8.8837 9.49317 8.86376 9.51311C8.83932 9.53753 8.81729 9.56424 8.79796 9.59287C8.77005 9.63674 8.78201 9.67263 8.76207 9.70254ZM8.44901 9.55897C8.44702 9.59885 8.47892 9.60683 8.47693 9.551C8.47693 9.49118 8.43306 9.43535 8.45699 9.34562C8.47294 9.30175 8.47294 9.22 8.46497 9.17812C8.45699 9.13426 8.42509 9.16217 8.43904 9.19607C8.45101 9.23595 8.43705 9.30773 8.42708 9.34562C8.39717 9.45329 8.45101 9.50514 8.44702 9.55897H8.44901ZM8.53475 9.33964C8.53077 9.37752 8.49886 9.37952 8.50883 9.32967C8.51681 9.28979 8.51681 9.25788 8.50883 9.22399C8.49687 9.18211 8.50086 9.11033 8.50883 9.08042C8.5188 9.04851 8.54871 9.06646 8.53675 9.09039C8.52283 9.12808 8.52074 9.16912 8.53077 9.20803C8.54273 9.24791 8.54074 9.30374 8.53475 9.34163V9.33964ZM8.22369 10.0794C8.23964 10.0974 8.26357 10.0854 8.24363 10.0595C8.22369 10.0395 8.22967 10.0355 8.21771 10.0116C8.20575 9.98369 8.20774 9.96974 8.19378 9.95179C8.17982 9.93185 8.16188 9.95179 8.17384 9.96575C8.18979 9.98569 8.18581 9.99765 8.19378 10.0156C8.21372 10.0455 8.20774 10.0615 8.22369 10.0794ZM8.63047 10.5699C8.65484 10.5834 8.67556 10.6026 8.69085 10.6259C8.70614 10.6492 8.71552 10.6758 8.7182 10.7035C8.72029 10.7532 8.73394 10.8017 8.75808 10.8451C8.7182 10.8351 8.69826 10.7713 8.69228 10.7095C8.6863 10.6457 8.6524 10.6198 8.63246 10.5699H8.63047ZM8.73216 10.6876C8.76606 10.7494 8.81192 10.7733 8.81591 10.8192C8.81989 10.873 8.82388 10.875 8.83784 10.9269C8.79796 10.9169 8.78799 10.9129 8.77802 10.8331C8.77204 10.7773 8.72618 10.7394 8.73216 10.6876Z" fill="white" stroke="#BD6B00" stroke-width="0.00996994"/>
<path fill-rule="evenodd" clip-rule="evenodd" d="M9.78099 11.262C9.80093 11.2979 9.82087 11.3518 9.86075 11.3418C9.86075 11.3159 9.81887 11.2959 9.78099 11.262ZM9.84081 11.274C9.91459 11.3059 9.98039 11.2979 9.99036 11.3458C9.91857 11.3537 9.89066 11.3258 9.83881 11.274H9.84081ZM9.51978 11.0208C9.56932 11.0593 9.60444 11.1134 9.61947 11.1743C9.63555 11.2294 9.65974 11.2818 9.69126 11.3298C9.6394 11.295 9.60187 11.2426 9.58558 11.1823C9.57162 11.1224 9.55367 11.0766 9.51978 11.0227V11.0208ZM9.58159 11.0208C9.63742 11.0646 9.68926 11.1165 9.70522 11.1783C9.72117 11.2361 9.73114 11.28 9.76902 11.3378C9.7092 11.2999 9.68727 11.2441 9.66932 11.1823C9.65537 11.1224 9.61947 11.0786 9.58159 11.0227V11.0208ZM9.76504 11.1663C9.76426 11.1613 9.76522 11.1562 9.76776 11.1519C9.7703 11.1475 9.77427 11.1442 9.77899 11.1424C9.79605 11.1364 9.81335 11.131 9.83084 11.1264C9.85078 11.1205 9.86274 11.1344 9.86274 11.1444V11.1843C9.86274 11.1982 9.85875 11.2002 9.84878 11.2022C9.83483 11.2042 9.81489 11.2062 9.80093 11.2162C9.78896 11.2241 9.777 11.2182 9.77102 11.2062L9.76504 11.1663ZM9.9764 11.1663C9.9764 11.1543 9.97241 11.1444 9.96444 11.1424C9.9493 11.1361 9.93293 11.1334 9.91658 11.1344C9.89664 11.1344 9.89465 11.1384 9.89465 11.1464V11.1882C9.89465 11.2042 9.89465 11.2042 9.90262 11.2082C9.91658 11.2082 9.93851 11.2082 9.95247 11.2202C9.96244 11.2261 9.97241 11.2202 9.9744 11.2082L9.9764 11.1663Z" fill="white"/>
<path fill-rule="evenodd" clip-rule="evenodd" d="M10.852 9.73058C10.8759 9.6907 10.9058 9.78642 11.0075 9.85621C11.0534 9.88811 11.0873 9.97385 11.0873 10.0297C11.0873 10.0696 11.0833 10.1074 11.0873 10.1453C11.0892 10.1673 11.1152 10.2211 11.0972 10.2351C11.0534 10.267 10.9955 10.3427 10.9696 10.3687C10.9457 10.3886 10.9257 10.263 10.9098 10.2091C10.8898 10.1493 10.8978 10.0755 10.846 10.0217C10.8101 9.98183 10.7184 9.94594 10.7263 9.92998L10.852 9.73058Z" fill="white" stroke="#BD6B00" stroke-width="0.00996994"/>
<path fill-rule="evenodd" clip-rule="evenodd" d="M10.8581 10.0375C10.866 10.0187 10.8768 10.0012 10.89 9.98569C10.9027 9.96993 10.9192 9.95759 10.9379 9.9498C10.9562 9.94435 10.9728 9.93401 10.9857 9.91989C10.9934 9.91133 10.9988 9.90108 11.0017 9.88998C11.004 9.87678 11.004 9.86329 11.0017 9.8501L11.0077 9.85608C11.0535 9.88798 11.0874 9.97372 11.0874 10.0296C11.088 10.0448 11.088 10.0601 11.0874 10.0754C11.0834 10.0854 11.0814 10.0954 11.0755 10.1013L11.0535 10.1173L10.9997 10.1313C10.9795 10.1403 10.9618 10.154 10.9478 10.1711C10.9333 10.1865 10.9212 10.204 10.912 10.223L10.908 10.207C10.892 10.1532 10.894 10.0894 10.8561 10.0375H10.8581Z" fill="#BF0000" stroke="#BD6B00" stroke-width="0.00996994"/>
<path d="M11.0016 9.84814C11.0115 9.91395 10.9737 9.93787 10.9378 9.94984C10.9019 9.9638 10.872 10.0017 10.858 10.0376M11.0913 10.0675C11.0754 10.1273 11.0355 10.1193 10.9996 10.1313C10.9637 10.1452 10.9258 10.1911 10.9099 10.227" stroke="#BD6B00" stroke-width="0.00996994"/>
<path fill-rule="evenodd" clip-rule="evenodd" d="M10.886 9.69067L10.866 9.67871L10.5131 10.2749L10.5331 10.2869L10.886 9.68868V9.69067Z" fill="white" stroke="#BD6B00" stroke-width="0.00996994"/>
<path fill-rule="evenodd" clip-rule="evenodd" d="M10.848 9.66668C10.848 9.67726 10.8522 9.6874 10.8597 9.69488C10.8671 9.70236 10.8773 9.70656 10.8879 9.70656C10.8984 9.70656 10.9086 9.70236 10.9161 9.69488C10.9235 9.6874 10.9277 9.67726 10.9277 9.66668C10.9277 9.6561 10.9235 9.64596 10.9161 9.63848C10.9086 9.631 10.8984 9.6268 10.8879 9.6268C10.8773 9.6268 10.8671 9.631 10.8597 9.63848C10.8522 9.64596 10.848 9.6561 10.848 9.66668ZM10.5449 9.18812H10.4013V9.22003H10.5449V9.18812ZM10.5449 9.24994H10.4013V9.52511H10.5449V9.24994ZM10.5529 9.15024H10.3933C10.3894 9.0964 10.4432 9.03857 10.4731 9.03857C10.505 9.04057 10.5549 9.09839 10.5529 9.15024Z" fill="white" stroke="#BD6B00" stroke-width="0.00996994"/>
<path fill-rule="evenodd" clip-rule="evenodd" d="M10.1484 9.11836C10.1783 9.13032 10.2022 9.16422 10.2162 9.2041C10.2301 9.24398 10.2361 9.28984 10.2281 9.32573C10.2281 9.33969 10.2221 9.34767 10.2181 9.35564C10.2142 9.36162 10.2102 9.36561 10.2062 9.36561C10.2002 9.36561 10.1942 9.36561 10.1922 9.35963L10.1882 9.34368C10.1902 9.3038 10.1902 9.26791 10.1823 9.236C10.1734 9.20057 10.1522 9.16947 10.1224 9.14827C10.1165 9.14428 10.1145 9.1383 10.1125 9.13431C10.1125 9.12905 10.1147 9.12403 10.1184 9.12035C10.1264 9.11437 10.1384 9.11238 10.1484 9.11836ZM10.1444 9.12633C10.1364 9.12235 10.1284 9.12633 10.1244 9.12833L10.1224 9.13232C10.1224 9.13431 10.1224 9.1363 10.1284 9.14029C10.1591 9.16276 10.1809 9.19519 10.1902 9.23202C10.1985 9.26863 10.2005 9.30639 10.1962 9.34368C10.1962 9.34799 10.1976 9.35219 10.2002 9.35564C10.2002 9.35564 10.2002 9.35764 10.2042 9.35564C10.2042 9.35564 10.2082 9.35564 10.2122 9.34966C10.2161 9.34217 10.2188 9.33409 10.2201 9.32573C10.2261 9.28984 10.2201 9.24597 10.2062 9.20609C10.1922 9.1702 10.1703 9.1383 10.1464 9.12633H10.1444Z" fill="#BD6B00"/>
<path fill-rule="evenodd" clip-rule="evenodd" d="M10.0964 9.15637C10.1263 9.17033 10.1462 9.20223 10.1562 9.24012C10.1668 9.27842 10.1688 9.31858 10.1622 9.35776C10.1582 9.38369 10.1423 9.39764 10.1303 9.39764C10.1243 9.39964 10.1183 9.39764 10.1143 9.39166C10.1103 9.38568 10.1084 9.3797 10.1103 9.37172C10.1183 9.33982 10.1203 9.30393 10.1163 9.27003C10.1103 9.23613 10.0964 9.20622 10.0725 9.18828C10.0665 9.18229 10.0625 9.17831 10.0625 9.17232C10.0623 9.17016 10.0626 9.16799 10.0633 9.16593C10.0639 9.16387 10.065 9.16198 10.0665 9.16036C10.0745 9.15438 10.0864 9.15238 10.0964 9.15637ZM10.0924 9.16634C10.0844 9.16235 10.0765 9.16435 10.0725 9.16634L10.0705 9.17232L10.0764 9.1803C10.0898 9.19103 10.101 9.20431 10.1092 9.21937C10.1174 9.23443 10.1225 9.25097 10.1243 9.26804C10.1303 9.30393 10.1263 9.34181 10.1203 9.37172C10.1183 9.3797 10.1203 9.38369 10.1203 9.38767L10.1303 9.38967C10.1363 9.38967 10.1502 9.3797 10.1542 9.35577C10.1602 9.32187 10.1582 9.278 10.1482 9.24211C10.1383 9.20622 10.1183 9.17631 10.0924 9.16634Z" fill="#BD6B00"/>
<path fill-rule="evenodd" clip-rule="evenodd" d="M10.5531 9.74854H10.3935V9.96787H10.5531V9.74854ZM10.5431 10.0955H10.3896V10.1433H10.5431V10.0955ZM10.5471 10.1772H10.3876V10.3507H10.5471V10.1772ZM10.559 10.3866H10.3856V10.4843H10.559V10.3866ZM10.5371 10.0556H10.3975L10.3696 10.0078H10.561L10.5371 10.0556ZM10.3497 9.88413L10.3477 9.76449H10.252C10.2931 9.79652 10.3265 9.83741 10.3497 9.88413Z" fill="white" stroke="#BD6B00" stroke-width="0.00996994"/>
<path fill-rule="evenodd" clip-rule="evenodd" d="M10.5271 9.93402C10.5271 9.95995 10.4972 9.94998 10.4972 9.93602V9.82436C10.4972 9.80442 10.4493 9.8084 10.4493 9.82236V9.942C10.4493 9.96194 10.4154 9.95995 10.4174 9.942V9.80242C10.4174 9.75855 10.5271 9.76055 10.5271 9.80043V9.93402ZM10.5271 10.1992H10.4134V10.3388H10.5271V10.1992Z" stroke="#BD6B00" stroke-width="0.00996994"/>
<path fill-rule="evenodd" clip-rule="evenodd" d="M10.4554 10.259H10.4156V10.2789H10.4554V10.259ZM10.5252 10.259H10.4853V10.2789H10.5252V10.259ZM10.4853 10.1991H10.4554V10.259H10.4853V10.1991ZM10.4853 10.2789H10.4554V10.3407H10.4853V10.2789ZM11.1174 8.78341C11.1095 8.89308 11.1454 8.9549 11.2032 8.94493C11.2191 8.88511 11.1832 8.84323 11.1174 8.78341ZM11.247 9.02867C11.2989 9.00275 11.261 8.79936 11.2411 8.71362C11.2271 8.82329 11.2012 8.97882 11.247 9.02867Z" fill="white" stroke="#BD6B00" stroke-width="0.00996994"/>
<path fill-rule="evenodd" clip-rule="evenodd" d="M11.2289 9.03863C11.1412 9.06854 11.0694 8.97483 11.0475 8.86516C11.1193 8.96486 11.2369 8.96486 11.2269 9.03863H11.2289ZM11.2947 9.14033C11.3625 9.12238 11.3227 8.90703 11.3087 8.82129C11.2947 8.91102 11.2469 9.11042 11.2947 9.14033ZM11.2708 9.13435C11.2668 9.06057 11.193 9.08051 11.1412 9.04063C11.1512 9.08051 11.1811 9.14432 11.2708 9.13435ZM11.3546 9.23404C11.4224 9.2141 11.3825 8.9828 11.3865 8.88709C11.3665 8.97084 11.3027 9.21211 11.3546 9.23404ZM11.3227 9.22407C11.2668 9.24202 11.193 9.20413 11.1871 9.13833C11.2369 9.17223 11.3127 9.14631 11.3227 9.22407Z" fill="white" stroke="#BD6B00" stroke-width="0.00996994"/>
<path fill-rule="evenodd" clip-rule="evenodd" d="M11.4065 9.33581C11.4703 9.34179 11.4424 9.14438 11.4424 8.96094C11.4185 9.13242 11.3527 9.28995 11.4065 9.33581Z" fill="white" stroke="#BD6B00" stroke-width="0.00996994"/>
<path fill-rule="evenodd" clip-rule="evenodd" d="M11.3826 9.32767C11.3387 9.34761 11.2609 9.31372 11.239 9.23994C11.3188 9.27384 11.3706 9.23994 11.3826 9.32767ZM10.8721 8.88501C10.8841 8.98272 10.924 9.03855 10.9818 9.02858C10.9977 8.96876 10.9499 8.92888 10.8721 8.88501ZM11.0276 9.13226C10.9299 9.14622 10.896 9.07244 10.8282 8.97474C10.922 9.04253 11.0316 9.0545 11.0276 9.13426V9.13226Z" fill="white" stroke="#BD6B00" stroke-width="0.00996994"/>
<path fill-rule="evenodd" clip-rule="evenodd" d="M11.0574 9.12229C11.1093 9.05848 11.0574 8.97673 11.0175 8.90894C11.0255 9.01063 10.9916 9.06845 11.0574 9.12229ZM11.0774 9.22797C11.0853 9.16417 10.9777 9.15021 10.9298 9.11631C10.9477 9.1522 10.9697 9.24991 11.0793 9.22797H11.0774Z" fill="white" stroke="#BD6B00" stroke-width="0.00996994"/>
<path fill-rule="evenodd" clip-rule="evenodd" d="M11.1013 9.228C11.175 9.22003 11.1451 9.09441 11.0913 9.02661C11.1132 9.12232 11.0514 9.18812 11.1013 9.228Z" fill="white" stroke="#BD6B00" stroke-width="0.00996994"/>
<path fill-rule="evenodd" clip-rule="evenodd" d="M11.1574 9.3338C11.2411 9.29392 11.1873 9.19023 11.1574 9.12842C11.1693 9.21017 11.1015 9.27199 11.1574 9.3318V9.3338Z" fill="white" stroke="#BD6B00" stroke-width="0.00996994"/>
<path fill-rule="evenodd" clip-rule="evenodd" d="M11.1412 9.3217C11.0974 9.38152 11.0116 9.30575 10.9937 9.21802C11.0675 9.27983 11.1233 9.26986 11.1412 9.3237V9.3217ZM11.3327 9.72648C11.3406 9.64074 11.2768 9.48721 11.3227 9.40346C11.3287 9.39149 11.3087 9.36158 11.2948 9.37953C11.2748 9.40944 11.2549 9.49319 11.2449 9.46128C11.2369 9.42739 11.2349 9.36956 11.205 9.3576C11.1851 9.35161 11.1592 9.34563 11.1672 9.37754C11.1751 9.40545 11.1911 9.44533 11.1731 9.44733C11.1632 9.44733 11.1333 9.40745 11.1073 9.38751C11.0874 9.37155 11.0555 9.39947 11.0874 9.4234C11.1831 9.50316 11.2768 9.54104 11.3327 9.72648ZM11.5061 11.0126C11.5181 11.0126 11.5321 11.0066 11.5181 11.0246C11.4044 11.1641 11.3725 11.204 11.207 11.1841C11.0415 11.1622 11.0017 11.1163 10.884 11.0505C10.8499 11.0326 10.8127 11.0216 10.7743 11.0182C10.736 11.0147 10.6974 11.0189 10.6607 11.0306C10.6288 11.0405 10.6088 11.0405 10.6328 11.0166C10.6567 10.9947 10.6826 10.9628 10.7125 10.9408C10.7869 10.8911 10.8776 10.8718 10.9658 10.887C11.0854 10.9069 11.1871 10.9847 11.3087 11.0146C11.3739 11.0278 11.441 11.0278 11.5061 11.0146V11.0126ZM10.553 11.2619C10.5331 11.2658 10.5191 11.3057 10.5071 11.2798C10.4912 11.2339 10.5032 11.2 10.5231 11.202C10.547 11.208 10.5849 11.2619 10.553 11.2619Z" fill="white" stroke="#BD6B00" stroke-width="0.00996994"/>
<path fill-rule="evenodd" clip-rule="evenodd" d="M11.5839 9.66081C11.6078 9.63289 11.6019 9.62492 11.564 9.62292C11.5361 9.62292 11.4802 9.64286 11.4583 9.62492C11.4384 9.61096 11.4483 9.55114 11.4384 9.52522C11.4344 9.50727 11.4244 9.48534 11.3985 9.52123C11.3267 9.63688 11.239 9.77646 11.1991 9.91205C11.1791 9.98782 11.1991 10.1075 11.2669 10.1872C11.2669 10.1194 11.2908 10.0736 11.3207 10.0157C11.3606 9.94196 11.5022 9.73658 11.5839 9.65881V9.66081Z" fill="white"/>
<path fill-rule="evenodd" clip-rule="evenodd" d="M11.2869 10.2669C11.2071 10.2669 11.1932 10.1613 11.1932 10.1313C11.2331 10.1393 11.3009 10.2051 11.2869 10.2669ZM10.599 11.3018C10.5431 11.3138 10.5451 11.1782 10.603 11.1204C10.577 11.2081 10.6428 11.2879 10.601 11.2998L10.599 11.3018ZM10.6229 11.2998C10.6189 11.3636 10.7824 11.2918 10.8223 11.24C10.7266 11.2819 10.6269 11.248 10.6229 11.2998ZM10.6927 11.2081C10.6867 11.2699 10.8323 11.2141 10.8781 11.1662C10.7804 11.1981 10.6987 11.1563 10.6927 11.2061V11.2081ZM10.6668 11.2161C10.6089 11.23 10.6189 11.0885 10.6747 11.0406C10.6468 11.1343 10.7106 11.2021 10.6668 11.2161ZM10.7266 11.1303C10.6688 11.1443 10.7027 11.0227 10.7445 10.9748C10.7366 11.0625 10.7645 11.1244 10.7246 11.1303H10.7266ZM10.7565 11.1303C10.7505 11.1941 10.8642 11.1463 10.908 11.0845C10.8123 11.1144 10.7625 11.0785 10.7565 11.1303ZM10.7864 11.0805C10.7505 11.0546 10.7884 10.9848 10.8602 10.9888C10.8522 11.0306 10.8283 11.1064 10.7864 11.0805ZM10.5072 11.3736C10.5053 11.4374 10.6668 11.4055 10.7186 11.3377C10.6149 11.3577 10.5132 11.3218 10.5092 11.3736H10.5072ZM11.1533 11.258C11.1473 11.3218 11.3248 11.25 11.3687 11.1902C11.2749 11.2221 11.1593 11.2061 11.1533 11.258ZM11.0456 11.2839C11.0077 11.258 11.0835 11.1902 11.1453 11.1742C11.1373 11.2161 11.0855 11.3098 11.0456 11.2859V11.2839ZM11.0337 11.3297C11.0297 11.3876 11.2231 11.3557 11.2729 11.3018C11.1074 11.3317 11.0396 11.2799 11.0337 11.3297Z" fill="white" stroke="#BD6B00" stroke-width="0.00996994"/>
<path fill-rule="evenodd" clip-rule="evenodd" d="M10.9418 11.3676C10.9219 11.4215 11.1073 11.4075 11.1731 11.3776C11.0674 11.3776 10.9577 11.3297 10.9418 11.3676Z" fill="white" stroke="#BD6B00" stroke-width="0.00996994"/>
<path fill-rule="evenodd" clip-rule="evenodd" d="M10.856 11.4075C10.8361 11.4554 11.0076 11.4554 11.0913 11.4275C10.9796 11.4275 10.876 11.3597 10.856 11.4075ZM10.7304 11.4335C10.6985 11.4913 10.8819 11.4953 10.9398 11.4673C10.8361 11.4534 10.7563 11.3876 10.7304 11.4335ZM10.9438 11.3357C11.0016 11.3716 10.9976 11.264 11.0435 11.1902C10.9717 11.256 10.9039 11.3018 10.9438 11.3357Z" fill="white" stroke="#BD6B00" stroke-width="0.00996994"/>
<path fill-rule="evenodd" clip-rule="evenodd" d="M10.8398 11.3755C10.8877 11.4174 10.9276 11.2698 10.9715 11.1861C10.8997 11.2658 10.796 11.3396 10.8398 11.3735V11.3755ZM10.7043 11.4154C10.7441 11.4632 10.8638 11.2758 10.9076 11.1761C10.8418 11.2539 10.6724 11.3755 10.7043 11.4154ZM10.8199 11.5589C10.8398 11.6307 11.1429 11.4911 11.1788 11.4174C11.0034 11.5091 10.8159 11.4891 10.8199 11.5569V11.5589ZM11.791 10.0874C11.799 10.0774 11.8189 10.0874 11.8149 10.1093C11.8089 10.1392 11.7651 10.2928 11.6893 10.3446C11.6354 10.3845 11.3503 10.4463 11.2227 10.4742C11.1509 10.4882 11.0931 10.5241 11.0452 10.5799C11.0616 10.5137 11.0816 10.4485 11.105 10.3845C11.129 10.3247 11.1928 10.2608 11.2606 10.2589C11.3822 10.2529 11.5417 10.2429 11.6594 10.1931C11.7127 10.1706 11.7588 10.1341 11.793 10.0874H11.791Z" fill="white" stroke="#BD6B00" stroke-width="0.00996994"/>
<path fill-rule="evenodd" clip-rule="evenodd" d="M11.0875 10.6957C11.0476 10.7236 11.0057 10.6219 11.0536 10.5242C11.0556 10.6179 11.1294 10.6498 11.0875 10.6957Z" fill="white" stroke="#BD6B00" stroke-width="0.00996994"/>
<path fill-rule="evenodd" clip-rule="evenodd" d="M11.0496 10.7893C10.9957 10.8053 10.9798 10.7096 11.0137 10.6338C11.0077 10.7155 11.0994 10.7654 11.0496 10.7893Z" fill="white" stroke="#BD6B00" stroke-width="0.00996994"/>
<path fill-rule="evenodd" clip-rule="evenodd" d="M11.0076 10.8652C10.9558 10.8911 10.9378 10.7934 10.9737 10.7236C10.9697 10.8134 11.0475 10.8413 11.0076 10.8632V10.8652Z" fill="white" stroke="#BD6B00" stroke-width="0.00996994"/>
<path fill-rule="evenodd" clip-rule="evenodd" d="M11.0297 10.871C11.0496 10.9308 11.1693 10.8172 11.1892 10.7554C11.1154 10.8291 11.0157 10.8192 11.0297 10.869V10.871Z" fill="white" stroke="#BD6B00" stroke-width="0.00996994"/>
<path fill-rule="evenodd" clip-rule="evenodd" d="M11.0834 10.7775C11.1073 10.8373 11.2569 10.6778 11.2908 10.604C11.217 10.6778 11.0674 10.7336 11.0834 10.7755V10.7775Z" fill="white" stroke="#BD6B00" stroke-width="0.00996994"/>
<path fill-rule="evenodd" clip-rule="evenodd" d="M11.1134 10.6837C11.1373 10.7534 11.2988 10.568 11.3467 10.5022C11.2669 10.574 11.0954 10.6338 11.1134 10.6837ZM11.1194 10.6159C11.0595 10.6039 11.1214 10.556 11.1931 10.4783C11.1951 10.56 11.1832 10.6179 11.1194 10.6159Z" fill="white" stroke="#BD6B00" stroke-width="0.00996994"/>
<path fill-rule="evenodd" clip-rule="evenodd" d="M11.2169 10.5679C11.191 10.542 11.2388 10.53 11.2987 10.4622C11.3086 10.5081 11.2428 10.5918 11.2149 10.5679H11.2169ZM10.9377 10.871C10.9058 10.8909 10.8859 10.8251 10.9238 10.7673C10.9338 10.8311 10.9657 10.8471 10.9377 10.871ZM11.6197 10.4662C11.6855 10.5061 11.7912 10.3466 11.8191 10.2808C11.7613 10.3565 11.6077 10.4243 11.6197 10.4662Z" fill="white" stroke="#BD6B00" stroke-width="0.00996994"/>
<path fill-rule="evenodd" clip-rule="evenodd" d="M11.562 10.558C11.5998 10.5979 11.7155 10.4882 11.7554 10.4324C11.6956 10.4862 11.546 10.4922 11.562 10.558Z" fill="white" stroke="#BD6B00" stroke-width="0.00996994"/>
<path fill-rule="evenodd" clip-rule="evenodd" d="M11.5001 10.6418C11.5121 10.6976 11.6796 10.572 11.7195 10.5122C11.6477 10.582 11.4882 10.576 11.5001 10.6418Z" fill="white" stroke="#BD6B00" stroke-width="0.00996994"/>
<path fill-rule="evenodd" clip-rule="evenodd" d="M11.5262 10.7037C11.5522 10.7535 11.6897 10.6279 11.7236 10.5641C11.6379 10.6359 11.5043 10.6538 11.5242 10.7037H11.5262ZM11.596 10.4584C11.5541 10.4126 11.5721 10.3906 11.604 10.3188C11.6199 10.3926 11.6459 10.4225 11.596 10.4584ZM11.5382 10.5442C11.4584 10.5482 11.5382 10.4524 11.5581 10.3707C11.5502 10.4624 11.5781 10.5362 11.5382 10.5442Z" fill="white" stroke="#BD6B00" stroke-width="0.00996994"/>
<path fill-rule="evenodd" clip-rule="evenodd" d="M11.4882 10.62C11.4343 10.608 11.4483 10.5302 11.4922 10.4365C11.4822 10.5382 11.538 10.596 11.4882 10.62ZM11.5081 10.7735C11.5281 10.8333 11.6836 10.6937 11.7075 10.6379C11.6278 10.7057 11.4942 10.7276 11.5081 10.7735Z" fill="white" stroke="#BD6B00" stroke-width="0.00996994"/>
<path fill-rule="evenodd" clip-rule="evenodd" d="M11.4144 10.8692C11.4363 10.929 11.5998 10.8053 11.6497 10.7375C11.552 10.8173 11.4024 10.8093 11.4144 10.8692Z" fill="white" stroke="#BD6B00" stroke-width="0.00996994"/>
<path fill-rule="evenodd" clip-rule="evenodd" d="M11.3187 10.9669C11.3446 11.0526 11.5161 10.915 11.5659 10.8472C11.4582 10.931 11.3067 10.9071 11.3187 10.9669ZM11.4782 10.7475C11.4323 10.7695 11.4144 10.6399 11.4403 10.5461C11.4403 10.6458 11.534 10.7216 11.4802 10.7455L11.4782 10.7475Z" fill="white" stroke="#BD6B00" stroke-width="0.00996994"/>
<path fill-rule="evenodd" clip-rule="evenodd" d="M11.4005 10.8512C11.3447 10.8671 11.3606 10.7255 11.4105 10.6318C11.4165 10.7255 11.4563 10.8113 11.4005 10.8512ZM11.3008 10.9489C11.241 10.9509 11.2809 10.8272 11.3327 10.7575C11.3247 10.8472 11.3526 10.9369 11.3008 10.9489ZM11.4105 11.0007C11.4304 11.0326 11.4743 10.9748 11.55 10.9309C11.4823 10.9509 11.4025 10.9708 11.4105 11.0007ZM11.4464 9.94989C11.3865 9.90602 11.4324 9.82626 11.4464 9.75049C11.4663 9.82227 11.5142 9.91798 11.4464 9.94989ZM11.4464 10.0556C11.5361 10.0456 11.5221 9.93394 11.5261 9.86215C11.4982 9.95986 11.4264 9.97581 11.4464 10.0576V10.0556ZM11.4344 10.0416C11.3606 10.0376 11.3646 9.95388 11.3606 9.87013C11.3985 9.94789 11.4404 9.95986 11.4344 10.0416Z" fill="white" stroke="#BD6B00" stroke-width="0.00996994"/>
<path fill-rule="evenodd" clip-rule="evenodd" d="M11.4364 10.1453C11.4963 10.1513 11.5242 10.0935 11.5361 10.0057C11.4823 10.0875 11.4344 10.0616 11.4364 10.1453ZM11.4165 10.1393C11.3427 10.1493 11.3567 10.0636 11.3567 9.99976C11.3806 10.0596 11.4404 10.0795 11.4165 10.1393Z" fill="white" stroke="#BD6B00" stroke-width="0.00996994"/>
<path fill-rule="evenodd" clip-rule="evenodd" d="M11.532 10.1035C11.526 10.1593 11.4901 10.2551 11.4323 10.2331C11.4103 10.1653 11.4841 10.1514 11.532 10.1035Z" fill="white" stroke="#BD6B00" stroke-width="0.00996994"/>
<path fill-rule="evenodd" clip-rule="evenodd" d="M11.4165 10.239C11.4404 10.1911 11.3567 10.1652 11.3407 10.1014C11.3307 10.1931 11.3387 10.253 11.4165 10.241V10.239ZM11.6538 9.65676C11.6079 9.6089 11.6478 9.52914 11.6617 9.45337C11.6817 9.52515 11.7116 9.62086 11.6538 9.65676ZM11.6538 9.74848C11.7335 9.75845 11.7535 9.59494 11.7634 9.52316C11.7355 9.62086 11.6438 9.66274 11.6538 9.75047V9.74848ZM11.6378 9.74848C11.582 9.71857 11.5939 9.65476 11.578 9.6089C11.6139 9.66673 11.6498 9.6747 11.6378 9.74848Z" fill="white" stroke="#BD6B00" stroke-width="0.00996994"/>
<path fill-rule="evenodd" clip-rule="evenodd" d="M11.6557 9.85614C11.7374 9.86212 11.7873 9.68067 11.7913 9.60889C11.7653 9.70659 11.6437 9.75844 11.6537 9.85614H11.6557ZM11.6377 9.85215C11.558 9.83421 11.5679 9.78236 11.5799 9.70061C11.6058 9.78436 11.6497 9.76641 11.6377 9.85215Z" fill="white" stroke="#BD6B00" stroke-width="0.00996994"/>
<path fill-rule="evenodd" clip-rule="evenodd" d="M11.6557 9.95994C11.7474 9.97589 11.7414 9.82834 11.8152 9.72266C11.7514 9.80242 11.6357 9.90212 11.6557 9.95994ZM11.6357 9.95396C11.5639 9.95795 11.556 9.85227 11.56 9.8084C11.5779 9.85227 11.6597 9.89215 11.6337 9.95595L11.6357 9.95396Z" fill="white" stroke="#BD6B00" stroke-width="0.00996994"/>
<path fill-rule="evenodd" clip-rule="evenodd" d="M11.7993 9.84619C11.7654 9.95985 11.7156 10.0735 11.6557 10.0655C11.6258 9.99973 11.7136 9.99175 11.7993 9.84619Z" fill="white" stroke="#BD6B00" stroke-width="0.00996994"/>
<path fill-rule="evenodd" clip-rule="evenodd" d="M11.6336 10.0475C11.6575 9.99765 11.5738 9.97372 11.5578 9.90991C11.5478 10.0016 11.5558 10.0615 11.6336 10.0475ZM11.7751 9.97571C11.7253 10.0774 11.7034 10.1951 11.6356 10.1771C11.6096 10.0973 11.7113 10.0814 11.7751 9.97571Z" fill="white" stroke="#BD6B00" stroke-width="0.00996994"/>
<path fill-rule="evenodd" clip-rule="evenodd" d="M11.6218 10.1592C11.6517 10.1033 11.5679 10.0854 11.546 10.0116C11.536 10.1073 11.546 10.1771 11.6218 10.1572V10.1592ZM11.4782 9.47124C11.4303 9.4832 11.3785 9.42937 11.3964 9.34761C11.4523 9.35958 11.4762 9.41142 11.4782 9.47124ZM11.6357 9.42937C11.6317 9.45329 11.6018 9.45529 11.6118 9.42139C11.6192 9.3994 11.6192 9.37558 11.6118 9.35359C11.6022 9.32377 11.6022 9.29169 11.6118 9.26187C11.6198 9.24193 11.6477 9.25389 11.6357 9.26985C11.6237 9.28779 11.6218 9.32568 11.6317 9.34362C11.6437 9.36955 11.6397 9.40344 11.6357 9.42937ZM11.1791 9.7484C11.199 9.77433 11.2369 9.75638 11.207 9.71849C11.1831 9.68858 11.1472 9.66266 11.1472 9.63076C11.1432 9.59088 11.1213 9.53106 11.0993 9.50913C11.0774 9.48719 11.0515 9.5171 11.0754 9.53305C11.1013 9.54901 11.1193 9.62079 11.1173 9.6487C11.1193 9.68858 11.1572 9.71849 11.1791 9.7484ZM11.2389 9.70254C11.2588 9.73046 11.2868 9.71251 11.2708 9.66864C11.2569 9.63873 11.2549 9.59885 11.2389 9.57692C11.215 9.54302 11.1791 9.51511 11.1572 9.49317C11.1332 9.47323 11.1173 9.49317 11.1372 9.51311C11.1617 9.53753 11.1837 9.56424 11.203 9.59287C11.2309 9.63674 11.219 9.67263 11.2389 9.70254ZM11.552 9.55897C11.554 9.59885 11.5221 9.60683 11.524 9.551C11.524 9.49118 11.5679 9.43535 11.544 9.34562C11.528 9.30175 11.528 9.22 11.536 9.17812C11.544 9.13426 11.5759 9.16217 11.5619 9.19607C11.55 9.23595 11.5639 9.30773 11.5739 9.34562C11.6038 9.45329 11.55 9.50514 11.554 9.55897H11.552ZM11.4662 9.33964C11.4702 9.37752 11.5021 9.37952 11.4921 9.32967C11.4842 9.28979 11.4842 9.25788 11.4921 9.22399C11.5041 9.18211 11.5001 9.11033 11.4921 9.08042C11.4822 9.04851 11.4523 9.06646 11.4642 9.09039C11.4781 9.12808 11.4802 9.16912 11.4702 9.20803C11.4582 9.24791 11.4602 9.30374 11.4662 9.34163V9.33964ZM11.7773 10.0794C11.7613 10.0974 11.7374 10.0854 11.7573 10.0595C11.7773 10.0395 11.7713 10.0355 11.7833 10.0116C11.7952 9.98369 11.7932 9.96974 11.8072 9.95179C11.8212 9.93185 11.8391 9.95179 11.8271 9.96575C11.8112 9.98569 11.8152 9.99765 11.8072 10.0156C11.7873 10.0455 11.7932 10.0615 11.7773 10.0794ZM11.3705 10.5699C11.3461 10.5834 11.3254 10.6026 11.3101 10.6259C11.2948 10.6492 11.2855 10.6758 11.2828 10.7035C11.2807 10.7532 11.267 10.8017 11.2429 10.8451C11.2828 10.8351 11.3027 10.7713 11.3087 10.7095C11.3147 10.6457 11.3486 10.6198 11.3685 10.5699H11.3705ZM11.2688 10.6876C11.2349 10.7494 11.1891 10.7733 11.1851 10.8192C11.1811 10.873 11.1771 10.875 11.1631 10.9269C11.203 10.9169 11.213 10.9129 11.223 10.8331C11.2289 10.7773 11.2748 10.7394 11.2688 10.6876Z" fill="white" stroke="#BD6B00" stroke-width="0.00996994"/>
<path fill-rule="evenodd" clip-rule="evenodd" d="M10.2202 11.2618C10.2003 11.2977 10.1804 11.3515 10.1405 11.3415C10.1405 11.3156 10.1823 11.2957 10.2202 11.2618ZM10.1604 11.2737C10.0866 11.3056 10.0208 11.2977 10.0109 11.3455C10.0826 11.3535 10.1106 11.3256 10.1624 11.2737H10.1604ZM10.4814 11.0205C10.4319 11.059 10.3968 11.1131 10.3817 11.174C10.3657 11.2292 10.3415 11.2816 10.31 11.3296C10.3618 11.2947 10.3993 11.2423 10.4156 11.182C10.4296 11.1222 10.4475 11.0763 10.4814 11.0225V11.0205ZM10.4196 11.0205C10.3638 11.0644 10.312 11.1162 10.296 11.178C10.2801 11.2359 10.2701 11.2797 10.2322 11.3376C10.292 11.2997 10.314 11.2438 10.3319 11.182C10.3459 11.1222 10.3817 11.0783 10.4196 11.0225V11.0205ZM10.2362 11.1661C10.237 11.1611 10.236 11.156 10.2335 11.1516C10.2309 11.1473 10.227 11.1439 10.2222 11.1421C10.2052 11.1361 10.1879 11.1308 10.1704 11.1262C10.1504 11.1202 10.1385 11.1342 10.1385 11.1441V11.184C10.1385 11.198 10.1425 11.2 10.1524 11.202C10.1664 11.204 10.1863 11.2059 10.2003 11.2159C10.2123 11.2239 10.2242 11.2179 10.2302 11.2059L10.2362 11.1661ZM10.0248 11.1661C10.0248 11.1541 10.0288 11.1441 10.0368 11.1421C10.0519 11.1359 10.0683 11.1331 10.0846 11.1342C10.1046 11.1342 10.1066 11.1382 10.1066 11.1461V11.188C10.1066 11.204 10.1066 11.204 10.0986 11.2079C10.0846 11.2079 10.0627 11.2079 10.0487 11.2199C10.0388 11.2259 10.0288 11.2199 10.0268 11.2079L10.0248 11.1661Z" fill="white"/>
<path fill-rule="evenodd" clip-rule="evenodd" d="M10.5688 11.7266C10.5688 11.7505 10.5728 11.7704 10.5888 11.7884C10.4976 11.7608 10.3993 11.7686 10.3136 11.8103C10.2777 11.8263 10.2338 11.7904 10.2757 11.7565C10.3355 11.7106 10.4691 11.7365 10.5688 11.7266ZM9.42229 11.7266C9.42402 11.7468 9.4213 11.7673 9.41431 11.7864C9.50205 11.7525 9.59577 11.7824 9.6855 11.8183C9.74532 11.8442 9.7513 11.7983 9.74133 11.7844C9.7303 11.7677 9.71555 11.7538 9.69826 11.7438C9.68096 11.7337 9.66158 11.7279 9.64163 11.7266H9.42229ZM9.49806 11.2939C9.47214 11.2839 9.44422 11.2939 9.4183 11.3218C9.33256 11.4055 9.23087 11.4873 9.14911 11.5531C9.1192 11.579 9.08929 11.6269 9.21691 11.6727C9.22289 11.6767 9.31661 11.7126 9.37643 11.7126C9.40235 11.7126 9.40235 11.7485 9.39637 11.7585C9.3864 11.7784 9.39437 11.7864 9.37443 11.8043C9.3525 11.8243 9.37443 11.8462 9.39437 11.8302C9.46616 11.7664 9.5858 11.8083 9.69945 11.8442C9.72737 11.8522 9.77523 11.8502 9.77523 11.8123C9.77523 11.7724 9.80514 11.7445 9.82308 11.7425C9.87094 11.7505 10.1022 11.7525 10.172 11.7445C10.2119 11.7385 10.2159 11.8023 10.2378 11.8243C10.2538 11.8422 10.3116 11.8462 10.3535 11.8282C10.4332 11.7924 10.5529 11.7924 10.6027 11.8282C10.6227 11.8422 10.6406 11.8282 10.6287 11.8143C10.6127 11.7944 10.6147 11.7824 10.6067 11.7664C10.5868 11.7266 10.6027 11.7186 10.6227 11.7166C10.842 11.6867 10.9138 11.6129 10.846 11.5511C10.7583 11.4753 10.6625 11.3975 10.5788 11.3078C10.5549 11.2839 10.5389 11.2739 10.4931 11.2939C10.3343 11.3659 10.1628 11.4058 9.98858 11.4115C9.81977 11.4006 9.65397 11.3615 9.49806 11.2959V11.2939Z" fill="white"/>
<path fill-rule="evenodd" clip-rule="evenodd" d="M10.531 11.3057L10.4991 11.3136C10.3197 11.3774 10.1562 11.4213 9.98666 11.4213C9.82116 11.4213 9.64768 11.3735 9.49016 11.3097C9.48047 11.3063 9.46994 11.3063 9.46025 11.3097C9.45028 11.3116 9.44031 11.3176 9.43433 11.3236C9.36063 11.3973 9.28202 11.4659 9.19904 11.529C9.18508 11.539 9.18707 11.5649 9.20901 11.5729C9.37451 11.6327 9.53602 11.7423 9.99863 11.7384C10.4672 11.7344 10.6327 11.6267 10.7803 11.5768C10.7902 11.5729 10.8002 11.5669 10.8062 11.5569C10.8076 11.5545 10.8085 11.5519 10.8089 11.5491C10.8092 11.5464 10.809 11.5436 10.8082 11.541C10.8056 11.5347 10.8015 11.5292 10.7962 11.525C10.7105 11.4552 10.6207 11.3994 10.5609 11.3176C10.5549 11.3077 10.543 11.3057 10.531 11.3077V11.3057ZM10.531 11.3156C10.541 11.3156 10.551 11.3156 10.553 11.3216C10.6128 11.4074 10.7065 11.4612 10.7902 11.531L10.7982 11.5449C10.7988 11.5462 10.799 11.5476 10.799 11.5489C10.799 11.5503 10.7988 11.5517 10.7982 11.5529C10.7962 11.5589 10.7863 11.5649 10.7783 11.5669C10.6267 11.6187 10.4652 11.7264 10.0006 11.7304C9.53801 11.7344 9.3785 11.6247 9.21299 11.5649C9.19704 11.5569 9.19904 11.541 9.20502 11.537C9.28877 11.4732 9.36853 11.4014 9.44031 11.3296C9.44649 11.3238 9.45403 11.3197 9.46224 11.3176H9.48617C9.64376 11.3861 9.81293 11.424 9.98467 11.4293C10.1581 11.4293 10.3236 11.3854 10.5031 11.3236C10.5127 11.3198 10.5228 11.3171 10.533 11.3156H10.531Z" fill="#BD6B00"/>
<path fill-rule="evenodd" clip-rule="evenodd" d="M9.39648 8.29688C9.39648 8.26896 9.43636 8.26697 9.43237 8.30485C9.42639 8.35071 9.5221 8.47035 9.53007 8.54413C9.53606 8.59398 9.50016 8.63585 9.46627 8.66377C9.44671 8.67762 9.42375 8.68586 9.39986 8.68762C9.37596 8.68938 9.35204 8.68458 9.33067 8.67374C9.31273 8.65779 9.29678 8.60794 9.31073 8.588C9.31472 8.58202 9.33666 8.66178 9.38451 8.66178C9.45031 8.66178 9.50415 8.61193 9.50415 8.56806C9.50814 8.49229 9.39847 8.37265 9.39648 8.29688ZM9.58591 8.48431C9.59787 8.47633 9.61382 8.51023 9.60186 8.51821C9.59189 8.52419 9.57195 8.49229 9.58591 8.48232V8.48431ZM9.61582 8.41452C9.60983 8.41851 9.59986 8.41452 9.60186 8.41053C9.62102 8.38391 9.64546 8.36151 9.67364 8.34473C9.68162 8.34074 9.69358 8.35271 9.68959 8.35869C9.66925 8.38233 9.6441 8.40137 9.61582 8.41452ZM9.86706 8.21512C9.87304 8.20316 9.90893 8.1892 9.9189 8.18122C9.92688 8.17125 9.93086 8.1892 9.92688 8.19518C9.92089 8.20914 9.88899 8.22908 9.87503 8.23107C9.86905 8.23107 9.86307 8.2231 9.86706 8.21712V8.21512ZM9.9528 8.2211C9.9633 8.19459 9.98047 8.17124 10.0026 8.15331C10.0126 8.14733 10.0286 8.15331 10.0246 8.16129C10.011 8.18766 9.99117 8.21027 9.96676 8.22709C9.96077 8.23307 9.95081 8.22709 9.9528 8.2211ZM9.87902 8.27494C9.87304 8.27893 9.87703 8.2889 9.88102 8.29089C9.89298 8.29488 9.91093 8.29488 9.9209 8.29089C9.93286 8.28292 9.92688 8.23307 9.91093 8.25899C9.89896 8.27494 9.89099 8.27095 9.87902 8.27494ZM9.73346 8.38661C9.70754 8.36667 9.74144 8.33875 9.76736 8.35869C9.8212 8.39857 9.6876 8.5541 9.61582 8.62588C9.60186 8.63984 9.58989 8.60594 9.60784 8.588C9.65975 8.5445 9.7048 8.49341 9.74144 8.43646C9.74941 8.42649 9.75539 8.40455 9.73346 8.38661ZM10.0385 8.255C10.0405 8.23506 10.0066 8.255 10.0066 8.22908C10.0066 8.21512 10.0445 8.20515 10.0605 8.2211C10.0864 8.24902 10.0665 8.29488 10.0206 8.29887C9.9847 8.29887 9.9209 8.35271 9.93087 8.36268C9.94084 8.37664 10.0385 8.38461 10.0964 8.37664C10.1323 8.37065 10.1243 8.40256 10.0884 8.40655C10.0525 8.41053 10.0246 8.40655 9.99268 8.41851C9.9528 8.42848 9.93685 8.47833 9.91491 8.49827C9.91093 8.50226 9.89896 8.48232 9.90295 8.47434C9.9189 8.45041 9.94283 8.41452 9.97074 8.40256C9.9867 8.39658 9.92289 8.39458 9.90295 8.3886C9.887 8.38461 9.89099 8.36268 9.89697 8.35071C9.90494 8.33476 9.96476 8.27295 9.99068 8.27494C10.0126 8.27494 10.0365 8.26896 10.0385 8.255ZM10.1382 8.25899C10.1502 8.24902 10.1582 8.23307 10.1681 8.2231C10.1741 8.21712 10.1861 8.2231 10.1841 8.23905C10.1821 8.25301 10.1642 8.26298 10.1542 8.27295C10.1442 8.27893 10.1343 8.26497 10.1402 8.25899H10.1382ZM10.2678 8.21313C10.2858 8.21313 10.2878 8.24503 10.2718 8.24902C10.2599 8.25301 10.2519 8.21512 10.2678 8.21313ZM10.226 8.31283C10.226 8.34274 10.2399 8.34074 10.2659 8.33875C10.2918 8.33875 10.3137 8.33875 10.3137 8.31482C10.3137 8.2889 10.2998 8.26497 10.2938 8.28292C10.2918 8.29887 10.2878 8.32679 10.2778 8.31482C10.2698 8.30485 10.2738 8.30286 10.2579 8.31881C10.2479 8.32878 10.2479 8.31482 10.2419 8.30685C10.2379 8.30086 10.226 8.31083 10.226 8.31482V8.31283ZM10.0425 8.4564C10.0365 8.49428 10.0425 8.54612 10.0605 8.54612C10.0844 8.54612 10.1323 8.46637 10.1562 8.4225C10.1701 8.39857 10.1921 8.39458 10.1821 8.4205C10.1681 8.45839 10.1701 8.54014 10.1821 8.56407C10.1901 8.57603 10.2419 8.55211 10.2499 8.53416C10.2659 8.50026 10.2519 8.43845 10.2579 8.40056C10.2599 8.37664 10.2838 8.37065 10.2818 8.39458C10.2787 8.44437 10.278 8.49428 10.2798 8.54413C10.2798 8.56407 10.3376 8.59199 10.3456 8.53217C10.3496 8.49627 10.3695 8.45839 10.3456 8.41851C10.3297 8.39259 10.3675 8.39458 10.3875 8.43047C10.4014 8.4544 10.3755 8.49428 10.3775 8.52419C10.3775 8.57205 10.3416 8.59996 10.3157 8.59996C10.2918 8.59996 10.2758 8.57005 10.2559 8.57005C10.2359 8.57005 10.212 8.60395 10.1961 8.60196C10.1243 8.59797 10.1622 8.49627 10.1402 8.49428C10.1163 8.49428 10.0904 8.59398 10.0605 8.59199C10.0326 8.588 10.0007 8.50824 10.0146 8.47633C10.0246 8.44443 10.0445 8.43646 10.0425 8.4564ZM10.3795 8.29688C10.3456 8.27694 10.3795 8.2231 10.3975 8.24104C10.4294 8.28092 10.4613 8.37065 10.4852 8.37863C10.4992 8.38262 10.4972 8.31083 10.5071 8.27893C10.5151 8.25301 10.543 8.26098 10.539 8.29289C10.537 8.30286 10.4992 8.4205 10.5031 8.42449C10.5297 8.47425 10.5517 8.52631 10.5689 8.58002C10.5749 8.60395 10.547 8.588 10.543 8.58401C10.5251 8.55609 10.4952 8.4544 10.4952 8.46038L10.4613 8.61392C10.4573 8.63386 10.4274 8.62987 10.4353 8.59398C10.4413 8.56606 10.4812 8.42848 10.4792 8.4225C10.4564 8.37333 10.4222 8.33028 10.3795 8.29688Z" fill="white"/>
<path fill-rule="evenodd" clip-rule="evenodd" d="M10.4393 8.62787C10.4313 8.62787 10.4153 8.64781 10.4632 8.65778C10.525 8.66975 10.5948 8.64781 10.6147 8.586C10.6407 8.51222 10.6546 8.44243 10.6686 8.41651C10.6845 8.3866 10.7045 8.38859 10.6885 8.34473C10.6785 8.31083 10.6586 8.3208 10.6546 8.33874C10.6446 8.38461 10.6028 8.53814 10.5888 8.56407C10.5649 8.61591 10.515 8.63585 10.4393 8.62787Z" fill="white"/>
<path fill-rule="evenodd" clip-rule="evenodd" d="M10.567 8.38449C10.559 8.37053 10.543 8.38449 10.547 8.39844C10.548 8.40408 10.5509 8.40918 10.5553 8.41284C10.5597 8.4165 10.5652 8.41846 10.5709 8.41838C10.5849 8.41838 10.6148 8.42038 10.6148 8.39844C10.6148 8.38249 10.6009 8.36853 10.5929 8.38648C10.5829 8.40243 10.5729 8.40044 10.567 8.38648V8.38449ZM10.5809 8.32467C10.5769 8.32866 10.5809 8.3466 10.5869 8.34461C10.6098 8.34477 10.6324 8.33929 10.6527 8.32866C10.6567 8.32467 10.6547 8.3147 10.6487 8.3147C10.6288 8.3147 10.5969 8.3147 10.5809 8.32467ZM10.7564 8.37053C10.7723 8.3466 10.8122 8.34461 10.7963 8.3785C10.7553 8.46073 10.7134 8.54249 10.6706 8.62377C10.6547 8.65168 10.6427 8.63772 10.6547 8.61579C10.6686 8.58787 10.7524 8.37651 10.7564 8.37053Z" fill="white"/>
<path fill-rule="evenodd" clip-rule="evenodd" d="M10.603 8.66379C10.599 8.64783 10.5731 8.62391 10.5771 8.66777C10.5811 8.74354 10.6867 8.71962 10.7167 8.6937C10.7466 8.66777 10.7226 8.77944 10.7605 8.7914C10.7805 8.79738 10.8203 8.76947 10.8403 8.74354C10.8941 8.67376 10.93 8.57206 10.9799 8.50427C10.9998 8.47635 10.9699 8.45641 10.9599 8.47834C10.9121 8.55412 10.8562 8.70965 10.7944 8.74953C10.7446 8.78143 10.7605 8.70965 10.7585 8.68572C10.7565 8.66977 10.7366 8.64584 10.7107 8.66777C10.6898 8.68447 10.6636 8.69298 10.6369 8.6917C10.6229 8.6917 10.609 8.6917 10.603 8.66379Z" fill="white"/>
<path fill-rule="evenodd" clip-rule="evenodd" d="M10.7903 8.52414C10.7903 8.51816 10.7683 8.51616 10.7703 8.5381C10.7703 8.55405 10.7903 8.55804 10.7923 8.55804C10.8222 8.53411 10.7863 8.54607 10.7903 8.52215V8.52414ZM10.7444 8.61188C10.7384 8.61188 10.7324 8.63182 10.7484 8.63381L10.8262 8.62982C10.8341 8.62982 10.8381 8.61188 10.8182 8.61387C10.7943 8.61387 10.7643 8.60789 10.7444 8.61387V8.61188ZM9.50814 8.28087C9.51811 8.28087 9.54004 8.30879 9.53805 8.31876C9.53805 8.32275 9.51412 8.31876 9.50814 8.31278C9.50215 8.3068 9.50415 8.28087 9.50814 8.28087ZM9.40246 8.48825C9.38252 8.50021 9.40644 8.52215 9.42239 8.51218C9.47823 8.47429 9.56197 8.4364 9.58191 8.36263C9.5879 8.3387 9.60983 8.30081 9.63176 8.29284C9.6517 8.28287 9.68361 8.33072 9.70355 8.29284C9.71551 8.2729 9.75738 8.3068 9.76735 8.28486C9.77932 8.25894 9.77334 8.24498 9.77334 8.21707C9.77334 8.20111 9.75938 8.19713 9.74941 8.22305C9.74542 8.23501 9.74941 8.24698 9.74741 8.25495C9.74343 8.25894 9.73545 8.26293 9.72747 8.25894C9.72349 8.25495 9.72748 8.24498 9.71551 8.239C9.71152 8.239 9.70355 8.23701 9.69956 8.24299C9.6856 8.26891 9.67962 8.29284 9.65769 8.26293C9.63974 8.24299 9.62977 8.20111 9.61781 8.25695C9.61382 8.27689 9.58391 8.3048 9.56596 8.3048C9.54403 8.3048 9.55001 8.24498 9.50215 8.25495C9.47623 8.26093 9.47823 8.30879 9.48221 8.32474C9.4882 8.35066 9.56197 8.33272 9.55599 8.34867C9.54403 8.40251 9.46826 8.45634 9.40246 8.48825ZM8.94982 8.75145C8.94783 8.76142 8.95979 8.78535 8.97175 8.78735C8.98372 8.78735 8.99169 8.76142 8.98771 8.75145C8.98372 8.74547 8.95181 8.74547 8.94982 8.75145ZM9.01562 8.84916C9.00765 8.84118 8.98372 8.86312 9.00366 8.87907C9.01363 8.88904 9.05351 8.901 9.06348 8.88306C9.07943 8.85913 9.04952 8.77339 9.06348 8.76342C9.07345 8.75345 9.11931 8.81925 9.14324 8.82324C9.19707 8.83121 9.18312 8.73152 9.24294 8.73949C9.28082 8.74348 9.28481 8.69562 9.27883 8.66372C9.27484 8.63381 9.22698 8.59194 9.20505 8.572C9.17713 8.54807 9.16318 8.59194 9.18112 8.6039C9.20505 8.62384 9.24692 8.66173 9.25291 8.68565C9.2549 8.69762 9.22499 8.72155 9.21303 8.71556C9.18511 8.69961 9.16118 8.6358 9.13725 8.62185C9.12928 8.61786 9.10934 8.62783 9.11731 8.64777C9.12928 8.6697 9.17713 8.70161 9.17913 8.72553C9.18112 8.74547 9.15919 8.78934 9.14324 8.78934C9.12529 8.78934 9.08342 8.7355 9.06946 8.70958C9.06148 8.69961 9.03955 8.69961 9.03556 8.71756C9.03427 8.75439 9.03761 8.79123 9.04553 8.82723C9.04952 8.85913 9.02759 8.86112 9.01562 8.84916ZM8.93586 8.67768C8.92789 8.68565 8.95181 8.70161 8.9558 8.69762C8.96378 8.68964 8.99768 8.65176 8.99169 8.6378C8.98571 8.62583 8.93985 8.59792 8.93187 8.61188C8.91792 8.63381 8.97574 8.64577 8.96577 8.65176C8.95462 8.65893 8.94455 8.66766 8.93586 8.67768ZM9.01762 8.51018C9.01762 8.51018 9.03357 8.56003 9.04553 8.5381C9.05351 8.52414 9.01762 8.51018 9.01762 8.51018ZM9.04154 8.58994C9.03756 8.58994 9.0216 8.6039 9.03157 8.60988C9.04753 8.61786 9.0894 8.62583 9.07943 8.59592C9.07345 8.57798 9.14324 8.59592 9.12529 8.54807C9.11808 8.53331 9.10615 8.52138 9.09139 8.51417C9.08342 8.51417 9.06148 8.52414 9.07544 8.53212C9.08541 8.5361 9.11532 8.55405 9.10535 8.56601C9.09139 8.57798 9.08342 8.56003 9.06747 8.56402C9.05949 8.56402 9.06547 8.58795 9.05949 8.59393C9.05949 8.59792 9.04553 8.58595 9.04154 8.58795V8.58994ZM9.15121 8.40051C9.13891 8.41068 9.13047 8.42475 9.12729 8.44039C9.12729 8.44438 9.13327 8.45236 9.13725 8.45036C9.14955 8.44104 9.15805 8.42758 9.16118 8.41248C9.16118 8.4065 9.15719 8.39653 9.15121 8.40051ZM9.20704 8.39453C9.19109 8.37459 9.22698 8.34269 9.24094 8.38456C9.25091 8.41048 9.35061 8.54209 9.37055 8.58595C9.3865 8.61586 9.37055 8.62783 9.35261 8.60589C9.30276 8.54209 9.26088 8.46233 9.20704 8.39453ZM9.31073 8.39653C9.32868 8.37659 9.36457 8.33671 9.3546 8.31677C9.34662 8.29683 9.32469 8.29683 9.3207 8.30281C9.30076 8.32873 9.33665 8.32275 9.33067 8.33072C9.3207 8.35066 9.31073 8.36263 9.30475 8.38257C9.30276 8.38855 9.30674 8.40051 9.31073 8.39653ZM10.8621 8.46033C10.8481 8.45036 10.874 8.40051 10.892 8.42045C10.9378 8.47429 10.9598 8.65176 10.9737 8.78535C10.9737 8.78535 10.9538 8.8033 10.9538 8.79931C10.9538 8.72952 10.9239 8.51218 10.8621 8.46033ZM9.80325 8.28885C9.78729 8.25296 9.82518 8.24099 9.83116 8.26492C9.85708 8.38057 9.92089 8.46831 9.97074 8.54607C9.9847 8.57 9.97074 8.58595 9.93684 8.56203C9.91292 8.54607 9.88699 8.48426 9.87702 8.48227C9.8531 8.47828 9.80125 8.58197 9.69557 8.55206C9.66766 8.54408 9.66965 8.46233 9.66766 8.42643C9.66766 8.40849 9.6876 8.4065 9.6876 8.42643C9.6876 8.46033 9.6876 8.53012 9.72947 8.53411C9.76536 8.53411 9.84113 8.48625 9.85708 8.44637C9.87304 8.4065 9.8192 8.32873 9.80325 8.28686V8.28885Z" fill="white"/>
<path fill-rule="evenodd" clip-rule="evenodd" d="M10.89 8.77144C10.898 8.74751 11.0117 8.55609 11.0276 8.51421C11.0356 8.49427 11.0675 8.55011 11.0356 8.58002C11.0077 8.60394 10.9259 8.73954 10.91 8.78739C10.902 8.80733 10.8821 8.79736 10.89 8.77144Z" fill="white"/>
<path fill-rule="evenodd" clip-rule="evenodd" d="M11.0835 8.59008C11.1034 8.51032 11.1553 8.60204 11.1094 8.64591C11.0416 8.71371 11.0197 8.84332 10.91 8.86326C10.8821 8.86924 10.8303 8.8493 10.8143 8.83733C10.8083 8.83335 10.8183 8.80543 10.8362 8.81939C10.8622 8.83933 10.918 8.84531 10.9479 8.82138C11.0131 8.75786 11.0599 8.67796 11.0835 8.59008ZM9.94692 8.84332C9.94094 8.8493 9.92698 8.8493 9.92499 8.85727C9.91901 8.88519 9.92499 8.90114 9.91901 8.92906C9.91302 8.95697 9.89308 8.95697 9.89508 8.93504C9.89508 8.90712 9.921 8.86525 9.90305 8.86326C9.89109 8.86126 9.88311 8.84531 9.89508 8.83733C9.91701 8.82338 9.92898 8.82537 9.94293 8.82936C9.94892 8.83135 9.95091 8.83933 9.94692 8.84332Z" fill="white"/>
<path fill-rule="evenodd" clip-rule="evenodd" d="M9.93074 8.80321C9.90282 8.83113 9.87491 8.8411 9.84899 8.873C9.83702 8.88497 9.83902 8.90291 9.83104 8.92086C9.82506 8.9388 9.80312 8.9408 9.79714 8.9388C9.78717 8.93083 9.78917 8.89892 9.7772 8.91488C9.76524 8.93282 9.75926 8.95475 9.74331 8.95475C9.72935 8.95475 9.70343 8.92485 9.71738 8.92485C9.76324 8.91886 9.76125 8.88497 9.7772 8.88098C9.79714 8.87898 9.79714 8.91089 9.8111 8.90491C9.81908 8.90092 9.82506 8.86303 9.83503 8.85306C9.86494 8.82116 9.88887 8.80521 9.92077 8.78128C9.93473 8.76931 9.94669 8.79125 9.93074 8.80521V8.80321ZM10.0364 8.90291C10.0125 8.9069 10.0165 8.93681 10.0245 8.9388C10.0344 8.94478 10.0524 8.94678 10.0584 8.91288C10.0623 8.89892 10.0643 8.98267 10.0942 8.95077C10.1142 8.93083 10.1561 8.95475 10.174 8.93083C10.188 8.91288 10.1939 8.90092 10.182 8.87699C10.178 8.87101 10.162 8.873 10.162 8.89095C10.162 8.9069 10.1521 8.92485 10.1361 8.92285C10.1281 8.92086 10.1401 8.88497 10.1321 8.875C10.1303 8.87317 10.1278 8.87215 10.1252 8.87215C10.1225 8.87215 10.12 8.87317 10.1182 8.875C10.1122 8.88297 10.1242 8.91886 10.1062 8.92285C10.0823 8.92684 10.0942 8.89892 10.0863 8.89494C10.0524 8.87898 10.0504 8.89892 10.0364 8.90092V8.90291ZM10.2159 8.84309C10.2338 8.8391 10.2278 8.8391 10.2558 8.81717C10.2657 8.80919 10.2677 8.83312 10.2657 8.84309C10.2657 8.85705 10.2458 8.84708 10.2398 8.86104C10.2318 8.87898 10.2358 8.92086 10.2318 8.93681C10.2318 8.94478 10.2159 8.94478 10.2159 8.93681C10.2119 8.91687 10.2179 8.89693 10.2159 8.87101C10.2159 8.86303 10.2059 8.84907 10.2159 8.84509V8.84309ZM10.1162 8.79324C10.1122 8.81119 10.1122 8.82515 10.1122 8.8391C10.1122 8.84907 10.1321 8.84309 10.1321 8.8411C10.1321 8.82515 10.1361 8.80122 10.1321 8.79524C10.1281 8.79324 10.1182 8.78925 10.1162 8.79324Z" fill="white"/>
<path fill-rule="evenodd" clip-rule="evenodd" d="M9.99064 8.60791L9.96272 8.71957L9.92284 8.6438V8.72157L9.83511 8.61788L9.86502 8.72954L9.78526 8.66175L9.82912 8.73752L9.68954 8.64779L9.77728 8.75148L9.66562 8.69565L9.74538 8.76344L9.56592 8.69565L9.73939 8.78139C9.8182 8.74551 9.90406 8.7278 9.99064 8.72954C10.0883 8.72954 10.1761 8.74948 10.2399 8.78139L10.4154 8.69565L10.2359 8.76344L10.3157 8.69565L10.206 8.75148L10.2917 8.64779L10.1522 8.73752L10.196 8.66175L10.1163 8.72755L10.1462 8.61788L10.0604 8.72157V8.6438L10.0205 8.71957L9.99064 8.60791Z" fill="white"/>
<path d="M9.83668 11.0312L9.83105 11.0799H9.82355L9.82168 11.0462C9.81946 11.0359 9.81633 11.0259 9.8123 11.0162C9.80996 11.0078 9.80682 10.9996 9.80293 10.9918L9.78418 10.9656L9.79918 10.9243C9.8117 10.9371 9.82129 10.9525 9.8273 10.9693C9.83388 10.9886 9.83705 11.0089 9.83668 11.0293M9.96793 10.9506C9.96793 10.9637 9.96418 10.9731 9.95855 10.9787C9.9548 10.9843 9.9473 10.9899 9.93418 10.9918L9.94168 11.0199C9.94356 11.0324 9.94356 11.045 9.94168 11.0574C9.94129 11.0656 9.94066 11.0737 9.9398 11.0818H9.9323C9.93233 11.0737 9.9317 11.0655 9.93043 11.0574C9.92976 11.0511 9.92851 11.0448 9.92668 11.0387L9.91918 11.0199C9.91546 11.0109 9.91108 11.0021 9.90605 10.9937L9.8873 10.9618L9.89855 10.9243L9.9173 10.9431C9.92293 10.9468 9.92855 10.9487 9.93605 10.9487C9.95105 10.9487 9.95855 10.9412 9.95855 10.9243H9.96605V10.9506M10.0861 11.0406L10.0767 11.0799C10.0692 11.0799 10.0654 11.0743 10.0617 11.0668L10.0542 11.0424C10.0528 11.0319 10.0522 11.0212 10.0523 11.0106C10.0462 11.0126 10.0399 11.0139 10.0336 11.0143C10.0248 11.0147 10.0162 11.0121 10.0092 11.0068C10.0063 11.0046 10.004 11.0017 10.0024 10.9985C10.0008 10.9953 9.99987 10.9917 9.9998 10.9881C9.9998 10.9712 10.0054 10.9562 10.0129 10.9449C10.0223 10.9318 10.0317 10.9262 10.0411 10.9243C10.0504 10.9243 10.0561 10.9262 10.0598 10.9318C10.063 10.9369 10.0649 10.9427 10.0654 10.9487V10.9862C10.0654 11.0031 10.0673 11.0143 10.0711 11.0218C10.0711 11.0274 10.0767 11.0331 10.0861 11.0406ZM10.0486 10.9749C10.0486 10.9637 10.0429 10.9599 10.0336 10.9599C10.0297 10.9594 10.0258 10.96 10.0223 10.9618C10.0186 10.9637 10.0186 10.9656 10.0186 10.9674C10.0186 10.9731 10.0242 10.9768 10.0373 10.9768L10.0486 10.9749ZM10.2117 11.0312L10.2061 11.0799C10.1967 11.0724 10.1873 11.0612 10.1798 11.0424C10.1695 11.0176 10.1614 10.9918 10.1554 10.9656C10.1461 11.0005 10.1348 11.035 10.1217 11.0687C10.1175 11.074 10.1124 11.0784 10.1067 11.0818V11.0349C10.1179 11.0218 10.1236 11.0143 10.1254 11.0068C10.1317 10.9969 10.1368 10.9861 10.1404 10.9749L10.1498 10.9243H10.1573L10.1742 10.9749C10.1779 10.9862 10.1836 10.9974 10.1911 11.0049L10.2098 11.0312" fill="white"/>
<path d="M10.5777 11.4888C10.5852 11.4963 10.5889 11.5038 10.5908 11.5113L10.5983 11.5413L10.5833 11.5432C10.5781 11.5331 10.5718 11.5237 10.5645 11.515C10.558 11.5073 10.5511 11.4997 10.5439 11.4925C10.5335 11.4829 10.5229 11.4735 10.512 11.4644C10.4999 11.4533 10.4874 11.4427 10.4745 11.4325C10.467 11.4288 10.4633 11.425 10.4633 11.4232C10.4603 11.4187 10.4584 11.4135 10.4577 11.4082C10.4557 11.3983 10.4544 11.3883 10.4539 11.3782L10.5045 11.4194C10.5207 11.4326 10.5363 11.4463 10.5514 11.4607L10.5777 11.4888ZM10.3995 11.38L10.3958 11.4175H10.3377L10.3433 11.38H10.3995ZM10.557 11.5469L10.4145 11.59L10.3902 11.5525L10.512 11.515L10.4989 11.5C10.4941 11.4952 10.4883 11.4914 10.482 11.4888C10.4821 11.4923 10.4814 11.4957 10.4802 11.4989C10.4789 11.5021 10.477 11.5051 10.4745 11.5075C10.4695 11.5131 10.463 11.517 10.4558 11.5188C10.4447 11.5218 10.4331 11.5218 10.422 11.5188C10.4125 11.5177 10.4038 11.513 10.3977 11.5057C10.3893 11.4935 10.3848 11.4792 10.3845 11.4644C10.3845 11.4457 10.3902 11.4344 10.4014 11.4307C10.4145 11.4269 10.4352 11.4307 10.4577 11.4438C10.4797 11.4541 10.499 11.4695 10.5139 11.4888L10.557 11.5469ZM10.4483 11.4719C10.4435 11.4695 10.4385 11.4676 10.4333 11.4663C10.4296 11.4653 10.4257 11.4653 10.422 11.4663C10.4202 11.4665 10.4183 11.4671 10.4167 11.4681C10.4151 11.4691 10.4137 11.4704 10.4127 11.4719C10.4114 11.4735 10.4108 11.4755 10.4108 11.4775C10.4108 11.4796 10.4114 11.4816 10.4127 11.4832L10.422 11.4869H10.4333L10.4408 11.4813L10.4483 11.4719ZM10.2983 11.4419L10.2889 11.4794L10.2289 11.4738L10.2383 11.4363L10.2964 11.4419M10.437 11.5863L10.4052 11.5938C10.3946 11.5955 10.3838 11.5955 10.3733 11.5938C10.3635 11.5934 10.3539 11.5908 10.3452 11.5863C10.3395 11.5957 10.3302 11.605 10.317 11.6088C10.3075 11.6137 10.2974 11.6175 10.287 11.62L10.2645 11.6257L10.2458 11.5882L10.2664 11.5825C10.2747 11.5807 10.2829 11.5782 10.2908 11.575L10.3077 11.5657L10.2889 11.5563H10.2758C10.2746 11.556 10.2733 11.556 10.272 11.5563C10.2702 11.5577 10.2689 11.5597 10.2683 11.5619H10.2589C10.2495 11.5469 10.2477 11.5338 10.2533 11.5244C10.2589 11.515 10.2702 11.5094 10.2908 11.5057C10.3066 11.5013 10.3232 11.5 10.3395 11.5019C10.3545 11.5038 10.3639 11.5094 10.3677 11.5188C10.3714 11.5225 10.3714 11.5282 10.3714 11.5319L10.3639 11.5544H10.3733C10.377 11.555 10.3808 11.555 10.3845 11.5544L10.4164 11.5488L10.4352 11.5863M10.2852 11.62L10.2552 11.6257C10.241 11.6286 10.2262 11.6259 10.2139 11.6182C10.1988 11.6053 10.1878 11.5884 10.182 11.5694L10.167 11.5282C10.1642 11.5204 10.159 11.5139 10.152 11.5094C10.1468 11.5057 10.1411 11.5025 10.1352 11.5L10.1464 11.4607C10.1577 11.4663 10.1652 11.4719 10.1727 11.4794L10.1914 11.5113L10.2008 11.5394L10.2214 11.5807C10.227 11.5863 10.2345 11.5882 10.2402 11.5863L10.272 11.5825L10.2852 11.62ZM10.1539 11.4794L10.1352 11.515L10.0789 11.5019L10.0977 11.4663L10.1539 11.4794ZM10.1877 11.6369L10.047 11.65L10.0395 11.6125L10.1558 11.5994C10.1532 11.5937 10.1493 11.5885 10.1445 11.5844C10.1386 11.5802 10.1323 11.5765 10.1258 11.5732L10.1352 11.5357C10.1483 11.5432 10.1577 11.5525 10.1652 11.56C10.1708 11.5694 10.1764 11.5825 10.1802 11.5994L10.1877 11.6369ZM10.0752 11.6557C10.0613 11.6553 10.0476 11.6541 10.0339 11.6519C10.023 11.6497 10.0124 11.6466 10.002 11.6425C9.99424 11.646 9.98606 11.6485 9.97766 11.65C9.96705 11.651 9.95639 11.651 9.94578 11.65H9.90828C9.90043 11.6501 9.89269 11.6482 9.88578 11.6444C9.88016 11.6407 9.87641 11.635 9.87078 11.6257C9.86291 11.6339 9.85331 11.6403 9.84266 11.6444L9.81078 11.6463H9.77891L9.78266 11.6069H9.81453C9.82953 11.6069 9.84266 11.6069 9.85391 11.5994C9.86085 11.5968 9.86687 11.5922 9.87121 11.5862C9.87555 11.5802 9.87801 11.5731 9.87828 11.5657L9.89141 11.5675C9.89061 11.5757 9.88998 11.5838 9.88953 11.5919C9.88953 11.5975 9.88953 11.6013 9.89516 11.605C9.90078 11.6088 9.90641 11.6107 9.91391 11.6107H9.94203C9.96078 11.6107 9.97203 11.6107 9.97953 11.6069C9.99078 11.6032 9.99641 11.5975 9.99828 11.5863L10.0002 11.5788C10.0002 11.5788 10.0058 11.5788 10.0095 11.575L10.0189 11.5713V11.5788C10.0189 11.5807 10.0189 11.5825 10.0189 11.5844L10.0133 11.605C10.0255 11.6092 10.038 11.6123 10.0508 11.6144C10.0527 11.6107 10.0508 11.6069 10.0489 11.6013L10.0433 11.59C10.0433 11.588 10.0439 11.586 10.0452 11.5844L10.0508 11.5807L10.0695 11.5638L10.0789 11.5825V11.6013L10.0752 11.6557ZM9.86328 11.4925L9.82578 11.5169L9.80141 11.5L9.77516 11.5188L9.73953 11.5L9.77328 11.4757L9.80141 11.4907L9.82953 11.4719L9.86328 11.4907M9.80703 11.6444L9.67016 11.6219L9.68516 11.5844L9.80141 11.6032C9.80141 11.5957 9.80141 11.59 9.79766 11.5844C9.79499 11.5792 9.79185 11.5741 9.78828 11.5694L9.81828 11.5375C9.82578 11.5488 9.82953 11.5563 9.83141 11.5675C9.83141 11.5769 9.82766 11.59 9.82203 11.6069L9.80703 11.6444ZM9.69266 11.6257L9.66266 11.62C9.64578 11.6163 9.63641 11.6088 9.63453 11.5975C9.63078 11.5863 9.63641 11.5694 9.64953 11.545L9.67203 11.5075C9.67766 11.4982 9.67953 11.4907 9.67766 11.485C9.67656 11.4804 9.67466 11.4759 9.67203 11.4719L9.71328 11.4419C9.71891 11.4513 9.71891 11.4607 9.71891 11.4682C9.71891 11.4775 9.71328 11.4888 9.70578 11.5019L9.69078 11.5282C9.68237 11.5406 9.67662 11.5547 9.67391 11.5694C9.67391 11.5769 9.67766 11.5807 9.68328 11.5825L9.71328 11.59L9.69266 11.6275M9.62141 11.4775L9.57453 11.4982L9.54078 11.4663L9.58953 11.4475L9.62141 11.4794M9.60266 11.6032C9.59409 11.6134 9.58397 11.6223 9.57266 11.6294C9.56297 11.6354 9.5521 11.6393 9.54078 11.6407L9.49578 11.6388C9.4779 11.6361 9.46031 11.6317 9.44328 11.6257C9.41914 11.6189 9.39716 11.606 9.37953 11.5882C9.36828 11.5732 9.36828 11.56 9.37953 11.5469C9.39008 11.5347 9.40279 11.5245 9.41703 11.5169C9.43203 11.5075 9.45453 11.4982 9.48828 11.4869L9.49578 11.4963L9.44328 11.5188C9.43391 11.5244 9.42453 11.53 9.41891 11.5375C9.41141 11.545 9.41328 11.5563 9.42266 11.5675C9.4565 11.5938 9.49797 11.6083 9.54078 11.6088C9.56328 11.6088 9.57828 11.6032 9.58391 11.5957C9.58953 11.59 9.59141 11.5844 9.59328 11.5769L9.59703 11.5469L9.64391 11.5188C9.64417 11.5282 9.64354 11.5376 9.64203 11.5469C9.63802 11.5582 9.63163 11.5684 9.62328 11.5769L9.60078 11.6032" fill="#BF0000"/>
</g>
<defs>
<clipPath id="clip0_823_2569">
<rect x="4" y="5.5" width="12" height="9" rx="1" fill="white"/>
</clipPath>
</defs>
</svg>
