<svg width="20" height="20" viewBox="0 0 20 20" fill="none" xmlns="http://www.w3.org/2000/svg">
<g clip-path="url(#clip0_823_2603)">
<path d="M4.00171 5.5H16.0017V14.5H4.00171V5.5Z" fill="#3F9C35"/>
<path d="M4.00171 5.5H16.0017V11.5H4.00171V5.5Z" fill="#ED2939"/>
<path d="M4.00171 5.5H16.0017V8.5H4.00171V5.5Z" fill="#00B9E4"/>
<path d="M9.7001 11.3501C10.4457 11.3501 11.0501 10.7457 11.0501 10.0001C11.0501 9.25456 10.4457 8.65015 9.7001 8.65015C8.95451 8.65015 8.3501 9.25456 8.3501 10.0001C8.3501 10.7457 8.95451 11.3501 9.7001 11.3501Z" fill="white"/>
<path d="M10.0002 11.125C10.6216 11.125 11.1252 10.6213 11.1252 10C11.1252 9.37868 10.6216 8.875 10.0002 8.875C9.37892 8.875 8.87524 9.37868 8.87524 10C8.87524 10.6213 9.37892 11.125 10.0002 11.125Z" fill="#ED2939"/>
<path d="M11.2 9.25L11.3443 9.65313L11.7306 9.46937L11.5468 9.8575L11.95 10L11.5468 10.1444L11.7306 10.5306L11.3443 10.3469L11.2 10.75L11.0556 10.3469L10.6693 10.5306L10.8531 10.1444L10.45 10L10.8531 9.85563L10.6693 9.46937L11.0556 9.65313L11.2 9.25Z" fill="white"/>
</g>
<defs>
<clipPath id="clip0_823_2603">
<rect x="4" y="5.5" width="12" height="9" rx="1" fill="white"/>
</clipPath>
</defs>
</svg>
