<svg width="20" height="20" viewBox="0 0 20 20" fill="none" xmlns="http://www.w3.org/2000/svg">
<g clip-path="url(#clip0_823_3438)">
<path d="M6.81494 5.5H13.1835V14.5H6.81494V5.5Z" fill="white"/>
<path d="M3.63159 5.5H6.81499V14.5H3.63159V5.5ZM13.1835 5.5H16.3669V14.5H13.1853L13.1835 5.5ZM7.76948 9.84883L7.51987 9.9332L8.67124 10.9439C8.75913 11.2023 8.64136 11.2779 8.56577 11.415L9.81382 11.2568L9.78394 12.5137L10.0441 12.5066L9.98608 11.2586L11.2376 11.408C11.1603 11.2445 11.0917 11.1584 11.1621 10.8982L12.3117 9.94023L12.1113 9.86641C11.946 9.73984 12.1816 9.25645 12.2167 8.95059C12.2167 8.95059 11.547 9.18086 11.5031 9.05957L11.3308 8.73086L10.7208 9.40234C10.6541 9.41816 10.6259 9.3918 10.6101 9.33555L10.8914 7.93281L10.4449 8.18418C10.408 8.20176 10.371 8.1877 10.3464 8.14375L9.91577 7.28242L9.4728 8.17715C9.4394 8.20879 9.40601 8.2123 9.37788 8.19121L8.95249 7.95215L9.20913 9.34258C9.18804 9.39883 9.13882 9.41289 9.08257 9.38301L8.49722 8.72031C8.42163 8.84336 8.37065 9.04199 8.2687 9.0877C8.16851 9.12988 7.82925 9.00332 7.60249 8.9541C7.67983 9.23359 7.92241 9.69766 7.76948 9.85059V9.84883Z" fill="#D52B1E"/>
</g>
<defs>
<clipPath id="clip0_823_3438">
<rect x="4" y="5.5" width="12" height="9" rx="1" fill="white"/>
</clipPath>
</defs>
</svg>
