<svg width="20" height="20" viewBox="0 0 20 20" fill="none" xmlns="http://www.w3.org/2000/svg">
<g clip-path="url(#clip0_823_3284)">
<path d="M4 5.5H16V14.5H4V5.5Z" fill="#032EA1"/>
<path d="M4 7.75H16V12.25H4V7.75Z" fill="#E00025"/>
<path d="M8.73193 9.74121H11.2924V10.7267H8.73193V9.74121Z" fill="white" stroke="black" stroke-width="0.0225" stroke-linejoin="bevel"/>
<path d="M11.1619 10.2836H11.2407V10.6548H11.1619V10.2836ZM8.73193 10.1013H11.2924V10.2138H8.73193V10.1013ZM8.73193 9.94385H11.2924V10.0473H8.73193V9.94385Z" fill="white" stroke="black" stroke-width="0.0225" stroke-linejoin="bevel"/>
<path d="M8.73193 9.79077H11.2924V9.88752H8.73193V9.79077Z" fill="white" stroke="black" stroke-width="0.02025" stroke-linejoin="bevel"/>
<path d="M9.40689 10.2834H9.48789V10.6547H9.40689V10.2834ZM10.5094 10.2834H10.5904V10.6547H10.5094V10.2834ZM8.75439 10.2834H8.83314V10.6547H8.75439V10.2834ZM8.91189 10.2834H8.99064V10.6547H8.91189V10.2834ZM9.08064 10.2834H9.15939V10.6547H9.08064V10.2834ZM9.24939 10.2834H9.32814V10.6547H9.24939V10.2834ZM10.6624 10.2834H10.7434V10.6547H10.6624V10.2834ZM10.8311 10.2834H10.9121V10.6547H10.8311V10.2834ZM10.9999 10.2834H11.0809V10.6547H10.9999V10.2834Z" fill="white" stroke="black" stroke-width="0.0225" stroke-linejoin="bevel"/>
<path d="M7.73071 10.7762C7.77776 10.7506 7.81319 10.7079 7.82971 10.657H12.1745C12.191 10.7079 12.2264 10.7506 12.2735 10.7762H7.73071Z" fill="white" stroke="black" stroke-width="0.0225"/>
<path d="M9.94729 8.2405C9.94729 8.2405 9.94504 8.14825 9.99904 8.146C10.0508 8.146 10.0485 8.2405 10.0485 8.2405H9.94729ZM9.66604 9.46675V9.343C9.66604 9.28 9.60304 9.2755 9.60304 9.2305C9.60304 9.2305 9.59404 9.163 9.61204 9.1315C9.63679 9.2215 9.67954 9.20575 9.67954 9.1675C9.67954 9.136 9.65704 9.1045 9.60529 9.02575C9.58729 9.001 9.59854 8.92225 9.62104 8.893C9.63004 8.9605 9.64129 8.99425 9.67054 8.99425C9.68854 8.99425 9.70204 8.983 9.70204 8.94925C9.70204 8.90425 9.67279 8.88175 9.65704 8.84125C9.64928 8.82109 9.64749 8.79913 9.65188 8.77798C9.65627 8.75684 9.66665 8.7374 9.68179 8.722C9.69304 8.7895 9.69079 8.8165 9.72004 8.8165C9.78079 8.79625 9.72004 8.7085 9.70654 8.686C9.69304 8.66125 9.72904 8.6095 9.72904 8.6095C9.74704 8.67025 9.75154 8.67475 9.77404 8.668C9.80104 8.66125 9.79654 8.623 9.76504 8.5915C9.74479 8.569 9.74704 8.53975 9.76954 8.51725C9.79204 8.56 9.81904 8.55775 9.82129 8.53075L9.80329 8.43175H10.1948L10.1745 8.5285C10.17 8.5555 10.206 8.56225 10.2285 8.51725C10.251 8.53975 10.2533 8.57125 10.233 8.5915C10.2015 8.623 10.197 8.66125 10.224 8.668C10.2465 8.67475 10.251 8.668 10.269 8.6095C10.269 8.6095 10.3028 8.64325 10.2915 8.686C10.278 8.7085 10.2173 8.7985 10.278 8.8165C10.3073 8.8165 10.305 8.7895 10.3163 8.722C10.331 8.73764 10.341 8.75719 10.345 8.77833C10.349 8.79946 10.3468 8.8213 10.3388 8.84125C10.3253 8.88175 10.2938 8.90425 10.2938 8.94925C10.2938 8.983 10.3095 8.99425 10.3275 8.99425C10.3568 8.99425 10.368 8.96275 10.377 8.893C10.3995 8.92225 10.4108 9.001 10.3928 9.028C10.341 9.1045 10.3163 9.136 10.3163 9.1675C10.3163 9.20575 10.3613 9.2215 10.3838 9.1315C10.404 9.163 10.395 9.2305 10.395 9.2305C10.395 9.2755 10.3343 9.28 10.332 9.343V9.46675H9.66604ZM9.82804 8.43175L9.81904 8.362H10.1768L10.1678 8.43175H9.82804ZM9.85054 8.35975L9.84604 8.3035H10.1498L10.143 8.35975H9.85054ZM9.90229 8.30125L9.89554 8.24275H10.098L10.0958 8.30125H9.90229ZM10.6448 10.7762C10.5998 10.7605 10.5323 10.711 10.5323 10.6637V10.117L10.5908 10.0405H9.40729L9.46354 10.117V10.6637C9.46354 10.711 9.41854 10.7605 9.37354 10.7762H10.6448Z" fill="white" stroke="black" stroke-width="0.0225"/>
<path d="M9.61426 10.2834H9.69526V10.6547H9.61426V10.2834ZM10.2983 10.2834H10.3793V10.6547H10.2983V10.2834Z" fill="white" stroke="black" stroke-width="0.0225" stroke-linejoin="bevel"/>
<path d="M9.38482 9.41943V10.0404H10.5998V9.41943C10.5858 9.42456 10.5732 9.43294 10.563 9.4439C10.5528 9.45485 10.5454 9.46805 10.5413 9.48243V9.74793H9.44557V9.48243C9.44557 9.48243 9.43207 9.43743 9.38257 9.41943H9.38482Z" fill="white" stroke="black" stroke-width="0.0225"/>
<path d="M10.4332 10.7763C10.3927 10.7606 10.3072 10.7111 10.3072 10.6638V10.0518C10.3162 10.0181 10.3612 9.99784 10.3904 9.97534H9.58718C9.62543 9.99784 9.66818 10.0136 9.68393 10.0518V10.6638C9.68393 10.7111 9.61643 10.7606 9.57593 10.7763H10.4332Z" fill="white" stroke="black" stroke-width="0.0225"/>
<path d="M10.5413 9.98204V9.54104H10.4311V9.49829H9.55806V9.54329H9.44556V9.98204H10.5413ZM10.2623 10.7763C10.2218 10.7605 10.1656 10.711 10.1656 10.6638V10.1418L10.1971 10.0945H9.79881L9.83256 10.1395V10.6638C9.83256 10.711 9.77406 10.7605 9.73581 10.7763H10.2623Z" fill="white" stroke="black" stroke-width="0.0225"/>
<path d="M9.89551 10.0945H10.098V10.7762H9.89551V10.0945Z" fill="white" stroke="black" stroke-width="0.0225"/>
<path d="M10.2038 9.94365C10.2038 9.89865 10.3343 9.8964 10.4018 9.85815H9.5918C9.6593 9.8964 9.78755 9.89865 9.78755 9.94365L9.81455 10.0314L10.152 10.0449L10.2038 9.94365Z" fill="white" stroke="black" stroke-width="0.0225" stroke-linejoin="bevel"/>
<path d="M10.3612 9.46673C10.3612 9.35648 10.3657 9.31598 10.3995 9.31598V9.66248C10.3162 9.69398 10.2577 9.79748 10.2577 9.79748H9.73574C9.73574 9.79748 9.67724 9.69398 9.59399 9.66248V9.31373C9.63449 9.31373 9.63449 9.35873 9.63449 9.46448L10.3612 9.46673ZM10.3995 9.42173C10.3995 9.29573 10.5097 9.28223 10.5097 9.28223V9.39473C10.467 9.39248 10.4467 9.43073 10.4467 9.48473C10.4467 9.54098 10.4805 9.54098 10.4805 9.54098V9.86048H10.3995V9.42173Z" fill="white" stroke="black" stroke-width="0.0225"/>
<path d="M9.59389 9.42173C9.59389 9.29573 9.48364 9.28223 9.48364 9.28223V9.39473C9.52639 9.39248 9.54664 9.43073 9.54664 9.48473C9.54664 9.54098 9.51289 9.54098 9.51289 9.54098V9.86048H9.59389V9.42173Z" fill="white" stroke="black" stroke-width="0.0225"/>
<path d="M9.80754 8.55103H10.1945M9.76254 8.67253H10.235M9.71754 8.81878H10.2778M9.67029 8.99653H10.334M9.65454 9.19903H10.3385" stroke="black" stroke-width="0.018"/>
<path d="M9.44751 9.86499H10.541M9.79401 9.86499H10.199V10.0135H9.79401V9.86499Z" stroke="black" stroke-width="0.0225"/>
<path d="M9.74463 9.532C9.81213 9.613 9.80313 9.75025 9.80313 9.83125H10.1946C10.1946 9.75025 10.1856 9.613 10.2531 9.532H9.74463ZM9.96288 8.6095L9.90888 8.58025V8.5015C9.93138 8.50825 9.95388 8.5105 9.95838 8.5465C9.96513 8.49475 9.98088 8.49925 10.0011 8.479C10.0236 8.49925 10.0349 8.49475 10.0439 8.5465C10.0439 8.5105 10.0709 8.50825 10.0911 8.5015V8.58025L10.0394 8.60725L9.96288 8.6095Z" fill="white" stroke="black" stroke-width="0.0225"/>
<path d="M9.95841 8.73783L9.86841 8.67483V8.60508C9.90216 8.61183 9.93591 8.61633 9.94041 8.65458C9.94941 8.59833 9.96966 8.57133 10.0012 8.54883C10.0304 8.57133 10.0507 8.59833 10.0619 8.65458C10.0642 8.61633 10.1002 8.61183 10.1294 8.60508V8.67708L10.0417 8.73783H9.95841Z" fill="white" stroke="black" stroke-width="0.0225"/>
<path d="M9.95183 8.93793L9.85058 8.84793V8.74218C9.88658 8.75118 9.92708 8.75569 9.93158 8.81194C9.94283 8.73319 9.96533 8.69044 9.99908 8.65894C10.0351 8.69044 10.0576 8.73319 10.0711 8.81194C10.0756 8.75569 10.1161 8.75118 10.1521 8.74218V8.84793L10.0486 8.93793H9.95183ZM10.1408 9.05718L10.0508 9.18543H9.94508L9.85283 9.05718H10.1408ZM9.79883 9.27093C9.84383 9.29568 9.86183 9.34744 9.86633 9.44194H10.1273C10.1318 9.34744 10.1498 9.29568 10.1948 9.27093H9.79883Z" fill="white" stroke="black" stroke-width="0.0225"/>
<path d="M10.1992 9.05501V8.92901C10.1798 8.93314 10.1618 8.94212 10.1469 8.9551C10.1319 8.96809 10.1205 8.98466 10.1137 9.00326C10.1137 8.95826 10.0574 8.86151 9.99669 8.81201C9.93594 8.86601 9.87744 8.95601 9.87969 9.00101C9.86844 8.96726 9.83919 8.94026 9.79419 8.92901V9.05726L10.1992 9.05501Z" fill="white" stroke="black" stroke-width="0.0225" stroke-linejoin="bevel"/>
<path d="M10.2171 9.27108V9.14508C10.1699 9.15858 10.1384 9.18333 10.1249 9.21933C10.1249 9.17433 10.0641 9.07758 9.99662 9.02808C9.92912 9.08433 9.86612 9.17208 9.86837 9.21933C9.85712 9.18558 9.82337 9.15858 9.77612 9.14508V9.27333L10.2171 9.27108Z" fill="white" stroke="black" stroke-width="0.0225" stroke-linejoin="bevel"/>
<path d="M10.2712 9.53422V9.38572C10.2244 9.40035 10.1839 9.43051 10.1565 9.47122C10.1565 9.39247 10.0665 9.26872 9.99672 9.23047C9.92472 9.27097 9.83697 9.39697 9.83697 9.47122C9.80885 9.43023 9.76757 9.40006 9.71997 9.38572V9.53422H10.2712Z" fill="white" stroke="black" stroke-width="0.0225" stroke-linejoin="bevel"/>
<path d="M10.2397 9.86507V9.71207C10.1857 9.73232 10.1722 9.78182 10.1542 9.81782C10.1609 9.66257 10.0687 9.49832 9.99666 9.45557C9.92466 9.49832 9.83016 9.66707 9.83916 9.81557C9.82116 9.78407 9.80541 9.73232 9.75366 9.71207V9.86282L10.2397 9.86507Z" fill="white" stroke="black" stroke-width="0.0225" stroke-linejoin="bevel"/>
<path d="M10.2038 10.0945V9.94151C10.1475 9.95501 10.1453 9.97526 10.1273 10.009C10.134 9.91676 10.0688 9.81101 9.99679 9.77051C9.92479 9.81101 9.86179 9.91676 9.86629 10.009C9.84829 9.97526 9.84604 9.95501 9.78979 9.94151V10.0945H10.2038Z" fill="white" stroke="black" stroke-width="0.0225"/>
<path d="M7.83226 10.6571V10.1981C7.81651 10.1396 7.76476 10.0856 7.72876 10.0766V9.67163L7.81201 9.71663L7.90876 10.1419V10.6594L7.83226 10.6571Z" fill="white" stroke="black" stroke-width="0.0225"/>
<path d="M7.83226 10.6593V10.198C7.81651 10.1395 7.76476 10.0855 7.72876 10.0765V9.64453C7.78501 9.64453 7.81201 9.71653 7.81201 9.71653L7.90876 10.1418V10.657L7.83226 10.6593Z" fill="white" stroke="black" stroke-width="0.0225"/>
<path d="M7.77148 10.7765C7.80973 10.7607 7.86598 10.7112 7.86598 10.664V10.088L7.83898 10.043H8.82223L8.78398 10.088V10.664C8.78563 10.6878 8.79359 10.7108 8.80703 10.7306C8.82047 10.7503 8.83892 10.7662 8.86048 10.7765H7.77148Z" fill="white" stroke="black" stroke-width="0.0225"/>
<path d="M8.66029 10.7763C8.62204 10.7605 8.56579 10.711 8.56579 10.6638V10.117L8.64679 10.0405H7.98079L8.06179 10.117V10.6638C8.06179 10.711 8.00554 10.7605 7.96729 10.7763H8.66029Z" fill="white" stroke="black" stroke-width="0.0225"/>
<path d="M8.56783 10.7765C8.52958 10.7607 8.47108 10.7112 8.47108 10.664V10.169L8.52508 10.0947H8.10208L8.15608 10.169V10.664C8.15608 10.7112 8.09983 10.7607 8.05933 10.7765H8.56783Z" fill="white" stroke="black" stroke-width="0.0225"/>
<path d="M8.21465 10.0947H8.4149V10.7787H8.2124L8.21465 10.0947Z" fill="white" stroke="black" stroke-width="0.0225"/>
<path d="M7.93791 10.2837H8.01891V10.6549H7.93791V10.2837ZM8.63091 10.2837H8.70966V10.6549H8.62866L8.63091 10.2837ZM7.86816 9.65818H7.96716V10.0407H7.86816V9.65818ZM7.86816 9.58618H7.96491V9.65818H7.86816V9.58618ZM8.66916 9.74143H8.80641V10.0339H8.66916V9.74143Z" fill="white" stroke="black" stroke-width="0.0225" stroke-linejoin="bevel"/>
<path d="M7.96506 10.0361V9.38358C7.99206 9.38358 7.99656 9.48034 8.05956 9.48034C8.09331 9.48034 8.09106 9.43983 8.07081 9.40833C8.05506 9.37908 8.03481 9.34084 8.06181 9.26659C8.08206 9.32284 8.13156 9.34083 8.12256 9.30708C8.10681 9.24633 8.05956 9.23509 8.09556 9.14284C8.10681 9.21934 8.15631 9.21708 8.14506 9.17208C8.13156 9.12033 8.10231 9.09783 8.13831 9.02583C8.15856 9.10908 8.18331 9.10459 8.18331 9.05284C8.18331 8.97634 8.18331 8.89533 8.27781 8.86608C8.27781 8.86608 8.28456 8.79858 8.32056 8.79858C8.35431 8.79858 8.36106 8.86608 8.36106 8.86608C8.45781 8.89533 8.45556 8.97859 8.45556 9.05284C8.45556 9.10459 8.48031 9.10908 8.50056 9.02583C8.53656 9.09783 8.50731 9.12033 8.49381 9.17208C8.48256 9.21708 8.53206 9.21934 8.54331 9.14284C8.57931 9.23509 8.53206 9.24633 8.51631 9.30708C8.50731 9.34083 8.55681 9.32284 8.57706 9.26659C8.60406 9.34084 8.58381 9.37908 8.56806 9.40833C8.55006 9.43983 8.54556 9.48034 8.57931 9.48034C8.64231 9.48034 8.64681 9.38583 8.67381 9.38583V10.0361H7.96506ZM7.80981 9.54333V10.0406H7.86606V9.54333C7.84581 9.53208 7.82781 9.53208 7.80981 9.54333Z" fill="white" stroke="black" stroke-width="0.0225"/>
<path d="M7.81421 9.86513C7.88396 9.90113 7.95371 9.94388 7.97171 10.0406H7.81421V9.86513ZM8.78621 9.71663V10.0406H8.83121V9.71663C8.81771 9.70988 8.79746 9.70763 8.78621 9.71663Z" fill="white" stroke="black" stroke-width="0.0225"/>
<path d="M8.83132 9.86515C8.76157 9.8989 8.69182 9.9394 8.67382 10.0384H8.83132V9.86515ZM8.36782 9.1069L8.40832 9.07315V9.02815C8.39482 9.02815 8.38582 9.0349 8.37457 9.05065C8.37021 9.0362 8.36298 9.02278 8.35331 9.01119C8.34365 8.99959 8.33175 8.99006 8.31832 8.98315C8.3047 8.98956 8.29251 8.99864 8.28246 9.00985C8.27241 9.02106 8.26471 9.03417 8.25982 9.0484C8.24857 9.03265 8.24182 9.0304 8.22607 9.0259V9.0709L8.26657 9.1069H8.36782Z" fill="white" stroke="black" stroke-width="0.0225"/>
<path d="M8.39032 9.217L8.40832 9.17425V9.118C8.39482 9.118 8.38582 9.12475 8.37457 9.1405C8.37021 9.12605 8.36298 9.11263 8.35331 9.10103C8.34365 9.08943 8.33175 9.0799 8.31832 9.073C8.3047 9.07941 8.29251 9.08849 8.28246 9.09969C8.27241 9.1109 8.26471 9.12401 8.25982 9.13825C8.24857 9.1225 8.24182 9.12025 8.22607 9.118V9.17425L8.24407 9.217H8.39032Z" fill="white" stroke="black" stroke-width="0.0225"/>
<path d="M8.39466 9.36567L8.45316 9.29142V9.21942C8.43066 9.21942 8.41941 9.23067 8.40366 9.25542C8.38791 9.20367 8.35866 9.19467 8.31816 9.16992C8.27541 9.19242 8.24616 9.20367 8.23266 9.25317C8.21466 9.22842 8.20341 9.22167 8.18091 9.21942V9.29142L8.24166 9.36567H8.39466Z" fill="white" stroke="black" stroke-width="0.0225"/>
<path d="M8.41041 9.5118C8.41041 9.5118 8.48241 9.45105 8.48466 9.4173V9.33855C8.45766 9.3408 8.43291 9.34755 8.41266 9.3813C8.39466 9.31605 8.36766 9.29805 8.31816 9.2688C8.26641 9.29805 8.23941 9.31605 8.22366 9.3813C8.20116 9.34755 8.17866 9.3408 8.14941 9.3363V9.4173C8.16831 9.45299 8.19346 9.48499 8.22366 9.5118H8.41041Z" fill="white" stroke="black" stroke-width="0.0225"/>
<path d="M8.43971 9.78181C8.43971 9.78181 8.53871 9.67607 8.54096 9.63332V9.51181C8.50496 9.51631 8.46896 9.54107 8.44196 9.59282C8.41946 9.49157 8.38346 9.42181 8.31821 9.37231C8.25071 9.42181 8.21471 9.49157 8.19221 9.59282C8.16521 9.54107 8.13146 9.51631 8.09546 9.51181V9.63332C8.10221 9.67607 8.19446 9.78181 8.19446 9.78181H8.43971Z" fill="white" stroke="black" stroke-width="0.0225"/>
<path d="M8.43971 9.94151C8.43971 9.94151 8.52296 9.85826 8.54096 9.82226V9.70076C8.50496 9.70526 8.46896 9.73001 8.44196 9.77951C8.43594 9.73857 8.42191 9.69922 8.40068 9.6637C8.37945 9.62818 8.35142 9.59719 8.31821 9.57251C8.25071 9.62201 8.21471 9.67826 8.19221 9.77951C8.16521 9.73001 8.13146 9.70526 8.09546 9.70076V9.82226C8.11796 9.85826 8.19446 9.94151 8.19446 9.94151H8.43971Z" fill="white" stroke="black" stroke-width="0.0225"/>
<path d="M8.47336 10.0362C8.45086 9.93045 8.42836 9.8517 8.31361 9.77295C8.19661 9.8517 8.17636 9.93045 8.15161 10.0362H8.47336Z" fill="white" stroke="black" stroke-width="0.0225"/>
<path d="M8.53421 10.0945V9.94151C8.48021 9.96401 8.43296 9.99326 8.41496 10.027C8.39696 9.94151 8.35871 9.90551 8.31146 9.85376C8.26421 9.90551 8.23271 9.94376 8.21246 10.027C8.19446 9.99326 8.14721 9.96176 8.09546 9.94151V10.0945H8.53421Z" fill="white" stroke="black" stroke-width="0.0225"/>
<path d="M12.1677 10.6571V10.1981C12.1835 10.1396 12.2352 10.0856 12.2712 10.0766V9.67163L12.188 9.71663L12.0912 10.1419V10.6594L12.1677 10.6571Z" fill="white" stroke="black" stroke-width="0.0225"/>
<path d="M12.1677 10.6593V10.198C12.1835 10.1395 12.2352 10.0855 12.2712 10.0765V9.64453C12.215 9.64453 12.188 9.71653 12.188 9.71653L12.0912 10.1418V10.657L12.1677 10.6593Z" fill="white" stroke="black" stroke-width="0.0225"/>
<path d="M12.2285 10.7765C12.1903 10.7607 12.134 10.7112 12.134 10.664V10.088L12.161 10.043H11.1778L11.216 10.088V10.664C11.2144 10.6878 11.2064 10.7108 11.193 10.7306C11.1795 10.7503 11.1611 10.7662 11.1395 10.7765H12.2285Z" fill="white" stroke="black" stroke-width="0.0225"/>
<path d="M11.3397 10.7763C11.378 10.7605 11.4342 10.711 11.4342 10.6638V10.117L11.3532 10.0405H12.0192L11.9382 10.117V10.6638C11.9382 10.711 11.9945 10.7605 12.0327 10.7763H11.3397Z" fill="white" stroke="black" stroke-width="0.0225"/>
<path d="M11.4319 10.7765C11.4702 10.7607 11.5287 10.7112 11.5287 10.664V10.169L11.4747 10.0947H11.8977L11.8437 10.169V10.664C11.8437 10.7112 11.8999 10.7607 11.9404 10.7765H11.4319Z" fill="white" stroke="black" stroke-width="0.0225"/>
<path d="M11.7853 10.0947H11.5851V10.7787H11.7876L11.7853 10.0947Z" fill="white" stroke="black" stroke-width="0.0225"/>
<path d="M12.0621 10.2837H11.9811V10.6549H12.0621V10.2837ZM11.3691 10.2837H11.2903V10.6549H11.3713L11.3691 10.2837ZM12.1318 9.65818H12.0328V10.0407H12.1318V9.65818ZM12.1318 9.58618H12.0351V9.65818H12.1318V9.58618ZM11.3308 9.74143H11.1936V10.0339H11.3308V9.74143Z" fill="white" stroke="black" stroke-width="0.0225" stroke-linejoin="bevel"/>
<path d="M12.0349 10.0361V9.38358C12.0079 9.38358 12.0034 9.48034 11.9404 9.48034C11.9067 9.48034 11.9089 9.43983 11.9292 9.40833C11.9449 9.37908 11.9652 9.34084 11.9382 9.26659C11.9179 9.32284 11.8684 9.34083 11.8774 9.30708C11.8932 9.24633 11.9404 9.23509 11.9044 9.14284C11.8932 9.21934 11.8437 9.21708 11.8549 9.17208C11.8684 9.12033 11.8977 9.09783 11.8617 9.02583C11.8414 9.10908 11.8167 9.10459 11.8167 9.05284C11.8167 8.97634 11.8167 8.89533 11.7222 8.86608C11.7222 8.86608 11.7154 8.79858 11.6794 8.79858C11.6457 8.79858 11.6389 8.86608 11.6389 8.86608C11.5422 8.89533 11.5444 8.97859 11.5444 9.05284C11.5444 9.10459 11.5197 9.10908 11.4994 9.02583C11.4634 9.09783 11.4927 9.12033 11.5062 9.17208C11.5174 9.21708 11.4679 9.21934 11.4567 9.14284C11.4207 9.23509 11.4679 9.24633 11.4837 9.30708C11.4927 9.34083 11.4432 9.32284 11.4229 9.26659C11.3959 9.34084 11.4162 9.37908 11.4319 9.40833C11.4499 9.43983 11.4544 9.48034 11.4207 9.48034C11.3577 9.48034 11.3532 9.38583 11.3262 9.38583V10.0361H12.0349ZM12.1902 9.54333V10.0406H12.1339V9.54333C12.1542 9.53208 12.1722 9.53208 12.1902 9.54333Z" fill="white" stroke="black" stroke-width="0.0225"/>
<path d="M12.1858 9.86513C12.116 9.90113 12.0463 9.94388 12.0283 10.0406H12.1858V9.86513ZM11.2138 9.71663V10.0406H11.1688V9.71663C11.1823 9.70988 11.2025 9.70763 11.2138 9.71663Z" fill="white" stroke="black" stroke-width="0.0225"/>
<path d="M11.1687 9.86515C11.2384 9.8989 11.3082 9.9394 11.3262 10.0384H11.1687V9.86515ZM11.6322 9.1069L11.5917 9.07315V9.02815C11.6052 9.02815 11.6142 9.0349 11.6254 9.05065C11.6298 9.0362 11.637 9.02278 11.6467 9.01119C11.6564 8.99959 11.6683 8.99006 11.6817 8.98315C11.6953 8.98956 11.7075 8.99864 11.7175 9.00985C11.7276 9.02106 11.7353 9.03417 11.7402 9.0484C11.7514 9.03265 11.7582 9.0304 11.7739 9.0259V9.0709L11.7334 9.1069H11.6322Z" fill="white" stroke="black" stroke-width="0.0225"/>
<path d="M11.6097 9.217L11.5917 9.17425V9.118C11.6052 9.118 11.6142 9.12475 11.6254 9.1405C11.6298 9.12605 11.637 9.11263 11.6467 9.10103C11.6564 9.08943 11.6683 9.0799 11.6817 9.073C11.6953 9.07941 11.7075 9.08849 11.7175 9.09969C11.7276 9.1109 11.7353 9.12401 11.7402 9.13825C11.7514 9.1225 11.7582 9.12025 11.7739 9.118V9.17425L11.7559 9.217H11.6097Z" fill="white" stroke="black" stroke-width="0.0225"/>
<path d="M11.6053 9.36567L11.5468 9.29142V9.21942C11.5693 9.21942 11.5806 9.23067 11.5963 9.25542C11.6121 9.20367 11.6413 9.19467 11.6818 9.16992C11.7246 9.19242 11.7538 9.20367 11.7673 9.25317C11.7853 9.22842 11.7966 9.22167 11.8191 9.21942V9.29142L11.7583 9.36567H11.6053Z" fill="white" stroke="black" stroke-width="0.0225"/>
<path d="M11.5896 9.5118C11.5896 9.5118 11.5176 9.45105 11.5153 9.4173V9.33855C11.5423 9.3408 11.5671 9.34755 11.5873 9.3813C11.6053 9.31605 11.6323 9.29805 11.6818 9.2688C11.7336 9.29805 11.7606 9.31605 11.7763 9.3813C11.7988 9.34755 11.8213 9.3408 11.8506 9.3363V9.4173C11.8317 9.45299 11.8065 9.48499 11.7763 9.5118H11.5896Z" fill="white" stroke="black" stroke-width="0.0225"/>
<path d="M11.5603 9.78181C11.5603 9.78181 11.4613 9.67607 11.459 9.63332V9.51181C11.495 9.51631 11.531 9.54107 11.558 9.59282C11.5805 9.49157 11.6165 9.42181 11.6818 9.37231C11.7493 9.42181 11.7853 9.49157 11.8078 9.59282C11.8348 9.54107 11.8685 9.51631 11.9045 9.51181V9.63332C11.8978 9.67607 11.8055 9.78181 11.8055 9.78181H11.5603Z" fill="white" stroke="black" stroke-width="0.0225"/>
<path d="M11.5603 9.94151C11.5603 9.94151 11.477 9.85826 11.459 9.82226V9.70076C11.495 9.70526 11.531 9.73001 11.558 9.77951C11.5641 9.73857 11.5781 9.69922 11.5993 9.6637C11.6206 9.62818 11.6486 9.59719 11.6818 9.57251C11.7493 9.62201 11.7853 9.67826 11.8078 9.77951C11.8348 9.73001 11.8685 9.70526 11.9045 9.70076V9.82226C11.882 9.85826 11.8055 9.94151 11.8055 9.94151H11.5603Z" fill="white" stroke="black" stroke-width="0.0225"/>
<path d="M11.5264 10.0362C11.5489 9.93045 11.5714 9.8517 11.6861 9.77295C11.8031 9.8517 11.8234 9.93045 11.8481 10.0362H11.5264Z" fill="white" stroke="black" stroke-width="0.0225"/>
<path d="M11.4658 10.0945V9.94151C11.5198 9.96401 11.567 9.99326 11.585 10.027C11.603 9.94151 11.6413 9.90551 11.6885 9.85376C11.7358 9.90551 11.7673 9.94376 11.7875 10.027C11.8055 9.99326 11.8528 9.96176 11.9045 9.94151V10.0945H11.4658Z" fill="white" stroke="black" stroke-width="0.0225"/>
<path d="M7.24049 11.3341H12.7597V11.6154H7.24049V11.3341ZM7.09424 11.6154H12.906V11.8966H7.09424V11.6154ZM7.53074 10.9111H12.4672V11.0934H7.53074V10.9111Z" fill="white" stroke="black" stroke-width="0.0225"/>
<path d="M7.38672 11.0935H12.6157V11.332H7.38672V11.0935ZM7.61622 10.7717H12.3862V10.9112H7.61622V10.7717Z" fill="white" stroke="black" stroke-width="0.0225"/>
<path d="M8.13379 10.7717H8.49379V11.8967H8.13379V10.7717Z" fill="white" stroke="black" stroke-width="0.0225"/>
<path d="M8.21465 10.7717H8.4149V11.8967H8.2124L8.21465 10.7717ZM9.81215 10.7717H10.1722V11.8967H9.81215V10.7717Z" fill="white" stroke="black" stroke-width="0.0225"/>
<path d="M9.89551 10.7717H10.098V11.8967H9.89551V10.7717ZM11.5043 10.7717H11.8643V11.8967H11.5043V10.7717Z" fill="white" stroke="black" stroke-width="0.0225"/>
<path d="M11.583 10.7717H11.7855V11.8967H11.583V10.7717Z" fill="white" stroke="black" stroke-width="0.0225"/>
<path d="M7.83228 10.657H12.1748M8.21028 11.755H8.41728M8.21028 11.6132H8.41728M8.21028 11.4737H8.41728M8.21028 11.332H8.41728M8.21028 11.1925H8.41728M8.21028 11.0507H8.41728M8.21028 10.9112H8.41728M9.89778 11.755H10.0913M9.89778 11.6132H10.0913M9.89778 11.4737H10.0913M9.89778 11.332H10.0913M9.89778 11.1925H10.0913M9.89778 11.0507H10.0913M9.89778 10.9112H10.0913M11.5808 11.755H11.7878M11.5808 11.6132H11.7878M11.5808 11.4737H11.7878M11.5808 11.332H11.7878M11.5808 11.1925H11.7878M11.5808 11.0507H11.7878M11.5808 10.9112H11.7878" stroke="black" stroke-width="0.0225"/>
</g>
<defs>
<clipPath id="clip0_823_3284">
<rect x="4" y="5.5" width="12" height="9" rx="1" fill="white"/>
</clipPath>
</defs>
</svg>
