<svg width="20" height="20" viewBox="0 0 20 20" fill="none" xmlns="http://www.w3.org/2000/svg">
<g clip-path="url(#clip0_823_3446)">
<path fill-rule="evenodd" clip-rule="evenodd" d="M4 12.25H16V14.5H4V12.25ZM4 5.5H16V7.75H4V5.5Z" fill="#FF0000"/>
<path fill-rule="evenodd" clip-rule="evenodd" d="M4 7.75H16V12.25H4V7.75Z" fill="white"/>
<path d="M9.86548 7.77275C9.72837 8.04521 9.63696 8.04521 9.40845 8.22979C9.31704 8.31943 9.17993 8.36514 9.36274 8.4583C9.17817 8.54795 9.08677 8.59365 8.99536 8.77647L9.04106 8.82217C9.04106 8.82217 9.21685 8.73779 9.22388 8.77647C9.25552 8.81338 8.99536 8.95225 8.96196 8.9751L8.7686 9.09814C8.53833 9.2792 8.39946 9.2335 8.26411 9.50771L8.72114 9.46201C8.81255 9.78193 8.49263 9.82764 8.26411 9.96475L7.89673 10.1933C7.98989 10.5132 8.26411 10.3304 8.49263 10.239L8.53833 10.2847V10.3761L8.0813 10.6046C8.0813 10.6046 7.53989 10.914 7.5311 10.9245C7.52759 10.9421 7.5311 11.0159 7.5311 11.0159C7.71392 11.0616 7.98813 11.1073 8.17271 11.0159C8.40122 10.9245 8.44692 10.8331 8.72114 10.8331C8.45721 11.039 8.14023 11.1658 7.80708 11.1987V11.3815C8.0813 11.3815 8.26411 11.3815 8.49263 11.3358L9.08677 11.153C9.22388 11.153 9.36274 11.2901 9.31528 11.4272C9.17993 11.93 8.62974 11.8386 8.44692 12.2499L9.17817 11.9739C9.36099 11.8825 9.5438 11.7929 9.77231 11.8386C10.0465 11.93 10.0465 12.1128 10.4122 12.2042L10.3208 11.9757C10.4122 12.0214 10.5036 12.0214 10.5967 12.0671C10.8252 12.1585 10.8709 12.2499 11.1452 12.2042C10.9167 11.93 10.8709 11.9757 10.6881 11.7929C10.5053 11.5187 10.4122 11.1073 10.6881 11.0616L11.0081 11.153C11.328 11.1987 11.328 11.1073 11.785 11.2901C12.061 11.3815 12.1524 11.5187 12.4706 11.4272C12.3352 11.1073 11.8325 10.8788 11.5108 10.7874C11.8782 10.5589 11.785 10.8788 12.2895 10.7417V10.6503C11.9256 10.3743 11.7868 10.1458 11.284 10.1458L12.0627 10.0544V9.96299C12.0627 9.96299 11.2946 9.7626 11.277 9.75381C11.2823 9.73096 11.3016 9.6958 11.3526 9.67471C11.4985 9.76963 11.9379 9.75908 11.9643 9.75732C11.9502 9.64482 11.7411 9.55166 11.56 9.46025C11.56 9.46025 10.7743 8.97686 10.7708 8.93467C10.7866 8.81162 11.0924 8.954 11.4211 9.04893C11.3297 8.86611 11.1469 8.77471 10.9641 8.729L11.2383 8.6833C11.0555 8.27197 10.5985 8.31768 10.3243 8.13486C10.1397 7.99775 10.1397 7.90635 9.86548 7.771V7.77275Z" fill="#007900"/>
<path fill-rule="evenodd" clip-rule="evenodd" d="M9.29355 10.8142C9.32695 10.7069 9.3709 10.6102 9.16699 10.5171C8.96309 10.4239 9.26895 10.888 9.29355 10.8159V10.8142ZM9.53437 10.5979C9.49395 10.6032 9.47109 10.7526 9.55371 10.7948C9.64512 10.8089 9.57129 10.5997 9.53437 10.5979ZM9.77168 10.5804C9.72949 10.5944 9.72773 10.8054 9.87715 10.7667C10.0283 10.7298 9.87715 10.5645 9.77168 10.5821V10.5804ZM10.0494 10.0407C10.0811 9.98798 10.0477 9.77705 9.91934 9.86494C9.78926 9.95458 10.0072 10.0548 10.0494 10.0407ZM9.76816 9.86494C9.80859 9.84912 9.81211 9.71904 9.69785 9.75419C9.58711 9.78759 9.73828 9.8913 9.76816 9.86494ZM9.51504 9.91591C9.51504 9.91591 9.43594 9.80693 9.37441 9.82978C9.29883 9.90361 9.52031 9.91767 9.51504 9.91591ZM8.64316 10.264C8.67656 10.2675 8.92441 10.2235 9.01055 10.1269C9.09668 10.0302 8.56934 10.1673 8.56934 10.169C8.56934 10.1708 8.61855 10.2552 8.64316 10.264ZM11.1234 9.64873C11.1357 9.62587 10.9916 9.52392 10.9055 9.56435C10.8826 9.63994 11.1234 9.66455 11.1234 9.64873ZM10.6348 9.40263C10.6629 9.36396 10.5732 9.204 10.3939 9.29365C10.2146 9.38154 10.582 9.46591 10.6348 9.40439V9.40263ZM10.0705 9.30947C10.0705 9.30947 10.1145 9.16533 10.2217 9.19345C10.3447 9.28662 10.0758 9.31474 10.0705 9.30947ZM9.96504 9.20048C9.94746 9.16005 9.83672 9.18291 9.7084 9.26904C9.57832 9.35166 10.0037 9.29365 9.96504 9.19873V9.20048ZM10.2937 8.81201C10.2937 8.81201 10.408 8.75927 10.4432 8.81201C10.4906 8.88759 10.292 8.81201 10.2937 8.81201ZM10.1971 8.76103C10.1742 8.71533 10.0477 8.71005 10.0512 8.77861C10.0301 8.83134 10.2164 8.8208 10.1971 8.76103ZM9.89473 8.76103C9.88242 8.73466 9.70137 8.76103 9.64863 8.87001C9.73652 8.9122 9.93516 8.82958 9.89473 8.76103ZM9.50801 8.87177C9.50801 8.87177 9.27246 9.01767 9.25664 9.12314C9.26367 9.21455 9.55195 8.9579 9.55195 8.9579C9.55195 8.9579 9.57656 8.85595 9.50977 8.87177H9.50801ZM9.24609 8.73994C9.25313 8.71005 9.36387 8.6415 9.37266 8.64677C9.38145 8.67666 9.28301 8.75751 9.24609 8.73994ZM9.32168 9.29541C9.32695 9.25146 9.04043 9.25498 9.14766 9.38681C9.23906 9.49755 9.34102 9.31474 9.32168 9.29541ZM9.05801 9.48349C9.04395 9.45537 9.02285 9.37802 8.98418 9.37099C8.95078 9.37099 8.77852 9.40615 8.76445 9.43427C8.75742 9.45712 8.83652 9.59951 8.86289 9.60302C8.89453 9.61533 9.05449 9.49755 9.05977 9.48349H9.05801ZM10.6119 10.4538C10.6207 10.4222 10.916 10.322 11.0162 10.4186C11.1357 10.5821 10.6049 10.5065 10.6119 10.4538ZM11.4205 10.6454C11.4855 10.5364 11.2219 10.4063 11.1111 10.5311C11.1498 10.6806 11.3678 10.7351 11.4205 10.6454Z" fill="white" stroke="white" stroke-width="0.05625" stroke-linecap="round" stroke-linejoin="round"/>
</g>
<defs>
<clipPath id="clip0_823_3446">
<rect x="4" y="5.5" width="12" height="9" rx="1" fill="white"/>
</clipPath>
</defs>
</svg>
