<svg width="20" height="20" viewBox="0 0 20 20" fill="none" xmlns="http://www.w3.org/2000/svg">
<g clip-path="url(#clip0_823_2306)">
<path fill-rule="evenodd" clip-rule="evenodd" d="M4 5.50098H21.1V6.19355H4V5.50098ZM4 6.88613H21.1V7.57871H4V6.88613ZM4 8.26953H21.1V8.96387H4V8.26953ZM4 9.65469H21.1V10.3473H4V9.65469ZM4 11.0398H21.1V11.7324H4V11.0398ZM4 12.4232H21.1V13.1158H4V12.4232ZM4 13.8084H21.1V14.501H4V13.8084Z" fill="#BD3D44"/>
<path fill-rule="evenodd" clip-rule="evenodd" d="M4 6.19409H21.1V6.88667H4V6.19409ZM4 7.57925H21.1V8.27007H4V7.57925ZM4 8.96265H21.1V9.65522H4V8.96265ZM4 10.3478H21.1V11.0404H4V10.3478ZM4 11.733H21.1V12.4255H4V11.733ZM4 13.1164H21.1V13.8089H4V13.1164Z" fill="white"/>
<path fill-rule="evenodd" clip-rule="evenodd" d="M4 5.50098H10.8396V10.3473H4V5.50098Z" fill="#192F5D"/>
<path fill-rule="evenodd" clip-rule="evenodd" d="M4.56934 5.70923L4.63262 5.90083H4.83301L4.67129 6.0186L4.73281 6.21196L4.56934 6.09243L4.40762 6.21021L4.46914 6.0186L4.30566 5.90083H4.50957L4.56934 5.70923ZM5.71016 5.70923L5.77168 5.90083H5.97383L5.81035 6.0186L5.87187 6.21196L5.71016 6.09243L5.54668 6.21021L5.6082 6.0186L5.44648 5.90083H5.64687L5.71016 5.70923ZM6.84922 5.70923L6.9125 5.90083H7.11113L6.94941 6.0186L7.01094 6.21196L6.84746 6.09243L6.68574 6.21021L6.74727 6.0186L6.58379 5.90083H6.78594L6.84922 5.70923ZM7.99004 5.70923L8.05156 5.90083H8.25371L8.09023 6.0186L8.15352 6.21196L7.99004 6.09243L7.82656 6.21021L7.88984 6.0186L7.72637 5.90083H7.92676L7.99004 5.70923ZM9.1291 5.70923L9.19238 5.90083H9.39277L9.23105 6.0186L9.29258 6.21196L9.1291 6.09243L8.96738 6.21021L9.02891 6.0186L8.86719 5.90083H9.06758L9.1291 5.70923ZM10.2699 5.70923L10.3314 5.90083H10.5336L10.3701 6.0186L10.4334 6.21196L10.2699 6.09243L10.1064 6.21021L10.1697 6.0186L10.0062 5.90083H10.2084L10.2699 5.70923ZM5.14062 6.19438L5.20215 6.38599H5.4043L5.24082 6.50376L5.30059 6.69536L5.14238 6.57759L4.97891 6.69536L5.03691 6.50376L4.87871 6.38599H5.0791L5.14062 6.19438ZM6.27969 6.19438L6.34297 6.38599H6.54336L6.37988 6.50376L6.44316 6.69536L6.27969 6.57759L6.11621 6.69536L6.17949 6.50376L6.01602 6.38599H6.21816L6.27969 6.19438ZM7.42051 6.19438L7.48203 6.38599H7.68418L7.5207 6.50376L7.58223 6.69536L7.42051 6.57759L7.25703 6.69536L7.31855 6.50376L7.15684 6.38599H7.35723L7.42051 6.19438ZM8.55957 6.19438L8.62285 6.38599H8.82324L8.65977 6.50376L8.72305 6.69536L8.55957 6.57759L8.39785 6.69536L8.45937 6.50376L8.2959 6.38599H8.4998L8.55957 6.19438ZM9.70039 6.19438L9.76191 6.38599H9.96406L9.80059 6.50376L9.86211 6.69536L9.70039 6.57759L9.53691 6.69536L9.59844 6.50376L9.43672 6.38599H9.63711L9.70039 6.19438ZM4.56934 6.67778L4.63262 6.8729H4.83301L4.67129 6.99067L4.73281 7.18228L4.56934 7.06274L4.40762 7.18228L4.46914 6.98892L4.30566 6.87114H4.50957L4.56934 6.67778ZM5.71016 6.67778L5.77168 6.87114H5.97383L5.81035 6.98892L5.87187 7.18052L5.71016 7.06099L5.54668 7.18052L5.6082 6.98716L5.44648 6.86938H5.64687L5.71016 6.67778ZM6.84922 6.67778L6.9125 6.87114H7.11113L6.94941 6.98892L7.01094 7.18052L6.84746 7.06099L6.68574 7.18052L6.74727 6.98716L6.58379 6.86938H6.78594L6.84922 6.67778ZM7.99004 6.67778L8.05156 6.87114H8.25371L8.09023 6.98892L8.15352 7.18052L7.99004 7.06099L7.82656 7.18052L7.88984 6.98716L7.72637 6.86938H7.92676L7.99004 6.67778ZM9.1291 6.67778L9.19238 6.87114H9.39277L9.23105 6.98892L9.29258 7.18052L9.1291 7.06099L8.96738 7.18052L9.02891 6.98716L8.86719 6.86938H9.06758L9.1291 6.67778ZM10.2699 6.67778L10.3314 6.87114H10.5336L10.3701 6.98892L10.4334 7.18052L10.2699 7.06099L10.1064 7.18052L10.1697 6.98716L10.0062 6.86938H10.2084L10.2699 6.67778ZM5.14062 7.16294L5.20215 7.35454H5.4043L5.24082 7.47231L5.30234 7.66567L5.14062 7.54614L4.97715 7.66392L5.03867 7.47231L4.87695 7.35454H5.07734L5.14062 7.16294ZM6.27969 7.16294L6.34297 7.35454H6.54336L6.37988 7.47231L6.44316 7.66567L6.27969 7.54614L6.11621 7.66392L6.17949 7.47231L6.01602 7.35454H6.21816L6.27969 7.16294ZM7.42051 7.16294L7.48203 7.35454H7.68418L7.5207 7.47231L7.58223 7.66567L7.42051 7.54614L7.25703 7.66392L7.31855 7.47231L7.15684 7.35454H7.35723L7.42051 7.16294ZM8.55957 7.16294L8.62285 7.35454H8.82324L8.66152 7.47231L8.72305 7.66567L8.55957 7.54614L8.39785 7.66392L8.45937 7.47231L8.2959 7.35454H8.4998L8.55957 7.16294ZM9.70039 7.16294L9.76191 7.35454H9.96406L9.80059 7.47231L9.86211 7.66567L9.70039 7.54614L9.53691 7.66392L9.59844 7.47231L9.43672 7.35454H9.63711L9.70039 7.16294ZM4.56934 7.6481L4.63262 7.8397H4.83301L4.67129 7.95747L4.73281 8.15083L4.56934 8.0313L4.40762 8.14907L4.46914 7.95747L4.30566 7.8397H4.50957L4.56934 7.6481ZM5.71016 7.6481L5.77168 7.8397H5.97383L5.81035 7.95747L5.87187 8.14907L5.71016 8.0313L5.54668 8.14907L5.6082 7.95747L5.44648 7.8397H5.64687L5.71016 7.6481ZM6.84922 7.6481L6.9125 7.8397H7.11113L6.94941 7.95747L7.01094 8.15083L6.84746 8.0313L6.68574 8.14907L6.74727 7.95747L6.58379 7.8397H6.78594L6.84922 7.6481ZM7.99004 7.6481L8.05156 7.8397H8.25371L8.09023 7.95747L8.15352 8.15083L7.99004 8.0313L7.82656 8.14907L7.88984 7.95747L7.72637 7.8397H7.92676L7.99004 7.6481ZM9.1291 7.6481L9.19238 7.8397H9.39277L9.23105 7.95747L9.29258 8.15083L9.1291 8.0313L8.96738 8.14907L9.02891 7.95747L8.86719 7.8397H9.06758L9.1291 7.6481ZM10.2699 7.6481L10.3314 7.8397H10.5336L10.3701 7.95747L10.4334 8.15083L10.2699 8.0313L10.1064 8.14907L10.1697 7.95747L10.0062 7.8397H10.2084L10.2699 7.6481ZM5.14062 8.13325L5.20215 8.32485H5.4043L5.24082 8.44263L5.30234 8.63423L5.14062 8.5147L4.97715 8.63423L5.03867 8.44087L4.87695 8.3231H5.07734L5.14062 8.13325ZM6.27969 8.13325L6.34297 8.32485H6.54336L6.37988 8.44263L6.44316 8.63423L6.27969 8.5147L6.11621 8.63423L6.17949 8.44087L6.01602 8.3231H6.21816L6.27969 8.13325ZM7.42051 8.13325L7.48203 8.32485H7.68418L7.5207 8.44263L7.58223 8.63423L7.42051 8.5147L7.25703 8.63423L7.31855 8.44087L7.15684 8.3231H7.35723L7.42051 8.13325ZM8.55957 8.13325L8.62285 8.32485H8.82324L8.66152 8.44263L8.72305 8.63423L8.55957 8.5147L8.39785 8.63423L8.45937 8.44087L8.2959 8.3231H8.4998L8.55957 8.13325ZM9.70039 8.13325L9.76191 8.32485H9.96406L9.80059 8.44263L9.86211 8.63423L9.70039 8.5147L9.53691 8.63423L9.59844 8.44087L9.43672 8.3231H9.63711L9.70039 8.13325ZM4.56934 8.61665L4.63262 8.81001H4.83301L4.67129 8.92778L4.73281 9.11763L4.56934 8.99985L4.40762 9.11763L4.46914 8.92603L4.30566 8.80825H4.50957L4.56934 8.61665ZM5.71016 8.61665L5.77168 8.81001H5.97383L5.81035 8.92778L5.87363 9.11763L5.71016 8.99985L5.54668 9.11763L5.60996 8.92603L5.44648 8.80825H5.64687L5.71016 8.61665ZM6.84922 8.61665L6.9125 8.81001H7.11113L6.94941 8.92778L7.01094 9.11763L6.84746 8.99985L6.68574 9.11763L6.74727 8.92603L6.58379 8.80825H6.78594L6.84922 8.61665ZM7.99004 8.61665L8.05156 8.81001H8.25371L8.09023 8.92778L8.15352 9.11763L7.99004 8.99985L7.82656 9.11763L7.88984 8.92603L7.72637 8.80825H7.92676L7.99004 8.61665ZM9.1291 8.61665L9.19238 8.81001H9.39277L9.23105 8.92778L9.29258 9.11763L9.1291 8.99985L8.96738 9.11763L9.02891 8.92603L8.86719 8.80825H9.06758L9.1291 8.61665ZM10.2699 8.61665L10.3314 8.81001H10.5336L10.3701 8.92778L10.4334 9.11763L10.2699 8.99985L10.1064 9.11763L10.1697 8.92603L10.0062 8.80825H10.2084L10.2699 8.61665ZM5.14062 9.10181L5.20215 9.29341H5.4043L5.24082 9.41118L5.30234 9.60454L5.14062 9.48501L4.97715 9.60278L5.03867 9.41118L4.87695 9.29341H5.07734L5.14062 9.10181ZM6.27969 9.10181L6.34297 9.29341H6.54336L6.37988 9.41118L6.44316 9.60454L6.27969 9.48501L6.11621 9.60278L6.17949 9.41118L6.01602 9.29341H6.21816L6.27969 9.10181ZM7.42051 9.10181L7.48203 9.29341H7.68418L7.5207 9.41118L7.58223 9.60454L7.42051 9.48501L7.25703 9.60278L7.31855 9.41118L7.15684 9.29341H7.35723L7.42051 9.10181ZM8.55957 9.10181L8.62285 9.29341H8.82324L8.66152 9.41118L8.72305 9.60454L8.55957 9.48501L8.39785 9.60278L8.45937 9.41118L8.2959 9.29341H8.4998L8.55957 9.10181ZM9.70039 9.10181L9.76191 9.29341H9.96406L9.80059 9.41118L9.86211 9.60454L9.70039 9.48501L9.53691 9.60278L9.59844 9.41118L9.43672 9.29341H9.63711L9.70039 9.10181ZM4.56934 9.58696L4.63262 9.77856H4.83301L4.67129 9.89634L4.73281 10.0879L4.56934 9.97017L4.40762 10.0879L4.46914 9.89458L4.30566 9.77681H4.50957L4.56934 9.58696ZM5.71016 9.58696L5.77168 9.77856H5.97383L5.81035 9.89634L5.87363 10.0879L5.71016 9.97017L5.54668 10.0879L5.60996 9.89458L5.44648 9.77681H5.64687L5.71016 9.58696ZM6.84922 9.58696L6.9125 9.77856H7.11113L6.95293 9.89634L7.01445 10.0879L6.85098 9.97017L6.68926 10.0879L6.75078 9.89458L6.5873 9.77681H6.78945L6.84922 9.58696ZM7.99004 9.58696L8.05156 9.77856H8.25371L8.09023 9.89634L8.15352 10.0879L7.99004 9.97017L7.82656 10.0879L7.88984 9.89458L7.72637 9.77681H7.92676L7.99004 9.58696ZM9.1291 9.58696L9.19238 9.77856H9.39277L9.23105 9.89634L9.29258 10.0879L9.1291 9.97017L8.96738 10.0879L9.02891 9.89458L8.86719 9.77681H9.06758L9.1291 9.58696ZM10.2699 9.58696L10.3314 9.77856H10.5336L10.3701 9.89634L10.4334 10.0879L10.2699 9.97017L10.1064 10.0879L10.1697 9.89458L10.0062 9.77681H10.2084L10.2699 9.58696Z" fill="white"/>
</g>
<defs>
<clipPath id="clip0_823_2306">
<rect x="4" y="5.5" width="12" height="9" rx="1" fill="white"/>
</clipPath>
</defs>
</svg>
