<svg width="21" height="21" viewBox="0 0 21 21" fill="none" xmlns="http://www.w3.org/2000/svg">
<path d="M4.04982 8.95564C3.8206 10.7103 3.68403 12.4758 3.64065 14.2448C6.03964 15.2469 8.33661 16.4776 10.4998 17.9198C12.6633 16.4776 14.9605 15.2469 17.3598 14.2448C17.3164 12.4758 17.1798 10.7103 16.9507 8.95564M4.04982 8.95564C3.31784 8.70956 2.57839 8.48364 1.83398 8.27814C4.55348 6.37141 7.45648 4.74083 10.4998 3.41064C13.5431 4.74055 16.4461 6.37085 19.1657 8.27731C18.419 8.48398 17.6798 8.71064 16.9507 8.95564M4.04982 8.95564C6.2737 9.70325 8.4306 10.6348 10.4998 11.7406C12.5688 10.6349 14.7271 9.70331 16.9507 8.95564M6.12482 12.9998C6.29058 12.9998 6.44955 12.934 6.56676 12.8168C6.68397 12.6995 6.74982 12.5406 6.74982 12.3748C6.74982 12.2091 6.68397 12.0501 6.56676 11.9329C6.44955 11.8157 6.29058 11.7498 6.12482 11.7498C5.95906 11.7498 5.80009 11.8157 5.68288 11.9329C5.56567 12.0501 5.49982 12.2091 5.49982 12.3748C5.49982 12.5406 5.56567 12.6995 5.68288 12.8168C5.80009 12.934 5.95906 12.9998 6.12482 12.9998ZM6.12482 12.9998V9.93731C7.53876 9.05843 8.99923 8.2567 10.4998 7.53564M4.66065 17.1606C5.12563 16.6968 5.49435 16.1457 5.74562 15.5389C5.99689 14.9321 6.12576 14.2816 6.12482 13.6248V12.3748" stroke="black" stroke-width="1.5" stroke-linecap="round" stroke-linejoin="round"/>
</svg>
