<svg width="21" height="21" viewBox="0 0 21 21" fill="none" xmlns="http://www.w3.org/2000/svg">
<path fill-rule="evenodd" clip-rule="evenodd" d="M10.1788 2.43018C10.2784 2.38025 10.3884 2.35425 10.4998 2.35425C10.6113 2.35425 10.7212 2.38025 10.8208 2.43018C13.6297 3.83766 16.2594 5.57749 18.6532 7.61227C18.7504 7.69485 18.8238 7.80188 18.8659 7.92232C18.9079 8.04275 18.917 8.17222 18.8923 8.29736C18.8676 8.4225 18.8099 8.53876 18.7252 8.63415C18.6405 8.72954 18.5319 8.80059 18.4105 8.83996C15.7489 9.70318 13.2212 10.9349 10.9011 12.4991C10.7826 12.5792 10.6428 12.622 10.4998 12.622C10.3568 12.622 10.217 12.5792 10.0985 12.4991C9.4523 12.0637 8.78939 11.6535 8.11132 11.2695V10.145C8.11132 9.91192 8.22214 9.70269 8.39985 9.57944C9.41619 8.87493 10.4703 8.22651 11.5574 7.63711C11.7218 7.54516 11.8433 7.39222 11.8957 7.21137C11.9482 7.03052 11.9273 6.8363 11.8377 6.6707C11.748 6.50511 11.5968 6.38145 11.4167 6.32648C11.2366 6.27151 11.0421 6.28963 10.8753 6.37694C9.74174 6.99154 8.64265 7.6677 7.58298 8.40239C7.30279 8.59811 7.07414 8.85876 6.91658 9.16206C6.75903 9.46536 6.67724 9.8023 6.67822 10.1441V10.5071C5.35816 9.85105 3.9914 9.29348 2.5891 8.83901C2.46777 8.79963 2.35915 8.72858 2.27447 8.63319C2.18978 8.53781 2.13209 8.42154 2.10735 8.2964C2.08262 8.17127 2.09173 8.0418 2.13376 7.92136C2.17579 7.80093 2.24921 7.69389 2.34643 7.61132C4.74028 5.57653 7.36991 3.83766 10.1788 2.43018ZM6.67822 12.1179C5.91356 11.7138 5.13092 11.3446 4.33271 11.0116C4.17061 11.9982 4.04631 12.9906 3.9601 13.9867C3.94741 14.1312 3.97889 14.2762 4.05037 14.4024C4.12185 14.5287 4.22996 14.6302 4.36041 14.6937C4.86486 14.9383 5.35976 15.2001 5.84511 15.4771C5.64447 15.7867 5.4104 16.079 5.13906 16.3504C5.06866 16.416 5.0122 16.4951 4.97303 16.583C4.93387 16.6709 4.91281 16.7658 4.91111 16.862C4.90942 16.9582 4.92711 17.0537 4.96315 17.143C4.99919 17.2322 5.05283 17.3132 5.12087 17.3813C5.18892 17.4493 5.26997 17.503 5.35919 17.539C5.44841 17.575 5.54398 17.5927 5.64019 17.591C5.73641 17.5893 5.83129 17.5683 5.91919 17.5291C6.00708 17.49 6.08619 17.4335 6.15179 17.3631C6.50529 17.0106 6.81102 16.6274 7.06897 16.2233C8.10797 16.898 9.09626 17.6478 10.0259 18.4666C10.1568 18.582 10.3253 18.6457 10.4998 18.6457C10.6743 18.6457 10.8428 18.582 10.9737 18.4666C12.684 16.9598 14.5897 15.6904 16.6392 14.6928C16.7697 14.6295 16.8779 14.5281 16.9495 14.4021C17.0212 14.276 17.0529 14.1312 17.0405 13.9867C16.9543 12.9906 16.83 11.9982 16.6679 11.0116C14.928 11.7377 13.2642 12.6341 11.7008 13.6877C11.3459 13.9267 10.9277 14.0544 10.4998 14.0544C10.0719 14.0544 9.65377 13.9267 9.29888 13.6877C8.90717 13.4249 8.50972 13.1708 8.10463 12.9262C8.05474 14.0968 7.69755 15.2346 7.06897 16.2233C6.66813 15.9634 6.26001 15.7139 5.84511 15.4771C6.39025 14.6295 6.6795 13.6426 6.67822 12.6348V12.1189V12.1179Z" fill="black"/>
</svg>
