<svg width="21" height="21" viewBox="0 0 21 21" fill="none" xmlns="http://www.w3.org/2000/svg">
<path d="M9.25 5.5H17.375M9.25 5.5C9.25 5.83152 9.1183 6.14946 8.88388 6.38388C8.64946 6.6183 8.33152 6.75 8 6.75C7.66848 6.75 7.35054 6.6183 7.11612 6.38388C6.8817 6.14946 6.75 5.83152 6.75 5.5M9.25 5.5C9.25 5.16848 9.1183 4.85054 8.88388 4.61612C8.64946 4.3817 8.33152 4.25 8 4.25C7.66848 4.25 7.35054 4.3817 7.11612 4.61612C6.8817 4.85054 6.75 5.16848 6.75 5.5M6.75 5.5H3.625M9.25 15.5H17.375M9.25 15.5C9.25 15.8315 9.1183 16.1495 8.88388 16.3839C8.64946 16.6183 8.33152 16.75 8 16.75C7.66848 16.75 7.35054 16.6183 7.11612 16.3839C6.8817 16.1495 6.75 15.8315 6.75 15.5M9.25 15.5C9.25 15.1685 9.1183 14.8505 8.88388 14.6161C8.64946 14.3817 8.33152 14.25 8 14.25C7.66848 14.25 7.35054 14.3817 7.11612 14.6161C6.8817 14.8505 6.75 15.1685 6.75 15.5M6.75 15.5H3.625M14.25 10.5H17.375M14.25 10.5C14.25 10.8315 14.1183 11.1495 13.8839 11.3839C13.6495 11.6183 13.3315 11.75 13 11.75C12.6685 11.75 12.3505 11.6183 12.1161 11.3839C11.8817 11.1495 11.75 10.8315 11.75 10.5M14.25 10.5C14.25 10.1685 14.1183 9.85054 13.8839 9.61612C13.6495 9.3817 13.3315 9.25 13 9.25C12.6685 9.25 12.3505 9.3817 12.1161 9.61612C11.8817 9.85054 11.75 10.1685 11.75 10.5M11.75 10.5H3.625" stroke="black" stroke-width="1.25" stroke-linecap="round" stroke-linejoin="round"/>
</svg>
