<svg width="21" height="21" viewBox="0 0 21 21" fill="none" xmlns="http://www.w3.org/2000/svg">
<path fill-rule="evenodd" clip-rule="evenodd" d="M10.5 18.5C12.6217 18.5 14.6566 17.6571 16.1569 16.1569C17.6571 14.6566 18.5 12.6217 18.5 10.5C18.5 8.37827 17.6571 6.34344 16.1569 4.84315C14.6566 3.34285 12.6217 2.5 10.5 2.5C8.37827 2.5 6.34344 3.34285 4.84315 4.84315C3.34285 6.34344 2.5 8.37827 2.5 10.5C2.5 12.6217 3.34285 14.6566 4.84315 16.1569C6.34344 17.6571 8.37827 18.5 10.5 18.5ZM9.75 13.75C9.75 13.9489 9.82902 14.1397 9.96967 14.2803C10.1103 14.421 10.3011 14.5 10.5 14.5C10.6989 14.5 10.8897 14.421 11.0303 14.2803C11.171 14.1397 11.25 13.9489 11.25 13.75V9.16L13.2 11.26C13.3353 11.4059 13.5229 11.492 13.7217 11.4995C13.9205 11.507 14.1141 11.4353 14.26 11.3C14.4059 11.1647 14.492 10.9771 14.4995 10.7783C14.507 10.5795 14.4353 10.3859 14.3 10.24L11.05 6.74C10.9798 6.66427 10.8947 6.60386 10.8001 6.56254C10.7054 6.52123 10.6033 6.4999 10.5 6.4999C10.3967 6.4999 10.2946 6.52123 10.1999 6.56254C10.1053 6.60386 10.0202 6.66427 9.95 6.74L6.7 10.24C6.63303 10.3122 6.58093 10.3969 6.5467 10.4893C6.51246 10.5817 6.49675 10.6799 6.50047 10.7783C6.50418 10.8767 6.52725 10.9734 6.56835 11.063C6.60944 11.1525 6.66777 11.233 6.74 11.3C6.81223 11.367 6.89694 11.4191 6.9893 11.4533C7.08166 11.4875 7.17985 11.5032 7.27828 11.4995C7.37671 11.4958 7.47345 11.4728 7.56297 11.4317C7.65248 11.3906 7.73303 11.3322 7.8 11.26L9.75 9.16V13.75Z" fill="black"/>
</svg>
