<svg width="21" height="21" viewBox="0 0 21 21" fill="none" xmlns="http://www.w3.org/2000/svg">
<path d="M13.625 8V4.875C13.625 4.37772 13.4275 3.90081 13.0758 3.54917C12.7242 3.19754 12.2473 3 11.75 3H6.75C6.25272 3 5.77581 3.19754 5.42417 3.54917C5.07254 3.90081 4.875 4.37772 4.875 4.875V16.125C4.875 16.6223 5.07254 17.0992 5.42417 17.4508C5.77581 17.8025 6.25272 18 6.75 18H11.75C12.2473 18 12.7242 17.8025 13.0758 17.4508C13.4275 17.0992 13.625 16.6223 13.625 16.125V13M16.125 13L18.625 10.5M18.625 10.5L16.125 8M18.625 10.5H8" stroke="black" stroke-width="1.5" stroke-linecap="round" stroke-linejoin="round"/>
</svg>
