<svg width="17" height="17" viewBox="0 0 17 17" fill="none" xmlns="http://www.w3.org/2000/svg">
<path d="M11.182 6.73196H14.51L12.3894 4.60996C11.7066 3.92721 10.8562 3.43622 9.92347 3.18636C8.99081 2.9365 8.0088 2.93658 7.07617 3.18658C6.14355 3.43657 5.29317 3.92768 4.61053 4.61054C3.92788 5.29339 3.43704 6.14392 3.18733 7.07663M2.48999 13.596V10.268M2.48999 10.268H5.81799M2.48999 10.268L4.60999 12.39C5.29274 13.0727 6.14319 13.5637 7.07585 13.8136C8.00852 14.0634 8.99052 14.0633 9.92315 13.8133C10.8558 13.5633 11.7062 13.0722 12.3888 12.3894C13.0715 11.7065 13.5623 10.856 13.812 9.92329M14.51 3.40396V6.73063" stroke="black" stroke-width="1.5" stroke-linecap="round" stroke-linejoin="round"/>
</svg>
