<svg width="21" height="21" viewBox="0 0 21 21" fill="none" xmlns="http://www.w3.org/2000/svg">
<path fill-rule="evenodd" clip-rule="evenodd" d="M10.5 18.5C12.6217 18.5 14.6566 17.6571 16.1569 16.1569C17.6571 14.6566 18.5 12.6217 18.5 10.5C18.5 8.37827 17.6571 6.34344 16.1569 4.84315C14.6566 3.34285 12.6217 2.5 10.5 2.5C8.37827 2.5 6.34344 3.34285 4.84315 4.84315C3.34285 6.34344 2.5 8.37827 2.5 10.5C2.5 12.6217 3.34285 14.6566 4.84315 16.1569C6.34344 17.6571 8.37827 18.5 10.5 18.5ZM11.25 7.25C11.25 7.05109 11.171 6.86032 11.0303 6.71967C10.8897 6.57902 10.6989 6.5 10.5 6.5C10.3011 6.5 10.1103 6.57902 9.96967 6.71967C9.82902 6.86032 9.75 7.05109 9.75 7.25V11.84L7.8 9.74C7.66474 9.59413 7.47707 9.50797 7.27828 9.50047C7.0795 9.49296 6.88587 9.56474 6.74 9.7C6.59413 9.83526 6.50797 10.0229 6.50047 10.2217C6.49297 10.4205 6.56474 10.6141 6.7 10.76L9.95 14.26C10.0202 14.3357 10.1053 14.3961 10.1999 14.4375C10.2946 14.4788 10.3967 14.5001 10.5 14.5001C10.6033 14.5001 10.7054 14.4788 10.8001 14.4375C10.8947 14.3961 10.9798 14.3357 11.05 14.26L14.3 10.76C14.4353 10.6141 14.507 10.4205 14.4995 10.2217C14.492 10.0229 14.4059 9.83526 14.26 9.7C14.1141 9.56474 13.9205 9.49296 13.7217 9.50047C13.5229 9.50797 13.3353 9.59413 13.2 9.74L11.25 11.84V7.25Z" fill="black"/>
</svg>
