<svg width="21" height="21" viewBox="0 0 21 21" fill="none" xmlns="http://www.w3.org/2000/svg">
<path d="M13.8526 8.28995H18.0126L15.3618 5.63745C14.5084 4.78401 13.4453 4.17028 12.2795 3.85796C11.1137 3.54563 9.88616 3.54572 8.72037 3.85822C7.55459 4.17072 6.49162 4.78461 5.63832 5.63817C4.78501 6.49174 4.17145 7.55491 3.85932 8.72078M2.98765 16.87V12.71M2.98765 12.71H7.14765M2.98765 12.71L5.63765 15.3625C6.49108 16.2159 7.55414 16.8297 8.71997 17.142C9.8858 17.4543 11.1133 17.4542 12.2791 17.1417C13.4449 16.8292 14.5078 16.2153 15.3611 15.3618C16.2145 14.5082 16.828 13.4449 17.1402 12.2792M18.0126 4.12995V8.28828" stroke="black" stroke-width="1.5" stroke-linecap="round" stroke-linejoin="round"/>
</svg>
