<svg width="21" height="21" viewBox="0 0 21 21" fill="none" xmlns="http://www.w3.org/2000/svg">
<path d="M14.25 10.4999C14.25 11.8807 15.0892 12.9999 16.125 12.9999C17.1608 12.9999 18 11.8807 18 10.4999C18 8.76478 17.3983 7.08331 16.2975 5.74201C15.1968 4.40072 13.6649 3.48261 11.9631 3.14411C10.2613 2.80561 8.49475 3.06767 6.96448 3.88563C5.4342 4.70359 4.23489 6.02685 3.57088 7.62994C2.90688 9.23303 2.81926 11.0167 3.32296 12.6772C3.82667 14.3376 4.89053 15.772 6.33327 16.736C7.77601 17.7 9.50837 18.1339 11.2352 17.9639C12.962 17.7938 14.5764 17.0302 15.8033 15.8032M14.25 10.4999V7.37495M14.25 10.4999C14.25 11.4945 13.8549 12.4483 13.1517 13.1516C12.4484 13.8548 11.4946 14.2499 10.5 14.2499C9.50544 14.2499 8.55161 13.8548 7.84835 13.1516C7.14509 12.4483 6.75 11.4945 6.75 10.4999C6.75 9.50539 7.14509 8.55156 7.84835 7.8483C8.55161 7.14504 9.50544 6.74995 10.5 6.74995C11.4946 6.74995 12.4484 7.14504 13.1517 7.8483C13.8549 8.55156 14.25 9.50539 14.25 10.4999Z" stroke="black" stroke-width="1.5" stroke-linecap="round"/>
</svg>
