<svg width="21" height="21" viewBox="0 0 21 21" fill="none" xmlns="http://www.w3.org/2000/svg">
<path d="M12.881 14.735C14.4337 14.5512 15.9592 14.1847 17.426 13.6433C16.1838 12.2673 15.4974 10.4787 15.5002 8.625V8.04167V8C15.5002 6.67392 14.9734 5.40215 14.0357 4.46447C13.098 3.52678 11.8263 3 10.5002 3C9.1741 3 7.90233 3.52678 6.96465 4.46447C6.02697 5.40215 5.50018 6.67392 5.50018 8V8.625C5.5027 10.4789 4.816 12.2675 3.57352 13.6433C5.01768 14.1767 6.54018 14.5475 8.11935 14.735M12.881 14.735C11.2993 14.9226 9.70103 14.9226 8.11935 14.735M12.881 14.735C13.0011 15.1099 13.031 15.5078 12.9682 15.8964C12.9054 16.285 12.7517 16.6533 12.5197 16.9713C12.2876 17.2893 11.9838 17.548 11.6328 17.7263C11.2819 17.9047 10.8938 17.9976 10.5002 17.9976C10.1065 17.9976 9.71845 17.9047 9.36752 17.7263C9.01659 17.548 8.71274 17.2893 8.4807 16.9713C8.24866 16.6533 8.09499 16.285 8.03219 15.8964C7.9694 15.5078 7.99926 15.1099 8.11935 14.735M3.10352 6.75C3.33849 5.35414 3.96501 4.0537 4.91018 3M16.0902 3C17.0354 4.0537 17.6619 5.35414 17.8968 6.75" stroke="black" stroke-width="1.5" stroke-linecap="round" stroke-linejoin="round"/>
</svg>
