<svg width="21" height="21" viewBox="0 0 21 21" fill="none" xmlns="http://www.w3.org/2000/svg">
<path d="M5.37497 3.41669C5.47929 3.29236 5.53116 3.13235 5.51961 2.97047C5.50806 2.80859 5.43399 2.65755 5.31307 2.5493C5.19216 2.44105 5.03388 2.38407 4.87171 2.39042C4.70954 2.39678 4.55621 2.46598 4.44414 2.58336C3.42036 3.72524 2.74183 5.13431 2.48747 6.64669C2.46394 6.8084 2.50469 6.9729 2.60098 7.10493C2.69726 7.23697 2.84144 7.32605 3.0026 7.35308C3.16377 7.3801 3.32911 7.34293 3.4632 7.24952C3.59729 7.15612 3.68946 7.0139 3.71997 6.85335C3.93508 5.57419 4.50901 4.38243 5.37497 3.41669ZM16.5558 2.58336C16.5012 2.52164 16.435 2.47131 16.3609 2.43527C16.2868 2.39924 16.2064 2.37821 16.1241 2.37338C16.0419 2.36856 15.9595 2.38005 15.8817 2.40718C15.8039 2.43431 15.7323 2.47655 15.6709 2.53147C15.6095 2.58639 15.5595 2.65291 15.5239 2.7272C15.4883 2.8015 15.4678 2.88209 15.4634 2.96436C15.4591 3.04663 15.471 3.12895 15.4986 3.20658C15.5262 3.28421 15.5689 3.3556 15.6241 3.41669C16.4904 4.38235 17.0646 5.57412 17.28 6.85335C17.3074 7.0169 17.3986 7.16287 17.5337 7.25914C17.6005 7.3068 17.6761 7.34084 17.7561 7.35929C17.8361 7.37774 17.919 7.38026 18 7.36669C18.081 7.35312 18.1585 7.32373 18.2281 7.2802C18.2977 7.23667 18.3581 7.17986 18.4058 7.113C18.4534 7.04614 18.4875 6.97055 18.5059 6.89054C18.5244 6.81053 18.5269 6.72767 18.5133 6.64669C18.2584 5.13414 17.5801 3.72507 16.5558 2.58336Z" fill="black"/>
<path fill-rule="evenodd" clip-rule="evenodd" d="M10.4999 2.375C9.00801 2.375 7.57727 2.96763 6.52237 4.02252C5.46748 5.07742 4.87485 6.50816 4.87485 8V8.625C4.87741 10.3243 4.24802 11.9639 3.10902 13.225C3.04061 13.3009 2.99186 13.3924 2.96701 13.4915C2.94216 13.5906 2.94198 13.6942 2.96649 13.7934C2.991 13.8926 3.03944 13.9842 3.10758 14.0603C3.17572 14.1365 3.26148 14.1947 3.35735 14.23C4.64402 14.705 5.99068 15.055 7.38318 15.2658C7.35183 15.6943 7.40915 16.1246 7.55157 16.5299C7.69399 16.9352 7.91845 17.3068 8.21093 17.6214C8.5034 17.9361 8.85762 18.1871 9.25144 18.3587C9.64527 18.5303 10.0703 18.6189 10.4999 18.6189C10.9294 18.6189 11.3544 18.5303 11.7483 18.3587C12.1421 18.1871 12.4963 17.9361 12.7888 17.6214C13.0812 17.3068 13.3057 16.9352 13.4481 16.5299C13.5905 16.1246 13.6479 15.6943 13.6165 15.2658C14.9899 15.0576 16.3385 14.7103 17.6415 14.2292C17.7372 14.1938 17.8229 14.1356 17.8909 14.0595C17.9589 13.9835 18.0073 13.8919 18.0318 13.7929C18.0563 13.6938 18.0561 13.5903 18.0314 13.4913C18.0067 13.3923 17.9581 13.3009 17.8898 13.225C16.7511 11.9638 16.1221 10.3242 16.1248 8.625V8C16.1248 6.50816 15.5322 5.07742 14.4773 4.02252C13.4224 2.96763 11.9917 2.375 10.4999 2.375ZM8.62485 15.5C8.62485 15.4717 8.62485 15.4442 8.62652 15.4167C9.87288 15.529 11.1268 15.529 12.3732 15.4167L12.3748 15.5C12.3748 15.9973 12.1773 16.4742 11.8257 16.8258C11.474 17.1775 10.9971 17.375 10.4999 17.375C10.0026 17.375 9.52566 17.1775 9.17402 16.8258C8.82239 16.4742 8.62485 15.9973 8.62485 15.5Z" fill="black"/>
</svg>
