<svg width="20" height="20" viewBox="0 0 20 20" fill="none" xmlns="http://www.w3.org/2000/svg">
<g clip-path="url(#clip0_823_3123)">
<path d="M4 5.5H16V14.5H4V5.5Z" fill="#F7E017"/>
<path d="M4 6.12451V10.1258L16 12.0008V9.87451L4 6.12451Z" fill="white"/>
<path d="M4 8.25049V10.1255L16 13.8755V12.0005L4 8.25049Z" fill="black"/>
<path d="M9.69641 12.6213C9.47701 12.5971 9.26592 12.5236 9.07891 12.4063C9.04891 12.3863 9.02141 12.3688 9.01641 12.3688C9.01141 12.3688 9.00891 12.3926 9.00891 12.4201C9.00891 12.5001 8.97641 12.5401 8.89641 12.5613C8.81891 12.5813 8.70141 12.5413 8.60641 12.4613C8.51632 12.3843 8.41117 12.3268 8.29766 12.2926C8.1794 12.2644 8.05494 12.2804 7.94765 12.3376C7.93705 12.345 7.9252 12.3506 7.91265 12.3538C7.8989 12.3538 7.90015 12.2676 7.91515 12.2413C7.9339 12.2038 7.9789 12.1688 8.03265 12.1501C8.06015 12.1401 8.08265 12.1276 8.08265 12.1213C8.08265 12.1163 8.07265 12.0963 8.0614 12.0763C8.02515 12.0126 8.04015 11.9513 8.1039 11.9026C8.1689 11.8526 8.27891 11.8451 8.37516 11.8813C8.39142 11.8883 8.40812 11.8941 8.42516 11.8988C8.43766 11.8988 8.43016 11.8801 8.39516 11.8288C8.35516 11.7701 8.34641 11.7413 8.35141 11.6701C8.35484 11.6265 8.37372 11.5855 8.40466 11.5546C8.43559 11.5237 8.47654 11.5048 8.52016 11.5013C8.59266 11.4963 8.63766 11.5213 8.74516 11.6226C9.03388 11.9132 9.4131 12.0966 9.82016 12.1426C9.92391 12.1551 10.1302 12.1488 10.2514 12.1301C10.6355 12.066 10.9917 11.8884 11.2739 11.6201C11.3539 11.5451 11.3914 11.5251 11.4577 11.5251C11.5139 11.5251 11.5539 11.5426 11.5952 11.5876C11.6327 11.6288 11.6452 11.6676 11.6402 11.7313C11.6377 11.7713 11.6314 11.7901 11.6077 11.8301C11.5727 11.8863 11.5789 11.8926 11.6477 11.8651C11.7427 11.8276 11.8589 11.8451 11.9214 11.9051C11.9764 11.9576 11.9814 12.0101 11.9389 12.0801C11.9227 12.1063 11.9102 12.1301 11.9102 12.1351C11.9102 12.1426 11.9227 12.1451 11.9789 12.1551C12.0539 12.1676 12.0977 12.2226 12.0977 12.3076C12.0977 12.3326 12.0939 12.3538 12.0902 12.3538C12.0864 12.3538 12.0577 12.3426 12.0277 12.3301C11.9402 12.2938 11.8902 12.2851 11.7877 12.2863C11.7102 12.2863 11.6839 12.2901 11.6302 12.3076C11.5402 12.3389 11.4573 12.3877 11.3864 12.4513C11.3064 12.5226 11.2564 12.5451 11.1789 12.5438C11.1064 12.5438 11.0577 12.5226 11.0314 12.4813C11.0177 12.4588 11.0152 12.4463 11.0189 12.3963C11.0214 12.3638 11.0202 12.3376 11.0189 12.3376C11.0152 12.3376 10.9877 12.3551 10.9564 12.3763C10.8851 12.4275 10.8073 12.4691 10.7252 12.5001C10.3962 12.6193 10.0441 12.6607 9.69641 12.6213Z" fill="#CF1126"/>
<path d="M9.82907 12.0651C9.58727 12.0429 9.35301 11.9693 9.14197 11.8492C8.93092 11.7291 8.74795 11.5654 8.60531 11.3689C8.30031 10.9539 8.20531 10.4051 8.29781 9.90387C8.34781 9.67512 8.44781 9.44637 8.61656 9.28387C8.47744 9.57257 8.43915 9.89959 8.50781 10.2126C8.62031 10.8351 9.14532 11.3614 9.77407 11.4526C10.0241 11.5239 10.2803 11.4476 10.5178 11.3714C11.0428 11.1864 11.4428 10.6889 11.4903 10.1326C11.5316 9.83262 11.4866 9.51887 11.3503 9.24512C11.4278 9.28637 11.5253 9.44762 11.5828 9.55512C11.7828 9.94262 11.7916 10.4064 11.6741 10.8201C11.5141 11.3464 11.1116 11.8076 10.5803 11.9751C10.338 12.0509 10.0837 12.0814 9.83032 12.0651H9.82907Z" fill="#CF1126"/>
<path d="M7.40059 11.3736C7.36934 11.3686 7.33434 11.3998 7.34684 11.4323C7.36934 11.4648 7.40934 11.4823 7.44434 11.4973C7.53656 11.5333 7.63554 11.5487 7.73434 11.5423C7.80682 11.5423 7.87874 11.5297 7.94684 11.5048C7.98434 11.4923 8.03184 11.4798 8.04684 11.4373C8.06309 11.4111 8.03434 11.3836 8.00809 11.3886C7.97059 11.3973 7.93309 11.4136 7.89559 11.4248C7.81316 11.4482 7.72724 11.4566 7.64184 11.4498C7.57969 11.4408 7.5191 11.4231 7.46184 11.3973C7.44184 11.3886 7.42309 11.3761 7.40059 11.3736Z" fill="#CF1126"/>
<path d="M7.43532 11.2436C7.40407 11.2386 7.37657 11.2761 7.38907 11.3061C7.41407 11.3411 7.45532 11.3599 7.49407 11.3761C7.56167 11.4026 7.634 11.415 7.70657 11.4124H7.72532C7.78704 11.4126 7.8482 11.4007 7.90532 11.3774C7.93907 11.3636 7.98157 11.3499 7.99657 11.3124C8.00782 11.2911 7.99907 11.2611 7.97157 11.2586C7.94907 11.2586 7.92782 11.2736 7.90532 11.2799C7.82389 11.3135 7.73562 11.3272 7.64782 11.3199C7.59282 11.3136 7.54157 11.2936 7.49157 11.2699C7.47282 11.2611 7.45657 11.2474 7.43532 11.2449V11.2436Z" fill="#CF1126"/>
<path d="M7.47931 11.1199C7.45181 11.1162 7.43306 11.1474 7.43806 11.1712C7.44181 11.1937 7.46056 11.2087 7.47681 11.2212C7.54488 11.2683 7.62663 11.2916 7.70932 11.2874H7.72932C7.78129 11.2871 7.83253 11.2751 7.87932 11.2524C7.91057 11.2399 7.94682 11.2237 7.95807 11.1874C7.96307 11.1712 7.96557 11.1474 7.94682 11.1374C7.92682 11.1274 7.90807 11.1437 7.89057 11.1499C7.83077 11.1814 7.76436 11.1981 7.69682 11.1987C7.63884 11.1964 7.58244 11.1792 7.53306 11.1487C7.51431 11.1399 7.49931 11.1237 7.47931 11.1199Z" fill="#CF1126"/>
<path d="M7.01914 9.28369C6.97914 9.32494 7.01039 9.39994 7.00664 9.45244C7.02914 9.61744 7.05539 9.78369 7.11664 9.93994C7.19164 10.0899 7.35164 10.1712 7.44789 10.3049C7.48289 10.3687 7.47039 10.4462 7.47789 10.5174C7.48289 10.7087 7.48164 10.9012 7.47789 11.0925C7.56539 11.1375 7.65914 11.18 7.75914 11.1637C7.81789 11.15 7.92789 11.1412 7.94039 11.0825L7.92789 10.0887C7.89414 9.98744 7.79039 9.93494 7.71414 9.86994C7.65041 9.80703 7.5911 9.73979 7.53664 9.66869C7.50414 9.61244 7.37539 9.59369 7.42164 9.68869C7.44914 9.77244 7.51789 9.83369 7.53539 9.92119C7.53914 9.96994 7.59789 10.0587 7.54789 10.0862C7.51709 10.0319 7.47042 9.98825 7.41414 9.96119C7.35914 9.91994 7.26789 9.90244 7.24789 9.82994C7.22988 9.72682 7.18208 9.63122 7.11039 9.55494C7.12914 9.46244 7.11039 9.34619 7.03039 9.28619L7.01914 9.28369Z" fill="#CF1126"/>
<path d="M7.14304 9.30249C7.10554 9.30874 7.10804 9.35499 7.12429 9.37999C7.14282 9.43379 7.14755 9.49139 7.13804 9.54749C7.20659 9.62382 7.25248 9.71776 7.27054 9.81874C7.27054 9.85624 7.31054 9.86874 7.33679 9.88749C7.39804 9.92624 7.46554 9.95499 7.52054 10.0037C7.53179 10.0162 7.54054 10.0287 7.53304 10.0037C7.52429 9.97124 7.52054 9.93624 7.49554 9.91249C7.46054 9.87499 7.41804 9.84249 7.36804 9.83249C7.36429 9.77999 7.33929 9.73249 7.31679 9.68749C7.29179 9.64374 7.26554 9.59749 7.22304 9.56999C7.22304 9.49374 7.22304 9.41374 7.19054 9.34249C7.18054 9.32499 7.16554 9.30374 7.14304 9.30249Z" fill="#CF1126"/>
<path d="M7.24663 9.33228C7.22163 9.33978 7.22663 9.37228 7.23413 9.39103C7.24505 9.4453 7.24925 9.50072 7.24663 9.55603C7.29538 9.59353 7.32413 9.64853 7.35163 9.70103C7.36913 9.73603 7.38413 9.77353 7.39038 9.81228C7.42913 9.82478 7.46288 9.84978 7.49288 9.87478C7.48038 9.83978 7.45538 9.81228 7.43663 9.77853C7.41788 9.74478 7.39913 9.70853 7.39038 9.66978C7.35288 9.63103 7.33288 9.57478 7.34038 9.51978C7.34288 9.46103 7.32413 9.39978 7.28413 9.35478C7.27413 9.34478 7.26163 9.33353 7.24663 9.33228Z" fill="#CF1126"/>
<path d="M7.36536 9.34994C7.35036 9.35244 7.34286 9.36494 7.33536 9.37619C7.33161 9.38744 7.34536 9.39869 7.34786 9.41119C7.36419 9.45245 7.3702 9.49708 7.36536 9.54119C7.36411 9.57244 7.37536 9.60369 7.39036 9.62869C7.39317 9.61907 7.39888 9.61054 7.40671 9.60428C7.41453 9.59802 7.4241 9.59432 7.43411 9.59369C7.44036 9.59369 7.45161 9.59619 7.44661 9.58494C7.44161 9.52494 7.43286 9.46494 7.41161 9.40994C7.40545 9.38828 7.39332 9.36879 7.37661 9.35369C7.37411 9.35119 7.36911 9.34869 7.36411 9.34994H7.36536Z" fill="#CF1126"/>
<path d="M12.5999 11.3736C12.6312 11.3686 12.6662 11.3998 12.6537 11.4323C12.6312 11.4648 12.5912 11.4823 12.5562 11.4973C12.4639 11.5333 12.3649 11.5487 12.2661 11.5423C12.1937 11.5423 12.1217 11.5297 12.0536 11.5048C12.0161 11.4923 11.9686 11.4798 11.9536 11.4373C11.9374 11.4111 11.9661 11.3836 11.9924 11.3886C12.0299 11.3973 12.0674 11.4136 12.1049 11.4248C12.1873 11.4482 12.2733 11.4566 12.3587 11.4498C12.4208 11.4408 12.4814 11.4231 12.5387 11.3973C12.5587 11.3886 12.5774 11.3761 12.5999 11.3736Z" fill="#CF1126"/>
<path d="M12.5652 11.2436C12.5964 11.2386 12.6239 11.2761 12.6114 11.3061C12.5864 11.3411 12.5452 11.3599 12.5064 11.3761C12.4388 11.4026 12.3665 11.415 12.2939 11.4124H12.2752C12.2134 11.4126 12.1523 11.4007 12.0952 11.3774C12.0614 11.3636 12.0189 11.3499 12.0039 11.3124C11.9927 11.2911 12.0014 11.2611 12.0289 11.2586C12.0514 11.2586 12.0727 11.2736 12.0952 11.2799C12.1766 11.3135 12.2649 11.3272 12.3527 11.3199C12.4077 11.3136 12.4589 11.2936 12.5089 11.2699C12.5277 11.2611 12.5439 11.2474 12.5652 11.2449V11.2436Z" fill="#CF1126"/>
<path d="M12.5214 11.1199C12.5489 11.1162 12.5677 11.1474 12.5627 11.1712C12.5589 11.1937 12.5402 11.2087 12.5239 11.2212C12.4559 11.2683 12.3741 11.2916 12.2914 11.2874H12.2714C12.2194 11.2871 12.1682 11.2751 12.1214 11.2524C12.0902 11.2399 12.0539 11.2237 12.0427 11.1874C12.0377 11.1712 12.0352 11.1474 12.0539 11.1374C12.0739 11.1274 12.0927 11.1437 12.1102 11.1499C12.17 11.1814 12.2364 11.1981 12.3039 11.1987C12.3619 11.1964 12.4183 11.1792 12.4677 11.1487C12.4864 11.1399 12.5014 11.1237 12.5214 11.1199Z" fill="#CF1126"/>
<path d="M12.9814 9.28369C13.0214 9.32494 12.9901 9.39994 12.9939 9.45244C12.9714 9.61744 12.9451 9.78369 12.8839 9.93994C12.8089 10.0899 12.6489 10.1712 12.5526 10.3049C12.5176 10.3687 12.5301 10.4462 12.5226 10.5174C12.5176 10.7087 12.5189 10.9012 12.5226 11.0925C12.4351 11.1375 12.3413 11.18 12.2413 11.1637C12.1826 11.15 12.0726 11.1412 12.0601 11.0825L12.0726 10.0887C12.1063 9.98744 12.2101 9.93494 12.2863 9.86994C12.3501 9.80703 12.4094 9.73979 12.4639 9.66869C12.4964 9.61244 12.6251 9.59369 12.5789 9.68869C12.5514 9.77244 12.4826 9.83369 12.4651 9.92119C12.4614 9.96994 12.4026 10.0587 12.4526 10.0862C12.4834 10.0319 12.5301 9.98825 12.5864 9.96119C12.6414 9.91994 12.7326 9.90244 12.7526 9.82994C12.7706 9.72682 12.8184 9.63122 12.8901 9.55494C12.8714 9.46244 12.8901 9.34619 12.9701 9.28619L12.9814 9.28369Z" fill="#CF1126"/>
<path d="M12.8574 9.30249C12.8949 9.30874 12.8924 9.35499 12.8762 9.37999C12.8577 9.43379 12.8529 9.49139 12.8624 9.54749C12.7939 9.62382 12.748 9.71776 12.7299 9.81874C12.7299 9.85624 12.6899 9.86874 12.6637 9.88749C12.6024 9.92624 12.5349 9.95499 12.4799 10.0037C12.4687 10.0162 12.4599 10.0287 12.4674 10.0037C12.4762 9.97124 12.4799 9.93624 12.5049 9.91249C12.5399 9.87499 12.5824 9.84249 12.6324 9.83249C12.6362 9.77999 12.6612 9.73249 12.6837 9.68749C12.7087 9.64374 12.7349 9.59749 12.7774 9.56999C12.7774 9.49374 12.7774 9.41374 12.8099 9.34249C12.8199 9.32499 12.8349 9.30374 12.8574 9.30249Z" fill="#CF1126"/>
<path d="M12.7539 9.33228C12.7789 9.33978 12.7739 9.37228 12.7664 9.39103C12.7554 9.4453 12.7512 9.50072 12.7539 9.55603C12.7051 9.59353 12.6764 9.64853 12.6489 9.70103C12.6314 9.73603 12.6164 9.77353 12.6101 9.81228C12.5714 9.82478 12.5376 9.84978 12.5076 9.87478C12.5201 9.83978 12.5451 9.81228 12.5639 9.77853C12.5826 9.74478 12.6014 9.70853 12.6101 9.66978C12.6476 9.63103 12.6676 9.57478 12.6601 9.51978C12.6576 9.46103 12.6764 9.39978 12.7164 9.35478C12.7264 9.34478 12.7389 9.33353 12.7539 9.33228Z" fill="#CF1126"/>
<path d="M12.6351 9.34994C12.6501 9.35244 12.6576 9.36494 12.6651 9.37619C12.6689 9.38744 12.6551 9.39869 12.6526 9.41119C12.6363 9.45245 12.6303 9.49708 12.6351 9.54119C12.6364 9.57244 12.6251 9.60369 12.6101 9.62869C12.6073 9.61907 12.6016 9.61054 12.5938 9.60428C12.586 9.59802 12.5764 9.59432 12.5664 9.59369C12.5601 9.59369 12.5489 9.59619 12.5539 9.58494C12.5589 9.52494 12.5676 9.46494 12.5889 9.40994C12.595 9.38828 12.6072 9.36879 12.6239 9.35369C12.6264 9.35119 12.6314 9.34869 12.6364 9.34994H12.6351Z" fill="#CF1126"/>
<path d="M9.94651 11.4501C9.86208 11.441 9.78202 11.4079 9.71579 11.3547C9.64957 11.3016 9.59993 11.2306 9.57275 11.1501C9.5765 11.1226 9.61025 11.1651 9.6265 11.1689C9.65699 11.187 9.69116 11.1982 9.7265 11.2014C9.77025 11.2201 9.79776 11.2639 9.84026 11.2876C9.86026 11.3026 9.93026 11.3326 9.91651 11.2839C9.90026 11.2589 9.88901 11.2264 9.90401 11.1964C9.92651 11.1451 9.96276 11.1001 10.0003 11.0564C10.0265 11.0476 10.0453 11.1014 10.064 11.1189C10.0903 11.1601 10.1228 11.2101 10.1065 11.2601C10.0915 11.2789 10.0815 11.3351 10.1228 11.3176C10.1728 11.2951 10.214 11.2576 10.2553 11.2226C10.2928 11.1976 10.339 11.1964 10.3765 11.1726C10.3953 11.1689 10.4315 11.1339 10.439 11.1526C10.4166 11.2085 10.3854 11.2604 10.3465 11.3064C10.2864 11.3777 10.2033 11.4259 10.1115 11.4426C10.0565 11.4526 10.0015 11.4551 9.94651 11.4501Z" fill="#CF1126"/>
<path d="M10.1439 11.2524C10.1477 11.2187 10.1402 11.1849 10.1227 11.1524C10.0964 11.0999 10.0602 11.0524 10.0227 11.0037C9.98765 10.9837 9.9689 11.0499 9.9464 11.0687C9.91015 11.1224 9.86515 11.1774 9.86265 11.2437C9.84265 11.2749 9.80515 11.2187 9.7889 11.1999C9.75559 11.1571 9.73794 11.1042 9.7389 11.0499C9.73588 10.9619 9.7512 10.8742 9.7839 10.7924C9.8089 10.7224 9.84765 10.6549 9.8439 10.5799C9.8464 10.5212 9.83515 10.4587 9.7889 10.4199C9.7439 10.3849 9.81765 10.3774 9.84015 10.3949C9.88015 10.3987 9.9014 10.4637 9.93765 10.4474C9.9514 10.4137 9.95515 10.3724 9.98515 10.3462C10.0139 10.3062 10.0439 10.3624 10.0539 10.3899C10.0752 10.4124 10.0539 10.4712 10.0864 10.4724C10.1264 10.4437 10.1552 10.3974 10.2064 10.3862C10.2277 10.3737 10.2627 10.3862 10.2352 10.4087C10.1977 10.4449 10.1652 10.4887 10.1577 10.5424C10.1464 10.6087 10.1627 10.6762 10.1914 10.7349C10.2477 10.8524 10.2914 10.9849 10.2627 11.1162C10.2502 11.1737 10.2102 11.2237 10.1627 11.2574C10.1564 11.2612 10.1464 11.2612 10.1439 11.2524Z" fill="#CF1126"/>
<path d="M10.0841 10.3702C10.0672 10.3363 10.0434 10.3065 10.0141 10.2827C9.98405 10.2827 9.9653 10.3202 9.9453 10.3402C9.93155 10.3664 9.91405 10.4102 9.87905 10.3764C9.8228 10.3439 9.81405 10.2727 9.81405 10.2139C9.8103 10.1189 9.84905 10.0302 9.8828 9.94392C9.90405 9.89017 9.89905 9.82892 9.8853 9.77392C9.86905 9.71142 9.8178 9.66642 9.77905 9.61642C9.78155 9.59767 9.83155 9.60767 9.8503 9.61142C9.8928 9.62267 9.9178 9.65892 9.94905 9.68642C9.97155 9.67892 9.96155 9.63392 9.9728 9.61267C9.9728 9.58267 10.0128 9.54392 10.0291 9.58642C10.0541 9.61392 10.0291 9.66767 10.0603 9.68392C10.0903 9.67267 10.1053 9.64017 10.1328 9.62517C10.1472 9.61587 10.1637 9.61042 10.1807 9.60933C10.1978 9.60823 10.2149 9.61153 10.2303 9.61892C10.2416 9.64642 10.1978 9.66892 10.1853 9.69392C10.1603 9.72508 10.143 9.76168 10.1348 9.80076C10.1265 9.83984 10.1275 9.88032 10.1378 9.91892C10.1553 9.98142 10.1853 10.0377 10.1966 10.1002C10.2101 10.1714 10.2079 10.2448 10.1903 10.3152C10.1791 10.3577 10.1428 10.3852 10.1053 10.4027C10.0953 10.3939 10.0903 10.3814 10.0841 10.3702Z" fill="#CF1126"/>
<path d="M9.89535 9.58639C9.85285 9.55514 9.8391 9.52639 9.8391 9.46764C9.8391 9.43888 9.84535 9.42264 9.8641 9.39513C9.8941 9.35513 9.8891 9.34263 9.84785 9.35388C9.7816 9.37263 9.75035 9.35638 9.74785 9.30013C9.74785 9.27263 9.75285 9.26138 9.7891 9.21638C9.8191 9.18138 9.83035 9.16263 9.8241 9.15638C9.81785 9.15138 9.78285 9.18138 9.7116 9.25388C9.66692 9.30099 9.61933 9.34525 9.5691 9.38638C9.4466 9.46889 9.3291 9.48139 9.27535 9.41763C9.24785 9.38513 9.2491 9.36763 9.28035 9.34763C9.30025 9.33419 9.31869 9.31869 9.33535 9.30138C9.39661 9.24545 9.46415 9.19679 9.5366 9.15638C9.5816 9.13388 9.5916 9.11888 9.56285 9.11888C9.52535 9.11888 9.4066 9.19638 9.31535 9.27888C9.2891 9.30388 9.25035 9.33138 9.23035 9.34138C9.17473 9.36167 9.11455 9.366 9.0566 9.35388C9.0291 9.34513 8.97785 9.29763 8.97785 9.28013C8.97785 9.27638 8.99035 9.26638 9.00285 9.25763C9.02322 9.24612 9.04247 9.23273 9.06035 9.21763C9.13285 9.15513 9.27035 9.08888 9.3791 9.06513C9.4141 9.05888 9.40035 9.04013 9.3616 9.04263C9.24686 9.06455 9.13943 9.11482 9.0491 9.18888C8.94535 9.27513 8.78909 9.26638 8.73909 9.17263C8.73034 9.15638 8.72409 9.14138 8.72659 9.13888C8.81514 9.11653 8.90073 9.08381 8.9816 9.04138C9.05124 9.00033 9.128 8.97277 9.20785 8.96013C9.24285 8.95388 9.24535 8.93638 9.2116 8.93263C9.1666 8.92763 9.0991 8.95013 8.98035 9.00763C8.8266 9.08388 8.78285 9.09763 8.70284 9.09263C8.62784 9.08763 8.58659 9.06888 8.52784 9.01263C8.48784 8.97513 8.43284 8.88138 8.44284 8.87013C8.50774 8.88378 8.57409 8.88924 8.64034 8.88638C8.74409 8.88638 8.77285 8.88388 8.82785 8.86763C8.93529 8.83358 9.03658 8.78252 9.12785 8.71638C9.25651 8.60754 9.41933 8.54737 9.58785 8.54638C9.74285 8.54638 9.84035 8.58138 9.92785 8.67013C9.95785 8.70013 9.98285 8.71888 9.9866 8.71513C9.99035 8.71138 9.9941 8.65888 9.99535 8.59888C9.99535 8.59888 10.0416 8.59388 10.0516 8.60763C10.0516 8.70388 10.0516 8.71263 10.0666 8.71263C10.0754 8.71263 10.0854 8.70263 10.0916 8.68763C10.1041 8.65638 10.1541 8.61263 10.2066 8.58513C10.3191 8.52888 10.5154 8.52638 10.6729 8.58138C10.7482 8.60995 10.8186 8.65001 10.8816 8.70013C10.9736 8.76481 11.0747 8.81537 11.1816 8.85013C11.2666 8.87513 11.4191 8.88138 11.4954 8.86263C11.5177 8.85747 11.5402 8.8533 11.5629 8.85013C11.5916 8.85013 11.5429 8.94513 11.4854 9.00138C11.3804 9.10388 11.2441 9.10263 11.0529 9.00013C10.9329 8.93513 10.7904 8.90013 10.7904 8.93513C10.7904 8.94263 10.7979 8.94763 10.8091 8.94763C10.8504 8.94763 10.9304 8.97513 11.0429 9.02888C11.1135 9.06964 11.1911 9.09718 11.2716 9.11013C11.3004 9.11013 11.3016 9.12888 11.2741 9.16888C11.2454 9.21138 11.1966 9.23138 11.1279 9.23138C11.0616 9.23138 11.0241 9.21763 10.9654 9.16888C10.8654 9.08638 10.6204 8.99388 10.6291 9.04388C10.6316 9.05263 10.6429 9.05888 10.6691 9.06263C10.7747 9.08557 10.8735 9.13263 10.9579 9.20013L11.0316 9.25388C11.0454 9.26138 11.0454 9.26388 11.0341 9.28513C11.0166 9.32013 10.9691 9.34638 10.9191 9.35138C10.8541 9.35888 10.7966 9.33888 10.7379 9.28888C10.6129 9.18513 10.4966 9.11013 10.4591 9.11013C10.4279 9.11013 10.4416 9.12763 10.4966 9.15638C10.5678 9.19407 10.6341 9.24024 10.6941 9.29388C10.7191 9.31763 10.7479 9.34013 10.7566 9.34513C10.7804 9.35763 10.7791 9.37513 10.7541 9.40763C10.7291 9.44014 10.6866 9.45514 10.6329 9.44889C10.5254 9.43763 10.4404 9.38638 10.3079 9.24888C10.2763 9.2137 10.2421 9.18109 10.2054 9.15138C10.1879 9.15138 10.1991 9.17513 10.2329 9.21388C10.2754 9.26013 10.2829 9.28638 10.2666 9.32638C10.2529 9.35888 10.2291 9.36763 10.1816 9.35388C10.1316 9.34138 10.1241 9.35388 10.1566 9.39263C10.2041 9.45389 10.1979 9.52639 10.1379 9.57764C10.1254 9.58959 10.1111 9.59931 10.0954 9.60639C10.0904 9.60639 10.0779 9.59389 10.0666 9.57639C10.0291 9.51889 9.99535 9.51889 9.95785 9.57639C9.94994 9.58916 9.9416 9.60167 9.93285 9.61389C9.9202 9.60493 9.9077 9.59576 9.89535 9.58639Z" fill="#CF1126"/>
<path d="M10.0842 8.4126L10.0192 8.4626L9.96167 8.4201V8.7676H10.0842V8.4126Z" fill="#CF1126"/>
<path d="M9.68648 8.05386C9.67511 8.19439 9.63692 8.33145 9.57397 8.45761L9.71272 8.32886L9.80898 8.44386L9.91398 8.32636L10.0202 8.42636L10.1227 8.32261L10.229 8.44761L10.3215 8.34511L10.479 8.45761C10.4215 8.33261 10.3452 8.22511 10.354 8.04761C10.2027 8.16011 9.84148 8.18011 9.68648 8.05261V8.05386Z" fill="#CF1126"/>
<path d="M9.963 7.97C9.90675 7.97 9.848 7.97125 9.7955 7.9825C9.76073 7.98803 9.72751 8.00081 9.698 8.02C9.70175 8.1275 10.2105 8.17125 10.3468 8.0225C10.3161 8.00128 10.2811 7.98718 10.2443 7.98125C10.1943 7.97125 10.1368 7.97125 10.083 7.96875V8.0575H9.963V7.97Z" fill="#CF1126"/>
<path d="M10.0614 7.42505H9.98267V8.04255H10.0627L10.0614 7.42505Z" fill="#CF1126"/>
<path d="M10.0615 7.44002L10.0315 7.73627L10.3353 7.88502L10.1815 7.67877L10.3915 7.61002L10.0615 7.44002ZM10.0278 7.36377C9.9815 7.36377 9.94775 7.38127 9.94775 7.40127C9.94775 7.42127 9.9815 7.43877 10.0278 7.43877C10.074 7.43877 10.1078 7.42127 10.1078 7.40127C10.1078 7.38127 10.074 7.36377 10.0278 7.36377Z" fill="#CF1126"/>
<path d="M9.88758 12.5481C9.9382 12.5312 9.96633 12.5012 9.98695 12.4431C9.99633 12.4131 10.0038 12.3831 10.002 12.3756C9.9982 12.3568 9.9757 12.3568 9.9532 12.3774C9.93633 12.3906 9.93445 12.3981 9.9382 12.4262C9.95133 12.4956 9.92508 12.5143 9.79383 12.5274C9.7807 12.5274 9.74133 12.5274 9.70945 12.5218C9.6457 12.5143 9.6232 12.5218 9.6457 12.5406C9.65782 12.5483 9.67112 12.554 9.68508 12.5574C9.7207 12.5668 9.85008 12.5612 9.88758 12.5481ZM10.1632 12.5368C10.1707 12.5293 10.1951 12.5181 10.2195 12.5087C10.2513 12.4993 10.2682 12.4899 10.2813 12.4674C10.3207 12.4112 10.3132 12.3606 10.257 12.2931C10.2251 12.2556 10.212 12.2574 10.1876 12.2987C10.1651 12.3324 10.167 12.3362 10.197 12.3437C10.2138 12.3474 10.2288 12.3587 10.2363 12.3737C10.2701 12.4318 10.2607 12.4674 10.2101 12.4674C10.1651 12.4674 10.1538 12.4749 10.1407 12.5049L10.1295 12.5406C10.1295 12.5518 10.1482 12.5499 10.1632 12.5368ZM10.0732 12.4712C10.0807 12.4468 10.0845 12.4056 10.0826 12.3212C10.0846 12.2811 10.0827 12.2409 10.077 12.2012C10.0695 12.1937 10.0338 12.2162 10.0282 12.2331C10.0263 12.2469 10.0297 12.2609 10.0376 12.2724C10.0488 12.2949 10.0507 12.3174 10.047 12.4037C10.0413 12.5162 10.0488 12.5349 10.0732 12.4712Z" fill="#F7E017"/>
<path d="M9.86163 12.4187L9.87475 12.3249C9.87663 12.2931 9.88413 12.2537 9.88788 12.2368C9.901 12.1937 9.88788 12.1824 9.85413 12.2068L9.82975 12.2256L9.8335 12.2874C9.83913 12.3437 9.82975 12.4468 9.81663 12.4881C9.81288 12.4993 9.8185 12.4956 9.8335 12.4787C9.84475 12.4656 9.85788 12.4374 9.86163 12.4168V12.4187ZM9.67413 12.4487C9.71913 12.4112 9.7135 12.3437 9.72475 12.2912C9.72475 12.2556 9.74725 12.2143 9.73225 12.1824C9.68913 12.1899 9.66288 12.2312 9.68538 12.2706C9.68538 12.3174 9.68538 12.3681 9.661 12.4093C9.64225 12.4374 9.5785 12.4299 9.58225 12.3906C9.59725 12.3343 9.52788 12.3624 9.50163 12.3774C9.481 12.3924 9.436 12.3943 9.45288 12.3587C9.44163 12.3081 9.37975 12.3399 9.346 12.3399C9.31413 12.3399 9.34413 12.2743 9.29725 12.2837C9.21288 12.2781 9.11913 12.2856 9.04413 12.2349C9.001 12.2143 9.00663 12.1618 9.031 12.1281C9.05725 12.0831 9.06475 12.0249 9.106 11.9893C9.14913 11.9499 9.0685 11.9668 9.04975 11.9799C9.0085 12.0024 9.046 12.0606 9.01225 12.0924C8.9935 12.1262 8.96725 12.1712 8.92225 12.1656C8.85663 12.1524 8.81913 12.0906 8.77225 12.0531C8.731 12.0437 8.7535 12.1168 8.776 12.1318C8.81757 12.1629 8.86465 12.1858 8.91475 12.1993C8.9635 12.1899 8.96538 12.2556 9.0085 12.2649C9.0835 12.3024 9.16975 12.3118 9.25413 12.3174C9.28788 12.3193 9.26913 12.3793 9.31225 12.3662C9.33663 12.3737 9.39288 12.3568 9.39475 12.3849C9.35725 12.4299 9.43038 12.4281 9.45663 12.4224C9.49225 12.4149 9.53538 12.4037 9.54475 12.4487C9.57288 12.4806 9.62538 12.4749 9.661 12.4581L9.67413 12.4487Z" fill="#F7E017"/>
<path d="M8.92784 12.0699C8.94546 12.0452 8.96054 12.0189 8.97284 11.9912C8.98238 11.9671 8.99498 11.9444 9.01034 11.9237C9.03284 11.9012 9.01971 11.8862 8.98409 11.8937C8.96534 11.8974 8.95784 11.9049 8.95596 11.9218C8.94756 11.9678 8.93172 12.0121 8.90909 12.053C8.87721 12.0999 8.87721 12.1018 8.89034 12.1018C8.89596 12.1018 8.91284 12.0868 8.92784 12.0699ZM8.45909 11.7755C8.42346 11.7755 8.42159 11.798 8.45534 11.8093C8.47409 11.8149 8.48721 11.828 8.49846 11.8524C8.53034 11.918 8.55096 11.9312 8.63909 11.9387L8.69534 11.9424L8.69909 11.978C8.69909 11.9968 8.70471 12.0118 8.70846 12.0118L8.75721 11.993C8.79846 11.9705 8.83784 11.9218 8.83784 11.8899C8.83784 11.8712 8.80409 11.8487 8.77409 11.8487C8.76096 11.8487 8.73659 11.8599 8.71596 11.8749C8.65221 11.9199 8.58471 11.9124 8.54721 11.8524C8.51909 11.8037 8.48721 11.7774 8.45909 11.7774V11.7755ZM8.76471 11.8974C8.78159 11.8974 8.78346 11.9105 8.77596 11.9349C8.77481 11.9382 8.77266 11.9411 8.7698 11.9431C8.76694 11.9451 8.76353 11.9462 8.76002 11.9462C8.75652 11.9462 8.7531 11.9451 8.75025 11.9431C8.74739 11.9411 8.74524 11.9382 8.74409 11.9349C8.73659 11.9162 8.74596 11.8974 8.76284 11.8974H8.76471ZM11.1366 11.8224C11.1122 11.8224 11.1066 11.8262 11.0916 11.8487C11.0672 11.8843 11.0653 11.9612 11.0878 11.9874C11.101 12.0043 11.1028 12.0043 11.131 11.9912C11.1722 11.9743 11.1797 11.9762 11.1778 11.9968C11.1778 12.053 11.0991 12.1599 11.0166 12.2162C10.9997 12.2261 10.9845 12.2388 10.9716 12.2537C10.966 12.2687 10.996 12.2668 11.0335 12.2462C11.0956 12.2105 11.1468 12.1587 11.1816 12.0962C11.2022 12.053 11.206 12.0399 11.2097 11.9649C11.2097 11.8937 11.2097 11.8712 11.1985 11.8487C11.1835 11.8224 11.1797 11.8205 11.146 11.8205H11.1366V11.8224ZM11.1385 11.8693C11.1572 11.8693 11.1572 11.873 11.161 11.8993C11.161 11.918 11.1591 11.9312 11.1478 11.9424C11.1328 11.9555 11.1291 11.9555 11.1178 11.9349C11.0991 11.9049 11.1103 11.8693 11.1385 11.8693ZM10.7597 12.4037C10.8328 12.3662 10.876 12.3268 10.9022 12.2687C10.912 12.25 10.9201 12.2306 10.9266 12.2105C10.9266 12.1993 10.891 12.1824 10.8703 12.1824C10.8497 12.1824 10.8441 12.1674 10.8516 12.1262C10.861 12.0868 10.8516 12.0362 10.8328 12.0362C10.8272 12.0362 10.8141 12.0455 10.8085 12.0568C10.7972 12.0755 10.7953 12.083 10.8047 12.1074C10.8178 12.1449 10.8066 12.1749 10.7728 12.1993C10.756 12.2105 10.7485 12.2237 10.7485 12.2368L10.7503 12.2555L10.7897 12.2368L10.8272 12.2143L10.8478 12.233C10.861 12.2405 10.8703 12.2555 10.8703 12.2649C10.8703 12.3099 10.7428 12.3849 10.6566 12.3924C10.6097 12.3962 10.6003 12.3924 10.5853 12.3774C10.5722 12.3643 10.5685 12.353 10.5722 12.3399L10.5816 12.2912C10.5891 12.2518 10.5741 12.2574 10.5441 12.3024C10.5216 12.3399 10.5141 12.3793 10.5272 12.3999C10.5385 12.4187 10.6097 12.4337 10.6622 12.4299C10.6941 12.4299 10.726 12.4205 10.7597 12.4037ZM11.2472 12.1318C11.2922 12.0849 11.3128 12.0287 11.3128 11.9443V11.8787L11.3503 11.8599C11.401 11.8374 11.4478 11.7905 11.4478 11.7643C11.4478 11.738 11.4347 11.738 11.4141 11.768C11.3972 11.7887 11.3766 11.8018 11.3016 11.8374C11.2828 11.8449 11.281 11.8505 11.2753 11.9312C11.2716 12.0249 11.2566 12.0587 11.206 12.1224C11.1741 12.1599 11.1722 12.1674 11.1947 12.1674C11.2041 12.1674 11.2285 12.1505 11.2472 12.1299V12.1318ZM10.7466 12.0793C10.7503 12.0662 10.7241 12.0568 10.7147 12.068C10.7091 12.0718 10.7072 12.0793 10.711 12.0849C10.7185 12.0962 10.741 12.0924 10.7466 12.0793ZM11.4366 11.9012C11.4422 11.8862 11.416 11.8768 11.4047 11.888C11.401 11.8937 11.3991 11.9012 11.4028 11.9068C11.4103 11.918 11.4328 11.9143 11.4366 11.9012ZM10.606 11.4155C10.5872 11.4249 10.5778 11.4437 10.5666 11.4587C10.5572 11.4643 10.5647 11.4699 10.5685 11.4774C10.6003 11.5093 10.6135 11.5562 10.6285 11.5993C10.6435 11.6499 10.6622 11.7043 10.6472 11.7568C10.6416 11.7755 10.6247 11.7962 10.6022 11.7905C10.5647 11.7887 10.5272 11.7774 10.4897 11.7774C10.4541 11.7793 10.4278 11.8112 10.3941 11.8074C10.3716 11.8074 10.3716 11.7624 10.3528 11.7755C10.3416 11.7999 10.3472 11.8262 10.3453 11.8505C10.3491 11.8562 10.3603 11.8524 10.366 11.8543H10.4353C10.4391 11.8768 10.4391 11.9049 10.4541 11.9237C10.4785 11.9312 10.5066 11.9237 10.5291 11.9143C10.5516 11.903 10.5553 11.8749 10.5628 11.8524C10.5703 11.828 10.6003 11.8337 10.6191 11.8243C10.6416 11.8173 10.6612 11.803 10.6748 11.7836C10.6884 11.7643 10.6952 11.741 10.6941 11.7174C10.6903 11.6443 10.6641 11.5787 10.6416 11.5112C10.6322 11.4812 10.6247 11.4493 10.6135 11.4193L10.606 11.4155ZM10.4935 11.8243C10.5178 11.8243 10.5291 11.8543 10.5235 11.8749C10.5141 11.903 10.4785 11.8862 10.4728 11.8655C10.4597 11.8468 10.4672 11.8224 10.4916 11.8243H10.4935Z" fill="#F7E017"/>
<path d="M9.55044 11.5898C9.53919 11.5898 9.52606 11.5936 9.51294 11.603C9.44731 11.6498 9.42856 11.7042 9.47544 11.7267C9.50731 11.7417 9.49981 11.7605 9.44731 11.7867C9.37231 11.8242 9.30669 11.8186 9.18106 11.768C9.15106 11.7548 9.14356 11.7605 9.14919 11.7867C9.15669 11.8148 9.18294 11.8298 9.24481 11.843C9.31231 11.8617 9.39481 11.8561 9.44731 11.8336C9.47812 11.8179 9.50552 11.7962 9.52794 11.7698L9.56919 11.7267L9.61606 11.7323C9.67419 11.7398 9.67606 11.7398 9.67606 11.768C9.67606 11.7905 9.67606 11.7905 9.73044 11.7961L9.81856 11.7998C9.84294 11.7998 9.85606 11.8055 9.86356 11.8167C9.87481 11.8298 9.88044 11.8317 9.96856 11.8242C10.0511 11.8167 10.0661 11.8167 10.1036 11.8298C10.1298 11.8373 10.1598 11.8411 10.1804 11.8392C10.2442 11.8317 10.3304 11.7811 10.3436 11.7436C10.3436 11.738 10.3679 11.7305 10.3942 11.7248C10.4579 11.7117 10.4598 11.6986 10.4017 11.6911C10.3723 11.6872 10.3434 11.6803 10.3154 11.6705C10.2945 11.6616 10.2724 11.6559 10.2498 11.6536C10.2179 11.6536 10.1879 11.6723 10.1879 11.6948C10.1879 11.708 10.1917 11.7098 10.2311 11.7061C10.2648 11.7023 10.2761 11.7042 10.2948 11.7192C10.3079 11.7286 10.3154 11.7398 10.3136 11.7436C10.3042 11.7586 10.2292 11.7923 10.1973 11.798C10.178 11.8012 10.1583 11.7979 10.1411 11.7886C10.1111 11.7736 10.0698 11.7717 10.0604 11.7848C10.0567 11.7905 10.0492 11.7867 10.0361 11.7755L10.0173 11.7567L9.97231 11.7755C9.92731 11.7942 9.91044 11.7942 9.91044 11.7717C9.91044 11.7623 9.89731 11.7605 9.83169 11.7661C9.75856 11.7698 9.75106 11.768 9.73794 11.753C9.72481 11.7398 9.72481 11.7342 9.73419 11.7211C9.74169 11.7061 9.74169 11.7023 9.73419 11.693C9.72669 11.6855 9.71544 11.6855 9.68731 11.693C9.61419 11.7117 9.59356 11.7023 9.59356 11.6461C9.59356 11.6105 9.57481 11.5898 9.55044 11.5898ZM9.53169 11.6423C9.53544 11.6423 9.53919 11.6442 9.54481 11.6498C9.55044 11.6555 9.55419 11.6686 9.55044 11.6742C9.54481 11.6911 9.51294 11.6911 9.50731 11.6742C9.50356 11.6648 9.50731 11.6555 9.51669 11.6498L9.53169 11.6423Z" fill="#F7E017"/>
<path d="M9.40035 11.6949C9.44535 11.6668 9.44535 11.6686 9.45097 11.5918C9.45472 11.5355 9.45472 11.5318 9.43972 11.5318C9.41722 11.5318 9.40597 11.5561 9.40597 11.6011C9.40597 11.6311 9.40222 11.6443 9.38722 11.6574C9.34972 11.6949 9.25972 11.678 9.2466 11.633C9.24285 11.618 9.24847 11.603 9.26722 11.5768C9.3066 11.5205 9.2991 11.5055 9.24847 11.5486C9.2166 11.5786 9.21097 11.5786 9.2166 11.5543C9.22222 11.5299 9.21097 11.5205 9.18285 11.528C9.16972 11.5318 9.16035 11.5393 9.15847 11.558C9.15472 11.573 9.14722 11.5824 9.1341 11.5861C9.1116 11.5918 9.0741 11.5711 9.0741 11.5524C9.0741 11.5393 9.13035 11.4699 9.20347 11.3949C9.22972 11.3668 9.25222 11.3386 9.25222 11.3368C9.25222 11.333 9.23722 11.3293 9.22035 11.3293C9.1941 11.3293 9.1866 11.333 9.1866 11.3443C9.1866 11.3518 9.15097 11.4005 9.10597 11.4511C9.01222 11.5561 9.00472 11.5768 9.04972 11.6049C9.06846 11.6164 9.09017 11.6222 9.11216 11.6216C9.13416 11.6209 9.15547 11.6138 9.17347 11.6011L9.20347 11.5805V11.618C9.20347 11.6649 9.21285 11.6836 9.25035 11.7024C9.2738 11.7144 9.30002 11.7201 9.32636 11.7188C9.35269 11.7175 9.37821 11.7092 9.40035 11.6949ZM11.3578 11.0461C11.3241 11.0668 11.3503 11.1099 11.3578 11.1399C11.3428 11.1774 11.2922 11.1886 11.2547 11.1961C11.2022 11.2055 11.1647 11.2486 11.146 11.2955C11.1347 11.3255 11.1085 11.3705 11.0803 11.3255C11.056 11.3011 11.011 11.2805 10.9828 11.3105C10.9603 11.3311 10.9547 11.3611 10.9453 11.3893C10.9322 11.3686 10.9266 11.3368 10.9003 11.3293C10.8553 11.3349 10.8722 11.3911 10.8928 11.4136C10.9116 11.4418 10.9303 11.4755 10.9116 11.5074C10.8928 11.5449 10.8366 11.5711 10.8047 11.5393C10.7747 11.5224 10.7953 11.4643 10.7635 11.4605C10.7485 11.4718 10.7485 11.5336 10.7241 11.4999C10.7053 11.4718 10.7166 11.4324 10.6941 11.408C10.6697 11.4118 10.6491 11.4549 10.6566 11.4774C10.6903 11.5224 10.7053 11.5786 10.7185 11.633C10.726 11.6555 10.7166 11.6986 10.7372 11.708C10.7503 11.6724 10.7372 11.633 10.7485 11.5974C10.7822 11.5936 10.8178 11.6086 10.8516 11.6011C10.9022 11.5955 10.9397 11.5524 10.9566 11.5093C10.9622 11.4755 10.9566 11.4418 10.9547 11.408C10.9922 11.4155 11.0335 11.4155 11.071 11.4268C11.0897 11.4549 11.0653 11.4961 11.0597 11.5261C11.041 11.5899 10.9903 11.6349 10.9435 11.6761C10.9228 11.6893 10.921 11.7211 10.9491 11.7043C11.0132 11.6738 11.0635 11.6202 11.0897 11.5543C11.1103 11.5055 11.0935 11.4511 11.1085 11.4024C11.1272 11.3649 11.1741 11.3724 11.2097 11.3724C11.2453 11.3724 11.2753 11.3293 11.2641 11.2936C11.2528 11.2524 11.296 11.2336 11.3241 11.2186C11.3635 11.1999 11.3935 11.1605 11.3897 11.1155C11.3897 11.0911 11.3897 11.048 11.3578 11.0461ZM11.221 11.2805C11.2622 11.2918 11.2135 11.3705 11.191 11.3199C11.1835 11.3011 11.2003 11.2805 11.221 11.2805ZM11.0278 11.3368C11.0822 11.3349 11.0616 11.4118 11.0166 11.378C10.9922 11.3649 10.9997 11.3368 11.0278 11.3368ZM9.06285 11.6424C9.06285 11.6349 9.0591 11.6293 9.0516 11.6293C9.03847 11.6293 9.0291 11.6424 9.03472 11.6536C9.04222 11.6668 9.0591 11.6593 9.06285 11.6424ZM9.70035 11.5749C9.70035 11.5618 9.69472 11.558 9.68535 11.5599C9.66472 11.5636 9.66097 11.5918 9.68347 11.5918C9.69472 11.5918 9.70035 11.5861 9.70035 11.573V11.5749ZM8.91285 11.1924C8.88847 11.1868 8.8716 11.2093 8.86222 11.2299C8.84347 11.2618 8.82097 11.2936 8.78722 11.3105C8.76285 11.318 8.7366 11.3086 8.7141 11.2955C8.68972 11.2824 8.69535 11.2524 8.6841 11.2318C8.66535 11.2168 8.63347 11.2374 8.63535 11.2599C8.63347 11.2899 8.65972 11.3068 8.6841 11.318C8.70285 11.3311 8.73285 11.3368 8.74035 11.3611C8.74035 11.3818 8.74785 11.4061 8.77222 11.3986C8.80035 11.3986 8.80972 11.4324 8.7966 11.453C8.78407 11.4759 8.77945 11.5023 8.78347 11.528C8.7966 11.5411 8.80972 11.5093 8.82097 11.5018L8.83972 11.4755C8.89035 11.4774 8.9391 11.4849 8.98972 11.483C9.02722 11.483 9.05535 11.4605 9.07785 11.4343C9.1116 11.4005 9.13785 11.3611 9.17347 11.333C9.19972 11.3255 9.1866 11.2768 9.15847 11.2918C9.1341 11.3011 9.1266 11.3293 9.10972 11.3461C9.08237 11.3822 9.05091 11.4149 9.01597 11.4436C8.98785 11.4549 8.95785 11.4493 8.92972 11.4436C8.91847 11.4343 8.95222 11.4249 8.95785 11.4136C8.97285 11.3986 8.9916 11.3836 9.00097 11.363C8.9916 11.3443 8.96535 11.3443 8.9466 11.3443C8.9016 11.348 8.86597 11.3874 8.8191 11.3911C8.78347 11.3911 8.80222 11.3536 8.8191 11.3405C8.8491 11.303 8.88285 11.2693 8.91472 11.2336C8.9241 11.2224 8.95785 11.2111 8.93722 11.1961C8.92972 11.1924 8.92035 11.1924 8.91285 11.1924ZM8.93535 11.3799C8.95972 11.393 8.92035 11.4136 8.90535 11.4118C8.88472 11.4174 8.88285 11.3968 8.9016 11.393C8.91285 11.3855 8.9241 11.3799 8.93535 11.3799ZM8.8641 11.4286C8.87722 11.4286 8.90535 11.4418 8.8791 11.4493C8.86035 11.4643 8.8416 11.4343 8.8641 11.4286Z" fill="#F7E017"/>
<path d="M9.42625 11.4587C9.42625 11.4399 9.39625 11.4437 9.3925 11.4624C9.38875 11.4737 9.3925 11.4756 9.4075 11.4737C9.41875 11.4737 9.42625 11.4662 9.42625 11.4587ZM10.8269 11.3349C10.8306 11.3181 10.8081 11.3068 10.795 11.3199C10.7819 11.3312 10.795 11.3556 10.81 11.3518C10.8175 11.3518 10.825 11.3424 10.8287 11.3349H10.8269ZM8.65 11.1643C8.67062 11.1456 8.6725 11.1437 8.66312 11.1024C8.64812 11.0443 8.65 11.0368 8.6725 11.0312C8.70062 11.0256 8.77187 11.0631 8.785 11.0931C8.8 11.1174 8.79812 11.1193 8.7775 11.1381C8.755 11.1587 8.755 11.1831 8.7775 11.1831C8.79625 11.1831 8.84687 11.1343 8.84687 11.1174C8.84687 11.0931 8.79062 11.0349 8.74562 11.0143C8.71862 11.0017 8.68916 10.9953 8.65937 10.9956C8.60125 10.9956 8.59375 11.0087 8.60875 11.0743C8.6275 11.1531 8.60312 11.1643 8.53937 11.1043C8.51669 11.0844 8.49895 11.0594 8.48756 11.0314C8.47618 11.0034 8.47144 10.9732 8.47375 10.9431C8.47375 10.8681 8.50375 10.8287 8.56937 10.8193C8.61437 10.8137 8.6125 10.8024 8.56937 10.7968C8.50187 10.7856 8.44562 10.8306 8.425 10.9093C8.40062 10.9974 8.455 11.1043 8.55062 11.1587C8.60125 11.1868 8.62 11.1887 8.65 11.1643ZM11.26 11.0668C11.2656 11.0631 11.2694 11.0499 11.2694 11.0406C11.2694 11.0312 11.2787 11.0106 11.29 10.9956C11.3012 10.9806 11.3087 10.9656 11.3087 10.9618C11.3087 10.9468 11.2844 10.9468 11.2656 10.9618C11.245 10.9787 11.2281 10.9806 11.2281 10.9618L11.2506 10.9449C11.2806 10.9318 11.2825 10.9168 11.2581 10.9056C11.2262 10.8906 11.1925 10.9168 11.1906 10.9618C11.1887 10.9918 11.1906 10.9956 11.2131 11.0087C11.2337 11.0218 11.2375 11.0274 11.2337 11.0462C11.2281 11.0762 11.2412 11.0874 11.26 11.0668ZM11.5037 11.0406C11.5225 11.0218 11.5375 11.0049 11.5375 10.9993C11.5375 10.9937 11.5544 10.9768 11.5731 10.9618C11.6256 10.9243 11.6387 10.8868 11.6144 10.8249C11.605 10.8006 11.5769 10.7687 11.5112 10.7124C11.4813 10.6805 11.4473 10.6528 11.41 10.6299C11.3931 10.6299 11.3969 10.6937 11.4137 10.6993C11.4456 10.7106 11.4662 10.7237 11.515 10.7687C11.575 10.8212 11.6012 10.8718 11.5862 10.8999C11.5731 10.9262 11.5544 10.9187 11.5019 10.8624C11.4848 10.8413 11.4646 10.8229 11.4419 10.8081C11.4362 10.8081 11.4325 10.8193 11.4325 10.8343C11.4325 10.8531 11.4419 10.8718 11.47 10.8999C11.5131 10.9487 11.5169 10.9768 11.4831 11.0031C11.4755 11.0108 11.4666 11.0171 11.4569 11.0218C11.414 10.9485 11.3566 10.8846 11.2881 10.8343C11.2825 10.8343 11.2787 10.8418 11.2787 10.8606C11.2787 10.8849 11.2825 10.8924 11.3012 10.9018C11.3505 10.9397 11.3947 10.9838 11.4325 11.0331L11.4662 11.0706C11.4802 11.0618 11.4929 11.0511 11.5037 11.0387V11.0406ZM11.6162 10.7256C11.6069 10.7031 11.4587 10.5493 11.4419 10.5493C11.4344 10.5493 11.4325 10.5587 11.4344 10.5831C11.4344 10.6131 11.44 10.6168 11.4606 10.6224C11.4926 10.6412 11.5217 10.6646 11.5469 10.6918C11.5672 10.7137 11.5906 10.7327 11.6162 10.7481V10.7256ZM10.72 12.4618C10.721 12.4646 10.7212 12.4676 10.7206 12.4704C10.72 12.4733 10.7186 12.476 10.7165 12.4784C10.7144 12.4807 10.7117 12.4826 10.7085 12.4839C10.7054 12.4852 10.7019 12.4859 10.6984 12.4859C10.6949 12.4859 10.6915 12.4852 10.6883 12.4839C10.6852 12.4826 10.6825 12.4807 10.6804 12.4784C10.6783 12.476 10.6769 12.4733 10.6763 12.4704C10.6757 12.4676 10.6759 12.4646 10.6769 12.4618C10.6759 12.459 10.6757 12.4561 10.6763 12.4532C10.6769 12.4503 10.6783 12.4476 10.6804 12.4453C10.6825 12.4429 10.6852 12.441 10.6883 12.4397C10.6915 12.4384 10.6949 12.4377 10.6984 12.4377C10.7019 12.4377 10.7054 12.4384 10.7085 12.4397C10.7117 12.441 10.7144 12.4429 10.7165 12.4453C10.7186 12.4476 10.72 12.4503 10.7206 12.4532C10.7212 12.4561 10.721 12.459 10.72 12.4618ZM10.7987 12.4356C10.7987 12.438 10.7982 12.4405 10.797 12.4427C10.7959 12.445 10.7942 12.4471 10.7922 12.4488C10.7901 12.4506 10.7876 12.4519 10.7849 12.4529C10.7821 12.4538 10.7792 12.4543 10.7762 12.4543C10.7733 12.4543 10.7704 12.4538 10.7676 12.4529C10.7649 12.4519 10.7624 12.4506 10.7603 12.4488C10.7582 12.4471 10.7566 12.445 10.7555 12.4427C10.7543 12.4405 10.7537 12.438 10.7537 12.4356C10.7537 12.4331 10.7543 12.4307 10.7555 12.4284C10.7566 12.4261 10.7582 12.424 10.7603 12.4223C10.7624 12.4206 10.7649 12.4192 10.7676 12.4182C10.7704 12.4173 10.7733 12.4168 10.7762 12.4168C10.7792 12.4168 10.7821 12.4173 10.7849 12.4182C10.7876 12.4192 10.7901 12.4206 10.7922 12.4223C10.7942 12.424 10.7959 12.4261 10.797 12.4284C10.7982 12.4307 10.7987 12.4331 10.7987 12.4356Z" fill="#F7E017"/>
</g>
<defs>
<clipPath id="clip0_823_3123">
<rect x="4" y="5.5" width="12" height="9" rx="1" fill="white"/>
</clipPath>
</defs>
</svg>
