<svg width="21" height="21" viewBox="0 0 21 21" fill="none" xmlns="http://www.w3.org/2000/svg">
<path fill-rule="evenodd" clip-rule="evenodd" d="M12.5339 2.07679C12.6478 2.14276 12.7372 2.24652 12.7878 2.37153C12.8384 2.49653 12.8473 2.63558 12.8131 2.76648L11.2638 8.67823H16.9167C17.0304 8.67824 17.1416 8.71282 17.2366 8.77772C17.3317 8.84262 17.4065 8.93501 17.4517 9.04354C17.497 9.15206 17.5108 9.272 17.4915 9.38859C17.4722 9.50518 17.4205 9.61336 17.3429 9.69982L9.17622 18.8067C9.08727 18.9061 8.96885 18.9715 8.83992 18.9926C8.71099 19.0137 8.57899 18.9892 8.46502 18.923C8.35106 18.8568 8.26172 18.7527 8.2113 18.6274C8.16087 18.5022 8.15227 18.3629 8.18688 18.2319L9.73622 12.321H4.0833C3.96962 12.321 3.85842 12.2864 3.76336 12.2215C3.66831 12.1566 3.59355 12.0642 3.54827 11.9557C3.50299 11.8471 3.48916 11.7272 3.5085 11.6106C3.52783 11.494 3.57947 11.3858 3.65708 11.2994L11.8238 2.19255C11.9127 2.0935 12.031 2.02829 12.1597 2.00731C12.2884 1.98633 12.4201 2.01079 12.5339 2.07679Z" fill="black"/>
</svg>
