<svg width="20" height="20" viewBox="0 0 20 20" fill="none" xmlns="http://www.w3.org/2000/svg">
<g clip-path="url(#clip0_823_3433)">
<path fill-rule="evenodd" clip-rule="evenodd" d="M4 5.5H16V14.5H4V5.5Z" fill="#229E45"/>
<path fill-rule="evenodd" clip-rule="evenodd" d="M10.0263 13.675L15.6794 10.0056L9.99255 6.32495L4.32068 10.0131L10.0263 13.675Z" fill="#F8E509"/>
<path fill-rule="evenodd" clip-rule="evenodd" d="M12.49 10C12.49 11.3181 11.4194 12.3869 10.0975 12.3869C9.62516 12.3861 9.16361 12.2454 8.77124 11.9823C8.37886 11.7193 8.07327 11.3459 7.8931 10.9092C7.71294 10.4726 7.66628 9.99229 7.75902 9.52912C7.85177 9.06594 8.07975 8.64066 8.41416 8.30704C8.74857 7.97342 9.17439 7.74643 9.63778 7.65477C10.1012 7.56312 10.5813 7.61091 11.0176 7.79211C11.4538 7.9733 11.8265 8.27977 12.0886 8.67276C12.3507 9.06575 12.4904 9.52763 12.49 10Z" fill="#2B49A3"/>
<path fill-rule="evenodd" clip-rule="evenodd" d="M9.31192 11.4305L9.23692 11.3874L9.16192 11.4249L9.17879 11.3405L9.11879 11.2768L9.20317 11.2674L9.24442 11.1924L9.28004 11.2712L9.36254 11.2862L9.30067 11.3424M10.9132 11.8355L10.84 11.7924L10.765 11.8299L10.78 11.7455L10.7219 11.6837L10.8063 11.6743L10.8457 11.5974L10.8832 11.6762L10.9657 11.6912L10.9019 11.7493M10.2232 11.1868L10.1594 11.1493L10.0938 11.183L10.1088 11.1099L10.0563 11.0555L10.1313 11.048L10.165 10.9805L10.195 11.0499L10.2682 11.063L10.2119 11.1137M11.8432 10.9543L11.7794 10.9168L11.7138 10.9505L11.7288 10.8774L11.6782 10.8249L11.7513 10.8174L11.785 10.7518L11.815 10.8193L11.8863 10.8324L11.8319 10.8812M10.195 10.4687L10.12 10.4274L10.045 10.4649L10.06 10.3787L10.0019 10.3168L10.0863 10.3074L10.1257 10.2305L10.1632 10.3093L10.2457 10.3243L10.1819 10.3843M8.22067 9.72805L8.14567 9.6868L8.07067 9.7243L8.08942 9.63805L8.02754 9.57617L8.11379 9.5668L8.15129 9.48992L8.18879 9.56867L8.27129 9.58367L8.20942 9.6418M8.45879 10.7143L8.38379 10.6712L8.30879 10.7087L8.32567 10.6243L8.26567 10.5624L8.35004 10.5512L8.38942 10.4762L8.42692 10.5549L8.50942 10.5699L8.44754 10.628M10.9225 9.36617L10.855 9.32867L10.7875 9.36242L10.8025 9.28742L10.75 9.23117L10.825 9.2218L10.8607 9.1543L10.8925 9.22555L10.9675 9.23867L10.9113 9.2893M10.7857 10.0074L10.735 9.97742L10.6807 10.0037L10.6919 9.94367L10.6507 9.90055L10.7107 9.89305L10.7388 9.84055L10.7632 9.8968L10.8194 9.90617L10.7782 9.94742M8.11192 10.8924L8.06129 10.8643L8.01067 10.8887L8.02192 10.8324L7.98254 10.7912L8.03879 10.7837L8.06504 10.733L8.08942 10.7855L8.14567 10.7968L8.10254 10.8343M11.8563 11.1212L11.815 11.1005L11.7738 11.1193L11.7832 11.0762L11.7513 11.0462L11.7963 11.0405L11.8188 11.003L11.8375 11.0405L11.8844 11.0499L11.8488 11.078" fill="#FFFFEF"/>
<path fill-rule="evenodd" clip-rule="evenodd" d="M8.11192 10.8925L8.06129 10.8644L8.01067 10.8888L8.02192 10.8325L7.98254 10.7913L8.03879 10.7838L8.06504 10.7332L8.08942 10.7857L8.14567 10.7969L8.10254 10.8344" fill="#FFFFEF"/>
<path fill-rule="evenodd" clip-rule="evenodd" d="M8.11192 10.8924L8.06129 10.8643L8.01067 10.8887L8.02192 10.8324L7.98254 10.7912L8.03879 10.7837L8.06504 10.733L8.08942 10.7855L8.14567 10.7968L8.10254 10.8343M8.89567 10.8905L8.84692 10.8643L8.79629 10.8887L8.80754 10.8324L8.76817 10.7912L8.82442 10.7837L8.85067 10.733L8.87504 10.7855L8.93129 10.7949L8.88817 10.8343M8.79817 11.153L8.74942 11.1249L8.69879 11.1512L8.71004 11.0949L8.67067 11.0518L8.72692 11.0443L8.75317 10.9937L8.77754 11.0462L8.83379 11.0574L8.79067 11.0949M10.4294 10.6787L10.3807 10.6487L10.3282 10.6749L10.3394 10.6187L10.3019 10.5755L10.3582 10.5699L10.3844 10.5193L10.4069 10.5718L10.4632 10.5812L10.4219 10.6205M9.95129 10.6768L9.90067 10.6487L9.85004 10.6749L9.86129 10.6187L9.82379 10.5755L9.88004 10.5699L9.90629 10.5174L9.92879 10.5718L9.98504 10.5812L9.94379 10.6205M8.65379 10.5118L8.62192 10.493L8.59004 10.508L8.59754 10.4724L8.57317 10.4462L8.60879 10.4424L8.62379 10.4105L8.63879 10.4443L8.67442 10.4499L8.64817 10.4743M11.7944 11.3255L11.7457 11.2974L11.695 11.3237L11.7063 11.2674L11.6669 11.2243L11.7232 11.2168L11.7494 11.1662L11.7738 11.2187L11.83 11.2299L11.7869 11.2674M11.3969 11.3799L11.3557 11.3537L11.3125 11.3762L11.3219 11.3274L11.29 11.2937L11.3369 11.288L11.3594 11.2449L11.3782 11.2899L11.425 11.2974L11.3894 11.3312M11.5844 11.3743L11.5469 11.3518L11.5075 11.3705L11.515 11.3274L11.485 11.2955L11.5282 11.2899L11.5488 11.2524L11.5675 11.2899L11.6107 11.2993L11.5788 11.3293M12.1244 10.9018L12.0869 10.883L12.0494 10.9018L12.0588 10.8587L12.0288 10.8268L12.0719 10.8212L12.0907 10.7837L12.1094 10.823L12.1488 10.8305L12.1188 10.8605M11.3913 11.6443L11.3444 11.618L11.2938 11.6405L11.305 11.588L11.2675 11.5505L11.3238 11.5449L11.3482 11.498L11.3707 11.5468L11.4269 11.5562L11.3838 11.5918M11.395 11.858L11.35 11.8318L11.305 11.8562L11.3163 11.8037L11.2807 11.7662L11.3313 11.7587L11.3538 11.7118L11.3744 11.7605L11.425 11.7699L11.3875 11.8074M11.0313 11.3743L10.9957 11.3518L10.9582 11.3705L10.9657 11.3293L10.9375 11.2974L10.9788 11.2937L10.9975 11.2562L11.0163 11.2937L11.0575 11.3012L11.0275 11.3312M10.6938 11.3743L10.6563 11.3518L10.6188 11.3705L10.6282 11.3293L10.5982 11.2974L10.6413 11.2937L10.66 11.2562L10.6788 11.2937L10.7182 11.3012L10.6882 11.3312M10.1182 10.8699L10.0807 10.8493L10.0432 10.868L10.0525 10.8249L10.0225 10.7949L10.0638 10.7893L10.0825 10.7518L10.1013 10.7893L10.1425 10.7987L10.1125 10.8268M10.1819 11.8955L10.1519 11.8787L10.1182 11.8955L10.1257 11.858L10.1013 11.8318L10.1369 11.828L10.1538 11.7962L10.1688 11.8299L10.2044 11.8355L10.1782 11.8599M9.31192 10.2362L9.23692 10.193L9.16192 10.2305L9.17879 10.1462L9.11879 10.0843L9.20317 10.073L9.24442 9.99805L9.28004 10.0768L9.36254 10.0918L9.30067 10.1499" fill="#FFFFEF"/>
<path fill-rule="evenodd" clip-rule="evenodd" d="M12.3325 10.8587C12.379 10.7382 12.4154 10.614 12.4413 10.4875C11.17 9.37184 9.7544 8.79997 7.96565 8.91809C7.90077 9.04362 7.84743 9.17479 7.80627 9.30997C9.92502 9.10747 11.4813 10.045 12.3325 10.8587Z" fill="white"/>
<path d="M11.7626 10.2325L11.8057 10.2569C11.7992 10.2697 11.7973 10.2842 11.8001 10.2982C11.8045 10.3117 11.8138 10.3231 11.8263 10.33C11.8394 10.3394 11.8526 10.345 11.8638 10.3432C11.8751 10.3432 11.8826 10.3375 11.8882 10.33C11.8915 10.3251 11.8928 10.3191 11.8919 10.3132C11.8904 10.3062 11.8872 10.2998 11.8826 10.2944C11.8788 10.2888 11.8694 10.2757 11.8544 10.2607C11.839 10.2448 11.8275 10.2255 11.8207 10.2044C11.816 10.1885 11.8172 10.1713 11.8241 10.1562C11.831 10.1411 11.8431 10.1289 11.8582 10.1219C11.8718 10.1162 11.8869 10.1149 11.9013 10.1182C11.9189 10.1222 11.9355 10.1299 11.9501 10.1407C11.9763 10.1594 11.9932 10.1782 11.9988 10.2007C12.0014 10.2112 12.0017 10.2222 11.9998 10.2328C11.9979 10.2435 11.9937 10.2536 11.9876 10.2625L11.9426 10.2344C11.9482 10.2232 11.9501 10.2119 11.9463 10.2025C11.9444 10.1932 11.9369 10.1838 11.9238 10.1763C11.9142 10.1686 11.9024 10.164 11.8901 10.1632C11.8867 10.1631 11.8833 10.1639 11.8803 10.1655C11.8773 10.1672 11.8749 10.1696 11.8732 10.1725C11.8694 10.1782 11.8694 10.1838 11.8713 10.1913C11.8732 10.1988 11.8826 10.2138 11.9013 10.2325C11.9201 10.2513 11.9313 10.2682 11.9388 10.2794C11.9455 10.2917 11.9485 10.3057 11.9475 10.3196C11.9465 10.3336 11.9416 10.347 11.9332 10.3582C11.9244 10.3709 11.912 10.3807 11.8976 10.3863C11.8835 10.3928 11.8678 10.3947 11.8526 10.3919C11.8357 10.3882 11.8188 10.3807 11.8001 10.3675C11.7719 10.3488 11.7551 10.3282 11.7494 10.3057C11.7433 10.2802 11.7474 10.2533 11.7607 10.2307L11.7626 10.2325ZM11.5451 10.09L11.5919 10.1144C11.5861 10.1274 11.5848 10.1419 11.5882 10.1557C11.593 10.1685 11.6023 10.1792 11.6144 10.1857C11.6294 10.195 11.6407 10.1988 11.6519 10.1969C11.6632 10.1969 11.6707 10.1913 11.6763 10.1819C11.6792 10.1775 11.6805 10.1722 11.6801 10.1669C11.6801 10.1613 11.6763 10.1538 11.6707 10.1482C11.6611 10.1366 11.6511 10.1253 11.6407 10.1144C11.6201 10.0938 11.6069 10.0769 11.6032 10.0619C11.6001 10.0523 11.5992 10.0421 11.6005 10.032C11.6018 10.022 11.6053 10.0124 11.6107 10.0038C11.6178 9.99223 11.6283 9.98308 11.6407 9.97755C11.6536 9.97161 11.6679 9.96965 11.6819 9.97192C11.6993 9.97484 11.7159 9.98122 11.7307 9.99067C11.7588 10.0094 11.7757 10.0282 11.7813 10.0488C11.7847 10.0593 11.7858 10.0705 11.7845 10.0815C11.7832 10.0925 11.7796 10.1031 11.7738 10.1125L11.7269 10.0863C11.7326 10.0732 11.7344 10.0638 11.7307 10.0544C11.7269 10.045 11.7194 10.0357 11.7063 10.0282C11.6959 10.0207 11.6835 10.0168 11.6707 10.0169C11.6676 10.0171 11.6646 10.0181 11.662 10.0197C11.6594 10.0214 11.6572 10.0236 11.6557 10.0263C11.6519 10.0319 11.6519 10.0375 11.6538 10.045C11.6557 10.0525 11.6669 10.0675 11.6857 10.0863C11.7044 10.105 11.7176 10.12 11.7232 10.1313C11.7307 10.1431 11.7347 10.1567 11.7347 10.1707C11.7347 10.1846 11.7307 10.1983 11.7232 10.21C11.7151 10.2231 11.7034 10.2336 11.6894 10.24C11.6754 10.2465 11.6597 10.2485 11.6444 10.2457C11.6251 10.2424 11.6067 10.2354 11.5901 10.225C11.5658 10.2121 11.5471 10.1908 11.5376 10.165C11.5303 10.14 11.533 10.1132 11.5451 10.09ZM11.2788 10.0188L11.4157 9.7938L11.5807 9.89692L11.5582 9.93442L11.4382 9.85942L11.4082 9.91005L11.5207 9.97942L11.4963 10.0169L11.3838 9.94755L11.3463 10.0094L11.4719 10.0844L11.4494 10.1219L11.2807 10.0188H11.2788ZM10.8907 9.70005L10.9113 9.66255L11.0126 9.71317L10.9657 9.80692C10.9507 9.81067 10.9319 9.81255 10.9094 9.81067C10.8878 9.80829 10.8669 9.80194 10.8476 9.79192C10.8249 9.78087 10.8055 9.76406 10.7913 9.74317C10.7784 9.72377 10.7719 9.70084 10.7726 9.67755C10.7735 9.65331 10.7799 9.62959 10.7913 9.60817C10.8026 9.58563 10.8193 9.56628 10.8401 9.55192C10.8599 9.53822 10.8835 9.53101 10.9076 9.5313C10.9263 9.5313 10.9451 9.53692 10.9676 9.55005C10.9976 9.56317 11.0163 9.58192 11.0257 9.60255C11.0354 9.62302 11.0374 9.64634 11.0313 9.66817L10.9807 9.65317C10.9838 9.64061 10.9825 9.62737 10.9769 9.61567C10.9713 9.60442 10.9619 9.59692 10.9469 9.58942C10.9382 9.58443 10.9285 9.58135 10.9185 9.58038C10.9085 9.57941 10.8983 9.58058 10.8888 9.5838C10.8701 9.58942 10.8532 9.6063 10.8401 9.63255C10.8269 9.6588 10.8213 9.68317 10.8269 9.7038C10.8295 9.71358 10.8342 9.72268 10.8407 9.73045C10.8472 9.73822 10.8553 9.74449 10.8644 9.7488C10.8738 9.75442 10.8851 9.75817 10.8963 9.75817C10.9075 9.75987 10.9189 9.75987 10.9301 9.75817L10.9451 9.72817L10.8907 9.70005ZM9.19943 9.28192L9.23693 9.01942L9.31568 9.03255L9.33631 9.2163L9.40943 9.04755L9.48818 9.0588L9.45068 9.31755L9.40006 9.31005L9.43193 9.10567L9.34943 9.30255L9.29881 9.29505L9.27818 9.08317L9.24818 9.28942L9.19943 9.28192ZM8.93506 9.25005L8.95943 8.98755L9.15256 9.0063L9.14881 9.0513L9.00818 9.03817L9.00256 9.09442L9.13381 9.10755L9.12818 9.15255L8.99693 9.13942L8.99131 9.21067L9.13756 9.2238L9.13381 9.2688L8.93506 9.25005Z" fill="#309E3A"/>
<path d="M8.05941 9.0869C8.05941 9.05878 8.06503 9.03815 8.07253 9.0194C8.0791 9.00607 8.08799 8.99401 8.09878 8.98378C8.1084 8.97408 8.11988 8.96643 8.13253 8.96128C8.15128 8.95565 8.17003 8.9519 8.18878 8.9519C8.22816 8.9519 8.25816 8.9669 8.28253 8.9894C8.29413 9.00374 8.30276 9.02024 8.30791 9.03795C8.31306 9.05565 8.31463 9.07421 8.31253 9.09253C8.31253 9.13378 8.29941 9.16753 8.27503 9.1919C8.26251 9.20348 8.24769 9.2123 8.23154 9.21779C8.21539 9.22328 8.19827 9.22532 8.18128 9.22378C8.16452 9.22395 8.1479 9.22071 8.13243 9.21427C8.11696 9.20782 8.10296 9.1983 8.09128 9.18628C8.06795 9.15866 8.05649 9.12294 8.05941 9.0869Z" fill="#309E3A"/>
<path d="M8.11377 9.0871C8.11377 9.11523 8.11939 9.13773 8.13252 9.1546C8.14564 9.1696 8.16252 9.17898 8.18502 9.17898C8.19475 9.17966 8.20452 9.17816 8.2136 9.1746C8.22268 9.17103 8.23085 9.16548 8.23752 9.15835C8.25064 9.14335 8.25627 9.12085 8.25814 9.08898C8.25814 9.05898 8.25439 9.03648 8.23939 9.02148C8.23329 9.01392 8.22558 9.00782 8.21682 9.0036C8.20807 8.99938 8.19849 8.99717 8.18877 8.9971C8.17891 8.99679 8.16909 8.99864 8.16002 9.00253C8.15095 9.00642 8.14284 9.01224 8.13627 9.0196C8.12127 9.0346 8.11564 9.0571 8.11377 9.0871Z" fill="#F7FFFF"/>
<path d="M8.36877 9.22197L8.37252 8.95947H8.48502C8.51315 8.95947 8.5319 8.96322 8.54502 8.96885C8.55815 8.9726 8.56752 8.98197 8.57502 8.99322C8.58252 9.00447 8.58627 9.01947 8.58627 9.03635C8.58642 9.05439 8.57972 9.07181 8.56752 9.0851C8.55366 9.09808 8.53583 9.10601 8.5169 9.1076L8.54502 9.1301C8.55252 9.1376 8.5619 9.1526 8.57315 9.17322L8.60502 9.22572H8.54127L8.50377 9.16572L8.47752 9.12822C8.47298 9.12306 8.46716 9.11918 8.46065 9.11697C8.45212 9.11449 8.44328 9.11322 8.4344 9.11322H8.42315V9.22197H8.36877Z" fill="#309E3A"/>
<path d="M8.42505 9.07189H8.46255C8.4888 9.07189 8.50567 9.07189 8.5113 9.06814C8.51692 9.06814 8.52255 9.06252 8.5263 9.05877C8.53005 9.05502 8.53192 9.04564 8.53192 9.04002C8.53192 9.02877 8.53005 9.02127 8.52442 9.01752C8.52067 9.01189 8.51317 9.00814 8.50567 9.00627H8.46817L8.42505 9.00439V9.07002V9.07189Z" fill="white"/>
<path d="M8.66876 8.97241L8.76626 8.97804C8.78689 8.97804 8.80376 8.97991 8.81501 8.98366C8.82961 8.98896 8.84254 8.99801 8.85251 9.00991C8.86332 9.02302 8.87101 9.03841 8.87501 9.05491C8.88064 9.07179 8.88251 9.09241 8.88064 9.11679C8.88062 9.13592 8.87745 9.15493 8.87126 9.17304C8.86376 9.19179 8.85251 9.20679 8.83939 9.21804C8.82847 9.22704 8.81564 9.23345 8.80189 9.23679C8.79064 9.24054 8.77376 9.24054 8.75501 9.24054L8.65564 9.23491L8.66876 8.97241Z" fill="#309E3A"/>
<path d="M8.71934 9.01929L8.70996 9.19366H8.78121C8.79059 9.19366 8.79809 9.18991 8.80371 9.18429C8.80934 9.17866 8.81496 9.17116 8.81871 9.15991C8.82246 9.14866 8.82621 9.13179 8.82621 9.11116L8.82434 9.06429C8.82166 9.0544 8.81649 9.04536 8.80934 9.03804C8.80311 9.03177 8.79535 9.02725 8.78684 9.02491C8.77266 9.02176 8.75822 9.01987 8.74371 9.01929H8.71934Z" fill="white"/>
<path d="M9.95496 9.44128L10.0168 9.18628L10.0993 9.20503L10.1593 9.22378C10.1725 9.23128 10.1837 9.24253 10.1893 9.2594C10.1968 9.2744 10.1968 9.29128 10.1931 9.3119C10.1893 9.3269 10.1837 9.34003 10.1743 9.3494C10.1675 9.35764 10.1589 9.36426 10.1491 9.36879C10.1394 9.37333 10.1288 9.37567 10.1181 9.37565C10.105 9.37565 10.0862 9.3719 10.0618 9.36628L10.03 9.3569L10.0075 9.4544L9.95496 9.44128Z" fill="#309E3A"/>
<path d="M10.0563 9.24268L10.0413 9.31393L10.0694 9.32143C10.0881 9.32518 10.1031 9.32893 10.1106 9.32705C10.1179 9.32604 10.1247 9.32279 10.1301 9.31775C10.1355 9.31272 10.1392 9.30614 10.1406 9.29893C10.1406 9.28955 10.1406 9.28205 10.1369 9.27455C10.1328 9.26693 10.1261 9.26097 10.1181 9.25768L10.0825 9.2483L10.0581 9.24268H10.0563Z" fill="white"/>
<path d="M10.1987 9.51435L10.2869 9.26685L10.39 9.30435C10.4181 9.31372 10.435 9.3231 10.4462 9.3306C10.4556 9.33997 10.4631 9.34935 10.465 9.36435C10.4669 9.37935 10.4687 9.39247 10.465 9.40747C10.4575 9.42622 10.4462 9.43935 10.4312 9.44872C10.4162 9.45622 10.3975 9.4581 10.375 9.45435C10.3825 9.46372 10.39 9.4731 10.3937 9.48435L10.4087 9.53497L10.42 9.5931L10.3619 9.57247L10.3431 9.50497C10.3397 9.48971 10.3353 9.47467 10.33 9.45997C10.3275 9.45414 10.3236 9.44899 10.3187 9.44497C10.315 9.43935 10.3075 9.4356 10.2944 9.43185L10.285 9.4281L10.2475 9.5331L10.1987 9.51435Z" fill="#309E3A"/>
<path d="M10.3 9.38853L10.3356 9.40166C10.36 9.41104 10.375 9.41479 10.3825 9.41479C10.3881 9.41479 10.3937 9.41479 10.3993 9.40916C10.405 9.40541 10.4087 9.39979 10.4106 9.39229C10.4143 9.38479 10.4143 9.37728 10.4106 9.36978C10.4078 9.36252 10.4025 9.35652 10.3956 9.35291L10.3581 9.33979L10.3206 9.32666L10.2981 9.38853H10.3Z" fill="white"/>
<path d="M10.5062 9.50481C10.5127 9.48286 10.5235 9.46245 10.5381 9.44481C10.5476 9.4335 10.559 9.42398 10.5719 9.41669C10.5835 9.41012 10.5962 9.40568 10.6094 9.40356C10.6281 9.40356 10.6469 9.40356 10.6675 9.41106C10.6843 9.41521 10.6999 9.42287 10.7135 9.43354C10.7271 9.44421 10.7383 9.45764 10.7462 9.47294C10.7612 9.50294 10.7612 9.53856 10.75 9.57981C10.7407 9.61525 10.7178 9.64558 10.6862 9.66419C10.6581 9.68106 10.6244 9.68294 10.5887 9.67169C10.572 9.66743 10.5564 9.65973 10.5428 9.64907C10.5293 9.63842 10.5181 9.62505 10.51 9.60981C10.5025 9.59342 10.4983 9.57571 10.4976 9.55769C10.497 9.53967 10.4999 9.5217 10.5062 9.50481Z" fill="#309E3A"/>
<path d="M10.5587 9.51976C10.5512 9.54788 10.5493 9.57226 10.5587 9.59101C10.5681 9.60976 10.5812 9.62101 10.6018 9.62851C10.6206 9.63413 10.6393 9.63226 10.6581 9.62101C10.6768 9.61163 10.6881 9.59101 10.6975 9.56101C10.7068 9.53288 10.7068 9.51038 10.6975 9.49163C10.6938 9.48274 10.6882 9.47477 10.681 9.46829C10.6739 9.46181 10.6654 9.45697 10.6562 9.45413C10.647 9.45095 10.6372 9.4498 10.6275 9.45077C10.6178 9.45175 10.6084 9.45481 10.6 9.45976C10.5812 9.47101 10.5681 9.48976 10.5587 9.51976Z" fill="white"/>
<path d="M11.0182 9.87068L11.1382 9.63818L11.2376 9.68881C11.2563 9.6978 11.2734 9.70984 11.2882 9.72443C11.2976 9.73381 11.3032 9.74506 11.3032 9.76006C11.3032 9.77506 11.3032 9.78818 11.2957 9.80131C11.2885 9.81817 11.275 9.8316 11.2582 9.83881C11.2394 9.84256 11.2207 9.84256 11.2001 9.83506C11.2076 9.84631 11.2113 9.85756 11.2151 9.86693C11.2188 9.87818 11.2207 9.89506 11.2226 9.91943L11.2263 9.97943L11.1701 9.95131L11.1626 9.88193C11.1617 9.86621 11.1598 9.85055 11.1569 9.83506C11.1557 9.82804 11.1524 9.82154 11.1476 9.81631L11.1251 9.80318L11.1157 9.79756L11.0651 9.89506L11.0182 9.87068Z" fill="#309E3A"/>
<path d="M11.1344 9.75995L11.17 9.7787C11.1925 9.78995 11.2075 9.79745 11.2131 9.79745C11.2188 9.79745 11.2263 9.79745 11.2319 9.7937C11.2375 9.79183 11.2413 9.7862 11.245 9.7787C11.2488 9.7712 11.2506 9.7637 11.2488 9.7562C11.2465 9.74874 11.2419 9.74218 11.2356 9.73745C11.2247 9.73072 11.2134 9.72446 11.2019 9.7187L11.1644 9.69995L11.1344 9.75995Z" fill="white"/>
<path d="M11.9894 10.3507C12.0015 10.3314 12.0175 10.3148 12.0363 10.3019C12.0489 10.2938 12.0629 10.2881 12.0775 10.285C12.0911 10.2823 12.1052 10.2823 12.1188 10.285C12.1375 10.2888 12.1544 10.2963 12.1713 10.3075C12.1859 10.3166 12.1984 10.3287 12.2081 10.3429C12.2178 10.3571 12.2244 10.3731 12.2275 10.39C12.2331 10.4219 12.2238 10.4575 12.2013 10.4932C12.1824 10.5242 12.1521 10.5464 12.1169 10.555C12.1001 10.5587 12.0827 10.5587 12.0659 10.5552C12.0491 10.5516 12.0333 10.5445 12.0194 10.5344C12.0048 10.5253 11.9923 10.5133 11.9826 10.4991C11.9729 10.4849 11.9663 10.4688 11.9631 10.4519C11.9575 10.4182 11.9669 10.3844 11.9894 10.3507Z" fill="#309E3A"/>
<path d="M12.0362 10.3805C12.0175 10.4049 12.0119 10.4274 12.0156 10.448C12.017 10.4575 12.0204 10.4666 12.0256 10.4747C12.0307 10.4828 12.0376 10.4897 12.0456 10.4949C12.0644 10.508 12.0831 10.5118 12.1019 10.5061C12.1206 10.5005 12.1394 10.4874 12.1562 10.4611C12.1731 10.4349 12.1806 10.4124 12.1769 10.3936C12.175 10.3749 12.1637 10.358 12.1469 10.3449C12.13 10.3318 12.1094 10.3299 12.0906 10.3355C12.0719 10.3393 12.0531 10.3543 12.0344 10.3805H12.0362Z" fill="white"/>
<path d="M9.65881 9.33438L9.70194 9.15063L9.83694 9.18251L9.83131 9.21251L9.73194 9.19001L9.72256 9.23126L9.81444 9.25188L9.80694 9.28376L9.71506 9.26126L9.70381 9.31188L9.80694 9.33626L9.79944 9.36626L9.65881 9.33438Z" fill="#309E3A"/>
</g>
<defs>
<clipPath id="clip0_823_3433">
<rect x="4" y="5.5" width="12" height="9" rx="1" fill="white"/>
</clipPath>
</defs>
</svg>
