<svg width="20" height="20" viewBox="0 0 20 20" fill="none" xmlns="http://www.w3.org/2000/svg">
<g clip-path="url(#clip0_823_2783)">
<path d="M4.00171 5.49976H16.0036V14.4998H4.00171V5.49976Z" fill="#FFD520"/>
<path d="M4.00171 14.4998H16.0036V5.49976L4.00171 14.4998Z" fill="#FF4E12"/>
<path d="M10.4762 8.31264C10.4012 8.28826 10.3524 8.32576 10.3562 8.42326C10.3562 8.51889 10.4087 8.57326 10.4837 8.53764L10.4762 8.31264Z" fill="white" stroke="black" stroke-width="0.0075"/>
<path d="M10.5419 8.13255C10.48 8.0838 10.4219 8.10442 10.3919 8.1963C10.3638 8.29005 10.3938 8.35755 10.4763 8.3463L10.5419 8.13255Z" fill="white" stroke="black" stroke-width="0.0075"/>
<path d="M10.645 7.95626C10.5925 7.90001 10.5325 7.91126 10.4875 7.99751C10.4443 8.08376 10.4631 8.15689 10.5475 8.16064L10.645 7.95814V7.95626ZM10.5775 8.80939C10.4856 8.84314 10.4762 8.96876 10.5343 9.04564C10.5906 9.12251 10.6975 9.13751 10.7556 9.04564L10.5775 8.80939Z" fill="white" stroke="black" stroke-width="0.0075"/>
<path d="M10.4703 8.54333C10.3841 8.5152 10.3053 8.63145 10.2922 8.73645C10.2753 8.8677 10.086 8.9127 10.191 9.11333C10.2135 8.98583 10.2978 8.91458 10.3653 8.91083C10.4328 8.9052 10.5341 8.89208 10.5772 8.80958L10.4703 8.54333ZM10.746 9.06083C10.6447 9.0852 10.6297 9.2202 10.7028 9.31583C10.7647 9.39833 10.9597 9.37958 10.9541 9.29708L10.7478 9.06083H10.746ZM11.0328 9.87458C11.0385 9.78645 10.8978 9.7527 10.8303 9.76958C10.7628 9.78833 10.6335 9.7677 10.6053 9.69458C10.5791 9.7527 10.6147 9.81645 10.7122 9.84833C10.7872 9.87083 10.7853 9.92333 10.7628 9.94958C10.8191 9.95895 10.9822 9.95895 11.0328 9.87458Z" fill="white" stroke="black" stroke-width="0.0075"/>
<path d="M10.9541 9.31955C10.8547 9.27455 10.7966 9.34205 10.7591 9.4058C10.7029 9.49955 10.5322 9.37955 10.4741 9.50517C10.5529 9.47142 10.6316 9.54267 10.6691 9.56705C10.776 9.63642 10.9804 9.6158 11.0104 9.4508L10.9541 9.31955Z" fill="white" stroke="black" stroke-width="0.0075"/>
<path d="M11.0123 9.43384C10.9129 9.50884 10.8735 9.59884 10.8773 9.65884C10.8791 9.71884 10.9635 9.85196 11.0554 9.85946C11.1079 9.75071 11.136 9.52196 11.0123 9.43384ZM10.5998 9.90071C10.5998 9.86321 10.6523 9.85009 10.6898 9.86321C10.7254 9.87446 10.7816 9.91009 10.761 9.94946L10.5998 9.90071ZM10.056 9.70009C10.0466 9.65696 10.116 9.58196 10.2098 9.62321C10.3035 9.66446 10.3166 9.74321 10.2773 9.77509L10.056 9.70009Z" fill="white" stroke="black" stroke-width="0.0075"/>
<path d="M10.2846 9.78253C10.2771 9.75815 10.3465 9.7094 10.4609 9.73753C10.5771 9.76753 10.6052 9.84253 10.6015 9.90065L10.2846 9.78253ZM10.0427 9.7019C10.1046 9.6569 10.0802 9.57065 10.0259 9.54253C9.92835 9.49378 9.96398 9.37003 9.90023 9.34565C9.83835 9.32128 9.77835 9.27815 9.7746 9.23315C9.7446 9.29503 9.76335 9.3494 9.80648 9.38878C9.8496 9.42628 9.77273 9.58378 9.82898 9.62503L10.0427 9.7019ZM8.74898 9.66815C8.69835 9.5894 8.57835 9.60253 8.52773 9.65878C8.4771 9.71503 8.4846 9.79565 8.53148 9.83315L8.74898 9.66815ZM9.0396 9.55003C9.02085 9.44315 8.89148 9.4319 8.8221 9.45815C8.75085 9.4844 8.70398 9.59128 8.74898 9.66815L9.0396 9.55003Z" fill="white" stroke="black" stroke-width="0.0075"/>
<path d="M9.2312 9.53518C9.27808 9.44705 9.18808 9.31393 9.08683 9.29518C9.00245 9.27643 8.90308 9.2783 8.86933 9.1958C8.85058 9.26705 8.90308 9.31393 8.96683 9.35518C9.0287 9.39643 8.95558 9.50143 9.05683 9.56143L9.23308 9.53518H9.2312Z" fill="white" stroke="black" stroke-width="0.0075"/>
<path d="M9.22368 9.53895C9.20118 9.4752 9.2443 9.38895 9.33055 9.39645C9.41868 9.40208 9.46743 9.46395 9.42993 9.54458L9.22368 9.53895Z" fill="white" stroke="black" stroke-width="0.0075"/>
<path d="M9.41674 9.54462C9.40362 9.47712 9.45799 9.39837 9.54424 9.41712C9.62862 9.43587 9.66799 9.50524 9.61924 9.57649L9.41674 9.54274V9.54462Z" fill="white" stroke="black" stroke-width="0.0075"/>
<path d="M9.60606 9.57451C9.59856 9.50701 9.65668 9.43201 9.74106 9.45451C9.82543 9.47701 9.86106 9.54826 9.80856 9.61764L9.60793 9.57451H9.60606ZM8.15106 10.6808C7.98793 10.6808 7.94856 10.7183 7.92606 10.887C7.89606 11.0933 8.17918 11.1176 8.15106 10.6808Z" fill="white" stroke="black" stroke-width="0.0075"/>
<path d="M8.22273 10.4632C7.97523 10.3695 7.84023 10.7632 7.59273 10.692C7.68086 10.8326 7.89461 10.692 7.97523 10.707C8.11023 10.7314 8.40273 10.6807 8.22273 10.4632ZM8.06148 11.0014C7.93773 10.9451 7.80648 11.1326 7.82898 11.217C7.86086 11.3201 8.14211 11.2357 8.06148 11.0014ZM7.48773 11.8132C7.55523 11.832 7.63773 11.8695 7.62273 12.0007C7.60773 12.132 7.36023 12.3964 7.13898 12.4132C6.91773 12.4264 6.83898 12.6945 6.64586 12.6195C6.82586 12.5857 6.82586 12.3832 6.96461 12.3195C6.86336 12.282 6.81086 12.5126 6.67961 12.5126C6.54836 12.5126 6.48648 12.7207 6.32711 12.7057C6.16773 12.6926 6.15273 12.9589 5.83211 12.9626C5.58836 12.9645 5.28836 13.2495 5.17773 13.1257C5.41586 13.092 5.51148 12.9607 5.65211 12.8164C5.87711 12.5857 6.13398 12.6889 6.22211 12.4845C6.1209 12.5528 6.00106 12.5882 5.87898 12.5857C5.72898 12.582 5.56773 12.822 5.40086 12.717C5.49648 12.7039 5.56023 12.6626 5.66148 12.5557C5.76461 12.447 5.91836 12.5182 6.03836 12.4057C6.22586 12.2332 6.38898 12.3776 6.56898 12.162C6.51836 12.1357 6.40961 12.1526 6.30836 12.207C6.20711 12.2595 6.07773 12.1695 5.96148 12.2332C5.97461 12.0907 6.24648 12.1714 6.41523 12.0739C6.60648 11.9614 6.76398 11.9951 6.91398 12.0082C6.70398 12.0082 6.62336 11.8076 6.33273 11.8657C6.20711 11.892 6.10586 11.6914 5.98023 11.7926C5.98398 11.7176 6.11523 11.6576 6.25023 11.7307C6.38523 11.8039 6.43961 11.667 6.70961 11.8376C6.82211 11.907 7.01148 11.7926 7.13148 11.8676C7.11648 11.8226 7.04711 11.7926 6.96648 11.8001C7.01711 11.6951 7.34523 11.7082 7.48773 11.8132Z" fill="white" stroke="black" stroke-width="0.0075"/>
<path d="M7.70098 11.6557C7.59598 11.5732 7.44785 11.6725 7.34473 11.6332C7.34473 11.7007 7.38035 11.8019 7.49098 11.8413C7.52473 11.8169 7.67848 11.6838 7.70098 11.6557Z" fill="white" stroke="black" stroke-width="0.0075"/>
<path d="M7.868 11.4213C7.70112 11.3369 7.673 11.5469 7.54175 11.5038C7.54737 11.5638 7.59612 11.6388 7.70112 11.6557L7.86987 11.4213H7.868Z" fill="white" stroke="black" stroke-width="0.0075"/>
<path d="M7.96777 11.2301C7.72215 11.1345 7.69027 11.3707 7.5459 11.3239C7.57965 11.4064 7.7859 11.4514 7.89277 11.4214L7.96777 11.2301ZM8.30527 10.1951C8.23965 10.1014 8.10277 10.1764 8.08027 10.287C8.05965 10.3957 8.11215 10.5476 8.20402 10.512L8.30527 10.1932V10.1951Z" fill="white" stroke="black" stroke-width="0.0075"/>
<path d="M8.47218 9.90629C8.35968 9.87817 8.22843 9.89129 8.24343 10C8.19843 10.0207 8.18718 10.1632 8.3053 10.195L8.47218 9.90442V9.90629Z" fill="white" stroke="black" stroke-width="0.0075"/>
<path d="M8.54671 9.83133C8.43421 9.70008 8.31233 9.70195 8.24296 9.75633C8.11358 9.85945 7.98983 9.80133 7.98608 9.90258C8.06296 9.84258 8.13233 9.91383 8.19233 9.8932C8.25608 9.8707 8.30296 9.99258 8.47733 9.94195L8.54671 9.82945V9.83133ZM8.27858 11.7795C8.29546 11.8113 8.39858 11.8245 8.44921 11.772C8.51671 11.7007 8.44358 11.5057 8.33671 11.4907C8.22983 11.4776 8.22046 11.712 8.27858 11.7795Z" fill="white" stroke="black" stroke-width="0.0075"/>
<path d="M8.15845 11.7833C8.30845 11.8396 8.37407 11.7139 8.29345 11.6333C8.25187 11.6863 8.20676 11.7364 8.15845 11.7833Z" fill="white" stroke="black" stroke-width="0.0075"/>
<path d="M7.5889 11.9914C7.5589 12.0796 7.4089 12.0927 7.24015 12.3627C7.0714 12.6346 6.91015 12.5202 6.8689 12.7058C7.0714 12.5427 7.23077 12.6496 7.35265 12.4883C7.53452 12.2427 7.6864 12.2783 7.75765 12.1133C7.8589 11.8752 8.3014 11.8808 8.32765 11.5077C8.17765 11.4796 7.70327 11.8808 7.5889 11.9914ZM11.3989 8.3408C11.592 8.40455 11.5958 8.65393 11.8189 8.73643C12.0401 8.81893 12.0626 9.01768 12.2445 8.96893C12.0758 8.92205 12.087 8.72705 11.9108 8.6783C11.7045 8.62205 11.6258 8.30705 11.4608 8.2583M12.2858 9.65143C12.3195 9.73018 12.3139 9.86705 12.192 9.90268C12.2576 9.94393 12.3551 9.90643 12.4076 9.81643C12.3289 9.99268 12.3814 10.1521 12.507 10.1839C12.447 10.0602 12.582 10.0021 12.5389 9.92143C12.6176 9.95705 12.6889 10.0658 12.6851 10.1333C12.7901 10.0171 12.6101 9.86143 12.642 9.75268L12.2858 9.65143ZM11.0314 10.8927C10.9133 10.7896 10.8626 10.9208 10.8064 10.8739C10.7501 10.8327 10.6789 10.8271 10.6508 10.8683C10.752 10.8721 10.7033 10.9508 10.9001 10.9696C10.7033 10.9827 10.7389 11.2039 10.6076 11.1927C10.7464 11.3239 10.8195 11.0746 10.9339 11.1158C10.9001 11.1252 10.9864 11.2039 10.9264 11.3108C11.0239 11.3089 11.0633 11.1739 11.0764 11.1046L11.0314 10.8927ZM8.42515 12.0214C8.3839 11.9839 8.2564 11.9671 8.20952 11.9971C8.16077 12.0252 8.17765 12.0346 8.23577 12.0383C8.2939 12.0421 8.36702 12.1358 8.24327 12.1414C8.18515 12.1433 8.20577 12.2839 8.0839 12.2933C8.13265 12.3533 8.27515 12.3139 8.32577 12.2483C8.3164 12.3027 8.38765 12.3514 8.35952 12.4171C8.44765 12.4264 8.39702 12.2352 8.53765 12.2446C8.4814 12.2521 8.5039 12.3833 8.60515 12.3496C8.54515 12.3777 8.57702 12.4489 8.64265 12.4321C8.6014 12.4452 8.5864 12.5014 8.6464 12.5333C8.70452 12.4527 8.6389 12.1677 8.42702 12.0214H8.42515ZM13.6864 9.35705C13.7325 9.3605 13.7787 9.35441 13.8223 9.33915C13.8659 9.3239 13.9059 9.29981 13.9398 9.26839C13.9736 9.23697 14.0006 9.19891 14.0191 9.15657C14.0376 9.11424 14.0471 9.06855 14.0471 9.02236C14.0471 8.97618 14.0376 8.93049 14.0191 8.88815C14.0006 8.84582 13.9736 8.80775 13.9398 8.77634C13.9059 8.74492 13.8659 8.72083 13.8223 8.70558C13.7787 8.69032 13.7325 8.68423 13.6864 8.68768C13.602 8.694 13.523 8.73201 13.4654 8.79408C13.4078 8.85614 13.3758 8.93769 13.3758 9.02236C13.3758 9.10704 13.4078 9.18858 13.4654 9.25065C13.523 9.31272 13.602 9.35073 13.6864 9.35705Z" fill="white"/>
<path d="M11.3989 8.3408C11.592 8.40455 11.5958 8.65393 11.8189 8.73643C12.0401 8.81893 12.0626 9.01768 12.2445 8.96893C12.0758 8.92205 12.087 8.72705 11.9108 8.6783C11.7045 8.62205 11.6258 8.30705 11.4608 8.2583M7.5889 11.9914C7.5589 12.0796 7.4089 12.0927 7.24015 12.3627C7.0714 12.6346 6.91015 12.5202 6.8689 12.7058C7.0714 12.5427 7.23077 12.6496 7.35265 12.4883C7.53452 12.2427 7.6864 12.2783 7.75765 12.1133C7.8589 11.8752 8.3014 11.8808 8.32765 11.5077C8.17765 11.4796 7.70327 11.8808 7.5889 11.9914ZM12.2858 9.65143C12.3195 9.73018 12.3139 9.86705 12.192 9.90268C12.2576 9.94393 12.3551 9.90643 12.4076 9.81643C12.3289 9.99268 12.3814 10.1521 12.507 10.1839C12.447 10.0602 12.582 10.0021 12.5389 9.92143C12.6176 9.95705 12.6889 10.0658 12.6851 10.1333C12.7901 10.0171 12.6101 9.86143 12.642 9.75268L12.2858 9.65143ZM11.0314 10.8927C10.9133 10.7896 10.8626 10.9208 10.8064 10.8739C10.7501 10.8327 10.6789 10.8271 10.6508 10.8683C10.752 10.8721 10.7033 10.9508 10.9001 10.9696C10.7033 10.9827 10.7389 11.2039 10.6076 11.1927C10.7464 11.3239 10.8195 11.0746 10.9339 11.1158C10.9001 11.1252 10.9864 11.2039 10.9264 11.3108C11.0239 11.3089 11.0633 11.1739 11.0764 11.1046L11.0314 10.8927V10.8927ZM8.42515 12.0214C8.3839 11.9839 8.2564 11.9671 8.20952 11.9971C8.16077 12.0252 8.17765 12.0346 8.23577 12.0383C8.2939 12.0421 8.36702 12.1358 8.24327 12.1414C8.18515 12.1433 8.20577 12.2839 8.0839 12.2933C8.13265 12.3533 8.27515 12.3139 8.32577 12.2483C8.3164 12.3027 8.38765 12.3514 8.35952 12.4171C8.44765 12.4264 8.39702 12.2352 8.53765 12.2446C8.4814 12.2521 8.5039 12.3833 8.60515 12.3496C8.54515 12.3777 8.57702 12.4489 8.64265 12.4321C8.6014 12.4452 8.5864 12.5014 8.6464 12.5333C8.70452 12.4527 8.6389 12.1677 8.42702 12.0214H8.42515ZM13.6864 9.35705C13.7325 9.3605 13.7787 9.35441 13.8223 9.33915C13.8659 9.3239 13.9059 9.29981 13.9398 9.26839C13.9736 9.23697 14.0006 9.19891 14.0191 9.15657C14.0376 9.11424 14.0471 9.06855 14.0471 9.02236C14.0471 8.97618 14.0376 8.93049 14.0191 8.88815C14.0006 8.84582 13.9736 8.80775 13.9398 8.77634C13.9059 8.74492 13.8659 8.72083 13.8223 8.70558C13.7787 8.69032 13.7325 8.68423 13.6864 8.68768C13.602 8.694 13.523 8.73201 13.4654 8.79408C13.4078 8.85614 13.3758 8.93769 13.3758 9.02236C13.3758 9.10704 13.4078 9.18858 13.4654 9.25065C13.523 9.31272 13.602 9.35073 13.6864 9.35705V9.35705Z" stroke="black" stroke-width="0.0075"/>
<path d="M11.9389 9.76025C12.042 9.66463 12.1958 9.61588 12.3027 9.689C12.4077 9.76025 12.7602 9.8465 12.9345 9.7265C13.1089 9.6065 13.1914 9.54275 13.2683 9.55775C13.3245 9.644 13.3958 9.68525 13.482 9.69275C13.5083 9.72275 13.6039 9.74525 13.6564 9.73963C13.7333 9.75838 13.827 9.734 13.902 9.6515C14.0183 9.67025 14.127 9.58213 14.1683 9.45088C14.292 9.43775 14.2995 9.30088 14.2208 9.20713C14.1495 9.194 14.2039 8.94838 13.9414 8.99713C14.0539 9.06463 13.9677 9.19963 14.0595 9.26338C13.9977 9.26338 13.9152 9.28963 13.8964 9.38338C13.9208 9.31963 13.8927 9.27463 13.8777 9.2615C13.8777 9.20525 13.7558 9.06838 13.6395 9.119C13.722 9.13775 13.677 9.269 13.737 9.3215C13.7143 9.32243 13.692 9.32847 13.6719 9.33919C13.6517 9.3499 13.6343 9.365 13.6208 9.38338C13.5889 9.32713 13.4783 9.27088 13.4108 9.26525C13.4108 9.2465 13.407 9.209 13.3977 9.18838C13.3677 9.13025 13.3414 9.06088 13.3545 8.97275C13.2997 9.0373 13.2543 9.10926 13.2195 9.1865C13.1277 9.12275 12.9008 9.21463 12.7939 9.239C12.6889 9.26338 12.3308 9.20525 12.2502 9.119C12.1354 9.02728 12.0004 8.96428 11.8564 8.93525C11.6502 8.87525 11.6502 8.65025 11.4233 8.49463C11.4177 8.77588 11.8433 9.66463 11.9389 9.76025ZM9.57267 11.8959C9.6587 11.8959 9.7412 11.8617 9.80203 11.8009C9.86287 11.74 9.89704 11.6575 9.89704 11.5715C9.89704 11.4855 9.86287 11.403 9.80203 11.3421C9.7412 11.2813 9.6587 11.2471 9.57267 11.2471C9.48664 11.2471 9.40413 11.2813 9.3433 11.3421C9.28247 11.403 9.24829 11.4855 9.24829 11.5715C9.24829 11.6575 9.28247 11.74 9.3433 11.8009C9.40413 11.8617 9.48664 11.8959 9.57267 11.8959Z" fill="white" stroke="black" stroke-width="0.0075"/>
<path d="M8.79987 11.6462C8.8655 11.7305 8.97612 11.7249 9.023 11.7193C9.0605 11.8205 9.18425 11.8168 9.23675 11.873C9.29112 11.9293 9.47112 11.9237 9.52362 11.8918C9.47675 11.888 9.413 11.858 9.35487 11.8074C9.27987 11.7474 9.31362 11.6237 9.25737 11.5824C9.27507 11.5599 9.28788 11.5339 9.29499 11.5061C9.30209 11.4784 9.30333 11.4494 9.29862 11.4212C9.34362 11.3949 9.37737 11.3518 9.38112 11.3293C9.44839 11.326 9.51226 11.2988 9.56112 11.2524C9.60237 11.2899 9.7055 11.2412 9.76175 11.3049C9.773 11.1455 9.62112 11.0612 9.518 11.1155C9.47862 11.093 9.36987 11.108 9.34925 11.1362C9.31737 11.1212 9.22175 11.1699 9.1805 11.2018C9.22737 11.1755 9.23487 11.0949 9.21612 11.0668C9.25737 11.048 9.30237 10.9937 9.308 10.9543C9.36425 10.9637 9.45237 10.9243 9.48987 10.9337C9.428 10.8512 9.32487 10.8212 9.218 10.8305C9.10737 10.8362 9.0605 10.913 9.0455 10.9955C8.98175 11.0349 8.95925 11.1643 8.98362 11.2112C8.94612 11.2112 8.9105 11.2468 8.89737 11.2674C8.84138 11.2443 8.78166 11.2316 8.72112 11.2299M8.7455 11.0987C8.723 11.0349 8.75112 10.9787 8.76612 10.9299C8.80362 10.8024 8.78112 10.7687 8.66675 10.7855C8.67349 10.8939 8.70019 11 8.7455 11.0987Z" fill="white"/>
<path d="M8.79987 11.6462C8.8655 11.7305 8.97612 11.7249 9.023 11.7193C9.0605 11.8205 9.18425 11.8168 9.23675 11.873C9.29112 11.9293 9.47112 11.9237 9.52362 11.8918C9.47675 11.888 9.413 11.858 9.35487 11.8074C9.27987 11.7474 9.31362 11.6237 9.25737 11.5824C9.27507 11.5599 9.28788 11.5339 9.29499 11.5061C9.30209 11.4784 9.30333 11.4494 9.29862 11.4212C9.34362 11.3949 9.37737 11.3518 9.38112 11.3293C9.44839 11.326 9.51226 11.2988 9.56112 11.2524C9.60237 11.2899 9.7055 11.2412 9.76175 11.3049C9.773 11.1455 9.62112 11.0612 9.518 11.1155C9.47862 11.093 9.36987 11.108 9.34925 11.1362C9.31737 11.1212 9.22175 11.1699 9.1805 11.2018C9.22737 11.1755 9.23487 11.0949 9.21612 11.0668C9.25737 11.048 9.30237 10.9937 9.308 10.9543C9.36425 10.9637 9.45237 10.9243 9.48987 10.9337C9.428 10.8512 9.32487 10.8212 9.218 10.8305C9.10737 10.8362 9.0605 10.913 9.0455 10.9955C8.98175 11.0349 8.95925 11.1643 8.98362 11.2112C8.94612 11.2112 8.9105 11.2468 8.89737 11.2674C8.84138 11.2443 8.78166 11.2316 8.72112 11.2299M8.7455 11.0987C8.723 11.0349 8.75112 10.9787 8.76612 10.9299C8.80362 10.8024 8.78112 10.7687 8.66675 10.7855C8.67349 10.8939 8.70019 11 8.7455 11.0987V11.0987Z" stroke="black" stroke-width="0.0075"/>
<path d="M8.66138 10.7933C8.69138 10.8233 8.79263 10.8364 8.80388 10.7446C8.817 10.6396 8.77388 10.5983 8.682 10.6396C8.6745 10.6639 8.667 10.7614 8.66325 10.7933H8.66138Z" fill="white" stroke="black" stroke-width="0.0075"/>
<path d="M8.68408 10.6359C8.72158 10.6509 8.80596 10.6828 8.85283 10.5928C8.89033 10.5178 8.83971 10.4615 8.75908 10.4653C8.74033 10.4878 8.70283 10.5646 8.68408 10.6359Z" fill="white" stroke="black" stroke-width="0.0075"/>
<path d="M8.75513 10.4576C8.7645 10.4876 8.86388 10.5833 8.93513 10.5139C9.00825 10.4445 9.00825 10.3395 8.8995 10.302C8.87138 10.3058 8.78325 10.407 8.75513 10.4576Z" fill="white" stroke="black" stroke-width="0.0075"/>
<path d="M8.89941 10.3002C8.92004 10.3621 8.98941 10.4652 9.11504 10.4183C9.24066 10.3696 9.18629 10.2121 9.12816 10.1802C9.04417 10.2042 8.9662 10.2457 8.89941 10.3021V10.3002Z" fill="white" stroke="black" stroke-width="0.0075"/>
<path d="M9.1282 10.1799C9.11883 10.2343 9.1282 10.3787 9.3007 10.3768C9.47133 10.373 9.42445 10.1724 9.37945 10.1443C9.31008 10.1443 9.19195 10.1462 9.1282 10.1818V10.1799Z" fill="white" stroke="black" stroke-width="0.0075"/>
<path d="M9.38691 10.1501C9.36816 10.1933 9.32503 10.4633 9.66066 10.3883C9.70378 10.3789 9.81628 10.1295 9.38691 10.152V10.1501Z" fill="white" stroke="black" stroke-width="0.0075"/>
<path d="M9.57053 10.1764C9.53678 10.2101 9.62303 10.482 9.85178 10.437C10.0768 10.3901 9.88741 10.1314 9.57053 10.1745V10.1764Z" fill="white" stroke="black" stroke-width="0.0075"/>
<path d="M9.76356 10.2175C9.72606 10.2925 9.78231 10.5138 10.0617 10.5138C10.3148 10.5138 10.0486 10.2213 9.76356 10.2175Z" fill="white" stroke="black" stroke-width="0.0075"/>
<path d="M9.98259 10.2812C9.96384 10.3244 9.94321 10.5587 10.2732 10.5794C10.5113 10.5944 10.4532 10.255 9.98259 10.2812Z" fill="white" stroke="black" stroke-width="0.0075"/>
<path d="M10.3376 10.3806C10.2982 10.4537 10.2551 10.6337 10.6169 10.6487C10.8476 10.6581 10.7051 10.3862 10.3394 10.3806H10.3376Z" fill="white" stroke="black" stroke-width="0.0075"/>
<path d="M10.6394 10.4369C10.5869 10.5081 10.6262 10.6506 10.7612 10.6769C10.93 10.7106 10.9544 10.5512 10.8381 10.4744C10.7219 10.3994 10.6394 10.4369 10.6394 10.4369Z" fill="white" stroke="black" stroke-width="0.0075"/>
<path d="M10.8062 10.4688C10.7668 10.5381 10.7893 10.7012 11.0462 10.7012C11.0987 10.7012 11.3012 10.495 10.8043 10.4706L10.8062 10.4688ZM8.82056 13.6188C8.92001 13.6188 9.0154 13.5792 9.08572 13.5089C9.15605 13.4386 9.19556 13.3432 9.19556 13.2438C9.19556 13.1443 9.15605 13.0489 9.08572 12.9786C9.0154 12.9083 8.92001 12.8688 8.82056 12.8688C8.7211 12.8688 8.62572 12.9083 8.55539 12.9786C8.48507 13.0489 8.44556 13.1443 8.44556 13.2438C8.44556 13.3432 8.48507 13.4386 8.55539 13.5089C8.62572 13.5792 8.7211 13.6188 8.82056 13.6188Z" fill="white" stroke="black" stroke-width="0.0075"/>
<path d="M11.577 8.15688C11.5365 8.202 11.5024 8.25247 11.4757 8.30688C11.3501 8.68188 11.6857 8.96313 11.8807 9.37001C11.961 9.5531 11.9934 9.75356 11.975 9.95262C11.9567 10.1517 11.8881 10.3428 11.7757 10.5081C11.6932 10.6169 11.7176 10.6488 11.6107 10.7594C11.5695 10.8025 11.5245 10.8569 11.5395 11.0106C11.607 10.9863 11.7026 11.0481 11.7214 11.1044C11.7701 11.0781 11.8376 11.0875 11.862 11.1175C11.9445 11.08 12.012 11.0988 12.0851 11.1738C12.147 11.1663 12.2164 11.1738 12.2782 11.2431C12.312 11.1756 12.3795 11.1494 12.4282 11.1663C12.4226 11.0781 12.5089 11.0163 12.5857 11.05C12.5797 11.0253 12.5804 10.9993 12.5878 10.975C12.5952 10.9506 12.6091 10.9286 12.6278 10.9114C12.6466 10.8942 12.6696 10.8823 12.6945 10.877C12.7194 10.8717 12.7453 10.8732 12.7695 10.8813C12.8576 10.8138 13.032 10.8081 13.1182 10.9094C12.9626 10.8663 12.9682 11.0313 12.837 11.0163C12.8707 11.1119 12.7845 11.1681 12.6982 11.2C12.7545 11.1738 12.8145 11.1419 12.8332 11.1756C12.882 11.1325 12.9776 11.1494 13.002 11.17C13.0657 11.1513 13.1276 11.1663 13.1557 11.2431C13.2439 11.2956 13.302 11.4306 13.2382 11.5319C13.2195 11.4269 13.1464 11.4306 13.1182 11.3875C13.0507 11.4119 12.9832 11.4119 12.9626 11.3688C12.9251 11.4063 12.7939 11.4419 12.7376 11.3838C12.7151 11.47 12.6401 11.5431 12.552 11.5431C12.5764 11.6106 12.5089 11.725 12.4564 11.7831C12.5389 11.8263 12.5126 11.9238 12.4939 11.9819C12.6214 12.0006 12.5126 12.1131 12.732 12.1844C12.6251 12.2181 12.417 12.1844 12.3889 12.0531C12.282 12.0494 12.2107 11.9425 12.2145 11.8319C12.132 11.755 12.1207 11.6444 12.2332 11.5656C12.1376 11.5956 12.0832 11.44 11.9445 11.5038C11.8751 11.5356 11.6914 11.4813 11.6932 11.4175C11.6651 11.4644 11.487 11.4456 11.4645 11.3631C11.4064 11.395 11.2714 11.3425 11.2732 11.2619C11.1982 11.2956 11.097 11.2356 11.1026 11.1588C11.0314 11.1494 11.0239 11.0856 11.0276 11.0331C10.9657 11.0031 10.9826 10.9431 11.0089 10.8719C10.9639 10.8231 10.9826 10.7556 11.0164 10.6919C10.9695 10.6431 10.9789 10.5869 10.992 10.5175C10.7614 10.4988 10.4707 10.4425 9.8051 10.2381C8.8001 9.92876 8.5301 10.6544 8.75135 11.1081C9.00823 11.6331 8.72323 11.7456 8.80948 12.1356C8.90323 12.1544 8.9501 12.2331 8.94448 12.3156C9.00073 12.3175 9.03823 12.3681 9.01948 12.4656C9.04494 12.4614 9.07103 12.4632 9.09574 12.4706C9.12044 12.4781 9.1431 12.4912 9.16198 12.5088C9.19573 12.445 9.30823 12.43 9.36448 12.5031C9.4901 12.4938 9.55385 12.5969 9.54823 12.7206C9.5785 12.7774 9.59193 12.8416 9.58695 12.9057C9.58197 12.9698 9.55878 13.0311 9.5201 13.0825C9.5276 13.0319 9.5201 12.9606 9.51823 12.9156C9.5126 12.8369 9.40198 12.82 9.41323 12.7544C9.35698 12.76 9.30073 12.7281 9.28198 12.685C9.26523 12.6995 9.24502 12.7093 9.22333 12.7136C9.20163 12.7178 9.1792 12.7164 9.15823 12.7094C9.22198 12.7375 9.27448 12.8538 9.25385 12.9306C9.2876 12.9888 9.2801 13.0956 9.24073 13.1406C9.22198 13.2344 9.14698 13.2681 9.05323 13.2269C9.1076 13.1931 9.12635 13.1331 9.12448 13.0825C9.09284 13.0509 9.07355 13.009 9.0701 12.9644C8.97635 12.9794 8.8451 12.8988 8.8226 12.8669C8.7732 12.8669 8.72428 12.8766 8.67866 12.8956C8.63304 12.9146 8.59162 12.9424 8.55677 12.9774C8.52192 13.0124 8.49434 13.054 8.47561 13.0997C8.45687 13.1454 8.44735 13.1944 8.4476 13.2438C8.43635 13.1669 8.33885 13.09 8.35198 13.0244C8.29385 12.8463 8.37635 12.6794 8.6126 12.6456C8.5826 12.5781 8.68385 12.5088 8.64635 12.4319C8.57105 12.2949 8.47841 12.1683 8.37073 12.055C8.45323 11.9144 8.42698 11.7269 8.3801 11.6106C8.31073 11.4438 8.2451 11.485 7.99948 11.755C7.59823 12.1956 7.06198 12.0738 6.58948 12.3644C6.46385 12.4394 6.33822 12.4694 6.47323 12.3344C6.60823 12.1994 6.96448 12.0644 7.19698 11.9481C7.63198 11.7306 7.99948 11.3688 8.14385 10.6638C8.48323 9.00626 9.7376 9.55376 10.5289 9.86126C11.2732 10.1519 11.1382 9.49563 10.7614 9.09813C10.3076 8.62376 10.3995 8.24876 10.6114 7.94876C10.992 7.89626 11.7251 8.02938 11.577 8.15688Z" fill="white" stroke="black" stroke-width="0.0075"/>
<path d="M12.9235 12.2278C12.9778 12.2278 13.0315 12.2171 13.0817 12.1963C13.1319 12.1755 13.1774 12.1451 13.2158 12.1067C13.2542 12.0683 13.2847 12.0227 13.3055 11.9725C13.3262 11.9224 13.3369 11.8686 13.3369 11.8143C13.3369 11.76 13.3262 11.7063 13.3055 11.6561C13.2847 11.6059 13.2542 11.5604 13.2158 11.522C13.1774 11.4836 13.1319 11.4531 13.0817 11.4323C13.0315 11.4116 12.9778 11.4009 12.9235 11.4009C12.8141 11.4009 12.7092 11.4443 12.6318 11.5217C12.5544 11.5991 12.511 11.704 12.511 11.8134C12.511 11.9228 12.5544 12.0277 12.6318 12.1051C12.7092 12.1824 12.8141 12.2259 12.9235 12.2259V12.2278Z" fill="white" stroke="black" stroke-width="0.0075"/>
<path d="M11.3464 8.17554C11.2526 8.58241 11.3314 8.76616 11.4664 8.94429C11.7457 9.31366 11.9689 10.1555 11.6501 10.7068" stroke="black" stroke-width="0.0075"/>
<path d="M11.8281 10.2306C11.8656 10.2175 11.9406 10.1706 11.9556 10.0919M11.8581 10.0544C11.8694 9.985 11.9781 9.955 11.98 9.88M11.86 9.7825C11.8525 9.70937 11.9688 9.64375 11.9519 9.5725M11.7962 9.52188C11.7869 9.48063 11.8937 9.40375 11.8637 9.33812M11.7175 9.26687C11.695 9.22187 11.7681 9.16938 11.7363 9.12063M11.6012 9.06438C11.5937 9.03438 11.6388 8.965 11.6144 8.92375M11.485 8.82625C11.4944 8.81312 11.5338 8.785 11.5188 8.74938M11.4062 8.65C11.4213 8.6425 11.4681 8.6275 11.4625 8.59375" stroke="black" stroke-width="0.0075" stroke-linecap="round"/>
<path d="M8.98731 13.2045C8.89356 13.1708 8.77169 13.2176 8.74731 13.3001M8.82044 13.3751C8.83169 13.2926 8.95731 13.257 8.99481 13.2945C8.91606 13.2514 8.87669 13.407 8.94794 13.4108M9.59669 11.4645C9.54044 11.4945 9.52169 11.5995 9.59669 11.6801M9.68294 11.4889C9.64356 11.5226 9.64544 11.6239 9.70544 11.6483C9.65481 11.6108 9.70544 11.5489 9.74294 11.547C9.77856 11.5451 9.80294 11.5883 9.75794 11.6314M13.0767 11.7289C12.9417 11.6914 12.8329 11.8489 12.9567 11.9895C12.9529 11.8545 13.0504 11.7645 13.1686 11.7889M13.1123 11.8826C13.0989 11.8826 13.086 11.888 13.0765 11.8975C13.067 11.907 13.0617 11.9198 13.0617 11.9333C13.0617 11.9595 13.0842 11.9858 13.1217 11.9858C13.1461 11.9858 13.1667 11.9576 13.1667 11.9351M13.5904 8.91639C13.6129 8.99889 13.7254 9.03451 13.8154 9.01389M13.8154 8.96139C13.7461 8.96326 13.6879 8.89764 13.6917 8.84326C13.6917 8.88451 13.7854 8.90326 13.8154 8.87701" stroke="black" stroke-width="0.0075" stroke-linecap="round" stroke-linejoin="round"/>
<path d="M9.0233 11.7195C9.00455 11.6707 9.07955 11.622 9.0833 11.577C9.08518 11.5301 9.16955 11.4945 9.25768 11.5807M9.21643 11.067L9.16955 11.0895M9.3833 11.3295C9.36268 11.3295 9.31955 11.3295 9.29705 11.3126M9.29705 11.4214C9.28205 11.4307 9.24455 11.4439 9.22205 11.4495M8.47018 12.8801C8.46643 12.9232 8.51143 12.987 8.53393 13.0057M8.65768 12.777C8.64438 12.7979 8.63539 12.8213 8.6312 12.8458C8.62702 12.8703 8.62773 12.8953 8.6333 12.9195M9.01768 12.9195C8.97455 12.8914 9.00268 12.8182 8.99893 12.7695C8.9933 12.7207 9.04955 12.6439 9.1583 12.7095M8.61268 12.6439C8.6558 12.6364 8.7008 12.6382 8.7308 12.6514M9.16205 12.507C9.14696 12.5293 9.13791 12.5551 9.1358 12.582M9.36643 12.5014C9.33268 12.5014 9.30268 12.5257 9.28768 12.5501M8.89768 11.2657C8.93518 11.2789 9.03643 11.3407 9.04018 11.4045M9.3083 10.9507C9.19018 10.9489 9.1433 10.8289 9.2333 10.8289M9.52018 11.1139C9.47518 11.1326 9.4958 11.2114 9.56143 11.2507M9.23705 11.8714C9.21455 11.8414 9.24455 11.7589 9.31955 11.7832M9.4133 12.7526C9.41893 12.6776 9.5108 12.6364 9.5483 12.7189M9.07018 12.9626C9.06455 12.882 9.10768 12.8557 9.14143 12.8501C9.17893 12.8464 9.22955 12.8764 9.25393 12.9289M8.35205 13.0226C8.3558 12.9739 8.39705 12.9232 8.44018 12.9307M12.7714 10.8795C12.7396 10.902 12.7189 11.0051 12.8371 11.0145M12.5877 11.0501C12.5877 11.0614 12.6027 11.0782 12.6121 11.0876M13.1558 11.2432C13.1258 11.2189 13.0433 11.3182 13.1183 11.3876M12.3871 12.0551C12.3702 11.9857 12.4339 11.967 12.4958 11.982M12.2333 11.5657C12.2708 11.5432 12.3083 11.5151 12.3533 11.5039M12.2146 11.832C12.2146 11.7757 12.2446 11.7251 12.2708 11.712M12.4283 11.1664C12.4255 11.2271 12.4412 11.2872 12.4733 11.3389M13.0021 11.1701C12.9664 11.1814 12.9364 11.1945 12.9233 11.2245M12.9627 11.3689C12.9814 11.3539 13.0002 11.337 13.0077 11.3257M13.8758 9.25948C13.8758 9.32698 13.7914 9.36448 13.7352 9.32136M14.0596 9.26323C14.0971 9.29136 14.2264 9.26323 14.1964 9.18823M13.9002 9.65136C13.8651 9.64108 13.8334 9.62167 13.8083 9.59511M14.1664 9.45073C14.1233 9.46011 14.0933 9.45073 14.0727 9.44136M13.4802 9.69261C13.5224 9.69078 13.5638 9.68059 13.6021 9.66261M13.4127 9.26511C13.3808 9.26136 13.3564 9.26698 13.3396 9.28011M13.8983 9.38323C13.889 9.42032 13.8695 9.45408 13.8421 9.48073" stroke="black" stroke-width="0.0075" stroke-linecap="round"/>
<path d="M13.3281 9.49018C13.3881 9.46393 13.4631 9.6683 13.6094 9.59705M13.6206 9.3833C13.6003 9.41471 13.5887 9.45093 13.5869 9.4883" stroke="black" stroke-width="0.0075" stroke-linecap="round" stroke-linejoin="round"/>
<path d="M10.7312 9.07006C10.75 9.06631 10.7856 9.06068 10.7931 9.03631M8.24683 11.3182C8.31995 11.3594 8.37058 11.4288 8.34058 11.5319M11.5675 8.84693C11.59 8.86193 11.6706 8.86193 11.7175 8.84693M11.7737 8.89568C11.7737 8.92943 11.7831 9.05693 11.7175 9.08318M11.7418 9.06818C11.8018 9.08693 11.9218 9.07943 11.9612 8.96881M11.8768 9.06256C11.9087 9.11131 11.9181 9.20506 11.8243 9.25568M11.8993 9.14318C11.9706 9.16568 12.1318 9.16943 12.115 9.03068M12.0587 9.14318C12.1093 9.20881 12.3212 9.28943 12.2875 9.14881M11.8656 9.33631C11.9462 9.35693 12.0625 9.30068 12.0156 9.15631M12.2462 9.22943C12.2575 9.28568 12.5275 9.34193 12.4918 9.21631M12.4412 9.28943C12.4918 9.40568 12.76 9.39631 12.6756 9.24068M12.6325 9.36256C12.685 9.42631 12.9231 9.38881 12.8275 9.23131M12.8256 9.35881C12.9737 9.47131 13.1443 9.31193 12.9568 9.19568M13.0431 9.32318C13.1743 9.42631 13.3337 9.23881 13.2193 9.18631M12.0118 9.28006C12.0531 9.29131 12.1393 9.28756 12.16 9.21256M12.1262 9.26318C12.1225 9.37193 12.3062 9.41318 12.3531 9.28756M12.2912 9.35693C12.325 9.43006 12.4881 9.45818 12.5143 9.35506M12.4881 9.40381C12.5143 9.47506 12.655 9.46756 12.6943 9.39256M12.6418 9.44131C12.685 9.53506 12.865 9.53506 12.9043 9.39818M12.8743 9.45818C12.9437 9.50131 13.0937 9.48443 13.0806 9.34943M13.0525 9.44693C13.1575 9.53131 13.3037 9.44881 13.2306 9.30631M13.225 9.55756C13.2812 9.54818 13.3093 9.43756 13.2512 9.40756M11.9387 9.57631C12.0512 9.51443 12.0756 9.40756 11.995 9.30443M12.0362 9.47131C12.1093 9.51443 12.2462 9.46756 12.2706 9.36256M12.1356 9.48256C12.1768 9.53506 12.1843 9.60068 12.13 9.66068M12.1675 9.55006C12.2968 9.47131 12.4562 9.61756 12.3362 9.70756M12.3175 9.54256C12.3456 9.53506 12.3962 9.48256 12.4 9.42256M12.3737 9.59881C12.4281 9.54256 12.79 9.65506 12.5612 9.77318M12.5425 9.44693C12.6137 9.47318 12.6493 9.57256 12.5425 9.60631M12.6362 9.68881C12.7112 9.60818 12.955 9.65881 12.8668 9.76006M12.8087 9.65693C12.8518 9.50881 13.1106 9.60068 13.0262 9.66068M12.7562 9.51068C12.7637 9.53881 12.7656 9.61006 12.7187 9.64943M12.9737 9.48068C12.9789 9.4973 12.9803 9.51488 12.9777 9.53211C12.9751 9.54933 12.9686 9.56573 12.9587 9.58006M13.1368 9.48256C13.1518 9.50881 13.1743 9.55943 13.1218 9.60068M11.0706 8.37256C11.0725 8.50943 11.1212 8.60131 11.3068 8.51506M11.1287 8.53568C11.035 8.65943 11.14 8.79256 11.3218 8.65943M10.8437 8.59381C10.9693 8.72881 11.1943 8.63131 11.05 8.42506M11.2 8.71006C11.1775 8.84318 11.2862 8.86943 11.3743 8.80943M10.7331 8.61631C10.7556 8.74943 10.8925 8.85443 11.0256 8.77381M10.8962 8.80006C10.8962 8.99131 11.1587 9.01193 11.2206 8.81506M11.1268 8.93506C11.2112 9.10943 11.395 9.03818 11.455 8.93318M10.9412 8.65756C10.975 8.74193 11.0425 8.83568 11.1981 8.76631M10.4575 8.61631C10.48 8.68568 10.6056 8.77006 10.75 8.67256M10.5475 8.70631C10.4687 8.81881 10.6225 8.92568 10.81 8.75693M10.6393 8.84506C10.6693 9.00443 10.7331 9.13381 10.9581 8.92756M10.8456 9.01006C10.9281 9.11131 11.0537 9.17318 11.1718 9.00256" stroke="black" stroke-width="0.0075"/>
<path d="M11.2621 9.04004C11.2546 9.16191 11.2771 9.22191 11.3727 9.21629C11.4477 9.21254 11.5171 9.15441 11.5583 9.09066M11.3558 9.21629C11.3521 9.35504 11.4608 9.46379 11.6652 9.32316M11.4402 9.37941C11.4027 9.48254 11.5171 9.65129 11.744 9.56504M10.9583 9.10379C10.9452 9.23504 11.0671 9.32504 11.2658 9.15441M11.0558 9.25004C11.0633 9.35879 11.1871 9.49004 11.3671 9.30066M11.1421 9.38879C11.129 9.57441 11.2996 9.62691 11.444 9.48441M10.8852 9.25004C10.9227 9.25379 10.9546 9.22004 10.9733 9.19379M10.9658 9.38504C10.9996 9.39254 11.0596 9.36254 11.0783 9.32316M11.0521 9.60441C11.0896 9.64754 11.2208 9.61754 11.2377 9.56129M11.1965 9.60254C11.2677 9.77129 11.4608 9.76566 11.5415 9.57441M11.504 9.64191C11.5415 9.74129 11.6333 9.80316 11.7833 9.76941M11.5771 9.74316C11.4927 9.88004 11.6033 10.0432 11.7927 9.88379M11.624 9.94941C11.6146 10.0357 11.6933 10.135 11.8021 10.1463M11.2658 9.69629C11.2377 9.89129 11.3783 9.98504 11.5527 9.88004M11.0615 9.79004C11.1065 9.82566 11.189 9.82941 11.2677 9.80129M11.3615 9.91379C11.3165 10.0788 11.4852 10.1969 11.6296 10.0132M11.1252 9.81629C11.129 9.90066 11.2096 9.99254 11.3521 9.96629M11.7515 10.135C11.654 10.1988 11.6352 10.315 11.7702 10.39M11.5152 10.1013C11.519 10.1988 11.5658 10.255 11.6746 10.2644M11.3727 10.0507C11.2265 10.1819 11.369 10.3375 11.5415 10.2063M11.474 10.2475C11.4252 10.3994 11.6052 10.4913 11.7027 10.3375M11.174 9.92504C11.1215 10.075 11.189 10.1725 11.3127 10.1632M10.9827 9.89504C10.9902 9.98504 11.0671 10.0169 11.1552 9.99629M11.039 9.98879C10.9733 10.1144 11.0727 10.1819 11.204 10.135M11.5977 10.4163C11.579 10.495 11.5902 10.5513 11.7083 10.5794M11.6071 10.5288C11.4646 10.5925 11.4515 10.7313 11.5621 10.8194M11.4908 10.375C11.4738 10.39 11.4605 10.4087 11.4522 10.4298C11.4438 10.4508 11.4406 10.4736 11.4428 10.4961C11.445 10.5187 11.4526 10.5404 11.4648 10.5594C11.4771 10.5785 11.4937 10.5943 11.5133 10.6057M10.8571 9.93441C10.7765 10.015 10.8533 10.2382 11.0352 10.1163M11.3296 10.2157C11.2171 10.3094 11.2677 10.4744 11.4515 10.4294M11.1458 10.1482C11.0877 10.3113 11.1421 10.3694 11.2733 10.3713" stroke="black" stroke-width="0.0075"/>
<path d="M10.7366 9.92695C10.7186 9.93928 10.7034 9.95529 10.6921 9.97391C10.6808 9.99254 10.6736 10.0134 10.6709 10.035C10.6683 10.0566 10.6702 10.0786 10.6767 10.0994C10.6832 10.1202 10.694 10.1394 10.7084 10.1557C10.7516 10.2045 10.8341 10.182 10.8584 10.1201M10.5284 9.86133C10.4178 10.0038 10.5284 10.1726 10.6859 10.1238M11.1228 10.2851C11.0103 10.3245 10.9222 10.4276 10.9916 10.5195C11.0347 10.572 11.2128 10.5795 11.2634 10.3732M10.9184 10.152C10.8528 10.2457 10.8734 10.3357 10.9934 10.3807M10.9109 10.3282C10.8397 10.3657 10.7947 10.4126 10.8116 10.497M10.7534 10.1801C10.7272 10.2926 10.7591 10.3638 10.8284 10.3976M10.7516 10.3151C10.6428 10.3076 10.5866 10.3526 10.6241 10.4613M10.6334 10.3413C10.5266 10.3038 10.5097 10.2101 10.5566 10.1163M10.5416 10.2588C10.4253 10.2626 10.3728 10.3207 10.3728 10.3995" stroke="black" stroke-width="0.0075"/>
<path d="M10.3843 9.80668C10.2999 9.8423 10.2718 9.95668 10.3037 10.0186C10.3355 10.0804 10.4349 10.0861 10.4949 10.0448M10.1499 9.71668C10.073 9.80293 10.1612 9.97355 10.2999 9.9323M9.95116 9.64918C9.87991 9.75043 9.95866 9.91918 10.1443 9.87043M10.1537 10.3411C10.1349 10.2211 10.2605 10.1423 10.4162 10.2979M10.3412 10.0542C10.3191 10.074 10.302 10.0988 10.2912 10.1265C10.2805 10.1542 10.2764 10.184 10.2793 10.2136M9.75429 9.59105C9.67366 9.72605 9.77116 9.8498 9.94179 9.80105M10.2005 9.92668C10.088 10.0392 10.1255 10.1536 10.2099 10.2192M10.1274 10.0598C9.95679 10.0617 9.94741 10.2604 10.0862 10.3223M9.99804 9.86105C9.92679 9.9098 9.90429 10.0429 10.0262 10.0954M9.99241 10.1592C9.91929 10.1254 9.83304 10.1667 9.84054 10.2511M9.88366 10.1611C9.81804 10.0073 9.62866 10.0336 9.64554 10.1929M9.93616 9.9698C9.89679 9.9773 9.81429 10.0017 9.78241 10.0636M9.79366 9.79543C9.77858 9.81099 9.76758 9.83004 9.76166 9.85089C9.75573 9.87174 9.75506 9.89372 9.7597 9.91489C9.76435 9.93606 9.77416 9.95575 9.78826 9.9722C9.80237 9.98865 9.82033 10.0014 9.84054 10.0092M9.56304 9.5498C9.54804 9.6548 9.58929 9.70543 9.72054 9.69605M9.60804 9.68293C9.55929 9.80855 9.62679 9.8648 9.75804 9.8573M9.63804 9.83855C9.56116 9.93043 9.61366 10.0279 9.68866 10.0692M9.60241 9.9548C9.46366 9.93605 9.44304 10.0973 9.48991 10.1704" stroke="black" stroke-width="0.0075"/>
<path d="M9.49195 9.54077C9.40758 9.57827 9.35883 9.68327 9.40383 9.74702C9.4507 9.81265 9.54258 9.79202 9.59133 9.75827M9.43383 9.77702C9.36258 9.8839 9.42633 9.96452 9.50133 9.99452" stroke="black" stroke-width="0.0075"/>
<path d="M9.16203 9.52734C9.10578 9.58547 9.14141 9.70359 9.27453 9.70734C9.38516 9.70734 9.43953 9.60609 9.40578 9.53297M9.25578 9.70734C9.21266 9.80297 9.24078 9.90797 9.40578 9.89109M9.47328 10.0411C9.37391 9.99609 9.23703 10.0411 9.29516 10.163M9.28203 9.87047C9.24078 9.92859 9.25391 10.0111 9.30078 10.0617M9.27453 10.0242C9.20703 10.0373 9.14141 10.073 9.18078 10.1798M9.17141 10.0936C9.08516 10.0673 8.97453 10.1311 9.04016 10.2192M9.02703 10.1348C8.95203 10.1217 8.86391 10.2023 8.93516 10.2811M8.90703 10.2155C8.83953 10.2342 8.75891 10.3092 8.83016 10.3711M9.24828 9.83672C9.15078 9.87984 9.14141 9.98859 9.18641 10.0692M9.14516 9.63797C9.00078 9.69422 9.00266 9.88547 9.16391 9.94547M9.09453 9.90234C9.00828 9.95297 8.99141 10.0505 9.04953 10.1123M8.94266 9.56484C8.88641 9.58359 8.89016 9.76172 9.04391 9.75797M8.78328 9.62484C8.66703 9.70172 8.80766 9.89672 8.99516 9.75609M8.89203 9.80672C8.87516 9.88547 8.89766 9.97172 9.02516 9.98297M8.89953 9.91172C8.80766 9.94547 8.79078 10.1348 8.95578 10.1498M8.60703 9.74109C8.48891 9.84984 8.70453 9.94359 8.78328 9.78609M8.44391 9.92109C8.38578 9.99234 8.58828 10.1761 8.67828 9.86859M8.69891 9.86297C8.70453 9.93797 8.74766 9.97922 8.83578 9.98484M8.83578 10.0542C8.69141 10.0767 8.64641 10.2548 8.80578 10.2942M8.57141 10.0317C8.56578 10.0973 8.63703 10.1536 8.71578 10.1423M8.78891 10.2886C8.65766 10.3186 8.64078 10.4873 8.75703 10.4761M8.69703 10.6336C8.58828 10.6017 8.58453 10.4723 8.68203 10.4236" stroke="black" stroke-width="0.0075"/>
<path d="M8.60741 10.5212C8.51554 10.5774 8.55116 10.7087 8.59991 10.7274C8.64866 10.7462 8.68804 10.7237 8.69366 10.6824M8.68429 10.8699C8.69554 10.9318 8.46116 10.9074 8.58116 10.7124M8.58116 10.8793C8.50241 11.0031 8.62991 11.1043 8.71054 10.9974M8.59054 11.0274C8.55866 11.1268 8.67866 11.1981 8.75554 11.1212M8.33179 10.1012C8.28866 10.1893 8.50616 10.2231 8.51929 10.0393M8.27179 10.2324C8.22866 10.4068 8.55679 10.3712 8.47241 10.1462M8.47991 10.2624C8.50172 10.2726 8.52562 10.2776 8.5497 10.2769C8.57377 10.2762 8.59733 10.2698 8.6185 10.2583C8.63966 10.2468 8.65783 10.2305 8.67153 10.2107C8.68524 10.1909 8.69411 10.1682 8.69741 10.1443M8.59804 10.2681C8.60399 10.2927 8.61486 10.3158 8.63001 10.3361C8.64515 10.3564 8.66426 10.3735 8.68616 10.3862M8.44054 10.3131C8.42554 10.4068 8.52116 10.4856 8.62804 10.4781M8.45741 10.4049C8.40491 10.4781 8.38804 10.6168 8.55491 10.6262M8.20054 10.4312C8.17429 10.5062 8.33179 10.5831 8.42179 10.4593M8.15179 10.6224C8.13866 10.6787 8.27929 10.7537 8.35804 10.5137M8.29616 10.6356C8.32991 10.6956 8.44429 10.7443 8.51366 10.6262M8.40116 10.6993C8.37116 10.7837 8.45179 10.8624 8.54741 10.8399M8.21929 10.6806C8.20054 10.8006 8.34116 10.8699 8.42554 10.8081M8.12741 10.7331C8.08616 10.8868 8.28491 10.9449 8.35991 10.8287M8.30929 10.8756C8.31679 10.9618 8.45179 11.0368 8.55679 10.9656M8.06741 10.9468C8.05804 10.9862 8.21929 11.0256 8.24366 10.8906M8.16116 10.9824C8.19866 11.0799 8.32991 11.1043 8.40491 10.9824M8.36179 11.0312C8.38054 11.1249 8.49679 11.1756 8.60179 11.1118M8.64491 11.1493C8.61866 11.2712 8.74616 11.3706 8.82491 11.3031M8.43866 11.1268C8.40116 11.2618 8.56991 11.3387 8.66366 11.2637M8.23616 11.0574C8.22679 11.1849 8.32616 11.2599 8.43866 11.2037M8.02054 11.0724C7.98679 11.1531 8.16679 11.2206 8.25116 11.1512M7.90991 11.2956C7.95679 11.3481 8.11616 11.2956 8.12929 11.1774M8.08616 11.2637C8.14429 11.3312 8.28304 11.3687 8.33741 11.2224M8.28866 11.2974C8.28866 11.4024 8.47241 11.4774 8.53241 11.2862M8.75179 11.3237C8.73304 11.3743 8.77429 11.4549 8.85866 11.4643M8.59804 11.2918C8.58679 11.3481 8.67116 11.4306 8.76116 11.3987M8.77804 11.4231C8.75366 11.4849 8.77429 11.5749 8.85866 11.5731M8.78554 11.5393C8.72179 11.5918 8.74804 11.6874 8.83991 11.6893M8.75366 11.6293C8.66366 11.6893 8.69554 11.8224 8.81366 11.8149M8.48179 11.3687C8.48179 11.4999 8.64491 11.5187 8.67491 11.3987M8.61304 11.4737C8.58866 11.5524 8.65054 11.6274 8.74991 11.6049M8.63179 12.4074C8.65429 12.4393 8.74429 12.3849 8.71991 12.3324C8.69554 12.2799 8.59991 12.3081 8.61116 12.3643M8.69741 12.3099C8.70866 12.2049 8.58491 12.1881 8.55304 12.2799M8.59804 12.2256C8.62991 12.1731 8.52304 12.0999 8.47991 12.1787M8.51741 12.1468C8.54741 12.0699 8.42741 12.0343 8.41804 12.1056M8.38991 12.0043C8.40491 11.9668 8.53991 11.9893 8.48366 12.0699M8.58679 12.1656C8.63929 12.1168 8.54929 12.0193 8.49304 12.0531M8.94304 12.3137C8.90179 12.3174 8.85866 12.3456 8.88866 12.4356C8.91116 12.4974 9.00304 12.4993 9.01804 12.4637" stroke="black" stroke-width="0.0075"/>
<path d="M8.88485 12.3606C8.8436 12.3325 8.7536 12.3794 8.79485 12.4656C8.82485 12.5313 8.90361 12.5031 8.91486 12.4694M8.65236 12.4844C8.67486 12.5219 8.7761 12.5031 8.79485 12.4656M8.7236 12.3644C8.7461 12.3494 8.78548 12.3681 8.79298 12.3869M8.71798 11.7681C8.64673 11.815 8.68985 11.9556 8.7986 11.9181M8.69361 11.8825C8.63736 11.9256 8.68986 12.0625 8.79298 12.01M8.71236 12.01C8.67298 12.0494 8.71048 12.1562 8.80985 12.1356M8.69735 12.0644C8.67485 12.055 8.6186 12.0606 8.59423 12.0981M8.63361 11.5731C8.58111 11.6256 8.60735 11.7288 8.70485 11.7381M8.61486 11.6819C8.53986 11.7194 8.53986 11.8694 8.68986 11.875M8.60923 11.8506C8.56611 11.8844 8.58673 12.0156 8.69548 11.9988M8.64298 11.9931C8.62798 12.01 8.62423 12.0494 8.63923 12.0663M8.59611 11.9444C8.55861 11.9444 8.50611 11.9725 8.49298 12.0137M8.4236 11.8731C8.43673 11.8356 8.55673 11.8356 8.5661 11.95M8.57736 11.815C8.56048 11.8187 8.52861 11.8338 8.52111 11.8675M8.52485 11.4606C8.47423 11.5094 8.44986 11.6575 8.60548 11.6856M8.41985 11.7681C8.41985 11.7287 8.5286 11.6931 8.5661 11.7531M8.35048 11.5525C8.36548 11.5825 8.44048 11.6237 8.48548 11.59M7.96048 11.3163C7.95975 11.3336 7.96285 11.3509 7.96957 11.3669C7.97629 11.3829 7.98645 11.3973 7.99934 11.4089C8.01224 11.4205 8.02753 11.4292 8.04415 11.4342C8.06077 11.4393 8.07829 11.4406 8.09548 11.4381C8.1761 11.4288 8.19298 11.3594 8.16861 11.3125M8.10861 11.4419C8.05423 11.5056 8.11985 11.5975 8.17985 11.5712M8.16861 11.395C8.20048 11.3837 8.3036 11.3688 8.33548 11.4175M7.83298 11.4137C7.8086 11.4512 7.95861 11.4869 8.00923 11.4175M7.95861 11.4531C7.95298 11.5019 7.97735 11.5844 8.1011 11.5488" stroke="black" stroke-width="0.0075"/>
<path d="M8.12105 11.6237C8.1398 11.5824 8.0498 11.5149 7.97855 11.5899C7.90917 11.6649 7.9898 11.7493 8.03292 11.7212M7.80042 11.4624C7.76292 11.5262 7.90355 11.6405 7.98417 11.5337" stroke="black" stroke-width="0.0075"/>
<path d="M7.70661 11.5713C7.65599 11.6238 7.71974 11.7194 7.79474 11.6894C7.87161 11.6613 7.86411 11.5807 7.84536 11.5601" stroke="black" stroke-width="0.0075"/>
<path d="M7.60927 11.6687C7.56802 11.7062 7.60927 11.7924 7.66552 11.7924C7.72177 11.7924 7.75739 11.7493 7.74614 11.6912M7.83989 11.6612C7.83239 11.7174 7.91489 11.7549 7.96927 11.7024M7.96927 11.6012C7.97864 11.5899 7.97302 11.5693 7.95989 11.558M7.52114 11.7418C7.47427 11.7793 7.57739 11.8843 7.63927 11.7887M7.88489 11.723C7.85489 11.7512 7.90364 11.8262 7.95239 11.8037M7.71989 11.7755C7.72739 11.8262 7.82864 11.8655 7.89239 11.7868M7.77427 11.8262C7.75927 11.8599 7.79114 11.9105 7.83052 11.9049M8.73614 12.1262C8.69864 12.1993 8.81864 12.2855 8.90489 12.1955M8.82239 12.2349C8.80364 12.2743 8.82614 12.3305 8.85989 12.3512M8.70989 12.3193C8.71739 12.2818 8.76989 12.248 8.81677 12.2649M8.64802 12.2237C8.65364 12.1899 8.69677 12.158 8.73052 12.1674M11.4905 10.7162C11.318 10.718 11.3911 10.9937 11.5393 10.9393M11.4343 10.9205C11.4005 10.9749 11.4661 11.063 11.5393 11.0105M11.5205 11.0218C11.468 11.1062 11.6499 11.2355 11.723 11.1024M11.6649 11.153C11.6649 11.2337 11.8993 11.2843 11.8655 11.1249M11.843 11.2112C11.8993 11.3049 12.1055 11.3143 12.0849 11.1737M12.038 11.2712C12.0811 11.3349 12.2855 11.3724 12.278 11.243M11.2149 10.478C11.243 10.553 11.3424 10.5793 11.4511 10.5343M11.1511 10.5305C11.2205 10.5737 11.1211 10.7724 11.018 10.6918M11.153 10.6543C11.228 10.6899 11.3199 10.6637 11.3461 10.5568M11.2993 10.6393C11.3068 10.6955 11.3874 10.7387 11.4905 10.7162M11.1136 10.6974C11.2111 10.7799 11.0705 10.9487 11.0068 10.8718M11.1493 10.7593C11.1961 10.793 11.3143 10.7743 11.3255 10.6843M11.273 10.7593C11.2824 10.8174 11.3293 10.8399 11.393 10.8418M11.123 10.8399C11.1718 10.9074 11.2918 10.9262 11.3461 10.838M11.2918 10.8887C11.288 10.9524 11.3593 11.0068 11.4343 10.9918M11.0311 11.0312C11.093 11.063 11.1624 10.943 11.108 10.8624M11.1043 11.1568C11.1793 11.1605 11.1886 11.048 11.1174 10.9843M11.2749 11.2599C11.3386 11.2449 11.318 11.108 11.1661 11.0968M11.4661 11.3612C11.5261 11.3443 11.4774 11.1924 11.3105 11.2018M11.6949 11.4155C11.7361 11.3518 11.6011 11.2468 11.4886 11.303M11.8074 11.5018C11.8824 11.5243 11.9349 11.3255 11.6968 11.3574M11.9461 11.5018C12.0118 11.483 12.0586 11.3668 11.8674 11.4043M12.0924 11.5112C12.1486 11.5412 12.1749 11.3705 11.9986 11.4174M11.1174 10.9862C11.1905 11.0255 11.3049 10.9787 11.2936 10.8868M11.2655 10.9655C11.2899 11.0087 11.2805 11.093 11.2336 11.1155M11.2711 11.0668C11.3199 11.0855 11.3855 11.0687 11.4249 10.9918M11.3574 11.0668C11.3705 11.1005 11.3761 11.168 11.3443 11.2018M11.3686 11.1249C11.423 11.1549 11.4849 11.1155 11.5111 11.0593M11.4774 11.108C11.5149 11.1324 11.5505 11.2449 11.4849 11.2918M11.5224 11.2393C11.5674 11.2393 11.6349 11.2393 11.678 11.183M11.6461 11.2149C11.6874 11.2262 11.7361 11.2937 11.7193 11.3537M11.7211 11.333C11.768 11.3274 11.8468 11.2955 11.8693 11.2393M11.8468 11.2768C11.8676 11.289 11.8843 11.3071 11.895 11.3288C11.9056 11.3504 11.9097 11.3747 11.9068 11.3987M11.9068 11.3593C11.9536 11.3574 11.9949 11.333 12.0061 11.2824M11.9949 11.3162C12.0286 11.3274 12.0699 11.3668 12.0718 11.4118M12.0661 11.3837C12.0999 11.378 12.1243 11.3574 12.1468 11.3237M12.2386 11.318C12.2818 11.3612 12.2236 11.5055 12.1336 11.4793M11.3105 8.39116C11.2224 8.44554 10.9674 8.42866 11.093 8.21866M11.3368 8.24866C11.1586 8.31991 10.943 8.18304 11.168 8.03679M11.108 7.98804C10.9618 7.98804 10.8624 8.22429 11.0593 8.30679M10.5361 8.08741C10.4986 8.16241 10.6355 8.24491 10.7293 8.16991C10.8024 8.11179 10.7968 7.95429 10.7536 7.89429M10.4611 8.26554C10.4124 8.42491 10.7686 8.43429 10.7124 8.18116M10.4424 8.50366C10.4536 8.62366 10.7818 8.58429 10.6768 8.34054M10.7143 8.27304C10.7405 8.31054 10.8136 8.37241 10.9374 8.35929M10.7686 8.10616C10.7799 8.14929 10.853 8.18116 10.9468 8.14929M7.47614 11.7774C7.39177 11.8355 7.52114 11.9293 7.56802 11.8262M7.41052 11.8224C7.32802 11.8824 7.45552 11.9762 7.50239 11.873M7.34114 11.8674C7.25864 11.9274 7.38614 12.0193 7.43489 11.918M7.26989 11.9087C7.18927 11.9518 7.28302 12.0549 7.36364 11.9649M7.19114 11.948C7.11052 11.9912 7.20427 12.0943 7.28489 12.0043M7.59614 11.8243C7.59427 11.8862 7.71052 11.9105 7.75364 11.8187M7.66927 11.8805C7.63177 11.9274 7.69927 11.9837 7.73489 11.963M7.51364 11.873C7.50989 11.9255 7.61114 11.9555 7.65989 11.8974M7.56802 11.9274C7.53614 11.9687 7.59989 12.0268 7.64302 12.0099M7.44614 11.9199C7.44989 11.9612 7.50802 12.008 7.56989 11.9818M7.48364 11.9762C7.45927 11.9968 7.47052 12.0474 7.50427 12.0643M7.35802 11.9705C7.34864 12.008 7.41239 12.0755 7.47802 12.0324M7.37114 12.0137C7.33364 12.0455 7.33739 12.0905 7.38614 12.098M7.27739 12.0099C7.27364 12.0362 7.30552 12.0774 7.34677 12.0718M7.07114 12.008C7.03364 12.0287 7.13114 12.1337 7.19302 12.0362M6.97552 12.0512C6.92677 12.0737 7.04677 12.1899 7.10114 12.0718M7.28864 12.0474C7.25114 12.0549 7.22677 12.1093 7.25864 12.1318M7.16489 12.0662C7.16114 12.0887 7.20802 12.1224 7.24552 12.1112M7.13489 12.0755C7.09739 12.098 7.11802 12.1618 7.16114 12.1524M7.00552 12.1187C6.97177 12.143 6.99614 12.1937 7.04302 12.1824M7.06739 12.1149C7.06739 12.128 7.09927 12.1487 7.12364 12.1393M6.88927 12.0924C6.84614 12.1112 6.84989 12.2162 6.99239 12.1599M6.79364 12.1355C6.73364 12.1637 6.75427 12.2443 6.88364 12.1674M6.89302 12.173C6.87802 12.1862 6.86114 12.2387 6.92114 12.218M6.78614 12.1993C6.76177 12.2199 6.77677 12.2649 6.82927 12.248M6.66052 12.2068C6.61739 12.2312 6.71302 12.2649 6.77677 12.1974M6.69052 12.2368C6.67177 12.2555 6.67177 12.3137 6.72052 12.293M6.56677 12.2612C6.53864 12.2818 6.58552 12.3118 6.67927 12.2705M6.60427 12.2912C6.56864 12.3193 6.57239 12.3549 6.62302 12.3437M6.50302 12.3062C6.46552 12.3418 6.51989 12.3643 6.58552 12.3362M6.50302 12.3455C6.43927 12.3737 6.46739 12.428 6.50677 12.4074M8.64052 12.5293C8.62552 12.5612 8.67427 12.5874 8.72114 12.5799C8.76427 12.5743 8.80739 12.5368 8.77364 12.4862M8.77552 12.5499C8.82052 12.5837 8.89739 12.5443 8.89739 12.4937" stroke="black" stroke-width="0.0075"/>
<path d="M11.44 7.43127C11.2468 7.33752 10.8456 7.15752 10.7312 7.30189C10.8362 7.25877 11.14 7.30377 11.3912 7.53627L11.44 7.43314V7.43127Z" fill="white" stroke="black" stroke-width="0.0075"/>
<path d="M11.5563 7.42186C11.3331 7.16124 11.2 7.21936 11.0406 7.13124C10.8906 7.04686 10.6506 7.02999 10.6038 7.16311C10.8231 7.05624 11.0256 7.21936 11.1513 7.24186C11.32 7.26811 11.4175 7.40124 11.4681 7.46124L11.5563 7.42374V7.42186ZM12.3981 7.38811C12.2819 7.12374 12.0344 7.19311 11.9256 7.08061C11.7663 6.91561 11.3631 6.76186 11.1944 6.87624C11.5619 6.85749 11.7194 7.12936 11.9144 7.22499C12.055 7.29249 12.205 7.43686 12.3981 7.38811Z" fill="white" stroke="black" stroke-width="0.0075"/>
<path d="M11.963 7.36004C11.7661 7.11441 11.4605 6.89692 11.3217 6.97754C11.5055 6.98879 11.5636 7.11629 11.693 7.19879C11.8242 7.27942 11.7661 7.39942 11.963 7.36004ZM11.0217 7.79504C10.8155 7.71817 10.4086 7.67879 10.2192 7.91504C10.5342 7.96942 11.0067 7.93942 11.0217 7.79504Z" fill="white" stroke="black" stroke-width="0.0075"/>
<path d="M10.9822 7.88677C10.776 7.78927 10.6128 7.92427 10.4178 7.90552C10.0466 7.86802 9.78033 7.89052 9.74658 8.07052C9.95846 7.87927 10.3166 8.03677 10.461 7.99739C10.6053 7.95989 11.1416 7.99177 11.3103 8.06489C11.2241 7.95802 11.0891 7.92989 10.9822 7.88677ZM11.6347 7.33364C11.586 7.17427 11.5897 7.00552 11.8278 7.01677C11.7678 6.94177 11.5466 6.90427 11.5091 7.18364C11.2466 6.99052 10.9578 6.95677 10.9053 7.12364C11.0403 7.00739 11.2503 7.09177 11.5016 7.37677C11.5434 7.35548 11.5883 7.34093 11.6347 7.33364Z" fill="white" stroke="black" stroke-width="0.0075"/>
<path d="M11.2727 7.5531C11.1227 7.4556 10.9202 7.29997 11.2746 7.23622C11.1246 7.1556 10.8996 7.19122 10.924 7.4706C10.519 7.30747 10.2284 7.36185 10.1665 7.52497C10.099 7.7031 10.3502 7.80247 10.3934 7.6881C10.3484 7.70685 10.1909 7.65435 10.2734 7.5531C10.3559 7.45185 10.7759 7.52872 11.1752 7.73685C11.2877 7.7931 11.6684 7.7856 11.2727 7.5531Z" fill="white" stroke="black" stroke-width="0.0075"/>
<path d="M11.1664 7.81923C11.052 7.58298 10.677 7.79673 10.602 7.56798C10.497 7.9036 11.1345 7.71798 11.1664 7.81923ZM13.5495 8.07423C13.6282 8.1136 13.6957 8.05173 13.5757 8.00485C13.6545 8.04235 13.7239 7.98423 13.6039 7.93548C13.6826 7.97298 13.7501 7.91485 13.6301 7.8661C13.5982 7.89798 13.5532 8.0161 13.5495 8.07423ZM13.5907 7.62048C13.7651 7.43673 13.5776 7.37485 13.7895 7.18548C13.9639 7.03173 13.8232 6.9286 13.9864 6.81048C14.0407 6.7711 14.1551 6.69423 14.1664 6.61548C14.2357 6.78985 13.9489 6.81423 13.9676 7.0936C13.9807 7.27173 13.8589 7.25673 13.8139 7.5586C13.8045 7.62048 13.7595 7.7611 13.5907 7.62048Z" fill="white" stroke="black" stroke-width="0.0075"/>
<path d="M13.6672 7.70316C13.7647 7.49691 13.8754 7.49879 13.9297 7.41816C14.031 7.26254 14.2447 7.44441 14.4266 7.30566C14.3947 7.50254 14.151 7.43316 14.0441 7.55879C13.9391 7.68441 13.851 7.74066 13.6691 7.70316H13.6672Z" fill="white" stroke="black" stroke-width="0.0075"/>
<path d="M13.6935 7.77066C13.8623 7.63566 13.986 7.72566 14.1023 7.65441C14.3967 7.47628 14.5148 7.69191 14.7773 7.60566C14.7098 7.77441 14.3198 7.63003 14.151 7.75566C13.9823 7.88128 13.3879 8.00316 13.6917 7.77066H13.6935ZM13.2004 8.73441C13.1967 8.65753 13.1254 8.55816 13.0242 8.54691C12.9229 8.53378 12.8779 8.42691 12.801 8.42316C12.7242 8.41753 12.6735 8.26378 12.5667 8.26566C12.4617 8.26753 12.4167 8.40628 12.666 8.53191C12.9154 8.65753 13.191 8.80191 13.2004 8.73441ZM12.8854 8.80003C12.7804 8.80378 12.7654 8.95941 12.6642 8.96316C12.8029 9.03816 12.906 8.92941 12.9773 8.83191L12.8873 8.80003H12.8854Z" fill="white" stroke="black" stroke-width="0.0075"/>
<path d="M12.9736 8.81885C12.8799 8.89572 12.8536 9.05697 12.9867 9.10385C12.908 8.99322 13.1274 8.94447 13.0599 8.84135L12.9736 8.81885Z" fill="white" stroke="black" stroke-width="0.0075"/>
<path d="M13.0634 8.82433C12.9921 8.96308 13.1777 8.97995 13.129 9.08683C13.2359 9.06245 13.2527 8.86183 13.1552 8.80933L13.0634 8.82245V8.82433Z" fill="white" stroke="black" stroke-width="0.0075"/>
<path d="M12.3547 8.52446C12.5291 8.51509 12.6866 8.60884 12.7935 8.76071C12.861 8.85634 13.0879 8.89571 13.1666 8.81696C13.2416 8.74196 13.2004 8.57696 13.0072 8.62946C12.9585 8.54884 12.8197 8.57696 12.7504 8.50946C12.6829 8.44196 12.4222 8.24884 12.3547 8.52446Z" fill="white" stroke="black" stroke-width="0.0075"/>
<path d="M13.0072 8.63111C12.9604 8.64049 12.9454 8.71924 12.9754 8.76049L13.0072 8.63111ZM13.1066 8.67799C13.1197 8.70236 13.1104 8.73611 13.1029 8.75299L13.1066 8.67799ZM12.6304 8.53174C12.7185 8.53549 12.7354 8.60111 12.8329 8.62549L12.6304 8.53174Z" fill="white"/>
<path d="M13.0072 8.63111C12.9604 8.64049 12.9454 8.71924 12.9754 8.76049M13.1066 8.67799C13.1197 8.70236 13.1104 8.73611 13.1029 8.75299M12.6304 8.53174C12.7185 8.53549 12.7354 8.60111 12.8329 8.62549" stroke="black" stroke-width="0.0075" stroke-linecap="round"/>
<path d="M12.5704 8.31249C12.8139 8.36009 13.0507 8.43755 13.2754 8.54311C13.4272 8.62936 13.6635 8.65561 13.8679 8.59561C14.0741 8.53936 14.4716 8.48499 14.451 8.74186C14.5597 8.61249 14.4229 8.47561 14.1472 8.45124C14.1529 8.32561 14.0179 8.21311 13.9222 8.28811C14.0104 8.27499 14.0872 8.44186 13.911 8.50936C13.9189 8.48031 13.9183 8.44959 13.9093 8.42085C13.9003 8.39211 13.8832 8.36656 13.8602 8.34722C13.8371 8.32788 13.8089 8.31556 13.779 8.31174C13.7492 8.30791 13.7188 8.31272 13.6916 8.32561C13.7741 8.34999 13.8604 8.49061 13.6729 8.54311C13.5547 8.57686 13.3841 8.53374 13.2566 8.45686C13.1291 8.37999 12.4129 8.10061 12.5704 8.31061V8.31249Z" fill="white" stroke="black" stroke-width="0.0075"/>
<path d="M13.3482 8.18684C13.2526 8.22996 13.3144 8.33121 13.1663 8.38934C13.0163 8.44559 12.9113 8.57871 12.9451 8.69309C13.0463 8.46996 13.2263 8.48121 13.2882 8.39309C13.3519 8.30684 13.4438 8.17934 13.3482 8.18684Z" fill="white" stroke="black" stroke-width="0.0075"/>
<path d="M13.375 8.2C13.3713 8.37625 13.2325 8.3125 13.2869 8.56C13.3038 8.63688 13.3357 8.7625 13.2813 8.88813C13.4369 8.77563 13.3375 8.5375 13.4069 8.4475C13.4407 8.4025 13.4857 8.335 13.5007 8.27875C13.465 8.37813 13.4688 8.5675 13.5663 8.61625C13.4875 8.42875 13.7819 8.27313 13.5794 8.05375C13.5494 8.11 13.4575 8.20375 13.3769 8.2H13.375ZM12.8838 8.02375C12.9082 8.06125 12.9325 8.15125 12.91 8.20375C12.9588 8.17375 13.0282 8.09875 13.0507 8.04813C13.15 8.06313 13.1875 8.185 13.0938 8.23938C13.15 8.23938 13.2513 8.23938 13.3057 8.17375C13.2382 8.09875 13.0282 7.9825 12.8838 8.02375Z" fill="white" stroke="black" stroke-width="0.0075"/>
<path d="M11.3815 7.67698C11.3553 7.65677 11.3243 7.64383 11.2915 7.63948C11.1452 7.60948 11.2221 7.47823 11.3459 7.48011C11.6121 7.18948 11.7602 7.41261 12.0846 7.32261C12.1971 7.28886 12.2759 7.29823 12.3359 7.32636C12.4821 7.22886 12.6509 7.25511 12.7746 7.36948C12.7871 7.34798 12.8071 7.33192 12.8309 7.32448C12.9452 7.29261 13.0371 7.38823 13.069 7.51386C13.1571 7.49886 13.2584 7.54198 13.3259 7.60198C13.4177 7.55511 13.4796 7.55323 13.504 7.60198C13.5865 7.56448 13.6915 7.53823 13.7459 7.66948C13.8002 7.80073 13.6202 7.76136 13.5902 8.03698C13.5715 8.20573 13.384 8.27323 13.234 8.17198C12.994 8.00886 12.7596 7.98448 12.6434 8.22823C12.529 8.47573 12.4371 8.61823 12.1559 8.53761C12.0975 8.52435 12.0364 8.52888 11.9806 8.5506C11.9248 8.57232 11.8768 8.61024 11.8427 8.65948C11.7602 8.77198 11.6365 8.66698 11.4865 8.67823C11.674 8.65011 11.6009 8.60323 11.7659 8.59198C11.9159 8.58261 11.8765 8.44198 11.9721 8.42323C11.5971 8.51886 11.6102 8.37823 11.3009 8.47573C11.4359 8.30136 11.6496 8.39886 11.7546 8.29761C11.4752 8.29198 11.3496 8.11011 11.224 8.18511C11.0271 8.30698 11.1115 8.65011 10.5959 8.62011C10.3446 8.60698 10.1852 8.63886 10.0371 8.78886C10.2977 8.24886 10.6521 8.54511 10.8246 8.37448C10.9141 8.29396 10.9918 8.20116 11.0552 8.09886C11.0626 8.08402 11.0732 8.07096 11.0861 8.0606C11.0991 8.05024 11.1141 8.04282 11.1302 8.03886C10.7009 7.90386 10.9615 7.69198 11.3815 7.67698Z" fill="white" stroke="black" stroke-width="0.0075"/>
<path d="M13.5041 7.59985C13.5098 7.61485 13.5135 7.6336 13.5135 7.6561C13.5135 7.7611 13.3541 7.76485 13.3448 7.92235C13.3391 8.00485 13.3298 8.04985 13.2754 8.04048C13.2191 8.0311 13.1704 7.94485 13.2229 7.8436" fill="white"/>
<path d="M13.5041 7.59985C13.5098 7.61485 13.5135 7.6336 13.5135 7.6561C13.5135 7.7611 13.3541 7.76485 13.3448 7.92235C13.3391 8.00485 13.3298 8.04985 13.2754 8.04048C13.2191 8.0311 13.1704 7.94485 13.2229 7.8436" stroke="black" stroke-width="0.0075" stroke-linecap="round"/>
<path d="M11.4624 7.51946C11.4286 7.49474 11.3881 7.48099 11.3462 7.48009L11.4624 7.51946ZM12.3362 7.32446C12.4637 7.38071 12.5256 7.51196 12.7112 7.51946C12.8912 7.52509 13.0018 7.78571 13.3018 7.61509C13.3092 7.61121 13.3168 7.60746 13.3243 7.60384M12.7749 7.36946C12.7492 7.41631 12.7399 7.47047 12.7487 7.52321L12.7749 7.36946ZM12.1899 7.91696C11.9649 7.91696 11.9049 8.03134 11.9049 8.14196C11.9049 8.25446 12.0118 8.39884 12.1993 8.39884C12.3868 8.39884 12.4899 8.28259 12.4899 8.15696C12.4899 8.03134 12.3737 7.91509 12.1899 7.91509V7.91696Z" fill="white"/>
<path d="M11.4624 7.51946C11.4286 7.49474 11.3881 7.48099 11.3462 7.48009M12.3362 7.32446C12.4637 7.38071 12.5256 7.51196 12.7112 7.51946C12.8912 7.52509 13.0018 7.78571 13.3018 7.61509C13.3093 7.61121 13.3168 7.60746 13.3243 7.60384M12.7749 7.36946C12.7492 7.41631 12.7399 7.47047 12.7487 7.52321M12.1899 7.91696C11.9649 7.91696 11.9049 8.03134 11.9049 8.14196C11.9049 8.25446 12.0118 8.39884 12.1993 8.39884C12.3868 8.39884 12.4899 8.28259 12.4899 8.15696C12.4899 8.03134 12.3737 7.91509 12.1899 7.91509V7.91696Z" stroke="black" stroke-width="0.0075"/>
<path d="M12.2306 8.39335C12.2269 8.33147 12.1125 8.34085 12.1181 8.2921C12.1219 8.24335 12.18 8.2246 12.18 8.1571C12.18 8.0896 12.2812 8.08397 12.315 8.13835C12.3487 8.19085 12.45 8.29397 12.4725 8.24147M12.315 8.13835C12.284 8.17134 12.2662 8.21451 12.2648 8.25974C12.2634 8.30497 12.2786 8.34915 12.3075 8.38397M12.3881 8.21897C12.3694 8.25647 12.3656 8.31272 12.3862 8.34647L12.3881 8.21897Z" fill="white"/>
<path d="M12.2306 8.39335C12.2269 8.33147 12.1125 8.34085 12.1181 8.2921C12.1219 8.24335 12.18 8.2246 12.18 8.1571C12.18 8.0896 12.2812 8.08397 12.315 8.13835C12.3487 8.19085 12.45 8.29397 12.4725 8.24147M12.315 8.13835C12.284 8.17134 12.2662 8.21451 12.2648 8.25974C12.2634 8.30497 12.2786 8.34915 12.3075 8.38397M12.3881 8.21897C12.3694 8.25647 12.3656 8.31272 12.3862 8.34647" stroke="black" stroke-width="0.0075"/>
<path d="M13.2901 8.04258C13.4683 8.05758 13.4964 7.86071 13.3651 7.84946M13.0708 7.51571C13.0108 7.43696 12.8683 7.41071 12.8645 7.57571" stroke="black" stroke-width="0.0075"/>
<path d="M12.8499 7.76485C12.7899 7.61485 12.6343 7.59422 12.5536 7.66922C12.4843 7.7311 12.4824 7.89422 12.6286 7.92797C12.6811 7.8661 12.7786 7.78735 12.8499 7.76485ZM12.7843 7.6711C12.6961 7.59422 12.5686 7.74047 12.6849 7.8736L12.7843 7.6711ZM11.1286 8.03672C11.1886 8.0236 11.273 8.05172 11.4043 8.11172C11.4849 8.1511 11.7324 8.2336 11.8861 8.1511C11.7268 8.20922 11.6049 7.96922 11.4849 7.99735C11.3649 8.02735 11.1436 8.07235 11.0518 7.98235C11.2768 7.99735 11.3986 7.81735 11.6593 7.97297C11.7329 8.01866 11.8182 8.0421 11.9049 8.04047C11.693 7.78547 11.4136 7.9486 11.3836 7.74047C11.5111 7.87922 11.8243 7.71047 11.9836 7.96735M11.4305 7.77985C11.4005 7.74235 11.4118 7.70485 11.3818 7.67672L11.4305 7.77985Z" fill="white"/>
<path d="M12.7843 7.6711C12.6961 7.59422 12.5686 7.74047 12.6849 7.8736M11.1286 8.03672C11.1886 8.0236 11.273 8.05172 11.4043 8.11172C11.4849 8.1511 11.7324 8.2336 11.8861 8.1511C11.7268 8.20922 11.6049 7.96922 11.4849 7.99735C11.3649 8.02735 11.1436 8.07235 11.0518 7.98235C11.2768 7.99735 11.3986 7.81735 11.6593 7.97297C11.7329 8.01866 11.8182 8.0421 11.9049 8.04047C11.693 7.78547 11.4136 7.9486 11.3836 7.74047C11.5111 7.87922 11.8243 7.71047 11.9836 7.96735M11.4305 7.77985C11.4005 7.74235 11.4118 7.70485 11.3818 7.67672M12.8499 7.76485C12.7899 7.61485 12.6343 7.59422 12.5536 7.66922C12.4843 7.7311 12.4824 7.89422 12.6286 7.92797C12.6811 7.8661 12.7786 7.78735 12.8499 7.76485Z" stroke="black" stroke-width="0.0075"/>
<path d="M13.0713 7.51553C13.0188 7.45928 12.9025 7.5024 12.9363 7.61678C12.9486 7.5898 12.9673 7.56628 12.9909 7.54829C13.0144 7.5303 13.042 7.5184 13.0713 7.51365V7.51553ZM12.7432 7.8249C12.7754 7.79947 12.8115 7.77923 12.85 7.7649C12.8353 7.72669 12.8107 7.69306 12.7788 7.6674C12.7507 7.64865 12.6719 7.75553 12.7432 7.82303V7.8249Z" fill="black"/>
<path d="M12.6004 7.6281C12.5142 7.56998 12.4336 7.5756 12.4073 7.62248C12.3454 7.62248 12.2929 7.66748 12.2911 7.75748M12.4242 7.79685C12.3211 7.7256 12.1786 7.75185 12.1879 7.91123M12.1242 8.0031C12.1748 7.96185 12.2479 7.93185 12.3042 8.0031M12.9004 7.8456C12.8817 7.87185 12.8667 7.9131 12.8986 7.97685C12.8611 7.92435 12.7636 7.92435 12.6586 8.05935M13.1292 7.8381C13.0036 7.8531 13.0073 7.9356 13.1086 7.96935M12.2367 7.5306C12.1298 7.50998 12.0529 7.57185 12.1992 7.62435M12.4392 7.45935C12.2892 7.42185 12.2292 7.46123 12.2967 7.49685M12.0061 8.05935C12.0023 8.11373 12.0304 8.1831 12.1186 8.10435M12.0361 8.21873C12.0361 8.23373 12.0342 8.2506 12.0229 8.26373M11.6873 7.51373C11.5954 7.4856 11.5786 7.40123 11.6873 7.40873M11.6573 7.70873C11.5561 7.6731 11.5561 7.5756 11.6386 7.58498M11.8448 7.65623C11.7267 7.6281 11.7229 7.5456 11.8111 7.55873M11.8598 7.40498C11.7961 7.40123 11.7004 7.4706 11.8617 7.51185M12.0361 7.5456C11.8879 7.52498 11.8917 7.5831 11.9779 7.62248M12.1467 7.40498C12.0342 7.38435 11.9948 7.45185 12.0717 7.47998M11.7904 7.8231C11.7623 7.8006 11.7398 7.69185 11.8711 7.72373M12.0642 7.78935C11.9761 7.76498 11.8917 7.8531 11.9723 7.90185M12.1823 7.68623C12.0886 7.66748 12.0098 7.6956 12.0604 7.72935" stroke="black" stroke-width="0.0075" stroke-linecap="round"/>
<path d="M13.067 7.51562C13.0387 7.52075 13.0119 7.53262 12.9891 7.55024C12.9662 7.56786 12.948 7.59072 12.9358 7.61688" fill="white"/>
<path d="M13.067 7.51562C13.0387 7.52075 13.0119 7.53262 12.9891 7.55024C12.9662 7.56786 12.948 7.59072 12.9358 7.61688" stroke="black" stroke-width="0.0075"/>
</g>
<defs>
<clipPath id="clip0_823_2783">
<rect x="4" y="5.5" width="12" height="9" rx="1" fill="white"/>
</clipPath>
</defs>
</svg>
