<svg width="21" height="21" viewBox="0 0 21 21" fill="none" xmlns="http://www.w3.org/2000/svg">
<path fill-rule="evenodd" clip-rule="evenodd" d="M7.28797 2.22723C7.43916 2.33478 7.54148 2.49794 7.57246 2.68088C7.60345 2.86381 7.56057 3.05156 7.45323 3.2029C7.27647 3.45179 7.13097 3.72146 7.02001 4.00585C7.19274 4.16457 7.37667 4.31302 7.57087 4.44747C7.9202 4.00522 8.36524 3.64792 8.87254 3.40243C9.37984 3.15695 9.93619 3.02967 10.4998 3.03018C11.6874 3.03018 12.7452 3.58477 13.4286 4.44747C13.6228 4.31302 13.8068 4.16551 13.9795 4.00585C13.8686 3.72146 13.7231 3.45179 13.5463 3.2029C13.4445 3.05142 13.4058 2.86617 13.4385 2.6866C13.4713 2.50703 13.5729 2.34735 13.7216 2.24157C13.8704 2.13579 14.0545 2.09227 14.2349 2.12028C14.4153 2.1483 14.5776 2.24564 14.6872 2.39155C15.0317 2.87612 15.2941 3.42325 15.4547 4.01239C15.4859 4.12715 15.4874 4.24798 15.4589 4.36347C15.4305 4.47896 15.3731 4.58531 15.2922 4.67248C14.9309 5.06203 14.5237 5.40627 14.0794 5.69764C14.1824 6.04399 14.2346 6.40346 14.2344 6.76481C14.2344 7.25032 13.9534 7.66393 13.5594 7.87307C13.2134 8.05659 12.8515 8.20846 12.4782 8.32682C12.5996 8.52102 12.6939 8.7339 12.7545 8.96078C14.0738 8.79832 15.3492 8.49395 16.5648 8.06447C16.5795 7.34172 16.5514 6.61874 16.4808 5.89931C16.4718 5.80778 16.481 5.71539 16.5078 5.6274C16.5345 5.53942 16.5783 5.45756 16.6367 5.38651C16.6951 5.31546 16.7669 5.25661 16.8481 5.21331C16.9292 5.17002 17.0181 5.14313 17.1096 5.13418C17.2011 5.12523 17.2935 5.13439 17.3815 5.16115C17.4695 5.18791 17.5513 5.23173 17.6224 5.29012C17.6934 5.34851 17.7523 5.42033 17.7956 5.50146C17.8389 5.5826 17.8658 5.67147 17.8747 5.763C17.9669 6.70239 17.9918 7.64717 17.9494 8.59012C17.9433 8.72648 17.8974 8.85808 17.8175 8.96872C17.7375 9.07937 17.6269 9.16423 17.4994 9.21287C15.9518 9.80451 14.335 10.1964 12.6883 10.379C12.6591 10.4576 12.6258 10.5346 12.5884 10.6096C14.2671 10.7866 15.9158 11.1811 17.4929 11.7832C17.631 11.8363 17.7487 11.9317 17.8292 12.0558C17.9098 12.18 17.9489 12.3264 17.941 12.4741C17.8574 14.0925 17.5729 15.6942 17.0942 17.2423C17.067 17.3302 17.0227 17.4118 16.964 17.4826C16.9052 17.5533 16.8331 17.6118 16.7517 17.6547C16.6703 17.6975 16.5813 17.724 16.4897 17.7324C16.3982 17.7409 16.3058 17.7312 16.218 17.704C16.1301 17.6768 16.0485 17.6325 15.9777 17.5738C15.907 17.515 15.8485 17.4429 15.8056 17.3615C15.7628 17.2802 15.7363 17.1911 15.7279 17.0996C15.7194 17.008 15.729 16.9156 15.7563 16.8278C16.1437 15.5767 16.4005 14.2668 16.5088 12.9158C16.0466 12.7533 15.5751 12.6095 15.0971 12.4853C15.1438 12.7505 15.1681 13.0222 15.1681 13.3004C15.1681 14.9941 14.6854 16.3927 13.8367 17.3805C13.4256 17.8628 12.9138 18.2491 12.3372 18.5121C11.7607 18.775 11.1334 18.9083 10.4998 18.9024C9.8661 18.9082 9.23888 18.7749 8.66232 18.512C8.08576 18.249 7.57392 17.8628 7.16286 17.3805C6.31324 16.3918 5.83147 14.9931 5.83147 13.3004C5.83147 13.0222 5.85574 12.7496 5.90243 12.4853C5.42346 12.6095 4.95289 12.7533 4.49073 12.9148C4.59904 14.2668 4.85486 15.5757 5.24326 16.8278C5.29823 17.0052 5.28047 17.1972 5.19389 17.3615C5.10731 17.5259 4.95899 17.6491 4.78157 17.704C4.60415 17.759 4.41216 17.7412 4.24783 17.6547C4.0835 17.5681 3.9603 17.4198 3.90533 17.2423C3.42622 15.6942 3.14144 14.0925 3.05757 12.4741C3.04984 12.3262 3.08924 12.1796 3.1701 12.0554C3.25097 11.9313 3.36913 11.836 3.50759 11.7832C5.08435 11.1812 6.73269 10.7867 8.41117 10.6096C8.37372 10.5346 8.34037 10.4576 8.31126 10.379C6.6645 10.1964 5.04775 9.80451 3.50012 9.21287C3.37257 9.16423 3.26202 9.07937 3.18207 8.96872C3.10212 8.85808 3.05624 8.72648 3.0501 8.59012C3.008 7.64716 3.03296 6.70241 3.12479 5.763C3.13374 5.67147 3.16063 5.5826 3.20393 5.50146C3.24722 5.42033 3.30608 5.34851 3.37712 5.29012C3.44817 5.23173 3.53003 5.18791 3.61801 5.16115C3.706 5.13439 3.7984 5.12523 3.88992 5.13418C3.98145 5.14313 4.07032 5.17002 4.15146 5.21331C4.23259 5.25661 4.30441 5.31546 4.3628 5.38651C4.42119 5.45756 4.46501 5.53942 4.49177 5.6274C4.51853 5.71539 4.52769 5.80778 4.51874 5.89931C4.44827 6.61907 4.42021 7.34235 4.43471 8.0654C5.65034 8.49395 6.92572 8.79832 8.24404 8.96078C8.30566 8.7339 8.39903 8.52102 8.52134 8.32682C8.14801 8.20845 7.78615 8.05658 7.44016 7.87307C7.2376 7.76707 7.06773 7.6079 6.9488 7.41264C6.82987 7.21739 6.76637 6.99343 6.76513 6.76481C6.76489 6.40346 6.81709 6.04399 6.92011 5.69764C6.47552 5.40631 6.06795 5.06207 5.70636 4.67248C5.62561 4.58522 5.56841 4.47883 5.54015 4.36334C5.51189 4.24786 5.5135 4.12708 5.54483 4.01239C5.70324 3.43114 5.96305 2.88243 6.3123 2.39155C6.36563 2.31664 6.4332 2.25296 6.51115 2.20415C6.58909 2.15535 6.67588 2.12238 6.76657 2.10712C6.85726 2.09186 6.95006 2.09461 7.03969 2.11522C7.12931 2.13583 7.21306 2.17389 7.28797 2.22723Z" fill="black"/>
</svg>
