<svg width="21" height="21" viewBox="0 0 21 21" fill="none" xmlns="http://www.w3.org/2000/svg">
<path d="M10.5003 11.1151C11.4415 11.1151 12.3679 11.1807 13.2739 11.3094C14.1241 11.4291 14.8037 12.1014 14.8037 12.9598C14.8037 16.0162 12.8771 18.4938 10.4995 18.4938C8.12194 18.4938 6.19611 16.0162 6.19611 12.9598C6.19611 12.1022 6.87659 11.4291 7.72595 11.3094C8.64506 11.1799 9.57213 11.1149 10.5003 11.1151ZM10.5003 11.1151C12.864 11.1151 15.13 11.5316 17.2288 12.2957C17.1299 13.9856 16.8124 15.6556 16.2844 17.264M10.5003 11.1151C8.1367 11.1151 5.87063 11.5316 3.771 12.2957C3.87348 14.0207 4.19732 15.6866 4.71628 17.264M10.5003 11.1151C10.7498 11.1152 10.9966 11.0646 11.226 10.9665C11.4554 10.8684 11.6624 10.7249 11.8347 10.5445C12.007 10.364 12.1409 10.1506 12.2283 9.91693C12.3157 9.6833 12.3549 9.43436 12.3433 9.18518M10.5003 11.1151C10.2509 11.1152 10.004 11.0646 9.77465 10.9665C9.54529 10.8684 9.33821 10.7249 9.16593 10.5445C8.99365 10.364 8.85975 10.1506 8.77233 9.91693C8.6849 9.6833 8.64577 9.43436 8.6573 9.18518M12.3433 9.18518C12.3214 8.71116 12.1176 8.26382 11.7744 7.93615C11.4312 7.60849 10.9749 7.4257 10.5003 7.42578M12.3433 9.18518C13.7994 9.05031 15.2365 8.75276 16.6262 8.2981C16.5812 7.37413 16.4729 6.46656 16.3049 5.58112M8.6573 9.18518C8.67924 8.71116 8.883 8.26382 9.22624 7.93615C9.56948 7.60849 10.0258 7.4257 10.5003 7.42578M8.6573 9.18518C7.17583 9.04745 5.74274 8.74574 4.37523 8.2981C4.41931 7.38609 4.52669 6.47825 4.69661 5.58112M10.5003 7.42578C11.3161 7.42578 12.1163 7.36019 12.8959 7.2323C13.2263 7.17819 13.5026 6.93879 13.5477 6.60757C13.6317 5.97366 13.5174 5.32929 13.2206 4.76291M10.5003 7.42578C9.68457 7.42578 8.88522 7.36019 8.10472 7.2323C7.77514 7.17819 7.49803 6.93879 7.45294 6.60757C7.36626 5.97272 7.48096 5.32667 7.78088 4.76045M7.78088 4.76045C7.43167 4.5279 7.11347 4.25267 6.83396 3.93978C6.89135 3.42327 7.05532 2.93792 7.30455 2.5075M7.78088 4.76045C8.04188 4.26521 8.43313 3.85145 8.91244 3.56225C9.39176 3.27305 9.94093 3.12021 10.5007 3.12021C11.0605 3.12021 11.6097 3.27305 12.089 3.56225C12.5683 3.85145 12.9596 4.26603 13.2206 4.76127C13.5707 4.52925 13.8888 4.25296 14.1675 3.94224C14.1119 3.43589 13.9513 2.9467 13.6961 2.50586" stroke="black" stroke-width="1.5" stroke-linecap="round" stroke-linejoin="round"/>
</svg>
