<svg width="21" height="21" viewBox="0 0 21 21" fill="none" xmlns="http://www.w3.org/2000/svg">
<path fill-rule="evenodd" clip-rule="evenodd" d="M14.3924 4.65414V7.77547H16.7397C17.1439 7.77547 17.5316 7.93606 17.8175 8.22192C18.1033 8.50777 18.2639 8.89547 18.2639 9.29973V16.2922H18.2883C18.7025 16.2922 19.0383 16.628 19.0383 17.0422C19.0383 17.4564 18.7025 17.7922 18.2883 17.7922H17.5216L17.5139 17.7923L17.5063 17.7922H2.80322C2.38901 17.7922 2.05322 17.4564 2.05322 17.0422C2.05322 16.628 2.38901 16.2922 2.80322 16.2922H2.82715V4.65414C2.82715 4.24988 2.98774 3.86218 3.27359 3.57633C3.55944 3.29047 3.94714 3.12988 4.3514 3.12988H12.8682C13.2724 3.12988 13.6601 3.29047 13.946 3.57633C14.2318 3.86218 14.3924 4.24988 14.3924 4.65414ZM10.739 16.3862C10.38 16.3862 10.089 16.0952 10.089 15.7362V14.359H7.13061V15.7362C7.13061 16.0952 6.8396 16.3862 6.48061 16.3862C6.12163 16.3862 5.83061 16.0952 5.83061 15.7362V13.709C5.83061 13.35 6.12163 13.059 6.48061 13.059H10.739C11.098 13.059 11.389 13.35 11.389 13.709V15.7362C11.389 16.0952 11.098 16.3862 10.739 16.3862ZM6.48041 9.71094C6.06619 9.71094 5.73041 10.0467 5.73041 10.4609C5.73041 10.8752 6.06619 11.2109 6.48041 11.2109H10.7388C11.153 11.2109 11.4888 10.8752 11.4888 10.4609C11.4888 10.0467 11.153 9.71094 10.7388 9.71094H6.48041ZM15.9612 16.384C15.547 16.384 15.2112 16.0482 15.2112 15.634V10.461C15.2112 10.0468 15.547 9.71098 15.9612 9.71098C16.3754 9.71098 16.7112 10.0468 16.7112 10.461V15.634C16.7112 16.0482 16.3754 16.384 15.9612 16.384ZM6.48041 6.4021C6.06619 6.4021 5.73041 6.73789 5.73041 7.1521C5.73041 7.56631 6.06619 7.9021 6.48041 7.9021H10.7388C11.153 7.9021 11.4888 7.56631 11.4888 7.1521C11.4888 6.73789 11.153 6.4021 10.7388 6.4021H6.48041Z" fill="black"/>
</svg>
