<svg width="21" height="21" viewBox="0 0 21 21" fill="none" xmlns="http://www.w3.org/2000/svg">
<path d="M17.5143 17.0422V9.29964C17.5143 9.0943 17.4328 8.89736 17.2876 8.75216C17.1424 8.60696 16.9454 8.52539 16.7401 8.52539H13.6431" stroke="black" stroke-width="1.5" stroke-linecap="round" stroke-linejoin="round"/>
<path d="M3.57715 17.0422V4.65414C3.57715 4.44879 3.65872 4.25186 3.80392 4.10666C3.94912 3.96146 4.14606 3.87988 4.3514 3.87988H12.8682C13.0735 3.87988 13.2705 3.96146 13.4157 4.10666C13.5609 4.25186 13.6424 4.44879 13.6424 4.65414V17.0422" stroke="black" stroke-width="1.5" stroke-linecap="round" stroke-linejoin="round"/>
<path d="M6.48047 7.1521H10.7389" stroke="black" stroke-width="1.5" stroke-linecap="round" stroke-linejoin="round"/>
<path d="M6.48047 10.4609H10.7389" stroke="black" stroke-width="1.5" stroke-linecap="round" stroke-linejoin="round"/>
<path d="M6.48096 17.0423H10.7394V13.709H6.48096V17.0423Z" stroke="black" stroke-width="1.5" stroke-linecap="round" stroke-linejoin="round"/>
<path d="M18.2888 17.0422H2.80371" stroke="black" stroke-width="1.5" stroke-linecap="round" stroke-linejoin="round"/>
</svg>
