<svg width="21" height="21" viewBox="0 0 21 21" fill="none" xmlns="http://www.w3.org/2000/svg">
<path d="M11.75 18V11.75C11.75 11.5842 11.8159 11.4253 11.9331 11.3081C12.0503 11.1908 12.2093 11.125 12.375 11.125H14.875C15.0408 11.125 15.1997 11.1908 15.317 11.3081C15.4342 11.4253 15.5 11.5842 15.5 11.75V18M11.75 18H2.46668M11.75 18H15.5M15.5 18H18.5333M17.375 18V8.29083M17.375 8.29083C17.7072 8.09909 17.9908 7.83349 18.2038 7.51459C18.4169 7.1957 18.5538 6.83205 18.6038 6.45179C18.6538 6.07154 18.6157 5.68487 18.4924 5.32171C18.369 4.95855 18.1638 4.62864 17.8925 4.3575L16.9008 3.36667C16.6667 3.13218 16.3489 3.00029 16.0175 3H4.98168C4.65027 3.00029 4.33254 3.13218 4.09835 3.36667L3.10751 4.35667C2.83688 4.62811 2.63219 4.95809 2.50924 5.32114C2.38628 5.6842 2.34834 6.07064 2.39834 6.45068C2.44834 6.83072 2.58495 7.1942 2.79763 7.51309C3.0103 7.83199 3.29337 8.09779 3.62501 8.29M17.375 8.29083C16.8751 8.57925 16.2908 8.68504 15.7212 8.59178C15.1516 8.49852 14.6319 8.21112 14.25 7.77833C13.7917 8.2975 13.1217 8.625 12.375 8.625C12.0202 8.62534 11.6695 8.55 11.3462 8.40399C11.0228 8.25799 10.7344 8.04469 10.5 7.77833C10.0417 8.2975 9.37168 8.625 8.62501 8.625C8.27031 8.62545 7.91959 8.55023 7.59626 8.40437C7.27293 8.25852 6.98443 8.04537 6.75001 7.77917C6.36828 8.21209 5.84855 8.49965 5.27897 8.59306C4.70939 8.68647 4.12503 8.57999 3.62501 8.29167V17.9992M6.12501 15.4992H9.25001C9.41577 15.4992 9.57474 15.4333 9.69195 15.3161C9.80916 15.1989 9.87501 15.0399 9.87501 14.8742V11.75C9.87501 11.5842 9.80916 11.4253 9.69195 11.3081C9.57474 11.1908 9.41577 11.125 9.25001 11.125H6.12501C5.95925 11.125 5.80028 11.1908 5.68307 11.3081C5.56586 11.4253 5.50001 11.5842 5.50001 11.75V14.875C5.50001 15.2208 5.78001 15.4992 6.12501 15.4992Z" stroke="black" stroke-width="1.5" stroke-linecap="round" stroke-linejoin="round"/>
</svg>
