<svg width="21" height="21" viewBox="0 0 21 21" fill="none" xmlns="http://www.w3.org/2000/svg">
<path d="M16.0746 15.7651V9.57106C16.0746 9.40678 16.0093 9.24924 15.8931 9.13308C15.777 9.01692 15.6194 8.95166 15.4551 8.95166H12.9775" stroke="black" stroke-width="1.5" stroke-linecap="round" stroke-linejoin="round"/>
<path d="M4.92529 15.765V5.85451C4.92529 5.69023 4.99055 5.53269 5.10671 5.41653C5.22287 5.30036 5.38042 5.23511 5.5447 5.23511H12.3581C12.5224 5.23511 12.6799 5.30036 12.7961 5.41653C12.9123 5.53269 12.9775 5.69023 12.9775 5.85451V15.765" stroke="black" stroke-width="1.5" stroke-linecap="round" stroke-linejoin="round"/>
<path d="M7.24756 7.85278H10.6543" stroke="black" stroke-width="1.5" stroke-linecap="round" stroke-linejoin="round"/>
<path d="M7.24756 10.5H10.6543" stroke="black" stroke-width="1.5" stroke-linecap="round" stroke-linejoin="round"/>
<path d="M7.24805 15.7651H10.6548V13.0984H7.24805V15.7651Z" stroke="black" stroke-width="1.5" stroke-linecap="round" stroke-linejoin="round"/>
<path d="M16.6942 15.7649H4.30615" stroke="black" stroke-width="1.5" stroke-linecap="round" stroke-linejoin="round"/>
</svg>
