<svg width="21" height="21" viewBox="0 0 21 21" fill="none" xmlns="http://www.w3.org/2000/svg">
<path d="M18 8H3V6.33333L10.5 3L18 6.33333V8Z" stroke="black" stroke-width="1.5" stroke-linejoin="round"/>
<path d="M8.83333 17.1667H3L3.72917 14.6667H8.83333" stroke="black" stroke-width="1.5" stroke-linecap="round" stroke-linejoin="round"/>
<path d="M4.6665 8V14.6667M7.99984 14.6667V8" stroke="black" stroke-width="1.5"/>
<path d="M17.6355 11.698L12.5312 16.8022" stroke="black" stroke-width="1.5" stroke-linecap="round" stroke-linejoin="round"/>
<path d="M12.7915 12.5833C13.1367 12.5833 13.4165 12.3035 13.4165 11.9583C13.4165 11.6131 13.1367 11.3333 12.7915 11.3333C12.4463 11.3333 12.1665 11.6131 12.1665 11.9583C12.1665 12.3035 12.4463 12.5833 12.7915 12.5833Z" stroke="black" stroke-width="1.5" stroke-linecap="round" stroke-linejoin="round"/>
<path d="M17.375 17.1667C17.7202 17.1667 18 16.8869 18 16.5417C18 16.1965 17.7202 15.9167 17.375 15.9167C17.0298 15.9167 16.75 16.1965 16.75 16.5417C16.75 16.8869 17.0298 17.1667 17.375 17.1667Z" stroke="black" stroke-width="1.5" stroke-linecap="round" stroke-linejoin="round"/>
</svg>
