<svg width="21" height="21" viewBox="0 0 21 21" fill="none" xmlns="http://www.w3.org/2000/svg">
<path d="M11.125 11.125C11.125 11.2908 11.0592 11.4497 10.9419 11.5669C10.8247 11.6842 10.6658 11.75 10.5 11.75C10.3342 11.75 10.1753 11.6842 10.0581 11.5669C9.94085 11.4497 9.875 11.2908 9.875 11.125C9.875 10.9592 9.94085 10.8003 10.0581 10.6831C10.1753 10.5658 10.3342 10.5 10.5 10.5C10.6658 10.5 10.8247 10.5658 10.9419 10.6831C11.0592 10.8003 11.125 10.9592 11.125 11.125ZM6.75 13.625C6.91576 13.625 7.07473 13.5592 7.19194 13.4419C7.30915 13.3247 7.375 13.1658 7.375 13C7.375 12.8342 7.30915 12.6753 7.19194 12.5581C7.07473 12.4408 6.91576 12.375 6.75 12.375C6.58424 12.375 6.42527 12.4408 6.30806 12.5581C6.19085 12.6753 6.125 12.8342 6.125 13C6.125 13.1658 6.19085 13.3247 6.30806 13.4419C6.42527 13.5592 6.58424 13.625 6.75 13.625ZM7.375 14.875C7.375 15.0408 7.30915 15.1997 7.19194 15.3169C7.07473 15.4342 6.91576 15.5 6.75 15.5C6.58424 15.5 6.42527 15.4342 6.30806 15.3169C6.19085 15.1997 6.125 15.0408 6.125 14.875C6.125 14.7092 6.19085 14.5503 6.30806 14.4331C6.42527 14.3158 6.58424 14.25 6.75 14.25C6.91576 14.25 7.07473 14.3158 7.19194 14.4331C7.30915 14.5503 7.375 14.7092 7.375 14.875ZM8.625 13.625C8.79076 13.625 8.94973 13.5592 9.06694 13.4419C9.18415 13.3247 9.25 13.1658 9.25 13C9.25 12.8342 9.18415 12.6753 9.06694 12.5581C8.94973 12.4408 8.79076 12.375 8.625 12.375C8.45924 12.375 8.30027 12.4408 8.18306 12.5581C8.06585 12.6753 8 12.8342 8 13C8 13.1658 8.06585 13.3247 8.18306 13.4419C8.30027 13.5592 8.45924 13.625 8.625 13.625ZM9.25 14.875C9.25 15.0408 9.18415 15.1997 9.06694 15.3169C8.94973 15.4342 8.79076 15.5 8.625 15.5C8.45924 15.5 8.30027 15.4342 8.18306 15.3169C8.06585 15.1997 8 15.0408 8 14.875C8 14.7092 8.06585 14.5503 8.18306 14.4331C8.30027 14.3158 8.45924 14.25 8.625 14.25C8.79076 14.25 8.94973 14.3158 9.06694 14.4331C9.18415 14.5503 9.25 14.7092 9.25 14.875ZM10.5 13.625C10.6658 13.625 10.8247 13.5592 10.9419 13.4419C11.0592 13.3247 11.125 13.1658 11.125 13C11.125 12.8342 11.0592 12.6753 10.9419 12.5581C10.8247 12.4408 10.6658 12.375 10.5 12.375C10.3342 12.375 10.1753 12.4408 10.0581 12.5581C9.94085 12.6753 9.875 12.8342 9.875 13C9.875 13.1658 9.94085 13.3247 10.0581 13.4419C10.1753 13.5592 10.3342 13.625 10.5 13.625ZM11.125 14.875C11.125 15.0408 11.0592 15.1997 10.9419 15.3169C10.8247 15.4342 10.6658 15.5 10.5 15.5C10.3342 15.5 10.1753 15.4342 10.0581 15.3169C9.94085 15.1997 9.875 15.0408 9.875 14.875C9.875 14.7092 9.94085 14.5503 10.0581 14.4331C10.1753 14.3158 10.3342 14.25 10.5 14.25C10.6658 14.25 10.8247 14.3158 10.9419 14.4331C11.0592 14.5503 11.125 14.7092 11.125 14.875ZM12.375 13.625C12.5408 13.625 12.6997 13.5592 12.8169 13.4419C12.9342 13.3247 13 13.1658 13 13C13 12.8342 12.9342 12.6753 12.8169 12.5581C12.6997 12.4408 12.5408 12.375 12.375 12.375C12.2092 12.375 12.0503 12.4408 11.9331 12.5581C11.8158 12.6753 11.75 12.8342 11.75 13C11.75 13.1658 11.8158 13.3247 11.9331 13.4419C12.0503 13.5592 12.2092 13.625 12.375 13.625ZM13 14.875C13 15.0408 12.9342 15.1997 12.8169 15.3169C12.6997 15.4342 12.5408 15.5 12.375 15.5C12.2092 15.5 12.0503 15.4342 11.9331 15.3169C11.8158 15.1997 11.75 15.0408 11.75 14.875C11.75 14.7092 11.8158 14.5503 11.9331 14.4331C12.0503 14.3158 12.2092 14.25 12.375 14.25C12.5408 14.25 12.6997 14.3158 12.8169 14.4331C12.9342 14.5503 13 14.7092 13 14.875ZM14.25 13.625C14.4158 13.625 14.5747 13.5592 14.6919 13.4419C14.8092 13.3247 14.875 13.1658 14.875 13C14.875 12.8342 14.8092 12.6753 14.6919 12.5581C14.5747 12.4408 14.4158 12.375 14.25 12.375C14.0842 12.375 13.9253 12.4408 13.8081 12.5581C13.6908 12.6753 13.625 12.8342 13.625 13C13.625 13.1658 13.6908 13.3247 13.8081 13.4419C13.9253 13.5592 14.0842 13.625 14.25 13.625ZM13 11.125C13 11.2908 12.9342 11.4497 12.8169 11.5669C12.6997 11.6842 12.5408 11.75 12.375 11.75C12.2092 11.75 12.0503 11.6842 11.9331 11.5669C11.8158 11.4497 11.75 11.2908 11.75 11.125C11.75 10.9592 11.8158 10.8003 11.9331 10.6831C12.0503 10.5658 12.2092 10.5 12.375 10.5C12.5408 10.5 12.6997 10.5658 12.8169 10.6831C12.9342 10.8003 13 10.9592 13 11.125ZM14.25 11.75C14.4158 11.75 14.5747 11.6842 14.6919 11.5669C14.8092 11.4497 14.875 11.2908 14.875 11.125C14.875 10.9592 14.8092 10.8003 14.6919 10.6831C14.5747 10.5658 14.4158 10.5 14.25 10.5C14.0842 10.5 13.9253 10.5658 13.8081 10.6831C13.6908 10.8003 13.625 10.9592 13.625 11.125C13.625 11.2908 13.6908 11.4497 13.8081 11.5669C13.9253 11.6842 14.0842 11.75 14.25 11.75Z" fill="black"/>
<path fill-rule="evenodd" clip-rule="evenodd" d="M6.125 2.375C6.29076 2.375 6.44973 2.44085 6.56694 2.55806C6.68415 2.67527 6.75 2.83424 6.75 3V4.25H14.25V3C14.25 2.83424 14.3158 2.67527 14.4331 2.55806C14.5503 2.44085 14.7092 2.375 14.875 2.375C15.0408 2.375 15.1997 2.44085 15.3169 2.55806C15.4342 2.67527 15.5 2.83424 15.5 3V4.25H16.125C16.788 4.25 17.4239 4.51339 17.8928 4.98223C18.3616 5.45107 18.625 6.08696 18.625 6.75V16.125C18.625 16.788 18.3616 17.4239 17.8928 17.8928C17.4239 18.3616 16.788 18.625 16.125 18.625H4.875C4.21196 18.625 3.57607 18.3616 3.10723 17.8928C2.63839 17.4239 2.375 16.788 2.375 16.125V6.75C2.375 6.08696 2.63839 5.45107 3.10723 4.98223C3.57607 4.51339 4.21196 4.25 4.875 4.25H5.5V3C5.5 2.83424 5.56585 2.67527 5.68306 2.55806C5.80027 2.44085 5.95924 2.375 6.125 2.375ZM17.375 9.875C17.375 9.54348 17.2433 9.22554 17.0089 8.99112C16.7745 8.7567 16.4565 8.625 16.125 8.625H4.875C4.54348 8.625 4.22554 8.7567 3.99112 8.99112C3.7567 9.22554 3.625 9.54348 3.625 9.875V16.125C3.625 16.4565 3.7567 16.7745 3.99112 17.0089C4.22554 17.2433 4.54348 17.375 4.875 17.375H16.125C16.4565 17.375 16.7745 17.2433 17.0089 17.0089C17.2433 16.7745 17.375 16.4565 17.375 16.125V9.875Z" fill="black"/>
</svg>
