<svg width="21" height="21" viewBox="0 0 21 21" fill="none" xmlns="http://www.w3.org/2000/svg">
<path d="M6.125 3V4.875M14.875 3V4.875M3 16.125V6.75C3 6.25272 3.19754 5.77581 3.54917 5.42417C3.90081 5.07254 4.37772 4.875 4.875 4.875H16.125C16.6223 4.875 17.0992 5.07254 17.4508 5.42417C17.8025 5.77581 18 6.25272 18 6.75V16.125M3 16.125C3 16.6223 3.19754 17.0992 3.54917 17.4508C3.90081 17.8025 4.37772 18 4.875 18H16.125C16.6223 18 17.0992 17.8025 17.4508 17.4508C17.8025 17.0992 18 16.6223 18 16.125M3 16.125V9.875C3 9.37772 3.19754 8.90081 3.54917 8.54917C3.90081 8.19754 4.37772 8 4.875 8H16.125C16.6223 8 17.0992 8.19754 17.4508 8.54917C17.8025 8.90081 18 9.37772 18 9.875V16.125M10.5 11.125H10.5067V11.1317H10.5V11.125ZM10.5 13H10.5067V13.0067H10.5V13ZM10.5 14.875H10.5067V14.8817H10.5V14.875ZM8.625 13H8.63167V13.0067H8.625V13ZM8.625 14.875H8.63167V14.8817H8.625V14.875ZM6.75 13H6.75667V13.0067H6.75V13ZM6.75 14.875H6.75667V14.8817H6.75V14.875ZM12.375 11.125H12.3817V11.1317H12.375V11.125ZM12.375 13H12.3817V13.0067H12.375V13ZM12.375 14.875H12.3817V14.8817H12.375V14.875ZM14.25 11.125H14.2567V11.1317H14.25V11.125ZM14.25 13H14.2567V13.0067H14.25V13Z" stroke="black" stroke-width="1.5" stroke-linecap="round" stroke-linejoin="round"/>
</svg>
