<svg width="21" height="21" viewBox="0 0 21 21" fill="none" xmlns="http://www.w3.org/2000/svg">
<path d="M7 4.5V6M14 4.5V6M4.5 15V7.5C4.5 7.10218 4.65804 6.72064 4.93934 6.43934C5.22064 6.15804 5.60218 6 6 6H15C15.3978 6 15.7794 6.15804 16.0607 6.43934C16.342 6.72064 16.5 7.10218 16.5 7.5V15M4.5 15C4.5 15.3978 4.65804 15.7794 4.93934 16.0607C5.22064 16.342 5.60218 16.5 6 16.5H15C15.3978 16.5 15.7794 16.342 16.0607 16.0607C16.342 15.7794 16.5 15.3978 16.5 15M4.5 15V10C4.5 9.60218 4.65804 9.22064 4.93934 8.93934C5.22064 8.65804 5.60218 8.5 6 8.5H15C15.3978 8.5 15.7794 8.65804 16.0607 8.93934C16.342 9.22064 16.5 9.60218 16.5 10V15" stroke="black" stroke-width="1.5" stroke-linecap="round" stroke-linejoin="round"/>
<path d="M8.375 11.3677C8.375 11.5748 8.20711 11.7427 8 11.7427C7.79289 11.7427 7.625 11.5748 7.625 11.3677C7.625 11.1606 7.79289 10.9927 8 10.9927C8.20711 10.9927 8.375 11.1606 8.375 11.3677Z" stroke="black" stroke-width="0.75"/>
<path d="M8.375 13.6943C8.375 13.9014 8.20711 14.0693 8 14.0693C7.79289 14.0693 7.625 13.9014 7.625 13.6943C7.625 13.4872 7.79289 13.3193 8 13.3193C8.20711 13.3193 8.375 13.4872 8.375 13.6943Z" stroke="black" stroke-width="0.75"/>
<path d="M13.375 11.3677C13.375 11.5748 13.2071 11.7427 13 11.7427C12.7929 11.7427 12.625 11.5748 12.625 11.3677C12.625 11.1606 12.7929 10.9927 13 10.9927C13.2071 10.9927 13.375 11.1606 13.375 11.3677Z" stroke="black" stroke-width="0.75"/>
<path d="M10.875 11.3677C10.875 11.5748 10.7071 11.7427 10.5 11.7427C10.2929 11.7427 10.125 11.5748 10.125 11.3677C10.125 11.1606 10.2929 10.9927 10.5 10.9927C10.7071 10.9927 10.875 11.1606 10.875 11.3677Z" stroke="black" stroke-width="0.75"/>
<path d="M10.875 13.6943C10.875 13.9014 10.7071 14.0693 10.5 14.0693C10.2929 14.0693 10.125 13.9014 10.125 13.6943C10.125 13.4872 10.2929 13.3193 10.5 13.3193C10.7071 13.3193 10.875 13.4872 10.875 13.6943Z" stroke="black" stroke-width="0.75"/>
</svg>
