<svg width="21" height="21" viewBox="0 0 21 21" fill="none" xmlns="http://www.w3.org/2000/svg">
<path d="M2.5 15.4672C6.87793 15.4636 11.2368 16.0433 15.4616 17.1911C16.0582 17.3535 16.6538 16.9105 16.6538 16.2918V15.4672M3.73077 3.7749V4.39029C3.73077 4.5535 3.66593 4.71002 3.55053 4.82543C3.43512 4.94084 3.27859 5.00567 3.11538 5.00567H2.5M2.5 5.00567V4.69798C2.5 4.18844 2.91354 3.7749 3.42308 3.7749H17.2692M2.5 5.00567V12.3902M17.2692 3.7749V4.39029C17.2692 4.72998 17.5449 5.00567 17.8846 5.00567H18.5M17.2692 3.7749H17.5769C18.0865 3.7749 18.5 4.18844 18.5 4.69798V12.6979C18.5 13.2075 18.0865 13.621 17.5769 13.621H17.2692M2.5 12.3902V12.6979C2.5 12.9428 2.59725 13.1775 2.77036 13.3507C2.94347 13.5238 3.17826 13.621 3.42308 13.621H3.73077M2.5 12.3902H3.11538C3.27859 12.3902 3.43512 12.4551 3.55053 12.5705C3.66593 12.6859 3.73077 12.8424 3.73077 13.0056V13.621M17.2692 13.621V13.0056C17.2692 12.8424 17.3341 12.6859 17.4495 12.5705C17.5649 12.4551 17.7214 12.3902 17.8846 12.3902H18.5M17.2692 13.621H3.73077M12.9615 8.69798C12.9615 9.35082 12.7022 9.97692 12.2406 10.4386C11.7789 10.9001 11.1528 11.1595 10.5 11.1595C9.84716 11.1595 9.22106 10.9001 8.75943 10.4386C8.2978 9.97692 8.03846 9.35082 8.03846 8.69798C8.03846 8.04514 8.2978 7.41904 8.75943 6.95741C9.22106 6.49578 9.84716 6.23644 10.5 6.23644C11.1528 6.23644 11.7789 6.49578 12.2406 6.95741C12.7022 7.41904 12.9615 8.04514 12.9615 8.69798ZM15.4231 8.69798H15.4296V8.70454H15.4231V8.69798ZM5.57692 8.69798H5.58349V8.70454H5.57692V8.69798Z" stroke="black" stroke-width="1.5" stroke-linecap="round" stroke-linejoin="round"/>
</svg>
