<svg width="21" height="21" viewBox="0 0 21 21" fill="none" xmlns="http://www.w3.org/2000/svg">
<path fill-rule="evenodd" clip-rule="evenodd" d="M12.8989 3.93751C13.2152 2.95828 14.1343 2.25 15.2188 2.25C16.565 2.25 17.6563 3.34131 17.6563 4.6875C17.6563 6.03369 16.565 7.125 15.2188 7.125C14.1343 7.125 13.2152 6.41673 12.8989 5.43751L11.6557 5.43752C11.2411 5.43752 10.9057 5.77298 10.9057 6.18752V9.74999L12.8989 9.75C13.2152 8.77076 14.1343 8.06248 15.2188 8.06248C16.565 8.06248 17.6563 9.15379 17.6563 10.5C17.6563 11.8462 16.565 12.9375 15.2188 12.9375C14.1343 12.9375 13.2152 12.2292 12.8989 11.25H10.9057V14.8125C10.9057 15.227 11.2411 15.5625 11.6557 15.5625H12.8989C13.2152 14.5832 14.1343 13.875 15.2188 13.875C16.565 13.875 17.6563 14.9663 17.6563 16.3125C17.6563 17.6587 16.565 18.75 15.2188 18.75C14.1343 18.75 13.2152 18.0417 12.8989 17.0625H11.6557C10.4127 17.0625 9.40568 16.0555 9.40568 14.8125V11.25H7.41344C7.09711 12.2292 6.17802 12.9375 5.09351 12.9375C3.74731 12.9375 2.65601 11.8462 2.65601 10.5C2.65601 9.15379 3.74731 8.06248 5.09351 8.06248C6.17802 8.06248 7.09711 8.77076 7.41344 9.74998L9.40568 9.74999V6.18752C9.40568 4.94456 10.4127 3.93752 11.6557 3.93752L12.8989 3.93751Z" fill="black"/>
</svg>
