<svg width="21" height="21" viewBox="0 0 21 21" fill="none" xmlns="http://www.w3.org/2000/svg">
<path d="M15.2188 6.375C16.1507 6.375 16.9063 5.61948 16.9063 4.6875C16.9063 3.75552 16.1507 3 15.2188 3C14.2868 3 13.5312 3.75552 13.5312 4.6875C13.5312 5.61948 14.2868 6.375 15.2188 6.375Z" stroke="black" stroke-width="1.5" stroke-linecap="round" stroke-linejoin="round"/>
<path d="M15.2188 12.1875C16.1507 12.1875 16.9063 11.432 16.9063 10.5C16.9063 9.56802 16.1507 8.8125 15.2188 8.8125C14.2868 8.8125 13.5312 9.56802 13.5312 10.5C13.5312 11.432 14.2868 12.1875 15.2188 12.1875Z" stroke="black" stroke-width="1.5" stroke-linecap="round" stroke-linejoin="round"/>
<path d="M5.09375 12.1875C6.02573 12.1875 6.78125 11.432 6.78125 10.5C6.78125 9.56802 6.02573 8.8125 5.09375 8.8125C4.16177 8.8125 3.40625 9.56802 3.40625 10.5C3.40625 11.432 4.16177 12.1875 5.09375 12.1875Z" stroke="black" stroke-width="1.5" stroke-linecap="round" stroke-linejoin="round"/>
<path d="M15.2188 17.9999C16.1507 17.9999 16.9063 17.2444 16.9063 16.3124C16.9063 15.3805 16.1507 14.6249 15.2188 14.6249C14.2868 14.6249 13.5312 15.3805 13.5312 16.3124C13.5312 17.2444 14.2868 17.9999 15.2188 17.9999Z" stroke="black" stroke-width="1.5" stroke-linecap="round" stroke-linejoin="round"/>
<path d="M13.5308 4.6875H11.6558C10.827 4.6875 10.1558 5.35875 10.1558 6.1875V14.8125C10.1558 15.6413 10.827 16.3125 11.6558 16.3125H13.5308" stroke="black" stroke-width="1.5" stroke-linecap="round" stroke-linejoin="round"/>
<path d="M13.5303 10.5H6.78027" stroke="black" stroke-width="1.5" stroke-linecap="round" stroke-linejoin="round"/>
</svg>
