<svg width="21" height="21" viewBox="0 0 21 21" fill="none" xmlns="http://www.w3.org/2000/svg">
<path d="M17.375 7.5925C18.1117 7.82917 18.625 8.5325 18.625 9.34V12.9117C18.625 13.8583 17.9192 14.6617 16.975 14.7392C16.6917 14.7617 16.4083 14.7825 16.125 14.7992V17.375L13.625 14.875C12.4967 14.875 11.38 14.8292 10.275 14.7392C10.0344 14.7197 9.80044 14.6511 9.5875 14.5375M17.375 7.5925C17.2462 7.55106 17.1131 7.52449 16.9783 7.51334C14.7466 7.32807 12.5034 7.32807 10.2717 7.51334C9.32917 7.59167 8.625 8.39417 8.625 9.34V12.9117C8.625 13.6092 9.00833 14.2283 9.5875 14.5375M17.375 7.5925V6.03083C17.375 4.68 16.415 3.50917 15.075 3.335C13.3507 3.11149 11.6137 2.99959 9.875 3C8.1125 3 6.37667 3.11417 4.675 3.335C3.335 3.50917 2.375 4.68 2.375 6.03083V11.2192C2.375 12.57 3.335 13.7408 4.675 13.915C5.15583 13.9775 5.63917 14.0317 6.125 14.0767V18L9.5875 14.5375" stroke="black" stroke-width="1.5" stroke-linecap="round" stroke-linejoin="round"/>
</svg>
