<svg width="21" height="21" viewBox="0 0 21 21" fill="none" xmlns="http://www.w3.org/2000/svg">
<path d="M7.6875 8.625H7.375M7.6875 8.625C7.6875 8.70788 7.65458 8.78737 7.59597 8.84597C7.53737 8.90458 7.45788 8.9375 7.375 8.9375C7.29212 8.9375 7.21263 8.90458 7.15403 8.84597C7.09542 8.78737 7.0625 8.70788 7.0625 8.625C7.0625 8.54212 7.09542 8.46264 7.15403 8.40403C7.21263 8.34543 7.29212 8.3125 7.375 8.3125C7.45788 8.3125 7.53737 8.34543 7.59597 8.40403C7.65458 8.46264 7.6875 8.54212 7.6875 8.625ZM10.8125 8.625H10.5M10.8125 8.625C10.8125 8.70788 10.7796 8.78737 10.721 8.84597C10.6624 8.90458 10.5829 8.9375 10.5 8.9375C10.4171 8.9375 10.3376 8.90458 10.279 8.84597C10.2204 8.78737 10.1875 8.70788 10.1875 8.625C10.1875 8.54212 10.2204 8.46264 10.279 8.40403C10.3376 8.34543 10.4171 8.3125 10.5 8.3125C10.5829 8.3125 10.6624 8.34543 10.721 8.40403C10.7796 8.46264 10.8125 8.54212 10.8125 8.625ZM13.9375 8.625H13.625M13.9375 8.625C13.9375 8.70788 13.9046 8.78737 13.846 8.84597C13.7874 8.90458 13.7079 8.9375 13.625 8.9375C13.5421 8.9375 13.4626 8.90458 13.404 8.84597C13.3454 8.78737 13.3125 8.70788 13.3125 8.625C13.3125 8.54212 13.3454 8.46264 13.404 8.40403C13.4626 8.34543 13.5421 8.3125 13.625 8.3125C13.7079 8.3125 13.7874 8.34543 13.846 8.40403C13.9046 8.46264 13.9375 8.54212 13.9375 8.625ZM2.375 11.1333C2.375 12.4667 3.31083 13.6283 4.63083 13.8225C5.53667 13.9558 6.45167 14.0583 7.375 14.13V18L10.8617 14.5142C11.0343 14.3422 11.2664 14.2432 11.51 14.2375C13.1363 14.1975 14.7588 14.0589 16.3683 13.8225C17.6892 13.6283 18.625 12.4675 18.625 11.1325V6.1175C18.625 4.7825 17.6892 3.62167 16.3692 3.4275C14.4258 3.14226 12.4642 2.99938 10.5 3C8.50667 3 6.54667 3.14584 4.63083 3.4275C3.31083 3.62167 2.375 4.78334 2.375 6.1175V11.1333Z" stroke="black" stroke-width="1.5" stroke-linecap="round" stroke-linejoin="round"/>
</svg>
