<svg width="21" height="21" viewBox="0 0 21 21" fill="none" xmlns="http://www.w3.org/2000/svg">
<path d="M4.59417 2.715C6.32333 2.49 8.08583 2.375 9.875 2.375C11.6642 2.375 13.4267 2.49083 15.1558 2.715C16.7575 2.92333 17.8983 4.26583 17.9933 5.82083C17.7147 5.72802 17.426 5.66899 17.1333 5.645C14.7985 5.45118 12.4515 5.45118 10.1167 5.645C8.15167 5.80833 6.75 7.47 6.75 9.34V12.9117C6.74921 13.5981 6.93814 14.2715 7.29593 14.8574C7.65372 15.4432 8.16644 15.9188 8.7775 16.2317L6.56667 18.4417C6.47926 18.529 6.36795 18.5884 6.24678 18.6125C6.12561 18.6365 6.00003 18.6242 5.8859 18.5769C5.77176 18.5296 5.67419 18.4496 5.60551 18.3469C5.53682 18.2443 5.50011 18.1235 5.5 18V14.6417C5.19766 14.6095 4.8957 14.574 4.59417 14.535C2.92083 14.3167 1.75 12.8608 1.75 11.2183V6.03167C1.75 4.39 2.92083 2.9325 4.59417 2.715Z" fill="black"/>
<path d="M13.625 6.75C12.4783 6.75 11.3425 6.7975 10.22 6.89084C8.93667 6.9975 8 8.08584 8 9.34084V12.9117C8 14.1675 8.94 15.2567 10.225 15.3617C11.2608 15.4467 12.3083 15.4925 13.365 15.4992L15.6833 17.8167C15.7707 17.904 15.8821 17.9634 16.0032 17.9875C16.1244 18.0115 16.25 17.9992 16.3641 17.9519C16.4782 17.9046 16.5758 17.8246 16.6445 17.7219C16.7132 17.6193 16.7499 17.4985 16.75 17.375V15.3833L17.025 15.3617C18.31 15.2575 19.25 14.1675 19.25 12.9117V9.34C19.25 8.08584 18.3125 6.9975 17.03 6.89C15.8974 6.79635 14.7614 6.74964 13.625 6.75Z" fill="black"/>
</svg>
