<svg width="21" height="21" viewBox="0 0 21 21" fill="none" xmlns="http://www.w3.org/2000/svg">
<path fill-rule="evenodd" clip-rule="evenodd" d="M10.5 18.5C12.6217 18.5 14.6566 17.6571 16.1569 16.1569C17.6571 14.6566 18.5 12.6217 18.5 10.5C18.5 8.37827 17.6571 6.34344 16.1569 4.84315C14.6566 3.34285 12.6217 2.5 10.5 2.5C8.37827 2.5 6.34344 3.34285 4.84315 4.84315C3.34285 6.34344 2.5 8.37827 2.5 10.5C2.5 12.6217 3.34285 14.6566 4.84315 16.1569C6.34344 17.6571 8.37827 18.5 10.5 18.5ZM14.357 8.691C14.4149 8.61129 14.4566 8.52095 14.4796 8.42514C14.5026 8.32933 14.5065 8.22994 14.491 8.13262C14.4756 8.0353 14.4412 7.94198 14.3897 7.85797C14.3382 7.77396 14.2707 7.70091 14.191 7.643C14.1113 7.58509 14.0209 7.54344 13.9251 7.52044C13.8293 7.49744 13.7299 7.49354 13.6326 7.50895C13.5353 7.52437 13.442 7.5588 13.358 7.61028C13.274 7.66176 13.2009 7.72929 13.143 7.809L9.66 12.599L7.78 10.719C7.71078 10.6474 7.628 10.5903 7.53647 10.551C7.44495 10.5118 7.34653 10.4911 7.24694 10.4903C7.14736 10.4895 7.04861 10.5085 6.95646 10.5463C6.8643 10.584 6.78059 10.6398 6.7102 10.7102C6.63982 10.7807 6.58417 10.8644 6.5465 10.9566C6.50883 11.0488 6.4899 11.1476 6.49081 11.2472C6.49173 11.3467 6.51246 11.4451 6.55181 11.5366C6.59116 11.6281 6.64834 11.7108 6.72 11.78L9.22 14.28C9.29663 14.3567 9.38896 14.4158 9.49065 14.4534C9.59233 14.4909 9.70094 14.506 9.80901 14.4975C9.91708 14.4891 10.022 14.4573 10.1166 14.4044C10.2112 14.3515 10.2932 14.2787 10.357 14.191L14.357 8.691Z" fill="black"/>
</svg>
