<svg width="21" height="21" viewBox="0 0 21 21" fill="none" xmlns="http://www.w3.org/2000/svg">
<path fill-rule="evenodd" clip-rule="evenodd" d="M10.5 16.5C13.8137 16.5 16.5 13.8137 16.5 10.5C16.5 7.18629 13.8137 4.5 10.5 4.5C7.18629 4.5 4.5 7.18629 4.5 10.5C4.5 13.8137 7.18629 16.5 10.5 16.5ZM13.7352 8.56605C13.9649 8.2214 13.8718 7.75575 13.5271 7.52599C13.1825 7.29622 12.7169 7.38935 12.4871 7.734L9.86123 11.6728L8.41925 10.2308C8.12635 9.93791 7.65148 9.93791 7.35859 10.2308C7.06569 10.5237 7.06569 10.9986 7.35859 11.2915L9.44747 13.3803C9.60635 13.5392 9.8281 13.6185 10.0517 13.5964C10.2753 13.5742 10.4772 13.453 10.6018 13.266L13.7352 8.56605Z" fill="black"/>
</svg>
