<svg width="21" height="21" viewBox="0 0 21 21" fill="none" xmlns="http://www.w3.org/2000/svg">
<path fill-rule="evenodd" clip-rule="evenodd" d="M16.29 15.2699C16.1521 15.413 15.9629 15.4956 15.7641 15.4993C15.5654 15.5031 15.3733 15.4277 15.23 15.2899L10.73 11.0399C10.6574 10.9699 10.5997 10.8861 10.5602 10.7933C10.5208 10.7005 10.5005 10.6007 10.5005 10.4999C10.5005 10.3991 10.5208 10.2993 10.5602 10.2065C10.5997 10.1137 10.6574 10.0299 10.73 9.95989L15.23 5.70989C15.3002 5.63814 15.3841 5.58121 15.4767 5.54248C15.5693 5.50374 15.6687 5.48399 15.7691 5.48438C15.8695 5.48478 15.9687 5.50532 16.061 5.54479C16.1533 5.58425 16.2367 5.64184 16.3064 5.71415C16.376 5.78645 16.4304 5.87199 16.4663 5.9657C16.5023 6.05941 16.5191 6.15939 16.5157 6.2597C16.5123 6.36002 16.4888 6.45863 16.4466 6.54971C16.4044 6.64078 16.3444 6.72245 16.27 6.78989L12.332 10.4999L16.27 14.2099C16.4131 14.3479 16.4957 14.537 16.4994 14.7358C16.5032 14.9345 16.4278 15.1266 16.29 15.2699ZM10.29 15.2699C10.152 15.413 9.96291 15.4956 9.76415 15.4993C9.56539 15.5031 9.37327 15.4277 9.23001 15.2899L4.73001 11.0399C4.65742 10.9699 4.59968 10.8861 4.56025 10.7933C4.52081 10.7005 4.50049 10.6007 4.50049 10.4999C4.50049 10.3991 4.52081 10.2993 4.56025 10.2065C4.59968 10.1137 4.65742 10.0299 4.73001 9.95989L9.23001 5.70989C9.3002 5.63814 9.38408 5.58121 9.47668 5.54248C9.56928 5.50374 9.66871 5.48399 9.76908 5.48438C9.86945 5.48478 9.96873 5.50532 10.061 5.54479C10.1533 5.58425 10.2367 5.64184 10.3063 5.71415C10.376 5.78645 10.4304 5.87199 10.4663 5.9657C10.5023 6.05941 10.5191 6.15939 10.5157 6.2597C10.5123 6.36002 10.4888 6.45863 10.4466 6.54971C10.4044 6.64078 10.3443 6.72245 10.27 6.78989L6.33201 10.4999L10.27 14.2099C10.4131 14.3479 10.4956 14.537 10.4994 14.7358C10.5032 14.9345 10.4278 15.1266 10.29 15.2699Z" fill="black"/>
</svg>
