<svg width="21" height="21" viewBox="0 0 21 21" fill="none" xmlns="http://www.w3.org/2000/svg">
<path fill-rule="evenodd" clip-rule="evenodd" d="M10.71 15.27C10.5722 15.1267 10.4969 14.9346 10.5006 14.7359C10.5043 14.5371 10.5869 14.348 10.73 14.21L14.668 10.5L10.73 6.79001C10.6556 6.72257 10.5956 6.6409 10.5534 6.54983C10.5112 6.45875 10.4877 6.36014 10.4843 6.25982C10.4809 6.15951 10.4977 6.05953 10.5337 5.96582C10.5696 5.87211 10.624 5.78657 10.6936 5.71427C10.7633 5.64196 10.8467 5.58437 10.939 5.54491C11.0313 5.50544 11.1305 5.4849 11.2309 5.4845C11.3313 5.48411 11.4307 5.50386 11.5233 5.5426C11.6159 5.58133 11.6998 5.63826 11.77 5.71001L16.27 9.96001C16.3426 10.03 16.4003 10.1139 16.4398 10.2066C16.4792 10.2994 16.4995 10.3992 16.4995 10.5C16.4995 10.6008 16.4792 10.7006 16.4398 10.7934C16.4003 10.8862 16.3426 10.97 16.27 11.04L11.77 15.29C11.6267 15.4278 11.4346 15.5032 11.2359 15.4994C11.0371 15.4957 10.848 15.4131 10.71 15.27Z" fill="black"/>
<path fill-rule="evenodd" clip-rule="evenodd" d="M4.70999 15.27C4.57216 15.1267 4.49685 14.9346 4.5006 14.7359C4.50435 14.5371 4.58686 14.348 4.72999 14.21L8.66799 10.5L4.72999 6.79001C4.65565 6.72257 4.5956 6.6409 4.5534 6.54983C4.5112 6.45875 4.4877 6.36014 4.48431 6.25982C4.48093 6.15951 4.49771 6.05953 4.53366 5.96582C4.56962 5.87211 4.62402 5.78657 4.69365 5.71427C4.76327 5.64196 4.8467 5.58437 4.93899 5.54491C5.03127 5.50544 5.13055 5.4849 5.23092 5.4845C5.33129 5.48411 5.43072 5.50386 5.52332 5.5426C5.61592 5.58133 5.6998 5.63826 5.76999 5.71001L10.27 9.96001C10.3426 10.03 10.4003 10.1139 10.4398 10.2066C10.4792 10.2994 10.4995 10.3992 10.4995 10.5C10.4995 10.6008 10.4792 10.7006 10.4398 10.7934C10.4003 10.8862 10.3426 10.97 10.27 11.04L5.76999 15.29C5.62673 15.4278 5.43462 15.5032 5.23585 15.4994C5.03709 15.4957 4.84795 15.4131 4.70999 15.27Z" fill="black"/>
</svg>
