<svg width="21" height="21" viewBox="0 0 21 21" fill="none" xmlns="http://www.w3.org/2000/svg">
<path d="M17.375 5.8125C17.375 7.71083 14.2967 9.25 10.5 9.25C6.70333 9.25 3.625 7.71083 3.625 5.8125M17.375 5.8125C17.375 3.91417 14.2967 2.375 10.5 2.375C6.70333 2.375 3.625 3.91417 3.625 5.8125M17.375 5.8125V15.1875C17.375 17.0858 14.2967 18.625 10.5 18.625C6.70333 18.625 3.625 17.0858 3.625 15.1875V5.8125M17.375 5.8125V8.9375M3.625 5.8125V8.9375M17.375 8.9375V12.0625C17.375 13.9608 14.2967 15.5 10.5 15.5C6.70333 15.5 3.625 13.9608 3.625 12.0625V8.9375M17.375 8.9375C17.375 10.8358 14.2967 12.375 10.5 12.375C6.70333 12.375 3.625 10.8358 3.625 8.9375" stroke="black" stroke-width="1.25" stroke-linecap="round" stroke-linejoin="round"/>
</svg>
