<svg width="21" height="21" viewBox="0 0 21 21" fill="none" xmlns="http://www.w3.org/2000/svg">
<path d="M18 5.8125C18 8.05583 14.6417 9.875 10.5 9.875C6.35833 9.875 3 8.05583 3 5.8125C3 3.56917 6.35833 1.75 10.5 1.75C14.6417 1.75 18 3.56917 18 5.8125Z" fill="black"/>
<path d="M10.5 11.125C12.7375 11.125 14.825 10.6367 16.3983 9.78419C16.9774 9.47677 17.5097 9.08843 17.9792 8.63086C17.9925 8.73169 18 8.83419 18 8.93753C18 11.1809 14.6417 13 10.5 13C6.35833 13 3 11.1809 3 8.93753C3 8.83419 3.0075 8.73169 3.02083 8.63086C3.49035 9.08841 4.02264 9.47675 4.60167 9.78419C6.17417 10.6367 8.2625 11.125 10.5 11.125Z" fill="black"/>
<path d="M10.5 14.25C12.7375 14.25 14.825 13.7617 16.3983 12.9092C16.9774 12.6018 17.5097 12.2134 17.9792 11.7559C17.9925 11.8567 18 11.9592 18 12.0625C18 14.3059 14.6417 16.125 10.5 16.125C6.35833 16.125 3 14.3059 3 12.0625C3 11.9592 3.0075 11.8567 3.02083 11.7559C3.49034 12.2134 4.02263 12.6018 4.60167 12.9092C6.17417 13.7617 8.2625 14.25 10.5 14.25Z" fill="black"/>
<path d="M10.5 17.375C12.7375 17.375 14.825 16.8867 16.3983 16.0342C16.9774 15.7268 17.5097 15.3384 17.9792 14.8809C17.9925 14.9817 18 15.0842 18 15.1875C18 17.4309 14.6417 19.25 10.5 19.25C6.35833 19.25 3 17.4309 3 15.1875C3 15.0842 3.0075 14.9817 3.02083 14.8809C3.49034 15.3384 4.02263 15.7268 4.60167 16.0342C6.17417 16.8867 8.2625 17.375 10.5 17.375Z" fill="black"/>
</svg>
