<svg width="21" height="21" viewBox="0 0 21 21" fill="none" xmlns="http://www.w3.org/2000/svg">
<path fill-rule="evenodd" clip-rule="evenodd" d="M4.5 10.5C4.5 7.18629 7.18629 4.5 10.5 4.5C13.8137 4.5 16.5 7.18629 16.5 10.5C16.5 13.8137 13.8137 16.5 10.5 16.5C7.18629 16.5 4.5 13.8137 4.5 10.5ZM10.5 6.25C10.9142 6.25 11.25 6.58579 11.25 7V10.1305L13.6914 10.7748C14.0919 10.8805 14.3309 11.2909 14.2252 11.6914C14.1195 12.0919 13.7091 12.3309 13.3086 12.2252L10.3086 11.4334C9.97938 11.3465 9.75 11.0488 9.75 10.7083V7C9.75 6.58579 10.0858 6.25 10.5 6.25Z" fill="black"/>
</svg>
