<svg width="21" height="21" viewBox="0 0 21 21" fill="none" xmlns="http://www.w3.org/2000/svg">
<path fill-rule="evenodd" clip-rule="evenodd" d="M4.5 10.5C4.5 7.18629 7.18629 4.5 10.5 4.5C13.8137 4.5 16.5 7.18629 16.5 10.5C16.5 13.8137 13.8137 16.5 10.5 16.5C7.18629 16.5 4.5 13.8137 4.5 10.5ZM10.0423 10.1141C10.2266 9.97211 10.4664 9.92371 10.6914 9.98308L13.6914 10.7748C14.0919 10.8805 14.3309 11.2909 14.2252 11.6914C14.1195 12.0919 13.7091 12.3309 13.3086 12.2252L11.25 11.6819V14C11.25 14.4142 10.9142 14.75 10.5 14.75C10.0858 14.75 9.75 14.4142 9.75 14V10.7083C9.75 10.4756 9.85799 10.2561 10.0423 10.1141Z" fill="black"/>
</svg>
