<svg width="21" height="21" viewBox="0 0 21 21" fill="none" xmlns="http://www.w3.org/2000/svg">
<path fill-rule="evenodd" clip-rule="evenodd" d="M2.25 10.5C2.25 5.94365 5.94365 2.25 10.5 2.25C15.0563 2.25 18.75 5.94365 18.75 10.5C18.75 15.0563 15.0563 18.75 10.5 18.75C5.94365 18.75 2.25 15.0563 2.25 10.5ZM10.5 5.58325C10.9142 5.58325 11.25 5.91904 11.25 6.33325V10.2775L13.3779 11.5188C13.7357 11.7275 13.8565 12.1867 13.6478 12.5445C13.4391 12.9023 12.9799 13.0231 12.6221 12.8144L10.1221 11.3561C9.89168 11.2217 9.75 10.975 9.75 10.7083V6.33325C9.75 5.91904 10.0858 5.58325 10.5 5.58325Z" fill="black"/>
</svg>
