<svg width="21" height="21" viewBox="0 0 21 21" fill="none" xmlns="http://www.w3.org/2000/svg">
<path d="M10.4999 14.2499V8.62494M10.4999 8.62494L12.9999 11.1249M10.4999 8.62494L7.99993 11.1249M6.12493 16.7499C5.23279 16.7509 4.36953 16.4337 3.69018 15.8555C3.01082 15.2772 2.55989 14.4757 2.41835 13.5948C2.27681 12.714 2.45395 11.8115 2.91794 11.0495C3.38194 10.2876 4.10239 9.71601 4.94993 9.43744C4.73218 8.32175 4.95723 7.16511 5.57741 6.21245C6.1976 5.2598 7.16423 4.58594 8.27261 4.33357C9.38098 4.08119 10.5441 4.27013 11.5156 4.86037C12.4871 5.4506 13.1907 6.39579 13.4774 7.49577C13.9208 7.35159 14.3956 7.33424 14.8483 7.44569C15.301 7.55714 15.7135 7.79294 16.0392 8.12647C16.3649 8.46 16.5909 8.87797 16.6916 9.33316C16.7923 9.78835 16.7637 10.2626 16.6091 10.7024C17.2913 10.963 17.8608 11.4541 18.2187 12.0907C18.5767 12.7272 18.7005 13.469 18.5688 14.1873C18.437 14.9056 18.058 15.5551 17.4975 16.0232C16.9369 16.4913 16.2302 16.7484 15.4999 16.7499H6.12493Z" stroke="black" stroke-width="1.5" stroke-linecap="round" stroke-linejoin="round"/>
</svg>
