<svg width="21" height="21" viewBox="0 0 21 21" fill="none" xmlns="http://www.w3.org/2000/svg">
<path d="M10.5002 8.62506V14.2501M10.5002 14.2501L8.00017 11.7501M10.5002 14.2501L13.0002 11.7501M6.12517 16.7501C5.23303 16.751 4.36977 16.4339 3.69042 15.8556C3.01107 15.2774 2.56013 14.4758 2.4186 13.595C2.27706 12.7142 2.45419 11.8117 2.91819 11.0497C3.38218 10.2877 4.10264 9.71613 4.95017 9.43756C4.73242 8.32187 4.95747 7.16523 5.57766 6.21257C6.19785 5.25992 7.16448 4.58605 8.27285 4.33368C9.38122 4.08131 10.5443 4.27025 11.5158 4.86049C12.4873 5.45072 13.1909 6.39591 13.4777 7.49589C13.921 7.35171 14.3958 7.33436 14.8485 7.44581C15.3012 7.55726 15.7137 7.79306 16.0394 8.12659C16.3652 8.46012 16.5911 8.87808 16.6918 9.33328C16.7926 9.78847 16.764 10.2628 16.6093 10.7026C17.2915 10.9631 17.861 11.4543 18.219 12.0908C18.5769 12.7274 18.7008 13.4691 18.569 14.1874C18.4373 14.9058 18.0583 15.5553 17.4977 16.0234C16.9372 16.4914 16.2305 16.7485 15.5002 16.7501H6.12517Z" stroke="black" stroke-width="1.5" stroke-linecap="round" stroke-linejoin="round"/>
</svg>
