<svg width="20" height="20" viewBox="0 0 20 20" fill="none" xmlns="http://www.w3.org/2000/svg">
<g clip-path="url(#clip0_823_2586)">
<path d="M4 5.5H16V14.5H4V5.5Z" fill="#DE2910"/>
<path d="M5.4399 8.83015L6.24989 6.40015L7.05988 8.83015L4.8999 7.34515H7.59987L5.4399 8.83015Z" fill="#FFDE00"/>
<path d="M8.95336 6.4466L8.11978 6.63133L8.67581 5.98339L8.62128 6.85543L8.15869 6.08341L8.95336 6.4466Z" fill="#FFDE00"/>
<path d="M9.79432 7.51271L8.95434 7.35968L9.71814 6.97811L9.32967 7.76074L9.2027 6.86974L9.79432 7.51271Z" fill="#FFDE00"/>
<path d="M9.67201 9.00865L8.96748 8.52633L9.82049 8.48946L9.1466 9.0456L9.39407 8.18029L9.67201 9.00865Z" fill="#FFDE00"/>
<path d="M8.61224 9.98583L8.14866 9.26883L8.94972 9.56428L8.11333 9.81698L8.6758 9.1144L8.61224 9.98583Z" fill="#FFDE00"/>
</g>
<defs>
<clipPath id="clip0_823_2586">
<rect x="4" y="5.5" width="12" height="9" rx="1" fill="white"/>
</clipPath>
</defs>
</svg>
