<svg width="21" height="21" viewBox="0 0 21 21" fill="none" xmlns="http://www.w3.org/2000/svg">
<path d="M8.49509 3.78333C8.57009 3.33167 8.96176 3 9.42009 3H11.5809C12.0393 3 12.4309 3.33167 12.5059 3.78333L12.6834 4.85083C12.7359 5.1625 12.9443 5.4225 13.2209 5.57583C13.2826 5.60917 13.3434 5.645 13.4043 5.68167C13.6743 5.845 14.0043 5.89583 14.3001 5.785L15.3143 5.405C15.5221 5.32684 15.7509 5.32498 15.96 5.39976C16.1691 5.47454 16.3448 5.6211 16.4559 5.81333L17.5359 7.68583C17.6468 7.87809 17.6859 8.10344 17.6462 8.3218C17.6065 8.54017 17.4907 8.73737 17.3193 8.87833L16.4834 9.5675C16.2393 9.7675 16.1184 10.0783 16.1243 10.3942C16.1256 10.465 16.1256 10.5358 16.1243 10.6067C16.1184 10.9217 16.2393 11.2317 16.4826 11.4317L17.3201 12.1217C17.6734 12.4133 17.7651 12.9167 17.5368 13.3133L16.4551 15.1858C16.3441 15.378 16.1686 15.5246 15.9597 15.5996C15.7508 15.6745 15.5221 15.6729 15.3143 15.595L14.3001 15.215C14.0043 15.1042 13.6751 15.155 13.4034 15.3183C13.343 15.3551 13.2819 15.3906 13.2201 15.425C12.9443 15.5775 12.7359 15.8375 12.6834 16.1492L12.5059 17.2158C12.4309 17.6683 12.0393 18 11.5809 18H9.41926C8.96092 18 8.56926 17.6683 8.49426 17.2167L8.31676 16.1492C8.26509 15.8375 8.05676 15.5775 7.78009 15.4242C7.7183 15.3901 7.65717 15.3548 7.59676 15.3183C7.32592 15.155 6.99676 15.1042 6.70009 15.215L5.68592 15.595C5.4782 15.6729 5.24956 15.6747 5.04067 15.5999C4.83178 15.5251 4.65618 15.3787 4.54509 15.1867L3.46426 13.3142C3.35338 13.1219 3.3143 12.8966 3.35397 12.6782C3.39364 12.4598 3.5095 12.2626 3.68092 12.1217L4.51759 11.4325C4.76092 11.2325 4.88176 10.9217 4.87592 10.6058C4.87462 10.535 4.87462 10.4642 4.87592 10.3933C4.88176 10.0783 4.76092 9.76833 4.51759 9.56833L3.68092 8.87833C3.50971 8.73741 3.39399 8.54036 3.35432 8.32219C3.31465 8.10401 3.3536 7.87884 3.46426 7.68667L4.54509 5.81417C4.65608 5.62178 4.83177 5.47505 5.04085 5.40011C5.24993 5.32518 5.47883 5.32691 5.68676 5.405L6.70009 5.785C6.99676 5.89583 7.32592 5.845 7.59676 5.68167C7.65676 5.645 7.71842 5.60917 7.78009 5.575C8.05676 5.4225 8.26509 5.1625 8.31676 4.85083L8.49509 3.78333Z" stroke="black" stroke-width="1.5" stroke-linecap="round" stroke-linejoin="round"/>
<path d="M13 10.5C13 11.163 12.7366 11.7989 12.2678 12.2678C11.7989 12.7366 11.163 13 10.5 13C9.83696 13 9.20107 12.7366 8.73223 12.2678C8.26339 11.7989 8 11.163 8 10.5C8 9.83696 8.26339 9.20107 8.73223 8.73223C9.20107 8.26339 9.83696 8 10.5 8C11.163 8 11.7989 8.26339 12.2678 8.73223C12.7366 9.20107 13 9.83696 13 10.5Z" stroke="black" stroke-width="1.5" stroke-linecap="round" stroke-linejoin="round"/>
</svg>
