<svg width="21" height="21" viewBox="0 0 21 21" fill="none" xmlns="http://www.w3.org/2000/svg">
<path fill-rule="evenodd" clip-rule="evenodd" d="M9.73161 2.375C8.96745 2.375 8.31578 2.9275 8.18995 3.68083L8.04161 4.57417C8.02495 4.67417 7.94578 4.79083 7.79411 4.86417C7.50857 5.00143 7.23389 5.16022 6.97245 5.33917C6.83411 5.435 6.69411 5.44417 6.59745 5.40833L5.74995 5.09C5.40348 4.9602 5.02219 4.95755 4.67396 5.08253C4.32572 5.20751 4.03314 5.45201 3.84828 5.7725L3.07995 7.10333C2.89502 7.42363 2.82971 7.79915 2.89563 8.16307C2.96155 8.527 3.15442 8.85575 3.43995 9.09083L4.13995 9.6675C4.21911 9.7325 4.28161 9.85833 4.26828 10.0258C4.24453 10.3418 4.24453 10.6591 4.26828 10.975C4.28078 11.1417 4.21911 11.2683 4.14078 11.3333L3.43995 11.91C3.15442 12.1451 2.96155 12.4738 2.89563 12.8378C2.82971 13.2017 2.89502 13.5772 3.07995 13.8975L3.84828 15.2283C4.03327 15.5487 4.32591 15.793 4.67413 15.9178C5.02236 16.0426 5.40357 16.0399 5.74995 15.91L6.59911 15.5917C6.69495 15.5558 6.83495 15.5658 6.97411 15.66C7.23411 15.8383 7.50828 15.9975 7.79495 16.135C7.94661 16.2083 8.02578 16.325 8.04245 16.4267L8.19078 17.3192C8.31661 18.0725 8.96828 18.625 9.73245 18.625H11.2691C12.0324 18.625 12.6849 18.0725 12.8108 17.3192L12.9591 16.4258C12.9758 16.3258 13.0541 16.2092 13.2066 16.135C13.4933 15.9975 13.7674 15.8383 14.0274 15.66C14.1666 15.565 14.3066 15.5558 14.4024 15.5917L15.2524 15.91C15.5987 16.0394 15.9796 16.0418 16.3275 15.9168C16.6753 15.7919 16.9676 15.5476 17.1524 15.2275L17.9216 13.8967C18.1065 13.5764 18.1718 13.2009 18.1059 12.8369C18.04 12.473 17.8471 12.1443 17.5616 11.9092L16.8616 11.3325C16.7824 11.2675 16.7199 11.1417 16.7333 10.9742C16.757 10.6582 16.757 10.3409 16.7333 10.025C16.7199 9.85833 16.7824 9.73167 16.8608 9.66667L17.5608 9.09C18.1508 8.605 18.3033 7.765 17.9216 7.1025L17.1533 5.77167C16.9683 5.45132 16.6756 5.207 16.3274 5.08218C15.9792 4.95735 15.598 4.96013 15.2516 5.09L14.4016 5.40833C14.3066 5.44417 14.1666 5.43417 14.0274 5.33917C13.7663 5.16025 13.4919 5.00145 13.2066 4.86417C13.0541 4.79167 12.9758 4.675 12.9591 4.57417L12.8099 3.68083C12.7492 3.31589 12.5609 2.98435 12.2786 2.74522C11.9963 2.5061 11.6382 2.37491 11.2683 2.375H9.73161ZM10.4999 13.625C11.3287 13.625 12.1236 13.2958 12.7097 12.7097C13.2957 12.1237 13.6249 11.3288 13.6249 10.5C13.6249 9.6712 13.2957 8.87634 12.7097 8.29029C12.1236 7.70424 11.3287 7.375 10.4999 7.375C9.67114 7.375 8.87629 7.70424 8.29024 8.29029C7.70419 8.87634 7.37495 9.6712 7.37495 10.5C7.37495 11.3288 7.70419 12.1237 8.29024 12.7097C8.87629 13.2958 9.67114 13.625 10.4999 13.625Z" fill="black"/>
</svg>
