<svg width="21" height="21" viewBox="0 0 21 21" fill="none" xmlns="http://www.w3.org/2000/svg">
<path d="M6.125 6.75L8.625 8.625L6.125 10.5M9.875 10.5H12.375M4.875 17.375H16.125C16.6223 17.375 17.0992 17.1775 17.4508 16.8258C17.8025 16.4742 18 15.9973 18 15.5V5.5C18 5.00272 17.8025 4.52581 17.4508 4.17417C17.0992 3.82254 16.6223 3.625 16.125 3.625H4.875C4.37772 3.625 3.90081 3.82254 3.54917 4.17417C3.19754 4.52581 3 5.00272 3 5.5V15.5C3 15.9973 3.19754 16.4742 3.54917 16.8258C3.90081 17.1775 4.37772 17.375 4.875 17.375Z" stroke="black" stroke-width="1.5" stroke-linecap="round" stroke-linejoin="round"/>
</svg>
