<svg width="21" height="21" viewBox="0 0 21 21" fill="none" xmlns="http://www.w3.org/2000/svg">
<path fill-rule="evenodd" clip-rule="evenodd" d="M2.375 5.5C2.375 4.83696 2.63839 4.20107 3.10723 3.73223C3.57607 3.26339 4.21196 3 4.875 3H16.125C16.788 3 17.4239 3.26339 17.8928 3.73223C18.3616 4.20107 18.625 4.83696 18.625 5.5V15.5C18.625 16.163 18.3616 16.7989 17.8928 17.2678C17.4239 17.7366 16.788 18 16.125 18H4.875C4.21196 18 3.57607 17.7366 3.10723 17.2678C2.63839 16.7989 2.375 16.163 2.375 15.5V5.5ZM5.68333 6.30833C5.80052 6.19129 5.95937 6.12555 6.125 6.12555C6.29063 6.12555 6.44948 6.19129 6.56667 6.30833L8.44167 8.18333C8.55871 8.30052 8.62445 8.45937 8.62445 8.625C8.62445 8.79063 8.55871 8.94948 8.44167 9.06667L6.56667 10.9417C6.44819 11.0521 6.29148 11.1122 6.12956 11.1093C5.96765 11.1065 5.81316 11.0409 5.69865 10.9264C5.58414 10.8118 5.51854 10.6574 5.51569 10.4954C5.51283 10.3335 5.57293 10.1768 5.68333 10.0583L7.11667 8.625L5.68333 7.19167C5.56629 7.07448 5.50055 6.91563 5.50055 6.75C5.50055 6.58437 5.56629 6.42552 5.68333 6.30833ZM9.25 9.875C9.08424 9.875 8.92527 9.94085 8.80806 10.0581C8.69085 10.1753 8.625 10.3342 8.625 10.5C8.625 10.6658 8.69085 10.8247 8.80806 10.9419C8.92527 11.0592 9.08424 11.125 9.25 11.125H11.75C11.9158 11.125 12.0747 11.0592 12.1919 10.9419C12.3092 10.8247 12.375 10.6658 12.375 10.5C12.375 10.3342 12.3092 10.1753 12.1919 10.0581C12.0747 9.94085 11.9158 9.875 11.75 9.875H9.25Z" fill="black"/>
</svg>
