<svg width="21" height="21" viewBox="0 0 21 21" fill="none" xmlns="http://www.w3.org/2000/svg">
<path d="M8 14.875V15.7142C8.00004 16.0426 7.93537 16.3678 7.80968 16.6712C7.684 16.9746 7.49976 17.2503 7.2675 17.4825L6.75 18H14.25L13.7325 17.4825C13.5002 17.2503 13.316 16.9746 13.1903 16.6712C13.0646 16.3678 13 16.0426 13 15.7142V14.875M18 4.875V13C18 13.4973 17.8025 13.9742 17.4508 14.3258C17.0992 14.6775 16.6223 14.875 16.125 14.875H4.875C4.37772 14.875 3.90081 14.6775 3.54917 14.3258C3.19754 13.9742 3 13.4973 3 13V4.875M18 4.875C18 4.37772 17.8025 3.90081 17.4508 3.54917C17.0992 3.19754 16.6223 3 16.125 3H4.875C4.37772 3 3.90081 3.19754 3.54917 3.54917C3.19754 3.90081 3 4.37772 3 4.875M18 4.875V10.5C18 10.9973 17.8025 11.4742 17.4508 11.8258C17.0992 12.1775 16.6223 12.375 16.125 12.375H4.875C4.37772 12.375 3.90081 12.1775 3.54917 11.8258C3.19754 11.4742 3 10.9973 3 10.5V4.875" stroke="black" stroke-width="1.5" stroke-linecap="round" stroke-linejoin="round"/>
</svg>
