<svg width="21" height="21" viewBox="0 0 21 21" fill="none" xmlns="http://www.w3.org/2000/svg">
<path fill-rule="evenodd" clip-rule="evenodd" d="M2.5 4.75C2.5 4.15326 2.73705 3.58097 3.15901 3.15901C3.58097 2.73705 4.15326 2.5 4.75 2.5H16.25C16.8467 2.5 17.419 2.73705 17.841 3.15901C18.2629 3.58097 18.5 4.15326 18.5 4.75V13.25C18.5 13.8467 18.2629 14.419 17.841 14.841C17.419 15.2629 16.8467 15.5 16.25 15.5H13.145C13.3403 16.1543 13.7226 16.7372 14.245 17.177C14.3625 17.2762 14.4467 17.4092 14.4861 17.5579C14.5255 17.7065 14.5182 17.8637 14.4653 18.0081C14.4123 18.1526 14.3163 18.2772 14.1901 18.3652C14.064 18.4532 13.9138 18.5002 13.76 18.5H7.24C7.08628 18.5 6.93627 18.4528 6.81027 18.3647C6.68427 18.2767 6.58838 18.152 6.53557 18.0077C6.48275 17.8633 6.47557 17.7062 6.515 17.5576C6.55443 17.4091 6.63856 17.2762 6.756 17.177C7.27799 16.7371 7.65999 16.1542 7.855 15.5H4.75C4.15326 15.5 3.58097 15.2629 3.15901 14.841C2.73705 14.419 2.5 13.8467 2.5 13.25V4.75ZM4 4.75C4 4.55109 4.07902 4.36032 4.21967 4.21967C4.36032 4.07902 4.55109 4 4.75 4H16.25C16.4489 4 16.6397 4.07902 16.7803 4.21967C16.921 4.36032 17 4.55109 17 4.75V12.25C17 12.4489 16.921 12.6397 16.7803 12.7803C16.6397 12.921 16.4489 13 16.25 13H4.75C4.55109 13 4.36032 12.921 4.21967 12.7803C4.07902 12.6397 4 12.4489 4 12.25V4.75Z" fill="black"/>
</svg>
