<svg width="22" height="22" viewBox="0 0 22 22" fill="none" xmlns="http://www.w3.org/2000/svg">
<path d="M2.56079 7.44793H18.4435M2.56079 8.0588H18.4435M5.00429 12.0391H9.83938M5.00429 14.1675H7.44778M4.39341 16.611H16.6109C17.0969 16.611 17.5631 16.4179 17.9068 16.0742C18.2504 15.7306 18.4435 15.2644 18.4435 14.7784V6.22618C18.4435 5.74014 18.2504 5.274 17.9068 4.93032C17.5631 4.58663 17.0969 4.39355 16.6109 4.39355H4.39341C3.90737 4.39355 3.44124 4.58663 3.09755 4.93032C2.75387 5.274 2.56079 5.74014 2.56079 6.22618V14.7784C2.56079 15.2644 2.75387 15.7306 3.09755 16.0742C3.44124 16.4179 3.90737 16.611 4.39341 16.611Z" stroke="black" stroke-width="1.5" stroke-linecap="round" stroke-linejoin="round"/>
</svg>
