<svg width="21" height="21" viewBox="0 0 21 21" fill="none" xmlns="http://www.w3.org/2000/svg">
<path d="M4.47603 3.87305C3.83696 3.87305 3.22406 4.12692 2.77217 4.57881C2.32028 5.0307 2.06641 5.6436 2.06641 6.28267V6.88508H18.9338V6.28267C18.9338 5.6436 18.6799 5.0307 18.228 4.57881C17.7761 4.12692 17.1632 3.87305 16.5241 3.87305H4.47603Z" fill="black"/>
<path fill-rule="evenodd" clip-rule="evenodd" d="M18.9338 8.69336H2.06641V14.7174C2.06641 15.3565 2.32028 15.9694 2.77217 16.4213C3.22406 16.8732 3.83696 17.127 4.47603 17.127H16.5241C17.1632 17.127 17.7761 16.8732 18.228 16.4213C18.6799 15.9694 18.9338 15.3565 18.9338 14.7174V8.69336ZM4.47603 11.7054C4.47603 11.5456 4.5395 11.3924 4.65247 11.2794C4.76544 11.1665 4.91867 11.103 5.07844 11.103H9.89768C10.0574 11.103 10.2107 11.1665 10.3236 11.2794C10.4366 11.3924 10.5001 11.5456 10.5001 11.7054C10.5001 11.8652 10.4366 12.0184 10.3236 12.1314C10.2107 12.2443 10.0574 12.3078 9.89768 12.3078H5.07844C4.91867 12.3078 4.76544 12.2443 4.65247 12.1314C4.5395 12.0184 4.47603 11.8652 4.47603 11.7054ZM5.07844 13.5126C4.91867 13.5126 4.76544 13.5761 4.65247 13.689C4.5395 13.802 4.47603 13.9552 4.47603 14.115C4.47603 14.2748 4.5395 14.428 4.65247 14.541C4.76544 14.654 4.91867 14.7174 5.07844 14.7174H7.48806C7.64783 14.7174 7.80105 14.654 7.91402 14.541C8.027 14.428 8.09047 14.2748 8.09047 14.115C8.09047 13.9552 8.027 13.802 7.91402 13.689C7.80105 13.5761 7.64783 13.5126 7.48806 13.5126H5.07844Z" fill="black"/>
</svg>
