<svg width="21" height="21" viewBox="0 0 21 21" fill="none" xmlns="http://www.w3.org/2000/svg">
<path fill-rule="evenodd" clip-rule="evenodd" d="M10.8462 2.13371C10.7402 2.0753 10.6212 2.04468 10.5002 2.04468C10.3792 2.04468 10.2602 2.0753 10.1542 2.13371L3.35387 5.88512L10.5002 9.8277L17.6465 5.88512L10.8462 2.13371ZM18.1464 7.2471L11.217 11.0702V18.9554L17.7756 15.3368C17.8879 15.2749 17.9816 15.1839 18.0468 15.0735C18.112 14.963 18.1464 14.8371 18.1464 14.7088V7.2471ZM9.78338 18.9554V11.0702L2.854 7.2471V14.7088C2.85398 14.8371 2.88837 14.963 2.9536 15.0735C3.01883 15.1839 3.1125 15.2749 3.22484 15.3368L9.78338 18.9554Z" fill="black"/>
</svg>
