<svg width="21" height="21" viewBox="0 0 21 21" fill="none" xmlns="http://www.w3.org/2000/svg">
<path d="M10.5 5.5V15.5M8 13.1517L8.7325 13.7008C9.70833 14.4333 11.2908 14.4333 12.2675 13.7008C13.2442 12.9683 13.2442 11.7817 12.2675 11.0492C11.78 10.6825 11.14 10.5 10.5 10.5C9.89583 10.5 9.29167 10.3167 8.83083 9.95083C7.90917 9.21833 7.90917 8.03167 8.83083 7.29917C9.7525 6.56667 11.2475 6.56667 12.1692 7.29917L12.515 7.57417M18 10.5C18 11.4849 17.806 12.4602 17.4291 13.3701C17.0522 14.2801 16.4997 15.1069 15.8033 15.8033C15.1069 16.4997 14.2801 17.0522 13.3701 17.4291C12.4602 17.806 11.4849 18 10.5 18C9.51509 18 8.53982 17.806 7.62987 17.4291C6.71993 17.0522 5.89314 16.4997 5.1967 15.8033C4.50026 15.1069 3.94781 14.2801 3.5709 13.3701C3.19399 12.4602 3 11.4849 3 10.5C3 8.51088 3.79018 6.60322 5.1967 5.1967C6.60322 3.79018 8.51088 3 10.5 3C12.4891 3 14.3968 3.79018 15.8033 5.1967C17.2098 6.60322 18 8.51088 18 10.5Z" stroke="black" stroke-width="1.5" stroke-linecap="round" stroke-linejoin="round"/>
</svg>
