<svg width="21" height="21" viewBox="0 0 21 21" fill="none" xmlns="http://www.w3.org/2000/svg">
<path d="M11.25 11.318V13.932C11.6539 13.8639 12.0406 13.7171 12.388 13.5C12.87 13.185 13 12.852 13 12.625C13 12.398 12.87 12.065 12.388 11.75C12.0406 11.5329 11.6539 11.3862 11.25 11.318ZM8.83 9.12003C8.883 9.17503 8.945 9.23003 9.014 9.28403C9.222 9.44403 9.474 9.56803 9.75 9.64703V7.10303C9.6302 7.1374 9.51319 7.18085 9.4 7.23303C9.26 7.29803 9.13 7.37603 9.014 7.46603C8.637 7.75803 8.5 8.09303 8.5 8.37503C8.5 8.55903 8.558 8.76503 8.702 8.96703C8.739 9.01803 8.782 9.07003 8.83 9.12003Z" fill="black"/>
<path fill-rule="evenodd" clip-rule="evenodd" d="M18.5 10.5C18.5 12.6217 17.6571 14.6566 16.1569 16.1569C14.6566 17.6571 12.6217 18.5 10.5 18.5C8.37827 18.5 6.34344 17.6571 4.84315 16.1569C3.34285 14.6566 2.5 12.6217 2.5 10.5C2.5 8.37827 3.34285 6.34344 4.84315 4.84315C6.34344 3.34285 8.37827 2.5 10.5 2.5C12.6217 2.5 14.6566 3.34285 16.1569 4.84315C17.6571 6.34344 18.5 8.37827 18.5 10.5ZM10.5 4.5C10.6989 4.5 10.8897 4.57902 11.0303 4.71967C11.171 4.86032 11.25 5.05109 11.25 5.25V5.566C11.8504 5.66708 12.4175 5.91168 12.903 6.279C13.329 6.609 13.647 7.019 13.828 7.479C13.8951 7.66273 13.8877 7.86539 13.8075 8.04377C13.7272 8.22214 13.5805 8.36213 13.3985 8.43386C13.2166 8.5056 13.0138 8.50342 12.8334 8.42779C12.6531 8.35216 12.5094 8.20906 12.433 8.029C12.3376 7.80438 12.1831 7.60982 11.986 7.466C11.7658 7.29964 11.516 7.17647 11.25 7.103V9.8C11.948 9.893 12.633 10.12 13.209 10.496C13.996 11.01 14.499 11.766 14.499 12.626C14.499 13.486 13.995 14.242 13.209 14.756C12.633 15.133 11.948 15.359 11.249 15.452V15.751C11.249 15.9499 11.17 16.1407 11.0293 16.2813C10.8887 16.422 10.6979 16.501 10.499 16.501C10.3001 16.501 10.1093 16.422 9.96867 16.2813C9.82802 16.1407 9.749 15.9499 9.749 15.751V15.451C9.052 15.359 8.367 15.133 7.791 14.756C7.309 14.441 6.934 14.039 6.713 13.568C6.62866 13.3878 6.61937 13.1814 6.68716 12.9944C6.75496 12.8073 6.89429 12.6548 7.0745 12.5705C7.25471 12.4862 7.46105 12.4769 7.64812 12.5447C7.83519 12.6125 7.98766 12.7518 8.072 12.932C8.152 13.105 8.317 13.308 8.612 13.501C8.925 13.706 9.318 13.854 9.75 13.933V11.185C9.14964 11.0838 8.58258 10.8393 8.097 10.472C7.4 9.933 7 9.181 7 8.375C7 7.57 7.4 6.817 8.097 6.279C8.58254 5.91168 9.14962 5.66708 9.75 5.566V5.25C9.75 5.05109 9.82902 4.86032 9.96967 4.71967C10.1103 4.57902 10.3011 4.5 10.5 4.5Z" fill="black"/>
</svg>
