<svg width="20" height="20" viewBox="0 0 20 20" fill="none" xmlns="http://www.w3.org/2000/svg">
<path d="M12.9953 12.4963C12.1086 12.4963 11.3775 11.6825 11.3775 10.6825C11.3775 9.68246 12.0938 8.86865 12.9953 8.86865C13.8968 8.86865 14.6268 9.69034 14.613 10.6825C14.5992 11.6746 13.9037 12.4963 12.9953 12.4963ZM7.01487 12.4963C6.12815 12.4963 5.3971 11.6825 5.3971 10.6825C5.3971 9.68246 6.11337 8.86865 7.01487 8.86865C7.91636 8.86865 8.64642 9.69034 8.63263 10.6825C8.61884 11.6746 7.91538 12.4963 7.01487 12.4963ZM16.2357 4.27644C15.069 3.74094 13.8376 3.35909 12.5726 3.14046C12.5611 3.13818 12.5492 3.13962 12.5385 3.14458C12.5279 3.14954 12.5191 3.15776 12.5135 3.16805C12.3458 3.4725 12.1935 3.78522 12.0573 4.10501C10.6937 3.89791 9.3066 3.89791 7.94296 4.10501C7.80595 3.78441 7.65136 3.47162 7.4799 3.16805C7.47394 3.15806 7.46512 3.1501 7.45458 3.14518C7.44404 3.14026 7.43227 3.13862 7.42078 3.14046C6.15564 3.35863 4.92426 3.7405 3.75767 4.27644C3.74785 4.28075 3.73959 4.28797 3.73402 4.29713C1.40097 7.78291 0.761549 11.183 1.07387 14.5436C1.07476 14.5519 1.07732 14.5599 1.08138 14.5672C1.08545 14.5745 1.09093 14.5809 1.09752 14.586C2.45592 15.5924 3.97543 16.3606 5.59119 16.858C5.60256 16.8614 5.61469 16.8612 5.62596 16.8575C5.63724 16.8538 5.64711 16.8467 5.65425 16.8373C6.00123 16.3649 6.30868 15.8646 6.57348 15.3417C6.57701 15.3345 6.57899 15.3267 6.57929 15.3187C6.5796 15.3107 6.57822 15.3027 6.57525 15.2953C6.57228 15.2878 6.56778 15.2811 6.56204 15.2755C6.55631 15.2699 6.54946 15.2656 6.54195 15.2629C6.05702 15.0773 5.58757 14.8536 5.13798 14.5939C5.1293 14.5892 5.12196 14.5823 5.11666 14.574C5.11135 14.5657 5.10826 14.5561 5.10766 14.5463C5.10707 14.5364 5.109 14.5266 5.11328 14.5177C5.11755 14.5087 5.12401 14.5011 5.13207 14.4954C5.2306 14.4244 5.32124 14.3515 5.4109 14.2766C5.41886 14.27 5.42854 14.2657 5.43883 14.2643C5.44911 14.2629 5.45958 14.2645 5.46903 14.2688C8.41391 15.6136 11.6031 15.6136 14.5135 14.2688C14.523 14.2641 14.5336 14.2623 14.5441 14.2635C14.5546 14.2648 14.5645 14.269 14.5726 14.2757C14.6623 14.3495 14.7569 14.4244 14.8524 14.4944C14.8605 14.5 14.8671 14.5076 14.8714 14.5165C14.8758 14.5253 14.8778 14.5351 14.8773 14.545C14.8768 14.5549 14.8738 14.5644 14.8686 14.5728C14.8634 14.5812 14.8561 14.5881 14.8475 14.5929C14.4006 14.8534 13.9327 15.0759 13.4485 15.2579C13.4409 15.2608 13.4341 15.2652 13.4283 15.2709C13.4226 15.2766 13.4182 15.2834 13.4153 15.291C13.4124 15.2985 13.4111 15.3066 13.4116 15.3146C13.4121 15.3227 13.4142 15.3306 13.4179 15.3377C13.6867 15.858 13.9933 16.3579 14.3352 16.8333C14.3421 16.8431 14.3519 16.8504 14.3632 16.8543C14.3745 16.8582 14.3868 16.8585 14.3983 16.855C16.0168 16.3592 17.5388 15.5909 18.8988 14.583C18.9055 14.5782 18.911 14.572 18.9151 14.5649C18.9192 14.5578 18.9217 14.5498 18.9225 14.5417C19.2978 10.6598 18.2939 7.28734 16.2623 4.29516C16.2563 4.2861 16.2462 4.27947 16.2357 4.27644Z" fill="#5865F2"/>
</svg>
