<svg width="21" height="21" viewBox="0 0 21 21" fill="none" xmlns="http://www.w3.org/2000/svg">
<path fill-rule="evenodd" clip-rule="evenodd" d="M5.41497 2.125C4.58864 2.125 3.91943 2.795 3.91943 3.62054V17.3795C3.91943 18.205 4.58943 18.875 5.41497 18.875H15.5846C16.4101 18.875 17.0801 18.205 17.0801 17.3795V11.0982C17.0801 10.3049 16.765 9.54414 16.2041 8.98321C15.6431 8.42227 14.8824 8.10714 14.0891 8.10714H12.5935C12.1969 8.10714 11.8165 7.94958 11.536 7.66911C11.2556 7.38864 11.098 7.00825 11.098 6.61161V5.11607C11.098 4.32279 10.7829 3.562 10.2219 3.00106C9.66101 2.44013 8.90022 2.125 8.10693 2.125H5.41497ZM6.91051 12.8929C6.91051 12.7342 6.97353 12.582 7.08572 12.4699C7.1979 12.3577 7.35006 12.2946 7.50872 12.2946H13.4909C13.6495 12.2946 13.8017 12.3577 13.9139 12.4699C14.0261 12.582 14.0891 12.7342 14.0891 12.8929C14.0891 13.0515 14.0261 13.2037 13.9139 13.3159C13.8017 13.428 13.6495 13.4911 13.4909 13.4911H7.50872C7.35006 13.4911 7.1979 13.428 7.08572 13.3159C6.97353 13.2037 6.91051 13.0515 6.91051 12.8929ZM7.50872 14.6875C7.35006 14.6875 7.1979 14.7505 7.08572 14.8627C6.97353 14.9749 6.91051 15.1271 6.91051 15.2857C6.91051 15.4444 6.97353 15.5965 7.08572 15.7087C7.1979 15.8209 7.35006 15.8839 7.50872 15.8839H10.4998C10.6584 15.8839 10.8106 15.8209 10.9228 15.7087C11.035 15.5965 11.098 15.4444 11.098 15.2857C11.098 15.1271 11.035 14.9749 10.9228 14.8627C10.8106 14.7505 10.6584 14.6875 10.4998 14.6875H7.50872Z" fill="black"/>
<path d="M11.2744 2.3772C11.9337 3.1373 12.296 4.11006 12.2946 5.11622V6.61176C12.2946 6.77686 12.4286 6.91086 12.5937 6.91086H14.0892C15.0954 6.90947 16.0681 7.27177 16.8282 7.93102C16.4773 6.59637 15.7782 5.37888 14.8024 4.40306C13.8266 3.42724 12.6091 2.72812 11.2744 2.3772Z" fill="black"/>
</svg>
