<svg width="21" height="21" viewBox="0 0 21 21" fill="none" xmlns="http://www.w3.org/2000/svg">
<path d="M16.75 12.3462V10.1923C16.75 9.45786 16.4537 8.7535 15.9262 8.23417C15.3988 7.71483 14.6834 7.42308 13.9375 7.42308H12.6875C12.4389 7.42308 12.2004 7.32582 12.0246 7.15271C11.8488 6.9796 11.75 6.74482 11.75 6.5V5.26923C11.75 4.53479 11.4537 3.83042 10.9262 3.31109C10.3988 2.79176 9.68342 2.5 8.9375 2.5H7.375M7.375 12.9615H13.625M7.375 15.4231H10.5M9.25 2.5H5.1875C4.67 2.5 4.25 2.91354 4.25 3.42308V17.5769C4.25 18.0865 4.67 18.5 5.1875 18.5H15.8125C16.33 18.5 16.75 18.0865 16.75 17.5769V9.88462C16.75 7.92609 15.9598 6.04779 14.5533 4.6629C13.1468 3.27802 11.2391 2.5 9.25 2.5Z" stroke="black" stroke-width="1.5" stroke-linecap="round" stroke-linejoin="round"/>
</svg>
