<svg width="21" height="21" viewBox="0 0 21 21" fill="none" xmlns="http://www.w3.org/2000/svg">
<path d="M13.625 14.875V17.6875C13.625 18.205 13.205 18.625 12.6875 18.625H4.5625C4.31386 18.625 4.0754 18.5262 3.89959 18.3504C3.72377 18.1746 3.625 17.9361 3.625 17.6875V7.0625C3.625 6.545 4.045 6.125 4.5625 6.125H6.125C6.54381 6.12472 6.96192 6.15928 7.375 6.22834M13.625 14.875H16.4375C16.955 14.875 17.375 14.455 17.375 13.9375V9.875C17.375 6.15834 14.6725 3.07417 11.125 2.47834C10.7119 2.40928 10.2938 2.37472 9.875 2.375H8.3125C7.795 2.375 7.375 2.795 7.375 3.3125V6.22834M13.625 14.875H8.3125C8.06386 14.875 7.8254 14.7762 7.64959 14.6004C7.47377 14.4246 7.375 14.1861 7.375 13.9375V6.22834M17.375 11.75V10.1875C17.375 9.44158 17.0787 8.72621 16.5512 8.19876C16.0238 7.67132 15.3084 7.375 14.5625 7.375H13.3125C13.0639 7.375 12.8254 7.27623 12.6496 7.10041C12.4738 6.9246 12.375 6.68614 12.375 6.4375V5.1875C12.375 4.81816 12.3023 4.45243 12.1609 4.1112C12.0196 3.76998 11.8124 3.45993 11.5512 3.19876C11.2901 2.9376 10.98 2.73043 10.6388 2.58909C10.2976 2.44775 9.93184 2.375 9.5625 2.375H8.625" stroke="black" stroke-width="1.5" stroke-linecap="round" stroke-linejoin="round"/>
</svg>
