<svg width="21" height="21" viewBox="0 0 21 21" fill="none" xmlns="http://www.w3.org/2000/svg">
<path d="M8 11.25C8.41421 11.25 8.75 10.9142 8.75 10.5C8.75 10.0858 8.41421 9.75 8 9.75C7.58579 9.75 7.25 10.0858 7.25 10.5C7.25 10.9142 7.58579 11.25 8 11.25Z" stroke="black" stroke-width="1.5" stroke-linecap="round" stroke-linejoin="round"/>
<path d="M8 6.25C8.41421 6.25 8.75 5.91421 8.75 5.5C8.75 5.08579 8.41421 4.75 8 4.75C7.58579 4.75 7.25 5.08579 7.25 5.5C7.25 5.91421 7.58579 6.25 8 6.25Z" stroke="black" stroke-width="1.5" stroke-linecap="round" stroke-linejoin="round"/>
<path d="M8 16.25C8.41421 16.25 8.75 15.9142 8.75 15.5C8.75 15.0858 8.41421 14.75 8 14.75C7.58579 14.75 7.25 15.0858 7.25 15.5C7.25 15.9142 7.58579 16.25 8 16.25Z" stroke="black" stroke-width="1.5" stroke-linecap="round" stroke-linejoin="round"/>
<path d="M13 11.25C13.4142 11.25 13.75 10.9142 13.75 10.5C13.75 10.0858 13.4142 9.75 13 9.75C12.5858 9.75 12.25 10.0858 12.25 10.5C12.25 10.9142 12.5858 11.25 13 11.25Z" stroke="black" stroke-width="1.5" stroke-linecap="round" stroke-linejoin="round"/>
<path d="M13 6.25C13.4142 6.25 13.75 5.91421 13.75 5.5C13.75 5.08579 13.4142 4.75 13 4.75C12.5858 4.75 12.25 5.08579 12.25 5.5C12.25 5.91421 12.5858 6.25 13 6.25Z" stroke="black" stroke-width="1.5" stroke-linecap="round" stroke-linejoin="round"/>
<path d="M13 16.25C13.4142 16.25 13.75 15.9142 13.75 15.5C13.75 15.0858 13.4142 14.75 13 14.75C12.5858 14.75 12.25 15.0858 12.25 15.5C12.25 15.9142 12.5858 16.25 13 16.25Z" stroke="black" stroke-width="1.5" stroke-linecap="round" stroke-linejoin="round"/>
</svg>
