<svg width="21" height="21" viewBox="0 0 21 21" fill="none" xmlns="http://www.w3.org/2000/svg">
<path d="M4.25 10.5C4.25 10.3011 4.32902 10.1103 4.46967 9.96967C4.61032 9.82902 4.80109 9.75 5 9.75C5.19891 9.75 5.38968 9.82902 5.53033 9.96967C5.67098 10.1103 5.75 10.3011 5.75 10.5C5.75 10.6989 5.67098 10.8897 5.53033 11.0303C5.38968 11.171 5.19891 11.25 5 11.25C4.80109 11.25 4.61032 11.171 4.46967 11.0303C4.32902 10.8897 4.25 10.6989 4.25 10.5ZM9.75 10.5C9.75 10.3011 9.82902 10.1103 9.96967 9.96967C10.1103 9.82902 10.3011 9.75 10.5 9.75C10.6989 9.75 10.8897 9.82902 11.0303 9.96967C11.171 10.1103 11.25 10.3011 11.25 10.5C11.25 10.6989 11.171 10.8897 11.0303 11.0303C10.8897 11.171 10.6989 11.25 10.5 11.25C10.3011 11.25 10.1103 11.171 9.96967 11.0303C9.82902 10.8897 9.75 10.6989 9.75 10.5ZM15.4697 9.96967C15.6103 9.82902 15.8011 9.75 16 9.75C16.1989 9.75 16.3897 9.82902 16.5303 9.96967C16.671 10.1103 16.75 10.3011 16.75 10.5C16.75 10.6989 16.671 10.8897 16.5303 11.0303C16.3897 11.171 16.1989 11.25 16 11.25C15.8011 11.25 15.6103 11.171 15.4697 11.0303C15.329 10.8897 15.25 10.6989 15.25 10.5C15.25 10.3011 15.329 10.1103 15.4697 9.96967Z" stroke="black" stroke-width="1.5"/>
</svg>
