<svg width="21" height="21" viewBox="0 0 21 21" fill="none" xmlns="http://www.w3.org/2000/svg">
<path d="M10.5 4.25C10.6989 4.25 10.8897 4.32902 11.0303 4.46967C11.171 4.61032 11.25 4.80109 11.25 5C11.25 5.19891 11.171 5.38968 11.0303 5.53033C10.8897 5.67098 10.6989 5.75 10.5 5.75C10.3011 5.75 10.1103 5.67098 9.96967 5.53033C9.82902 5.38968 9.75 5.19891 9.75 5C9.75 4.80109 9.82902 4.61032 9.96967 4.46967C10.1103 4.32902 10.3011 4.25 10.5 4.25ZM10.5 9.75C10.6989 9.75 10.8897 9.82902 11.0303 9.96967C11.171 10.1103 11.25 10.3011 11.25 10.5C11.25 10.6989 11.171 10.8897 11.0303 11.0303C10.8897 11.171 10.6989 11.25 10.5 11.25C10.3011 11.25 10.1103 11.171 9.96967 11.0303C9.82902 10.8897 9.75 10.6989 9.75 10.5C9.75 10.3011 9.82902 10.1103 9.96967 9.96967C10.1103 9.82902 10.3011 9.75 10.5 9.75ZM11.0303 15.4697C11.171 15.6103 11.25 15.8011 11.25 16C11.25 16.1989 11.171 16.3897 11.0303 16.5303C10.8897 16.671 10.6989 16.75 10.5 16.75C10.3011 16.75 10.1103 16.671 9.96967 16.5303C9.82902 16.3897 9.75 16.1989 9.75 16C9.75 15.8011 9.82902 15.6103 9.96967 15.4697C10.1103 15.329 10.3011 15.25 10.5 15.25C10.6989 15.25 10.8897 15.329 11.0303 15.4697Z" stroke="black" stroke-width="1.5"/>
</svg>
