<svg width="21" height="21" viewBox="0 0 21 21" fill="none" xmlns="http://www.w3.org/2000/svg">
<path d="M2.125 7.84399V14.6876C2.125 15.3222 2.3771 15.9308 2.82585 16.3796C3.2746 16.8283 3.88323 17.0804 4.51786 17.0804H16.4821C17.1168 17.0804 17.7254 16.8283 18.1741 16.3796C18.6229 15.9308 18.875 15.3222 18.875 14.6876V7.84399L11.7539 12.2253C11.3768 12.4573 10.9427 12.5801 10.5 12.5801C10.0573 12.5801 9.62322 12.4573 9.24614 12.2253L2.125 7.84399Z" fill="black"/>
<path d="M18.875 6.43844V6.31241C18.875 5.67779 18.6229 5.06916 18.1741 4.62041C17.7254 4.17166 17.1168 3.91956 16.4821 3.91956H4.51786C3.88323 3.91956 3.2746 4.17166 2.82585 4.62041C2.3771 5.06916 2.125 5.67779 2.125 6.31241V6.43844L9.87307 11.2066C10.0616 11.3226 10.2786 11.384 10.5 11.384C10.7214 11.384 10.9384 11.3226 11.1269 11.2066L18.875 6.43844Z" fill="black"/>
</svg>
