<svg width="21" height="21" viewBox="0 0 21 21" fill="none" xmlns="http://www.w3.org/2000/svg">
<path d="M18.0625 6.42793V14.5721C18.0625 15.035 17.8786 15.4789 17.5513 15.8062C17.2241 16.1335 16.7802 16.3173 16.3173 16.3173H4.68269C4.21984 16.3173 3.77594 16.1335 3.44865 15.8062C3.12137 15.4789 2.9375 15.035 2.9375 14.5721V6.42793M18.0625 6.42793C18.0625 5.96508 17.8786 5.52118 17.5513 5.19389C17.2241 4.86661 16.7802 4.68274 16.3173 4.68274H4.68269C4.21984 4.68274 3.77594 4.86661 3.44865 5.19389C3.12137 5.52118 2.9375 5.96508 2.9375 6.42793M18.0625 6.42793V6.61641C18.0625 6.91437 17.9863 7.20738 17.841 7.46752C17.6957 7.72766 17.4863 7.94628 17.2326 8.10254L11.4153 11.6821C11.1401 11.8516 10.8232 11.9414 10.5 11.9414C10.1768 11.9414 9.85994 11.8516 9.58474 11.6821L3.76744 8.10332C3.51374 7.94705 3.30428 7.72844 3.159 7.4683C3.01372 7.20815 2.93747 6.91515 2.9375 6.61719V6.42793" stroke="black" stroke-width="1.5" stroke-linecap="round" stroke-linejoin="round"/>
</svg>
