<svg width="21" height="21" viewBox="0 0 21 21" fill="none" xmlns="http://www.w3.org/2000/svg">
<path fill-rule="evenodd" clip-rule="evenodd" d="M18.5 10.5C18.5 12.6217 17.6571 14.6566 16.1569 16.1569C14.6566 17.6571 12.6217 18.5 10.5 18.5C8.37827 18.5 6.34344 17.6571 4.84315 16.1569C3.34285 14.6566 2.5 12.6217 2.5 10.5C2.5 8.37827 3.34285 6.34344 4.84315 4.84315C6.34344 3.34285 8.37827 2.5 10.5 2.5C12.6217 2.5 14.6566 3.34285 16.1569 4.84315C17.6571 6.34344 18.5 8.37827 18.5 10.5ZM10.5 5.5C10.6989 5.5 10.8897 5.57902 11.0303 5.71967C11.171 5.86032 11.25 6.05109 11.25 6.25V10.75C11.25 10.9489 11.171 11.1397 11.0303 11.2803C10.8897 11.421 10.6989 11.5 10.5 11.5C10.3011 11.5 10.1103 11.421 9.96967 11.2803C9.82902 11.1397 9.75 10.9489 9.75 10.75V6.25C9.75 6.05109 9.82902 5.86032 9.96967 5.71967C10.1103 5.57902 10.3011 5.5 10.5 5.5ZM10.5 15.5C10.7652 15.5 11.0196 15.3946 11.2071 15.2071C11.3946 15.0196 11.5 14.7652 11.5 14.5C11.5 14.2348 11.3946 13.9804 11.2071 13.7929C11.0196 13.6054 10.7652 13.5 10.5 13.5C10.2348 13.5 9.98043 13.6054 9.79289 13.7929C9.60536 13.9804 9.5 14.2348 9.5 14.5C9.5 14.7652 9.60536 15.0196 9.79289 15.2071C9.98043 15.3946 10.2348 15.5 10.5 15.5Z" fill="black"/>
</svg>
