<svg width="21" height="21" viewBox="0 0 21 21" fill="none" xmlns="http://www.w3.org/2000/svg">
<path fill-rule="evenodd" clip-rule="evenodd" d="M3.77985 2.71997C3.63767 2.58749 3.44963 2.51537 3.25532 2.51879C3.06102 2.52222 2.87564 2.60093 2.73822 2.73835C2.60081 2.87576 2.5221 3.06114 2.51867 3.25545C2.51524 3.44975 2.58737 3.63779 2.71985 3.77997L17.2198 18.28C17.2885 18.3537 17.3713 18.4128 17.4633 18.4537C17.5553 18.4947 17.6546 18.5168 17.7553 18.5186C17.856 18.5203 17.9561 18.5018 18.0494 18.4641C18.1428 18.4264 18.2277 18.3702 18.2989 18.299C18.3701 18.2278 18.4262 18.143 18.464 18.0496C18.5017 17.9562 18.5202 17.8561 18.5184 17.7554C18.5167 17.6547 18.4946 17.5554 18.4536 17.4634C18.4126 17.3714 18.3535 17.2886 18.2798 17.22L16.5348 15.475C18.0204 14.3499 19.1631 12.8332 19.8348 11.095C19.9815 10.7136 19.9815 10.2914 19.8348 9.90997C19.1086 8.02334 17.8278 6.40101 16.1612 5.25675C14.4946 4.11249 12.5204 3.49999 10.4989 3.49997C8.84282 3.49723 7.21227 3.90762 5.75485 4.69397L3.77985 2.71997ZM8.25185 7.18997L9.34385 8.28197C9.81561 8.03539 10.3538 7.94583 10.88 8.02633C11.4062 8.10684 11.8929 8.3532 12.2694 8.72955C12.6459 9.1059 12.8924 9.59259 12.973 10.1188C13.0537 10.6449 12.9643 11.1831 12.7178 11.655L13.8088 12.747C14.3324 11.9771 14.571 11.0487 14.4836 10.1218C14.3961 9.19485 13.988 8.32748 13.3297 7.66913C12.6713 7.01079 11.804 6.60272 10.877 6.51525C9.95012 6.42778 9.02172 6.6664 8.25185 7.18997Z" fill="black"/>
<path d="M11.2479 14.43L13.7709 16.953C12.719 17.3163 11.6137 17.5011 10.5009 17.5C6.24288 17.5 2.60688 14.84 1.16388 11.09C1.01699 10.7083 1.01699 10.2857 1.16388 9.90402C1.65235 8.64043 2.3923 7.48917 3.33888 6.52002L6.56988 9.75202C6.44778 10.3928 6.48426 11.0538 6.67614 11.6773C6.86803 12.3008 7.20949 12.8679 7.67076 13.3291C8.13204 13.7904 8.69914 14.1319 9.32262 14.3238C9.94611 14.5156 10.6071 14.5521 11.2479 14.43Z" fill="black"/>
</svg>
