<svg width="21" height="21" viewBox="0 0 21 21" fill="none" xmlns="http://www.w3.org/2000/svg">
<path d="M5.15355 7.982C4.52985 8.71812 4.06543 9.57547 3.78955 10.5C4.65088 13.392 7.32955 15.5 10.5002 15.5C11.1622 15.5 11.8022 15.408 12.4089 15.2367M6.65222 6.652C7.79396 5.89854 9.13227 5.49788 10.5002 5.5C13.6709 5.5 16.3489 7.608 17.2102 10.4987C16.7381 12.0782 15.7249 13.441 14.3482 14.348M6.65222 6.652L4.50022 4.5M6.65222 6.652L9.08555 9.08533C9.27128 8.8996 9.49245 8.75294 9.73512 8.65242C9.97779 8.5519 10.2379 8.50016 10.5006 8.50016C10.7632 8.50016 11.0233 8.5519 11.266 8.65242C11.5087 8.75294 11.7292 8.90027 11.9149 9.086C12.1006 9.27173 12.2479 9.49223 12.3485 9.7349C12.449 9.97757 12.5007 10.2377 12.5007 10.5003C12.5007 10.763 12.449 11.0231 12.3485 11.2658C12.2479 11.5084 12.1006 11.7289 11.9149 11.9147M14.3482 14.348L16.5002 16.5M14.3482 14.348L11.9149 11.9147M11.9149 11.9147L9.08688 9.08667" stroke="black" stroke-width="1.5" stroke-linecap="round" stroke-linejoin="round"/>
</svg>
