<svg width="21" height="21" viewBox="0 0 21 21" fill="none" xmlns="http://www.w3.org/2000/svg">
<path d="M3.81657 7.3525C3.03695 8.27265 2.45642 9.34434 2.11157 10.5C3.18824 14.115 6.53657 16.75 10.4999 16.75C11.3274 16.75 12.1274 16.635 12.8857 16.4208M5.68991 5.69C7.11709 4.74817 8.78997 4.24735 10.4999 4.25C14.4632 4.25 17.8107 6.885 18.8874 10.4983C18.2973 12.4727 17.0307 14.1763 15.3099 15.31M5.68991 5.69L2.99991 3M5.68991 5.69L8.73157 8.73167M15.3099 15.31L17.9999 18M15.3099 15.31L12.2682 12.2683C12.5004 12.0362 12.6846 11.7605 12.8102 11.4572C12.9359 11.1539 13.0005 10.8287 13.0005 10.5004C13.0005 10.1721 12.9359 9.84697 12.8102 9.54363C12.6846 9.24029 12.5004 8.96467 12.2682 8.7325C12.0361 8.50033 11.7605 8.31617 11.4571 8.19052C11.1538 8.06487 10.8287 8.0002 10.5003 8.0002C10.172 8.0002 9.84687 8.06487 9.54353 8.19052C9.24019 8.31617 8.96457 8.50033 8.73241 8.7325M12.2674 12.2675L8.73324 8.73333" stroke="black" stroke-width="1.5" stroke-linecap="round" stroke-linejoin="round"/>
</svg>
