<svg width="21" height="21" viewBox="0 0 21 21" fill="none" xmlns="http://www.w3.org/2000/svg">
<path d="M2.1967 10.7683C2.13919 10.5955 2.13919 10.4087 2.1967 10.2358C3.35253 6.75833 6.63336 4.25 10.5 4.25C14.365 4.25 17.6442 6.75583 18.8025 10.2317C18.8609 10.4042 18.8609 10.5908 18.8025 10.7642C17.6475 14.2417 14.3667 16.75 10.5 16.75C6.63503 16.75 3.35503 14.2442 2.1967 10.7683Z" stroke="black" stroke-width="1.5" stroke-linecap="round" stroke-linejoin="round"/>
<path d="M13 10.5C13 11.163 12.7366 11.7989 12.2678 12.2678C11.7989 12.7366 11.163 13 10.5 13C9.83696 13 9.20107 12.7366 8.73223 12.2678C8.26339 11.7989 8 11.163 8 10.5C8 9.83696 8.26339 9.20107 8.73223 8.73223C9.20107 8.26339 9.83696 8 10.5 8C11.163 8 11.7989 8.26339 12.2678 8.73223C12.7366 9.20107 13 9.83696 13 10.5Z" stroke="black" stroke-width="1.5" stroke-linecap="round" stroke-linejoin="round"/>
</svg>
