<svg width="21" height="21" viewBox="0 0 21 21" fill="none" xmlns="http://www.w3.org/2000/svg">
<path d="M3.85726 10.7147C3.81125 10.5764 3.81125 10.4269 3.85726 10.2887C4.78193 7.50667 7.40659 5.5 10.4999 5.5C13.5919 5.5 16.2153 7.50467 17.1419 10.2853C17.1886 10.4233 17.1886 10.5727 17.1419 10.7113C16.2179 13.4933 13.5933 15.5 10.4999 15.5C7.40793 15.5 4.78393 13.4953 3.85726 10.7147Z" stroke="black" stroke-width="1.5" stroke-linecap="round" stroke-linejoin="round"/>
<path d="M12.5 10.5C12.5 11.0304 12.2893 11.5391 11.9142 11.9142C11.5391 12.2893 11.0304 12.5 10.5 12.5C9.96957 12.5 9.46086 12.2893 9.08579 11.9142C8.71071 11.5391 8.5 11.0304 8.5 10.5C8.5 9.96957 8.71071 9.46086 9.08579 9.08579C9.46086 8.71071 9.96957 8.5 10.5 8.5C11.0304 8.5 11.5391 8.71071 11.9142 9.08579C12.2893 9.46086 12.5 9.96957 12.5 10.5Z" stroke="black" stroke-width="1.5" stroke-linecap="round" stroke-linejoin="round"/>
</svg>
