<svg width="21" height="21" viewBox="0 0 21 21" fill="none" xmlns="http://www.w3.org/2000/svg">
<path d="M10.5 13C11.163 13 11.7989 12.7366 12.2678 12.2678C12.7366 11.7989 13 11.163 13 10.5C13 9.83696 12.7366 9.20107 12.2678 8.73223C11.7989 8.26339 11.163 8 10.5 8C9.83696 8 9.20107 8.26339 8.73223 8.73223C8.26339 9.20107 8 9.83696 8 10.5C8 11.163 8.26339 11.7989 8.73223 12.2678C9.20107 12.7366 9.83696 13 10.5 13Z" fill="black"/>
<path fill-rule="evenodd" clip-rule="evenodd" d="M1.16388 11.09C1.01699 10.7083 1.01699 10.2857 1.16388 9.904C1.89111 8.01849 3.17234 6.39744 4.83884 5.25431C6.50535 4.11117 8.47899 3.49956 10.4999 3.5C14.7569 3.5 18.3929 6.16 19.8359 9.91C19.9829 10.291 19.9819 10.714 19.8359 11.096C19.1087 12.9815 17.8274 14.6026 16.1609 15.7457C14.4944 16.8888 12.5208 17.5004 10.4999 17.5C6.24288 17.5 2.60688 14.84 1.16388 11.09ZM14.4999 10.5C14.4999 11.5609 14.0785 12.5783 13.3283 13.3284C12.5782 14.0786 11.5607 14.5 10.4999 14.5C9.43902 14.5 8.4216 14.0786 7.67146 13.3284C6.92131 12.5783 6.49988 11.5609 6.49988 10.5C6.49988 9.43913 6.92131 8.42172 7.67146 7.67157C8.4216 6.92143 9.43902 6.5 10.4999 6.5C11.5607 6.5 12.5782 6.92143 13.3283 7.67157C14.0785 8.42172 14.4999 9.43913 14.4999 10.5Z" fill="black"/>
</svg>
