<svg width="20" height="20" viewBox="0 0 20 20" fill="none" xmlns="http://www.w3.org/2000/svg">
<path fill-rule="evenodd" clip-rule="evenodd" d="M1 10C1 14.455 4.24 18.145 8.515 18.91L8.56818 18.8665C8.56548 18.866 8.56277 18.8655 8.56006 18.865V12.52H6.31006V10H8.56006V8.02001C8.56006 5.77001 10.0001 4.51001 12.0701 4.51001C12.7001 4.51001 13.4201 4.60001 14.0501 4.69001V6.98501H12.8801C11.8001 6.98501 11.5301 7.52501 11.5301 8.24501V10H13.9151L13.5101 12.52H11.5301V18.865C11.5026 18.87 11.4752 18.8748 11.4478 18.8796L11.485 18.91C15.76 18.145 19 14.455 19 10C19 5.05 14.95 1 10 1C5.05 1 1 5.05 1 10Z" fill="url(#paint0_linear_1394_1022)"/>
<defs>
<linearGradient id="paint0_linear_1394_1022" x1="10.0004" y1="18.374" x2="10.0004" y2="0.996685" gradientUnits="userSpaceOnUse">
<stop stop-color="#0062E0"/>
<stop offset="1" stop-color="#19AFFF"/>
</linearGradient>
</defs>
</svg>
