<svg width="21" height="21" viewBox="0 0 21 21" fill="none" xmlns="http://www.w3.org/2000/svg">
<path d="M13.1517 13.1517C12.8034 13.4999 12.39 13.7761 11.9351 13.9646C11.4801 14.153 10.9925 14.25 10.5 14.25C10.0075 14.25 9.5199 14.153 9.06493 13.9646C8.60995 13.7761 8.19655 13.4999 7.84833 13.1517M18 10.5C18 11.4849 17.806 12.4602 17.4291 13.3701C17.0522 14.2801 16.4997 15.1069 15.8033 15.8033C15.1069 16.4997 14.2801 17.0522 13.3701 17.4291C12.4602 17.806 11.4849 18 10.5 18C9.51509 18 8.53982 17.806 7.62987 17.4291C6.71993 17.0522 5.89314 16.4997 5.1967 15.8033C4.50026 15.1069 3.94781 14.2801 3.5709 13.3701C3.19399 12.4602 3 11.4849 3 10.5C3 8.51088 3.79018 6.60322 5.1967 5.1967C6.60322 3.79018 8.51088 3 10.5 3C12.4891 3 14.3968 3.79018 15.8033 5.1967C17.2098 6.60322 18 8.51088 18 10.5ZM8.625 8.625C8.625 8.97 8.485 9.25 8.3125 9.25C8.14 9.25 8 8.97 8 8.625C8 8.28 8.14 8 8.3125 8C8.485 8 8.625 8.28 8.625 8.625ZM8.3125 8.625H8.31917V8.6375H8.3125V8.625ZM13 8.625C13 8.97 12.86 9.25 12.6875 9.25C12.515 9.25 12.375 8.97 12.375 8.625C12.375 8.28 12.515 8 12.6875 8C12.86 8 13 8.28 13 8.625ZM12.6875 8.625H12.6942V8.6375H12.6875V8.625Z" stroke="black" stroke-width="1.5" stroke-linecap="round" stroke-linejoin="round"/>
</svg>
