<svg width="21" height="21" viewBox="0 0 21 21" fill="none" xmlns="http://www.w3.org/2000/svg">
<path d="M3.12334 6.4021H2.3042" stroke="black" stroke-width="1.5" stroke-linecap="round" stroke-linejoin="round"/>
<path d="M3.94248 3.94348H2.3042" stroke="black" stroke-width="1.5" stroke-linecap="round" stroke-linejoin="round"/>
<path d="M14.5981 17.0565H3.12402" stroke="black" stroke-width="1.5" stroke-linecap="round" stroke-linejoin="round"/>
<path d="M14.8228 3.94348L14.0147 6.63742C13.9106 6.9841 13.591 7.22177 13.2295 7.22177H10.679C10.1299 7.22177 9.7365 6.69233 9.89386 6.16698L10.561 3.94348" stroke="black" stroke-width="1.5" stroke-linecap="round" stroke-linejoin="round"/>
<path d="M7.2207 11.3195H8.96547" stroke="black" stroke-width="1.5" stroke-linecap="round" stroke-linejoin="round"/>
<path d="M14.9562 13.7783H6.27852C4.96064 13.7783 4.01568 12.508 4.39432 11.2459L6.1646 5.34495C6.41457 4.51308 7.18005 3.94348 8.0488 3.94348H16.7273C18.0451 3.94348 18.9901 5.21382 18.6115 6.47596L16.8412 12.3769C16.5912 13.2087 15.8249 13.7783 14.9562 13.7783Z" stroke="black" stroke-width="1.5" stroke-linecap="round" stroke-linejoin="round"/>
</svg>
