<svg width="21" height="21" viewBox="0 0 21 21" fill="none" xmlns="http://www.w3.org/2000/svg">
<path d="M3.99557 8.74669C4.08387 8.73328 4.17454 8.72619 4.26678 8.72619H16.7328C16.825 8.72619 16.9157 8.73328 17.004 8.74669M3.99557 8.74669C3.53418 8.81814 3.11956 9.06862 2.84165 9.44379C2.56373 9.81897 2.44494 10.2886 2.51103 10.7508L3.18668 15.4812C3.24703 15.9038 3.45781 16.2906 3.78032 16.5704C4.10284 16.8502 4.51546 17.0042 4.94243 17.0043H16.0579C16.4849 17.0042 16.8975 16.8502 17.22 16.5704C17.5426 16.2906 17.7533 15.9038 17.8137 15.4812L18.4893 10.7508C18.5554 10.2886 18.4366 9.81897 18.1587 9.44379C17.8808 9.06862 17.4654 8.81814 17.004 8.74669M3.99557 8.74669L3.99636 5.76973C3.99636 5.2994 4.18314 4.84833 4.51564 4.51568C4.84813 4.18304 5.29912 3.99606 5.76945 3.99585H8.82761C9.14115 3.99612 9.44174 4.1209 9.66331 4.34274L11.3363 6.01413C11.5578 6.23597 11.8584 6.36074 12.172 6.36102H15.2301C15.7006 6.36102 16.1518 6.54791 16.4844 6.88057C16.8171 7.21324 17.004 7.66443 17.004 8.1349V8.74669" stroke="black" stroke-width="1.5" stroke-linecap="round" stroke-linejoin="round"/>
</svg>
