<svg width="21" height="21" viewBox="0 0 21 21" fill="none" xmlns="http://www.w3.org/2000/svg">
<path d="M2.99219 11.0776V10.5C2.99219 10.0405 3.17473 9.59985 3.49965 9.27492C3.82458 8.95 4.26527 8.76746 4.72478 8.76746H16.2754C16.7349 8.76746 17.1756 8.95 17.5005 9.27492C17.8254 9.59985 18.008 10.0405 18.008 10.5V11.0776M11.3163 6.11852L9.68384 4.48603C9.57659 4.37865 9.44924 4.29346 9.30905 4.23532C9.16886 4.17719 9.01859 4.14725 8.86683 4.14722H4.72478C4.26527 4.14722 3.82458 4.32976 3.49965 4.65468C3.17473 4.9796 2.99219 5.4203 2.99219 5.87981V15.1203C2.99219 15.5798 3.17473 16.0205 3.49965 16.3455C3.82458 16.6704 4.26527 16.8529 4.72478 16.8529H16.2754C16.7349 16.8529 17.1756 16.6704 17.5005 16.3455C17.8254 16.0205 18.008 15.5798 18.008 15.1203V8.18993C18.008 7.73042 17.8254 7.28973 17.5005 6.9648C17.1756 6.63988 16.7349 6.45734 16.2754 6.45734H12.1333C11.8271 6.45707 11.5327 6.3352 11.3163 6.11852Z" stroke="black" stroke-width="1.5" stroke-linecap="round" stroke-linejoin="round"/>
</svg>
