<svg width="21" height="21" viewBox="0 0 21 21" fill="none" xmlns="http://www.w3.org/2000/svg">
<path d="M10.5 3C12.7958 3 15.0458 3.19334 17.2358 3.565C17.68 3.64 18 4.02834 18 4.47834V5.34834C18 5.59456 17.9515 5.83838 17.8573 6.06587C17.7631 6.29336 17.6249 6.50006 17.4508 6.67417L12.9242 11.2008C12.7501 11.3749 12.6119 11.5816 12.5177 11.8091C12.4235 12.0366 12.375 12.2804 12.375 12.5267V14.9658C12.3751 15.3141 12.2781 15.6556 12.095 15.9519C11.9119 16.2482 11.6499 16.4876 11.3383 16.6433L8.625 18V12.5267C8.625 12.2804 8.57651 12.0366 8.48228 11.8091C8.38805 11.5816 8.24994 11.3749 8.07583 11.2008L3.54917 6.67417C3.37506 6.50006 3.23695 6.29336 3.14272 6.06587C3.04849 5.83838 3 5.59456 3 5.34834V4.47834C3 4.02834 3.32 3.64 3.76417 3.565C5.98964 3.18821 8.24286 2.99921 10.5 3Z" stroke="black" stroke-width="1.5" stroke-linecap="round" stroke-linejoin="round"/>
</svg>
