<svg width="21" height="21" viewBox="0 0 21 21" fill="none" xmlns="http://www.w3.org/2000/svg">
<path fill-rule="evenodd" clip-rule="evenodd" d="M14.5 6.50001C14.697 6.23737 14.8403 5.9385 14.9218 5.62046C15.0033 5.30243 15.0213 4.97146 14.9749 4.64646C14.9284 4.32145 14.8185 4.00877 14.6512 3.72628C14.4839 3.44378 14.2626 3.19699 14 3.00001C13.7374 2.80303 13.4385 2.65971 13.1205 2.57823C12.8024 2.49675 12.4715 2.47871 12.1464 2.52514C11.8214 2.57157 11.5088 2.68155 11.2263 2.84882C10.9438 3.01609 10.697 3.23737 10.5 3.50001C10.1022 2.96958 9.50993 2.6189 8.85355 2.52514C8.19718 2.43137 7.53043 2.60219 7 3.00001C6.46957 3.39783 6.11889 3.99008 6.02513 4.64646C5.93136 5.30283 6.10218 5.96958 6.5 6.50001H3.75C3.06 6.50001 2.5 7.06001 2.5 7.75001V8.25001C2.5 8.94001 3.06 9.50001 3.75 9.50001H9.75V6.50001H11.25V9.50001H17.25C17.94 9.50001 18.5 8.94001 18.5 8.25001V7.75001C18.5 7.06001 17.94 6.50001 17.25 6.50001H14.5ZM13.5 5.00001C13.5 5.26523 13.3946 5.51958 13.2071 5.70712C13.0196 5.89465 12.7652 6.00001 12.5 6.00001H11.5V5.00001C11.5 4.73479 11.6054 4.48044 11.7929 4.2929C11.9804 4.10537 12.2348 4.00001 12.5 4.00001C12.7652 4.00001 13.0196 4.10537 13.2071 4.2929C13.3946 4.48044 13.5 4.73479 13.5 5.00001ZM7.5 5.00001C7.5 5.26523 7.60536 5.51958 7.79289 5.70712C7.98043 5.89465 8.23478 6.00001 8.5 6.00001H9.5V5.00001C9.5 4.73479 9.39464 4.48044 9.20711 4.2929C9.01957 4.10537 8.76522 4.00001 8.5 4.00001C8.23478 4.00001 7.98043 4.10537 7.79289 4.2929C7.60536 4.48044 7.5 4.73479 7.5 5.00001Z" fill="black"/>
<path d="M9.75 11H3.5V15.75C3.5 16.4793 3.78973 17.1788 4.30546 17.6945C4.82118 18.2103 5.52065 18.5 6.25 18.5H9.75V11ZM11.25 18.5V11H17.5V15.75C17.5 16.4793 17.2103 17.1788 16.6945 17.6945C16.1788 18.2103 15.4793 18.5 14.75 18.5H11.25Z" fill="black"/>
</svg>
