<svg width="21" height="21" viewBox="0 0 21 21" fill="none" xmlns="http://www.w3.org/2000/svg">
<path d="M17.3148 10.2V16.8C17.3148 17.1183 17.1899 17.4235 16.9677 17.6485C16.7454 17.8736 16.444 18 16.1296 18H4.87037C4.55604 18 4.25458 17.8736 4.03232 17.6485C3.81005 17.4235 3.68519 17.1183 3.68519 16.8V10.2M10.2037 5.1C10.2037 4.68466 10.0821 4.27865 9.85416 3.9333C9.62626 3.58796 9.30233 3.3188 8.92334 3.15985C8.54436 3.00091 8.12733 2.95932 7.725 3.04035C7.32267 3.12138 6.9531 3.32139 6.66304 3.61508C6.37297 3.90877 6.17544 4.28295 6.09541 4.69031C6.01538 5.09767 6.05645 5.51991 6.21344 5.90364C6.37042 6.28736 6.63626 6.61534 6.97734 6.84609C7.31842 7.07684 7.71942 7.2 8.12963 7.2H10.2037M10.2037 5.1V7.2M10.2037 5.1C10.2037 4.68466 10.3253 4.27865 10.5532 3.9333C10.7812 3.58796 11.1051 3.3188 11.4841 3.15985C11.8631 3.00091 12.2801 2.95932 12.6824 3.04035C13.0847 3.12138 13.4543 3.32139 13.7444 3.61508C14.0344 3.90877 14.232 4.28295 14.312 4.69031C14.392 5.09767 14.351 5.51991 14.194 5.90364C14.037 6.28736 13.7712 6.61534 13.4301 6.84609C13.089 7.07684 12.688 7.2 12.2778 7.2H10.2037M10.2037 7.2V18M3.38889 10.2H17.6111C18.1018 10.2 18.5 9.7968 18.5 9.3V8.1C18.5 7.6032 18.1018 7.2 17.6111 7.2H3.38889C2.89822 7.2 2.5 7.6032 2.5 8.1V9.3C2.5 9.7968 2.89822 10.2 3.38889 10.2Z" stroke="black" stroke-width="1.5" stroke-linecap="round" stroke-linejoin="round"/>
</svg>
