<svg width="21" height="21" viewBox="0 0 21 21" fill="none" xmlns="http://www.w3.org/2000/svg">
<path fill-rule="evenodd" clip-rule="evenodd" d="M18.5 10.5C18.5 12.6217 17.6571 14.6566 16.1569 16.1569C14.6566 17.6571 12.6217 18.5 10.5 18.5C8.37827 18.5 6.34344 17.6571 4.84315 16.1569C3.34285 14.6566 2.5 12.6217 2.5 10.5C2.5 8.37827 3.34285 6.34344 4.84315 4.84315C6.34344 3.34285 8.37827 2.5 10.5 2.5C12.6217 2.5 14.6566 3.34285 16.1569 4.84315C17.6571 6.34344 18.5 8.37827 18.5 10.5ZM16.997 10.704C16.9594 11.8915 16.597 13.0461 15.9492 14.0421C15.3014 15.0381 14.393 15.8375 13.3227 16.3534C12.2524 16.8693 11.0612 17.082 9.87848 16.9684C8.69579 16.8547 7.56687 16.4191 6.61442 15.7088C5.66197 14.9985 4.92242 14.0407 4.47616 12.9395C4.0299 11.8384 3.894 10.636 4.08322 9.46301C4.27244 8.29003 4.77955 7.19135 5.54943 6.28638C6.31931 5.38141 7.32251 4.70477 8.45 4.33L7.427 6.12C7.27282 6.39063 7.20968 6.70365 7.2469 7.01288C7.28412 7.32212 7.41973 7.61121 7.63372 7.83753C7.84771 8.06385 8.12877 8.21541 8.43544 8.26987C8.74211 8.32433 9.05817 8.2788 9.337 8.14L9.512 8.053C9.58153 8.01815 9.65823 8.00001 9.736 8H9.882C9.96726 8 10.0511 8.02181 10.1256 8.06335C10.2 8.10489 10.2626 8.16478 10.3074 8.23733C10.3522 8.30988 10.3777 8.39268 10.3815 8.47786C10.3853 8.56304 10.3672 8.64777 10.329 8.724L10.301 8.779C10.2678 8.8453 10.2169 8.90108 10.1538 8.94011C10.0908 8.97913 10.0181 8.99987 9.944 9H9.442C9.07005 9.00003 8.70385 9.09186 8.3759 9.26735C8.04795 9.44284 7.76838 9.69656 7.562 10.006L7.518 10.072C7.33893 10.3407 7.22427 10.6471 7.18294 10.9674C7.14161 11.2876 7.17472 11.6131 7.2797 11.9184C7.38468 12.2238 7.5587 12.5008 7.78822 12.728C8.01773 12.9551 8.29656 13.1262 8.603 13.228C8.71804 13.2662 8.8182 13.3396 8.88941 13.4377C8.96062 13.5358 8.99929 13.6538 9 13.775V14.825C8.99988 15.0686 9.07547 15.3062 9.21631 15.505C9.35715 15.7037 9.55629 15.8538 9.78615 15.9344C10.016 16.015 10.2653 16.0222 10.4994 15.9549C10.7335 15.8877 10.941 15.7493 11.093 15.559L12.704 13.545C12.896 13.305 13 13.009 13 12.703C13 12.387 13.128 12.079 13.353 11.853C13.5753 11.6308 13.7139 11.3386 13.7454 11.0258C13.777 10.7131 13.6994 10.3991 13.526 10.137L13.062 9.441C13.015 9.36865 12.9949 9.28213 13.0051 9.19648C13.0153 9.11083 13.0552 9.03146 13.1178 8.97215C13.1804 8.91285 13.2619 8.87736 13.3479 8.87185C13.434 8.86634 13.5193 8.89116 13.589 8.942L13.932 9.199C14.248 9.436 14.67 9.474 15.023 9.297C15.1331 9.24189 15.2578 9.22286 15.3793 9.24261C15.5008 9.26235 15.613 9.31987 15.7 9.407L16.997 10.704Z" fill="black"/>
</svg>
