<svg width="21" height="21" viewBox="0 0 21 21" fill="none" xmlns="http://www.w3.org/2000/svg">
<path d="M17.9107 11.6609L16.9649 10.7151C16.8225 10.5725 16.7041 10.4078 16.614 10.2276L15.714 8.42756C15.6896 8.37871 15.6538 8.33638 15.6097 8.30405C15.5657 8.27172 15.5146 8.25032 15.4606 8.24161C15.4067 8.2329 15.3514 8.23714 15.2994 8.25396C15.2474 8.27079 15.2002 8.29973 15.1615 8.3384C15.0746 8.42525 14.966 8.48727 14.847 8.51804C14.7281 8.54881 14.603 8.54721 14.4849 8.5134L13.424 8.2109C13.2543 8.16318 13.0731 8.17749 12.913 8.25126C12.7529 8.32503 12.6243 8.45343 12.5502 8.61344C12.4762 8.77345 12.4616 8.9546 12.509 9.12441C12.5564 9.29422 12.6628 9.44158 12.809 9.54006L13.2982 9.86506C13.7899 10.1942 13.8599 10.8901 13.4415 11.3084L13.2749 11.4751C13.0982 11.6517 12.9999 11.8901 12.9999 12.1384V12.4801C12.9999 12.8209 12.9082 13.1542 12.7332 13.4451L11.6374 15.2709C11.4812 15.5314 11.2601 15.7471 10.9958 15.8968C10.7314 16.0465 10.4328 16.1251 10.1291 16.1251C9.89588 16.1251 9.67226 16.0324 9.50738 15.8676C9.34251 15.7027 9.24988 15.4791 9.24988 15.2459V14.2692C9.24988 13.5026 8.78321 12.8134 8.07155 12.5284L7.52571 12.3109C7.12858 12.1519 6.79774 11.8619 6.58811 11.489C6.37848 11.1162 6.30265 10.6828 6.37321 10.2609L6.37905 10.2259C6.41778 9.99407 6.49976 9.77159 6.62071 9.57006L6.69571 9.44506C6.89473 9.11365 7.19131 8.85186 7.54486 8.69552C7.89841 8.53919 8.29164 8.49595 8.67071 8.57173L9.65238 8.7684C9.88339 8.81447 10.1233 8.7719 10.3243 8.64914C10.5254 8.52638 10.6728 8.33244 10.7374 8.1059L10.9107 7.49756C10.9708 7.2874 10.9555 7.06286 10.8675 6.86277C10.7796 6.66267 10.6245 6.49959 10.4291 6.40173L9.87488 6.12506L9.79905 6.2009C9.62494 6.37501 9.41823 6.51312 9.19075 6.60734C8.96326 6.70157 8.71944 6.75006 8.47321 6.75006H8.32321C8.11571 6.75006 7.91738 6.8334 7.77155 6.9784C7.63789 7.11326 7.45943 7.19443 7.26994 7.20653C7.08045 7.21864 6.89311 7.16084 6.74338 7.04407C6.59366 6.92731 6.49194 6.7597 6.45751 6.57297C6.42308 6.38625 6.45832 6.19338 6.55655 6.0309L7.73238 4.07006C7.84958 3.87515 7.93034 3.66055 7.97071 3.43673M17.9107 11.6609C18.1126 10.3752 17.9764 9.05906 17.5155 7.84192C17.0547 6.62478 16.285 5.54851 15.2822 4.7189C14.2794 3.8893 13.078 3.33493 11.7961 3.11027C10.5142 2.88561 9.19585 2.99757 7.97071 3.43673M17.9107 11.6609C17.7054 12.9689 17.1574 14.1993 16.3225 15.2269C15.4876 16.2546 14.3955 17.0429 13.1572 17.5117C11.919 17.9806 10.5786 18.1133 9.27249 17.8963C7.96633 17.6793 6.74089 17.1205 5.7207 16.2765C4.70051 15.4325 3.92194 14.3334 3.4641 13.091C3.00627 11.8487 2.88549 10.5072 3.11405 9.20304C3.34261 7.89886 3.91235 6.67843 4.76538 5.66578C5.61841 4.65312 6.72431 3.88351 7.97071 3.43673" stroke="black" stroke-width="1.5" stroke-linecap="round" stroke-linejoin="round"/>
</svg>
