<svg width="20" height="20" viewBox="0 0 20 20" fill="none" xmlns="http://www.w3.org/2000/svg">
<path d="M18.8221 10.2149C18.8221 9.60697 18.7633 8.97943 18.6652 8.39111H10.1738V11.8622H15.0373C14.8411 12.98 14.194 13.9605 13.2331 14.5881L16.1355 16.8433C17.8416 15.2548 18.8221 12.9408 18.8221 10.2149Z" fill="#4280EF"/>
<path d="M10.1741 19.0018C12.6058 19.0018 14.6454 18.1977 16.1358 16.825L13.2334 14.5894C12.4294 15.1385 11.39 15.4523 10.1741 15.4523C7.82086 15.4523 5.84019 13.8638 5.1146 11.7458L2.13379 14.0403C3.66342 17.0799 6.76189 19.0018 10.1741 19.0018Z" fill="#34A353"/>
<path d="M5.11481 11.7256C4.7422 10.6078 4.7422 9.39194 5.11481 8.27413L2.134 5.96008C0.859306 8.50946 0.859306 11.5099 2.134 14.0396L5.11481 11.7256Z" fill="#F6B704"/>
<path d="M10.1741 4.56764C11.4488 4.54803 12.7039 5.03829 13.6256 5.92077L16.1946 3.33217C14.5669 1.80255 12.4097 0.978901 10.1741 0.998511C6.76189 0.998511 3.66342 2.92035 2.13379 5.95999L5.1146 8.27404C5.84019 6.13649 7.82086 4.56764 10.1741 4.56764Z" fill="#E54335"/>
</svg>
