<svg width="24" height="24" viewBox="0 0 24 24" fill="none" xmlns="http://www.w3.org/2000/svg">
<path fill-rule="evenodd" clip-rule="evenodd" d="M8.50432 11.5034C8.40632 11.1284 8.30832 10.6564 8.09832 9.95136C7.93132 9.39436 7.75632 9.09236 7.62832 8.71836C7.47332 8.26336 7.32532 7.99736 7.13232 7.53736C6.99332 7.20836 6.76832 6.48936 6.67532 6.09736C6.55632 5.58836 6.70832 5.17336 6.91932 4.89136C7.17232 4.55236 7.88132 4.40136 8.27632 4.54036C8.64732 4.67036 9.02032 5.05236 9.19232 5.32836C9.48032 5.78836 9.54932 5.96036 9.90932 6.87036C10.3023 7.86236 10.4733 8.78836 10.5203 9.10136L10.6053 9.55336C10.6043 9.51336 10.5623 8.43136 10.5613 8.39136C10.5263 7.36236 10.5013 6.56836 10.5233 5.45236C10.5253 5.32636 10.5873 4.86536 10.6073 4.73736C10.6853 4.23736 10.9123 3.93736 11.2803 3.75836C11.6923 3.55736 12.2063 3.54336 12.6813 3.74136C13.1043 3.91436 13.3073 4.29136 13.3683 4.76336C13.3823 4.87236 13.4623 5.75036 13.4613 5.87036C13.4483 6.89536 13.4673 7.51136 13.4763 8.04436C13.4803 8.27536 13.4793 9.66936 13.4933 9.51336C13.5543 8.85736 13.5873 6.32436 13.8373 5.57136C13.9813 5.13836 14.2423 4.82536 14.6313 4.64236C15.0623 4.43936 15.7443 4.57236 16.0353 4.88536C16.3203 5.19036 16.4813 5.57736 16.5173 6.03836C16.5493 6.44336 16.4983 6.93536 16.4973 7.28336C16.4973 8.15036 16.4763 8.60736 16.4603 9.40436C16.4593 9.44236 16.4453 9.70236 16.4833 9.58636C16.5773 9.30636 16.6713 9.04436 16.7493 8.84136C16.7983 8.71636 16.9903 8.22736 17.1083 7.98236C17.2223 7.74836 17.3193 7.61336 17.5233 7.29436C17.7233 6.98136 17.9383 6.84636 18.1913 6.73336C18.7313 6.49836 19.3003 6.84536 19.4923 7.32436C19.5783 7.53936 19.5013 8.03736 19.4643 8.42936C19.4033 9.07636 19.2103 9.73536 19.1123 10.0774C18.9843 10.5244 18.8383 11.3124 18.7723 11.6784C18.7003 12.0724 18.5383 13.0604 18.4133 13.4984C18.3273 13.7994 18.0423 14.4764 17.7613 14.8824C17.7613 14.8824 16.6873 16.1324 16.5693 16.6944C16.4523 17.2574 16.4913 17.2614 16.4683 17.6594C16.4443 18.0584 16.5893 18.5824 16.5893 18.5824C16.5893 18.5824 15.7873 18.6864 15.3553 18.6164C14.9643 18.5544 14.4803 17.7754 14.3553 17.5384C14.1833 17.2104 13.8163 17.2734 13.6733 17.5154C13.4483 17.8984 12.9643 18.5854 12.6223 18.6284C11.9543 18.7124 10.5683 18.6584 9.48332 18.6484C9.48332 18.6484 9.66832 17.6374 9.25632 17.2904C8.95132 17.0304 8.42632 16.5064 8.11232 16.2304L7.28032 15.3094C6.99632 14.9494 6.65132 14.2164 6.03732 13.3244C5.68932 12.8204 5.01032 12.2394 4.75332 11.7454C4.53032 11.3204 4.42232 10.7914 4.56332 10.4204C4.78832 9.82636 5.23832 9.52336 5.92532 9.58836C6.44432 9.63836 6.77332 9.79436 7.16332 10.1254C7.38832 10.3154 7.73632 10.6594 7.91332 10.8734C8.07632 11.0684 8.11632 11.1494 8.29032 11.3824C8.52032 11.6894 8.59232 11.8414 8.50432 11.5034Z" fill="white"/>
<path d="M8.50432 11.5034C8.40632 11.1284 8.30832 10.6564 8.09832 9.95136C7.93132 9.39436 7.75632 9.09236 7.62832 8.71836C7.47332 8.26336 7.32532 7.99736 7.13232 7.53736C6.99332 7.20836 6.76832 6.48936 6.67532 6.09736C6.55632 5.58836 6.70832 5.17336 6.91932 4.89136C7.17232 4.55236 7.88132 4.40136 8.27632 4.54036C8.64732 4.67036 9.02032 5.05236 9.19232 5.32836C9.48032 5.78836 9.54932 5.96036 9.90932 6.87036C10.3023 7.86236 10.4733 8.78836 10.5203 9.10136L10.6053 9.55336C10.6043 9.51336 10.5623 8.43136 10.5613 8.39136C10.5263 7.36236 10.5013 6.56836 10.5233 5.45236C10.5253 5.32636 10.5873 4.86536 10.6073 4.73736C10.6853 4.23736 10.9123 3.93736 11.2803 3.75836C11.6923 3.55736 12.2063 3.54336 12.6813 3.74136C13.1043 3.91436 13.3073 4.29136 13.3683 4.76336C13.3823 4.87236 13.4623 5.75036 13.4613 5.87036C13.4483 6.89536 13.4673 7.51136 13.4763 8.04436C13.4803 8.27536 13.4793 9.66936 13.4933 9.51336C13.5543 8.85736 13.5873 6.32436 13.8373 5.57136C13.9813 5.13836 14.2423 4.82536 14.6313 4.64236C15.0623 4.43936 15.7443 4.57236 16.0353 4.88536C16.3203 5.19036 16.4813 5.57736 16.5173 6.03836C16.5493 6.44336 16.4983 6.93536 16.4973 7.28336C16.4973 8.15036 16.4763 8.60736 16.4603 9.40436C16.4593 9.44236 16.4453 9.70236 16.4833 9.58636C16.5773 9.30636 16.6713 9.04436 16.7493 8.84136C16.7983 8.71636 16.9903 8.22736 17.1083 7.98236C17.2223 7.74836 17.3193 7.61336 17.5233 7.29436C17.7233 6.98136 17.9383 6.84636 18.1913 6.73336C18.7313 6.49836 19.3003 6.84536 19.4923 7.32436C19.5783 7.53936 19.5013 8.03736 19.4643 8.42936C19.4033 9.07636 19.2103 9.73536 19.1123 10.0774C18.9843 10.5244 18.8383 11.3124 18.7723 11.6784C18.7003 12.0724 18.5383 13.0604 18.4133 13.4984C18.3273 13.7994 18.0423 14.4764 17.7613 14.8824C17.7613 14.8824 16.6873 16.1324 16.5693 16.6944C16.4523 17.2574 16.4913 17.2614 16.4683 17.6594C16.4443 18.0584 16.5893 18.5824 16.5893 18.5824C16.5893 18.5824 15.7873 18.6864 15.3553 18.6164C14.9643 18.5544 14.4803 17.7754 14.3553 17.5384C14.1833 17.2104 13.8163 17.2734 13.6733 17.5154C13.4483 17.8984 12.9643 18.5854 12.6223 18.6284C11.9543 18.7124 10.5683 18.6584 9.48332 18.6484C9.48332 18.6484 9.66832 17.6374 9.25632 17.2904C8.95132 17.0304 8.42632 16.5064 8.11232 16.2304L7.28032 15.3094C6.99632 14.9494 6.65132 14.2164 6.03732 13.3244C5.68932 12.8204 5.01032 12.2394 4.75332 11.7454C4.53032 11.3204 4.42232 10.7914 4.56332 10.4204C4.78832 9.82636 5.23832 9.52336 5.92532 9.58836C6.44432 9.63836 6.77332 9.79436 7.16332 10.1254C7.38832 10.3154 7.73632 10.6594 7.91332 10.8734C8.07632 11.0684 8.11632 11.1494 8.29032 11.3824C8.52032 11.6894 8.59232 11.8414 8.50432 11.5034" stroke="#030712" stroke-width="0.75"/>
<path fill-rule="evenodd" clip-rule="evenodd" d="M11 12V15V12Z" fill="white"/>
<path d="M11 12V15" stroke="#030712" stroke-width="0.75" stroke-linecap="round"/>
<path fill-rule="evenodd" clip-rule="evenodd" d="M13 15V12V15Z" fill="white"/>
<path d="M13 15V12" stroke="#030712" stroke-width="0.75" stroke-linecap="round"/>
<path fill-rule="evenodd" clip-rule="evenodd" d="M15 15V12V15Z" fill="white"/>
<path d="M15 15V12" stroke="#030712" stroke-width="0.75" stroke-linecap="round"/>
</svg>
