<svg width="24" height="24" viewBox="0 0 24 24" fill="none" xmlns="http://www.w3.org/2000/svg">
<path fill-rule="evenodd" clip-rule="evenodd" d="M8.19406 7.96538C8.67406 7.78738 9.62106 7.89638 9.87106 8.43838C10.0841 8.90038 10.2671 9.67938 10.2771 9.51338C10.3011 9.14438 10.2531 8.34638 10.4141 7.92938C10.5311 7.62538 10.7611 7.33938 11.1001 7.23838C11.3851 7.15238 11.7201 7.12238 12.0161 7.18338C12.3291 7.24738 12.6581 7.47038 12.7811 7.68238C13.1431 8.30538 13.1491 9.58138 13.1661 9.51338C13.2301 9.24138 13.2361 8.28438 13.4491 7.92938C13.5901 7.69438 13.9461 7.48438 14.1361 7.45038C14.4301 7.39838 14.7921 7.38238 15.1001 7.44238C15.3491 7.49138 15.6861 7.78638 15.7771 7.92938C15.9961 8.27338 16.1191 9.24538 16.1561 9.58738C16.1721 9.72838 16.2301 9.19438 16.4491 8.85138C16.8551 8.21238 18.2931 8.08838 18.3471 9.49038C18.3731 10.1444 18.3671 10.1144 18.3671 10.5544C18.3671 11.0704 18.3551 11.3824 18.3271 11.7564C18.2971 12.1554 18.2111 13.0604 18.0861 13.4984C18.0001 13.7994 17.7151 14.4764 17.4331 14.8824C17.4331 14.8824 16.3591 16.1324 16.2421 16.6944C16.1251 17.2574 16.1641 17.2614 16.1401 17.6594C16.1171 18.0584 16.2611 18.5824 16.2611 18.5824C16.2611 18.5824 15.4601 18.6864 15.0271 18.6164C14.6361 18.5544 14.1521 17.7764 14.0271 17.5384C13.8551 17.2104 13.4881 17.2734 13.3451 17.5154C13.1211 17.8984 12.6361 18.5854 12.2951 18.6284C11.6261 18.7124 10.2401 18.6584 9.15506 18.6484C9.15506 18.6484 9.34006 17.6374 8.92806 17.2904C8.62306 17.0304 8.09806 16.5064 7.78406 16.2304L6.95206 15.3094C6.66906 14.9494 5.95006 14.3804 5.70906 13.3244C5.49606 12.3884 5.51706 11.9294 5.74606 11.5544C5.97806 11.1734 6.41606 10.9654 6.60006 10.9294C6.80806 10.8874 7.29206 10.8904 7.47506 10.9914C7.69806 11.1144 7.78806 11.1504 7.96306 11.3824C8.19306 11.6894 8.27506 11.8384 8.17606 11.5034C8.10006 11.2414 7.85406 10.9084 7.74206 10.5334C7.63306 10.1724 7.34106 9.59038 7.36206 9.00738C7.37006 8.78638 7.46506 8.23638 8.19406 7.96538Z" fill="white"/>
<path d="M8.19406 7.96538C8.67406 7.78738 9.62106 7.89638 9.87106 8.43838C10.0841 8.90038 10.2671 9.67938 10.2771 9.51338C10.3011 9.14438 10.2531 8.34638 10.4141 7.92938C10.5311 7.62538 10.7611 7.33938 11.1001 7.23838C11.3851 7.15238 11.7201 7.12238 12.0161 7.18338C12.3291 7.24738 12.6581 7.47038 12.7811 7.68238C13.1431 8.30538 13.1491 9.58138 13.1661 9.51338C13.2301 9.24138 13.2361 8.28438 13.4491 7.92938C13.5901 7.69438 13.9461 7.48438 14.1361 7.45038C14.4301 7.39838 14.7921 7.38238 15.1001 7.44238C15.3491 7.49138 15.6861 7.78638 15.7771 7.92938C15.9961 8.27338 16.1191 9.24538 16.1561 9.58738C16.1721 9.72838 16.2301 9.19438 16.4491 8.85138C16.8551 8.21238 18.2931 8.08838 18.3471 9.49038C18.3731 10.1444 18.3671 10.1144 18.3671 10.5544C18.3671 11.0704 18.3551 11.3824 18.3271 11.7564C18.2971 12.1554 18.2111 13.0604 18.0861 13.4984C18.0001 13.7994 17.7151 14.4764 17.4331 14.8824C17.4331 14.8824 16.3591 16.1324 16.2421 16.6944C16.1251 17.2574 16.1641 17.2614 16.1401 17.6594C16.1171 18.0584 16.2611 18.5824 16.2611 18.5824C16.2611 18.5824 15.4601 18.6864 15.0271 18.6164C14.6361 18.5544 14.1521 17.7764 14.0271 17.5384C13.8551 17.2104 13.4881 17.2734 13.3451 17.5154C13.1211 17.8984 12.6361 18.5854 12.2951 18.6284C11.6261 18.7124 10.2401 18.6584 9.15506 18.6484C9.15506 18.6484 9.34006 17.6374 8.92806 17.2904C8.62306 17.0304 8.09806 16.5064 7.78406 16.2304L6.95206 15.3094C6.66906 14.9494 5.95006 14.3804 5.70906 13.3244C5.49606 12.3884 5.51706 11.9294 5.74606 11.5544C5.97806 11.1734 6.41606 10.9654 6.60006 10.9294C6.80806 10.8874 7.29206 10.8904 7.47506 10.9914C7.69806 11.1144 7.78806 11.1504 7.96306 11.3824C8.19306 11.6894 8.27506 11.8384 8.17606 11.5034C8.10006 11.2414 7.85406 10.9084 7.74206 10.5334C7.63306 10.1724 7.34106 9.59038 7.36206 9.00738C7.37006 8.78638 7.46506 8.23638 8.19406 7.96538" stroke="#030712" stroke-width="0.75"/>
<path fill-rule="evenodd" clip-rule="evenodd" d="M11 12V15V12Z" fill="white"/>
<path d="M11 12V15" stroke="#030712" stroke-width="0.75" stroke-linecap="round"/>
<path fill-rule="evenodd" clip-rule="evenodd" d="M13 15V12V15Z" fill="white"/>
<path d="M13 15V12" stroke="#030712" stroke-width="0.75" stroke-linecap="round"/>
<path fill-rule="evenodd" clip-rule="evenodd" d="M15 15V12V15Z" fill="white"/>
<path d="M15 15V12" stroke="#030712" stroke-width="0.75" stroke-linecap="round"/>
</svg>
