<svg width="200" height="200" viewBox="0 0 200 200" fill="none" xmlns="http://www.w3.org/2000/svg">
<path d="M67.5 57.5C75.625 57.5 82.5 64.375 82.5 72.5C82.5 80.9375 75.625 87.5 67.5 87.5C59.0625 87.5 52.5 80.9375 52.5 72.5C52.5 64.375 59.0625 57.5 67.5 57.5ZM159.688 30C170.938 30 179.688 39.0625 179.688 50V150C179.688 161.25 170.625 170 159.688 170H39.6875C28.75 170 19.6875 161.25 19.6875 150V50C19.6875 39.0625 28.75 30 39.6875 30H159.688ZM164.688 148.125V50C164.688 47.5 162.5 45 159.688 45H39.6875C37.1875 45 34.6875 47.5 34.6875 50L35 150L58.4375 120.625C59.6875 119.375 61.25 118.438 63.125 118.438C65 118.438 66.5625 119.375 67.8125 120.625L79.375 135L112.5 90C113.75 88.4375 115.312 87.5 117.5 87.5C119.375 87.5 120.938 88.4375 121.875 90L164.688 148.125Z" fill="black"/>
</svg>
