<svg width="21" height="21" viewBox="0 0 21 21" fill="none" xmlns="http://www.w3.org/2000/svg">
<path d="M10.5001 2.5C10.699 2.5 10.8897 2.57902 11.0304 2.71967C11.171 2.86032 11.2501 3.05109 11.2501 3.25V8.84L13.2001 6.74C13.3353 6.59413 13.523 6.50797 13.7218 6.50047C13.9206 6.49297 14.1142 6.56474 14.2601 6.7C14.4059 6.83526 14.4921 7.02293 14.4996 7.22172C14.5071 7.4205 14.4353 7.61413 14.3001 7.76L11.0501 11.26C10.9799 11.3357 10.8948 11.3961 10.8001 11.4375C10.7055 11.4788 10.6033 11.5001 10.5001 11.5001C10.3968 11.5001 10.2947 11.4788 10.2 11.4375C10.1054 11.3961 10.0203 11.3357 9.95007 11.26L6.70007 7.76C6.63309 7.68777 6.581 7.60306 6.54676 7.5107C6.51253 7.41834 6.49682 7.32015 6.50053 7.22172C6.50425 7.12329 6.52731 7.02655 6.56841 6.93703C6.60951 6.84752 6.66784 6.76697 6.74007 6.7C6.81229 6.63303 6.89701 6.58093 6.98936 6.5467C7.08172 6.51246 7.17992 6.49675 7.27835 6.50047C7.37678 6.50418 7.47352 6.52725 7.56303 6.56835C7.65255 6.60944 7.73309 6.66777 7.80007 6.74L9.75007 8.84V3.25C9.75007 3.05109 9.82908 2.86032 9.96974 2.71967C10.1104 2.57902 10.3012 2.5 10.5001 2.5Z" fill="black"/>
<path d="M5.773 5C5.49935 5.00002 5.23328 5.08984 5.0156 5.25567C4.79792 5.4215 4.64068 5.65418 4.568 5.918L3.045 11.438C3.039 11.458 3.035 11.479 3.03 11.5H6.5C6.68566 11.5001 6.86763 11.5519 7.02553 11.6496C7.18342 11.7472 7.31101 11.8869 7.394 12.053L7.842 12.947C7.92499 13.1131 8.05258 13.2528 8.21047 13.3504C8.36837 13.4481 8.55034 13.4999 8.736 13.5H12.174C12.3475 13.5 12.5181 13.4548 12.6689 13.3689C12.8197 13.283 12.9455 13.1593 13.034 13.01L13.64 11.99C13.7285 11.8407 13.8543 11.717 14.0051 11.6311C14.1559 11.5452 14.3265 11.5 14.5 11.5H17.97C17.9655 11.4792 17.9605 11.4585 17.955 11.438L16.432 5.918C16.3593 5.65418 16.2021 5.4215 15.9844 5.25567C15.7667 5.08984 15.5006 5.00002 15.227 5H14.25C14.0511 5 13.8603 4.92098 13.7197 4.78033C13.579 4.63968 13.5 4.44891 13.5 4.25C13.5 4.05109 13.579 3.86032 13.7197 3.71967C13.8603 3.57902 14.0511 3.5 14.25 3.5H15.227C15.8289 3.50001 16.4143 3.69753 16.8931 4.06224C17.372 4.42695 17.718 4.93871 17.878 5.519L19.401 11.039C19.467 11.278 19.5 11.524 19.5 11.771V15.5C19.5 16.0304 19.2893 16.5391 18.9142 16.9142C18.5391 17.2893 18.0304 17.5 17.5 17.5H3.5C2.96957 17.5 2.46086 17.2893 2.08579 16.9142C1.71071 16.5391 1.5 16.0304 1.5 15.5V11.77C1.5 11.524 1.533 11.278 1.599 11.04L3.122 5.519C3.28201 4.93871 3.62799 4.42695 4.10687 4.06224C4.58574 3.69753 5.17106 3.50001 5.773 3.5H6.75C6.94891 3.5 7.13968 3.57902 7.28033 3.71967C7.42098 3.86032 7.5 4.05109 7.5 4.25C7.5 4.44891 7.42098 4.63968 7.28033 4.78033C7.13968 4.92098 6.94891 5 6.75 5H5.773Z" fill="black"/>
</svg>
