<svg width="21" height="21" viewBox="0 0 21 21" fill="none" xmlns="http://www.w3.org/2000/svg">
<path d="M9.875 9.875L9.90917 9.85833C10.016 9.80495 10.1359 9.7833 10.2547 9.79596C10.3735 9.80862 10.4862 9.85505 10.5794 9.92976C10.6726 10.0045 10.7424 10.1043 10.7806 10.2175C10.8189 10.3307 10.8238 10.4524 10.795 10.5683L10.205 12.9317C10.1759 13.0476 10.1808 13.1695 10.2189 13.2828C10.257 13.3961 10.3269 13.4961 10.4201 13.571C10.5134 13.6458 10.6261 13.6923 10.745 13.705C10.8639 13.7177 10.9839 13.696 11.0908 13.6425L11.125 13.625M18 10.5C18 11.4849 17.806 12.4602 17.4291 13.3701C17.0522 14.2801 16.4997 15.1069 15.8033 15.8033C15.1069 16.4997 14.2801 17.0522 13.3701 17.4291C12.4602 17.806 11.4849 18 10.5 18C9.51509 18 8.53982 17.806 7.62987 17.4291C6.71993 17.0522 5.89314 16.4997 5.1967 15.8033C4.50026 15.1069 3.94781 14.2801 3.5709 13.3701C3.19399 12.4602 3 11.4849 3 10.5C3 8.51088 3.79018 6.60322 5.1967 5.1967C6.60322 3.79018 8.51088 3 10.5 3C12.4891 3 14.3968 3.79018 15.8033 5.1967C17.2098 6.60322 18 8.51088 18 10.5ZM10.5 7.375H10.5067V7.38167H10.5V7.375Z" stroke="black" stroke-width="1.5" stroke-linecap="round" stroke-linejoin="round"/>
</svg>
