<svg width="21" height="21" viewBox="0 0 21 21" fill="none" xmlns="http://www.w3.org/2000/svg">
<path fill-rule="evenodd" clip-rule="evenodd" d="M18.5 10.5C18.5 12.6217 17.6571 14.6566 16.1569 16.1569C14.6566 17.6571 12.6217 18.5 10.5 18.5C8.37827 18.5 6.34344 17.6571 4.84315 16.1569C3.34285 14.6566 2.5 12.6217 2.5 10.5C2.5 8.37827 3.34285 6.34344 4.84315 4.84315C6.34344 3.34285 8.37827 2.5 10.5 2.5C12.6217 2.5 14.6566 3.34285 16.1569 4.84315C17.6571 6.34344 18.5 8.37827 18.5 10.5ZM11.5 6.5C11.5 6.76522 11.3946 7.01957 11.2071 7.20711C11.0196 7.39464 10.7652 7.5 10.5 7.5C10.2348 7.5 9.98043 7.39464 9.79289 7.20711C9.60536 7.01957 9.5 6.76522 9.5 6.5C9.5 6.23478 9.60536 5.98043 9.79289 5.79289C9.98043 5.60536 10.2348 5.5 10.5 5.5C10.7652 5.5 11.0196 5.60536 11.2071 5.79289C11.3946 5.98043 11.5 6.23478 11.5 6.5ZM9.5 9.5C9.30109 9.5 9.11032 9.57902 8.96967 9.71967C8.82902 9.86032 8.75 10.0511 8.75 10.25C8.75 10.4489 8.82902 10.6397 8.96967 10.7803C9.11032 10.921 9.30109 11 9.5 11H9.753C9.79041 11 9.82734 11.0084 9.86106 11.0246C9.89479 11.0408 9.92445 11.0643 9.94787 11.0935C9.97128 11.1227 9.98785 11.1567 9.99636 11.1932C10.0049 11.2296 10.0051 11.2675 9.997 11.304L9.538 13.37C9.48108 13.6259 9.48237 13.8913 9.54179 14.1466C9.60121 14.402 9.71723 14.6407 9.88129 14.8452C10.0454 15.0496 10.2532 15.2146 10.4896 15.328C10.726 15.4413 10.9848 15.5001 11.247 15.5H11.5C11.6989 15.5 11.8897 15.421 12.0303 15.2803C12.171 15.1397 12.25 14.9489 12.25 14.75C12.25 14.5511 12.171 14.3603 12.0303 14.2197C11.8897 14.079 11.6989 14 11.5 14H11.247C11.2096 14 11.1727 13.9916 11.1389 13.9754C11.1052 13.9592 11.0755 13.9357 11.0521 13.9065C11.0287 13.8773 11.0121 13.8433 11.0036 13.8068C10.9951 13.7704 10.9949 13.7325 11.003 13.696L11.462 11.63C11.5189 11.3741 11.5176 11.1087 11.4582 10.8534C11.3988 10.598 11.2828 10.3593 11.1187 10.1548C10.9547 9.95036 10.7468 9.78536 10.5104 9.67201C10.274 9.55867 10.0152 9.49989 9.753 9.5H9.5Z" fill="black"/>
</svg>
