<svg width="20" height="20" viewBox="0 0 20 20" fill="none" xmlns="http://www.w3.org/2000/svg">
<g clip-path="url(#clip0_823_3042)">
<path fill-rule="evenodd" clip-rule="evenodd" d="M4 5.5H22V14.5H4V5.5Z" fill="white"/>
<path fill-rule="evenodd" clip-rule="evenodd" d="M22.0002 13.3257C21.7981 13.4487 21.6258 13.73 21.0897 13.73C20.0174 13.73 19.7502 13.1341 18.9452 13.1341C18.4108 13.1341 18.1436 13.7317 17.6075 13.7317C16.5352 13.7317 16.268 13.1341 15.4629 13.1341C14.9286 13.1341 14.6614 13.7317 14.127 13.7317C13.0547 13.7317 12.7858 13.1341 11.9825 13.1341C11.4463 13.1341 11.1792 13.7317 10.643 13.7317C9.57075 13.7317 9.30356 13.1341 8.50024 13.1341C7.96411 13.1341 7.69692 13.7317 7.16079 13.7317C6.08853 13.7317 5.82134 13.1341 5.01802 13.1341C4.48188 13.1341 4.32192 13.5595 4.00024 13.5595V14.3276C4.32192 14.3276 4.48188 13.9022 5.01978 13.9022C5.82134 13.9022 6.09028 14.4999 7.16079 14.4999C7.69692 14.4999 7.96411 13.9022 8.50024 13.9022C9.30356 13.9022 9.57251 14.4999 10.6448 14.4999C11.1792 14.4999 11.4463 13.9022 11.9825 13.9022C12.7858 13.9022 13.0547 14.4999 14.1252 14.4999C14.6614 14.4999 14.9286 13.9022 15.4647 13.9022C16.268 13.9022 16.537 14.4999 17.6075 14.4999C18.1436 14.4999 18.4108 13.9022 18.9469 13.9022C19.7502 13.9022 20.0192 14.4999 21.0897 14.4999C21.6258 14.4999 21.7981 14.3312 22.0002 14.2099V13.3257ZM22.0002 11.8333C21.7981 11.9563 21.6258 12.2376 21.0897 12.2376C20.0174 12.2376 19.7502 11.6399 18.9452 11.6399C18.4108 11.6399 18.1436 12.2376 17.6075 12.2376C16.5352 12.2376 16.268 11.6399 15.4629 11.6399C14.9286 11.6399 14.6614 12.2376 14.127 12.2376C13.0547 12.2376 12.7858 11.6399 11.9825 11.6399C11.4463 11.6399 11.1792 12.2376 10.643 12.2376C9.57075 12.2376 9.30356 11.6399 8.50024 11.6399C7.96411 11.6399 7.69692 12.2376 7.16079 12.2376C6.08853 12.2376 5.82134 11.6399 5.01802 11.6399C4.48188 11.6399 4.32192 12.0671 4.00024 12.0671V12.8353C4.32192 12.8353 4.48188 12.4099 5.01978 12.4099C5.82134 12.4099 6.09028 13.0075 7.16079 13.0075C7.69692 13.0075 7.96411 12.4099 8.50024 12.4099C9.30356 12.4099 9.57251 13.0075 10.6448 13.0075C11.1792 13.0075 11.4463 12.4099 11.9825 12.4099C12.7858 12.4099 13.0547 13.0075 14.127 13.0075C14.6614 13.0075 14.9286 12.4099 15.4647 12.4099C16.268 12.4099 16.537 13.0075 17.6075 13.0075C18.1436 13.0075 18.4108 12.4099 18.9469 12.4099C19.7502 12.4099 20.0192 13.0075 21.0897 13.0075C21.6258 13.0075 21.7981 12.8388 22.0002 12.7175V11.8333ZM22.0002 10.3409C21.7981 10.464 21.6258 10.7452 21.0897 10.7452C20.0174 10.7452 19.7502 10.1476 18.9452 10.1476C18.4108 10.1476 18.1436 10.7452 17.6075 10.7452C16.5352 10.7452 16.268 10.1476 15.4629 10.1476C14.9286 10.1476 14.6614 10.7452 14.127 10.7452C13.0547 10.7452 12.7858 10.1476 11.9825 10.1476C11.4463 10.1476 11.1792 10.7452 10.643 10.7452C9.57075 10.7452 9.30356 10.1476 8.50024 10.1476C7.96411 10.1476 7.69692 10.7452 7.16079 10.7452C6.08853 10.7452 5.82134 10.1476 5.01802 10.1476C4.48188 10.1476 4.32192 10.5747 4.00024 10.5747V11.3429C4.32192 11.3429 4.48188 10.9175 5.01978 10.9175C5.82134 10.9175 6.09028 11.5151 7.16079 11.5151C7.69692 11.5151 7.96411 10.9175 8.50024 10.9175C9.30356 10.9175 9.57251 11.5151 10.6448 11.5151C11.1792 11.5151 11.4463 10.9175 11.9825 10.9175C12.7858 10.9175 13.0547 11.5151 14.127 11.5151C14.6614 11.5151 14.9286 10.9175 15.4647 10.9175C16.268 10.9175 16.537 11.5151 17.6075 11.5151C18.1436 11.5151 18.4108 10.9175 18.9469 10.9175C19.7502 10.9175 20.0192 11.5151 21.0897 11.5151C21.6258 11.5151 21.7981 11.3446 22.0002 11.2233V10.3409ZM22.0002 8.84854C21.7981 8.96982 21.6258 9.25283 21.0897 9.25283C20.0174 9.25283 19.7502 8.65518 18.9452 8.65518C18.4108 8.65518 18.1436 9.25283 17.6075 9.25283C16.5352 9.25283 16.268 8.65518 15.4629 8.65518C14.9286 8.65518 14.6614 9.25283 14.127 9.25283C13.0547 9.25283 12.7858 8.65518 11.9825 8.65518C11.4463 8.65518 11.1792 9.25283 10.643 9.25283C9.57075 9.25283 9.30356 8.65518 8.50024 8.65518C7.96411 8.65518 7.69692 9.25283 7.16079 9.25283C6.08853 9.25283 5.82134 8.65518 5.01802 8.65518C4.48188 8.65518 4.32192 9.08232 4.00024 9.08232V9.85049C4.32192 9.85049 4.48188 9.4251 5.01978 9.4251C5.82134 9.4251 6.09028 10.0228 7.16079 10.0228C7.69692 10.0228 7.96411 9.4251 8.50024 9.4251C9.30356 9.4251 9.57251 10.0228 10.6448 10.0228C11.1792 10.0228 11.4463 9.4251 11.9825 9.4251C12.7858 9.4251 13.0547 10.0228 14.127 10.0228C14.6614 10.0228 14.9286 9.4251 15.4647 9.4251C16.268 9.4251 16.537 10.0228 17.6075 10.0228C18.1436 10.0228 18.4108 9.4251 18.9469 9.4251C19.7502 9.4251 20.0192 10.0228 21.0897 10.0228C21.6258 10.0228 21.7981 9.85225 22.0002 9.73096V8.84854ZM22.0002 7.35439C21.7981 7.47744 21.6258 7.76045 21.0897 7.76045C20.0174 7.76045 19.7502 7.16279 18.9452 7.16279C18.4108 7.16279 18.1436 7.76045 17.6075 7.76045C16.5352 7.76045 16.268 7.16279 15.4629 7.16279C14.9286 7.16279 14.6614 7.76045 14.127 7.76045C13.0547 7.76045 12.7858 7.16279 11.9825 7.16279C11.4463 7.16279 11.1792 7.76045 10.643 7.76045C9.57075 7.76045 9.30356 7.16279 8.50024 7.16279C7.96411 7.16279 7.69692 7.76045 7.16079 7.76045C6.08853 7.76045 5.82134 7.16279 5.01802 7.16279C4.48188 7.16455 4.32192 7.5917 4.00024 7.5917V8.35986C4.32192 8.35986 4.48188 7.93447 5.01802 7.93447C5.82134 7.93447 6.09028 8.53213 7.16255 8.53213C7.69692 8.53213 7.96411 7.93447 8.50024 7.93447C9.30356 7.93447 9.57251 8.53213 10.6448 8.53213C11.1792 8.53213 11.4463 7.93447 11.9807 7.93447C12.7858 7.93447 13.053 8.53213 14.1252 8.53213C14.6614 8.53213 14.9286 7.93447 15.4647 7.93447C16.268 7.93447 16.537 8.53213 17.6075 8.53213C18.1436 8.53213 18.4108 7.93447 18.9469 7.93447C19.7502 7.93447 20.0192 8.53213 21.0897 8.53213C21.6241 8.53213 21.7981 8.36162 22.0002 8.24033V7.35791V7.35439ZM22.0002 5.86377C21.7981 5.98506 21.6258 6.26807 21.0897 6.26807C20.0174 6.26807 19.7502 5.67041 18.9452 5.67041C18.4108 5.67041 18.1436 6.26807 17.6075 6.26807C16.5352 6.26807 16.268 5.67041 15.4629 5.67041C14.9286 5.67041 14.6614 6.26807 14.127 6.26807C13.0547 6.26807 12.7858 5.67041 11.9825 5.67041C11.4463 5.67041 11.1792 6.26807 10.643 6.26807C9.57075 6.26807 9.30356 5.67041 8.50024 5.67041C7.96411 5.67041 7.69692 6.26807 7.16079 6.26807C6.08853 6.26807 5.82134 5.67041 5.01802 5.67041C4.48188 5.67041 4.32192 6.09756 4.00024 6.09756V6.86748C4.32192 6.86748 4.48188 6.44209 5.01802 6.44209C5.82134 6.44209 6.09028 7.03975 7.16255 7.03975C7.69692 7.03975 7.96411 6.44209 8.50024 6.44209C9.30356 6.44209 9.57251 7.03975 10.6448 7.03975C11.1792 7.03975 11.4463 6.44209 11.9807 6.44209C12.7858 6.44209 13.053 7.03975 14.1252 7.03975C14.6614 7.03975 14.9286 6.44209 15.4647 6.44209C16.268 6.44209 16.537 7.03975 17.6075 7.03975C18.1436 7.03975 18.4108 6.44209 18.9469 6.44209C19.7502 6.44209 20.0192 7.03975 21.0897 7.03975C21.6241 7.03975 21.7981 6.86924 22.0002 6.74795V5.86377Z" fill="#000063"/>
<path fill-rule="evenodd" clip-rule="evenodd" d="M4 5.5H8.59316V8.27734H4V5.5Z" fill="#000063"/>
<path d="M4 5.5V5.81113L8.07988 8.27734H8.59316V7.96621L4.51504 5.50176H4V5.5ZM8.59316 5.5V5.81113L4.51504 8.27734H4V7.96621L8.07988 5.50176H8.59316V5.5Z" fill="white"/>
<path d="M5.91426 5.5V8.27734H6.67891V5.5H5.91602H5.91426ZM4 6.42812V7.35273H8.59316V6.42637H4V6.42812Z" fill="white"/>
<path d="M4 6.61094V7.16641H8.59316V6.61094H4ZM6.06719 5.5V8.27734H6.52598V5.5H6.06719ZM4 8.27734L5.53105 7.35098H5.87383L4.34277 8.27734H4ZM4 5.5L5.53105 6.42637H5.18828L4 5.70742V5.50176V5.5ZM6.71934 6.42637L8.25039 5.50176H8.59316L7.06387 6.42637H6.71934ZM8.59316 8.27734L7.06387 7.35098H7.40488L8.59316 8.06992V8.27734Z" fill="#CC0000"/>
<path fill-rule="evenodd" clip-rule="evenodd" d="M10.6766 7.60498L10.6121 13.7117C10.6121 14.0331 10.9027 14.0331 10.9335 13.7117L10.8693 7.60498H10.6766Z" fill="#A24300" stroke="white" stroke-width="0.0385801"/>
<path fill-rule="evenodd" clip-rule="evenodd" d="M11.3425 9.87591L11.1399 9.65397L11.0902 9.87829L11.0022 9.5536L10.9202 9.71691L10.9055 9.37124L10.8236 9.53489L10.8088 9.18922L10.7268 9.35252L10.6799 8.94618L10.598 9.10983L10.551 8.70348L10.469 8.86679L10.4221 8.46044L10.3985 8.2571L10.4395 8.17544L10.5454 8.21502L10.7154 8.3764L11.0553 8.69883L10.8444 8.61944L11.1843 8.94187L10.9732 8.86214L11.3131 9.18457L11.1022 9.10518L11.4099 9.36693L11.1988 9.2872L11.5065 9.54895L11.2956 9.46956L11.5295 9.75207L11.2862 9.61167L11.3415 9.87581L11.3425 9.87591Z" fill="#006D00" stroke="white" stroke-width="0.0339227"/>
<path d="M11.3425 9.87591L10.4401 8.17567M11.0551 8.69849L10.5685 8.41848L10.469 8.86679" stroke="black" stroke-width="0.00544942"/>
<path d="M11.1846 8.94189L10.6978 8.66154L10.5982 9.10985" stroke="black" stroke-width="0.00544942"/>
<path d="M11.3132 9.18457L10.8265 8.90422L10.7269 9.35253" stroke="black" stroke-width="0.00544942"/>
<path d="M11.4099 9.36694L10.9553 9.14727L10.8236 9.5349" stroke="black" stroke-width="0.00544942"/>
<path d="M11.5068 9.54932L11.0521 9.3293L10.9203 9.71693" stroke="black" stroke-width="0.00544942"/>
<path d="M11.5295 9.7522L11.117 9.45097L11.0897 9.87819" stroke="black" stroke-width="0.00544942"/>
<path fill-rule="evenodd" clip-rule="evenodd" d="M8.97227 6.97632L9.30281 7.10204L9.20651 6.85236L9.49526 7.13673L9.46805 6.93285L9.70172 7.27362L9.67411 7.06948L9.90778 7.41025L9.88057 7.20637L10.1829 7.59268L10.1553 7.38854L10.4577 7.77485L10.4305 7.57098L10.7328 7.95729L10.8842 8.15057L10.8978 8.25251L10.7737 8.26368L10.5122 8.18319L9.98952 8.02246L10.2371 8.00076L9.71437 7.84003L9.9623 7.81858L9.43962 7.65786L9.68715 7.63615L9.23316 7.52097L9.48109 7.49952L9.0271 7.38434L9.27463 7.36263L8.87642 7.19099L9.19304 7.21509L8.97328 6.97594L8.97227 6.97632Z" fill="#006D00" stroke="white" stroke-width="0.0377971"/>
<path d="M8.97227 6.97632L10.8971 8.25257M9.9899 8.02272L10.6227 8.07008L10.4305 7.57098" stroke="black" stroke-width="0.00607182"/>
<path d="M9.71436 7.84009L10.3475 7.8877L10.1553 7.3886" stroke="black" stroke-width="0.00607182"/>
<path d="M9.4397 7.65796L10.0728 7.70558L9.88065 7.20647" stroke="black" stroke-width="0.00607182"/>
<path d="M9.23315 7.521L9.79762 7.52307L9.6741 7.06951" stroke="black" stroke-width="0.00607182"/>
<path d="M9.02686 7.38403L9.59171 7.38636L9.46819 6.9328" stroke="black" stroke-width="0.00607182"/>
<path d="M8.87646 7.19092L9.45353 7.29531L9.20726 6.85222" stroke="black" stroke-width="0.00607182"/>
<path fill-rule="evenodd" clip-rule="evenodd" d="M12.8112 7.4026L12.5362 7.60416L12.8398 7.6377L12.4164 7.73819L12.6421 7.8054L12.1834 7.83882L12.4095 7.90583L11.9508 7.93925L12.1765 8.00646L11.6403 8.07335L11.8664 8.14037L11.3302 8.20726L11.5559 8.27447L11.0197 8.34136L10.7513 8.37491L10.6385 8.3413L10.6805 8.24037L10.8782 8.07266L11.2732 7.73745L11.1887 7.93856L11.5837 7.60335L11.4988 7.80465L11.8938 7.46943L11.8094 7.67055L12.1268 7.36881L12.0419 7.57012L12.3594 7.26838L12.275 7.46949L12.6275 7.2354L12.4651 7.47019L12.8111 7.40355L12.8112 7.4026Z" fill="#006D00" stroke="white" stroke-width="0.0375187"/>
<path d="M12.8112 7.4026L10.6387 8.34074M11.2727 7.73764L10.949 8.2072L11.5559 8.27447" stroke="black" stroke-width="0.0060271"/>
<path d="M11.5837 7.60327L11.2596 8.07303L11.8664 8.14029" stroke="black" stroke-width="0.0060271"/>
<path d="M11.8938 7.46924L11.5697 7.93899L12.1765 8.00626" stroke="black" stroke-width="0.0060271"/>
<path d="M12.127 7.36865L11.8803 7.80493L12.4097 7.90567" stroke="black" stroke-width="0.0060271"/>
<path d="M12.3599 7.26807L12.1128 7.70453L12.6421 7.80528" stroke="black" stroke-width="0.0060271"/>
<path d="M12.6277 7.23535L12.2683 7.63708L12.8398 7.63821" stroke="black" stroke-width="0.0060271"/>
<path fill-rule="evenodd" clip-rule="evenodd" d="M12.7672 9.43446L12.4246 9.33546L12.5473 9.57644L12.2292 9.31616L12.2782 9.51701L12.009 9.1962L12.0584 9.39728L11.7891 9.07648L11.8381 9.27733L11.4955 8.91661L11.5449 9.1177L11.2024 8.75698L11.2514 8.95783L10.9088 8.59712L10.7373 8.41665L10.7128 8.31622L10.8352 8.29527L11.1043 8.3547L11.642 8.47334L11.3978 8.51456L11.9356 8.63321L11.691 8.6742L12.2287 8.79284L11.9845 8.83406L12.449 8.91279L12.2044 8.95379L12.6688 9.03252L12.4247 9.07374L12.8396 9.21311L12.5218 9.21419L12.7663 9.43491L12.7672 9.43446Z" fill="#006D00" stroke="white" stroke-width="0.0377686"/>
<path d="M12.7672 9.43446L10.7135 8.3161M11.6416 8.47312L11.0064 8.47608L11.2514 8.95783" stroke="black" stroke-width="0.00606725"/>
<path d="M11.9358 8.6333L11.3002 8.63604L11.5452 9.11779" stroke="black" stroke-width="0.00606725"/>
<path d="M12.2288 8.79297L11.5932 8.7957L11.8381 9.27746" stroke="black" stroke-width="0.00606725"/>
<path d="M12.4492 8.91284L11.8869 8.95549L12.0586 9.39733" stroke="black" stroke-width="0.00606725"/>
<path d="M12.6694 9.03271L12.1067 9.07513L12.2784 9.51698" stroke="black" stroke-width="0.00606725"/>
<path d="M12.8398 9.21313L12.254 9.15489L12.5468 9.57659" stroke="black" stroke-width="0.00606725"/>
<path fill-rule="evenodd" clip-rule="evenodd" d="M9.19934 9.55224L9.37101 9.31178L9.10895 9.3498L9.43264 9.16597L9.22589 9.15668L9.59796 9.02455L9.3909 9.01552L9.76296 8.88339L9.55622 8.8741L9.98328 8.69491L9.77622 8.68589L10.2033 8.5067L9.99654 8.49741L10.4236 8.31823L10.6373 8.2285L10.7407 8.23315L10.7343 8.33219L10.6174 8.52531L10.3838 8.91129L10.3971 8.71379L10.1635 9.09976L10.177 8.902L9.94346 9.28798L9.95672 9.09047L9.77815 9.4294L9.79172 9.23163L9.61314 9.57056L9.6264 9.37306L9.39949 9.65972L9.46806 9.41491L9.1991 9.55139L9.19934 9.55224Z" fill="#006D00" stroke="white" stroke-width="0.0335687"/>
<path d="M9.19934 9.55224L10.7406 8.23371M10.3841 8.91102L10.5204 8.42162L9.99654 8.49741" stroke="black" stroke-width="0.00539256"/>
<path d="M10.1636 9.09985L10.3001 8.61019L9.77633 8.68598" stroke="black" stroke-width="0.00539256"/>
<path d="M9.94336 9.28809L10.0799 8.79842L9.55611 8.87421" stroke="black" stroke-width="0.00539256"/>
<path d="M9.77832 9.42944L9.85988 8.98683L9.39107 9.01557" stroke="black" stroke-width="0.00539256"/>
<path d="M9.61304 9.5708L9.69491 9.12792L9.2261 9.15666" stroke="black" stroke-width="0.00539256"/>
<path d="M9.39941 9.65967L9.58458 9.22255L9.10891 9.34919" stroke="black" stroke-width="0.00539256"/>
<path fill-rule="evenodd" clip-rule="evenodd" d="M12.3146 6.38853L11.9821 6.61091L11.9279 6.37238L11.7319 6.70208L11.6962 6.54345L11.5365 6.88169L11.5144 6.72585L11.3899 7.07241L11.3189 6.90546L11.1942 7.32707L11.1235 7.15975L10.9987 7.58136L10.9278 7.41441L10.803 7.83601L10.7405 8.047L10.776 8.13048L10.9097 8.08692L11.1408 7.91574L11.603 7.57374L11.3366 7.66109L11.7987 7.31909L11.532 7.40679L11.9941 7.0648L11.7277 7.15214L12.1896 6.88518L11.8743 6.96141L12.3719 6.7029L12.0693 6.78169L12.4344 6.49191L12.1189 6.64319L12.3146 6.38853Z" fill="#006D00" stroke="white" stroke-width="0.0390882"/>
<path d="M12.1855 6.5083L11.7055 6.92118L10.7761 8.13052" stroke="black" stroke-width="0.00627922"/>
<path d="M11.5017 7.625L10.9717 7.87587L10.9275 7.4895" stroke="black" stroke-width="0.00627922"/>
<path d="M11.7053 7.3728L11.1675 7.6214L11.123 7.23539" stroke="black" stroke-width="0.00627922"/>
<path d="M11.8965 7.11694L11.3627 7.36692L11.3223 6.98144" stroke="black" stroke-width="0.00627922"/>
<path d="M12.0556 6.92931L11.5586 7.11243L11.5013 6.79807" stroke="black" stroke-width="0.00627922"/>
<path d="M12.2388 6.74658L11.7052 6.92151L11.6846 6.61581" stroke="black" stroke-width="0.00627922"/>
<path d="M12.3098 6.5741L11.8161 6.82676L11.9118 6.4437" stroke="black" stroke-width="0.00627922"/>
<path fill-rule="evenodd" clip-rule="evenodd" d="M10.5155 5.97167L10.6641 6.31043L10.8553 6.13125L10.8222 6.50036L10.949 6.38104L10.8799 6.74121L10.9934 6.61816L10.8891 6.96962L11.0511 6.859L10.9015 7.2746L11.0634 7.16355L10.9138 7.57915L11.0757 7.46853L10.9261 7.88413L10.8513 8.09214L10.7703 8.14744L10.6828 8.05036L10.5895 7.80069L10.4029 7.30177L10.5771 7.49571L10.3906 6.99679L10.5648 7.19116L10.3783 6.69224L10.5525 6.88618L10.3206 6.4514L10.5433 6.65777L10.2758 6.21416L10.4861 6.41704L10.3505 6.00615L10.5279 6.27665L10.5155 5.97167Z" fill="#006D00" stroke="white" stroke-width="0.0380888"/>
<path d="M10.553 6.13184L10.7118 6.69924L10.7703 8.14757" stroke="black" stroke-width="0.00611868"/>
<path d="M10.4583 7.39087L10.7581 7.84248L11.0304 7.53268" stroke="black" stroke-width="0.00611868"/>
<path d="M10.4377 7.08423L10.7456 7.53741L11.018 7.22804" stroke="black" stroke-width="0.00611868"/>
<path d="M10.4297 6.78027L10.7333 7.23283L11.0018 6.92208" stroke="black" stroke-width="0.00611868"/>
<path d="M10.4082 6.54901L10.7211 6.92806L10.9609 6.68557" stroke="black" stroke-width="0.00611868"/>
<path d="M10.3628 6.31104L10.7118 6.69945L10.915 6.4479" stroke="black" stroke-width="0.00611868"/>
<path d="M10.4068 6.13196L10.6745 6.56881L10.8255 6.19912" stroke="black" stroke-width="0.00611868"/>
<path fill-rule="evenodd" clip-rule="evenodd" d="M8.52539 8.46267L8.95921 8.16225L8.74176 8.05031L9.1218 8.1152L8.9915 7.9429L9.36074 8.08119L9.23001 7.90882L9.59931 8.0467L9.46895 7.87481L9.91418 8.02565L9.78382 7.85376L10.2183 8.07758L10.0875 7.90562L10.5327 8.05646L10.7502 8.16841L10.8154 8.25435L10.7286 8.31478L10.4897 8.34879L10.1044 8.50745L10.1753 8.36991L9.69781 8.43801L9.87114 8.31798L9.38295 8.45905L9.55628 8.33903L9.14395 8.49348L9.32851 8.30013L8.90543 8.52756L9.08957 8.33414L8.74285 8.57461L8.93772 8.30821L8.52539 8.46267Z" fill="#006D00" stroke="white" stroke-width="0.0353459"/>
<path d="M8.6626 8.38184L9.11108 8.18791L9.34996 8.15431L9.54925 8.15072L9.89259 8.17216L10.2024 8.18533L10.8153 8.25449" stroke="black" stroke-width="0.00567805"/>
<path d="M10.1641 8.4429L10.5073 8.23226L10.1576 7.95825" stroke="black" stroke-width="0.00567805"/>
<path d="M9.77954 8.41187L10.2021 8.18518L9.85323 7.91132" stroke="black" stroke-width="0.00567805"/>
<path d="M9.50524 8.40502L9.89272 8.17151L9.54053 7.91736M8.99219 8.46704L9.35002 8.15408L9.06163 7.99536" stroke="black" stroke-width="0.00567805"/>
<path d="M8.8335 8.48853L9.11122 8.18809L8.88982 8.1059M9.23083 8.43295L9.58455 8.15099L9.30063 7.9588" stroke="black" stroke-width="0.00567805"/>
<path fill-rule="evenodd" clip-rule="evenodd" d="M9.98352 11.753L9.97944 11.2466L9.83274 11.0101C9.79601 10.8939 9.81401 10.8378 9.87356 10.8338C9.93286 10.8302 9.99169 10.8638 10.0772 10.8676C10.1626 10.8713 10.1466 10.7363 10.2728 10.7401C10.3991 10.7438 10.6193 10.8115 10.8066 10.8227C10.9941 10.8338 11.0918 10.7626 11.3079 10.7551C11.524 10.7476 11.5809 10.8488 11.5932 10.8488C11.6054 10.8488 11.6666 10.8077 11.7276 10.8002C11.7888 10.7927 11.8092 10.8227 11.8092 10.8227C11.8092 10.8227 11.8052 10.9502 11.7766 11.0252C11.748 11.1003 11.6462 11.2241 11.6421 11.2241C11.6381 11.2241 11.6054 11.7755 11.6054 11.7793C11.6054 11.783 9.98352 11.7642 9.98352 11.753Z" fill="#CC0000" stroke="black" stroke-width="0.00307143"/>
<path fill-rule="evenodd" clip-rule="evenodd" d="M11.6612 11.2343C11.6612 11.2343 11.8245 11.1194 11.8288 10.8429C11.8312 10.6838 11.7462 10.5688 11.5335 10.5688C11.2358 10.5688 10.8105 10.6862 10.8105 10.6862V10.7253C10.8105 10.7253 11.1508 10.608 11.5337 10.608C11.7037 10.608 11.789 10.7229 11.789 10.8405C11.789 11.0363 11.6185 11.2345 11.6185 11.2345V11.5477H11.6612V11.2343Z" fill="#FFF100" stroke="black" stroke-width="0.00307143"/>
<path fill-rule="evenodd" clip-rule="evenodd" d="M11.75 11.1525C11.75 11.1629 11.7545 11.1729 11.7625 11.1802C11.7704 11.1876 11.7813 11.1917 11.7926 11.1917C11.8039 11.1917 11.8147 11.1876 11.8227 11.1802C11.8307 11.1729 11.8352 11.1629 11.8352 11.1525C11.8352 11.1421 11.8307 11.1321 11.8227 11.1248C11.8147 11.1174 11.8039 11.1133 11.7926 11.1133C11.7813 11.1133 11.7704 11.1174 11.7625 11.1248C11.7545 11.1321 11.75 11.1421 11.75 11.1525Z" fill="white" stroke="black" stroke-width="0.00307143"/>
<path fill-rule="evenodd" clip-rule="evenodd" d="M11.792 11.0629C11.792 11.0733 11.7965 11.0833 11.8044 11.0907C11.8124 11.098 11.8233 11.1021 11.8346 11.1021C11.8459 11.1021 11.8567 11.098 11.8647 11.0907C11.8727 11.0833 11.8772 11.0733 11.8772 11.0629C11.8772 11.0525 11.8727 11.0425 11.8647 11.0352C11.8567 11.0278 11.8459 11.0237 11.8346 11.0237C11.8233 11.0237 11.8124 11.0278 11.8044 11.0352C11.7965 11.0425 11.792 11.0525 11.792 11.0629Z" fill="white" stroke="black" stroke-width="0.00307143"/>
<path fill-rule="evenodd" clip-rule="evenodd" d="M11.8149 10.9714C11.8149 10.9818 11.8194 10.9917 11.8274 10.9991C11.8354 11.0065 11.8462 11.0106 11.8575 11.0106C11.8688 11.0106 11.8797 11.0065 11.8877 10.9991C11.8957 10.9917 11.9001 10.9818 11.9001 10.9714C11.9001 10.961 11.8957 10.951 11.8877 10.9436C11.8797 10.9363 11.8688 10.9321 11.8575 10.9321C11.8462 10.9321 11.8354 10.9363 11.8274 10.9436C11.8194 10.951 11.8149 10.961 11.8149 10.9714Z" fill="white" stroke="black" stroke-width="0.00307143"/>
<path fill-rule="evenodd" clip-rule="evenodd" d="M11.8308 10.8747C11.8308 10.8851 11.8353 10.8951 11.8433 10.9024C11.8513 10.9098 11.8621 10.9139 11.8734 10.9139C11.8847 10.9139 11.8955 10.9098 11.9035 10.9024C11.9115 10.8951 11.916 10.8851 11.916 10.8747C11.916 10.8643 11.9115 10.8543 11.9035 10.8469C11.8955 10.8396 11.8847 10.8354 11.8734 10.8354C11.8621 10.8354 11.8513 10.8396 11.8433 10.8469C11.8353 10.8543 11.8308 10.8643 11.8308 10.8747Z" fill="white" stroke="black" stroke-width="0.00307143"/>
<path fill-rule="evenodd" clip-rule="evenodd" d="M11.8271 10.7692C11.8271 10.7796 11.8316 10.7896 11.8396 10.7969C11.8476 10.8043 11.8584 10.8084 11.8697 10.8084C11.881 10.8084 11.8919 10.8043 11.8999 10.7969C11.9079 10.7896 11.9124 10.7796 11.9124 10.7692C11.9124 10.7588 11.9079 10.7488 11.8999 10.7415C11.8919 10.7341 11.881 10.73 11.8697 10.73C11.8584 10.73 11.8476 10.7341 11.8396 10.7415C11.8316 10.7488 11.8271 10.7588 11.8271 10.7692Z" fill="white" stroke="black" stroke-width="0.00307143"/>
<path fill-rule="evenodd" clip-rule="evenodd" d="M11.6884 11.2316C11.6884 11.242 11.6929 11.252 11.7009 11.2594C11.7089 11.2667 11.7198 11.2708 11.7311 11.2708C11.7424 11.2708 11.7532 11.2667 11.7612 11.2594C11.7692 11.252 11.7737 11.242 11.7737 11.2316C11.7737 11.2212 11.7692 11.2112 11.7612 11.2039C11.7532 11.1965 11.7424 11.1924 11.7311 11.1924C11.7198 11.1924 11.7089 11.1965 11.7009 11.2039C11.6929 11.2112 11.6884 11.2212 11.6884 11.2316Z" fill="white" stroke="black" stroke-width="0.00307143"/>
<path fill-rule="evenodd" clip-rule="evenodd" d="M11.7903 10.6691C11.7903 10.6795 11.7947 10.6895 11.8027 10.6969C11.8107 10.7042 11.8216 10.7083 11.8329 10.7083C11.8442 10.7083 11.855 10.7042 11.863 10.6969C11.871 10.6895 11.8755 10.6795 11.8755 10.6691C11.8755 10.6587 11.871 10.6487 11.863 10.6414C11.855 10.634 11.8442 10.6299 11.8329 10.6299C11.8216 10.6299 11.8107 10.634 11.8027 10.6414C11.7947 10.6487 11.7903 10.6587 11.7903 10.6691Z" fill="white" stroke="black" stroke-width="0.00307143"/>
<path fill-rule="evenodd" clip-rule="evenodd" d="M11.7112 10.59C11.7112 10.6004 11.7156 10.6104 11.7236 10.6177C11.7316 10.6251 11.7425 10.6292 11.7538 10.6292C11.7651 10.6292 11.7759 10.6251 11.7839 10.6177C11.7919 10.6104 11.7964 10.6004 11.7964 10.59C11.7964 10.5796 11.7919 10.5696 11.7839 10.5623C11.7759 10.5549 11.7651 10.5508 11.7538 10.5508C11.7425 10.5508 11.7316 10.5549 11.7236 10.5623C11.7156 10.5696 11.7112 10.5796 11.7112 10.59Z" fill="white" stroke="black" stroke-width="0.00307143"/>
<path fill-rule="evenodd" clip-rule="evenodd" d="M11.6057 10.5373C11.6057 10.5477 11.6102 10.5577 11.6182 10.565C11.6262 10.5724 11.637 10.5765 11.6483 10.5765C11.6596 10.5765 11.6704 10.5724 11.6784 10.565C11.6864 10.5577 11.6909 10.5477 11.6909 10.5373C11.6909 10.5269 11.6864 10.5169 11.6784 10.5095C11.6704 10.5022 11.6596 10.498 11.6483 10.498C11.637 10.498 11.6262 10.5022 11.6182 10.5095C11.6102 10.5169 11.6057 10.5269 11.6057 10.5373Z" fill="white" stroke="black" stroke-width="0.00307143"/>
<path fill-rule="evenodd" clip-rule="evenodd" d="M11.5002 10.5302C11.5002 10.5406 11.5047 10.5506 11.5127 10.5579C11.5207 10.5653 11.5315 10.5694 11.5428 10.5694C11.5541 10.5694 11.565 10.5653 11.573 10.5579C11.581 10.5506 11.5854 10.5406 11.5854 10.5302C11.5854 10.5198 11.581 10.5098 11.573 10.5025C11.565 10.4951 11.5541 10.491 11.5428 10.491C11.5315 10.491 11.5207 10.4951 11.5127 10.5025C11.5047 10.5098 11.5002 10.5198 11.5002 10.5302Z" fill="white" stroke="black" stroke-width="0.00307143"/>
<path fill-rule="evenodd" clip-rule="evenodd" d="M11.386 10.5339C11.386 10.5443 11.3904 10.5542 11.3984 10.5616C11.4064 10.569 11.4173 10.5731 11.4286 10.5731C11.4399 10.5731 11.4507 10.569 11.4587 10.5616C11.4667 10.5542 11.4712 10.5443 11.4712 10.5339C11.4712 10.5235 11.4667 10.5135 11.4587 10.5061C11.4507 10.4988 11.4399 10.4946 11.4286 10.4946C11.4173 10.4946 11.4064 10.4988 11.3984 10.5061C11.3904 10.5135 11.386 10.5235 11.386 10.5339Z" fill="white" stroke="black" stroke-width="0.00307143"/>
<path fill-rule="evenodd" clip-rule="evenodd" d="M11.2717 10.5495C11.2717 10.5599 11.2762 10.5699 11.2842 10.5772C11.2922 10.5846 11.303 10.5887 11.3143 10.5887C11.3256 10.5887 11.3365 10.5846 11.3445 10.5772C11.3524 10.5699 11.3569 10.5599 11.3569 10.5495C11.3569 10.5391 11.3524 10.5291 11.3445 10.5217C11.3365 10.5144 11.3256 10.5103 11.3143 10.5103C11.303 10.5103 11.2922 10.5144 11.2842 10.5217C11.2762 10.5291 11.2717 10.5391 11.2717 10.5495Z" fill="white" stroke="black" stroke-width="0.00307143"/>
<path fill-rule="evenodd" clip-rule="evenodd" d="M11.1591 10.5636C11.1591 10.574 11.1636 10.584 11.1716 10.5914C11.1796 10.5987 11.1905 10.6029 11.2018 10.6029C11.2131 10.6029 11.2239 10.5987 11.2319 10.5914C11.2399 10.584 11.2444 10.574 11.2444 10.5636C11.2444 10.5532 11.2399 10.5433 11.2319 10.5359C11.2239 10.5285 11.2131 10.5244 11.2018 10.5244C11.1905 10.5244 11.1796 10.5285 11.1716 10.5359C11.1636 10.5433 11.1591 10.5532 11.1591 10.5636Z" fill="white" stroke="black" stroke-width="0.00307143"/>
<path fill-rule="evenodd" clip-rule="evenodd" d="M11.0361 10.5812C11.0361 10.5916 11.0406 10.6016 11.0486 10.609C11.0566 10.6163 11.0674 10.6205 11.0787 10.6205C11.09 10.6205 11.1009 10.6163 11.1089 10.609C11.1168 10.6016 11.1213 10.5916 11.1213 10.5812C11.1213 10.5708 11.1168 10.5608 11.1089 10.5535C11.1009 10.5461 11.09 10.542 11.0787 10.542C11.0674 10.542 11.0566 10.5461 11.0486 10.5535C11.0406 10.5608 11.0361 10.5708 11.0361 10.5812Z" fill="white" stroke="black" stroke-width="0.00307143"/>
<path fill-rule="evenodd" clip-rule="evenodd" d="M10.9306 10.6093C10.9306 10.6197 10.9351 10.6297 10.9431 10.637C10.9511 10.6444 10.9619 10.6485 10.9733 10.6485C10.9846 10.6485 10.9954 10.6444 11.0034 10.637C11.0114 10.6297 11.0159 10.6197 11.0159 10.6093C11.0159 10.5989 11.0114 10.5889 11.0034 10.5816C10.9954 10.5742 10.9846 10.5701 10.9733 10.5701C10.9619 10.5701 10.9511 10.5742 10.9431 10.5816C10.9351 10.5889 10.9306 10.5989 10.9306 10.6093Z" fill="white" stroke="black" stroke-width="0.00307143"/>
<path fill-rule="evenodd" clip-rule="evenodd" d="M9.87064 11.1523C9.87064 11.1627 9.86615 11.1726 9.85815 11.18C9.85016 11.1874 9.83932 11.1915 9.82802 11.1915C9.81672 11.1915 9.80588 11.1874 9.79788 11.18C9.78989 11.1726 9.7854 11.1627 9.7854 11.1523C9.7854 11.1419 9.78989 11.1319 9.79788 11.1245C9.80588 11.1172 9.81672 11.113 9.82802 11.113C9.83932 11.113 9.85016 11.1172 9.85815 11.1245C9.86615 11.1319 9.87064 11.1419 9.87064 11.1523Z" fill="white" stroke="black" stroke-width="0.00307143"/>
<path fill-rule="evenodd" clip-rule="evenodd" d="M9.82669 11.0627C9.82669 11.0731 9.8222 11.083 9.81421 11.0904C9.80622 11.0978 9.79538 11.1019 9.78407 11.1019C9.77277 11.1019 9.76193 11.0978 9.75394 11.0904C9.74595 11.083 9.74146 11.0731 9.74146 11.0627C9.74146 11.0523 9.74595 11.0423 9.75394 11.0349C9.76193 11.0276 9.77277 11.0234 9.78407 11.0234C9.79538 11.0234 9.80622 11.0276 9.81421 11.0349C9.8222 11.0423 9.82669 11.0523 9.82669 11.0627Z" fill="white" stroke="black" stroke-width="0.00307143"/>
<path fill-rule="evenodd" clip-rule="evenodd" d="M9.80569 10.9714C9.80569 10.9818 9.8012 10.9917 9.79321 10.9991C9.78522 11.0065 9.77438 11.0106 9.76308 11.0106C9.75177 11.0106 9.74093 11.0065 9.73294 10.9991C9.72495 10.9917 9.72046 10.9818 9.72046 10.9714C9.72046 10.961 9.72495 10.951 9.73294 10.9436C9.74093 10.9363 9.75177 10.9321 9.76308 10.9321C9.77438 10.9321 9.78522 10.9363 9.79321 10.9436C9.8012 10.951 9.80569 10.961 9.80569 10.9714Z" fill="white" stroke="black" stroke-width="0.00307143"/>
<path fill-rule="evenodd" clip-rule="evenodd" d="M9.78983 10.8747C9.78983 10.8851 9.78534 10.8951 9.77734 10.9024C9.76935 10.9098 9.75851 10.9139 9.74721 10.9139C9.7359 10.9139 9.72506 10.9098 9.71707 10.9024C9.70908 10.8951 9.70459 10.8851 9.70459 10.8747C9.70459 10.8643 9.70908 10.8543 9.71707 10.8469C9.72506 10.8396 9.7359 10.8354 9.74721 10.8354C9.75851 10.8354 9.76935 10.8396 9.77734 10.8469C9.78534 10.8543 9.78983 10.8643 9.78983 10.8747Z" fill="white" stroke="black" stroke-width="0.00307143"/>
<path fill-rule="evenodd" clip-rule="evenodd" d="M9.79324 10.7692C9.79324 10.7796 9.78875 10.7896 9.78076 10.7969C9.77277 10.8043 9.76193 10.8084 9.75063 10.8084C9.73932 10.8084 9.72848 10.8043 9.72049 10.7969C9.7125 10.7896 9.70801 10.7796 9.70801 10.7692C9.70801 10.7588 9.7125 10.7488 9.72049 10.7415C9.72848 10.7341 9.73932 10.73 9.75063 10.73C9.76193 10.73 9.77277 10.7341 9.78076 10.7415C9.78875 10.7488 9.79324 10.7588 9.79324 10.7692Z" fill="white" stroke="black" stroke-width="0.00307143"/>
<path fill-rule="evenodd" clip-rule="evenodd" d="M9.8284 10.6689C9.8284 10.6793 9.82391 10.6893 9.81592 10.6966C9.80792 10.704 9.79708 10.7081 9.78578 10.7081C9.77448 10.7081 9.76364 10.704 9.75565 10.6966C9.74765 10.6893 9.74316 10.6793 9.74316 10.6689C9.74316 10.6585 9.74765 10.6485 9.75565 10.6411C9.76364 10.6338 9.77448 10.6296 9.78578 10.6296C9.79708 10.6296 9.80792 10.6338 9.81592 10.6411C9.82391 10.6485 9.8284 10.6585 9.8284 10.6689Z" fill="white" stroke="black" stroke-width="0.00307143"/>
<path fill-rule="evenodd" clip-rule="evenodd" d="M9.90579 10.5898C9.90579 10.6002 9.9013 10.6101 9.89331 10.6175C9.88532 10.6249 9.87448 10.629 9.86317 10.629C9.85187 10.629 9.84103 10.6249 9.83304 10.6175C9.82505 10.6101 9.82056 10.6002 9.82056 10.5898C9.82056 10.5794 9.82505 10.5694 9.83304 10.562C9.84103 10.5547 9.85187 10.5505 9.86317 10.5505C9.87448 10.5505 9.88532 10.5547 9.89331 10.562C9.9013 10.5694 9.90579 10.5794 9.90579 10.5898Z" fill="white" stroke="black" stroke-width="0.00307143"/>
<path fill-rule="evenodd" clip-rule="evenodd" d="M10.013 10.537C10.013 10.5474 10.0085 10.5574 10.0005 10.5648C9.99249 10.5721 9.98165 10.5763 9.97035 10.5763C9.95905 10.5763 9.94821 10.5721 9.94022 10.5648C9.93222 10.5574 9.92773 10.5474 9.92773 10.537C9.92773 10.5266 9.93222 10.5166 9.94022 10.5093C9.94821 10.5019 9.95905 10.4978 9.97035 10.4978C9.98165 10.4978 9.99249 10.5019 10.0005 10.5093C10.0085 10.5166 10.013 10.5266 10.013 10.537Z" fill="white" stroke="black" stroke-width="0.00307143"/>
<path fill-rule="evenodd" clip-rule="evenodd" d="M10.1184 10.5302C10.1184 10.5406 10.1139 10.5506 10.106 10.5579C10.098 10.5653 10.0871 10.5694 10.0758 10.5694C10.0645 10.5694 10.0537 10.5653 10.0457 10.5579C10.0377 10.5506 10.0332 10.5406 10.0332 10.5302C10.0332 10.5198 10.0377 10.5098 10.0457 10.5025C10.0537 10.4951 10.0645 10.491 10.0758 10.491C10.0871 10.491 10.098 10.4951 10.106 10.5025C10.1139 10.5098 10.1184 10.5198 10.1184 10.5302Z" fill="white" stroke="black" stroke-width="0.00307143"/>
<path fill-rule="evenodd" clip-rule="evenodd" d="M10.2327 10.5336C10.2327 10.544 10.2282 10.554 10.2202 10.5614C10.2122 10.5687 10.2014 10.5728 10.1901 10.5728C10.1788 10.5728 10.1679 10.5687 10.1599 10.5614C10.152 10.554 10.1475 10.544 10.1475 10.5336C10.1475 10.5232 10.152 10.5132 10.1599 10.5059C10.1679 10.4985 10.1788 10.4944 10.1901 10.4944C10.2014 10.4944 10.2122 10.4985 10.2202 10.5059C10.2282 10.5132 10.2327 10.5232 10.2327 10.5336Z" fill="white" stroke="black" stroke-width="0.00307143"/>
<path fill-rule="evenodd" clip-rule="evenodd" d="M10.347 10.5495C10.347 10.5599 10.3425 10.5699 10.3345 10.5772C10.3265 10.5846 10.3156 10.5887 10.3043 10.5887C10.293 10.5887 10.2822 10.5846 10.2742 10.5772C10.2662 10.5699 10.2617 10.5599 10.2617 10.5495C10.2617 10.5391 10.2662 10.5291 10.2742 10.5217C10.2822 10.5144 10.293 10.5103 10.3043 10.5103C10.3156 10.5103 10.3265 10.5144 10.3345 10.5217C10.3425 10.5291 10.347 10.5391 10.347 10.5495Z" fill="white" stroke="black" stroke-width="0.00307143"/>
<path fill-rule="evenodd" clip-rule="evenodd" d="M10.4612 10.5634C10.4612 10.5738 10.4567 10.5838 10.4487 10.5911C10.4407 10.5985 10.4299 10.6026 10.4186 10.6026C10.4073 10.6026 10.3965 10.5985 10.3885 10.5911C10.3805 10.5838 10.376 10.5738 10.376 10.5634C10.376 10.553 10.3805 10.543 10.3885 10.5357C10.3965 10.5283 10.4073 10.5242 10.4186 10.5242C10.4299 10.5242 10.4407 10.5283 10.4487 10.5357C10.4567 10.543 10.4612 10.553 10.4612 10.5634Z" fill="white" stroke="black" stroke-width="0.00307143"/>
<path fill-rule="evenodd" clip-rule="evenodd" d="M10.5825 10.581C10.5825 10.5914 10.5781 10.6014 10.5701 10.6087C10.5621 10.6161 10.5512 10.6202 10.5399 10.6202C10.5286 10.6202 10.5178 10.6161 10.5098 10.6087C10.5018 10.6014 10.4973 10.5914 10.4973 10.581C10.4973 10.5706 10.5018 10.5606 10.5098 10.5532C10.5178 10.5459 10.5286 10.5417 10.5399 10.5417C10.5512 10.5417 10.5621 10.5459 10.5701 10.5532C10.5781 10.5606 10.5825 10.5706 10.5825 10.581Z" fill="white" stroke="black" stroke-width="0.00307143"/>
<path fill-rule="evenodd" clip-rule="evenodd" d="M10.688 10.6093C10.688 10.6197 10.6835 10.6297 10.6755 10.637C10.6675 10.6444 10.6567 10.6485 10.6454 10.6485C10.6341 10.6485 10.6233 10.6444 10.6153 10.637C10.6073 10.6297 10.6028 10.6197 10.6028 10.6093C10.6028 10.5989 10.6073 10.5889 10.6153 10.5816C10.6233 10.5742 10.6341 10.5701 10.6454 10.5701C10.6567 10.5701 10.6675 10.5742 10.6755 10.5816C10.6835 10.5889 10.688 10.5989 10.688 10.6093Z" fill="white" stroke="black" stroke-width="0.00307143"/>
<path fill-rule="evenodd" clip-rule="evenodd" d="M9.93045 11.2314C9.93045 11.2418 9.92596 11.2518 9.91797 11.2591C9.90998 11.2665 9.89914 11.2706 9.88783 11.2706C9.87653 11.2706 9.86569 11.2665 9.8577 11.2591C9.8497 11.2518 9.84521 11.2418 9.84521 11.2314C9.84521 11.221 9.8497 11.211 9.8577 11.2036C9.86569 11.1963 9.87653 11.1921 9.88783 11.1921C9.89914 11.1921 9.90998 11.1963 9.91797 11.2036C9.92596 11.211 9.93045 11.221 9.93045 11.2314Z" fill="white" stroke="black" stroke-width="0.00307143"/>
<path fill-rule="evenodd" clip-rule="evenodd" d="M9.95939 11.2341C9.95939 11.2341 9.79612 11.1191 9.7918 10.8427C9.7894 10.6835 9.87439 10.5686 10.0871 10.5686C10.3848 10.5686 10.8101 10.686 10.8101 10.686V10.7251C10.8101 10.7251 10.4698 10.6077 10.0869 10.6077C9.91689 10.6077 9.83165 10.7226 9.83165 10.8402C9.83165 11.036 10.0021 11.2343 10.0021 11.2343V11.5475H9.95939V11.2341Z" fill="#FFF100" stroke="black" stroke-width="0.00307143"/>
<path fill-rule="evenodd" clip-rule="evenodd" d="M10.2559 11.3793C10.2559 11.3793 10.2681 11.3495 10.3126 11.3495C10.3429 11.3495 10.3693 11.3793 10.3693 11.4091V11.4688H10.3977V11.4091C10.3977 11.3793 10.426 11.3495 10.4543 11.3495C10.4969 11.3495 10.5111 11.3793 10.5111 11.3793C10.5111 11.3793 10.5111 11.2898 10.4543 11.2898C10.4118 11.2898 10.3977 11.3196 10.3977 11.3196C10.3977 11.3196 10.4118 11.2749 10.4118 11.2301C10.4118 11.1853 10.3835 11.1555 10.3835 11.1555C10.3835 11.1612 10.3551 11.1854 10.3551 11.2301C10.3551 11.2748 10.3693 11.3196 10.3693 11.3196C10.3693 11.3196 10.3551 11.2898 10.3126 11.2898C10.2559 11.2898 10.2559 11.3793 10.2559 11.3793Z" fill="#FFF100" stroke="black" stroke-width="0.00246269"/>
<path fill-rule="evenodd" clip-rule="evenodd" d="M11.1067 11.3793C11.1067 11.3793 11.1189 11.3495 11.1634 11.3495C11.1937 11.3495 11.2201 11.3793 11.2201 11.4091V11.4688H11.2485V11.4091C11.2485 11.3793 11.2768 11.3495 11.3052 11.3495C11.3477 11.3495 11.3619 11.3793 11.3619 11.3793C11.3619 11.3793 11.3619 11.2898 11.3052 11.2898C11.2627 11.2898 11.2485 11.3196 11.2485 11.3196C11.2485 11.3196 11.2627 11.2749 11.2627 11.2301C11.2627 11.1853 11.2343 11.1555 11.2343 11.1555C11.2343 11.1612 11.2059 11.1854 11.2059 11.2301C11.2059 11.2748 11.2201 11.3196 11.2201 11.3196C11.2201 11.3196 11.2059 11.2898 11.1634 11.2898C11.1067 11.2898 11.1067 11.3793 11.1067 11.3793Z" fill="#FFF100" stroke="black" stroke-width="0.00246269"/>
<path fill-rule="evenodd" clip-rule="evenodd" d="M9.95947 11.7824V11.4298C9.95947 11.4298 10.0445 11.5474 10.1722 11.5474C10.2766 11.5474 10.3849 11.3907 10.3849 11.3907C10.3849 11.3907 10.4846 11.5083 10.5977 11.5083C10.6985 11.5083 10.8101 11.3567 10.8101 11.3567C10.8101 11.3567 10.9139 11.5083 11.0229 11.5083C11.1321 11.5083 11.2356 11.3907 11.2356 11.3907C11.2356 11.3907 11.3468 11.5474 11.4908 11.5474C11.6183 11.5474 11.6611 11.4298 11.6611 11.4298V11.7824H9.95947Z" fill="#FFF100" stroke="black" stroke-width="0.00307143"/>
<path fill-rule="evenodd" clip-rule="evenodd" d="M9.95947 11.7824V11.5083C9.95947 11.5083 10.2147 11.5863 10.2147 11.7824H9.95947Z" fill="#FFF100" stroke="black" stroke-width="0.00307143"/>
<path fill-rule="evenodd" clip-rule="evenodd" d="M11.6594 11.7824V11.5083C11.6594 11.5083 11.4042 11.5863 11.4042 11.7824H11.6594Z" fill="#FFF100" stroke="black" stroke-width="0.00307143"/>
<path fill-rule="evenodd" clip-rule="evenodd" d="M10.1296 11.7824C10.1296 11.5864 10.3849 11.4626 10.3849 11.4626C10.3849 11.4626 10.6401 11.5864 10.6401 11.7824H10.1296Z" fill="#FFF100" stroke="black" stroke-width="0.00307143"/>
<path fill-rule="evenodd" clip-rule="evenodd" d="M10.9805 11.7824C10.9805 11.5864 11.2357 11.4626 11.2357 11.4626C11.2357 11.4626 11.4909 11.5864 11.4909 11.7824H10.9805Z" fill="#FFF100" stroke="black" stroke-width="0.00307143"/>
<path fill-rule="evenodd" clip-rule="evenodd" d="M10.5125 11.7834C10.5125 11.5876 10.8104 11.4312 10.8104 11.4312C10.8104 11.4312 11.1081 11.5876 11.1081 11.7834H10.5127H10.5125Z" fill="#FFF100" stroke="black" stroke-width="0.00307143"/>
<path fill-rule="evenodd" clip-rule="evenodd" d="M11.7028 11.7828C11.6187 11.7437 11.3087 11.7046 10.8095 11.7046C10.3102 11.7046 9.9786 11.7437 9.89433 11.7828C9.81029 11.8219 9.81029 11.9004 9.89433 11.9395C9.97836 11.9786 10.3105 12.0178 10.8095 12.0178C11.3085 12.0178 11.6187 11.9786 11.7028 11.9395C11.7868 11.9004 11.7868 11.8219 11.7028 11.7828Z" fill="white" stroke="black" stroke-width="0.00305406"/>
<path fill-rule="evenodd" clip-rule="evenodd" d="M11.661 11.9389C11.661 12.018 10.9526 12.018 10.8103 12.018C10.6556 12.018 9.95947 12.0391 9.95947 11.9389C9.95947 11.8616 10.6608 11.8616 10.8103 11.8616C10.9579 11.8616 11.661 11.8774 11.661 11.9389Z" fill="#808080"/>
<path fill-rule="evenodd" clip-rule="evenodd" d="M10.0438 11.6578C10.0438 11.6841 10.0263 11.7052 10.0017 11.7052C9.97705 11.7052 9.95947 11.6841 9.95947 11.6578C9.95947 11.6314 9.97705 11.6121 10.0017 11.6121C10.0245 11.6121 10.0438 11.6332 10.0438 11.6578ZM11.661 11.6578C11.661 11.6841 11.6417 11.7052 11.6171 11.7052C11.5942 11.7052 11.5749 11.6841 11.5749 11.6578C11.5749 11.6314 11.5942 11.6121 11.6171 11.6121C11.6417 11.6121 11.6593 11.6332 11.6593 11.6578H11.661Z" fill="#CC0000"/>
<path fill-rule="evenodd" clip-rule="evenodd" d="M10.8946 11.6349C10.8946 11.6595 10.856 11.6806 10.8103 11.6806C10.7646 11.6806 10.7241 11.6595 10.7241 11.6331C10.7241 11.6067 10.7628 11.5874 10.8103 11.5874C10.8577 11.5874 10.8946 11.6085 10.8946 11.6331V11.6349Z" fill="black"/>
<path fill-rule="evenodd" clip-rule="evenodd" d="M11.3025 11.6349C11.3025 11.6595 11.2744 11.6806 11.2393 11.6806C11.2041 11.6806 11.176 11.6595 11.176 11.6331C11.176 11.6067 11.2041 11.5874 11.2393 11.5874C11.2744 11.5874 11.3025 11.6085 11.3025 11.6331V11.6349ZM10.4271 11.6349C10.4271 11.6595 10.399 11.6806 10.3639 11.6806C10.3287 11.6806 10.2988 11.6595 10.2988 11.6331C10.2988 11.6067 10.327 11.5874 10.3639 11.5874C10.399 11.5874 10.4271 11.6085 10.4271 11.6331V11.6349Z" fill="#006300"/>
<path fill-rule="evenodd" clip-rule="evenodd" d="M10.6393 11.3649C10.6393 11.3649 10.6879 11.298 10.7366 11.298H10.7851V11.3426C10.7851 11.4098 10.7123 11.4322 10.7123 11.4322H10.9067C10.9067 11.4322 10.8337 11.4098 10.8337 11.3426V11.298H10.8824C10.931 11.298 10.9795 11.3652 10.9795 11.3652V11.186C10.9795 11.186 10.931 11.2532 10.8824 11.2532H10.8337V11.2083C10.8337 11.1413 10.9067 11.1189 10.9067 11.1189H10.7121C10.7121 11.1189 10.785 11.1413 10.785 11.2083V11.2532H10.7364C10.6877 11.2532 10.6392 11.186 10.6392 11.186V11.3651L10.6393 11.3649Z" fill="#FFF100" stroke="black" stroke-width="0.00289598"/>
<path fill-rule="evenodd" clip-rule="evenodd" d="M9.95825 11.5089H10.0069C10.0069 11.5089 9.9704 11.4894 9.9704 11.4306V11.3916H9.99468C10.019 11.3916 10.0434 11.4504 10.0434 11.4504V11.2935C10.0434 11.2935 10.019 11.3523 9.99468 11.3523H9.9704V11.3131C9.9704 11.2544 10.0069 11.2349 10.0069 11.2349H9.95825V11.5089Z" fill="#FFF100" stroke="black" stroke-width="0.00287348"/>
<path fill-rule="evenodd" clip-rule="evenodd" d="M11.6604 11.5089H11.6118C11.6118 11.5089 11.6483 11.4894 11.6483 11.4306V11.3916H11.624C11.5996 11.3916 11.5753 11.4504 11.5753 11.4504V11.2935C11.5753 11.2935 11.5996 11.3523 11.624 11.3523H11.6483V11.3131C11.6483 11.2544 11.6118 11.2349 11.6118 11.2349H11.6604V11.5089Z" fill="#FFF100" stroke="black" stroke-width="0.00287348"/>
<path fill-rule="evenodd" clip-rule="evenodd" d="M10.8526 11.2735C10.8526 11.2839 10.8481 11.2938 10.8401 11.3012C10.8322 11.3085 10.8213 11.3126 10.8101 11.3126C10.7988 11.3126 10.788 11.3085 10.78 11.3012C10.7721 11.2938 10.7676 11.2839 10.7676 11.2735C10.7676 11.2631 10.7721 11.2532 10.78 11.2458C10.788 11.2385 10.7988 11.2344 10.8101 11.2344C10.8213 11.2344 10.8322 11.2385 10.8401 11.2458C10.8481 11.2532 10.8526 11.2631 10.8526 11.2735Z" fill="white" stroke="black" stroke-width="0.00307143"/>
<path fill-rule="evenodd" clip-rule="evenodd" d="M10.6393 10.5422C10.6393 10.5422 10.6879 10.4752 10.7366 10.4752H10.7851V10.5198C10.7851 10.587 10.7123 10.6095 10.7123 10.6095H10.9067C10.9067 10.6095 10.8337 10.587 10.8337 10.5198V10.4752H10.8824C10.931 10.4752 10.9795 10.5424 10.9795 10.5424V10.3632C10.9795 10.3632 10.931 10.4304 10.8824 10.4304H10.8337V10.3856C10.8337 10.3185 10.9067 10.2961 10.9067 10.2961H10.7121C10.7121 10.2961 10.785 10.3185 10.785 10.3856V10.4304H10.7364C10.6877 10.4304 10.6392 10.3632 10.6392 10.3632V10.5423L10.6393 10.5422Z" fill="#FFF100" stroke="black" stroke-width="0.00289598"/>
<path fill-rule="evenodd" clip-rule="evenodd" d="M10.856 10.4578C10.856 10.4682 10.8515 10.4781 10.8435 10.4855C10.8356 10.4928 10.8248 10.4969 10.8135 10.4969C10.8022 10.4969 10.7914 10.4928 10.7834 10.4855C10.7755 10.4781 10.771 10.4682 10.771 10.4578C10.771 10.4474 10.7755 10.4375 10.7834 10.4302C10.7914 10.4228 10.8022 10.4187 10.8135 10.4187C10.8248 10.4187 10.8356 10.4228 10.8435 10.4302C10.8515 10.4375 10.856 10.4474 10.856 10.4578Z" fill="white" stroke="black" stroke-width="0.00307143"/>
<path fill-rule="evenodd" clip-rule="evenodd" d="M10.7251 10.6086H10.8953V10.7262H10.7249L10.7251 10.6086Z" fill="#FFF100" stroke="black" stroke-width="0.00307143"/>
<path fill-rule="evenodd" clip-rule="evenodd" d="M10.7251 10.6702H10.8953V11.1177H10.7249L10.7251 10.6702Z" fill="#FFF100" stroke="black" stroke-width="0.00307143"/>
<path fill-rule="evenodd" clip-rule="evenodd" d="M10.8516 11.038C10.8516 11.0484 10.8471 11.0584 10.8391 11.0657C10.8311 11.0731 10.8203 11.0772 10.809 11.0772C10.7977 11.0772 10.7868 11.0731 10.7788 11.0657C10.7708 11.0584 10.7664 11.0484 10.7664 11.038C10.7664 11.0276 10.7708 11.0176 10.7788 11.0103C10.7868 11.0029 10.7977 10.9988 10.809 10.9988C10.8203 10.9988 10.8311 11.0029 10.8391 11.0103C10.8471 11.0176 10.8516 11.0276 10.8516 11.038Z" fill="white" stroke="black" stroke-width="0.00307143"/>
<path fill-rule="evenodd" clip-rule="evenodd" d="M10.8516 10.9379C10.8516 10.9483 10.8471 10.9583 10.8391 10.9657C10.8311 10.973 10.8203 10.9771 10.809 10.9771C10.7977 10.9771 10.7868 10.973 10.7788 10.9657C10.7708 10.9583 10.7664 10.9483 10.7664 10.9379C10.7664 10.9275 10.7708 10.9175 10.7788 10.9102C10.7868 10.9028 10.7977 10.8987 10.809 10.8987C10.8203 10.8987 10.8311 10.9028 10.8391 10.9102C10.8471 10.9175 10.8516 10.9275 10.8516 10.9379Z" fill="white" stroke="black" stroke-width="0.00307143"/>
<path fill-rule="evenodd" clip-rule="evenodd" d="M10.8516 10.8446C10.8516 10.8551 10.8471 10.865 10.8391 10.8724C10.8311 10.8797 10.8203 10.8839 10.809 10.8839C10.7977 10.8839 10.7868 10.8797 10.7788 10.8724C10.7708 10.865 10.7664 10.8551 10.7664 10.8446C10.7664 10.8342 10.7708 10.8243 10.7788 10.8169C10.7868 10.8096 10.7977 10.8054 10.809 10.8054C10.8203 10.8054 10.8311 10.8096 10.8391 10.8169C10.8471 10.8243 10.8516 10.8342 10.8516 10.8446Z" fill="white" stroke="black" stroke-width="0.00307143"/>
<path fill-rule="evenodd" clip-rule="evenodd" d="M10.8516 10.7463C10.8516 10.7567 10.8471 10.7666 10.8391 10.774C10.8311 10.7814 10.8203 10.7855 10.809 10.7855C10.7977 10.7855 10.7868 10.7814 10.7788 10.774C10.7708 10.7666 10.7664 10.7567 10.7664 10.7463C10.7664 10.7359 10.7708 10.7259 10.7788 10.7185C10.7868 10.7112 10.7977 10.707 10.809 10.707C10.8203 10.707 10.8311 10.7112 10.8391 10.7185C10.8471 10.7259 10.8516 10.7359 10.8516 10.7463Z" fill="white" stroke="black" stroke-width="0.00307143"/>
<path fill-rule="evenodd" clip-rule="evenodd" d="M10.8999 11.7843C10.8999 11.8019 10.8612 11.816 10.812 11.816C10.7628 11.816 10.7276 11.8019 10.7276 11.7843C10.7276 11.7667 10.7663 11.7527 10.8138 11.7527C10.8612 11.7527 10.8999 11.7667 10.8999 11.7843ZM11.6839 11.8617C11.6786 11.874 11.6364 11.8757 11.589 11.8634C11.5415 11.8529 11.5081 11.8353 11.5116 11.823C11.5169 11.8107 11.5591 11.8089 11.6065 11.8212C11.654 11.8318 11.6874 11.8494 11.6839 11.8617ZM11.3552 11.8089C11.3552 11.8248 11.313 11.8335 11.2638 11.8318C11.2163 11.8283 11.1776 11.8125 11.1794 11.7966C11.1811 11.7808 11.2233 11.772 11.2708 11.7755C11.32 11.7791 11.3587 11.7931 11.3552 11.8089ZM9.91727 11.8617C9.92079 11.874 9.96298 11.8757 10.0104 11.8634C10.0579 11.8529 10.0931 11.8353 10.0878 11.823C10.0825 11.8107 10.0403 11.8089 9.99286 11.8212C9.94716 11.8318 9.912 11.8494 9.91727 11.8617ZM10.26 11.8019C10.2618 11.8177 10.304 11.8265 10.3515 11.823C10.4007 11.8195 10.4393 11.8054 10.4358 11.7878C10.4358 11.7738 10.3936 11.7632 10.3444 11.7667C10.297 11.7703 10.2583 11.7843 10.26 11.8019Z" fill="black"/>
</g>
<defs>
<clipPath id="clip0_823_3042">
<rect x="4" y="5.5" width="12" height="9" rx="1" fill="white"/>
</clipPath>
</defs>
</svg>
