<svg width="20" height="20" viewBox="0 0 20 20" fill="none" xmlns="http://www.w3.org/2000/svg">
<path d="M15 1H5C2.79086 1 1 2.79086 1 5V15C1 17.2091 2.79086 19 5 19H15C17.2091 19 19 17.2091 19 15V5C19 2.79086 17.2091 1 15 1Z" fill="#F7DF1E"/>
<path d="M11.9372 13.9485C12.3039 14.5459 12.7811 14.9851 13.6251 14.9851C14.3341 14.9851 14.787 14.6316 14.787 14.1431C14.787 13.5578 14.3216 13.3505 13.5413 13.0099L13.1135 12.8268C11.8788 12.302 11.0585 11.6446 11.0585 10.2548C11.0585 8.97459 12.0363 8 13.5644 8C14.6523 8 15.4344 8.37773 15.998 9.36674L14.6656 10.2202C14.3722 9.69544 14.0557 9.4887 13.5644 9.4887C13.0632 9.4887 12.7456 9.80588 12.7456 10.2202C12.7456 10.7323 13.0635 10.9396 13.7976 11.2568L14.2254 11.4396C15.6792 12.0616 16.5 12.6956 16.5 14.1212C16.5 15.658 15.2899 16.5 13.6647 16.5C12.0756 16.5 11.049 15.7445 10.5467 14.7544L11.9372 13.9485ZM5.89281 14.0964C6.1616 14.5722 6.40611 14.9744 6.99399 14.9744C7.55614 14.9744 7.91078 14.755 7.91078 13.9018V8.09746H9.6218V13.9248C9.6218 15.6924 8.58305 16.4968 7.06682 16.4968C5.69685 16.4968 4.90348 15.7895 4.5 14.9376L5.89281 14.0964Z" fill="black"/>
</svg>
