<svg width="800" height="227" viewBox="0 0 800 227" fill="none" xmlns="http://www.w3.org/2000/svg">
<path d="M54.7612 0.00061188V194.042C54.7612 197.332 52.0393 199.981 48.6588 199.981H35.0263C31.6457 199.981 28.9239 197.332 28.9239 194.042V134.003H0V209.702C0 218.759 7.30904 226.052 16.388 226.052H68.402C77.481 226.052 84.79 218.759 84.79 209.702V0.00061188H54.7612ZM128.18 0.00061188C111.642 0.00061188 98.3279 7.74117 98.3279 17.3558V207.186C98.3279 216.8 105.849 226.052 122.387 226.052H178.613V199.981H136.003C131.722 199.981 128.276 196.521 128.276 192.224V168.078C128.276 163.78 131.722 160.321 136.003 160.321H178.613V134.542H136.501C131.944 134.542 128.276 130.86 128.276 126.285V100.58C128.276 96.0058 131.944 92.3236 136.501 92.3236H178.613V0.00061188H128.18ZM209.68 0.00061188C200.979 0.00061188 193.974 7.29334 193.974 16.351V209.702C193.974 218.759 200.979 226.052 209.68 226.052H259.53C268.232 226.052 275.238 218.759 275.238 209.702V16.351C275.238 7.29334 268.232 0.00061188 259.53 0.00061188H209.68ZM290.244 0.00061188V226.052H319.31V160.914H351.37C362.526 160.914 371.508 153.959 371.508 145.319V107.938V106.694V20.3715C371.508 9.08607 359.784 0.00061188 345.221 0.00061188H290.244ZM412.796 0.00061188C403.181 0.00061188 394.859 6.58239 394.137 14.759L375.479 226.052H404.533L410.62 160.156H436.759L442.846 226.052H474.802L452.955 14.759C452.109 6.58239 443.689 0.00061188 434.074 0.00061188H433.426H413.443H412.796ZM484.161 0.00061188V226.052L511.771 226.05V159.844H527.629C534.552 160.373 540.398 165.798 540.905 172.473L544.976 226.052H575.561L569.181 170.117C567.84 158.364 563.969 153.307 558.344 147.683C563.658 142.368 566.852 140.435 566.852 134.239V130.183V20.3709C566.852 9.08544 555.893 0 542.28 0L484.161 0.00061188ZM586.138 0.00061188V226.052H642.484C655.683 226.052 666.308 216.967 666.308 205.681V20.3715C666.308 9.08606 655.683 0.00061188 642.484 0.00061188H586.138ZM676.78 0.00061188V134.216C676.78 147.584 687.316 158.345 700.404 158.345H731.528V194.904C731.528 197.125 729.207 198.912 726.325 198.912C724.446 198.912 722.537 198.912 720.623 198.912C713.925 198.913 707.169 198.912 701.437 198.912V226.052H731.526H735.623C748.536 226.052 758.933 218.539 758.933 209.208V0.00061188H731.528V95.221C731.529 95.2355 731.528 95.2496 731.528 95.2642V132.935H710.75C707.797 132.935 705.421 130.118 705.421 126.619V0.00061156L676.78 0.00061188ZM773.236 0.00061188V158.333H800V0.00061188H773.236ZM511.771 91.2562H529.838C534.07 91.2562 537.478 95.3313 537.478 100.394V124.336C537.478 129.398 534.07 133.473 529.838 133.473H511.771V91.2562ZM612.237 91.2562H631.896C636.502 91.2562 640.21 95.5827 640.21 100.957V189.211C640.21 194.586 636.502 198.912 631.896 198.912H612.237V91.2562ZM422.493 91.966H424.885C427.973 91.966 430.616 93.6551 430.81 95.754L434.335 133.909H413.044L416.569 95.754C416.763 93.6551 419.406 91.966 422.493 91.966ZM232.733 92.325H236.478C241.314 92.3253 245.208 95.7975 245.208 100.111V192.195C245.208 196.509 241.314 199.981 236.478 199.981H232.733C227.897 199.981 224.003 196.509 224.003 192.195V100.111C224.003 95.7975 227.897 92.3248 232.733 92.325ZM319.31 92.787H336.481C339.868 92.787 342.595 96.2715 342.595 100.598V126.732C342.595 131.059 339.868 134.542 336.481 134.542H319.31V92.787ZM773.236 167.766V193.166H800V167.766H773.236Z" fill="currentColor"/>
</svg>
