<svg width="21" height="21" viewBox="0 0 21 21" fill="none" xmlns="http://www.w3.org/2000/svg">
<path fill-rule="evenodd" clip-rule="evenodd" d="M13.625 1.75C12.8047 1.74991 11.9943 1.92923 11.2507 2.27539C10.507 2.62154 9.84804 3.12616 9.31998 3.75387C8.79191 4.38157 8.40753 5.11718 8.19376 5.90912C7.97999 6.70106 7.94202 7.53017 8.0825 8.33833C8.13833 8.66333 8.05583 8.93583 7.89833 9.09333L2.48167 14.5092C2.0131 14.978 1.74992 15.6138 1.75 16.2767V18.625C1.75 18.97 2.03 19.25 2.375 19.25H5.5C5.66576 19.25 5.82473 19.1842 5.94194 19.0669C6.05915 18.9497 6.125 18.7908 6.125 18.625V17.375H7.375C7.54076 17.375 7.69973 17.3092 7.81694 17.1919C7.93415 17.0747 8 16.9158 8 16.75V15.5H9.25C9.4157 15.4999 9.57457 15.4339 9.69167 15.3167L11.9067 13.1017C12.065 12.9442 12.3375 12.8617 12.6617 12.9183C13.4291 13.0505 14.2156 13.022 14.9714 12.8344C15.7272 12.6469 16.4358 12.3044 17.0524 11.8288C17.669 11.3531 18.1801 10.7546 18.5534 10.0712C18.9266 9.38774 19.1539 8.63424 19.2209 7.85839C19.2878 7.08254 19.1929 6.30125 18.9422 5.56398C18.6914 4.82672 18.2904 4.14954 17.7643 3.57534C17.2383 3.00113 16.5988 2.5424 15.8863 2.22819C15.1737 1.91399 14.4037 1.75115 13.625 1.75ZM13.625 4.25C13.4592 4.25 13.3003 4.31585 13.1831 4.43306C13.0658 4.55027 13 4.70924 13 4.875C13 5.04076 13.0658 5.19973 13.1831 5.31694C13.3003 5.43415 13.4592 5.5 13.625 5.5C14.1223 5.5 14.5992 5.69754 14.9508 6.04917C15.3025 6.40081 15.5 6.87772 15.5 7.375C15.5 7.54076 15.5658 7.69973 15.6831 7.81694C15.8003 7.93415 15.9592 8 16.125 8C16.2908 8 16.4497 7.93415 16.5669 7.81694C16.6842 7.69973 16.75 7.54076 16.75 7.375C16.75 6.5462 16.4208 5.75134 15.8347 5.16529C15.2487 4.57924 14.4538 4.25 13.625 4.25Z" fill="black"/>
</svg>
