<svg width="21" height="21" viewBox="0 0 21 21" fill="none" xmlns="http://www.w3.org/2000/svg">
<path d="M13.4095 5.26103C14.0268 5.26103 14.6188 5.50625 15.0553 5.94275C15.4918 6.37925 15.737 6.97127 15.737 7.58857M18.0646 7.58857C18.0647 8.26752 17.9162 8.93828 17.6297 9.55381C17.3432 10.1693 16.9255 10.7147 16.4059 11.1518C15.8863 11.5888 15.2773 11.9069 14.6218 12.0837C13.9663 12.2605 13.28 12.2918 12.6111 12.1754C12.1743 12.1001 11.7119 12.1955 11.3985 12.509L9.33628 14.5712H7.59063V16.3168H5.84497V18.0625H2.93555V15.8762C2.93555 15.413 3.11942 14.9684 3.44683 14.6418L8.48906 9.59956C8.8025 9.28612 8.89793 8.82372 8.82267 8.38692C8.71265 7.75163 8.7358 7.10041 8.89066 6.47454C9.04551 5.84866 9.32869 5.26178 9.72224 4.75109C10.1158 4.24039 10.6112 3.81702 11.1769 3.5078C11.7427 3.19858 12.3665 3.01026 13.0088 2.95477C13.6512 2.89928 14.2981 2.97784 14.9085 3.18545C15.5189 3.39307 16.0795 3.72523 16.5548 4.16087C17.0301 4.5965 17.4097 5.12613 17.6696 5.71618C17.9295 6.30622 18.064 6.94382 18.0646 7.58857Z" stroke="black" stroke-width="1.5" stroke-linecap="round" stroke-linejoin="round"/>
</svg>
