<svg width="20" height="20" viewBox="0 0 20 20" fill="none" xmlns="http://www.w3.org/2000/svg">
<path fill-rule="evenodd" clip-rule="evenodd" d="M19 10C19 14.9706 14.9706 19 10 19C5.02944 19 1 14.9706 1 10C1 5.02944 5.02944 1 10 1C14.9706 1 19 5.02944 19 10ZM7.87414 6.13672H6.21094V13.3709H7.87414V6.13672ZM12.0411 6.13672H10.4013C10.4037 6.78807 10.253 7.43087 9.96149 8.01334C9.66995 8.5958 9.24567 9.10165 8.72283 9.49012L8.08203 9.96622L10.5741 13.3628H12.6189L10.3257 10.2551C10.8723 9.71807 11.3057 9.07693 11.6003 8.36957C11.895 7.66221 12.0448 6.90298 12.0411 6.13672ZM13.1046 11.4771C13.2849 11.3569 13.4967 11.2928 13.7134 11.293C14.0035 11.2939 14.2815 11.4097 14.4865 11.6149C14.6916 11.8201 14.8071 12.0982 14.8078 12.3883C14.8078 12.6049 14.7435 12.8167 14.6231 12.9969C14.5027 13.177 14.3316 13.3174 14.1314 13.4003C13.9312 13.4832 13.711 13.5048 13.4985 13.4625C13.286 13.4201 13.0908 13.3157 12.9377 13.1624C12.7845 13.0092 12.6803 12.8139 12.6381 12.6014C12.596 12.3889 12.6178 12.1686 12.7008 11.9685C12.7839 11.7684 12.9244 11.5974 13.1046 11.4771Z" fill="#030712"/>
</svg>
