<svg width="200" height="200" viewBox="0 0 200 200" fill="none" xmlns="http://www.w3.org/2000/svg">
<path d="M177.5 94.6875C180.625 97.5 180.625 102.812 177.188 105.625L142.188 138.125C140.625 139.375 139.062 140 137.188 140C136.25 140 135.312 140 134.375 139.375C131.562 138.438 129.688 135.625 129.688 132.5L130 107.5H70L69.6875 132.5C69.6875 135.625 68.125 138.438 65.3125 139.375C64.375 140 63.4375 140 62.5 140C60.625 140 58.75 139.375 57.1875 138.125L22.1875 105.625C19.0625 102.812 19.0625 97.5 22.1875 94.6875L57.1875 62.1875C58.75 60.9375 60.625 60 62.5 60C63.4375 60 64.375 60.3125 65 60.625C67.8125 61.875 69.6875 64.6875 69.6875 67.5V92.5H129.688V67.5C129.688 64.6875 131.25 61.875 134.062 60.625C135 60.3125 135.938 60 137.188 60C139.062 60 140.938 60.9375 142.5 62.1875L177.5 94.6875Z" fill="black"/>
</svg>
