<svg width="21" height="21" viewBox="0 0 21 21" fill="none" xmlns="http://www.w3.org/2000/svg">
<path d="M10.5002 2.31238C9.1789 2.31208 7.89444 2.74761 6.84586 3.55146C5.79727 4.35532 5.04312 5.4826 4.70028 6.7586C4.35744 8.0346 4.44507 9.38806 4.94958 10.6092C5.45409 11.8303 6.34731 12.851 7.49079 13.5129C7.99005 13.8026 8.30226 14.2465 8.31609 14.6941C8.31991 14.814 8.36311 14.9293 8.43901 15.0221C8.51492 15.115 8.6193 15.1803 8.73602 15.2079C8.9922 15.2683 9.25274 15.3156 9.51766 15.3498C9.75273 15.3797 9.95432 15.1912 9.95432 14.9539V11.5617C9.72435 11.5364 9.49647 11.4948 9.27239 11.4373C9.20296 11.4194 9.13773 11.388 9.08042 11.3449C9.02311 11.3019 8.97485 11.2479 8.93839 11.1862C8.90193 11.1244 8.87798 11.0561 8.86792 10.9851C8.85786 10.9142 8.86189 10.8419 8.87976 10.7724C8.89763 10.703 8.929 10.6378 8.97209 10.5805C9.01517 10.5232 9.06912 10.4749 9.13085 10.4384C9.19259 10.402 9.2609 10.378 9.33189 10.368C9.40288 10.3579 9.47515 10.3619 9.54458 10.3798C10.1714 10.5414 10.8289 10.5414 11.4557 10.3798C11.5259 10.3596 11.5993 10.3537 11.6718 10.3623C11.7443 10.371 11.8143 10.3942 11.8776 10.4304C11.941 10.4666 11.9965 10.5151 12.0408 10.5731C12.085 10.6312 12.1172 10.6975 12.1354 10.7682C12.1536 10.8388 12.1575 10.9124 12.1468 10.9846C12.136 11.0568 12.1109 11.1261 12.0729 11.1885C12.0349 11.2508 11.9848 11.3048 11.9255 11.3474C11.8663 11.3901 11.7991 11.4204 11.7279 11.4365C11.5039 11.4944 11.276 11.5362 11.046 11.5617V14.9532C11.046 15.1912 11.2476 15.3797 11.4827 15.3498C11.7476 15.3156 12.0081 15.2683 12.2643 15.2079C12.381 15.1803 12.4854 15.115 12.5613 15.0221C12.6372 14.9293 12.6804 14.814 12.6842 14.6941C12.6988 14.2465 13.0103 13.8026 13.5095 13.5129C14.653 12.851 15.5462 11.8303 16.0507 10.6092C16.5552 9.38806 16.6429 8.0346 16.3 6.7586C15.9572 5.4826 15.203 4.35532 14.1545 3.55146C13.1059 2.74761 11.8214 2.31208 10.5002 2.31238Z" fill="black"/>
<path fill-rule="evenodd" clip-rule="evenodd" d="M8.32589 16.2493C8.33925 16.1788 8.36637 16.1117 8.40568 16.0517C8.44499 15.9918 8.49573 15.9401 8.55501 15.8998C8.61428 15.8594 8.68092 15.8312 8.75112 15.8166C8.82132 15.802 8.89371 15.8014 8.96415 15.8148C9.97884 16.0073 11.0207 16.0073 12.0354 15.8148C12.1067 15.7991 12.1804 15.7978 12.2522 15.8111C12.324 15.8244 12.3923 15.852 12.4533 15.8922C12.5142 15.9324 12.5665 15.9844 12.607 16.0452C12.6474 16.1059 12.6753 16.1742 12.689 16.2459C12.7026 16.3176 12.7017 16.3914 12.6863 16.4627C12.671 16.5341 12.6414 16.6017 12.5995 16.6614C12.5576 16.7212 12.5041 16.7719 12.4422 16.8106C12.3803 16.8493 12.3112 16.8752 12.2392 16.8868C11.0898 17.1049 9.90971 17.1049 8.76037 16.8868C8.61825 16.8598 8.49266 16.7775 8.41119 16.6579C8.32973 16.5384 8.29904 16.3914 8.32589 16.2493ZM8.86517 18.0279C8.87262 17.9566 8.89404 17.8875 8.92821 17.8245C8.96238 17.7615 9.00863 17.7058 9.06432 17.6606C9.12001 17.6155 9.18404 17.5818 9.25277 17.5614C9.32149 17.541 9.39357 17.5343 9.46486 17.5418C10.1529 17.6137 10.8466 17.6137 11.5347 17.5418C11.6787 17.5267 11.8227 17.5695 11.9352 17.6607C12.0477 17.7518 12.1193 17.884 12.1344 18.0279C12.1494 18.1719 12.1067 18.316 12.0155 18.4285C11.9243 18.5409 11.7922 18.6126 11.6482 18.6276C10.8847 18.7076 10.1149 18.7076 9.35133 18.6276C9.28003 18.6202 9.2109 18.5988 9.14787 18.5646C9.08485 18.5304 9.02918 18.4842 8.98404 18.4285C8.93889 18.3728 8.90516 18.3088 8.88476 18.24C8.86437 18.1713 8.85771 18.0992 8.86517 18.0279Z" fill="black"/>
</svg>
