<svg width="21" height="21" viewBox="0 0 21 21" fill="none" xmlns="http://www.w3.org/2000/svg">
<path d="M10.5005 15.0884V11.0729M10.5005 11.0729C10.8874 11.0732 11.2729 11.0246 11.6477 10.9283M10.5005 11.0729C10.1135 11.0732 9.728 11.0246 9.35318 10.9283M12.2214 16.6479C11.0843 16.8638 9.91666 16.8638 8.77954 16.6479M11.6477 18.4706C10.885 18.5504 10.1159 18.5504 9.35318 18.4706M12.2214 15.0884V14.9415C12.2214 14.1897 12.7247 13.5472 13.3748 13.1701C14.467 12.5376 15.3201 11.5626 15.802 10.396C16.2838 9.2295 16.3675 7.93661 16.04 6.71769C15.7126 5.49877 14.9923 4.42188 13.9907 3.65387C12.9891 2.88586 11.7622 2.4696 10.5001 2.4696C9.23794 2.4696 8.01104 2.88586 7.00947 3.65387C6.00789 4.42188 5.28757 5.49877 4.96011 6.71769C4.63265 7.93661 4.71633 9.2295 5.19818 10.396C5.68003 11.5626 6.53316 12.5376 7.62537 13.1701C8.2755 13.5472 8.77954 14.1897 8.77954 14.9415V15.0884" stroke="black" stroke-width="1.5" stroke-linecap="round" stroke-linejoin="round"/>
</svg>
