<svg width="21" height="21" viewBox="0 0 21 21" fill="none" xmlns="http://www.w3.org/2000/svg">
<path d="M11.4917 7.74002C12.0332 7.99857 12.5048 8.3833 12.8668 8.86189C13.2288 9.34048 13.4706 9.89895 13.572 10.4904C13.6735 11.0818 13.6314 11.689 13.4495 12.2608C13.2676 12.8327 12.9512 13.3525 12.5267 13.7767L8.77669 17.5267C8.07342 18.23 7.11959 18.625 6.12502 18.625C5.13046 18.625 4.17662 18.23 3.47336 17.5267C2.77009 16.8234 2.375 15.8696 2.375 14.875C2.375 13.8805 2.77009 12.9266 3.47336 12.2234L4.93752 10.7592M16.0625 10.2409L17.5267 8.77669C18.23 8.07342 18.625 7.11959 18.625 6.12502C18.625 5.13046 18.23 4.17662 17.5267 3.47336C16.8234 2.77009 15.8696 2.375 14.875 2.375C13.8805 2.375 12.9266 2.77009 12.2234 3.47336L8.47336 7.22336C8.04889 7.64752 7.73241 8.16736 7.55051 8.73921C7.36861 9.31105 7.32659 9.9182 7.428 10.5096C7.5294 11.1011 7.77126 11.6596 8.13327 12.1382C8.49527 12.6167 8.96683 13.0015 9.50836 13.26" stroke="black" stroke-width="1.5" stroke-linecap="round" stroke-linejoin="round"/>
</svg>
