<svg width="21" height="21" viewBox="0 0 21 21" fill="none" xmlns="http://www.w3.org/2000/svg">
<path d="M7.375 6.125H17.375M7.375 10.5H17.375M7.375 14.875H17.375M3.625 6.125H3.63083V6.13167H3.625V6.125ZM3.9375 6.125C3.9375 6.20788 3.90458 6.28737 3.84597 6.34597C3.78737 6.40458 3.70788 6.4375 3.625 6.4375C3.54212 6.4375 3.46263 6.40458 3.40403 6.34597C3.34542 6.28737 3.3125 6.20788 3.3125 6.125C3.3125 6.04212 3.34542 5.96263 3.40403 5.90403C3.46263 5.84542 3.54212 5.8125 3.625 5.8125C3.70788 5.8125 3.78737 5.84542 3.84597 5.90403C3.90458 5.96263 3.9375 6.04212 3.9375 6.125ZM3.625 10.5H3.63083V10.5067H3.625V10.5ZM3.9375 10.5C3.9375 10.5829 3.90458 10.6624 3.84597 10.721C3.78737 10.7796 3.70788 10.8125 3.625 10.8125C3.54212 10.8125 3.46263 10.7796 3.40403 10.721C3.34542 10.6624 3.3125 10.5829 3.3125 10.5C3.3125 10.4171 3.34542 10.3376 3.40403 10.279C3.46263 10.2204 3.54212 10.1875 3.625 10.1875C3.70788 10.1875 3.78737 10.2204 3.84597 10.279C3.90458 10.3376 3.9375 10.4171 3.9375 10.5ZM3.625 14.875H3.63083V14.8817H3.625V14.875ZM3.9375 14.875C3.9375 14.9579 3.90458 15.0374 3.84597 15.096C3.78737 15.1546 3.70788 15.1875 3.625 15.1875C3.54212 15.1875 3.46263 15.1546 3.40403 15.096C3.34542 15.0374 3.3125 14.9579 3.3125 14.875C3.3125 14.7921 3.34542 14.7126 3.40403 14.654C3.46263 14.5954 3.54212 14.5625 3.625 14.5625C3.70788 14.5625 3.78737 14.5954 3.84597 14.654C3.90458 14.7126 3.9375 14.7921 3.9375 14.875Z" stroke="black" stroke-width="1.5" stroke-linecap="round" stroke-linejoin="round"/>
</svg>
