<svg width="21" height="21" viewBox="0 0 21 21" fill="none" xmlns="http://www.w3.org/2000/svg">
<path fill-rule="evenodd" clip-rule="evenodd" d="M10.5 1.5C9.30653 1.5 8.16193 1.97411 7.31802 2.81802C6.47411 3.66193 6 4.80653 6 6V9.5H5.5C4.96957 9.5 4.46086 9.71071 4.08579 10.0858C3.71071 10.4609 3.5 10.9696 3.5 11.5V17.5C3.5 18.0304 3.71071 18.5391 4.08579 18.9142C4.46086 19.2893 4.96957 19.5 5.5 19.5H15.5C16.0304 19.5 16.5391 19.2893 16.9142 18.9142C17.2893 18.5391 17.5 18.0304 17.5 17.5V11.5C17.5 10.9696 17.2893 10.4609 16.9142 10.0858C16.5391 9.71071 16.0304 9.5 15.5 9.5H15V6C15 4.80653 14.5259 3.66193 13.682 2.81802C12.8381 1.97411 11.6935 1.5 10.5 1.5ZM13.5 9.5V6C13.5 5.20435 13.1839 4.44129 12.6213 3.87868C12.0587 3.31607 11.2956 3 10.5 3C9.70435 3 8.94129 3.31607 8.37868 3.87868C7.81607 4.44129 7.5 5.20435 7.5 6V9.5H13.5Z" fill="black"/>
</svg>
