<svg width="21" height="21" viewBox="0 0 21 21" fill="none" xmlns="http://www.w3.org/2000/svg">
<path fill-rule="evenodd" clip-rule="evenodd" d="M15 1.5C13.8065 1.5 12.6619 1.97411 11.818 2.81802C10.9741 3.66193 10.5 4.80653 10.5 6V9.5H3.5C2.96957 9.5 2.46086 9.71071 2.08579 10.0858C1.71071 10.4609 1.5 10.9696 1.5 11.5V17.5C1.5 18.0304 1.71071 18.5391 2.08579 18.9142C2.46086 19.2893 2.96957 19.5 3.5 19.5H13.5C14.0304 19.5 14.5391 19.2893 14.9142 18.9142C15.2893 18.5391 15.5 18.0304 15.5 17.5V11.5C15.5 10.9696 15.2893 10.4609 14.9142 10.0858C14.5391 9.71071 14.0304 9.5 13.5 9.5H12V6C12 5.20435 12.3161 4.44129 12.8787 3.87868C13.4413 3.31607 14.2044 3 15 3C15.7956 3 16.5587 3.31607 17.1213 3.87868C17.6839 4.44129 18 5.20435 18 6V8.75C18 8.94891 18.079 9.13968 18.2197 9.28033C18.3603 9.42098 18.5511 9.5 18.75 9.5C18.9489 9.5 19.1397 9.42098 19.2803 9.28033C19.421 9.13968 19.5 8.94891 19.5 8.75V6C19.5 5.40905 19.3836 4.82389 19.1575 4.27792C18.9313 3.73196 18.5998 3.23588 18.182 2.81802C17.7641 2.40016 17.268 2.06869 16.7221 1.84254C16.1761 1.6164 15.5909 1.5 15 1.5Z" fill="black"/>
</svg>
