<svg width="21" height="21" viewBox="0 0 21 21" fill="none" xmlns="http://www.w3.org/2000/svg">
<path d="M13 8.9375C13 9.60054 12.7366 10.2364 12.2678 10.7053C11.7989 11.1741 11.163 11.4375 10.5 11.4375C9.83696 11.4375 9.20107 11.1741 8.73223 10.7053C8.26339 10.2364 8 9.60054 8 8.9375C8 8.27446 8.26339 7.63857 8.73223 7.16973C9.20107 6.70089 9.83696 6.4375 10.5 6.4375C11.163 6.4375 11.7989 6.70089 12.2678 7.16973C12.7366 7.63857 13 8.27446 13 8.9375Z" stroke="black" stroke-width="1.5" stroke-linecap="round" stroke-linejoin="round"/>
<path d="M16.75 8.9375C16.75 14.8892 10.5 18.3125 10.5 18.3125C10.5 18.3125 4.25 14.8892 4.25 8.9375C4.25 7.2799 4.90848 5.69018 6.08058 4.51808C7.25268 3.34598 8.8424 2.6875 10.5 2.6875C12.1576 2.6875 13.7473 3.34598 14.9194 4.51808C16.0915 5.69018 16.75 7.2799 16.75 8.9375Z" stroke="black" stroke-width="1.5" stroke-linecap="round" stroke-linejoin="round"/>
</svg>
