<svg width="21" height="21" viewBox="0 0 21 21" fill="none" xmlns="http://www.w3.org/2000/svg">
<path d="M8 6.12501V13M13 8.00001V14.875M13.4192 17.79L17.4817 15.7592C17.7992 15.6008 18 15.2758 18 14.9208V4.51668C18 3.82001 17.2667 3.36668 16.6433 3.67834L13.4192 5.29001C13.155 5.42251 12.8442 5.42251 12.5808 5.29001L8.41917 3.21001C8.28901 3.14495 8.14551 3.11108 8 3.11108C7.85449 3.11108 7.71098 3.14495 7.58083 3.21001L3.51833 5.24084C3.2 5.40001 3 5.72501 3 6.07918V16.4833C3 17.18 3.73333 17.6333 4.35667 17.3217L7.58083 15.71C7.845 15.5775 8.15583 15.5775 8.41917 15.71L12.5808 17.7908C12.845 17.9225 13.1558 17.9217 13.4192 17.79Z" stroke="black" stroke-width="1.5" stroke-linecap="round" stroke-linejoin="round"/>
</svg>
