<svg width="21" height="21" viewBox="0 0 21 21" fill="none" xmlns="http://www.w3.org/2000/svg">
<path fill-rule="evenodd" clip-rule="evenodd" d="M8.25011 2.67338C8.33316 2.75641 8.38967 2.86225 8.41246 2.97746C8.43525 3.09267 8.42329 3.21205 8.3781 3.32045C8.0169 4.18732 7.83159 5.11734 7.83295 6.05645C7.83295 7.9423 8.5821 9.75091 9.9156 11.0844C11.2491 12.4179 13.0577 13.167 14.9436 13.167C15.8827 13.1684 16.8127 12.9831 17.6796 12.6219C17.7879 12.5768 17.9071 12.5649 18.0223 12.5876C18.1374 12.6104 18.2431 12.6668 18.3262 12.7497C18.4092 12.8326 18.4657 12.9383 18.4886 13.0534C18.5114 13.1685 18.4996 13.2878 18.4546 13.3962C17.8242 14.9078 16.7605 16.199 15.3976 17.1072C14.0347 18.0154 12.4335 18.5001 10.7957 18.5C6.2141 18.5 2.5 14.7859 2.5 10.2043C2.5 6.75329 4.60711 3.79528 7.60383 2.54539C7.71213 2.50037 7.83135 2.48851 7.9464 2.51129C8.06144 2.53407 8.16714 2.59049 8.25011 2.67338Z" fill="black"/>
</svg>
