<svg width="200" height="200" viewBox="0 0 200 200" fill="none" xmlns="http://www.w3.org/2000/svg">
<path d="M175.938 22.1875C178.438 24.0625 180 26.875 180 30V52.5V135C180 149.062 166.562 160 150 160C133.438 160 120 149.062 120 135C120 121.25 133.438 110 150 110C153.438 110 156.875 110.625 160 111.562V65.9375L80 90V155C80 169.062 66.5625 180 50 180C33.4375 180 20 169.062 20 155C20 141.25 33.4375 130 50 130C53.4375 130 56.875 130.625 60 131.562V82.5V60C60 55.625 62.8125 51.875 66.875 50.625L166.875 20.625C170 19.6875 173.438 20.3125 175.938 22.1875Z" fill="black"/>
</svg>
