<svg width="21" height="21" viewBox="0 0 21 21" fill="none" xmlns="http://www.w3.org/2000/svg">
<path d="M10.5 6.75H11.75M10.5 9.25H11.75M5.5 11.75H11.75M5.5 14.25H11.75M14.25 6.75H17.0625C17.58 6.75 18 7.17 18 7.6875V15.5C18 15.9973 17.8025 16.4742 17.4508 16.8258C17.0992 17.1775 16.6223 17.375 16.125 17.375M14.25 6.75V15.5C14.25 15.9973 14.4475 16.4742 14.7992 16.8258C15.1508 17.1775 15.6277 17.375 16.125 17.375M14.25 6.75V4.5625C14.25 4.045 13.83 3.625 13.3125 3.625H3.9375C3.42 3.625 3 4.045 3 4.5625V15.5C3 15.9973 3.19754 16.4742 3.54917 16.8258C3.90081 17.1775 4.37772 17.375 4.875 17.375H16.125M5.5 6.75H8V9.25H5.5V6.75Z" stroke="black" stroke-width="1.5" stroke-linecap="round" stroke-linejoin="round"/>
</svg>
