<svg width="20" height="20" viewBox="0 0 20 20" fill="none" xmlns="http://www.w3.org/2000/svg">
<path d="M9.41117 1.01314C9.3725 1.01666 9.24946 1.02896 9.13873 1.03775C6.58488 1.268 4.19273 2.64599 2.67764 4.76395C1.83398 5.94157 1.29438 7.27737 1.0905 8.69227C1.01843 9.18617 1.00964 9.33206 1.00964 10.0017C1.00964 10.6714 1.01843 10.8173 1.0905 11.3112C1.57912 14.6876 3.98181 17.5244 7.24048 18.5755C7.82402 18.7636 8.43919 18.8919 9.13873 18.9692C9.41117 18.9991 10.5888 18.9991 10.8612 18.9692C12.0687 18.8356 13.0917 18.5368 14.1006 18.0218C14.2552 17.9427 14.2851 17.9216 14.264 17.9041C14.25 17.8935 13.5908 17.0094 12.7999 15.9408L11.3621 13.9986L9.56057 11.3323C8.56926 9.86638 7.75371 8.66767 7.74668 8.66767C7.73965 8.66591 7.73262 9.85056 7.7291 11.2971C7.72383 13.8299 7.72207 13.9318 7.69044 13.9916C7.64474 14.0777 7.60958 14.1128 7.53576 14.1515C7.47952 14.1796 7.43031 14.1849 7.1649 14.1849H6.86083L6.77998 14.1339C6.72725 14.1005 6.68858 14.0566 6.66222 14.0056L6.62531 13.9265L6.62882 10.4025L6.63409 6.87663L6.68858 6.80808C6.7167 6.77117 6.77646 6.72372 6.81865 6.70087C6.89071 6.66571 6.91883 6.6622 7.2229 6.6622C7.58146 6.6622 7.64122 6.67626 7.73438 6.7782C7.76074 6.80632 8.73623 8.27571 9.90331 10.0457C11.0704 11.8156 12.6663 14.2324 13.4502 15.4188L14.8739 17.5754L14.946 17.5279C15.584 17.1131 16.2589 16.5226 16.7933 15.9074C17.9305 14.6015 18.6634 13.009 18.9095 11.3112C18.9815 10.8173 18.9903 10.6714 18.9903 10.0017C18.9903 9.33206 18.9815 9.18617 18.9095 8.69227C18.4208 5.31585 16.0181 2.47901 12.7595 1.42794C12.1847 1.24163 11.5731 1.11333 10.8876 1.03599C10.7189 1.01841 9.55705 0.999079 9.41117 1.01314ZM13.0917 6.45128C13.176 6.49346 13.2446 6.57432 13.2692 6.65868C13.2832 6.70438 13.2868 7.68163 13.2832 9.88395L13.278 13.0442L12.7208 12.19L12.1619 11.3358V9.03853C12.1619 7.55332 12.1689 6.71844 12.1795 6.67802C12.2076 6.57959 12.2691 6.50225 12.3535 6.45655C12.4255 6.41964 12.4519 6.41613 12.7278 6.41613C12.988 6.41613 13.0337 6.41964 13.0917 6.45128Z" fill="black"/>
<path d="M14.786 17.6141C14.7245 17.6527 14.7051 17.6791 14.7596 17.6492C14.7983 17.6264 14.8616 17.5789 14.851 17.5771C14.8458 17.5771 14.8159 17.5947 14.786 17.6141ZM14.6647 17.6932C14.6331 17.7178 14.6331 17.7195 14.6718 17.7002C14.6928 17.6896 14.7104 17.6773 14.7104 17.6738C14.7104 17.6598 14.7016 17.6633 14.6647 17.6932ZM14.5768 17.7459C14.5452 17.7705 14.5452 17.7722 14.5839 17.7529C14.605 17.7424 14.6225 17.7301 14.6225 17.7265C14.6225 17.7125 14.6138 17.716 14.5768 17.7459ZM14.489 17.7986C14.4573 17.8232 14.4573 17.825 14.496 17.8056C14.5171 17.7951 14.5347 17.7828 14.5347 17.7793C14.5347 17.7652 14.5259 17.7687 14.489 17.7986ZM14.3554 17.8689C14.2886 17.9041 14.2921 17.9181 14.3589 17.8847C14.3888 17.8689 14.4116 17.8531 14.4116 17.8496C14.4116 17.8373 14.4099 17.839 14.3554 17.8689Z" fill="black"/>
</svg>
