<svg width="21" height="21" viewBox="0 0 21 21" fill="none" xmlns="http://www.w3.org/2000/svg">
<path d="M17.5837 10.032L10.886 16.7203C10.0655 17.5397 8.95261 18 7.79223 18C6.63184 18 5.51898 17.5397 4.69847 16.7203C3.87795 15.9009 3.41699 14.7896 3.41699 13.6309C3.41699 12.4721 3.87795 11.3608 4.69847 10.5414L11.3961 3.85312C11.9432 3.30688 12.6851 3 13.4586 3C14.2322 3 14.9741 3.30688 15.5212 3.85312C16.0682 4.39937 16.3755 5.14024 16.3755 5.91275C16.3755 6.68526 16.0682 7.42613 15.5212 7.97237L8.81619 14.6607C8.54269 14.9338 8.17173 15.0873 7.78494 15.0873C7.39814 15.0873 7.02719 14.9338 6.75369 14.6607C6.48018 14.3876 6.32653 14.0171 6.32653 13.6309C6.32653 13.2446 6.48018 12.8742 6.75369 12.6011L12.9412 6.42947" stroke="black" stroke-width="1.5" stroke-linecap="round" stroke-linejoin="round"/>
</svg>
