<svg width="21" height="21" viewBox="0 0 21 21" fill="none" xmlns="http://www.w3.org/2000/svg">
<path d="M7.75 3.625H6.25C5.69772 3.625 5.25 4.07272 5.25 4.625V16.375C5.25 16.9273 5.69772 17.375 6.25 17.375H7.75C8.30228 17.375 8.75 16.9273 8.75 16.375V4.625C8.75 4.07272 8.30228 3.625 7.75 3.625Z" fill="black"/>
<path d="M14.75 3.625H13.25C12.6977 3.625 12.25 4.07272 12.25 4.625V16.375C12.25 16.9273 12.6977 17.375 13.25 17.375H14.75C15.3023 17.375 15.75 16.9273 15.75 16.375V4.625C15.75 4.07272 15.3023 3.625 14.75 3.625Z" fill="black"/>
</svg>
