<svg width="21" height="21" viewBox="0 0 21 21" fill="none" xmlns="http://www.w3.org/2000/svg">
<path d="M14.5517 4.23925L15.9575 2.83258C16.2506 2.53952 16.648 2.37488 17.0625 2.37488C17.477 2.37488 17.8744 2.53952 18.1675 2.83258C18.4606 3.12565 18.6252 3.52313 18.6252 3.93758C18.6252 4.35204 18.4606 4.74952 18.1675 5.04258L9.31833 13.8918C8.87777 14.3321 8.33447 14.6557 7.7375 14.8335L5.5 15.5001L6.16667 13.2626C6.3444 12.6657 6.66803 12.1224 7.10833 11.6818L14.5517 4.23925ZM14.5517 4.23925L16.75 6.43758M15.5 12.1668V16.1251C15.5 16.6224 15.3025 17.0993 14.9508 17.4509C14.5992 17.8026 14.1223 18.0001 13.625 18.0001H4.875C4.37772 18.0001 3.90081 17.8026 3.54917 17.4509C3.19754 17.0993 3 16.6224 3 16.1251V7.37508C3 6.8778 3.19754 6.40089 3.54917 6.04926C3.90081 5.69763 4.37772 5.50008 4.875 5.50008H8.83333" stroke="black" stroke-width="1.5" stroke-linecap="round" stroke-linejoin="round"/>
</svg>
