<svg width="21" height="21" viewBox="0 0 21 21" fill="none" xmlns="http://www.w3.org/2000/svg">
<path d="M9.25 1.75H7.375C6.87772 1.75 6.40081 1.94754 6.04917 2.29917C5.69754 2.65081 5.5 3.12772 5.5 3.625V17.375C5.5 17.8723 5.69754 18.3492 6.04917 18.7008C6.40081 19.0525 6.87772 19.25 7.375 19.25H13.625C14.1223 19.25 14.5992 19.0525 14.9508 18.7008C15.3025 18.3492 15.5 17.8723 15.5 17.375V3.625C15.5 3.12772 15.3025 2.65081 14.9508 2.29917C14.5992 1.94754 14.1223 1.75 13.625 1.75H11.75M9.25 1.75V3H11.75V1.75M9.25 1.75H11.75M9.25 17.375H11.75" stroke="black" stroke-width="1.5" stroke-linecap="round" stroke-linejoin="round"/>
</svg>
