<svg width="21" height="21" viewBox="0 0 21 21" fill="none" xmlns="http://www.w3.org/2000/svg">
<path d="M2.375 13.625L6.67417 9.32583C6.84828 9.15172 7.05498 9.01361 7.28246 8.91938C7.50995 8.82515 7.75377 8.77665 8 8.77665C8.24623 8.77665 8.49005 8.82515 8.71754 8.91938C8.94502 9.01361 9.15172 9.15172 9.32583 9.32583L13.625 13.625M12.375 12.375L13.5492 11.2008C13.7233 11.0267 13.93 10.8886 14.1575 10.7944C14.385 10.7001 14.6288 10.6516 14.875 10.6516C15.1212 10.6516 15.365 10.7001 15.5925 10.7944C15.82 10.8886 16.0267 11.0267 16.2008 11.2008L18.625 13.625M3.625 16.75H17.375C17.7065 16.75 18.0245 16.6183 18.2589 16.3839C18.4933 16.1495 18.625 15.8315 18.625 15.5V5.5C18.625 5.16848 18.4933 4.85054 18.2589 4.61612C18.0245 4.3817 17.7065 4.25 17.375 4.25H3.625C3.29348 4.25 2.97554 4.3817 2.74112 4.61612C2.5067 4.85054 2.375 5.16848 2.375 5.5V15.5C2.375 15.8315 2.5067 16.1495 2.74112 16.3839C2.97554 16.6183 3.29348 16.75 3.625 16.75ZM12.375 7.375H12.3817V7.38167H12.375V7.375ZM12.6875 7.375C12.6875 7.45788 12.6546 7.53737 12.596 7.59597C12.5374 7.65458 12.4579 7.6875 12.375 7.6875C12.2921 7.6875 12.2126 7.65458 12.154 7.59597C12.0954 7.53737 12.0625 7.45788 12.0625 7.375C12.0625 7.29212 12.0954 7.21263 12.154 7.15403C12.2126 7.09542 12.2921 7.0625 12.375 7.0625C12.4579 7.0625 12.5374 7.09542 12.596 7.15403C12.6546 7.21263 12.6875 7.29212 12.6875 7.375Z" stroke="black" stroke-width="1.5" stroke-linecap="round" stroke-linejoin="round"/>
</svg>
