<svg width="21" height="21" viewBox="0 0 21 21" fill="none" xmlns="http://www.w3.org/2000/svg">
<path fill-rule="evenodd" clip-rule="evenodd" d="M1.75 5.5C1.75 5.00272 1.94754 4.52581 2.29917 4.17417C2.65081 3.82254 3.12772 3.625 3.625 3.625H17.375C17.8723 3.625 18.3492 3.82254 18.7008 4.17417C19.0525 4.52581 19.25 5.00272 19.25 5.5V15.5C19.25 15.9973 19.0525 16.4742 18.7008 16.8258C18.3492 17.1775 17.8723 17.375 17.375 17.375H3.625C3.12772 17.375 2.65081 17.1775 2.29917 16.8258C1.94754 16.4742 1.75 15.9973 1.75 15.5V5.5ZM3 13.8833V15.5C3 15.845 3.28 16.125 3.625 16.125H17.375C17.5408 16.125 17.6997 16.0592 17.8169 15.9419C17.9342 15.8247 18 15.6658 18 15.5V13.8833L15.7583 11.6425C15.524 11.4084 15.2063 11.2769 14.875 11.2769C14.5437 11.2769 14.226 11.4084 13.9917 11.6425L13.2583 12.375L14.0667 13.1833C14.1281 13.2406 14.1773 13.3096 14.2115 13.3862C14.2456 13.4629 14.264 13.5456 14.2655 13.6296C14.267 13.7135 14.2515 13.7968 14.2201 13.8747C14.1887 13.9525 14.1419 14.0232 14.0825 14.0825C14.0232 14.1419 13.9525 14.1887 13.8747 14.2201C13.7968 14.2515 13.7135 14.267 13.6296 14.2655C13.5456 14.264 13.4629 14.2456 13.3862 14.2115C13.3096 14.1773 13.2406 14.1281 13.1833 14.0667L8.88333 9.7675C8.64896 9.53342 8.33125 9.40193 8 9.40193C7.66875 9.40193 7.35104 9.53342 7.11667 9.7675L3 13.8833ZM11.4375 7.375C11.4375 7.12636 11.5363 6.8879 11.7121 6.71209C11.8879 6.53627 12.1264 6.4375 12.375 6.4375C12.6236 6.4375 12.8621 6.53627 13.0379 6.71209C13.2137 6.8879 13.3125 7.12636 13.3125 7.375C13.3125 7.62364 13.2137 7.8621 13.0379 8.03791C12.8621 8.21373 12.6236 8.3125 12.375 8.3125C12.1264 8.3125 11.8879 8.21373 11.7121 8.03791C11.5363 7.8621 11.4375 7.62364 11.4375 7.375Z" fill="black"/>
</svg>
