<svg width="21" height="21" viewBox="0 0 21 21" fill="none" xmlns="http://www.w3.org/2000/svg">
<path d="M12.375 5.5725C12.375 5.27667 12.53 5.00917 12.7092 4.77333C12.8933 4.53167 13 4.245 13 3.9375C13 3.07417 12.1608 2.375 11.125 2.375C10.0892 2.375 9.25 3.075 9.25 3.9375C9.25 4.245 9.35667 4.53167 9.54083 4.77333C9.72 5.00917 9.875 5.27667 9.875 5.5725C9.87536 5.64396 9.86136 5.71476 9.83382 5.7807C9.80629 5.84664 9.76578 5.90637 9.71471 5.95635C9.66365 6.00633 9.60305 6.04554 9.53654 6.07165C9.47002 6.09776 9.39893 6.11023 9.3275 6.10833C8.16805 6.07493 7.01059 5.99152 5.85833 5.85833C6.01333 7.2025 6.1025 8.56667 6.12083 9.9475C6.12161 10.0199 6.10798 10.0918 6.08075 10.1589C6.05352 10.226 6.01323 10.287 5.96221 10.3384C5.91119 10.3898 5.85047 10.4306 5.78357 10.4583C5.71667 10.4861 5.64492 10.5002 5.5725 10.5C5.27667 10.5 5.00917 10.345 4.77333 10.1658C4.53448 9.97926 4.24058 9.877 3.9375 9.875C3.07417 9.875 2.375 10.7142 2.375 11.75C2.375 12.7858 3.075 13.625 3.9375 13.625C4.245 13.625 4.53167 13.5183 4.77333 13.3342C5.00917 13.155 5.27667 13 5.5725 13C5.83083 13 6.035 13.2167 6.01583 13.475C5.91218 14.8879 5.73359 16.2943 5.48083 17.6883C6.74583 17.8467 8.02917 17.9458 9.3275 17.9833C9.39893 17.9852 9.47002 17.9728 9.53654 17.9467C9.60305 17.9205 9.66365 17.8813 9.71471 17.8314C9.76578 17.7814 9.80629 17.7216 9.83382 17.6557C9.86136 17.5898 9.87536 17.519 9.875 17.4475C9.875 17.1517 9.72 16.8842 9.54083 16.6483C9.35426 16.4095 9.252 16.1156 9.25 15.8125C9.25 14.95 10.09 14.25 11.125 14.25C12.1608 14.25 13 14.95 13 15.8125C13 16.12 12.8933 16.4067 12.7092 16.6483C12.53 16.8842 12.3758 17.1517 12.3758 17.4475C12.3758 17.725 12.6067 17.9467 12.8842 17.9308C14.4004 17.8417 15.9103 17.6664 17.4067 17.4058C17.6331 16.1044 17.7949 14.7925 17.8917 13.475C17.896 13.4141 17.8878 13.353 17.8674 13.2954C17.847 13.2379 17.815 13.1851 17.7733 13.1405C17.7316 13.0959 17.6811 13.0604 17.6251 13.0363C17.569 13.0121 17.5086 12.9997 17.4475 13C17.1517 13 16.8842 13.155 16.6483 13.3342C16.4067 13.5183 16.12 13.625 15.8125 13.625C14.95 13.625 14.25 12.7858 14.25 11.75C14.25 10.7142 14.95 9.875 15.8125 9.875C16.1208 9.875 16.4067 9.98167 16.6483 10.1658C16.8842 10.345 17.1517 10.5 17.4483 10.5C17.5208 10.5002 17.5925 10.4861 17.6594 10.4583C17.7263 10.4306 17.787 10.3898 17.838 10.3384C17.8891 10.287 17.9294 10.226 17.9566 10.1589C17.9838 10.0918 17.9974 10.0199 17.9967 9.9475C17.9766 8.45405 17.8737 6.96287 17.6883 5.48083C16.1167 5.76583 14.5133 5.95917 12.8833 6.055C12.8177 6.05864 12.7521 6.04882 12.6904 6.02614C12.6288 6.00346 12.5724 5.96841 12.5248 5.92314C12.4771 5.87787 12.4393 5.82333 12.4135 5.76289C12.3878 5.70244 12.3747 5.6382 12.375 5.5725Z" stroke="black" stroke-width="1.5" stroke-linecap="round" stroke-linejoin="round"/>
</svg>
