<svg width="21" height="21" viewBox="0 0 21 21" fill="none" xmlns="http://www.w3.org/2000/svg">
<path d="M9.875 4.9475C9.875 4.65167 9.72 4.38417 9.54083 4.14833C9.35426 3.90948 9.252 3.61558 9.25 3.3125C9.25 2.44917 10.0892 1.75 11.125 1.75C12.1608 1.75 13 2.45 13 3.3125C13 3.62 12.8933 3.90667 12.7092 4.14833C12.53 4.38417 12.375 4.65167 12.375 4.9475C12.375 5.22417 12.6067 5.44583 12.8833 5.42917C14.475 5.33417 16.0417 5.14417 17.5767 4.86583C17.6603 4.85068 17.7461 4.85273 17.8289 4.87186C17.9117 4.89099 17.9897 4.92681 18.0582 4.97712C18.1267 5.02742 18.1842 5.09117 18.2272 5.16445C18.2702 5.23773 18.2978 5.31902 18.3083 5.40333C18.4969 6.9108 18.6015 8.42758 18.6217 9.94667C18.6224 10.0193 18.6088 10.0913 18.5814 10.1586C18.5541 10.2258 18.5137 10.287 18.4625 10.3385C18.4113 10.39 18.3504 10.4308 18.2833 10.4585C18.2162 10.4862 18.1443 10.5003 18.0717 10.5C17.7767 10.5 17.5092 10.345 17.2733 10.1658C17.0345 9.97926 16.7406 9.877 16.4375 9.875C15.575 9.875 14.875 10.7142 14.875 11.75C14.875 12.7858 15.575 13.625 16.4375 13.625C16.745 13.625 17.0317 13.5183 17.2733 13.3342C17.5092 13.155 17.7767 13 18.0725 13C18.3308 13 18.5367 13.2183 18.5175 13.4758C18.4197 14.8291 18.2542 16.1766 18.0217 17.5133C17.9996 17.6401 17.9389 17.7569 17.8479 17.8479C17.7569 17.9389 17.6401 17.9996 17.5133 18.0217C15.9967 18.2858 14.4525 18.4658 12.8842 18.5567C12.8185 18.5602 12.7528 18.5503 12.6911 18.5275C12.6294 18.5047 12.5729 18.4696 12.5253 18.4243C12.4776 18.379 12.4397 18.3244 12.4139 18.2639C12.388 18.2034 12.3748 18.1383 12.375 18.0725C12.375 17.7767 12.53 17.5092 12.7092 17.2733C12.8933 17.0317 13 16.745 13 16.4375C13 15.575 12.1608 14.875 11.125 14.875C10.0892 14.875 9.25 15.575 9.25 16.4375C9.25 16.745 9.35667 17.0317 9.54083 17.2733C9.72 17.5092 9.875 17.7767 9.875 18.0725C9.87525 18.144 9.86114 18.2148 9.83351 18.2808C9.80589 18.3467 9.7653 18.4064 9.71417 18.4564C9.66303 18.5064 9.60239 18.5456 9.53583 18.5717C9.46926 18.5978 9.39814 18.6102 9.32667 18.6083C8.01484 18.5713 6.70555 18.4712 5.40333 18.3083C5.31902 18.2978 5.23773 18.2702 5.16445 18.2272C5.09117 18.1842 5.02742 18.1267 4.97712 18.0582C4.92681 17.9897 4.89099 17.9117 4.87186 17.8289C4.85273 17.7461 4.85068 17.6603 4.86583 17.5767C5.11 16.2317 5.28583 14.8625 5.39 13.4733C5.39436 13.4127 5.38614 13.3517 5.36586 13.2944C5.34557 13.237 5.31365 13.1845 5.27211 13.14C5.23056 13.0956 5.18028 13.0602 5.12443 13.0361C5.06857 13.012 5.00833 12.9997 4.9475 13C4.65167 13 4.38417 13.155 4.14833 13.3342C3.90667 13.5183 3.62 13.625 3.3125 13.625C2.44917 13.625 1.75 12.7858 1.75 11.75C1.75 10.7142 2.45 9.875 3.3125 9.875C3.62 9.875 3.90667 9.98167 4.14833 10.1658C4.38417 10.345 4.65167 10.5 4.9475 10.5C5.01999 10.5003 5.09183 10.4862 5.15883 10.4586C5.22582 10.4309 5.28665 10.3901 5.33775 10.3387C5.38886 10.2873 5.42922 10.2262 5.45651 10.1591C5.48379 10.0919 5.49744 10.02 5.49667 9.9475C5.47844 8.60511 5.39221 7.2645 5.23833 5.93083C5.22743 5.83729 5.2378 5.7425 5.26868 5.65353C5.29956 5.56457 5.35015 5.48373 5.41666 5.41706C5.48317 5.35039 5.56388 5.29961 5.65277 5.26852C5.74167 5.23742 5.83643 5.22682 5.93 5.2375C7.04917 5.36667 8.1825 5.44917 9.3275 5.4825C9.39886 5.4844 9.46988 5.47195 9.53634 5.44589C9.6028 5.41983 9.66336 5.3807 9.71441 5.33081C9.76547 5.28092 9.80599 5.22128 9.83358 5.15544C9.86116 5.0896 9.87525 5.01889 9.875 4.9475Z" fill="black"/>
</svg>
