<svg width="21" height="21" viewBox="0 0 21 21" fill="none" xmlns="http://www.w3.org/2000/svg">
<path d="M8.7325 6.76583C9.70833 5.91167 11.2917 5.91167 12.2675 6.76583C13.2442 7.62 13.2442 9.005 12.2675 9.85917C12.0983 10.0083 11.9092 10.1308 11.7092 10.2275C11.0883 10.5283 10.5008 11.06 10.5008 11.75V12.375M18 10.5C18 11.4849 17.806 12.4602 17.4291 13.3701C17.0522 14.2801 16.4997 15.1069 15.8033 15.8033C15.1069 16.4997 14.2801 17.0522 13.3701 17.4291C12.4602 17.806 11.4849 18 10.5 18C9.51509 18 8.53982 17.806 7.62987 17.4291C6.71993 17.0522 5.89314 16.4997 5.1967 15.8033C4.50026 15.1069 3.94781 14.2801 3.5709 13.3701C3.19399 12.4602 3 11.4849 3 10.5C3 8.51088 3.79018 6.60322 5.1967 5.1967C6.60322 3.79018 8.51088 3 10.5 3C12.4891 3 14.3968 3.79018 15.8033 5.1967C17.2098 6.60322 18 8.51088 18 10.5ZM10.5 14.875H10.5067V14.8817H10.5V14.875Z" stroke="black" stroke-width="1.5" stroke-linecap="round" stroke-linejoin="round"/>
</svg>
