<svg width="20" height="20" viewBox="0 0 20 20" fill="none" xmlns="http://www.w3.org/2000/svg">
<path d="M15 1H5C2.79086 1 1 2.79086 1 5V15C1 17.2091 2.79086 19 5 19H15C17.2091 19 19 17.2091 19 15V5C19 2.79086 17.2091 1 15 1Z" fill="#61DAFB"/>
<path d="M10.0118 12.7358C13.9866 12.7358 17.2088 11.5055 17.2088 9.98782C17.2088 8.47016 13.9866 7.23986 10.0118 7.23986C6.03693 7.23986 2.8147 8.47016 2.8147 9.98782C2.8147 11.5055 6.03693 12.7358 10.0118 12.7358Z" stroke="black"/>
<path d="M7.63168 11.3618C9.61909 14.8041 12.2957 16.9795 13.61 16.2207C14.9243 15.4618 14.3787 12.0561 12.3913 8.61384C10.4039 5.17154 7.72729 2.99616 6.41296 3.75499C5.09863 4.51382 5.64427 7.91951 7.63168 11.3618Z" stroke="black"/>
<path d="M7.63177 8.61373C5.64436 12.056 5.09872 15.4617 6.41305 16.2206C7.72739 16.9794 10.404 14.804 12.3914 11.3617C14.3788 7.9194 14.9244 4.51371 13.6101 3.75488C12.2958 2.99605 9.61919 5.17144 7.63177 8.61373Z" stroke="black"/>
<path d="M10.0003 11.2078C10.6674 11.2078 11.2082 10.667 11.2082 9.99996C11.2082 9.33288 10.6674 8.79211 10.0003 8.79211C9.33325 8.79211 8.79248 9.33288 8.79248 9.99996C8.79248 10.667 9.33325 11.2078 10.0003 11.2078Z" fill="black"/>
</svg>
