<svg width="21" height="21" viewBox="0 0 21 21" fill="none" xmlns="http://www.w3.org/2000/svg">
<path d="M8 12.375L13 7.37505M16.75 4.46422V18.6251L13.625 17.375L10.5 18.6251L7.375 17.375L4.25 18.6251V4.46422C4.25 3.54088 4.92167 2.75005 5.83917 2.64338C8.93599 2.28391 12.064 2.28391 15.1608 2.64338C16.0775 2.75005 16.75 3.54088 16.75 4.46422ZM8.625 8.00005H8.63167V8.00672H8.625V8.00005ZM8.9375 8.00005C8.9375 8.08293 8.90458 8.16242 8.84597 8.22102C8.78737 8.27963 8.70788 8.31255 8.625 8.31255C8.54212 8.31255 8.46263 8.27963 8.40403 8.22102C8.34542 8.16242 8.3125 8.08293 8.3125 8.00005C8.3125 7.91717 8.34542 7.83768 8.40403 7.77908C8.46263 7.72047 8.54212 7.68755 8.625 7.68755C8.70788 7.68755 8.78737 7.72047 8.84597 7.77908C8.90458 7.83768 8.9375 7.91717 8.9375 8.00005ZM12.375 11.75H12.3817V11.7567H12.375V11.75ZM12.6875 11.75C12.6875 11.8329 12.6546 11.9124 12.596 11.971C12.5374 12.0296 12.4579 12.0625 12.375 12.0625C12.2921 12.0625 12.2126 12.0296 12.154 11.971C12.0954 11.9124 12.0625 11.8329 12.0625 11.75C12.0625 11.6672 12.0954 11.5877 12.154 11.5291C12.2126 11.4705 12.2921 11.4375 12.375 11.4375C12.4579 11.4375 12.5374 11.4705 12.596 11.5291C12.6546 11.5877 12.6875 11.6672 12.6875 11.75Z" stroke="black" stroke-width="1.5" stroke-linecap="round" stroke-linejoin="round"/>
</svg>
