<svg width="21" height="21" viewBox="0 0 21 21" fill="none" xmlns="http://www.w3.org/2000/svg">
<path fill-rule="evenodd" clip-rule="evenodd" d="M5.37789 13.3202C5.49316 13.4695 5.54451 13.6585 5.52065 13.8456C5.49679 14.0327 5.39969 14.2027 5.25064 14.3183C4.90418 14.5849 4.63828 14.9423 4.4824 15.3507C4.32653 15.7592 4.28676 16.2028 4.36749 16.6325C4.79717 16.7132 5.2408 16.6735 5.64926 16.5176C6.05773 16.3617 6.41507 16.0958 6.68172 15.7494C6.7383 15.6736 6.8094 15.6098 6.89088 15.5618C6.97236 15.5138 7.06258 15.4825 7.15629 15.4697C7.25 15.457 7.34531 15.463 7.43666 15.4875C7.52801 15.5119 7.61358 15.5543 7.68836 15.6122C7.76315 15.6701 7.82566 15.7423 7.87224 15.8246C7.91882 15.9069 7.94855 15.9977 7.95968 16.0916C7.97082 16.1855 7.96314 16.2807 7.93709 16.3716C7.91104 16.4625 7.86714 16.5473 7.80797 16.6211C7.32132 17.2523 6.64824 17.7142 5.88425 17.9413C5.12025 18.1683 4.30415 18.149 3.55177 17.886C3.45056 17.8507 3.35863 17.793 3.28283 17.7172C3.20703 17.6414 3.14931 17.5494 3.11399 17.4482C2.85087 16.6959 2.83146 15.8797 3.05852 15.1157C3.28558 14.3517 3.74757 13.6786 4.37889 13.192C4.52825 13.0765 4.7174 13.0249 4.90474 13.0488C5.09208 13.0727 5.26227 13.1709 5.37789 13.3202Z" fill="black"/>
<path fill-rule="evenodd" clip-rule="evenodd" d="M6.46621 12.3992C7.08827 13.195 7.80516 13.9119 8.60095 14.5339V18.3343C8.60095 18.7274 8.92003 19.0465 9.31317 19.0465C10.0516 19.0467 10.7798 18.8746 11.44 18.5441C12.1003 18.2135 12.6743 17.7335 13.1165 17.1422C13.5588 16.5509 13.857 15.8646 13.9875 15.1378C14.1181 14.4111 14.0773 13.6639 13.8685 12.9557C15.5052 11.7902 16.8323 10.2425 17.7343 8.44704C18.6363 6.65163 19.0859 4.66299 19.0439 2.65417C19.0403 2.4702 18.9656 2.29478 18.8355 2.16467C18.7054 2.03455 18.5299 1.95985 18.346 1.9562C16.337 1.91406 14.3481 2.36356 12.5526 3.26557C10.757 4.16758 9.20905 5.49478 8.04353 7.13163C7.33535 6.923 6.58828 6.88238 5.86165 7.013C5.13503 7.14362 4.44887 7.44188 3.85769 7.88409C3.26651 8.3263 2.7866 8.90027 2.45606 9.56042C2.12553 10.2206 1.95349 10.9487 1.95361 11.687C1.95456 12.0801 2.27364 12.3992 2.66678 12.3992H6.46621ZM13.3491 9.55032C13.8528 9.55032 14.3358 9.35022 14.692 8.99404C15.0482 8.63786 15.2483 8.15479 15.2483 7.65108C15.2483 7.14737 15.0482 6.66429 14.692 6.30811C14.3358 5.95193 13.8528 5.75184 13.3491 5.75184C12.8453 5.75184 12.3623 5.95193 12.0061 6.30811C11.6499 6.66429 11.4498 7.14737 11.4498 7.65108C11.4498 8.15479 11.6499 8.63786 12.0061 8.99404C12.3623 9.35022 12.8453 9.55032 13.3491 9.55032Z" fill="black"/>
</svg>
