<svg width="21" height="21" viewBox="0 0 21 21" fill="none" xmlns="http://www.w3.org/2000/svg">
<path d="M13.2845 12.3383C13.4461 13.0217 13.4508 13.7328 13.2985 14.4182C13.1461 15.1037 12.8407 15.7459 12.4049 16.2965C11.9691 16.8472 11.4144 17.2921 10.7823 17.598C10.1502 17.9038 9.45703 18.0626 8.75481 18.0625V14.3394M13.2845 12.3383C14.7659 11.2592 15.971 9.84497 16.8014 8.21115C17.6318 6.57732 18.0639 4.77024 18.0625 2.9375C16.2299 2.93618 14.423 3.36836 12.7893 4.19875C11.1556 5.02913 9.74152 6.23417 8.6625 7.71545M13.2845 12.3383C11.9364 13.3243 10.3917 14.007 8.75481 14.3394M8.75481 14.3394C8.67492 14.3557 8.59425 14.3712 8.51358 14.386C7.80991 13.828 7.1728 13.1909 6.61481 12.4872C6.62947 12.4064 6.64421 12.3257 6.66058 12.2452M8.6625 7.71545C7.97906 7.5538 7.26789 7.54894 6.58229 7.70121C5.89669 7.85349 5.25445 8.15895 4.70369 8.59473C4.15293 9.0305 3.70794 9.58527 3.40207 10.2175C3.0962 10.8497 2.93737 11.5429 2.9375 12.2452H6.66058M8.6625 7.71545C7.67657 9.06337 6.99314 10.6086 6.66058 12.2452M4.92392 14.099C4.41368 14.4784 4.01698 14.9902 3.77676 15.5789C3.53655 16.1676 3.46197 16.8108 3.56112 17.4389C4.18925 17.5379 4.83252 17.4632 5.42124 17.2229C6.00996 16.9825 6.5217 16.5857 6.90102 16.0753M13.9904 8.17308C13.9904 8.48165 13.8678 8.77758 13.6496 8.99577C13.4314 9.21396 13.1355 9.33654 12.8269 9.33654C12.5184 9.33654 12.2224 9.21396 12.0042 8.99577C11.786 8.77758 11.6635 8.48165 11.6635 8.17308C11.6635 7.86451 11.786 7.56858 12.0042 7.35039C12.2224 7.1322 12.5184 7.00962 12.8269 7.00962C13.1355 7.00962 13.4314 7.1322 13.6496 7.35039C13.8678 7.56858 13.9904 7.86451 13.9904 8.17308Z" stroke="black" stroke-width="1.5" stroke-linecap="round" stroke-linejoin="round"/>
</svg>
