<svg width="21" height="21" viewBox="0 0 21 21" fill="none" xmlns="http://www.w3.org/2000/svg">
<path d="M3.89985 4.85583C4.0418 4.32355 4.35558 3.85305 4.79245 3.51745C5.22931 3.18185 5.7648 2.99995 6.31568 3H14.6832C15.2342 2.99976 15.7699 3.18158 16.2069 3.5172C16.644 3.85281 16.9579 4.32341 17.0999 4.85583L18.8607 11.4608C18.0852 10.8376 17.1198 10.4985 16.1249 10.5H4.87485C3.87966 10.4983 2.91389 10.8374 2.13818 11.4608L3.89985 4.85583Z" fill="black"/>
<path fill-rule="evenodd" clip-rule="evenodd" d="M4.875 11.75C4.46462 11.75 4.05826 11.8308 3.67911 11.9879C3.29997 12.1449 2.95547 12.3751 2.66529 12.6653C2.37511 12.9555 2.14492 13.3 1.98788 13.6791C1.83083 14.0583 1.75 14.4646 1.75 14.875C1.75 15.2854 1.83083 15.6917 1.98788 16.0709C2.14492 16.45 2.37511 16.7945 2.66529 17.0847C2.95547 17.3749 3.29997 17.6051 3.67911 17.7621C4.05826 17.9192 4.46462 18 4.875 18H16.125C16.5354 18 16.9417 17.9192 17.3209 17.7621C17.7 17.6051 18.0445 17.3749 18.3347 17.0847C18.6249 16.7945 18.8551 16.45 19.0121 16.0709C19.1692 15.6917 19.25 15.2854 19.25 14.875C19.25 14.4646 19.1692 14.0583 19.0121 13.6791C18.8551 13.3 18.6249 12.9555 18.3347 12.6653C18.0445 12.3751 17.7 12.1449 17.3209 11.9879C16.9417 11.8308 16.5354 11.75 16.125 11.75H4.875ZM13.625 15.5C13.7908 15.5 13.9497 15.4342 14.0669 15.3169C14.1842 15.1997 14.25 15.0408 14.25 14.875C14.25 14.7092 14.1842 14.5503 14.0669 14.4331C13.9497 14.3158 13.7908 14.25 13.625 14.25C13.4592 14.25 13.3003 14.3158 13.1831 14.4331C13.0658 14.5503 13 14.7092 13 14.875C13 15.0408 13.0658 15.1997 13.1831 15.3169C13.3003 15.4342 13.4592 15.5 13.625 15.5ZM16.75 14.875C16.75 15.0408 16.6842 15.1997 16.5669 15.3169C16.4497 15.4342 16.2908 15.5 16.125 15.5C15.9592 15.5 15.8003 15.4342 15.6831 15.3169C15.5658 15.1997 15.5 15.0408 15.5 14.875C15.5 14.7092 15.5658 14.5503 15.6831 14.4331C15.8003 14.3158 15.9592 14.25 16.125 14.25C16.2908 14.25 16.4497 14.3158 16.5669 14.4331C16.6842 14.5503 16.75 14.7092 16.75 14.875Z" fill="black"/>
</svg>
