<svg width="21" height="21" viewBox="0 0 21 21" fill="none" xmlns="http://www.w3.org/2000/svg">
<path d="M4.875 12.375H16.125M4.875 12.375C4.21196 12.375 3.57607 12.1116 3.10723 11.6428C2.63839 11.1739 2.375 10.538 2.375 9.875M4.875 12.375C4.21196 12.375 3.57607 12.6384 3.10723 13.1072C2.63839 13.5761 2.375 14.212 2.375 14.875C2.375 15.538 2.63839 16.1739 3.10723 16.6428C3.57607 17.1116 4.21196 17.375 4.875 17.375H16.125C16.788 17.375 17.4239 17.1116 17.8928 16.6428C18.3616 16.1739 18.625 15.538 18.625 14.875C18.625 14.212 18.3616 13.5761 17.8928 13.1072C17.4239 12.6384 16.788 12.375 16.125 12.375M16.125 12.375C16.788 12.375 17.4239 12.1116 17.8928 11.6428C18.3616 11.1739 18.625 10.538 18.625 9.875M2.375 9.875C2.375 9.21196 2.63839 8.57607 3.10723 8.10723C3.57607 7.63839 4.21196 7.375 4.875 7.375H16.125C16.788 7.375 17.4239 7.63839 17.8928 8.10723C18.3616 8.57607 18.625 9.21196 18.625 9.875M2.375 9.875C2.375 9.06361 2.63817 8.27411 3.125 7.625L5.28083 4.75C5.54281 4.4007 5.88251 4.11719 6.27305 3.92192C6.66358 3.72666 7.09421 3.625 7.53083 3.625H13.4692C14.3542 3.625 15.1875 4.04167 15.7192 4.75L17.875 7.625C18.3618 8.27411 18.625 9.06361 18.625 9.875M16.125 14.875H16.1317V14.8817H16.125V14.875ZM16.125 9.875H16.1317V9.88167H16.125V9.875ZM13.625 14.875H13.6317V14.8817H13.625V14.875ZM13.625 9.875H13.6317V9.88167H13.625V9.875Z" stroke="black" stroke-width="1.5" stroke-linecap="round" stroke-linejoin="round"/>
</svg>
