<svg width="21" height="21" viewBox="0 0 21 21" fill="none" xmlns="http://www.w3.org/2000/svg">
<path d="M5.0893 3.87333C5.32399 3.59944 5.61516 3.37957 5.94284 3.22882C6.27052 3.07807 6.62694 3.00001 6.98763 3H14.0126C14.3733 3.00001 14.7297 3.07807 15.0574 3.22882C15.3851 3.37957 15.6763 3.59944 15.911 3.87333L17.346 5.54667C17.1489 5.5154 16.9497 5.49979 16.7501 5.5H4.25013C4.04763 5.5 3.84846 5.51667 3.6543 5.54667L5.0893 3.87333Z" fill="black"/>
<path fill-rule="evenodd" clip-rule="evenodd" d="M1.75 9.25C1.75 8.58696 2.01339 7.95107 2.48223 7.48223C2.95107 7.01339 3.58696 6.75 4.25 6.75H16.75C17.413 6.75 18.0489 7.01339 18.5178 7.48223C18.9866 7.95107 19.25 8.58696 19.25 9.25C19.25 9.91304 18.9866 10.5489 18.5178 11.0178C18.0489 11.4866 17.413 11.75 16.75 11.75H4.25C3.58696 11.75 2.95107 11.4866 2.48223 11.0178C2.01339 10.5489 1.75 9.91304 1.75 9.25ZM14.25 9.25C14.25 9.41576 14.1842 9.57473 14.0669 9.69194C13.9497 9.80915 13.7908 9.875 13.625 9.875C13.4592 9.875 13.3003 9.80915 13.1831 9.69194C13.0658 9.57473 13 9.41576 13 9.25C13 9.08424 13.0658 8.92527 13.1831 8.80806C13.3003 8.69085 13.4592 8.625 13.625 8.625C13.7908 8.625 13.9497 8.69085 14.0669 8.80806C14.1842 8.92527 14.25 9.08424 14.25 9.25ZM16.125 9.875C16.2908 9.875 16.4497 9.80915 16.5669 9.69194C16.6842 9.57473 16.75 9.41576 16.75 9.25C16.75 9.08424 16.6842 8.92527 16.5669 8.80806C16.4497 8.69085 16.2908 8.625 16.125 8.625C15.9592 8.625 15.8003 8.69085 15.6831 8.80806C15.5658 8.92527 15.5 9.08424 15.5 9.25C15.5 9.41576 15.5658 9.57473 15.6831 9.69194C15.8003 9.80915 15.9592 9.875 16.125 9.875ZM4.25 13C3.58696 13 2.95107 13.2634 2.48223 13.7322C2.01339 14.2011 1.75 14.837 1.75 15.5C1.75 16.163 2.01339 16.7989 2.48223 17.2678C2.95107 17.7366 3.58696 18 4.25 18H16.75C17.413 18 18.0489 17.7366 18.5178 17.2678C18.9866 16.7989 19.25 16.163 19.25 15.5C19.25 14.837 18.9866 14.2011 18.5178 13.7322C18.0489 13.2634 17.413 13 16.75 13H4.25ZM13.625 16.125C13.7908 16.125 13.9497 16.0592 14.0669 15.9419C14.1842 15.8247 14.25 15.6658 14.25 15.5C14.25 15.3342 14.1842 15.1753 14.0669 15.0581C13.9497 14.9408 13.7908 14.875 13.625 14.875C13.4592 14.875 13.3003 14.9408 13.1831 15.0581C13.0658 15.1753 13 15.3342 13 15.5C13 15.6658 13.0658 15.8247 13.1831 15.9419C13.3003 16.0592 13.4592 16.125 13.625 16.125ZM16.75 15.5C16.75 15.6658 16.6842 15.8247 16.5669 15.9419C16.4497 16.0592 16.2908 16.125 16.125 16.125C15.9592 16.125 15.8003 16.0592 15.6831 15.9419C15.5658 15.8247 15.5 15.6658 15.5 15.5C15.5 15.3342 15.5658 15.1753 15.6831 15.0581C15.8003 14.9408 15.9592 14.875 16.125 14.875C16.2908 14.875 16.4497 14.9408 16.5669 15.0581C16.6842 15.1753 16.75 15.3342 16.75 15.5Z" fill="black"/>
</svg>
