<svg width="21" height="21" viewBox="0 0 21 21" fill="none" xmlns="http://www.w3.org/2000/svg">
<path d="M18.625 14.875V14.685C18.6249 14.396 18.5913 14.108 18.525 13.8267L16.635 5.79333C16.4898 5.1763 16.1404 4.6264 15.6436 4.23282C15.1467 3.83924 14.5314 3.62505 13.8975 3.625H7.1025C6.46862 3.62505 5.85334 3.83924 5.35644 4.23282C4.85955 4.6264 4.51018 5.1763 4.365 5.79333L2.475 13.8267C2.4087 14.108 2.37515 14.396 2.375 14.685V14.875M18.625 14.875C18.625 15.538 18.3616 16.1739 17.8928 16.6428C17.4239 17.1116 16.788 17.375 16.125 17.375H4.875C4.21196 17.375 3.57607 17.1116 3.10723 16.6428C2.63839 16.1739 2.375 15.538 2.375 14.875M18.625 14.875C18.625 14.212 18.3616 13.5761 17.8928 13.1072C17.4239 12.6384 16.788 12.375 16.125 12.375H4.875C4.21196 12.375 3.57607 12.6384 3.10723 13.1072C2.63839 13.5761 2.375 14.212 2.375 14.875M16.125 14.875H16.1317V14.8817H16.125V14.875ZM13.625 14.875H13.6317V14.8817H13.625V14.875Z" stroke="black" stroke-width="1.5" stroke-linecap="round" stroke-linejoin="round"/>
</svg>
