<svg width="21" height="21" viewBox="0 0 21 21" fill="none" xmlns="http://www.w3.org/2000/svg">
<path d="M2.5 3.07422H3.64356C4.06436 3.07422 4.43152 3.35722 4.54043 3.76316L4.85644 4.94881M4.85644 4.94881C9.45267 4.82 14.0445 5.33094 18.5 6.46696C17.8201 8.49171 17.0124 10.4587 16.0875 12.3564H6.83168M4.85644 4.94881L6.83168 12.3564M6.83168 12.3564C6.17521 12.3564 5.54562 12.6172 5.08142 13.0814C4.61722 13.5456 4.35644 14.1752 4.35644 14.8316H17.3515M5.59406 17.3069C5.59406 17.471 5.52886 17.6284 5.41281 17.7445C5.29676 17.8605 5.13937 17.9257 4.97525 17.9257C4.81113 17.9257 4.65373 17.8605 4.53768 17.7445C4.42163 17.6284 4.35644 17.471 4.35644 17.3069C4.35644 17.1428 4.42163 16.9854 4.53768 16.8693C4.65373 16.7533 4.81113 16.6881 4.97525 16.6881C5.13937 16.6881 5.29676 16.7533 5.41281 16.8693C5.52886 16.9854 5.59406 17.1428 5.59406 17.3069ZM16.1139 17.3069C16.1139 17.471 16.0487 17.6284 15.9326 17.7445C15.8166 17.8605 15.6592 17.9257 15.495 17.9257C15.3309 17.9257 15.1735 17.8605 15.0575 17.7445C14.9414 17.6284 14.8762 17.471 14.8762 17.3069C14.8762 17.1428 14.9414 16.9854 15.0575 16.8693C15.1735 16.7533 15.3309 16.6881 15.495 16.6881C15.6592 16.6881 15.8166 16.7533 15.9326 16.8693C16.0487 16.9854 16.1139 17.1428 16.1139 17.3069Z" stroke="black" stroke-width="1.5" stroke-linecap="round" stroke-linejoin="round"/>
</svg>
