<svg width="21" height="21" viewBox="0 0 21 21" fill="none" xmlns="http://www.w3.org/2000/svg">
<path d="M2.57926 2.53479C2.41676 2.53479 2.26092 2.59934 2.14601 2.71425C2.03111 2.82915 1.96655 2.985 1.96655 3.1475C1.96655 3.31 2.03111 3.46585 2.14601 3.58075C2.26092 3.69566 2.41676 3.76021 2.57926 3.76021H3.71155C3.85043 3.76021 3.97134 3.85334 4.00729 3.98732L6.09704 11.8235C5.44068 11.9945 4.85958 12.3784 4.44476 12.915C4.02994 13.4517 3.80483 14.1107 3.80468 14.789C3.80468 15.1272 4.07918 15.4017 4.41739 15.4017H17.2843C17.4468 15.4017 17.6027 15.3372 17.7176 15.2222C17.8325 15.1073 17.897 14.9515 17.897 14.789C17.897 14.6265 17.8325 14.4707 17.7176 14.3557C17.6027 14.2408 17.4468 14.1763 17.2843 14.1763H5.13467C5.26141 13.8178 5.49619 13.5075 5.80666 13.288C6.11713 13.0685 6.48803 12.9508 6.86824 12.9509H16.0327C16.1475 12.9509 16.26 12.9186 16.3574 12.8578C16.4547 12.797 16.533 12.7101 16.5834 12.6069C17.5161 10.6929 18.3238 8.72048 19.0015 6.70204C19.0283 6.62219 19.0383 6.53768 19.031 6.45378C19.0236 6.36988 18.9991 6.2884 18.9588 6.21442C18.9186 6.14045 18.8635 6.07556 18.7971 6.02381C18.7306 5.97207 18.6542 5.93458 18.5726 5.91368C14.2639 4.81501 9.82726 4.29928 5.38139 4.38027L5.19186 3.67198C5.1049 3.34581 4.91264 3.05749 4.64494 2.85185C4.37725 2.6462 4.04912 2.53474 3.71155 2.53479H2.57926ZM3.80468 17.2398C3.80468 16.9148 3.93379 16.6031 4.1636 16.3733C4.39341 16.1435 4.7051 16.0144 5.0301 16.0144C5.35511 16.0144 5.6668 16.1435 5.89661 16.3733C6.12642 16.6031 6.25553 16.9148 6.25553 17.2398C6.25553 17.5648 6.12642 17.8765 5.89661 18.1063C5.6668 18.3362 5.35511 18.4653 5.0301 18.4653C4.7051 18.4653 4.39341 18.3362 4.1636 18.1063C3.93379 17.8765 3.80468 17.5648 3.80468 17.2398ZM14.2208 17.2398C14.2208 16.9148 14.3499 16.6031 14.5797 16.3733C14.8095 16.1435 15.1212 16.0144 15.4462 16.0144C15.7712 16.0144 16.0829 16.1435 16.3127 16.3733C16.5425 16.6031 16.6716 16.9148 16.6716 17.2398C16.6716 17.5648 16.5425 17.8765 16.3127 18.1063C16.0829 18.3362 15.7712 18.4653 15.4462 18.4653C15.1212 18.4653 14.8095 18.3362 14.5797 18.1063C14.3499 17.8765 14.2208 17.5648 14.2208 17.2398Z" fill="black"/>
</svg>
