<svg width="21" height="21" viewBox="0 0 21 21" fill="none" xmlns="http://www.w3.org/2000/svg">
<path d="M13.6249 9.25V5.5C13.6249 4.6712 13.2956 3.87634 12.7096 3.29029C12.1235 2.70424 11.3287 2.375 10.4999 2.375C9.67106 2.375 8.87621 2.70424 8.29016 3.29029C7.70411 3.87634 7.37487 4.6712 7.37487 5.5V9.25M16.8382 7.58917L17.8907 17.5892C17.949 18.1433 17.5157 18.625 16.9582 18.625H4.04153C3.91004 18.6251 3.77999 18.5976 3.65982 18.5442C3.53966 18.4908 3.43207 18.4127 3.34405 18.3151C3.25603 18.2174 3.18954 18.1023 3.14891 17.9772C3.10828 17.8521 3.09441 17.7199 3.1082 17.5892L4.16153 7.58917C4.18583 7.3588 4.29455 7.14558 4.46674 6.99063C4.63893 6.83568 4.86239 6.74996 5.09403 6.75H15.9057C16.3857 6.75 16.7882 7.1125 16.8382 7.58917ZM7.68737 9.25C7.68737 9.33288 7.65444 9.41237 7.59584 9.47097C7.53723 9.52958 7.45775 9.5625 7.37487 9.5625C7.29198 9.5625 7.2125 9.52958 7.15389 9.47097C7.09529 9.41237 7.06237 9.33288 7.06237 9.25C7.06237 9.16712 7.09529 9.08763 7.15389 9.02903C7.2125 8.97042 7.29198 8.9375 7.37487 8.9375C7.45775 8.9375 7.53723 8.97042 7.59584 9.02903C7.65444 9.08763 7.68737 9.16712 7.68737 9.25ZM13.9374 9.25C13.9374 9.33288 13.9044 9.41237 13.8458 9.47097C13.7872 9.52958 13.7077 9.5625 13.6249 9.5625C13.542 9.5625 13.4625 9.52958 13.4039 9.47097C13.3453 9.41237 13.3124 9.33288 13.3124 9.25C13.3124 9.16712 13.3453 9.08763 13.4039 9.02903C13.4625 8.97042 13.542 8.9375 13.6249 8.9375C13.7077 8.9375 13.7872 8.97042 13.8458 9.02903C13.9044 9.08763 13.9374 9.16712 13.9374 9.25Z" stroke="black" stroke-width="1.5" stroke-linecap="round" stroke-linejoin="round"/>
</svg>
