<svg width="21" height="21" viewBox="0 0 21 21" fill="none" xmlns="http://www.w3.org/2000/svg">
<path d="M9.5 3.625H4.875C4.37772 3.625 3.90081 3.82254 3.54917 4.17417C3.19754 4.52581 3 5.00272 3 5.5V7.375V15.5C3 15.9973 3.19754 16.4742 3.54917 16.8258C3.90081 17.1775 4.37772 17.375 4.875 17.375H9.5M9.5 3.625H16.125C16.6223 3.625 17.0992 3.82254 17.4508 4.17417C17.8025 4.52581 18 5.00272 18 5.5V7.375V15.5C18 15.9973 17.8025 16.4742 17.4508 16.8258C17.0992 17.1775 16.6223 17.375 16.125 17.375H9.5M9.5 3.625V17.375M5.5 7H7M5.5 10H7" stroke="black" stroke-width="1.5" stroke-linecap="round" stroke-linejoin="round"/>
</svg>
