<svg viewBox="0 0 190 125" fill="none" xmlns="http://www.w3.org/2000/svg">
<path fill-rule="evenodd" clip-rule="evenodd" d="M190 27.71V26.3521C180.788 26.0856 171.602 25.2312 162.497 23.7939V25.1518C171.602 26.5885 180.788 27.4429 190 27.71Z" fill="currentColor"/>
<path fill-rule="evenodd" clip-rule="evenodd" d="M186.57 21.5248V20.1494C178.507 19.7702 170.471 18.9484 162.497 17.6877V19.0456C170.471 20.3135 178.507 21.1411 186.57 21.5248Z" fill="currentColor"/>
<path fill-rule="evenodd" clip-rule="evenodd" d="M186.57 33.641V32.3006C178.507 31.922 170.471 31.1002 162.497 29.8389V31.2056C170.472 32.4581 178.508 33.2711 186.57 33.641Z" fill="currentColor"/>
<path fill-rule="evenodd" clip-rule="evenodd" d="M44.5851 15.6728C44.5851 16.3474 44.5851 16.6715 44.5851 17.3286L43.6323 17.5213C43.6323 23.058 43.6611 28.6065 43.7189 34.1666L44.6891 33.93C44.6891 34.5608 44.6891 34.8849 44.6891 35.5245L41.432 36.3042C41.432 35.6559 41.432 35.3405 41.432 34.7097L42.4455 34.4819C42.4455 32.9225 42.4455 32.1604 42.4455 30.6535C42.1066 30.7277 41.7614 30.7687 41.4147 30.7762C41.1178 30.7988 40.82 30.7466 40.5479 30.6243C40.2758 30.502 40.0379 30.3134 39.8555 30.0753C39.1798 29.1993 39.1798 27.3508 39.1798 25.2482C39.1798 23.1457 39.1798 21.9892 39.1798 19.7115C39.1798 19.2734 39.1798 19.0457 39.1798 18.5989L37.5426 18.9668V17.3198L40.4012 16.6452C40.4012 19.4136 40.4012 22.182 40.4012 24.9503C40.4012 26.7813 40.4012 28.367 40.8257 28.9277C40.9196 29.0325 41.0372 29.1127 41.1684 29.1615C41.2996 29.2103 41.4406 29.2263 41.5793 29.208C41.8412 29.2025 42.1021 29.1732 42.3589 29.1204C42.3589 25.365 42.3416 21.6096 42.3069 17.8542L41.3454 18.082C41.3454 17.4249 41.3454 17.092 41.3454 16.4262L44.5678 15.6641L44.5851 15.6728Z" fill="currentColor"/>
<path fill-rule="evenodd" clip-rule="evenodd" d="M50.9518 33.9913L47.7209 34.7886C47.7209 34.1403 47.7209 33.8249 47.7209 33.1941L48.6911 32.9576C48.6506 27.4325 48.613 21.9075 48.5784 16.3824L47.3744 16.6452C47.3744 18.8004 47.3744 19.8341 47.3744 21.9016L46.075 22.217C46.075 19.8692 46.075 18.7128 46.075 16.1634C46.075 15.8305 46.075 15.6641 46.075 15.2873L52.3293 13.7893C52.3293 14.1222 52.3293 14.2886 52.3293 14.6653C52.3293 17.1796 52.3293 18.3623 52.3293 20.7014L51.1079 21.0256C51.1079 18.9931 51.1079 17.9681 51.1079 15.7692L49.921 16.0495L50.0423 32.6159L50.9432 32.4144C50.9432 32.8875 50.9518 33.2905 50.9518 33.9913Z" fill="currentColor"/>
<path fill-rule="evenodd" clip-rule="evenodd" d="M62.5682 31.2669C62.5682 30.6274 62.5682 30.3032 62.5682 29.6812L63.8502 29.3921C63.8502 30.0229 63.8502 30.3383 63.8502 30.9778L62.5682 31.2669Z" fill="currentColor"/>
<path fill-rule="evenodd" clip-rule="evenodd" d="M62.5595 27.307L63.8415 27.0179C63.8415 25.8702 63.8415 25.2657 63.8415 24.1794C63.8415 23.6888 63.8415 23.1719 63.8415 22.6463C63.8796 22.0992 63.9665 21.5568 64.1014 21.0256C64.24 20.4474 64.4652 19.8166 64.6904 19.1771C64.9157 18.5375 65.1842 17.7491 65.3661 17.0395C65.5544 16.3059 65.6647 15.554 65.6953 14.7967C65.7315 14.162 65.6492 13.526 65.4527 12.922C65.2861 12.4372 64.9626 12.0236 64.5345 11.748C64.2127 11.5526 63.8515 11.4328 63.4777 11.3976C63.1121 11.3584 62.7426 11.3851 62.3862 11.4765L61.8838 11.5816C61.8838 12.2562 61.8838 12.5803 61.8838 13.2374L62.3689 13.141C62.6234 13.0758 62.8871 13.055 63.1485 13.0797C63.3799 13.0976 63.6045 13.1663 63.8069 13.2812C64.0076 13.4038 64.1605 13.5925 64.24 13.8156C64.3593 14.2065 64.4062 14.6163 64.3786 15.0245C64.3506 15.6459 64.2577 16.2627 64.1014 16.8644C63.9368 17.5302 63.7116 18.196 63.4864 18.8355C63.2611 19.475 63.0099 20.2108 62.8454 20.8766C62.7043 21.5015 62.6173 22.1377 62.5855 22.7778C62.5855 23.3735 62.5855 23.9166 62.5855 24.4247C62.5508 25.5899 62.5595 26.1593 62.5595 27.307Z" fill="currentColor"/>
<path fill-rule="evenodd" clip-rule="evenodd" d="M76.8697 26.825C76.8697 27.447 76.8697 27.7624 76.8697 28.4019C75.553 28.6122 74.912 28.7173 73.604 28.9451C73.604 28.3056 73.604 27.9902 73.604 27.3682L74.5828 27.1579C74.5828 21.7088 74.5828 16.2597 74.5828 10.8106L73.63 11.012C73.63 10.3638 73.63 10.0309 73.63 9.36501C75.8995 8.98831 77.0429 8.81311 79.3385 8.48901C79.3385 10.1593 79.3385 11.8297 79.3385 13.5001L77.9612 13.6928C77.9612 12.3787 77.9612 11.7129 77.9612 10.3375L75.8649 10.6441V26.974L76.8697 26.825Z" fill="currentColor"/>
<path fill-rule="evenodd" clip-rule="evenodd" d="M93.268 14.7354V16.2247C92.488 16.2247 91.708 16.2247 90.929 16.2948C90.929 19.8955 90.929 21.5512 90.929 25.3621C91.795 25.3621 92.193 25.3095 93.034 25.292C93.034 23.9692 93.034 23.3296 93.034 22.0593H94.359C94.359 23.6596 94.359 25.2628 94.359 26.8689C92.055 26.8689 90.894 26.9303 88.616 27.0792C88.616 26.4397 88.616 26.1243 88.616 25.5023L89.603 25.4409C89.603 20.0269 89.603 14.6128 89.603 9.19873L88.616 9.25133C88.616 8.60303 88.616 8.27013 88.616 7.60433C90.903 7.46413 92.081 7.42033 94.342 7.40283C94.342 9.06733 94.342 10.7347 94.342 12.4051H93.016C93.016 11.0998 93.016 10.4339 93.016 9.05853L90.92 9.11983V14.8055C91.284 14.788 93.285 14.7179 93.268 14.7354Z" fill="currentColor"/>
<path fill-rule="evenodd" clip-rule="evenodd" d="M86.1469 7.77075C84.6311 7.89345 83.8774 7.97226 82.3615 8.13876C81.8331 14.1836 81.2354 20.2285 80.681 26.2733L79.451 26.4398C79.451 26.7551 79.451 26.9128 79.451 27.2282C79.451 28.6124 79.451 29.3133 79.451 30.785L80.7677 30.6098C80.7677 29.4797 80.7677 28.9278 80.7677 27.8415C82.8726 27.5699 83.9208 27.4472 86.0259 27.2633C86.0259 28.3408 86.0259 28.8927 86.0259 30.0229L87.3509 29.9177C87.3509 28.446 87.3509 27.7451 87.3509 26.3609C87.3509 26.0455 87.3509 25.8878 87.3509 25.5812L86.1209 25.6776C86.1209 19.7087 86.1209 13.7397 86.1209 7.77075H86.1469ZM84.7957 25.8002C83.7042 25.9054 83.1585 25.9667 82.067 26.0981C82.5608 20.6139 83.0632 15.1385 83.5396 9.65425L84.813 9.53165C84.8072 14.9575 84.8014 20.3803 84.7957 25.8002Z" fill="currentColor"/>
<path fill-rule="evenodd" clip-rule="evenodd" d="M98.344 25.406L99.669 25.4586C99.669 26.0806 99.669 26.396 99.669 27.0355L98.344 26.9829V25.406Z" fill="currentColor"/>
<path fill-rule="evenodd" clip-rule="evenodd" d="M99.617 23.1107C99.617 21.9806 99.617 21.4199 99.617 20.3073C99.617 19.8255 99.617 19.3086 99.617 18.8092C99.651 18.2969 99.735 17.7892 99.868 17.2936C100.039 16.7249 100.242 16.1663 100.475 15.6204C100.741 14.9914 100.972 14.348 101.168 13.693C101.361 12.9962 101.471 12.2786 101.497 11.5554C101.561 10.9121 101.511 10.2625 101.35 9.63683C101.168 9.09073 100.845 8.60383 100.414 8.22643C100.097 7.95323 99.733 7.74232 99.34 7.60442C98.987 7.47672 98.615 7.41152 98.24 7.41162H97.729V9.05862H98.24C98.508 9.05822 98.774 9.10263 99.028 9.19003C99.271 9.27073 99.497 9.39542 99.695 9.55802C99.897 9.72682 100.049 9.94783 100.137 10.1975C100.255 10.5976 100.302 11.0159 100.275 11.4328C100.252 12.0258 100.159 12.614 99.998 13.1849C99.819 13.7802 99.608 14.3652 99.366 14.937C99.113 15.5405 98.893 16.1576 98.707 16.7855C98.547 17.3813 98.446 17.9917 98.404 18.6077C98.404 19.1859 98.404 19.7116 98.404 20.2197C98.404 21.3323 98.404 21.8842 98.404 23.0231L99.617 23.1107Z" fill="currentColor"/>
<path fill-rule="evenodd" clip-rule="evenodd" d="M149.486 34.9551L150.768 35.2617C150.768 35.9013 150.768 36.2167 150.768 36.8649L149.486 36.5583C149.486 35.9188 149.486 35.5859 149.486 34.9551Z" fill="currentColor"/>
<path fill-rule="evenodd" clip-rule="evenodd" d="M150.777 32.8611C150.777 31.696 150.777 31.109 150.777 29.9789C150.777 29.4795 150.777 28.9539 150.777 28.437C150.808 27.9249 150.889 27.4172 151.019 26.9214C151.182 26.3733 151.376 25.8351 151.6 25.3094C151.859 24.7014 152.081 24.0783 152.267 23.4434C152.456 22.752 152.563 22.0403 152.587 21.3233C152.619 20.649 152.54 19.9742 152.353 19.3259C152.184 18.7392 151.888 18.1977 151.487 17.7402C151.185 17.4124 150.835 17.1345 150.448 16.9167C150.113 16.7235 149.751 16.5845 149.374 16.505L148.88 16.3823C148.88 17.0569 148.88 17.3898 148.88 18.0469L149.374 18.1695C149.641 18.2263 149.898 18.3237 150.136 18.4586C150.377 18.5903 150.596 18.7587 150.786 18.958C150.978 19.1656 151.123 19.414 151.21 19.6851C151.325 20.101 151.371 20.533 151.349 20.9642C151.328 21.5569 151.238 22.1451 151.08 22.7163C150.91 23.3124 150.705 23.8975 150.465 24.4684C150.218 25.0393 150.004 25.6244 149.824 26.2205C149.666 26.8165 149.568 27.427 149.529 28.0428C149.529 28.6297 149.529 29.1729 149.529 29.6985C149.529 30.8462 149.529 31.4507 149.529 32.5808L150.777 32.8611Z" fill="currentColor"/>
<path fill-rule="evenodd" clip-rule="evenodd" d="M128.056 29.7073C128.056 30.3381 128.056 30.6534 128.056 31.3017L124.807 30.5834V28.9889L125.777 29.1992C125.777 23.6916 125.777 18.187 125.777 12.6853L124.798 12.4838C124.798 11.8268 124.798 11.4939 124.798 10.8193C127.068 11.2749 128.203 11.5202 130.464 12.0195C130.464 12.3524 130.464 12.5276 130.464 12.8956C130.464 14.6477 130.464 15.4712 130.464 17.1182L129.156 16.8291C129.156 15.4975 129.156 14.8229 129.156 13.43L127.085 12.9832C127.085 18.4907 127.085 24.0012 127.085 29.5146L128.056 29.7073Z" fill="currentColor"/>
<path fill-rule="evenodd" clip-rule="evenodd" d="M137.194 13.5791L133.47 12.7031C132.941 18.6603 132.361 24.6175 131.815 30.5748L130.602 30.2857C130.602 30.6011 130.602 30.7588 130.602 31.0829C130.602 32.4846 130.602 33.1942 130.602 34.6748L131.902 34.9814C131.902 33.8425 131.902 33.2818 131.902 32.1955C133.972 32.6861 135.011 32.9402 137.099 33.4483C137.099 34.5434 137.099 35.0953 137.099 36.2429L138.398 36.5671C138.398 35.0865 138.398 34.3769 138.398 32.9665C138.398 32.6423 138.398 32.4846 138.398 32.1692L137.186 31.8714C137.186 26.0309 137.186 20.2139 137.186 14.4201C137.186 14.0872 137.186 13.9208 137.186 13.5441L137.194 13.5791ZM134.596 14.6392L135.852 14.937C135.852 20.4738 135.852 26.0222 135.852 31.5823L133.166 30.934C133.669 25.4761 134.162 20.062 134.639 14.6392H134.596Z" fill="currentColor"/>
<path fill-rule="evenodd" clip-rule="evenodd" d="M114.603 10.6616L116.465 10.9507C116.465 10.2937 116.465 9.96951 116.465 9.29501C115.305 9.11101 114.733 9.01461 113.555 8.84821C112.992 11.8881 112.689 13.2723 112.143 16.0144L111.45 15.918V10.2148L112.437 10.3462C112.437 9.69791 112.437 9.36501 112.437 8.69051C111.112 8.50651 110.454 8.41892 109.137 8.27002C109.137 8.94452 109.137 9.26871 109.137 9.92571L110.124 10.0484C110.124 15.4917 110.124 20.935 110.124 26.3782L109.146 26.2819C109.146 26.9039 109.146 27.2193 109.146 27.8588C110.462 28.0252 111.121 28.1216 112.446 28.3231V26.7462L111.458 26.5973V17.4248L112.177 17.5212C113.113 21.2795 113.589 23.0755 114.516 27.0178L113.745 26.8951C113.745 27.5171 113.745 27.8413 113.745 28.4808C115.062 28.691 115.712 28.7962 117.011 29.0327V27.4558L115.868 27.2543C115.062 23.8026 114.213 20.3684 113.347 16.9255C113.849 14.5075 114.109 13.2898 114.603 10.6616Z" fill="currentColor"/>
<path fill-rule="evenodd" clip-rule="evenodd" d="M144.661 30.1981C144.315 25.7301 143.96 21.2622 143.63 16.7943L143.206 16.6892C142.868 20.9906 142.496 25.2834 142.132 29.5761L144.653 30.1981H144.661ZM144.8 15.4101C145.25 21.6389 145.744 27.859 146.22 34.0791L147.139 34.3068C147.139 34.9376 147.139 35.2617 147.139 35.91L144.133 35.1741C144.133 34.5258 144.133 34.2105 144.133 33.5709L144.93 33.7637C144.869 32.9577 144.835 32.5635 144.774 31.775L142.002 31.0917C141.941 31.8538 141.907 32.2306 141.846 33.0103L142.643 33.2117C142.643 33.8425 142.643 34.1667 142.643 34.815L139.62 34.0703C139.62 33.422 139.62 33.1066 139.62 32.4671L140.547 32.6949C140.997 27.2545 141.465 21.8229 141.907 16.3825L140.33 16.0058C140.33 15.3488 140.33 15.0159 140.33 14.3413L144.8 15.4101Z" fill="currentColor"/>
<path fill-rule="evenodd" clip-rule="evenodd" d="M186.682 44.6789C178.466 44.4369 170.27 43.7259 162.133 42.5509V46.4309C140.14 41.7969 117.643 34.7709 95.035 34.7709C73.0583 34.7709 49.7911 41.8409 27.9533 46.4579V42.5859C19.8357 43.7469 11.66 44.4459 3.46484 44.6789V44.1979C11.8176 43.9709 20.1503 43.2539 28.4211 42.0509V45.8709C50.1809 41.2799 73.0495 34.3066 95.0259 34.3066C117.332 34.3066 139.923 41.3149 161.657 45.8449V42.0509C169.949 43.2739 178.305 44.0079 186.682 44.2499V44.6789Z" fill="currentColor"/>
<path fill-rule="evenodd" clip-rule="evenodd" d="M3.46484 9.9171C16.1139 9.4614 28.7076 7.9968 41.1287 5.5367V8.6555C58.8086 4.538 76.7224 0 95.035 0C113.347 0 131.252 4.5205 148.992 8.6292V5.5192C161.411 7.994 174.006 9.4588 186.656 9.8995V10.3814C174.178 9.9587 161.752 8.538 149.495 6.1325V9.26C131.581 5.125 113.537 0.499401 95.035 0.499401C76.5319 0.499401 58.5054 5.1337 40.6177 9.26V6.1325C28.3636 8.5408 15.9408 9.9673 3.46484 10.3989V9.9171Z" fill="currentColor"/>
<path fill-rule="evenodd" clip-rule="evenodd" d="M30.6906 39.353C21.6759 40.774 12.5837 41.638 3.46484 41.937V43.278C7.45824 43.155 11.4515 42.945 15.4189 42.586C20.0966 42.183 24.7598 41.634 29.4086 40.939V44.679C32.579 44.014 35.7667 43.295 38.9372 42.551C57.414 38.275 76.1853 33.3255 95.0259 33.3255C113.867 33.3255 132.274 38.153 150.578 42.402C153.956 43.19 157.334 43.952 160.713 44.644V40.912C164.637 41.508 168.561 41.99 172.476 42.367C177.2 42.845 181.932 43.137 186.674 43.243V41.937C177.535 41.639 168.422 40.776 159.387 39.353V43.015C158.443 42.822 157.499 42.612 156.555 42.393C136.285 37.925 115.894 31.9939 95.0519 31.9939C73.1708 31.9939 51.974 38.494 30.6906 43.015V39.353Z" fill="currentColor"/>
<path fill-rule="evenodd" clip-rule="evenodd" d="M3.46484 12.7118V11.389C15.6237 10.9715 27.7309 9.58297 39.6735 7.23637V10.4428C57.8644 6.26397 76.298 1.43677 95.035 1.43677C113.771 1.43677 132.283 6.23767 150.474 10.4253V7.23637C162.416 9.58427 174.523 10.9728 186.682 11.389V12.7469C181.935 12.6067 177.206 12.3176 172.502 11.8708C165.572 11.205 158.642 10.1975 151.756 8.93597V12.1862C133.166 7.84086 114.213 2.77717 95.035 2.77717C76.0641 2.77717 57.3966 7.77077 38.9891 12.0022L38.3308 12.1424V8.86587C30.7426 10.2501 23.0851 11.389 15.3842 12.0197C11.4082 12.3526 7.42354 12.5979 3.46484 12.7118Z" fill="currentColor"/>
<path fill-rule="evenodd" clip-rule="evenodd" d="M27.5029 17.7317V19.0896C19.5399 20.3442 11.5154 21.1601 3.46484 21.5338V20.1496C11.5148 19.7836 19.5393 18.9764 27.5029 17.7317Z" fill="currentColor"/>
<path fill-rule="evenodd" clip-rule="evenodd" d="M27.5029 29.8477V31.2056C19.5399 32.4598 11.5154 33.2757 3.46484 33.6497V32.3094C11.5157 31.9295 19.5402 31.1077 27.5029 29.8477Z" fill="currentColor"/>
<path fill-rule="evenodd" clip-rule="evenodd" d="M27.503 23.8027V25.1606C18.3976 26.5973 9.2117 27.4517 0 27.7187V26.3608C9.2118 26.0944 18.3977 25.24 27.503 23.8027Z" fill="currentColor"/>
<path fill-rule="evenodd" clip-rule="evenodd" d="M26.1689 54.7451L14.2668 62.6301L15.2283 64.1891L26.9225 58.0571L26.9745 58.1011L16.0339 65.3721L16.5883 66.2481L28.5423 58.3631L27.5375 56.8041L16.0859 62.7611V62.7091L26.7839 55.7001L26.1775 54.7721L26.1689 54.7451ZM31.7388 62.5341L26.9398 66.6771L28.0919 68.0351L32.9168 63.9531L33.6445 64.8291L22.7472 74.1681L21.9936 73.2481L27.191 68.7451L26.0389 67.3871L20.8415 71.8371L20.0446 70.9611L30.9505 61.6571L31.7474 62.5341H31.7388ZM36.4857 68.0181L35.6715 68.7711L36.6157 69.7441L27.191 79.0211L27.988 79.8451L37.4213 70.6111L38.3655 71.5831L39.1277 70.7771L36.529 68.0181H36.4857ZM32.8649 84.5321L35.247 86.6081L35.966 85.7321L34.4761 84.4531L38.2442 80.0721L39.6388 81.3251L40.3578 80.4491L38.9805 79.2231L42.3675 75.2541L43.8574 76.5591L44.5764 75.6831L42.1682 73.5901L32.8649 84.5321ZM48.3185 78.3471L51.7401 80.8431L43.3723 92.5131L42.3848 91.7941L50.1289 81.0191L48.639 79.9671L43.3636 87.3261C42.9989 87.8671 42.6026 88.3841 42.1769 88.8771C41.8635 89.2141 41.5082 89.5081 41.1201 89.7531C40.8336 89.9421 40.4888 90.0201 40.1499 89.9721C39.7648 89.9221 39.4031 89.7571 39.1104 89.4991L39.8207 88.5001C39.8776 88.5601 39.9463 88.6081 40.0223 88.6391C40.0984 88.6711 40.1802 88.6861 40.2625 88.6841C40.4098 88.7281 40.557 88.6841 40.7476 88.5261C40.9813 88.3751 41.1914 88.1891 41.3713 87.9751C41.6604 87.6221 41.9293 87.2541 42.1769 86.8711L48.3012 78.3031L48.3185 78.3471ZM55.7335 83.1301L50.64 92.4161C50.4581 92.8201 50.2376 93.2041 49.9817 93.5641C49.7391 93.8621 49.6006 94.1161 49.41 94.2121C49.2897 94.3331 49.1404 94.4211 48.9768 94.4661C48.8027 94.4661 48.6319 94.4171 48.4831 94.3261L47.8681 95.3771C48.2084 95.5841 48.597 95.6961 48.9942 95.7011C49.3286 95.7171 49.6567 95.6051 49.9124 95.3861C50.248 95.0951 50.5398 94.7551 50.7786 94.3791C51.1642 93.8371 51.5116 93.2701 51.8181 92.6791L56.1493 84.6891L57.7258 85.5651L51.4196 97.2431L52.4591 97.8131L59.337 85.1801L55.7335 83.1301ZM57.925 100.117L63.4689 86.8181L66.3708 88.0971L65.955 89.0871L64.1359 88.3341L62.1349 93.1611L63.8674 93.9141L63.4516 94.9131L61.7191 94.1601L59.4843 99.5391L61.2167 100.345L60.8009 101.343L57.899 100.117H57.925ZM70.0523 89.3061L65.9291 103.113L67.0552 103.437L69.1168 96.5341H69.1688L68.6317 103.954L69.7578 104.278L70.2342 96.2181L73.6992 90.4191L72.5731 90.0951L69.4113 95.5881H69.3593L71.1438 89.6221L70.0177 89.2971L70.0523 89.3061ZM77.2682 91.3301L77.0948 92.3811L78.3682 92.7051L75.449 105.697L76.5751 105.925L79.5376 92.9771L80.811 93.2481L81.0362 92.2061L77.3114 91.3301H77.2682ZM84.0247 92.6351L84.3885 103.735L83.5223 107.108L84.6917 107.23L88.5119 93.2131L87.2909 93.0911L85.4369 100.432H85.3849L85.2809 92.8281L84.0074 92.6531L84.0247 92.6351ZM93.3629 93.3891L91.2229 107.756H92.3929L92.9469 103.796H95.0429L95.4679 107.835H96.6369L94.9829 93.3541H93.3199L93.3629 93.3891ZM94.9649 102.736L93.1549 102.675L94.16 94.4051H94.2119L94.9649 102.736ZM100.83 93.2831L101.913 103.796C101.973 104.339 102.034 104.777 102.034 105.128C102.048 105.422 102.022 105.717 101.956 106.004C101.913 106.249 101.817 106.398 101.67 106.451C101.612 106.505 101.543 106.546 101.469 106.573C101.395 106.601 101.316 106.612 101.237 106.608L101.358 107.844C101.734 107.834 102.102 107.725 102.424 107.528C102.715 107.318 102.918 107.006 102.995 106.652C103.137 106.205 103.21 105.738 103.212 105.268C103.212 104.725 103.143 104.085 103.073 103.349L102.112 94.2301L103.844 94.0461L105.282 107.301L106.452 107.178L104.944 92.8631L100.804 93.2921L100.83 93.2831ZM110.488 91.9871L109.319 92.2061L112.091 106.372L114.083 105.986C114.518 105.919 114.922 105.72 115.244 105.417C115.51 105.171 115.677 104.834 115.712 104.471C115.784 104.048 115.784 103.615 115.712 103.192L114.845 98.9171C114.802 98.4971 114.659 98.0951 114.43 97.7431C114.255 97.4151 113.973 97.1581 113.633 97.0161C113.218 96.8861 112.774 96.8861 112.359 97.0161L111.493 97.1821L110.488 91.9871ZM111.736 98.2331L112.515 98.0671C112.674 98.0201 112.842 98.0201 113 98.0671C113.153 98.0771 113.295 98.1461 113.399 98.2601C113.505 98.4051 113.576 98.5731 113.607 98.7501L114.586 103.77C114.659 103.977 114.659 104.203 114.586 104.41C114.534 104.557 114.433 104.681 114.3 104.76C114.143 104.828 113.981 104.88 113.815 104.918L113.087 105.032L111.744 98.2421L111.736 98.2331ZM118.752 89.9461L117.591 90.2611L121.819 104.05L122.936 103.682L120.9 97.0591L122.633 96.5341L124.669 103.157L125.786 102.789L121.559 89.0521L120.407 89.3591L122.286 95.4391L120.554 95.9641L118.726 89.9281L118.752 89.9461ZM127.094 86.9581L125.977 87.3791L131.365 100.748L133.253 99.9681C133.659 99.8231 134.012 99.5571 134.266 99.2061C134.382 99.0621 134.466 98.8941 134.513 98.7141C134.559 98.5341 134.567 98.3461 134.535 98.1631C134.512 97.7421 134.421 97.3281 134.266 96.9371L132.629 92.9241C132.496 92.5171 132.29 92.1371 132.023 91.8031C131.766 91.5421 131.442 91.3601 131.087 91.2771C130.653 91.2411 130.218 91.3201 129.823 91.5051L129.052 91.8121L127.103 86.9581H127.094ZM129.459 92.8371L130.186 92.5301C130.343 92.4761 130.506 92.4411 130.672 92.4251C130.829 92.4261 130.983 92.4751 131.113 92.5651C131.236 92.6951 131.338 92.8421 131.417 93.0031L133.314 97.7081C133.39 97.9121 133.428 98.1291 133.426 98.3471C133.398 98.5051 133.315 98.6481 133.192 98.7501C133.053 98.8721 132.886 98.9591 132.707 99.0041L132.032 99.2671L129.433 92.8541L129.459 92.8371ZM131.893 84.9521L137.281 98.2681L136.163 98.7331L130.801 85.4161L131.919 84.9961L131.893 84.9521ZM133.495 79.7831C133.681 80.1161 133.946 80.3961 134.266 80.5981C134.508 80.7201 134.785 80.7481 135.046 80.6771C135.359 80.6291 135.656 80.5061 135.912 80.3181C136.149 80.1881 136.36 80.0161 136.536 79.8101C136.715 79.5791 136.829 79.3031 136.865 79.0121C136.832 78.6531 136.726 78.3041 136.553 77.9871L135.973 78.3471C136.004 78.3971 136.024 78.4531 136.033 78.5121C136.042 78.5711 136.039 78.6311 136.025 78.6881C136.004 78.8521 135.938 79.0071 135.834 79.1351C135.713 79.2921 135.566 79.4281 135.401 79.5381C135.228 79.6211 135.048 79.6921 134.864 79.7481C134.704 79.7761 134.54 79.7761 134.379 79.7481C134.26 79.7011 134.157 79.6181 134.085 79.5121L133.556 79.8711L133.495 79.7831ZM134.925 83.2261L142.296 95.5701L143.795 94.6151L138.234 82.5871V82.5341L144.999 93.8531L145.917 93.2921L138.546 81.0271L136.96 82.0001L142.418 93.7391L135.834 82.7011L134.916 83.2091L134.925 83.2261ZM145.995 75.3421L155.385 86.2141L156.295 85.4081L151.591 80.0111L157.534 84.3301L158.4 83.5681L151.912 78.9071L148.914 72.7751L148.005 73.5811L150.95 79.1961V79.2401L146.905 74.5361L145.995 75.3421ZM152.457 69.7171L155.377 66.6951L165.486 76.8571L164.671 77.7331L155.377 68.3331L154.086 69.6471L160.461 76.0861C160.937 76.5431 161.386 77.0291 161.804 77.5411C162.092 77.8971 162.331 78.2921 162.514 78.7141C162.631 79.0311 162.655 79.3751 162.584 79.7041C162.453 80.0701 162.25 80.4041 161.986 80.6861L161.12 79.8101C161.248 79.6821 161.346 79.5261 161.406 79.3541C161.432 79.1881 161.411 79.0181 161.345 78.8631C161.206 78.6021 161.037 78.3581 160.843 78.1361C160.571 77.7971 160.282 77.4721 159.976 77.1641L152.457 69.7171ZM157.923 63.9531L167.357 69.6911L169.652 72.2581L170.414 71.3031L160.834 60.4491L160.072 61.3251L165.165 66.9491L158.738 62.9281L157.923 63.9531ZM162.627 57.4871L164.81 54.1851L165.745 54.8071L164.23 57.1111L168.561 60.0371L169.037 59.3361C169.27 58.9581 169.603 58.6551 169.999 58.4601C170.32 58.3121 170.683 58.2871 171.021 58.3901C171.42 58.5091 171.802 58.6831 172.156 58.9071L174.832 60.7291C175.166 60.9711 175.459 61.2671 175.698 61.6051C175.94 61.8941 176.069 62.2611 176.062 62.6391C176.041 63.0681 175.896 63.4821 175.646 63.8301L174.512 65.5301L162.627 57.4701V57.4871ZM169.427 60.6591L169.903 59.9581C169.989 59.8181 170.105 59.6981 170.241 59.6081C170.29 59.5551 170.352 59.5171 170.421 59.4991C170.49 59.4801 170.563 59.4811 170.631 59.5021C170.825 59.5011 171.015 59.5661 171.168 59.6861L174.382 61.8941C174.578 61.9831 174.737 62.1381 174.832 62.3321C174.879 62.4041 174.908 62.4851 174.919 62.5701C174.929 62.6551 174.92 62.7421 174.893 62.8231C174.834 62.9811 174.756 63.1311 174.659 63.2691L174.235 63.9181L169.427 60.6591Z" fill="currentColor"/>
<path fill-rule="evenodd" clip-rule="evenodd" d="M82.7081 124.918V116.517H82.2404L79.7369 118.812L80.1267 119.837L81.5387 118.497V124.901L82.7081 124.918ZM90.461 124.997C90.831 124.776 91.172 124.508 91.474 124.2C91.759 123.878 92.019 123.535 92.254 123.175C92.516 122.798 92.75 122.403 92.956 121.992C93.133 121.585 93.263 121.159 93.345 120.722C93.435 120.334 93.488 119.938 93.501 119.539C93.515 119.132 93.435 118.727 93.268 118.356C93.194 117.98 93.034 117.625 92.8 117.323C92.573 117.07 92.307 116.857 92.011 116.692C91.71 116.588 91.394 116.535 91.076 116.534C90.759 116.549 90.445 116.601 90.14 116.692C89.889 116.852 89.654 117.037 89.439 117.244C89.255 117.489 89.098 117.753 88.971 118.032C88.763 118.649 88.763 119.317 88.971 119.933C89.1 120.187 89.257 120.425 89.439 120.643C89.609 120.867 89.821 121.054 90.062 121.195C90.343 121.286 90.634 121.34 90.929 121.353H91.319C91.474 121.274 91.63 121.274 91.708 121.195C91.786 121.116 92.02 121.116 92.098 121.037C92.002 121.391 91.872 121.735 91.708 122.062C91.474 122.448 91.213 122.817 90.929 123.166C90.581 123.5 90.217 123.816 89.837 124.112L90.461 124.988V124.997ZM89.915 118.865C89.899 118.651 89.961 118.439 90.088 118.269C90.153 118.066 90.293 117.897 90.478 117.796C90.676 117.707 90.887 117.654 91.102 117.638C91.287 117.619 91.475 117.646 91.648 117.717C91.804 117.796 91.882 117.953 92.037 118.111C92.146 118.251 92.225 118.412 92.271 118.584C92.341 118.759 92.368 118.949 92.349 119.136V119.767C92.159 119.925 91.95 120.058 91.726 120.161C91.492 120.161 91.336 120.24 91.18 120.24C90.963 120.235 90.75 120.182 90.556 120.082C90.364 119.967 90.203 119.804 90.088 119.609C89.992 119.385 89.94 119.144 89.933 118.9L89.915 118.865ZM103.143 116.569H98.292V117.682H101.583L98.846 124.489L99.782 124.962L103.143 116.569ZM111.519 116.569H108.236V120.897C108.596 120.834 108.962 120.808 109.328 120.818C109.631 120.875 109.924 120.982 110.194 121.134C110.406 121.26 110.571 121.454 110.662 121.686C110.795 121.896 110.851 122.147 110.817 122.395C110.83 122.583 110.804 122.771 110.739 122.947C110.662 123.105 110.506 123.262 110.428 123.42C110.276 123.571 110.088 123.68 109.882 123.736C109.712 123.823 109.526 123.876 109.336 123.893C109.042 123.879 108.751 123.826 108.47 123.736C108.177 123.637 107.908 123.475 107.682 123.262V124.524C107.916 124.603 108.071 124.682 108.305 124.761C108.475 124.849 108.661 124.902 108.851 124.918C109.053 124.983 109.264 125.009 109.475 124.997C109.792 124.99 110.107 124.937 110.41 124.839C110.714 124.724 110.985 124.534 111.199 124.287C111.425 124.026 111.609 123.731 111.744 123.411C111.956 122.715 111.956 121.97 111.744 121.274C111.609 120.955 111.425 120.659 111.199 120.398C110.62 119.941 109.895 119.717 109.163 119.767V117.629H111.51L111.519 116.569Z" fill="currentColor"/>
<path fill-rule="evenodd" clip-rule="evenodd" d="M140.945 48.0961C139.395 48.0261 136.354 48.1661 131.893 48.2981L105.152 49.3221L104.944 49.1821L108.73 46.4311L109.743 45.6781L108.461 45.6081C104 45.2661 99.548 44.9951 95.087 44.9951C90.626 44.9951 86.104 45.2661 81.6513 45.6081L80.3693 45.6781L81.4261 46.4311L84.9344 49.0601C84.8651 49.1301 84.7957 49.2611 84.6658 49.3311L58.2197 48.2981C53.7585 48.1571 50.7874 48.0261 49.1675 48.0961C46.3955 48.2981 46.1963 48.8491 48.5611 50.0761C51.0696 51.1861 53.6586 52.1001 56.3053 52.8091C58.6008 53.4221 61.2342 54.1061 64.1014 54.6581C63.9198 54.6521 63.7384 54.6751 63.5643 54.7281C57.6913 55.4111 54.6508 55.7531 54.3822 56.4801C54.183 56.9621 54.5815 57.2951 55.465 57.6451C58.1597 58.4131 60.9165 58.9381 63.7029 59.2131C64.7857 59.2831 65.9292 59.4151 67.1679 59.4851C62.6461 60.6411 60.3506 61.3251 60.238 62.0171C60.0994 62.4281 60.5065 62.7701 61.3208 62.8931C63.796 63.3071 66.3087 63.4451 68.8137 63.3051C69.68 63.3051 70.7021 63.2341 71.6463 63.1641C69.9138 63.9181 68.0688 64.6011 66.5182 65.4161C64.4912 66.5111 64.4912 66.9841 66.5875 67.1681C68.2351 67.2181 69.8839 67.1271 71.5164 66.8961C72.7291 66.6951 74.1151 66.4851 75.5011 66.2131C73.8299 67.0881 72.2283 68.0931 70.7108 69.2181C69.8965 69.9711 70.3036 70.5151 71.3864 70.4441C72.5039 70.3691 73.6118 70.1871 74.6955 69.9011C75.7782 69.6301 77.0603 69.2181 78.4116 68.8061C78.4898 68.8881 78.5805 68.9561 78.6801 69.0081C76.9477 70.3041 75.7089 71.2591 75.1026 71.8021C73.552 73.2391 73.6213 73.6511 75.5097 73.3001C76.701 73.0371 77.8622 72.6491 78.9747 72.1441C79.8674 71.8191 80.7359 71.4301 81.5734 70.9791C81.3712 71.4581 81.4376 71.7321 81.7726 71.8021C81.1302 72.8131 80.5516 73.8631 80.0401 74.9471C79.8481 75.2531 79.7543 75.6111 79.7716 75.9721C79.7918 76.0731 79.8345 76.1681 79.8965 76.2491C79.9585 76.3311 80.0381 76.3971 80.1292 76.4431C80.2203 76.4881 80.3205 76.5121 80.4222 76.5131C80.5238 76.5131 80.6243 76.4901 80.7158 76.4451C81.9461 75.7161 83.0811 74.8331 84.0941 73.8171C84.3931 73.5081 84.7083 73.2161 85.038 72.9411C84.7698 73.5541 84.5619 74.0981 84.3626 74.6501C83.7824 76.0111 83.3524 77.4331 83.0806 78.8901C83.0806 79.2311 83.1499 79.5031 83.4184 79.6431C83.8949 79.9151 84.4319 79.3721 84.7005 79.0911C85.523 78.1851 86.29 77.2281 86.996 76.2261C87.201 75.9191 87.426 75.6261 87.672 75.3501C87.533 75.9641 87.403 76.5861 87.265 77.1031C87.126 77.9791 86.996 78.7411 86.927 79.3541C86.76 80.1631 86.693 80.9901 86.727 81.8161C86.797 82.5691 87.403 82.8411 87.94 82.2891C88.446 81.6731 88.856 80.9811 89.153 80.2391C89.545 79.5841 89.884 78.8991 90.166 78.1891L90.504 77.4351C90.515 78.0201 90.492 78.6051 90.435 79.1881V82.8761C90.487 83.1911 90.51 83.5111 90.504 83.8311C90.643 84.4441 90.981 85.3291 91.717 84.6451L92.124 84.0321C92.198 83.8211 92.288 83.6161 92.393 83.4191C92.531 82.9461 92.661 82.4641 92.869 81.8511C93.138 80.9751 93.337 80.0991 93.614 79.2231C93.691 79.7421 93.737 80.2661 93.753 80.7911C93.891 81.6671 93.952 82.4991 94.09 83.1821C94.131 83.7731 94.221 84.3591 94.359 84.9351C94.389 85.2891 94.48 85.6361 94.628 85.9601C94.757 86.3711 95.035 86.6431 95.303 86.6431C95.572 86.6431 95.84 86.3711 95.979 85.9601C96.095 85.6261 96.185 85.2831 96.247 84.9351C96.317 84.4531 96.447 83.8481 96.516 83.1821C96.585 82.5171 96.715 81.6841 96.784 80.7911C96.854 80.3181 96.923 79.7661 96.984 79.2231C97.183 80.0991 97.46 80.9751 97.729 81.8511C97.867 82.4641 98.066 82.9461 98.205 83.4191C98.282 83.6291 98.372 83.8341 98.474 84.0321C98.561 84.2651 98.7 84.4751 98.881 84.6451C99.556 85.3291 99.964 84.4441 100.024 83.8311C100.087 83.5171 100.111 83.1961 100.093 82.8761C100.154 82.3561 100.178 81.8311 100.163 81.3081C100.163 80.6941 100.163 79.9411 100.093 79.1961C100.103 78.6111 100.08 78.0261 100.024 77.4441L100.431 78.1981C100.769 79.0211 101.107 79.6961 101.375 80.2481C101.653 80.9871 102.014 81.6931 102.45 82.3501C102.987 82.8931 103.532 82.6221 103.671 81.8771C103.668 81.0521 103.599 80.2291 103.463 79.4151C103.325 78.8021 103.264 78.0491 103.056 77.1641C102.987 76.6211 102.848 76.0071 102.718 75.4121C102.917 75.6831 103.125 76.0251 103.325 76.2881C104.069 77.2431 104.814 78.2681 105.62 79.1531C105.958 79.4241 106.486 79.9761 106.971 79.7041C107.085 79.6171 107.175 79.5021 107.234 79.3711C107.293 79.2391 107.319 79.0951 107.309 78.9511C107.037 77.4941 106.607 76.0721 106.027 74.7111C105.819 74.1681 105.551 73.6161 105.352 73.0031C105.689 73.2741 105.958 73.6161 106.296 73.8791C107.306 74.8941 108.438 75.7771 109.665 76.5071C109.752 76.5491 109.847 76.5701 109.943 76.5681C110.039 76.5661 110.134 76.5411 110.218 76.4951C110.303 76.4491 110.376 76.3831 110.43 76.3021C110.484 76.2221 110.519 76.1301 110.532 76.0341C110.57 75.6801 110.5 75.3221 110.332 75.0091C109.817 73.9091 109.208 72.8571 108.513 71.8641C108.92 71.7941 108.99 71.5221 108.782 71.0401C109.587 71.4891 110.424 71.8791 111.285 72.2051C112.402 72.7001 113.562 73.0881 114.75 73.3621C116.639 73.7031 116.777 73.2921 115.227 71.8641C114.62 71.3121 113.399 70.3571 111.649 69.0691L111.848 68.8681C113.269 69.2791 114.447 69.6821 115.564 69.9631C116.671 70.2501 117.802 70.4321 118.943 70.5061C120.026 70.5761 120.433 70.0331 119.618 69.2791C118.087 68.1701 116.484 67.1661 114.819 66.2741C116.24 66.5461 117.591 66.7561 118.804 66.9581C120.414 67.1861 122.039 67.2771 123.664 67.2291C125.76 67.0281 125.76 66.5461 123.802 65.4771C122.252 64.6541 120.424 63.9791 118.605 63.2261C119.618 63.2961 120.563 63.3661 121.507 63.3661C123.992 63.5111 126.485 63.3721 128.939 62.9541C129.805 62.8141 130.152 62.4721 130.091 62.0781C129.961 61.3951 127.596 60.7111 123.161 59.5461C124.374 59.4761 125.526 59.3361 126.626 59.2751C129.412 58.9921 132.168 58.4671 134.864 57.7061C135.73 57.3651 136.077 57.0231 135.947 56.5411C135.678 55.7881 132.638 55.4461 126.696 54.7891C126.523 54.7281 126.34 54.7051 126.158 54.7191C129.069 54.1761 131.694 53.4931 133.955 52.8711C136.583 52.1481 139.157 51.2341 141.655 50.1371C143.951 48.9021 143.752 48.3851 140.98 48.1571L140.945 48.0961ZM83.0026 46.4311C87.057 46.1601 91.041 45.8881 95.13 45.8881C99.219 45.8881 103.169 46.1601 107.153 46.4311L103.03 49.4361C102.393 49.1421 101.703 48.9811 101.003 48.9631C100.384 48.9621 99.771 49.0891 99.202 49.3361C98.633 49.5831 98.119 49.9451 97.694 50.4001C97.254 50.8341 96.906 51.3551 96.674 51.9311C96.441 52.5071 96.329 53.1251 96.343 53.7471V54.2281L95.13 55.1051L93.553 54.0361V53.7641C93.567 53.1421 93.455 52.5241 93.222 51.9491C92.99 51.3731 92.642 50.8521 92.202 50.4181C91.777 49.9621 91.264 49.6001 90.694 49.3531C90.125 49.1061 89.512 48.9791 88.893 48.9811C88.262 48.9851 87.639 49.1251 87.065 49.3931L83.0026 46.4311ZM103.602 51.0131C103.952 51.3731 104.229 51.8011 104.415 52.2701C104.601 52.7391 104.692 53.2411 104.685 53.7471C104.688 54.2411 104.594 54.7311 104.409 55.1891C104.223 55.6471 103.95 56.0621 103.604 56.4121C103.258 56.7621 102.847 57.0381 102.395 57.2261C101.942 57.4141 101.457 57.5081 100.968 57.5051C100.485 57.5081 100.005 57.4131 99.559 57.2251C99.112 57.0371 98.708 56.7591 98.37 56.4101C98.007 56.0631 97.718 55.6441 97.52 55.1801C97.323 54.7171 97.221 54.2171 97.221 53.7121C97.221 53.2061 97.323 52.7071 97.52 52.2431C97.718 51.7791 98.007 51.3601 98.37 51.0131C98.709 50.6651 99.113 50.3881 99.559 50.2001C100.006 50.0121 100.485 49.9161 100.968 49.9181C101.943 49.9271 102.875 50.3201 103.567 51.0131H103.602ZM96.447 55.2451L95.095 57.5661L93.675 55.2451L94.818 56.0591L95.087 56.2611L95.355 56.0591L96.438 55.2451H96.447ZM92.687 53.7641C92.655 54.7581 92.242 55.7011 91.535 56.3921C91.017 56.9181 90.357 57.2771 89.638 57.4241C88.919 57.5711 88.173 57.5001 87.494 57.2191C86.815 56.9381 86.233 56.4601 85.823 55.8451C85.412 55.2301 85.19 54.5061 85.186 53.7641C85.174 53.0151 85.383 52.2791 85.786 51.6511C86.19 51.0231 86.769 50.5311 87.451 50.2371C88.133 49.9441 88.885 49.8631 89.613 50.0041C90.34 50.1451 91.01 50.5031 91.535 51.0311C91.896 51.3871 92.184 51.8121 92.381 52.2811C92.579 52.7501 92.683 53.2541 92.687 53.7641ZM85.757 49.5941L86.164 49.8661C85.965 50.0761 85.757 50.2071 85.558 50.4091C84.6945 51.3041 84.2097 52.5051 84.2067 53.7551C84.1997 54.3761 84.3155 54.9921 84.5473 55.5671C84.779 56.1421 85.122 56.6651 85.556 57.1041C85.99 57.5431 86.507 57.8901 87.075 58.1241C87.644 58.3591 88.253 58.4761 88.867 58.4691C90.104 58.4661 91.291 57.9751 92.176 57.1021C92.507 56.7591 92.781 56.3661 92.99 55.9371L94.688 58.6961L95.095 59.3801L95.502 58.6961L96.984 56.2431C97.171 56.5631 97.398 56.8581 97.659 57.1191C98.545 57.9931 99.732 58.4831 100.968 58.4861C101.582 58.4931 102.191 58.3761 102.76 58.1421C103.329 57.9071 103.845 57.5601 104.279 57.1211C104.713 56.6821 105.056 56.1601 105.288 55.5851C105.52 55.0101 105.636 54.3941 105.629 53.7731C105.626 52.5221 105.141 51.3221 104.277 50.4261C104.139 50.2861 103.94 50.1551 103.801 50.0151L104.208 49.7431C104.755 50.2441 105.212 50.8371 105.559 51.4951C105.91 52.1931 106.094 52.9641 106.096 53.7471C106.096 55.6561 104.884 57.5051 102.926 58.8021C100.497 60.2351 97.735 60.9911 94.922 60.9911C92.109 60.9911 89.347 60.2351 86.918 58.8021C84.9603 57.5051 83.7476 55.6651 83.7476 53.7471C83.7572 52.9421 83.9405 52.1501 84.2847 51.4251C84.6602 50.7311 85.159 50.1131 85.757 49.6031V49.5941ZM111.744 58.7491C112.052 58.6631 112.369 58.6161 112.689 58.6091L114.577 59.0821C115.859 59.4241 117.479 59.7651 118.7 60.2471C118.83 60.3171 118.899 60.3871 118.492 60.5191C117.013 60.9311 115.499 61.2071 113.971 61.3421C112.081 61.4901 110.182 61.4671 108.297 61.2721C107.69 61.2021 106.945 61.0621 106.2 60.9301C106.33 60.3171 106.4 59.6341 106.538 59.0211C108.274 59.0301 110.01 58.9391 111.736 58.7491H111.744ZM106.608 58.0661C106.746 56.9001 106.876 55.7441 106.945 54.5611C107.002 54.2911 107.025 54.0141 107.015 53.7381V53.5361L118.899 53.7381C121.498 53.8081 123.231 53.8081 124.028 53.9391C124.166 54.0091 123.083 54.5531 122.945 54.5531C121.457 55.2441 119.922 55.8291 118.354 56.3051C116.148 56.9861 113.887 57.4671 111.597 57.7411C109.938 57.9361 108.269 58.0271 106.599 58.0131L106.608 58.0661ZM108.279 62.2011C108.886 62.2711 109.561 62.2711 110.237 62.3411C111.78 63.0261 113.271 63.8251 114.698 64.7321C113.353 64.9131 111.99 64.9131 110.644 64.7321C108.943 64.5261 107.267 64.1391 105.646 63.5761C105.785 63.0331 105.984 62.4111 106.122 61.8681C106.867 62.0081 107.604 62.1391 108.288 62.2091L108.279 62.2011ZM100.847 69.8491C101.185 69.5771 101.592 69.3061 101.93 69.0341L102.268 69.5771C102.606 70.2601 102.943 70.8741 103.212 71.4171C103.492 71.9471 103.741 72.4941 103.957 73.0551C103.423 72.6171 102.925 72.1361 102.467 71.6181C101.991 71.0751 101.384 70.4531 100.847 69.8661V69.8491ZM101.185 74.8341C100.735 74.2521 100.329 73.6371 99.972 72.9941C99.634 72.3811 99.227 71.6271 98.759 70.8741C99.216 70.7391 99.649 70.5321 100.041 70.2601L100.111 70.4011C100.254 70.7761 100.367 71.1631 100.449 71.5571C100.583 71.9831 100.696 72.4161 100.786 72.8541C100.986 73.6771 101.124 74.3601 101.194 74.8341H101.185ZM102.917 68.1401C103.331 67.7791 103.695 67.3631 104 66.9051L104.338 67.0451L105.282 68.1401C106.365 69.3671 107.11 70.1901 107.508 70.7691C106.649 70.5051 105.832 70.1151 105.083 69.6121C104.407 69.2001 103.662 68.7361 102.917 68.1751V68.1401ZM104.537 66.0901C104.84 65.5711 105.089 65.0221 105.282 64.4521C105.847 64.6551 106.426 64.8161 107.015 64.9341L107.491 65.3461C108.719 66.1841 109.878 67.1221 110.956 68.1491C109.128 68.1491 106.434 67.0541 104.607 66.0991L104.537 66.0901ZM87.732 71.6621C87.126 72.2751 86.58 72.8271 86.242 73.0991C86.458 72.5381 86.707 71.9911 86.987 71.4611C87.256 70.9091 87.594 70.2961 87.932 69.6211L88.131 69.2791C88.469 69.4901 88.876 69.7611 89.214 69.9631C88.676 70.5761 88.2 71.1891 87.732 71.7151V71.6621ZM89.421 72.8891C89.511 72.4511 89.624 72.0181 89.759 71.5921C89.829 71.1801 89.959 70.8471 90.028 70.4361C90.496 70.6371 90.894 70.8471 91.31 71.0491C90.903 71.7321 90.565 72.4161 90.158 73.0291C89.681 73.8441 89.292 74.4661 89.006 74.8691C89.075 74.3951 89.205 73.7121 89.413 72.8891H89.421ZM85.09 69.6121C84.3322 70.1031 83.5139 70.4921 82.6561 70.7691C83.0633 70.2251 83.8082 69.4021 84.8824 68.1401L85.827 67.0451H85.896C86.234 67.4571 86.641 67.8601 87.048 68.2721C86.433 68.7591 85.778 69.1921 85.09 69.5681V69.6121ZM79.2172 68.1751C80.3128 67.1501 81.4858 66.2131 82.7254 65.3721L83.2019 64.9601C83.6708 64.8951 84.1267 64.7561 84.5532 64.5491C84.8217 65.1621 85.09 65.7051 85.367 66.2571C83.4728 67.3171 81.3819 67.9701 79.2259 68.1751H79.2172ZM79.555 64.7591C78.1892 64.9371 76.8063 64.9371 75.4404 64.7591C76.8887 63.8521 78.3999 63.0531 79.9622 62.3671C80.6378 62.2971 81.2442 62.2971 81.9199 62.2271C82.4569 62.1571 83.1326 62.0251 83.8082 61.9551C83.9245 62.5501 84.0837 63.1361 84.2847 63.7071C82.7511 64.2421 81.1656 64.6091 79.555 64.8031V64.7591ZM82.8641 54.5791C82.9333 55.7441 83.0633 56.9001 83.2019 58.0831C81.6473 58.0991 80.0933 58.0121 78.5502 57.8201C76.2591 57.5531 73.9973 57.0721 71.7936 56.3841C70.2065 55.8951 68.6502 55.3101 67.1332 54.6311C67.0639 54.6311 65.9898 54.0801 66.0504 54.0181C66.9167 53.8781 68.6491 53.8781 71.2478 53.8171L82.7948 53.6151V53.8171C82.7841 54.0931 82.8074 54.3701 82.8641 54.6401V54.5791ZM77.4587 58.6091C77.7771 58.6261 78.0932 58.6731 78.4029 58.7491C80.0228 58.8891 81.6427 59.0211 83.2625 59.0211C83.4011 59.7041 83.4618 60.3871 83.6003 61.0001C82.9247 61.1321 82.3876 61.2021 81.8679 61.2721C79.9593 61.4671 78.0374 61.4901 76.1247 61.3421C74.5977 61.1931 73.0854 60.9181 71.603 60.5191C71.2652 60.3781 71.3345 60.3171 71.4644 60.2471C72.6771 59.7741 74.297 59.4321 75.579 59.0821L77.4674 58.6091H77.4587ZM56.5305 51.9241C53.9348 51.2411 51.4041 50.3271 48.9683 49.1911C48.769 49.1211 48.899 49.0601 49.2368 49.0601C50.7874 48.9901 53.7585 49.0601 58.2197 49.2611L83.9468 50.2161C83.8082 50.4881 83.609 50.7591 83.4704 51.0401C83.1813 51.5421 82.9984 52.1001 82.9333 52.6781L71.1785 52.8181C69.3299 52.8071 67.4821 52.8981 65.6433 53.0901C64.8983 53.3001 64.4912 53.5011 64.5605 53.7731C61.5893 53.2301 58.8174 52.5461 56.5218 51.9331L56.5305 51.9241ZM63.6856 58.2761C61.132 58.0731 58.603 57.6271 56.132 56.9441C55.9934 56.9441 55.6556 56.8131 55.6556 56.7431C55.7249 56.5411 58.0897 56.3311 63.5557 55.6481C64.4999 55.5781 65.5134 55.4461 66.4576 55.3061C68.0883 56.1101 69.7835 56.7721 71.525 57.2861C72.6771 57.6281 73.9592 57.9691 75.3105 58.2411C74.6348 58.4421 74.0284 58.5831 73.3528 58.7841C70.1268 58.8121 66.9019 58.6511 63.6943 58.3021L63.6856 58.2761ZM68.6838 62.4461C66.4259 62.5531 64.1631 62.4391 61.9271 62.1041C61.7885 62.1041 61.4507 62.0341 61.3901 62.0341C61.4271 61.9961 61.4759 61.9711 61.5287 61.9641C64.3006 61.0881 67.3411 60.3961 70.243 59.6431H70.5808C69.6366 60.1161 69.5673 60.5191 70.4422 61.0091C71.6038 61.5901 72.8658 61.9391 74.1584 62.0341C72.2007 62.2361 70.3123 62.3761 68.6924 62.4461H68.6838ZM74.6955 65.4511C73.4827 65.7221 72.3306 65.8631 71.2305 65.9941C69.7785 66.2261 68.3079 66.3171 66.8387 66.2661C69.2035 65.0391 72.244 63.9441 74.8081 62.9191C75.6743 62.7791 76.5405 62.7181 77.4068 62.5071H77.4761C75.9948 63.3311 74.4356 64.2161 74.3056 64.6971C74.278 64.7691 74.2648 64.8461 74.2669 64.9231C74.2689 65.0001 74.2862 65.0761 74.3177 65.1461C74.3492 65.2161 74.3942 65.2791 74.4502 65.3321C74.5061 65.3841 74.5718 65.4251 74.6435 65.4511H74.6955ZM78.4809 67.7721C77.1312 68.2621 75.7544 68.6711 74.3576 68.9991C73.4313 69.2651 72.4833 69.4471 71.525 69.5421C73.6906 68.2461 75.9168 67.0191 78.0738 65.7841C78.5929 65.7671 79.1106 65.7211 79.6243 65.6441C80.1019 65.6101 80.5766 65.5431 81.045 65.4421C80.078 66.0921 79.2037 66.8741 78.4462 67.7641L78.4809 67.7721ZM78.4809 71.3911C77.6354 71.7421 76.7672 72.0351 75.8822 72.2671C76.6965 71.6531 77.9092 70.6901 79.7283 69.3321L80.0661 69.0601C81.3705 68.8671 82.6436 68.4991 83.8516 67.9651C83.3145 68.5781 82.9074 69.0601 82.5695 69.4721C81.0796 70.2251 79.7369 70.8391 78.5155 71.3821L78.4809 71.3911ZM83.2798 73.1431C82.4612 73.9261 81.5931 74.6551 80.6811 75.3241C81.2738 74.0581 81.9753 72.8481 82.7774 71.7061L82.8467 71.6361H82.916C83.8161 71.3051 84.6857 70.8941 85.515 70.4091C85.922 70.1381 86.381 69.8661 86.797 69.5951L86.866 69.5251L86.667 69.8661L85.116 71.4431L83.2279 73.1511L83.2798 73.1431ZM86.052 75.7711C85.389 76.7281 84.6653 77.6411 83.8862 78.5041C84.1994 77.3421 84.5841 76.2011 85.038 75.0881L85.307 74.4041C85.575 74.6061 86.121 74.4741 86.727 73.9221C87.327 73.4161 87.891 72.8691 88.417 72.2841L88.616 72.0131C88.278 72.6261 87.871 73.1691 87.464 73.7651C87.057 74.3601 86.52 75.1311 86.043 75.7451L86.052 75.7711ZM89.967 76.0431C89.699 76.6561 89.43 77.3391 89.162 77.9521C88.754 78.7061 88.417 79.3891 88.148 79.9321C87.88 80.4751 87.611 80.8871 87.403 81.2291C87.472 80.6861 87.542 80.1341 87.611 79.5911C87.75 78.9071 87.88 78.2241 88.018 77.4001C88.087 76.9891 88.157 76.5771 88.217 76.1041C88.292 76.1741 88.385 76.2191 88.486 76.2351C88.824 76.3751 89.231 76.1041 89.699 75.4821C90.166 74.8601 90.643 74.0451 91.119 73.2921C90.781 74.1681 90.374 75.0441 89.967 76.0251V76.0431ZM93.077 76.8571C92.67 78.4951 92.263 80.1421 91.795 81.7111C91.622 82.3051 91.42 82.8891 91.189 83.4631C91.189 82.7791 91.119 82.0961 91.119 81.4131C91.119 80.7291 91.189 80.1161 91.189 79.3011C91.189 78.6881 91.258 78.0051 91.258 77.3221C91.396 77.5931 91.526 77.7331 91.734 77.7331C92.271 77.8731 92.678 77.0501 92.886 76.6381C93.094 76.2261 93.294 75.5431 93.562 74.7901C93.423 75.4731 93.224 76.1561 93.094 76.8401L93.077 76.8571ZM92.808 74.1241C92.471 75.0791 92.202 75.7621 91.994 76.2351V74.0541C91.994 73.6421 92.063 73.1781 92.063 72.6871C92.063 72.3461 92.133 71.9341 92.133 71.4611H92.202C92.609 71.5921 93.068 71.8021 93.553 71.9431C93.285 72.7571 93.016 73.5111 92.808 74.1241ZM95.918 78.6271C95.849 79.3801 95.78 80.1341 95.719 80.8171C95.58 81.6931 95.52 82.4551 95.45 83.1391C95.381 83.8221 95.243 84.3651 95.182 84.8471L95.113 85.1191L95.043 84.8471C94.974 84.3651 94.835 83.8221 94.775 83.1391C94.714 82.4551 94.576 81.7021 94.506 80.8171C94.437 80.1341 94.368 79.3801 94.307 78.6271C94.238 78.2151 94.238 77.8121 94.177 77.3301L94.246 77.6021C94.446 78.4251 94.714 78.8281 95.113 78.8281C95.511 78.8281 95.788 78.4171 95.979 77.6021L96.048 77.3301C95.979 77.8121 95.979 78.2061 95.91 78.6271H95.918ZM94.368 72.3461V72.2751L94.775 72.4071L94.905 72.4771L95.113 72.4071L95.788 72.2051V72.3461C95.719 73.2221 95.65 74.0541 95.52 74.9741C95.425 75.7541 95.289 76.5291 95.113 77.2951C94.936 76.5291 94.8 75.7541 94.705 74.9741C94.567 74.0981 94.506 73.2651 94.368 72.3461ZM94.905 71.5221C93.26 70.9151 91.651 70.2101 90.088 69.4111C88.582 68.6181 87.287 67.4701 86.312 66.0641C85.414 64.4841 84.826 62.7441 84.5792 60.9391C84.3234 59.7691 84.1383 58.5841 84.0248 57.3911C84.6866 58.2701 85.51 59.0101 86.45 59.5721C89.007 61.1371 91.938 61.9641 94.926 61.9641C97.915 61.9641 100.846 61.1371 103.402 59.5721C104.346 59.0121 105.172 58.2711 105.837 57.3911C105.73 58.5841 105.55 59.7691 105.3 60.9391C105.053 62.7441 104.465 64.4841 103.567 66.0641C102.59 67.4721 101.292 68.6201 99.782 69.4111C98.204 70.2121 96.581 70.9201 94.922 71.5311L94.905 71.5221ZM98.196 76.2181C97.845 75.5481 97.571 74.8401 97.382 74.1061C97.084 73.3741 96.835 72.6221 96.637 71.8551C97.044 71.6531 97.503 71.5131 97.919 71.3031L97.989 71.4431C98.058 71.9251 98.058 72.3191 98.127 72.6701V74.0361C98.196 74.9911 98.196 75.7451 98.196 76.2181ZM99.011 81.4131C99.022 82.0971 98.999 82.7811 98.941 83.4631C98.733 82.8881 98.554 82.3031 98.404 81.7111C97.937 80.1421 97.46 78.4951 97.122 76.8571C96.923 76.1741 96.784 75.4911 96.646 74.8071C96.914 75.5611 97.122 76.1741 97.322 76.6561C97.521 77.1381 97.928 77.8821 98.465 77.7511C98.664 77.7511 98.803 77.6111 98.933 77.3391C98.92 78.0001 98.944 78.6611 99.002 79.3191V81.4301L99.011 81.4131ZM102.051 79.9151C101.671 79.2881 101.33 78.6391 101.029 77.9701C100.76 77.3571 100.492 76.6731 100.163 76.0601C99.756 75.1051 99.418 74.2121 99.08 73.3271C99.49 74.0971 99.965 74.8301 100.501 75.5171C100.968 76.1301 101.367 76.3931 101.713 76.2701C101.783 76.2701 101.852 76.2001 101.921 76.1391C101.991 76.6121 102.12 77.0151 102.19 77.4351C102.32 78.2501 102.458 78.9341 102.528 79.6261C102.66 80.1611 102.726 80.7121 102.727 81.2641C102.528 80.9221 102.32 80.5101 102.051 79.9671V79.9151ZM106.304 78.4781C105.506 77.6161 104.762 76.7031 104.078 75.7451C103.671 75.1311 103.212 74.4481 102.727 73.7651C102.242 73.0811 101.921 72.6081 101.514 72.0131L101.783 72.2841C102.291 72.8851 102.857 73.4341 103.472 73.9221C104.078 74.4661 104.624 74.6061 104.892 74.4041L105.161 75.0881C105.614 76.2011 105.999 77.3421 106.313 78.5041L106.304 78.4781ZM109.475 75.3421C108.563 74.6721 107.695 73.9441 106.876 73.1601C106.27 72.6781 105.663 72.0651 104.988 71.4521C104.451 70.9001 103.914 70.3571 103.368 69.8751L103.229 69.5331L103.299 69.6031C103.706 69.8751 104.165 70.1471 104.581 70.4181C105.409 70.9041 106.279 71.3141 107.179 71.6451L107.309 71.7151C108.111 72.8731 108.835 74.0851 109.475 75.3421ZM114.265 72.2671C113.38 72.0361 112.511 71.7431 111.666 71.3911C110.454 70.8471 109.068 70.2251 107.543 69.4811C107.205 69.0691 106.807 68.6051 106.33 67.9741C107.538 68.5071 108.811 68.8761 110.116 69.0691L110.454 69.3411C112.186 70.7071 113.494 71.6621 114.239 72.2751L114.265 72.2671ZM118.596 69.5331C117.658 69.4371 116.73 69.2551 115.824 68.9901C114.428 68.6711 113.054 68.2621 111.71 67.7641C110.919 66.9081 110.049 66.1301 109.111 65.4421C109.557 65.5381 110.008 65.6051 110.462 65.6441C111 65.7181 111.54 65.7651 112.082 65.7841C114.239 67.0101 116.474 68.2461 118.562 69.5421L118.596 69.5331ZM123.326 66.2571C121.834 66.3101 120.34 66.2191 118.865 65.9851C117.851 65.8451 116.708 65.7141 115.486 65.4421C115.621 65.3761 115.728 65.2651 115.79 65.1271C115.851 64.9891 115.864 64.8341 115.824 64.6891C115.686 64.2071 114.135 63.3221 112.654 62.4991C113.598 62.7091 114.473 62.7701 115.253 62.9101C117.851 63.9351 120.857 65.0301 123.291 66.2571H123.326ZM128.593 61.9551C128.731 61.9551 128.731 62.0251 128.792 62.0251C128.723 62.0251 128.385 62.0961 128.255 62.0961C126.019 62.4281 123.756 62.5421 121.498 62.4371C119.812 62.3671 117.99 62.2301 116.032 62.0251C117.322 61.9121 118.58 61.5651 119.748 61.0001C120.615 60.5191 120.563 60.1241 119.618 59.6341H119.956C122.789 60.3871 125.829 61.0711 128.619 61.9551H128.593ZM126.635 55.6041C132.11 56.2871 134.431 56.4801 134.535 56.6991C134.535 56.7691 134.128 56.9001 133.998 56.9001C131.54 57.6091 129.018 58.0701 126.47 58.2761C123.263 58.6251 120.038 58.7851 116.812 58.7581C116.136 58.5561 115.53 58.4161 114.854 58.2151C116.205 57.9431 117.453 57.6011 118.64 57.2601C120.381 56.7461 122.076 56.0841 123.707 55.2801C124.651 55.4201 125.665 55.5511 126.609 55.6211L126.635 55.6041ZM141.153 49.1821C138.747 50.3321 136.238 51.2481 133.66 51.9161C131.295 52.5291 128.593 53.2121 125.621 53.7551C125.621 53.4841 125.284 53.2821 124.469 53.0721C122.631 52.8781 120.783 52.7881 118.934 52.8001L106.911 52.6601C106.834 52.1071 106.651 51.5751 106.374 51.0921C106.244 50.7871 106.087 50.4931 105.906 50.2161L131.971 49.2611C136.363 49.0601 139.403 48.9901 140.954 49.0601C141.283 49.0601 141.352 49.1211 141.144 49.1911L141.153 49.1821Z" fill="currentColor"/>
<path fill-rule="evenodd" clip-rule="evenodd" d="M56.7384 12.7905C55.2571 13.1321 54.0531 14.9894 54.0704 16.8116C54.0993 21.1861 54.1281 25.5664 54.157 29.9526C54.157 31.7047 55.3871 32.9224 56.851 32.5808C57.6399 32.292 58.3196 31.7609 58.7949 31.0617C59.2703 30.3626 59.5174 29.5306 59.5017 28.6823C59.5017 24.3195 59.4815 19.9596 59.4411 15.6026C59.4411 13.7892 58.211 12.4838 56.7297 12.8255L56.7384 12.7905ZM56.7384 14.4462C57.5093 14.271 58.133 14.9193 58.1417 15.8567C58.1417 20.2195 58.1648 24.5823 58.211 28.9451C58.2205 29.3838 58.0923 29.8142 57.8449 30.1747C57.5974 30.5351 57.2434 30.807 56.8337 30.9513C56.0714 31.1353 55.4477 30.522 55.439 29.6109C55.439 25.2423 55.4102 20.8619 55.3524 16.4699C55.3471 16.0276 55.4787 15.5947 55.7288 15.2318C55.9788 14.8689 56.3349 14.5942 56.7471 14.4462H56.7384Z" fill="currentColor"/>
<path fill-rule="evenodd" clip-rule="evenodd" d="M120.407 9.97833C118.917 9.70673 117.687 11.0734 117.687 12.8868C117.687 17.2263 117.687 21.5657 117.687 25.9052C117.673 26.7456 117.93 27.5677 118.419 28.2473C118.909 28.9269 119.603 29.427 120.398 29.6722C121.888 29.9613 123.109 28.7173 123.109 26.9564C123.109 22.5995 123.109 18.2425 123.109 13.8855C123.109 12.0721 121.888 10.2499 120.398 9.97833H120.407ZM120.407 11.6341C120.825 11.7647 121.189 12.0312 121.443 12.3923C121.697 12.7533 121.826 13.1888 121.81 13.6315C121.81 17.9826 121.81 22.3367 121.81 26.6936C121.81 27.5697 121.178 28.2443 120.407 28.0866C119.995 27.9638 119.635 27.7079 119.382 27.3581C119.128 27.0084 118.995 26.5841 119.003 26.1505C119.003 21.8052 119.003 17.4628 119.003 13.1234C119.003 12.186 119.636 11.5026 120.407 11.6428V11.6341Z" fill="currentColor"/>
</svg>
