<svg xmlns="http://www.w3.org/2000/svg" width="220" height="220" viewBox="0 0 220 220" >
    <path fill-rule="evenodd" clip-rule="evenodd" d="M205 90.71V89.3521C195.788 89.0856 186.602 88.2312 177.497 86.7939V88.1518C186.602 89.5885 195.788 90.4429 205 90.71Z" fill="currentColor"/>
    <path fill-rule="evenodd" clip-rule="evenodd" d="M201.57 84.5249V83.1495C193.507 82.7703 185.471 81.9485 177.497 80.6878V82.0457C185.471 83.3136 193.507 84.1412 201.57 84.5249Z" fill="currentColor"/>
    <path fill-rule="evenodd" clip-rule="evenodd" d="M201.57 96.6409V95.3005C193.507 94.9219 185.471 94.1001 177.497 92.8388V94.2055C185.472 95.458 193.508 96.271 201.57 96.6409Z" fill="currentColor"/>
    <path fill-rule="evenodd" clip-rule="evenodd" d="M59.5851 78.6728C59.5851 79.3474 59.5851 79.6715 59.5851 80.3286L58.6323 80.5213C58.6323 86.058 58.6611 91.6065 58.7189 97.1666L59.6891 96.93C59.6891 97.5608 59.6891 97.8849 59.6891 98.5245L56.432 99.3042C56.432 98.6559 56.432 98.3405 56.432 97.7097L57.4455 97.4819C57.4455 95.9225 57.4455 95.1604 57.4455 93.6535C57.1066 93.7277 56.7614 93.7687 56.4147 93.7762C56.1178 93.7988 55.82 93.7466 55.5479 93.6243C55.2758 93.502 55.0379 93.3134 54.8555 93.0753C54.1798 92.1993 54.1798 90.3508 54.1798 88.2482C54.1798 86.1457 54.1798 84.9892 54.1798 82.7115C54.1798 82.2734 54.1798 82.0457 54.1798 81.5989L52.5426 81.9668V80.3198L55.4012 79.6452C55.4012 82.4136 55.4012 85.182 55.4012 87.9503C55.4012 89.7813 55.4012 91.367 55.8257 91.9277C55.9196 92.0325 56.0372 92.1127 56.1684 92.1615C56.2996 92.2103 56.4406 92.2263 56.5793 92.208C56.8412 92.2025 57.1021 92.1732 57.3589 92.1204C57.3589 88.365 57.3416 84.6096 57.3069 80.8542L56.3454 81.082C56.3454 80.4249 56.3454 80.092 56.3454 79.4262L59.5678 78.6641L59.5851 78.6728Z" fill="currentColor"/>
    <path fill-rule="evenodd" clip-rule="evenodd" d="M65.9519 96.9913L62.7209 97.7886C62.7209 97.1403 62.7209 96.8249 62.7209 96.1941L63.6911 95.9576C63.6506 90.4325 63.6131 84.9075 63.5785 79.3824L62.3744 79.6452C62.3744 81.8004 62.3744 82.8341 62.3744 84.9016L61.075 85.217C61.075 82.8692 61.075 81.7128 61.075 79.1634C61.075 78.8305 61.075 78.6641 61.075 78.2873L67.3293 76.7893C67.3293 77.1222 67.3293 77.2886 67.3293 77.6653C67.3293 80.1796 67.3293 81.3623 67.3293 83.7014L66.1079 84.0256C66.1079 81.9931 66.1079 80.9681 66.1079 78.7692L64.9211 79.0495L65.0424 95.6159L65.9433 95.4144C65.9433 95.8875 65.9519 96.2905 65.9519 96.9913Z" fill="currentColor"/>
    <path fill-rule="evenodd" clip-rule="evenodd" d="M77.5682 94.2668C77.5682 93.6273 77.5682 93.3031 77.5682 92.6811L78.8502 92.392C78.8502 93.0228 78.8502 93.3382 78.8502 93.9777L77.5682 94.2668Z" fill="currentColor"/>
    <path fill-rule="evenodd" clip-rule="evenodd" d="M77.5595 90.307L78.8415 90.0179C78.8415 88.8702 78.8415 88.2657 78.8415 87.1794C78.8415 86.6888 78.8415 86.1719 78.8415 85.6463C78.8796 85.0992 78.9665 84.5568 79.1014 84.0256C79.24 83.4474 79.4652 82.8166 79.6904 82.1771C79.9157 81.5375 80.1842 80.7491 80.3661 80.0395C80.5544 79.3059 80.6647 78.554 80.6953 77.7967C80.7315 77.162 80.6492 76.526 80.4527 75.922C80.2861 75.4372 79.9626 75.0236 79.5345 74.748C79.2127 74.5526 78.8515 74.4328 78.4777 74.3976C78.1121 74.3584 77.7426 74.3851 77.3862 74.4765L76.8838 74.5816C76.8838 75.2562 76.8838 75.5803 76.8838 76.2374L77.3689 76.141C77.6234 76.0758 77.8871 76.055 78.1485 76.0797C78.3799 76.0976 78.6045 76.1663 78.8069 76.2812C79.0076 76.4038 79.1605 76.5925 79.24 76.8156C79.3593 77.2065 79.4062 77.6163 79.3786 78.0245C79.3506 78.6459 79.2577 79.2626 79.1014 79.8643C78.9368 80.5301 78.7116 81.1959 78.4864 81.8354C78.2611 82.4749 78.0099 83.2108 77.8454 83.8766C77.7043 84.5015 77.6173 85.1376 77.5855 85.7777C77.5855 86.3734 77.5855 86.9166 77.5855 87.4247C77.5508 88.5899 77.5595 89.1593 77.5595 90.307Z" fill="currentColor"/>
    <path fill-rule="evenodd" clip-rule="evenodd" d="M91.8697 89.8251C91.8697 90.4471 91.8697 90.7625 91.8697 91.402C90.553 91.6123 89.912 91.7174 88.604 91.9452C88.604 91.3057 88.604 90.9903 88.604 90.3683L89.5828 90.158C89.5828 84.7089 89.5828 79.2598 89.5828 73.8107L88.63 74.0121C88.63 73.3639 88.63 73.031 88.63 72.3651C90.8995 71.9884 92.0429 71.8132 94.3385 71.4891C94.3385 73.1594 94.3385 74.8298 94.3385 76.5002L92.9612 76.6929C92.9612 75.3788 92.9612 74.713 92.9612 73.3376L90.8649 73.6442V89.9741L91.8697 89.8251Z" fill="currentColor"/>
    <path fill-rule="evenodd" clip-rule="evenodd" d="M108.268 77.7354V79.2247C107.488 79.2247 106.708 79.2247 105.929 79.2948C105.929 82.8955 105.929 84.5512 105.929 88.3621C106.795 88.3621 107.193 88.3095 108.034 88.292C108.034 86.9692 108.034 86.3296 108.034 85.0593H109.359C109.359 86.6596 109.359 88.2628 109.359 89.8689C107.055 89.8689 105.894 89.9303 103.616 90.0792C103.616 89.4397 103.616 89.1243 103.616 88.5023L104.603 88.4409C104.603 83.0269 104.603 77.6128 104.603 72.1987L103.616 72.2513C103.616 71.603 103.616 71.2701 103.616 70.6043C105.903 70.4641 107.081 70.4203 109.342 70.4028C109.342 72.0673 109.342 73.7347 109.342 75.4051H108.016C108.016 74.0998 108.016 73.4339 108.016 72.0585L105.92 72.1198V77.8055C106.284 77.788 108.285 77.7179 108.268 77.7354Z" fill="currentColor"/>
    <path fill-rule="evenodd" clip-rule="evenodd" d="M101.147 70.7707C99.6312 70.8934 98.8775 70.9722 97.3616 71.1387C96.8332 77.1835 96.2355 83.2284 95.6811 89.2732L94.4511 89.4397C94.4511 89.755 94.4511 89.9127 94.4511 90.2281C94.4511 91.6123 94.4511 92.3132 94.4511 93.7849L95.7678 93.6097C95.7678 92.4796 95.7678 91.9277 95.7678 90.8414C97.8727 90.5698 98.9209 90.4471 101.026 90.2632C101.026 91.3407 101.026 91.8926 101.026 93.0228L102.351 92.9176C102.351 91.4459 102.351 90.745 102.351 89.3608C102.351 89.0454 102.351 88.8877 102.351 88.5811L101.121 88.6775C101.121 82.7086 101.121 76.7396 101.121 70.7707H101.147ZM99.7958 88.8001C98.7043 88.9053 98.1586 88.9666 97.0671 89.098C97.5609 83.6138 98.0633 78.1384 98.5397 72.6542L99.8131 72.5316C99.8073 77.9574 99.8015 83.3802 99.7958 88.8001Z" fill="currentColor"/>
    <path fill-rule="evenodd" clip-rule="evenodd" d="M113.344 88.4059L114.669 88.4585C114.669 89.0805 114.669 89.3959 114.669 90.0354L113.344 89.9828V88.4059Z" fill="currentColor"/>
    <path fill-rule="evenodd" clip-rule="evenodd" d="M114.617 86.1106C114.617 84.9805 114.617 84.4198 114.617 83.3072C114.617 82.8254 114.617 82.3085 114.617 81.8091C114.651 81.2968 114.735 80.7891 114.868 80.2935C115.039 79.7248 115.242 79.1662 115.475 78.6203C115.741 77.9913 115.972 77.3479 116.168 76.6929C116.361 75.9961 116.471 75.2785 116.497 74.5553C116.561 73.912 116.511 73.2624 116.35 72.6367C116.168 72.0906 115.845 71.6037 115.414 71.2263C115.097 70.9531 114.733 70.7422 114.34 70.6043C113.987 70.4766 113.615 70.4114 113.24 70.4115H112.729V72.0585H113.24C113.508 72.0581 113.774 72.1025 114.028 72.1899C114.271 72.2706 114.497 72.3953 114.695 72.5579C114.897 72.7267 115.049 72.9477 115.137 73.1974C115.255 73.5975 115.302 74.0158 115.275 74.4327C115.252 75.0257 115.159 75.6139 114.998 76.1848C114.819 76.7801 114.608 77.3651 114.366 77.9369C114.113 78.5404 113.893 79.1575 113.707 79.7854C113.547 80.3812 113.446 80.9916 113.404 81.6076C113.404 82.1858 113.404 82.7115 113.404 83.2196C113.404 84.3322 113.404 84.8841 113.404 86.023L114.617 86.1106Z" fill="currentColor"/>
    <path fill-rule="evenodd" clip-rule="evenodd" d="M164.486 97.955L165.768 98.2616C165.768 98.9012 165.768 99.2166 165.768 99.8648L164.486 99.5582C164.486 98.9187 164.486 98.5858 164.486 97.955Z" fill="currentColor"/>
    <path fill-rule="evenodd" clip-rule="evenodd" d="M165.777 95.8612C165.777 94.6961 165.777 94.1091 165.777 92.979C165.777 92.4796 165.777 91.954 165.777 91.4371C165.808 90.925 165.889 90.4173 166.019 89.9215C166.182 89.3734 166.376 88.8352 166.6 88.3095C166.859 87.7015 167.081 87.0784 167.267 86.4435C167.456 85.7521 167.563 85.0404 167.587 84.3234C167.619 83.6491 167.54 82.9743 167.353 82.326C167.184 81.7393 166.888 81.1978 166.487 80.7403C166.185 80.4125 165.835 80.1346 165.448 79.9168C165.113 79.7236 164.751 79.5846 164.374 79.5051L163.88 79.3824C163.88 80.057 163.88 80.3899 163.88 81.047L164.374 81.1696C164.641 81.2264 164.898 81.3238 165.136 81.4587C165.377 81.5904 165.596 81.7588 165.786 81.9581C165.978 82.1657 166.123 82.4141 166.21 82.6852C166.325 83.1011 166.371 83.5331 166.349 83.9643C166.328 84.557 166.238 85.1452 166.08 85.7164C165.91 86.3125 165.705 86.8976 165.465 87.4685C165.218 88.0394 165.004 88.6245 164.824 89.2206C164.666 89.8166 164.568 90.4271 164.529 91.0429C164.529 91.6298 164.529 92.173 164.529 92.6986C164.529 93.8463 164.529 94.4508 164.529 95.5809L165.777 95.8612Z" fill="currentColor"/>
    <path fill-rule="evenodd" clip-rule="evenodd" d="M143.056 92.7074C143.056 93.3382 143.056 93.6535 143.056 94.3018L139.807 93.5835V91.989L140.777 92.1993C140.777 86.6917 140.777 81.1871 140.777 75.6854L139.798 75.4839C139.798 74.8269 139.798 74.494 139.798 73.8194C142.068 74.275 143.203 74.5203 145.464 75.0196C145.464 75.3525 145.464 75.5277 145.464 75.8957C145.464 77.6478 145.464 78.4713 145.464 80.1183L144.156 79.8292C144.156 78.4976 144.156 77.823 144.156 76.4301L142.085 75.9833C142.085 81.4908 142.085 87.0013 142.085 92.5147L143.056 92.7074Z" fill="currentColor"/>
    <path fill-rule="evenodd" clip-rule="evenodd" d="M152.194 76.579L148.47 75.703C147.941 81.6602 147.361 87.6174 146.815 93.5747L145.602 93.2856C145.602 93.601 145.602 93.7587 145.602 94.0828C145.602 95.4845 145.602 96.1941 145.602 97.6747L146.902 97.9813C146.902 96.8424 146.902 96.2817 146.902 95.1954C148.972 95.686 150.011 95.9401 152.099 96.4482C152.099 97.5433 152.099 98.0952 152.099 99.2428L153.398 99.567C153.398 98.0864 153.398 97.3768 153.398 95.9664C153.398 95.6422 153.398 95.4845 153.398 95.1691L152.186 94.8713C152.186 89.0308 152.186 83.2138 152.186 77.42C152.186 77.0871 152.186 76.9207 152.186 76.544L152.194 76.579ZM149.596 77.6391L150.852 77.9369C150.852 83.4737 150.852 89.0221 150.852 94.5822L148.166 93.9339C148.669 88.476 149.162 83.0619 149.639 77.6391H149.596Z" fill="currentColor"/>
    <path fill-rule="evenodd" clip-rule="evenodd" d="M129.603 73.6617L131.465 73.9508C131.465 73.2938 131.465 72.9696 131.465 72.2951C130.305 72.1111 129.733 72.0147 128.555 71.8483C127.992 74.8882 127.689 76.2724 127.143 79.0145L126.45 78.9181V73.2149L127.437 73.3463C127.437 72.698 127.437 72.3651 127.437 71.6906C126.112 71.5066 125.454 71.419 124.137 71.2701C124.137 71.9446 124.137 72.2688 124.137 72.9258L125.124 73.0485C125.124 78.4918 125.124 83.9351 125.124 89.3783L124.146 89.282C124.146 89.904 124.146 90.2194 124.146 90.8589C125.462 91.0253 126.121 91.1217 127.446 91.3232V89.7463L126.458 89.5974V80.4249L127.177 80.5213C128.113 84.2796 128.589 86.0756 129.516 90.0179L128.745 89.8952C128.745 90.5172 128.745 90.8414 128.745 91.4809C130.062 91.6911 130.712 91.7963 132.011 92.0328V90.4559L130.868 90.2544C130.062 86.8027 129.213 83.3685 128.347 79.9256C128.849 77.5076 129.109 76.2899 129.603 73.6617Z" fill="currentColor"/>
    <path fill-rule="evenodd" clip-rule="evenodd" d="M159.661 93.198C159.315 88.73 158.96 84.2621 158.63 79.7942L158.206 79.6891C157.868 83.9905 157.496 88.2833 157.132 92.576L159.653 93.198H159.661ZM159.8 78.41C160.25 84.6388 160.744 90.8589 161.22 97.079L162.139 97.3067C162.139 97.9375 162.139 98.2616 162.139 98.9099L159.133 98.174C159.133 97.5257 159.133 97.2104 159.133 96.5708L159.93 96.7636C159.869 95.9576 159.835 95.5634 159.774 94.7749L157.002 94.0916C156.941 94.8537 156.907 95.2305 156.846 96.0102L157.643 96.2116C157.643 96.8424 157.643 97.1666 157.643 97.8149L154.62 97.0702C154.62 96.4219 154.62 96.1065 154.62 95.467L155.547 95.6948C155.997 90.2544 156.465 84.8228 156.907 79.3824L155.33 79.0057C155.33 78.3487 155.33 78.0158 155.33 77.3412L159.8 78.41Z" fill="currentColor"/>
    <path fill-rule="evenodd" clip-rule="evenodd" d="M201.682 107.679C193.466 107.437 185.27 106.726 177.133 105.551V109.431C155.14 104.797 132.643 97.771 110.035 97.771C88.0583 97.771 64.7912 104.841 42.9534 109.458V105.586C34.8358 106.747 26.6601 107.446 18.4649 107.679V107.198C26.8177 106.971 35.1504 106.254 43.4212 105.051V108.871C65.181 104.28 88.0496 97.3067 110.026 97.3067C132.332 97.3067 154.923 104.315 176.657 108.845V105.051C184.949 106.274 193.305 107.008 201.682 107.25V107.679Z" fill="currentColor"/>
    <path fill-rule="evenodd" clip-rule="evenodd" d="M18.4649 72.9171C31.114 72.4614 43.7077 70.9968 56.1288 68.5367V71.6555C73.8087 67.538 91.7224 63 110.035 63C128.347 63 146.252 67.5205 163.992 71.6292V68.5192C176.411 70.994 189.006 72.4588 201.656 72.8995V73.3814C189.178 72.9587 176.752 71.538 164.495 69.1325V72.26C146.581 68.125 128.537 63.4994 110.035 63.4994C91.5319 63.4994 73.5055 68.1337 55.6178 72.26V69.1325C43.3637 71.5408 30.9409 72.9673 18.4649 73.3989V72.9171Z" fill="currentColor"/>
    <path fill-rule="evenodd" clip-rule="evenodd" d="M45.6907 102.353C36.676 103.774 27.5838 104.638 18.4649 104.937V106.278C22.4583 106.155 26.4516 105.945 30.419 105.586C35.0967 105.183 39.7599 104.634 44.4087 103.939V107.679C47.5791 107.014 50.7668 106.295 53.9373 105.551C72.4141 101.275 91.1854 96.3255 110.026 96.3255C128.867 96.3255 147.274 101.153 165.578 105.402C168.956 106.19 172.334 106.952 175.713 107.644V103.912C179.637 104.508 183.561 104.99 187.476 105.367C192.2 105.845 196.932 106.137 201.674 106.243V104.937C192.535 104.639 183.422 103.776 174.387 102.353V106.015C173.443 105.822 172.499 105.612 171.555 105.393C151.285 100.925 130.894 94.9939 110.052 94.9939C88.1709 94.9939 66.9741 101.494 45.6907 106.015V102.353Z" fill="currentColor"/>
    <path fill-rule="evenodd" clip-rule="evenodd" d="M18.4649 75.7117V74.3889C30.6238 73.9714 42.731 72.5829 54.6736 70.2363V73.4427C72.8645 69.2639 91.298 64.4367 110.035 64.4367C128.771 64.4367 147.283 69.2376 165.474 73.4252V70.2363C177.416 72.5842 189.523 73.9727 201.682 74.3889V75.7468C196.935 75.6066 192.206 75.3175 187.502 74.8707C180.572 74.2049 173.642 73.1974 166.756 71.9359V75.1861C148.166 70.8408 129.213 65.7771 110.035 65.7771C91.0641 65.7771 72.3967 70.7707 53.9892 75.0021L53.3309 75.1423V71.8658C45.7427 73.25 38.0852 74.3889 30.3843 75.0196C26.4083 75.3525 22.4236 75.5978 18.4649 75.7117Z" fill="currentColor"/>
    <path fill-rule="evenodd" clip-rule="evenodd" d="M42.503 80.7316V82.0895C34.54 83.3441 26.5155 84.16 18.4649 84.5337V83.1495C26.5149 82.7835 34.5394 81.9763 42.503 80.7316Z" fill="currentColor"/>
    <path fill-rule="evenodd" clip-rule="evenodd" d="M42.503 92.8476V94.2055C34.54 95.4597 26.5155 96.2757 18.4649 96.6497V95.3093C26.5158 94.9294 34.5403 94.1076 42.503 92.8476Z" fill="currentColor"/>
    <path fill-rule="evenodd" clip-rule="evenodd" d="M42.503 86.8027V88.1606C33.3976 89.5973 24.2117 90.4517 15 90.7187V89.3608C24.2118 89.0944 33.3977 88.24 42.503 86.8027Z" fill="currentColor"/>
    <path fill-rule="evenodd" clip-rule="evenodd" d="M41.169 117.745L29.2669 125.63L30.2284 127.189L41.9226 121.057L41.9746 121.101L31.034 128.372L31.5884 129.248L43.5424 121.363L42.5376 119.804L31.086 125.761V125.709L41.784 118.7L41.1776 117.772L41.169 117.745ZM46.7389 125.534L41.9399 129.677L43.092 131.035L47.9169 126.953L48.6446 127.829L37.7473 137.168L36.9937 136.248L42.1911 131.745L41.039 130.387L35.8416 134.837L35.0447 133.961L45.9506 124.657L46.7475 125.534H46.7389ZM51.4858 131.018L50.6716 131.771L51.6158 132.744L42.1911 142.021L42.9881 142.845L52.4214 133.611L53.3656 134.583L54.1278 133.777L51.5291 131.018H51.4858ZM47.865 147.532L50.2471 149.608L50.9661 148.732L49.4762 147.453L53.2443 143.072L54.6389 144.325L55.3579 143.449L53.9806 142.223L57.3676 138.254L58.8575 139.559L59.5765 138.683L57.1683 136.59L47.865 147.532ZM63.3186 141.347L66.7402 143.843L58.3724 155.513L57.3849 154.794L65.129 144.019L63.6391 142.967L58.3637 150.326C57.999 150.867 57.6027 151.384 57.177 151.877C56.8636 152.214 56.5083 152.508 56.1202 152.753C55.8337 152.942 55.4889 153.02 55.15 152.972C54.7649 152.922 54.4032 152.757 54.1105 152.499L54.8208 151.5C54.8777 151.56 54.9464 151.608 55.0224 151.639C55.0985 151.671 55.1803 151.686 55.2626 151.684C55.4099 151.728 55.5571 151.684 55.7477 151.526C55.9814 151.375 56.1915 151.189 56.3714 150.975C56.6605 150.622 56.9294 150.254 57.177 149.871L63.3013 141.303L63.3186 141.347ZM70.7336 146.13L65.6401 155.416C65.4582 155.82 65.2377 156.204 64.9818 156.564C64.7392 156.862 64.6006 157.116 64.41 157.212C64.2897 157.333 64.1405 157.421 63.9769 157.466C63.8028 157.466 63.632 157.417 63.4832 157.326L62.8682 158.377C63.2085 158.584 63.5971 158.696 63.9943 158.701C64.3287 158.717 64.6568 158.605 64.9125 158.386C65.2481 158.095 65.5399 157.755 65.7787 157.379C66.1643 156.837 66.5117 156.27 66.8182 155.679L71.1494 147.689L72.7259 148.565L66.4197 160.243L67.4592 160.813L74.3371 148.18L70.7336 146.13ZM72.9251 163.117L78.469 149.818L81.3709 151.097L80.9551 152.087L79.136 151.334L77.135 156.161L78.8675 156.914L78.4517 157.913L76.7192 157.16L74.4844 162.539L76.2168 163.345L75.801 164.343L72.8991 163.117H72.9251ZM85.0524 152.306L80.9292 166.113L82.0553 166.437L84.1169 159.534H84.1689L83.6318 166.954L84.7579 167.278L85.2343 159.218L88.6993 153.419L87.5732 153.095L84.4114 158.588H84.3594L86.1439 152.622L85.0178 152.297L85.0524 152.306ZM92.2682 154.33L92.0949 155.381L93.3683 155.705L90.4491 168.697L91.5752 168.925L94.5377 155.977L95.8111 156.248L96.0363 155.206L92.3115 154.33H92.2682ZM99.0248 155.635L99.3886 166.735L98.5224 170.108L99.6918 170.23L103.512 156.213L102.291 156.091L100.437 163.432H100.385L100.281 155.828L99.0075 155.653L99.0248 155.635ZM108.363 156.389L106.223 170.756H107.393L107.947 166.796H110.043L110.468 170.835H111.637L109.983 156.354H108.32L108.363 156.389ZM109.965 165.736L108.155 165.675L109.16 157.405H109.212L109.965 165.736ZM115.83 156.283L116.913 166.796C116.973 167.339 117.034 167.777 117.034 168.128C117.048 168.422 117.022 168.717 116.956 169.004C116.913 169.249 116.817 169.398 116.67 169.451C116.612 169.505 116.543 169.546 116.469 169.573C116.395 169.601 116.316 169.612 116.237 169.608L116.358 170.844C116.734 170.834 117.102 170.725 117.424 170.528C117.715 170.318 117.918 170.006 117.995 169.652C118.137 169.205 118.21 168.738 118.212 168.268C118.212 167.725 118.143 167.085 118.073 166.349L117.112 157.23L118.844 157.046L120.282 170.301L121.452 170.178L119.944 155.863L115.804 156.292L115.83 156.283ZM125.488 154.987L124.319 155.206L127.091 169.372L129.083 168.986C129.518 168.919 129.922 168.72 130.244 168.417C130.51 168.171 130.677 167.834 130.712 167.471C130.784 167.048 130.784 166.615 130.712 166.192L129.845 161.917C129.802 161.497 129.659 161.095 129.43 160.743C129.255 160.415 128.973 160.158 128.633 160.016C128.218 159.886 127.774 159.886 127.359 160.016L126.493 160.182L125.488 154.987ZM126.736 161.233L127.515 161.067C127.674 161.02 127.842 161.02 128 161.067C128.153 161.077 128.295 161.146 128.399 161.26C128.505 161.405 128.576 161.573 128.607 161.75L129.586 166.77C129.659 166.977 129.659 167.203 129.586 167.41C129.534 167.557 129.433 167.681 129.3 167.76C129.143 167.828 128.981 167.88 128.815 167.918L128.087 168.032L126.744 161.242L126.736 161.233ZM133.752 152.946L132.591 153.261L136.819 167.05L137.936 166.682L135.9 160.059L137.633 159.534L139.669 166.157L140.786 165.789L136.559 152.052L135.407 152.359L137.286 158.439L135.554 158.964L133.726 152.928L133.752 152.946ZM142.094 149.958L140.977 150.379L146.365 163.748L148.253 162.968C148.659 162.823 149.012 162.557 149.266 162.206C149.382 162.062 149.466 161.894 149.513 161.714C149.559 161.534 149.567 161.346 149.535 161.163C149.512 160.742 149.421 160.328 149.266 159.937L147.629 155.924C147.496 155.517 147.29 155.137 147.023 154.803C146.766 154.542 146.442 154.36 146.087 154.277C145.653 154.241 145.218 154.32 144.823 154.505L144.052 154.812L142.103 149.958H142.094ZM144.459 155.837L145.186 155.53C145.343 155.476 145.506 155.441 145.672 155.425C145.829 155.426 145.983 155.475 146.113 155.565C146.236 155.695 146.338 155.842 146.417 156.003L148.314 160.708C148.39 160.912 148.428 161.129 148.426 161.347C148.398 161.505 148.315 161.648 148.192 161.75C148.053 161.872 147.886 161.959 147.707 162.004L147.032 162.267L144.433 155.854L144.459 155.837ZM146.893 147.952L152.281 161.268L151.163 161.733L145.801 148.416L146.919 147.996L146.893 147.952ZM148.495 142.783C148.681 143.116 148.946 143.396 149.266 143.598C149.508 143.72 149.785 143.748 150.046 143.677C150.359 143.629 150.656 143.506 150.912 143.318C151.149 143.188 151.36 143.016 151.536 142.81C151.715 142.579 151.829 142.303 151.865 142.012C151.832 141.653 151.726 141.304 151.553 140.987L150.973 141.347C151.004 141.397 151.024 141.453 151.033 141.512C151.042 141.571 151.039 141.631 151.025 141.688C151.004 141.852 150.938 142.007 150.834 142.135C150.713 142.292 150.566 142.428 150.401 142.538C150.228 142.621 150.048 142.692 149.864 142.748C149.704 142.776 149.54 142.776 149.379 142.748C149.26 142.701 149.157 142.618 149.085 142.512L148.556 142.871L148.495 142.783ZM149.925 146.226L157.296 158.57L158.795 157.615L153.234 145.587V145.534L159.999 156.853L160.917 156.292L153.546 144.027L151.96 145L157.418 156.739L150.834 145.701L149.916 146.209L149.925 146.226ZM160.995 138.342L170.385 149.214L171.295 148.408L166.591 143.011L172.534 147.33L173.4 146.568L166.912 141.907L163.914 135.775L163.005 136.581L165.95 142.196V142.24L161.905 137.536L160.995 138.342ZM167.457 132.717L170.377 129.695L180.486 139.857L179.671 140.733L170.377 131.333L169.086 132.647L175.461 139.086C175.937 139.543 176.386 140.029 176.804 140.541C177.092 140.897 177.331 141.292 177.514 141.714C177.631 142.031 177.655 142.375 177.584 142.704C177.453 143.07 177.25 143.404 176.986 143.686L176.12 142.81C176.248 142.682 176.346 142.526 176.406 142.354C176.432 142.188 176.411 142.018 176.345 141.863C176.206 141.602 176.037 141.358 175.843 141.136C175.571 140.797 175.282 140.472 174.976 140.164L167.457 132.717ZM172.923 126.953L182.357 132.691L184.652 135.258L185.414 134.303L175.834 123.449L175.072 124.325L180.165 129.949L173.738 125.928L172.923 126.953ZM177.627 120.487L179.81 117.185L180.745 117.807L179.23 120.111L183.561 123.037L184.037 122.336C184.27 121.958 184.603 121.655 184.999 121.46C185.32 121.312 185.683 121.287 186.021 121.39C186.42 121.509 186.802 121.683 187.156 121.907L189.832 123.729C190.166 123.971 190.459 124.267 190.698 124.605C190.94 124.894 191.069 125.261 191.062 125.639C191.041 126.068 190.896 126.482 190.646 126.83L189.512 128.53L177.627 120.47V120.487ZM184.427 123.659L184.903 122.958C184.989 122.818 185.105 122.698 185.241 122.608C185.29 122.555 185.352 122.517 185.421 122.499C185.49 122.48 185.563 122.481 185.631 122.502C185.825 122.501 186.015 122.566 186.168 122.686L189.382 124.894C189.578 124.983 189.737 125.138 189.832 125.332C189.879 125.404 189.908 125.485 189.919 125.57C189.929 125.655 189.92 125.742 189.893 125.823C189.834 125.981 189.756 126.131 189.659 126.269L189.235 126.918L184.427 123.659Z" fill="currentColor"/>
    <path fill-rule="evenodd" clip-rule="evenodd" d="M97.7081 187.918V179.517H97.2404L94.7369 181.812L95.1267 182.837L96.5387 181.497V187.901L97.7081 187.918ZM105.461 187.997C105.831 187.776 106.172 187.508 106.474 187.2C106.759 186.878 107.019 186.535 107.254 186.175C107.516 185.798 107.75 185.403 107.956 184.992C108.133 184.585 108.263 184.159 108.345 183.722C108.435 183.334 108.488 182.938 108.501 182.539C108.515 182.132 108.435 181.727 108.268 181.356C108.194 180.98 108.034 180.625 107.8 180.323C107.573 180.07 107.307 179.857 107.011 179.692C106.71 179.588 106.394 179.535 106.076 179.534C105.759 179.549 105.445 179.601 105.14 179.692C104.889 179.852 104.654 180.037 104.439 180.244C104.255 180.489 104.098 180.753 103.971 181.032C103.763 181.649 103.763 182.317 103.971 182.933C104.1 183.187 104.257 183.425 104.439 183.643C104.609 183.867 104.821 184.054 105.062 184.195C105.343 184.286 105.634 184.34 105.929 184.353H106.319C106.474 184.274 106.63 184.274 106.708 184.195C106.786 184.116 107.02 184.116 107.098 184.037C107.002 184.391 106.872 184.735 106.708 185.062C106.474 185.448 106.213 185.817 105.929 186.166C105.581 186.5 105.217 186.816 104.837 187.112L105.461 187.988V187.997ZM104.915 181.865C104.899 181.651 104.961 181.439 105.088 181.269C105.153 181.066 105.293 180.897 105.478 180.796C105.676 180.707 105.887 180.654 106.102 180.638C106.287 180.619 106.475 180.646 106.648 180.717C106.804 180.796 106.882 180.953 107.037 181.111C107.146 181.251 107.225 181.412 107.271 181.584C107.341 181.759 107.368 181.949 107.349 182.136V182.767C107.159 182.925 106.95 183.058 106.726 183.161C106.492 183.161 106.336 183.24 106.18 183.24C105.963 183.235 105.75 183.182 105.556 183.082C105.364 182.967 105.203 182.804 105.088 182.609C104.992 182.385 104.94 182.144 104.933 181.9L104.915 181.865ZM118.143 179.569H113.292V180.682H116.583L113.846 187.489L114.782 187.962L118.143 179.569ZM126.519 179.569H123.236V183.897C123.596 183.834 123.962 183.808 124.328 183.818C124.631 183.875 124.924 183.982 125.194 184.134C125.406 184.26 125.571 184.454 125.662 184.686C125.795 184.896 125.851 185.147 125.817 185.395C125.83 185.583 125.804 185.771 125.739 185.947C125.662 186.105 125.506 186.262 125.428 186.42C125.276 186.571 125.088 186.68 124.882 186.736C124.712 186.823 124.526 186.876 124.336 186.893C124.042 186.879 123.751 186.826 123.47 186.736C123.177 186.637 122.908 186.475 122.682 186.262V187.524C122.916 187.603 123.071 187.682 123.305 187.761C123.475 187.849 123.661 187.902 123.851 187.918C124.053 187.983 124.264 188.009 124.475 187.997C124.792 187.99 125.107 187.937 125.41 187.839C125.714 187.724 125.985 187.534 126.199 187.287C126.425 187.026 126.609 186.731 126.744 186.411C126.956 185.715 126.956 184.97 126.744 184.274C126.609 183.955 126.425 183.659 126.199 183.398C125.62 182.941 124.895 182.717 124.163 182.767V180.629H126.51L126.519 179.569Z" fill="currentColor"/>
    <path fill-rule="evenodd" clip-rule="evenodd" d="M155.945 111.096C154.395 111.026 151.354 111.166 146.893 111.298L120.152 112.322L119.944 112.182L123.73 109.431L124.743 108.678L123.461 108.608C119 108.266 114.548 107.995 110.087 107.995C105.626 107.995 101.104 108.266 96.6513 108.608L95.3693 108.678L96.4261 109.431L99.9344 112.06C99.8651 112.13 99.7957 112.261 99.6658 112.331L73.2197 111.298C68.7585 111.157 65.7874 111.026 64.1675 111.096C61.3955 111.298 61.1963 111.849 63.5611 113.076C66.0696 114.186 68.6586 115.1 71.3053 115.809C73.6008 116.422 76.2342 117.106 79.1014 117.658C78.9198 117.652 78.7384 117.675 78.5643 117.728C72.6913 118.411 69.6508 118.753 69.3822 119.48C69.183 119.962 69.5815 120.295 70.465 120.645C73.1597 121.413 75.9165 121.938 78.7029 122.213C79.7857 122.283 80.9292 122.415 82.1679 122.485C77.6461 123.641 75.3506 124.325 75.238 125.017C75.0994 125.428 75.5065 125.77 76.3208 125.893C78.796 126.307 81.3087 126.445 83.8137 126.305C84.68 126.305 85.7021 126.234 86.6463 126.164C84.9138 126.918 83.0688 127.601 81.5182 128.416C79.4912 129.511 79.4912 129.984 81.5875 130.168C83.2351 130.218 84.8839 130.127 86.5164 129.896C87.7291 129.695 89.1151 129.485 90.5011 129.213C88.8299 130.088 87.2283 131.093 85.7108 132.218C84.8965 132.971 85.3036 133.515 86.3864 133.444C87.5039 133.369 88.6118 133.187 89.6955 132.901C90.7782 132.63 92.0603 132.218 93.4116 131.806C93.4898 131.888 93.5805 131.956 93.6801 132.008C91.9477 133.304 90.7089 134.259 90.1026 134.802C88.552 136.239 88.6213 136.651 90.5097 136.3C91.701 136.037 92.8622 135.649 93.9747 135.144C94.8674 134.819 95.7359 134.43 96.5734 133.979C96.3712 134.458 96.4376 134.732 96.7726 134.802C96.1302 135.813 95.5516 136.863 95.0401 137.947C94.8481 138.253 94.7543 138.611 94.7716 138.972C94.7918 139.073 94.8345 139.168 94.8965 139.249C94.9585 139.331 95.0381 139.397 95.1292 139.443C95.2203 139.488 95.3205 139.512 95.4222 139.513C95.5238 139.513 95.6243 139.49 95.7158 139.445C96.9461 138.716 98.0811 137.833 99.0941 136.817C99.3931 136.508 99.7083 136.216 100.038 135.941C99.7698 136.554 99.5619 137.098 99.3626 137.65C98.7824 139.011 98.3524 140.433 98.0806 141.89C98.0806 142.231 98.1499 142.503 98.4184 142.643C98.8949 142.915 99.4319 142.372 99.7005 142.091C100.523 141.185 101.29 140.228 101.996 139.226C102.201 138.919 102.426 138.626 102.672 138.35C102.533 138.964 102.403 139.586 102.265 140.103C102.126 140.979 101.996 141.741 101.927 142.354C101.76 143.163 101.693 143.99 101.727 144.816C101.797 145.569 102.403 145.841 102.94 145.289C103.446 144.673 103.856 143.981 104.153 143.239C104.545 142.584 104.884 141.899 105.166 141.189L105.504 140.435C105.515 141.02 105.492 141.605 105.435 142.188V145.876C105.487 146.191 105.51 146.511 105.504 146.831C105.643 147.444 105.981 148.329 106.717 147.645L107.124 147.032C107.198 146.821 107.288 146.616 107.393 146.419C107.531 145.946 107.661 145.464 107.869 144.851C108.138 143.975 108.337 143.099 108.614 142.223C108.691 142.742 108.737 143.266 108.753 143.791C108.891 144.667 108.952 145.499 109.09 146.182C109.131 146.773 109.221 147.359 109.359 147.935C109.389 148.289 109.48 148.636 109.628 148.96C109.757 149.371 110.035 149.643 110.303 149.643C110.572 149.643 110.84 149.371 110.979 148.96C111.095 148.626 111.185 148.283 111.247 147.935C111.317 147.453 111.447 146.848 111.516 146.182C111.585 145.517 111.715 144.684 111.784 143.791C111.854 143.318 111.923 142.766 111.984 142.223C112.183 143.099 112.46 143.975 112.729 144.851C112.867 145.464 113.066 145.946 113.205 146.419C113.282 146.629 113.372 146.834 113.474 147.032C113.561 147.265 113.7 147.475 113.881 147.645C114.556 148.329 114.964 147.444 115.024 146.831C115.087 146.517 115.111 146.196 115.093 145.876C115.154 145.356 115.178 144.831 115.163 144.308C115.163 143.694 115.163 142.941 115.093 142.196C115.103 141.611 115.08 141.026 115.024 140.444L115.431 141.198C115.769 142.021 116.107 142.696 116.375 143.248C116.653 143.987 117.014 144.693 117.45 145.35C117.987 145.893 118.532 145.622 118.671 144.877C118.668 144.052 118.599 143.229 118.463 142.415C118.325 141.802 118.264 141.049 118.056 140.164C117.987 139.621 117.848 139.007 117.718 138.412C117.917 138.683 118.125 139.025 118.325 139.288C119.069 140.243 119.814 141.268 120.62 142.153C120.958 142.424 121.486 142.976 121.971 142.704C122.085 142.617 122.175 142.502 122.234 142.371C122.293 142.239 122.319 142.095 122.309 141.951C122.037 140.494 121.607 139.072 121.027 137.711C120.819 137.168 120.551 136.616 120.352 136.003C120.689 136.274 120.958 136.616 121.296 136.879C122.306 137.894 123.438 138.777 124.665 139.507C124.752 139.549 124.847 139.57 124.943 139.568C125.039 139.566 125.134 139.541 125.218 139.495C125.303 139.449 125.376 139.383 125.43 139.302C125.484 139.222 125.519 139.13 125.532 139.034C125.57 138.68 125.5 138.322 125.332 138.009C124.817 136.909 124.208 135.857 123.513 134.864C123.92 134.794 123.99 134.522 123.782 134.04C124.587 134.489 125.424 134.879 126.285 135.205C127.402 135.7 128.562 136.088 129.75 136.362C131.639 136.703 131.777 136.292 130.227 134.864C129.62 134.312 128.399 133.357 126.649 132.069L126.848 131.868C128.269 132.279 129.447 132.682 130.564 132.963C131.671 133.25 132.802 133.432 133.943 133.506C135.026 133.576 135.433 133.033 134.618 132.279C133.087 131.17 131.484 130.166 129.819 129.274C131.24 129.546 132.591 129.756 133.804 129.958C135.414 130.186 137.039 130.277 138.664 130.229C140.76 130.028 140.76 129.546 138.802 128.477C137.252 127.654 135.424 126.979 133.605 126.226C134.618 126.296 135.563 126.366 136.507 126.366C138.992 126.511 141.485 126.372 143.939 125.954C144.805 125.814 145.152 125.472 145.091 125.078C144.961 124.395 142.596 123.711 138.161 122.546C139.374 122.476 140.526 122.336 141.626 122.275C144.412 121.992 147.168 121.467 149.864 120.706C150.73 120.365 151.077 120.023 150.947 119.541C150.678 118.788 147.638 118.446 141.696 117.789C141.523 117.728 141.34 117.705 141.158 117.719C144.069 117.176 146.694 116.493 148.955 115.871C151.583 115.148 154.157 114.234 156.655 113.137C158.951 111.902 158.752 111.385 155.98 111.157L155.945 111.096ZM98.0026 109.431C102.057 109.16 106.041 108.888 110.13 108.888C114.219 108.888 118.169 109.16 122.153 109.431L118.03 112.436C117.393 112.142 116.703 111.981 116.003 111.963C115.384 111.962 114.771 112.089 114.202 112.336C113.633 112.583 113.119 112.945 112.694 113.4C112.254 113.834 111.906 114.355 111.674 114.931C111.441 115.507 111.329 116.125 111.343 116.747V117.228L110.13 118.105L108.553 117.036V116.764C108.567 116.142 108.455 115.524 108.222 114.949C107.99 114.373 107.642 113.852 107.202 113.418C106.777 112.962 106.264 112.6 105.694 112.353C105.125 112.106 104.512 111.979 103.893 111.981C103.262 111.985 102.639 112.125 102.065 112.393L98.0026 109.431ZM118.602 114.013C118.952 114.373 119.229 114.801 119.415 115.27C119.601 115.739 119.692 116.241 119.685 116.747C119.688 117.241 119.594 117.731 119.409 118.189C119.223 118.647 118.95 119.062 118.604 119.412C118.258 119.762 117.847 120.038 117.395 120.226C116.942 120.414 116.457 120.508 115.968 120.505C115.485 120.508 115.005 120.413 114.559 120.225C114.112 120.037 113.708 119.759 113.37 119.41C113.007 119.063 112.718 118.644 112.52 118.18C112.323 117.717 112.221 117.217 112.221 116.712C112.221 116.206 112.323 115.707 112.52 115.243C112.718 114.779 113.007 114.36 113.37 114.013C113.709 113.665 114.113 113.388 114.559 113.2C115.006 113.012 115.485 112.916 115.968 112.918C116.943 112.927 117.875 113.32 118.567 114.013H118.602ZM111.447 118.245L110.095 120.566L108.675 118.245L109.818 119.059L110.087 119.261L110.355 119.059L111.438 118.245H111.447ZM107.687 116.764C107.655 117.758 107.242 118.701 106.535 119.392C106.017 119.918 105.357 120.277 104.638 120.424C103.919 120.571 103.173 120.5 102.494 120.219C101.815 119.938 101.233 119.46 100.823 118.845C100.412 118.23 100.19 117.506 100.186 116.764C100.174 116.015 100.383 115.279 100.786 114.651C101.19 114.023 101.769 113.531 102.451 113.237C103.133 112.944 103.885 112.863 104.613 113.004C105.34 113.145 106.01 113.503 106.535 114.031C106.896 114.387 107.184 114.812 107.381 115.281C107.579 115.75 107.683 116.254 107.687 116.764ZM100.757 112.594L101.164 112.866C100.965 113.076 100.757 113.207 100.558 113.409C99.6945 114.304 99.2097 115.505 99.2067 116.755C99.1997 117.376 99.3155 117.992 99.5473 118.567C99.779 119.142 100.122 119.665 100.556 120.104C100.99 120.543 101.507 120.89 102.075 121.124C102.644 121.359 103.253 121.476 103.867 121.469C105.104 121.466 106.291 120.975 107.176 120.102C107.507 119.759 107.781 119.366 107.99 118.937L109.688 121.696L110.095 122.38L110.502 121.696L111.984 119.243C112.171 119.563 112.398 119.858 112.659 120.119C113.545 120.993 114.732 121.483 115.968 121.486C116.582 121.493 117.191 121.376 117.76 121.142C118.329 120.907 118.845 120.56 119.279 120.121C119.713 119.682 120.056 119.16 120.288 118.585C120.52 118.01 120.636 117.394 120.629 116.773C120.626 115.522 120.141 114.322 119.277 113.426C119.139 113.286 118.94 113.155 118.801 113.015L119.208 112.743C119.755 113.244 120.212 113.837 120.559 114.495C120.91 115.193 121.094 115.964 121.096 116.747C121.096 118.656 119.884 120.505 117.926 121.802C115.497 123.235 112.735 123.991 109.922 123.991C107.109 123.991 104.347 123.235 101.918 121.802C99.9603 120.505 98.7476 118.665 98.7476 116.747C98.7572 115.942 98.9405 115.15 99.2847 114.425C99.6602 113.731 100.159 113.113 100.757 112.603V112.594ZM126.744 121.749C127.052 121.663 127.369 121.616 127.689 121.609L129.577 122.082C130.859 122.424 132.479 122.765 133.7 123.247C133.83 123.317 133.899 123.387 133.492 123.519C132.013 123.931 130.499 124.207 128.971 124.342C127.081 124.49 125.182 124.467 123.297 124.272C122.69 124.202 121.945 124.062 121.2 123.93C121.33 123.317 121.4 122.634 121.538 122.021C123.274 122.03 125.01 121.939 126.736 121.749H126.744ZM121.608 121.066C121.746 119.9 121.876 118.744 121.945 117.561C122.002 117.291 122.025 117.014 122.015 116.738V116.536L133.899 116.738C136.498 116.808 138.231 116.808 139.028 116.939C139.166 117.009 138.083 117.553 137.945 117.553C136.457 118.244 134.922 118.829 133.354 119.305C131.148 119.986 128.887 120.467 126.597 120.741C124.938 120.936 123.269 121.027 121.599 121.013L121.608 121.066ZM123.279 125.201C123.886 125.271 124.561 125.271 125.237 125.341C126.78 126.026 128.271 126.825 129.698 127.732C128.353 127.913 126.99 127.913 125.644 127.732C123.943 127.526 122.267 127.139 120.646 126.576C120.785 126.033 120.984 125.411 121.122 124.868C121.867 125.008 122.604 125.139 123.288 125.209L123.279 125.201ZM115.847 132.849C116.185 132.577 116.592 132.306 116.93 132.034L117.268 132.577C117.606 133.26 117.943 133.874 118.212 134.417C118.492 134.947 118.741 135.494 118.957 136.055C118.423 135.617 117.925 135.136 117.467 134.618C116.991 134.075 116.384 133.453 115.847 132.866V132.849ZM116.185 137.834C115.735 137.252 115.329 136.637 114.972 135.994C114.634 135.381 114.227 134.627 113.759 133.874C114.216 133.739 114.649 133.532 115.041 133.26L115.111 133.401C115.254 133.776 115.367 134.163 115.449 134.557C115.583 134.983 115.696 135.416 115.786 135.854C115.986 136.677 116.124 137.36 116.194 137.834H116.185ZM117.917 131.14C118.331 130.779 118.695 130.363 119 129.905L119.338 130.045L120.282 131.14C121.365 132.367 122.11 133.19 122.508 133.769C121.649 133.505 120.832 133.115 120.083 132.612C119.407 132.2 118.662 131.736 117.917 131.175V131.14ZM119.537 129.09C119.84 128.571 120.089 128.022 120.282 127.452C120.847 127.655 121.426 127.816 122.015 127.934L122.491 128.346C123.719 129.184 124.878 130.122 125.956 131.149C124.128 131.149 121.434 130.054 119.607 129.099L119.537 129.09ZM102.732 134.662C102.126 135.275 101.58 135.827 101.242 136.099C101.458 135.538 101.707 134.991 101.987 134.461C102.256 133.909 102.594 133.296 102.932 132.621L103.131 132.279C103.469 132.49 103.876 132.761 104.214 132.963C103.676 133.576 103.2 134.189 102.732 134.715V134.662ZM104.421 135.889C104.511 135.451 104.624 135.018 104.759 134.592C104.829 134.18 104.959 133.847 105.028 133.436C105.496 133.637 105.894 133.847 106.31 134.049C105.903 134.732 105.565 135.416 105.158 136.029C104.681 136.844 104.292 137.466 104.006 137.869C104.075 137.395 104.205 136.712 104.413 135.889H104.421ZM100.09 132.612C99.3322 133.103 98.5139 133.492 97.6561 133.769C98.0633 133.225 98.8082 132.402 99.8824 131.14L100.827 130.045H100.896C101.234 130.457 101.641 130.86 102.048 131.272C101.433 131.759 100.778 132.192 100.09 132.568V132.612ZM94.2172 131.175C95.3128 130.15 96.4858 129.213 97.7254 128.372L98.2019 127.96C98.6708 127.895 99.1267 127.756 99.5532 127.549C99.8217 128.162 100.09 128.705 100.367 129.257C98.4728 130.317 96.3819 130.97 94.2259 131.175H94.2172ZM94.555 127.759C93.1892 127.937 91.8063 127.937 90.4404 127.759C91.8887 126.852 93.3999 126.053 94.9622 125.367C95.6378 125.297 96.2442 125.297 96.9199 125.227C97.4569 125.157 98.1326 125.025 98.8082 124.955C98.9245 125.55 99.0837 126.136 99.2847 126.707C97.7511 127.242 96.1656 127.609 94.555 127.803V127.759ZM97.8641 117.579C97.9333 118.744 98.0633 119.9 98.2019 121.083C96.6473 121.099 95.0933 121.012 93.5502 120.82C91.2591 120.553 88.9973 120.072 86.7936 119.384C85.2065 118.895 83.6502 118.31 82.1332 117.631C82.0639 117.631 80.9898 117.08 81.0504 117.018C81.9167 116.878 83.6491 116.878 86.2478 116.817L97.7948 116.615V116.817C97.7841 117.093 97.8074 117.37 97.8641 117.64V117.579ZM92.4587 121.609C92.7771 121.626 93.0932 121.673 93.4029 121.749C95.0228 121.889 96.6427 122.021 98.2625 122.021C98.4011 122.704 98.4618 123.387 98.6003 124C97.9247 124.132 97.3876 124.202 96.8679 124.272C94.9593 124.467 93.0374 124.49 91.1247 124.342C89.5977 124.193 88.0854 123.918 86.603 123.519C86.2652 123.378 86.3345 123.317 86.4644 123.247C87.6771 122.774 89.297 122.432 90.579 122.082L92.4674 121.609H92.4587ZM71.5305 114.924C68.9348 114.241 66.4041 113.327 63.9683 112.191C63.769 112.121 63.899 112.06 64.2368 112.06C65.7874 111.99 68.7585 112.06 73.2197 112.261L98.9468 113.216C98.8082 113.488 98.609 113.759 98.4704 114.04C98.1813 114.542 97.9984 115.1 97.9333 115.678L86.1785 115.818C84.3299 115.807 82.4821 115.898 80.6433 116.09C79.8983 116.3 79.4912 116.501 79.5605 116.773C76.5893 116.23 73.8174 115.546 71.5218 114.933L71.5305 114.924ZM78.6856 121.276C76.132 121.073 73.603 120.627 71.132 119.944C70.9934 119.944 70.6556 119.813 70.6556 119.743C70.7249 119.541 73.0897 119.331 78.5557 118.648C79.4999 118.578 80.5134 118.446 81.4576 118.306C83.0883 119.11 84.7835 119.772 86.525 120.286C87.6771 120.628 88.9592 120.969 90.3105 121.241C89.6348 121.442 89.0284 121.583 88.3528 121.784C85.1268 121.812 81.9019 121.651 78.6943 121.302L78.6856 121.276ZM83.6838 125.446C81.4259 125.553 79.1631 125.439 76.9271 125.104C76.7885 125.104 76.4507 125.034 76.3901 125.034C76.4271 124.996 76.4759 124.971 76.5287 124.964C79.3006 124.088 82.3411 123.396 85.243 122.643H85.5808C84.6366 123.116 84.5673 123.519 85.4422 124.009C86.6038 124.59 87.8658 124.939 89.1584 125.034C87.2007 125.236 85.3123 125.376 83.6924 125.446H83.6838ZM89.6955 128.451C88.4827 128.722 87.3306 128.863 86.2305 128.994C84.7785 129.226 83.3079 129.317 81.8387 129.266C84.2035 128.039 87.244 126.944 89.8081 125.919C90.6743 125.779 91.5405 125.718 92.4068 125.507H92.4761C90.9948 126.331 89.4356 127.216 89.3056 127.697C89.278 127.769 89.2648 127.846 89.2669 127.923C89.2689 128 89.2862 128.076 89.3177 128.146C89.3492 128.216 89.3942 128.279 89.4502 128.332C89.5061 128.384 89.5718 128.425 89.6435 128.451H89.6955ZM93.4809 130.772C92.1312 131.262 90.7544 131.671 89.3576 131.999C88.4313 132.265 87.4833 132.447 86.525 132.542C88.6906 131.246 90.9168 130.019 93.0738 128.784C93.5929 128.767 94.1106 128.721 94.6243 128.644C95.1019 128.61 95.5766 128.543 96.045 128.442C95.078 129.092 94.2037 129.874 93.4462 130.764L93.4809 130.772ZM93.4809 134.391C92.6354 134.742 91.7672 135.035 90.8822 135.267C91.6965 134.653 92.9092 133.69 94.7283 132.332L95.0661 132.06C96.3705 131.867 97.6436 131.499 98.8516 130.965C98.3145 131.578 97.9074 132.06 97.5695 132.472C96.0796 133.225 94.7369 133.839 93.5155 134.382L93.4809 134.391ZM98.2798 136.143C97.4612 136.926 96.5931 137.655 95.6811 138.324C96.2738 137.058 96.9753 135.848 97.7774 134.706L97.8467 134.636H97.916C98.8161 134.305 99.6857 133.894 100.515 133.409C100.922 133.138 101.381 132.866 101.797 132.595L101.866 132.525L101.667 132.866L100.116 134.443L98.2279 136.151L98.2798 136.143ZM101.052 138.771C100.389 139.728 99.6653 140.641 98.8862 141.504C99.1994 140.342 99.5841 139.201 100.038 138.088L100.307 137.404C100.575 137.606 101.121 137.474 101.727 136.922C102.327 136.416 102.891 135.869 103.417 135.284L103.616 135.013C103.278 135.626 102.871 136.169 102.464 136.765C102.057 137.36 101.52 138.131 101.043 138.745L101.052 138.771ZM104.967 139.043C104.699 139.656 104.43 140.339 104.162 140.952C103.754 141.706 103.417 142.389 103.148 142.932C102.88 143.475 102.611 143.887 102.403 144.229C102.472 143.686 102.542 143.134 102.611 142.591C102.75 141.907 102.88 141.224 103.018 140.4C103.087 139.989 103.157 139.577 103.217 139.104C103.292 139.174 103.385 139.219 103.486 139.235C103.824 139.375 104.231 139.104 104.699 138.482C105.166 137.86 105.643 137.045 106.119 136.292C105.781 137.168 105.374 138.044 104.967 139.025V139.043ZM108.077 139.857C107.67 141.495 107.263 143.142 106.795 144.711C106.622 145.305 106.42 145.889 106.189 146.463C106.189 145.779 106.119 145.096 106.119 144.413C106.119 143.729 106.189 143.116 106.189 142.301C106.189 141.688 106.258 141.005 106.258 140.322C106.396 140.593 106.526 140.733 106.734 140.733C107.271 140.873 107.678 140.05 107.886 139.638C108.094 139.226 108.294 138.543 108.562 137.79C108.423 138.473 108.224 139.156 108.094 139.84L108.077 139.857ZM107.808 137.124C107.471 138.079 107.202 138.762 106.994 139.235V137.054C106.994 136.642 107.063 136.178 107.063 135.687C107.063 135.346 107.133 134.934 107.133 134.461H107.202C107.609 134.592 108.068 134.802 108.553 134.943C108.285 135.757 108.016 136.511 107.808 137.124ZM110.918 141.627C110.849 142.38 110.78 143.134 110.719 143.817C110.58 144.693 110.52 145.455 110.45 146.139C110.381 146.822 110.243 147.365 110.182 147.847L110.113 148.119L110.043 147.847C109.974 147.365 109.835 146.822 109.775 146.139C109.714 145.455 109.576 144.702 109.506 143.817C109.437 143.134 109.368 142.38 109.307 141.627C109.238 141.215 109.238 140.812 109.177 140.33L109.246 140.602C109.446 141.425 109.714 141.828 110.113 141.828C110.511 141.828 110.788 141.417 110.979 140.602L111.048 140.33C110.979 140.812 110.979 141.206 110.91 141.627H110.918ZM109.368 135.346V135.275L109.775 135.407L109.905 135.477L110.113 135.407L110.788 135.205V135.346C110.719 136.222 110.65 137.054 110.52 137.974C110.425 138.754 110.289 139.529 110.113 140.295C109.936 139.529 109.8 138.754 109.705 137.974C109.567 137.098 109.506 136.265 109.368 135.346ZM109.905 134.522C108.26 133.915 106.651 133.21 105.088 132.411C103.582 131.618 102.287 130.47 101.312 129.064C100.414 127.484 99.826 125.744 99.5792 123.939C99.3234 122.769 99.1383 121.584 99.0248 120.391C99.6866 121.27 100.51 122.01 101.45 122.572C104.007 124.137 106.938 124.964 109.926 124.964C112.915 124.964 115.846 124.137 118.402 122.572C119.346 122.012 120.172 121.271 120.837 120.391C120.73 121.584 120.55 122.769 120.3 123.939C120.053 125.744 119.465 127.484 118.567 129.064C117.59 130.472 116.292 131.62 114.782 132.411C113.204 133.212 111.581 133.92 109.922 134.531L109.905 134.522ZM113.196 139.218C112.845 138.548 112.571 137.84 112.382 137.106C112.084 136.374 111.835 135.622 111.637 134.855C112.044 134.653 112.503 134.513 112.919 134.303L112.989 134.443C113.058 134.925 113.058 135.319 113.127 135.67V137.036C113.196 137.991 113.196 138.745 113.196 139.218ZM114.011 144.413C114.022 145.097 113.999 145.781 113.941 146.463C113.733 145.888 113.554 145.303 113.404 144.711C112.937 143.142 112.46 141.495 112.122 139.857C111.923 139.174 111.784 138.491 111.646 137.807C111.914 138.561 112.122 139.174 112.322 139.656C112.521 140.138 112.928 140.882 113.465 140.751C113.664 140.751 113.803 140.611 113.933 140.339C113.92 141 113.944 141.661 114.002 142.319V144.43L114.011 144.413ZM117.051 142.915C116.671 142.288 116.33 141.639 116.029 140.97C115.76 140.357 115.492 139.673 115.163 139.06C114.756 138.105 114.418 137.212 114.08 136.327C114.49 137.097 114.965 137.83 115.501 138.517C115.968 139.13 116.367 139.393 116.713 139.27C116.783 139.27 116.852 139.2 116.921 139.139C116.991 139.612 117.12 140.015 117.19 140.435C117.32 141.25 117.458 141.934 117.528 142.626C117.66 143.161 117.726 143.712 117.727 144.264C117.528 143.922 117.32 143.51 117.051 142.967V142.915ZM121.304 141.478C120.506 140.616 119.762 139.703 119.078 138.745C118.671 138.131 118.212 137.448 117.727 136.765C117.242 136.081 116.921 135.608 116.514 135.013L116.783 135.284C117.291 135.885 117.857 136.434 118.472 136.922C119.078 137.466 119.624 137.606 119.892 137.404L120.161 138.088C120.614 139.201 120.999 140.342 121.313 141.504L121.304 141.478ZM124.475 138.342C123.563 137.672 122.695 136.944 121.876 136.16C121.27 135.678 120.663 135.065 119.988 134.452C119.451 133.9 118.914 133.357 118.368 132.875L118.229 132.533L118.299 132.603C118.706 132.875 119.165 133.147 119.581 133.418C120.409 133.904 121.279 134.314 122.179 134.645L122.309 134.715C123.111 135.873 123.835 137.085 124.475 138.342ZM129.265 135.267C128.38 135.036 127.511 134.743 126.666 134.391C125.454 133.847 124.068 133.225 122.543 132.481C122.205 132.069 121.807 131.605 121.33 130.974C122.538 131.507 123.811 131.876 125.116 132.069L125.454 132.341C127.186 133.707 128.494 134.662 129.239 135.275L129.265 135.267ZM133.596 132.533C132.658 132.437 131.73 132.255 130.824 131.99C129.428 131.671 128.054 131.262 126.71 130.764C125.919 129.908 125.049 129.13 124.111 128.442C124.557 128.538 125.008 128.605 125.462 128.644C126 128.718 126.54 128.765 127.082 128.784C129.239 130.01 131.474 131.246 133.562 132.542L133.596 132.533ZM138.326 129.257C136.834 129.31 135.34 129.219 133.865 128.985C132.851 128.845 131.708 128.714 130.486 128.442C130.621 128.376 130.728 128.265 130.79 128.127C130.851 127.989 130.864 127.834 130.824 127.689C130.686 127.207 129.135 126.322 127.654 125.499C128.598 125.709 129.473 125.77 130.253 125.91C132.851 126.935 135.857 128.03 138.291 129.257H138.326ZM143.593 124.955C143.731 124.955 143.731 125.025 143.792 125.025C143.723 125.025 143.385 125.096 143.255 125.096C141.019 125.428 138.756 125.542 136.498 125.437C134.812 125.367 132.99 125.23 131.032 125.025C132.322 124.912 133.58 124.565 134.748 124C135.615 123.519 135.563 123.124 134.618 122.634H134.956C137.789 123.387 140.829 124.071 143.619 124.955H143.593ZM141.635 118.604C147.11 119.287 149.431 119.48 149.535 119.699C149.535 119.769 149.128 119.9 148.998 119.9C146.54 120.609 144.018 121.07 141.47 121.276C138.263 121.625 135.038 121.785 131.812 121.758C131.136 121.556 130.53 121.416 129.854 121.215C131.205 120.943 132.453 120.601 133.64 120.26C135.381 119.746 137.076 119.084 138.707 118.28C139.651 118.42 140.665 118.551 141.609 118.621L141.635 118.604ZM156.153 112.182C153.747 113.332 151.238 114.248 148.66 114.916C146.295 115.529 143.593 116.212 140.621 116.755C140.621 116.484 140.284 116.282 139.469 116.072C137.631 115.878 135.783 115.788 133.934 115.8L121.911 115.66C121.834 115.107 121.651 114.575 121.374 114.092C121.244 113.787 121.087 113.493 120.906 113.216L146.971 112.261C151.363 112.06 154.403 111.99 155.954 112.06C156.283 112.06 156.352 112.121 156.144 112.191L156.153 112.182Z" fill="currentColor"/>
    <path fill-rule="evenodd" clip-rule="evenodd" d="M71.7384 75.7906C70.2571 76.1322 69.0531 77.9895 69.0704 79.8117C69.0993 84.1862 69.1281 88.5665 69.157 92.9527C69.157 94.7048 70.3871 95.9225 71.851 95.5809C72.6399 95.2921 73.3196 94.761 73.7949 94.0618C74.2703 93.3627 74.5174 92.5307 74.5017 91.6824C74.5017 87.3196 74.4815 82.9597 74.4411 78.6027C74.4411 76.7893 73.211 75.4839 71.7297 75.8256L71.7384 75.7906ZM71.7384 77.4463C72.5093 77.2711 73.133 77.9194 73.1417 78.8568C73.1417 83.2196 73.1648 87.5824 73.211 91.9452C73.2205 92.3839 73.0923 92.8143 72.8449 93.1748C72.5974 93.5352 72.2434 93.8071 71.8337 93.9514C71.0714 94.1354 70.4477 93.5221 70.439 92.611C70.439 88.2424 70.4102 83.862 70.3524 79.47C70.3471 79.0277 70.4787 78.5948 70.7288 78.2319C70.9788 77.869 71.3349 77.5943 71.7471 77.4463H71.7384Z" fill="currentColor"/>
    <path fill-rule="evenodd" clip-rule="evenodd" d="M135.407 72.9784C133.917 72.7068 132.687 74.0735 132.687 75.8869C132.687 80.2264 132.687 84.5658 132.687 88.9053C132.673 89.7457 132.93 90.5678 133.419 91.2474C133.909 91.927 134.603 92.4271 135.398 92.6723C136.888 92.9614 138.109 91.7174 138.109 89.9565C138.109 85.5996 138.109 81.2426 138.109 76.8856C138.109 75.0722 136.888 73.25 135.398 72.9784H135.407ZM135.407 74.6342C135.825 74.7648 136.189 75.0313 136.443 75.3924C136.697 75.7534 136.826 76.1889 136.81 76.6316C136.81 80.9827 136.81 85.3368 136.81 89.6937C136.81 90.5698 136.178 91.2444 135.407 91.0867C134.995 90.9639 134.635 90.708 134.382 90.3582C134.128 90.0085 133.995 89.5842 134.003 89.1506C134.003 84.8053 134.003 80.4629 134.003 76.1235C134.003 75.1861 134.636 74.5027 135.407 74.6429V74.6342Z" fill="currentColor"/>
</svg>
