<svg width="21" height="21" viewBox="0 0 21 21" fill="none" xmlns="http://www.w3.org/2000/svg">
<path d="M8.6775 13.7533L8 16.125L7.3225 13.7533C7.14739 13.1407 6.81908 12.5828 6.36855 12.1323C5.91802 11.6818 5.36012 11.3534 4.7475 11.1783L2.375 10.5L4.74667 9.8225C5.35928 9.64739 5.91718 9.31908 6.36772 8.86855C6.81825 8.41802 7.14656 7.86012 7.32167 7.2475L8 4.875L8.6775 7.24667C8.85261 7.85928 9.18092 8.41718 9.63145 8.86772C10.082 9.31825 10.6399 9.64656 11.2525 9.82167L13.625 10.5L11.2533 11.1775C10.6407 11.3526 10.0828 11.6809 9.63228 12.1315C9.18175 12.582 8.85344 13.1399 8.67833 13.7525L8.6775 13.7533ZM15.7158 7.7625L15.5 8.625L15.2842 7.7625C15.1606 7.26799 14.905 6.81635 14.5447 6.45586C14.1843 6.09537 13.7328 5.83958 13.2383 5.71583L12.375 5.5L13.2383 5.28417C13.7328 5.16042 14.1843 4.90463 14.5447 4.54414C14.905 4.18365 15.1606 3.73201 15.2842 3.2375L15.5 2.375L15.7158 3.2375C15.8394 3.73211 16.0952 4.18382 16.4557 4.54432C16.8162 4.90482 17.2679 5.16056 17.7625 5.28417L18.625 5.5L17.7625 5.71583C17.2679 5.83944 16.8162 6.09518 16.4557 6.45568C16.0952 6.81618 15.8394 7.26789 15.7158 7.7625ZM14.5783 17.6392L14.25 18.625L13.9217 17.6392C13.8296 17.363 13.6745 17.1121 13.4687 16.9063C13.2629 16.7005 13.012 16.5454 12.7358 16.4533L11.75 16.125L12.7358 15.7967C13.012 15.7046 13.2629 15.5495 13.4687 15.3437C13.6745 15.1379 13.8296 14.887 13.9217 14.6108L14.25 13.625L14.5783 14.6108C14.6704 14.887 14.8255 15.1379 15.0313 15.3437C15.2371 15.5495 15.488 15.7046 15.7642 15.7967L16.75 16.125L15.7642 16.4533C15.488 16.5454 15.2371 16.7005 15.0313 16.9063C14.8255 17.1121 14.6704 17.363 14.5783 17.6392Z" stroke="black" stroke-width="1.5" stroke-linecap="round" stroke-linejoin="round"/>
</svg>
