<svg width="21" height="21" viewBox="0 0 21 21" fill="none" xmlns="http://www.w3.org/2000/svg">
<path fill-rule="evenodd" clip-rule="evenodd" d="M8.00004 4.25C8.13584 4.25003 8.26794 4.29429 8.37635 4.37608C8.48475 4.45788 8.56357 4.57275 8.60087 4.70333L9.27837 7.075C9.42425 7.58577 9.69791 8.05092 10.0735 8.42652C10.4491 8.80213 10.9143 9.07579 11.425 9.22167L13.7967 9.89917C13.9272 9.93655 14.042 10.0154 14.1237 10.1238C14.2054 10.2322 14.2496 10.3643 14.2496 10.5C14.2496 10.6357 14.2054 10.7678 14.1237 10.8762C14.042 10.9846 13.9272 11.0635 13.7967 11.1008L11.425 11.7783C10.9143 11.9242 10.4491 12.1979 10.0735 12.5735C9.69791 12.9491 9.42425 13.4142 9.27837 13.925L8.60087 16.2967C8.56349 16.4272 8.48464 16.5419 8.37624 16.6236C8.26784 16.7054 8.13578 16.7496 8.00004 16.7496C7.86429 16.7496 7.73224 16.7054 7.62384 16.6236C7.51544 16.5419 7.43659 16.4272 7.3992 16.2967L6.72171 13.925C6.57583 13.4142 6.30217 12.9491 5.92656 12.5735C5.55095 12.1979 5.0858 11.9242 4.57504 11.7783L2.20337 11.1008C2.07288 11.0635 1.9581 10.9846 1.87639 10.8762C1.79468 10.7678 1.75049 10.6357 1.75049 10.5C1.75049 10.3643 1.79468 10.2322 1.87639 10.1238C1.9581 10.0154 2.07288 9.93655 2.20337 9.89917L4.57504 9.22167C5.0858 9.07579 5.55095 8.80213 5.92656 8.42652C6.30217 8.05092 6.57583 7.58577 6.72171 7.075L7.3992 4.70333C7.43651 4.57275 7.51532 4.45788 7.62373 4.37608C7.73214 4.29429 7.86424 4.25003 8.00004 4.25ZM15.5 1.75C15.6395 1.74992 15.7749 1.79647 15.8848 1.88224C15.9948 1.96801 16.0729 2.08807 16.1067 2.22333L16.3217 3.08667C16.5184 3.87 17.13 4.48167 17.9134 4.67833L18.7767 4.89333C18.9122 4.9269 19.0326 5.00488 19.1186 5.11483C19.2047 5.22479 19.2514 5.36038 19.2514 5.5C19.2514 5.63962 19.2047 5.77521 19.1186 5.88517C19.0326 5.99512 18.9122 6.0731 18.7767 6.10667L17.9134 6.32167C17.13 6.51833 16.5184 7.13 16.3217 7.91333L16.1067 8.77667C16.0731 8.91219 15.9952 9.03257 15.8852 9.11861C15.7753 9.20465 15.6397 9.2514 15.5 9.2514C15.3604 9.2514 15.2248 9.20465 15.1149 9.11861C15.0049 9.03257 14.9269 8.91219 14.8934 8.77667L14.6784 7.91333C14.5822 7.52869 14.3833 7.17742 14.103 6.89706C13.8226 6.61671 13.4713 6.41782 13.0867 6.32167L12.2234 6.10667C12.0878 6.0731 11.9675 5.99512 11.8814 5.88517C11.7954 5.77521 11.7486 5.63962 11.7486 5.5C11.7486 5.36038 11.7954 5.22479 11.8814 5.11483C11.9675 5.00488 12.0878 4.9269 12.2234 4.89333L13.0867 4.67833C13.4713 4.58218 13.8226 4.38329 14.103 4.10294C14.3833 3.82258 14.5822 3.47131 14.6784 3.08667L14.8934 2.22333C14.9272 2.08807 15.0053 1.96801 15.1152 1.88224C15.2252 1.79647 15.3606 1.74992 15.5 1.75ZM14.25 13C14.3813 12.9999 14.5093 13.0412 14.6158 13.1179C14.7223 13.1946 14.8019 13.303 14.8434 13.4275L15.1717 14.4133C15.2967 14.7858 15.5884 15.0792 15.9617 15.2033L16.9475 15.5325C17.0717 15.5742 17.1796 15.6538 17.256 15.7601C17.3325 15.8664 17.3736 15.9941 17.3736 16.125C17.3736 16.2559 17.3325 16.3836 17.256 16.4899C17.1796 16.5962 17.0717 16.6758 16.9475 16.7175L15.9617 17.0467C15.5892 17.1717 15.2959 17.4633 15.1717 17.8367L14.8425 18.8225C14.8009 18.9466 14.7212 19.0545 14.6149 19.131C14.5086 19.2075 14.381 19.2486 14.25 19.2486C14.1191 19.2486 13.9915 19.2075 13.8851 19.131C13.7788 19.0545 13.6992 18.9466 13.6575 18.8225L13.3284 17.8367C13.267 17.6527 13.1637 17.4856 13.0265 17.3485C12.8894 17.2114 12.7223 17.1081 12.5384 17.0467L11.5525 16.7175C11.4284 16.6758 11.3205 16.5962 11.244 16.4899C11.1676 16.3836 11.1265 16.2559 11.1265 16.125C11.1265 15.9941 11.1676 15.8664 11.244 15.7601C11.3205 15.6538 11.4284 15.5742 11.5525 15.5325L12.5384 15.2033C12.9109 15.0783 13.2042 14.7867 13.3284 14.4133L13.6575 13.4275C13.699 13.3031 13.7785 13.1949 13.8848 13.1182C13.9911 13.0414 14.1189 13.0001 14.25 13Z" fill="black"/>
</svg>
