<svg width="21" height="21" viewBox="0 0 21 21" fill="none" xmlns="http://www.w3.org/2000/svg">
<path d="M15.3649 15.3649C15.8023 15.8023 15.8063 16.5188 15.3121 16.8909C14.5399 17.4723 13.6661 17.9109 12.7319 18.1823C11.4379 18.5583 10.0699 18.6013 8.75485 18.3073C7.43979 18.0134 6.22029 17.392 5.2095 16.5009C4.19872 15.6098 3.42941 14.4778 2.97295 13.2099C2.5165 11.9421 2.3877 10.5794 2.59849 9.24851C2.80929 7.91759 3.35286 6.66148 4.17876 5.59673C5.00466 4.53199 6.08613 3.69311 7.32282 3.15795C8.21563 2.7716 9.16846 2.55257 10.1341 2.50836C10.752 2.48007 11.2057 3.03471 11.1475 3.65052C11.0893 4.26634 10.5393 4.707 9.92382 4.76888C9.33606 4.82797 8.75864 4.97735 8.21243 5.21372C7.32201 5.59904 6.54336 6.20303 5.94871 6.96965C5.35406 7.73626 4.96269 8.64066 4.81091 9.59893C4.65914 10.5572 4.75188 11.5383 5.08053 12.4511C5.40917 13.364 5.96308 14.179 6.69084 14.8206C7.41861 15.4623 8.29665 15.9096 9.24349 16.1213C10.1903 16.3329 11.1753 16.302 12.107 16.0313C12.6785 15.8652 13.2186 15.6123 13.7092 15.2832C14.2229 14.9385 14.9275 14.9275 15.3649 15.3649Z" fill="black"/>
</svg>
