<svg width="21" height="21" viewBox="0 0 21 21" fill="none" xmlns="http://www.w3.org/2000/svg">
<path d="M2.5 4.75C2.5 4.15326 2.73705 3.58097 3.15901 3.15901C3.58097 2.73705 4.15326 2.5 4.75 2.5H7.25C7.84674 2.5 8.41903 2.73705 8.84099 3.15901C9.26295 3.58097 9.5 4.15326 9.5 4.75V7.25C9.5 7.84674 9.26295 8.41903 8.84099 8.84099C8.41903 9.26295 7.84674 9.5 7.25 9.5H4.75C4.15326 9.5 3.58097 9.26295 3.15901 8.84099C2.73705 8.41903 2.5 7.84674 2.5 7.25V4.75ZM2.5 13.75C2.5 13.1533 2.73705 12.581 3.15901 12.159C3.58097 11.7371 4.15326 11.5 4.75 11.5H7.25C7.84674 11.5 8.41903 11.7371 8.84099 12.159C9.26295 12.581 9.5 13.1533 9.5 13.75V16.25C9.5 16.8467 9.26295 17.419 8.84099 17.841C8.41903 18.2629 7.84674 18.5 7.25 18.5H4.75C4.15326 18.5 3.58097 18.2629 3.15901 17.841C2.73705 17.419 2.5 16.8467 2.5 16.25V13.75ZM11.5 4.75C11.5 4.15326 11.7371 3.58097 12.159 3.15901C12.581 2.73705 13.1533 2.5 13.75 2.5H16.25C16.8467 2.5 17.419 2.73705 17.841 3.15901C18.2629 3.58097 18.5 4.15326 18.5 4.75V7.25C18.5 7.84674 18.2629 8.41903 17.841 8.84099C17.419 9.26295 16.8467 9.5 16.25 9.5H13.75C13.1533 9.5 12.581 9.26295 12.159 8.84099C11.7371 8.41903 11.5 7.84674 11.5 7.25V4.75ZM15.75 12.25C15.75 12.0511 15.671 11.8603 15.5303 11.7197C15.3897 11.579 15.1989 11.5 15 11.5C14.8011 11.5 14.6103 11.579 14.4697 11.7197C14.329 11.8603 14.25 12.0511 14.25 12.25V14.25H12.25C12.0511 14.25 11.8603 14.329 11.7197 14.4697C11.579 14.6103 11.5 14.8011 11.5 15C11.5 15.1989 11.579 15.3897 11.7197 15.5303C11.8603 15.671 12.0511 15.75 12.25 15.75H14.25V17.75C14.25 17.9489 14.329 18.1397 14.4697 18.2803C14.6103 18.421 14.8011 18.5 15 18.5C15.1989 18.5 15.3897 18.421 15.5303 18.2803C15.671 18.1397 15.75 17.9489 15.75 17.75V15.75H17.75C17.9489 15.75 18.1397 15.671 18.2803 15.5303C18.421 15.3897 18.5 15.1989 18.5 15C18.5 14.8011 18.421 14.6103 18.2803 14.4697C18.1397 14.329 17.9489 14.25 17.75 14.25H15.75V12.25Z" fill="black"/>
</svg>
