<svg width="21" height="21" viewBox="0 0 21 21" fill="none" xmlns="http://www.w3.org/2000/svg">
<path d="M14.25 7.375V5.5C14.25 5.00272 14.0525 4.52581 13.7008 4.17417C13.3492 3.82254 12.8723 3.625 12.375 3.625H5.5C5.00272 3.625 4.52581 3.82254 4.17417 4.17417C3.82254 4.52581 3.625 5.00272 3.625 5.5V12.375C3.625 12.8723 3.82254 13.3492 4.17417 13.7008C4.52581 14.0525 5.00272 14.25 5.5 14.25H7.375M14.25 7.375H15.5C15.9973 7.375 16.4742 7.57254 16.8258 7.92417C17.1775 8.27581 17.375 8.75272 17.375 9.25V15.5C17.375 15.9973 17.1775 16.4742 16.8258 16.8258C16.4742 17.1775 15.9973 17.375 15.5 17.375H9.25C8.75272 17.375 8.27581 17.1775 7.92417 16.8258C7.57254 16.4742 7.375 15.9973 7.375 15.5V14.25M14.25 7.375H9.25C8.75272 7.375 8.27581 7.57254 7.92417 7.92417C7.57254 8.27581 7.375 8.75272 7.375 9.25V14.25" stroke="black" stroke-width="1.5" stroke-linecap="round" stroke-linejoin="round"/>
</svg>
