<svg width="21" height="21" viewBox="0 0 21 21" fill="none" xmlns="http://www.w3.org/2000/svg">
<path d="M13.7763 7.76995V6.13192C13.7763 5.69749 13.6037 5.28085 13.2965 4.97366C12.9893 4.66647 12.5727 4.4939 12.1383 4.4939H6.13217C5.69774 4.4939 5.2811 4.66647 4.97391 4.97366C4.66672 5.28085 4.49414 5.69749 4.49414 6.13192V12.138C4.49414 12.5725 4.66672 12.9891 4.97391 13.2963C5.2811 13.6035 5.69774 13.7761 6.13217 13.7761H7.7702M13.7763 7.76995H14.8683C15.3028 7.76995 15.7194 7.94253 16.0266 8.24972C16.3338 8.55691 16.5063 8.97355 16.5063 9.40798V14.8681C16.5063 15.3025 16.3338 15.7191 16.0266 16.0263C15.7194 16.3335 15.3028 16.5061 14.8683 16.5061H9.40823C8.97379 16.5061 8.55715 16.3335 8.24996 16.0263C7.94277 15.7191 7.7702 15.3025 7.7702 14.8681V13.7761M13.7763 7.76995H9.40823C8.97379 7.76995 8.55715 7.94253 8.24996 8.24972C7.94277 8.55691 7.7702 8.97355 7.7702 9.40798V13.7761" stroke="black" stroke-width="1.5" stroke-linecap="round" stroke-linejoin="round"/>
</svg>
