<svg width="21" height="21" viewBox="0 0 21 21" fill="none" xmlns="http://www.w3.org/2000/svg">
<path d="M2.5 4.75C2.5 4.15326 2.73705 3.58097 3.15901 3.15901C3.58097 2.73705 4.15326 2.5 4.75 2.5H11.25C11.8467 2.5 12.419 2.73705 12.841 3.15901C13.2629 3.58097 13.5 4.15326 13.5 4.75V6H9.75C8.75544 6 7.80161 6.39509 7.09835 7.09835C6.39509 7.80161 6 8.75544 6 9.75V13.5H4.75C4.15326 13.5 3.58097 13.2629 3.15901 12.841C2.73705 12.419 2.5 11.8467 2.5 11.25V4.75Z" fill="black"/>
<path d="M9.75 7.5C9.15326 7.5 8.58097 7.73705 8.15901 8.15901C7.73705 8.58097 7.5 9.15326 7.5 9.75V16.25C7.5 16.8467 7.73705 17.419 8.15901 17.841C8.58097 18.2629 9.15326 18.5 9.75 18.5H16.25C16.8467 18.5 17.419 18.2629 17.841 17.841C18.2629 17.419 18.5 16.8467 18.5 16.25V9.75C18.5 9.15326 18.2629 8.58097 17.841 8.15901C17.419 7.73705 16.8467 7.5 16.25 7.5H9.75Z" fill="black"/>
</svg>
