<svg width="21" height="21" viewBox="0 0 21 21" fill="none" xmlns="http://www.w3.org/2000/svg">
<path d="M11.75 14.5625H14.5625M14.5625 14.5625H17.375M14.5625 14.5625V11.75M14.5625 14.5625V17.375M5.5 9.25H7.375C7.87228 9.25 8.34919 9.05246 8.70082 8.70083C9.05246 8.34919 9.25 7.87228 9.25 7.375V5.5C9.25 5.00272 9.05246 4.52581 8.70082 4.17418C8.34919 3.82254 7.87228 3.625 7.375 3.625H5.5C5.00272 3.625 4.52581 3.82254 4.17417 4.17418C3.82254 4.52581 3.625 5.00272 3.625 5.5V7.375C3.625 7.87228 3.82254 8.34919 4.17417 8.70083C4.52581 9.05246 5.00272 9.25 5.5 9.25ZM5.5 17.375H7.375C7.87228 17.375 8.34919 17.1775 8.70082 16.8259C9.05246 16.4742 9.25 15.9973 9.25 15.5V13.625C9.25 13.1277 9.05246 12.6508 8.70082 12.2992C8.34919 11.9476 7.87228 11.75 7.375 11.75H5.5C5.00272 11.75 4.52581 11.9476 4.17417 12.2992C3.82254 12.6508 3.625 13.1277 3.625 13.625V15.5C3.625 15.9973 3.82254 16.4742 4.17417 16.8259C4.52581 17.1775 5.00272 17.375 5.5 17.375ZM13.625 9.25H15.5C15.9973 9.25 16.4742 9.05246 16.8258 8.70083C17.1775 8.34919 17.375 7.87228 17.375 7.375V5.5C17.375 5.00272 17.1775 4.52581 16.8258 4.17418C16.4742 3.82254 15.9973 3.625 15.5 3.625H13.625C13.1277 3.625 12.6508 3.82254 12.2992 4.17418C11.9475 4.52581 11.75 5.00272 11.75 5.5V7.375C11.75 7.87228 11.9475 8.34919 12.2992 8.70083C12.6508 9.05246 13.1277 9.25 13.625 9.25Z" stroke="black" stroke-width="1.5" stroke-linecap="round" stroke-linejoin="round"/>
</svg>
