<svg width="21" height="21" viewBox="0 0 21 21" fill="none" xmlns="http://www.w3.org/2000/svg">
<path d="M10.0666 3.41581C10.1019 3.32983 10.1619 3.25629 10.2391 3.20452C10.3162 3.15276 10.407 3.12512 10.5 3.12512C10.5929 3.12512 10.6837 3.15276 10.7609 3.20452C10.838 3.25629 10.8981 3.32983 10.9333 3.41581L12.7041 7.67497C12.7373 7.75467 12.7918 7.82368 12.8616 7.8744C12.9314 7.92513 13.0139 7.9556 13.1 7.96248L17.6983 8.33081C18.1141 8.36414 18.2825 8.88331 17.9658 9.15414L14.4625 12.1558C14.397 12.2118 14.3482 12.2847 14.3215 12.3666C14.2947 12.4485 14.291 12.5361 14.3108 12.62L15.3816 17.1075C15.4032 17.1975 15.3975 17.2919 15.3654 17.3787C15.3333 17.4656 15.2762 17.5409 15.2013 17.5953C15.1264 17.6497 15.0371 17.6807 14.9446 17.6843C14.8521 17.688 14.7606 17.6641 14.6816 17.6158L10.7441 15.2116C10.6706 15.1668 10.5861 15.1431 10.5 15.1431C10.4138 15.1431 10.3293 15.1668 10.2558 15.2116L6.3183 17.6166C6.23934 17.665 6.14784 17.6888 6.05534 17.6852C5.96285 17.6815 5.87351 17.6505 5.7986 17.5962C5.7237 17.5418 5.6666 17.4664 5.63451 17.3796C5.60241 17.2927 5.59677 17.1983 5.6183 17.1083L6.68913 12.62C6.70899 12.5361 6.70534 12.4485 6.67858 12.3666C6.65182 12.2847 6.60299 12.2117 6.53746 12.1558L3.03413 9.15414C2.96397 9.09382 2.91322 9.0141 2.88825 8.925C2.86329 8.83591 2.86522 8.74143 2.89381 8.65343C2.9224 8.56543 2.97637 8.48785 3.04893 8.43045C3.1215 8.37305 3.20942 8.33838 3.30163 8.33081L7.89996 7.96248C7.986 7.9556 8.06848 7.92513 8.13832 7.8744C8.20816 7.82368 8.26265 7.75467 8.2958 7.67497L10.0666 3.41581Z" stroke="black" stroke-width="1.5" stroke-linecap="round" stroke-linejoin="round"/>
</svg>
