<svg width="21" height="21" viewBox="0 0 21 21" fill="none" xmlns="http://www.w3.org/2000/svg">
<path d="M10.5 2.375C10.6658 2.375 10.8247 2.44085 10.9419 2.55806C11.0592 2.67527 11.125 2.83424 11.125 3V4.875C11.125 5.04076 11.0592 5.19973 10.9419 5.31694C10.8247 5.43415 10.6658 5.5 10.5 5.5C10.3342 5.5 10.1753 5.43415 10.0581 5.31694C9.94085 5.19973 9.875 5.04076 9.875 4.875V3C9.875 2.83424 9.94085 2.67527 10.0581 2.55806C10.1753 2.44085 10.3342 2.375 10.5 2.375ZM6.75 10.5C6.75 9.50544 7.14509 8.55161 7.84835 7.84835C8.55161 7.14509 9.50544 6.75 10.5 6.75C11.4946 6.75 12.4484 7.14509 13.1516 7.84835C13.8549 8.55161 14.25 9.50544 14.25 10.5C14.25 11.4946 13.8549 12.4484 13.1516 13.1516C12.4484 13.8549 11.4946 14.25 10.5 14.25C9.50544 14.25 8.55161 13.8549 7.84835 13.1516C7.14509 12.4484 6.75 11.4946 6.75 10.5ZM16.245 5.63833C16.3554 5.51985 16.4155 5.36315 16.4126 5.20123C16.4098 5.03931 16.3442 4.88483 16.2297 4.77032C16.1152 4.6558 15.9607 4.59021 15.7988 4.58735C15.6369 4.5845 15.4801 4.6446 15.3617 4.755L14.0358 6.08C13.9761 6.13763 13.9285 6.20657 13.8957 6.28281C13.8629 6.35904 13.8456 6.44105 13.8448 6.52403C13.8441 6.60702 13.8599 6.68933 13.8912 6.76615C13.9226 6.84298 13.969 6.91278 14.0277 6.97149C14.0863 7.0302 14.1561 7.07664 14.2329 7.1081C14.3097 7.13957 14.392 7.15542 14.475 7.15474C14.5579 7.15405 14.64 7.13685 14.7162 7.10413C14.7925 7.07141 14.8615 7.02383 14.9192 6.96417L16.245 5.63833ZM18.625 10.5C18.625 10.6658 18.5592 10.8247 18.4419 10.9419C18.3247 11.0592 18.1658 11.125 18 11.125H16.125C15.9592 11.125 15.8003 11.0592 15.6831 10.9419C15.5658 10.8247 15.5 10.6658 15.5 10.5C15.5 10.3342 15.5658 10.1753 15.6831 10.0581C15.8003 9.94085 15.9592 9.875 16.125 9.875H18C18.1658 9.875 18.3247 9.94085 18.4419 10.0581C18.5592 10.1753 18.625 10.3342 18.625 10.5ZM15.3617 16.245C15.4801 16.3554 15.6369 16.4155 15.7988 16.4126C15.9607 16.4098 16.1152 16.3442 16.2297 16.2297C16.3442 16.1152 16.4098 15.9607 16.4126 15.7988C16.4155 15.6369 16.3554 15.4801 16.245 15.3617L14.92 14.0358C14.8624 13.9761 14.7934 13.9285 14.7172 13.8957C14.641 13.8629 14.559 13.8456 14.476 13.8448C14.393 13.8441 14.3107 13.8599 14.2338 13.8912C14.157 13.9226 14.0872 13.969 14.0285 14.0277C13.9698 14.0863 13.9234 14.1561 13.8919 14.2329C13.8604 14.3097 13.8446 14.392 13.8453 14.475C13.8459 14.5579 13.8631 14.64 13.8959 14.7162C13.9286 14.7925 13.9762 14.8615 14.0358 14.9192L15.3617 16.245ZM10.5 15.5C10.6658 15.5 10.8247 15.5658 10.9419 15.6831C11.0592 15.8003 11.125 15.9592 11.125 16.125V18C11.125 18.1658 11.0592 18.3247 10.9419 18.4419C10.8247 18.5592 10.6658 18.625 10.5 18.625C10.3342 18.625 10.1753 18.5592 10.0581 18.4419C9.94085 18.3247 9.875 18.1658 9.875 18V16.125C9.875 15.9592 9.94085 15.8003 10.0581 15.6831C10.1753 15.5658 10.3342 15.5 10.5 15.5ZM6.965 14.9192C7.07879 14.8012 7.14172 14.6433 7.14022 14.4795C7.13872 14.3156 7.07291 14.1589 6.95698 14.043C6.84104 13.9272 6.68425 13.8615 6.52038 13.8602C6.3565 13.8589 6.19866 13.9219 6.08083 14.0358L4.755 15.3608C4.64109 15.4787 4.57802 15.6365 4.57937 15.8004C4.58071 15.9643 4.64637 16.121 4.7622 16.237C4.87802 16.3529 5.03475 16.4187 5.19862 16.4202C5.3625 16.4217 5.5204 16.3588 5.63833 16.245L6.96417 14.92L6.965 14.9192ZM5.5 10.5C5.5 10.6658 5.43415 10.8247 5.31694 10.9419C5.19973 11.0592 5.04076 11.125 4.875 11.125H3C2.83424 11.125 2.67527 11.0592 2.55806 10.9419C2.44085 10.8247 2.375 10.6658 2.375 10.5C2.375 10.3342 2.44085 10.1753 2.55806 10.0581C2.67527 9.94085 2.83424 9.875 3 9.875H4.875C5.04076 9.875 5.19973 9.94085 5.31694 10.0581C5.43415 10.1753 5.5 10.3342 5.5 10.5ZM6.08083 6.96417C6.19931 7.07457 6.35602 7.13467 6.51794 7.13181C6.67985 7.12896 6.83434 7.06336 6.94885 6.94885C7.06336 6.83434 7.12896 6.67985 7.13181 6.51794C7.13467 6.35602 7.07457 6.19931 6.96417 6.08083L5.63917 4.755C5.52134 4.64109 5.3635 4.57802 5.19962 4.57937C5.03575 4.58071 4.87896 4.64637 4.76302 4.7622C4.64709 4.87802 4.58128 5.03475 4.57978 5.19862C4.57828 5.3625 4.64121 5.5204 4.755 5.63833L6.08083 6.96417Z" fill="black"/>
</svg>
