<svg width="21" height="21" viewBox="0 0 21 21" fill="none" xmlns="http://www.w3.org/2000/svg">
<path d="M10.5 3V4.875M15.8033 5.19667L14.4775 6.5225M18 10.5H16.125M15.8033 15.8033L14.4775 14.4775M10.5 16.125V18M6.5225 14.4775L5.19667 15.8033M4.875 10.5H3M6.5225 6.5225L5.19667 5.19667M13.625 10.5C13.625 11.3288 13.2958 12.1237 12.7097 12.7097C12.1237 13.2958 11.3288 13.625 10.5 13.625C9.6712 13.625 8.87634 13.2958 8.29029 12.7097C7.70424 12.1237 7.375 11.3288 7.375 10.5C7.375 9.6712 7.70424 8.87634 8.29029 8.29029C8.87634 7.70424 9.6712 7.375 10.5 7.375C11.3288 7.375 12.1237 7.70424 12.7097 8.29029C13.2958 8.87634 13.625 9.6712 13.625 10.5Z" stroke="black" stroke-width="1.5" stroke-linecap="round" stroke-linejoin="round"/>
</svg>
