<svg width="21" height="21" viewBox="0 0 21 21" fill="none" xmlns="http://www.w3.org/2000/svg">
<path d="M3.915 17.085C4.20519 17.3753 4.54973 17.6055 4.92892 17.7626C5.30812 17.9197 5.71455 18.0006 6.125 18.0006M3.915 17.085C4.50105 17.6711 5.2962 18.0006 6.125 18.0006M3.915 17.085C3.32895 16.4989 3 15.7038 3 14.875V3.9375C3 3.42 3.42 3 3.9375 3H8.3125C8.83 3 9.25 3.42 9.25 3.9375V7.33083M6.125 18.0006C6.53545 18.0006 6.94188 17.9197 7.32108 17.7626C7.70027 17.6055 8.04481 17.3753 8.335 17.085M6.125 18.0006C6.9538 18.0006 7.74895 17.6711 8.335 17.085M6.125 18.0006L17.0625 18C17.58 18 18 17.58 18 17.0625V12.6875C18 12.17 17.58 11.75 17.0625 11.75H13.6692M9.25 7.33083V14.875C9.25 15.7038 8.92105 16.4989 8.335 17.085M9.25 7.33083L11.65 4.93083C12.015 4.565 12.6083 4.565 12.975 4.93083L16.0683 8.025C16.435 8.39167 16.435 8.985 16.0683 9.35L13.6692 11.75M8.335 17.085L13.6692 11.75M6.125 14.875H6.13167V14.8817H6.125V14.875Z" stroke="black" stroke-width="1.5" stroke-linecap="round" stroke-linejoin="round"/>
</svg>
