<svg width="21" height="21" viewBox="0 0 21 21" fill="none" xmlns="http://www.w3.org/2000/svg">
<path fill-rule="evenodd" clip-rule="evenodd" d="M2.375 3.9375C2.375 3.07417 3.075 2.375 3.9375 2.375H8.3125C9.17583 2.375 9.875 3.075 9.875 3.9375V14.875C9.875 15.8696 9.47991 16.8234 8.77665 17.5266C8.07339 18.2299 7.11956 18.625 6.125 18.625C5.13044 18.625 4.17661 18.2299 3.47335 17.5266C2.77009 16.8234 2.375 15.8696 2.375 14.875V3.9375ZM6.125 15.8125C6.37364 15.8125 6.6121 15.7137 6.78791 15.5379C6.96373 15.3621 7.0625 15.1236 7.0625 14.875C7.0625 14.6264 6.96373 14.3879 6.78791 14.2121C6.6121 14.0363 6.37364 13.9375 6.125 13.9375C5.87636 13.9375 5.6379 14.0363 5.46209 14.2121C5.28627 14.3879 5.1875 14.6264 5.1875 14.875C5.1875 15.1236 5.28627 15.3621 5.46209 15.5379C5.6379 15.7137 5.87636 15.8125 6.125 15.8125Z" fill="black"/>
<path d="M9.43262 18.6249H17.0626C17.926 18.6249 18.6251 17.9249 18.6251 17.0624V12.6874C18.6251 11.8241 17.9251 11.1249 17.0626 11.1249H16.946L9.66095 18.4108C9.58595 18.4849 9.51095 18.5566 9.43262 18.6249ZM11.1151 15.1874L16.5101 9.79245C16.803 9.49944 16.9675 9.10213 16.9675 8.68786C16.9675 8.27359 16.803 7.87628 16.5101 7.58328L13.4168 4.48911C13.1238 4.19625 12.7265 4.03174 12.3122 4.03174C11.8979 4.03174 11.5006 4.19625 11.2076 4.48911L11.1243 4.57161V14.8749C11.1243 14.9799 11.1209 15.0841 11.1151 15.1874Z" fill="black"/>
</svg>
