<svg width="21" height="21" viewBox="0 0 21 21" fill="none" xmlns="http://www.w3.org/2000/svg">
<path fill-rule="evenodd" clip-rule="evenodd" d="M5.28194 2.5C4.54412 2.5 3.83653 2.7931 3.31481 3.31481C2.7931 3.83653 2.5 4.54412 2.5 5.28194V8.48562C2.50016 9.2231 2.79314 9.93034 3.31455 10.4519L10.5476 17.6849C10.8059 17.9433 11.1126 18.1483 11.4502 18.2882C11.7878 18.428 12.1496 18.5 12.515 18.5C12.8804 18.5 13.2422 18.428 13.5797 18.2882C13.9173 18.1483 14.224 17.9433 14.4824 17.6849L17.6849 14.4824C17.9433 14.224 18.1483 13.9173 18.2882 13.5797C18.428 13.2422 18.5 12.8804 18.5 12.515C18.5 12.1496 18.428 11.7878 18.2882 11.4502C18.1483 11.1126 17.9433 10.8059 17.6849 10.5476L10.4519 3.31455C9.93062 2.79341 9.22383 2.50045 8.48673 2.5H5.28194ZM5.83833 6.9511C6.13345 6.9511 6.41649 6.83386 6.62518 6.62518C6.83386 6.41649 6.9511 6.13345 6.9511 5.83833C6.9511 5.5432 6.83386 5.26016 6.62518 5.05147C6.41649 4.84279 6.13345 4.72555 5.83833 4.72555C5.5432 4.72555 5.26016 4.84279 5.05147 5.05147C4.84279 5.26016 4.72555 5.5432 4.72555 5.83833C4.72555 6.13345 4.84279 6.41649 5.05147 6.62518C5.26016 6.83386 5.5432 6.9511 5.83833 6.9511Z" fill="black"/>
</svg>
