<svg width="21" height="21" viewBox="0 0 21 21" fill="none" xmlns="http://www.w3.org/2000/svg">
<path d="M8.47333 3H4.875C4.37772 3 3.90081 3.19754 3.54917 3.54917C3.19754 3.90081 3 4.37772 3 4.875V8.47333C3 8.97083 3.1975 9.44833 3.54917 9.79917L11.5333 17.7833C12.1158 18.3658 13.0167 18.51 13.7058 18.0583C15.4405 16.9222 16.9222 15.4405 18.0583 13.7058C18.51 13.0167 18.3658 12.1158 17.7833 11.5333L9.8 3.55C9.62586 3.37564 9.41905 3.23732 9.19141 3.14295C8.96377 3.04857 8.71976 3 8.47333 3Z" stroke="black" stroke-width="1.5" stroke-linecap="round" stroke-linejoin="round"/>
<path d="M6.5 6.5H6.50633V6.50633H6.5V6.5Z" stroke="black" stroke-width="2" stroke-linecap="round" stroke-linejoin="round"/>
</svg>
