<svg width="20" height="20" viewBox="0 0 20 20" fill="none" xmlns="http://www.w3.org/2000/svg">
<mask id="mask0_4188_14543" style="mask-type:luminance" maskUnits="userSpaceOnUse" x="1" y="4" width="18" height="12">
<path d="M1 4.59998H19V15.4H1V4.59998Z" fill="white"/>
</mask>
<g mask="url(#mask0_4188_14543)">
<path fill-rule="evenodd" clip-rule="evenodd" d="M10 4.59998C7.6 4.59998 6.1 5.79998 5.5 8.19998C6.4 6.99998 7.45 6.54998 8.65 6.84998C9.33467 7.02098 9.824 7.51798 10.3657 8.06764C11.248 8.96331 12.2693 9.99998 14.5 9.99998C16.9 9.99998 18.4 8.79998 19 6.39998C18.1 7.59998 17.05 8.04998 15.85 7.74998C15.1653 7.57898 14.676 7.08198 14.1343 6.53231C13.252 5.63664 12.2307 4.59998 10 4.59998ZM5.5 9.99998C3.1 9.99998 1.6 11.2 1 13.6C1.9 12.4 2.95 11.95 4.15 12.25C4.83467 12.4213 5.324 12.918 5.86567 13.4676C6.748 14.3633 7.76933 15.4 10 15.4C12.4 15.4 13.9 14.2 14.5 11.8C13.6 13 12.55 13.45 11.35 13.15C10.6653 12.979 10.176 12.482 9.63433 11.9323C8.752 11.0366 7.73067 9.99998 5.5 9.99998Z" fill="#38BDF8"/>
</g>
</svg>
