<svg width="24" height="24" viewBox="0 0 24 24" fill="none" xmlns="http://www.w3.org/2000/svg">
<path fill-rule="evenodd" clip-rule="evenodd" d="M8 16C12.4183 16 16 12.4183 16 8C16 3.58172 12.4183 0 8 0C3.58172 0 0 3.58172 0 8C0 12.4183 3.58172 16 8 16Z" fill="#030712" fill-opacity="0.4"/>
<path d="M11.6094 6.92867C11.5747 6.81191 11.449 6.58334 11.275 6.33497C11.1009 6.08635 10.9313 5.89294 10.849 5.82856C10.6334 5.66187 10.3709 5.53018 10.0665 5.43371L10.0655 5.4334C10.0248 5.42037 9.91121 5.39984 9.72724 5.38732C9.53714 5.37438 9.32706 5.37253 9.1334 5.37774C9.07208 5.37966 9.07139 5.37969 9.06521 5.37999C9.06479 5.38001 9.06434 5.38003 9.06384 5.38006L8.68891 5.39774L8.67157 5.02279L8.6254 4.02385L8.60808 3.64905L8.98288 3.63193C9.00572 3.63089 9.00912 3.63078 9.07848 3.62861L9.08373 3.62844L9.08535 3.62839L9.08535 3.6284C9.32543 3.62191 9.58973 3.62392 9.84607 3.64136C10.1219 3.66013 10.3774 3.6959 10.5969 3.76603C11.0752 3.91765 11.5242 4.13826 11.9219 4.44606L11.923 4.44685L11.923 4.44685C12.0981 4.58338 12.2939 4.79133 12.4804 5.02529C12.6783 4.78921 12.8911 4.57898 13.0928 4.43988C13.5362 4.13212 13.9589 3.89972 14.3787 3.7666C14.5996 3.69587 14.8553 3.66006 15.1315 3.6413C15.3875 3.62391 15.6513 3.62192 15.891 3.6284L15.8927 3.62844L15.8991 3.62865C15.9518 3.6303 15.9667 3.63076 15.9814 3.63139L15.9822 3.63142L15.9932 3.63191L16.3683 3.64871L16.351 4.02385L16.3048 5.02279L16.2875 5.39773L15.9125 5.38006L15.9111 5.37999L11.6094 6.92867ZM11.6094 6.92867V11.5718H10.9824H10.6074V11.9468V12.9308V13.3058H10.9824H11.6094V16.9841C11.5747 17.1006 11.4492 17.3288 11.2751 17.5773C11.1011 17.8255 10.9306 18.0201 10.8462 18.0865C10.6325 18.2523 10.3708 18.3835 10.07 18.478L10.07 18.478L10.0673 18.4788C10.0231 18.4931 9.90961 18.5137 9.7266 18.5263C9.53643 18.5393 9.32623 18.5413 9.13265 18.536L11.6094 6.92867ZM15.8439 18.5349L15.8438 18.5349C15.6505 18.5401 15.4407 18.5382 15.2508 18.5252C15.0669 18.5125 14.954 18.4919 14.9143 18.479L14.9143 18.479L14.9104 18.4778C14.6971 18.4114 14.4279 18.2702 14.0917 18.0359L14.0895 18.0343C14.0039 17.9756 13.8444 17.808 13.6758 17.5784C13.531 17.3812 13.4102 17.1804 13.3454 17.0329V13.3058H13.9684H14.3434V12.9308V11.9468V11.5718H13.9684H13.3454V6.88174C13.4103 6.73398 13.5311 6.53277 13.6759 6.33526C13.8444 6.10523 14.0034 5.93768 14.0878 5.87947L14.0889 5.87874C14.428 5.64328 14.6989 5.50088 14.9096 5.43413L14.9108 5.43374C14.9528 5.42027 15.0664 5.39976 15.2502 5.38727C15.4399 5.37438 15.6496 5.37254 15.843 5.37774L15.8439 18.5349ZM15.8439 18.5349C15.9045 18.533 15.9052 18.533 15.9111 18.5327L15.9125 18.5326L16.2875 18.5149L16.3048 18.8899L16.351 19.8888L16.3683 20.2636L15.9935 20.2807C15.9703 20.2818 15.9673 20.2819 15.8943 20.2842L15.8926 20.2842C15.6527 20.2907 15.3874 20.2887 15.1309 20.271C14.8556 20.2521 14.5997 20.2162 14.3836 20.1466C13.96 20.0146 13.536 19.7817 13.0949 19.4742C12.8922 19.3348 12.6784 19.1241 12.4798 18.8876C12.2936 19.1211 12.0982 19.3288 11.923 19.4659L11.9219 19.4668C11.5247 19.7753 11.0744 19.9967 10.5991 20.1461M15.8439 18.5349L9.06522 18.5338L9.06384 18.5338L8.68891 18.5161L8.67157 18.891L8.6254 19.89L8.60808 20.2648L8.98288 20.2819C9.00561 20.2829 9.00899 20.283 9.07798 20.2852L9.08301 20.2853L9.08462 20.2854C9.32499 20.2919 9.5898 20.2898 9.84671 20.2721C10.1226 20.2531 10.3782 20.2171 10.5991 20.1461M10.5991 20.1461C10.5996 20.1459 10.6 20.1458 10.6005 20.1456L10.4855 19.7887L10.5978 20.1465C10.5982 20.1464 10.5986 20.1462 10.5991 20.1461ZM15.8557 18.9097C15.9078 18.9081 15.9169 18.9078 15.9249 18.9074C15.9266 18.9074 15.9282 18.9073 15.9302 18.9072L15.9479 19.2818C15.9478 19.2818 15.9476 19.2818 15.9475 19.2818L15.8446 18.5349L15.8484 18.6781L15.8557 18.9097ZM15.8557 18.9097L15.8485 18.6808L15.8547 18.9097L15.8557 18.9097ZM9.04617 18.9083C9.04809 18.9084 9.04969 18.9085 9.05133 18.9086L9.02886 19.2829C9.02874 19.2829 9.02862 19.2829 9.02851 19.2829L9.04617 18.9083ZM11.0769 18.3821C11.3372 18.1783 11.8613 17.4517 11.9688 17.0911L11.0769 18.3821ZM15.6013 19.9125L15.6018 19.9234L15.8825 19.9105L15.9764 19.9061L15.9764 19.9061L15.9593 19.5315L15.6013 19.9125Z" fill="#030712" stroke="white" stroke-width="0.75"/>
</svg>
