<svg width="21" height="21" viewBox="0 0 21 21" fill="none" xmlns="http://www.w3.org/2000/svg">
<path fill-rule="evenodd" clip-rule="evenodd" d="M10.4975 6.56351C10.4974 5.94855 10.6413 5.34211 10.9177 4.79277C11.1941 4.24343 11.5953 3.76648 12.0893 3.40013C12.5832 3.03379 13.1561 2.78824 13.762 2.68315C14.3679 2.57807 14.99 2.61638 15.5784 2.79501C15.6714 2.82318 15.7556 2.87498 15.8226 2.94534C15.8896 3.0157 15.9373 3.10222 15.9609 3.19649C15.9846 3.29075 15.9834 3.38952 15.9575 3.48319C15.9316 3.57686 15.8819 3.66222 15.8132 3.73095L13.3233 6.22003C13.3706 6.57626 13.5303 6.92049 13.8041 7.19422C14.0778 7.46795 14.422 7.62769 14.779 7.67419L17.2673 5.1851C17.3361 5.1164 17.4214 5.06668 17.5151 5.04078C17.6088 5.01489 17.7075 5.0137 17.8018 5.03734C17.8961 5.06099 17.9826 5.10864 18.0529 5.17568C18.1233 5.24271 18.1751 5.32683 18.2033 5.41984C18.3902 6.03544 18.4234 6.68746 18.3 7.31886C18.1766 7.95026 17.9003 8.5418 17.4954 9.04174C17.0905 9.54167 16.5692 9.93477 15.9772 10.1866C15.3852 10.4385 14.7405 10.5415 14.0995 10.4865C13.3361 10.422 12.6971 10.5615 12.3679 10.962L7.00576 17.4753C6.7862 17.7406 6.51366 17.9571 6.20559 18.111C5.89752 18.2649 5.56071 18.3528 5.21672 18.369C4.87273 18.3852 4.52915 18.3294 4.20797 18.2052C3.88679 18.0809 3.5951 17.891 3.35157 17.6475C3.10803 17.404 2.91803 17.1124 2.79372 16.7912C2.66941 16.4701 2.61353 16.1265 2.62967 15.7825C2.64581 15.4385 2.7336 15.1017 2.88743 14.7936C3.04126 14.4855 3.25773 14.2129 3.52299 13.9933L10.0356 8.63037C10.4353 8.3004 10.5755 7.66219 10.511 6.89874C10.5018 6.78723 10.4973 6.67539 10.4975 6.56351ZM4.58567 15.8442C4.58567 15.695 4.64493 15.5519 4.75041 15.4464C4.85589 15.3409 4.99895 15.2817 5.14813 15.2817H5.15413C5.3033 15.2817 5.44637 15.3409 5.55185 15.4464C5.65733 15.5519 5.71659 15.695 5.71659 15.8442V15.8501C5.71659 15.9993 5.65733 16.1424 5.55185 16.2479C5.44637 16.3534 5.3033 16.4126 5.15413 16.4126H5.14813C4.99895 16.4126 4.85589 16.3534 4.75041 16.2479C4.64493 16.1424 4.58567 15.9993 4.58567 15.8501V15.8442Z" fill="black"/>
<path d="M9.05444 7.98082L7.4038 6.33093V5.15651C7.40379 5.0594 7.37864 4.96395 7.33081 4.87945C7.28297 4.79495 7.21407 4.72427 7.13081 4.67429L4.3185 2.9869C4.21094 2.92242 4.08491 2.89574 3.96044 2.91109C3.83598 2.92645 3.72021 2.98296 3.63154 3.07164L3.06908 3.63411C2.98039 3.72278 2.92388 3.83854 2.90853 3.96301C2.89317 4.08747 2.91986 4.2135 2.98434 4.32106L4.67173 7.13338C4.7217 7.21663 4.79238 7.28553 4.87689 7.33337C4.96139 7.38121 5.05684 7.40635 5.15394 7.40636H6.32687L7.87326 8.95276L9.05444 7.98082Z" fill="black"/>
<path fill-rule="evenodd" clip-rule="evenodd" d="M10.9146 14.4971L14.0516 17.6334C14.2866 17.8685 14.5657 18.0549 14.8727 18.1821C15.1798 18.3093 15.509 18.3748 15.8414 18.3748C16.1737 18.3748 16.5028 18.3093 16.8099 18.1821C17.1169 18.0549 17.3961 17.8685 17.6311 17.6334C17.8661 17.3984 18.0526 17.1194 18.1798 16.8123C18.307 16.5052 18.3724 16.1761 18.3724 15.8437C18.3724 15.5113 18.307 15.1821 18.1798 14.8751C18.0526 14.568 17.8661 14.2889 17.6311 14.0539L15.1518 11.5753C14.7717 11.6292 14.3868 11.64 14.0043 11.6076C13.7089 11.5821 13.4929 11.6031 13.3541 11.6391C13.3102 11.6484 13.268 11.6643 13.2289 11.6863L10.9146 14.4971ZM13.4749 13.4772C13.5803 13.3719 13.7233 13.3127 13.8724 13.3127C14.0214 13.3127 14.1644 13.3719 14.2698 13.4772L15.676 14.8841C15.7312 14.9356 15.7756 14.9977 15.8063 15.0667C15.8371 15.1357 15.8536 15.2102 15.8549 15.2857C15.8563 15.3612 15.8424 15.4362 15.8141 15.5063C15.7858 15.5763 15.7437 15.6399 15.6903 15.6933C15.6369 15.7467 15.5731 15.7888 15.5031 15.8171C15.4331 15.8454 15.3581 15.8593 15.2826 15.858C15.2071 15.8566 15.1325 15.8401 15.0635 15.8094C14.9945 15.7786 14.9324 15.7343 14.8809 15.679L13.4749 14.2729C13.3696 14.1674 13.3104 14.0245 13.3104 13.8754C13.3104 13.7264 13.3696 13.5827 13.4749 13.4772Z" fill="black"/>
</svg>
