<svg width="21" height="21" viewBox="0 0 21 21" fill="none" xmlns="http://www.w3.org/2000/svg">
<path d="M10.0246 13.0983L14.807 17.8807C15.2171 18.2778 15.7669 18.4977 16.3377 18.4931C16.9086 18.4884 17.4547 18.2596 17.8584 17.856C18.262 17.4523 18.4908 16.9062 18.4955 16.3353C18.5001 15.7645 18.2802 15.2147 17.8831 14.8046L13.0622 9.98365M10.0246 13.0983L12.0721 10.6128C12.3321 10.2978 12.6791 10.0993 13.063 9.98447C13.5142 9.84994 14.017 9.83025 14.4928 9.86963C15.1341 9.9247 15.7787 9.8111 16.3626 9.54012C16.9465 9.26914 17.4494 8.85018 17.8213 8.32483C18.1933 7.79948 18.4214 7.18599 18.483 6.54525C18.5447 5.90451 18.4377 5.25879 18.1727 4.67217L15.4854 7.36031C15.0358 7.25635 14.6244 7.02822 14.2981 6.70191C13.9718 6.37561 13.7437 5.96423 13.6397 5.51462L16.327 2.8273C15.7404 2.56231 15.0947 2.45533 14.4539 2.51697C13.8132 2.5786 13.1997 2.80672 12.6744 3.17868C12.149 3.55064 11.73 4.05351 11.4591 4.63739C11.1881 5.22126 11.0745 5.86586 11.1296 6.50719C11.2042 7.38984 11.0713 8.36436 10.388 8.92709L10.3043 8.99682M10.0246 13.0983L6.20608 17.7355C6.02101 17.9611 5.79076 18.1455 5.53015 18.2767C5.26953 18.4079 4.98433 18.4831 4.69289 18.4975C4.40145 18.5118 4.11024 18.465 3.838 18.36C3.56576 18.255 3.31851 18.0941 3.11219 17.8878C2.90586 17.6815 2.74502 17.4342 2.64002 17.162C2.53502 16.8898 2.48818 16.5985 2.50253 16.3071C2.51687 16.0157 2.59208 15.7305 2.72331 15.4699C2.85453 15.2092 3.03887 14.979 3.26446 14.7939L8.87289 10.1756L5.5039 6.8066H4.34809L2.5024 3.73046L3.73286 2.5L6.80901 4.34569V5.5015L10.3035 8.996L8.87207 10.1748M15.7298 15.7274L13.5765 13.5741M4.64914 16.3427H4.6557V16.3492H4.64914V16.3427Z" stroke="black" stroke-width="1.5" stroke-linecap="round" stroke-linejoin="round"/>
</svg>
