<svg width="20" height="20" viewBox="0 0 20 20" fill="none" xmlns="http://www.w3.org/2000/svg">
<path fill-rule="evenodd" clip-rule="evenodd" d="M5 1H15C17.2091 1 19 2.79086 19 5V15C19 17.2091 17.2091 19 15 19H5C2.79086 19 1 17.2091 1 15V5C1 2.79086 2.79086 1 5 1ZM11.282 16.0415V14.2073C11.5915 14.4863 11.9276 14.6955 12.2904 14.835C12.6532 14.9744 13.0196 15.0442 13.3895 15.0442C13.6065 15.0442 13.7958 15.0232 13.9577 14.9811C14.1195 14.9391 14.2547 14.8808 14.3632 14.8063C14.4717 14.7318 14.5526 14.6439 14.6059 14.5427C14.6593 14.4414 14.686 14.3315 14.686 14.2131C14.686 14.0526 14.6433 13.9093 14.5579 13.7832C14.4725 13.6571 14.3561 13.5406 14.2084 13.4336C14.0609 13.3266 13.8857 13.2234 13.6829 13.1241C13.4802 13.0247 13.2614 12.9235 13.0267 12.8203C12.4291 12.5528 11.9836 12.2261 11.6902 11.8402C11.3967 11.4543 11.25 10.9881 11.25 10.4417C11.25 10.0137 11.33 9.64592 11.4901 9.33835C11.6502 9.03074 11.868 8.7776 12.1437 8.57888C12.4194 8.38019 12.7386 8.23404 13.1014 8.14043C13.4642 8.04682 13.8483 8 14.2538 8C14.6522 8 15.0052 8.02579 15.3129 8.07738C15.6206 8.12897 15.9042 8.20825 16.1639 8.31523V10.029C16.0358 9.93346 15.8962 9.84941 15.7451 9.77679C15.5939 9.70421 15.4383 9.64402 15.2782 9.59624C15.1181 9.5485 14.959 9.51315 14.8007 9.49021C14.6424 9.46731 14.4921 9.45584 14.3499 9.45584C14.1542 9.45584 13.9764 9.47589 13.8163 9.516C13.6562 9.55612 13.5211 9.61251 13.4108 9.68509C13.3006 9.7577 13.2152 9.84461 13.1547 9.94588C13.0943 10.0471 13.064 10.1608 13.064 10.2869C13.064 10.4245 13.0978 10.5477 13.1654 10.6566C13.233 10.7655 13.329 10.8687 13.4535 10.9661C13.578 11.0636 13.7292 11.1591 13.907 11.2527C14.0849 11.3463 14.2858 11.4428 14.5099 11.5422C14.8158 11.6797 15.0906 11.8258 15.3342 11.9806C15.5779 12.1354 15.7869 12.3102 15.9611 12.5051C16.1354 12.7 16.2688 12.9225 16.3613 13.1728C16.4538 13.4231 16.5 13.7144 16.5 14.0469C16.5 14.5054 16.4191 14.8903 16.2572 15.2018C16.0954 15.5132 15.8758 15.7654 15.5983 15.9583C15.3209 16.1513 14.9981 16.2898 14.6299 16.3739C14.2618 16.458 13.8732 16.5 13.4642 16.5C13.0444 16.5 12.6452 16.4618 12.2664 16.3854C11.8876 16.3089 11.5594 16.1943 11.282 16.0415ZM10.6023 9.68835H8.41295V16.3901H6.67861V9.68835H4.5V8.18319H10.6023V9.68835Z" fill="#030712"/>
</svg>
