<svg width="20" height="20" viewBox="0 0 20 20" fill="none" xmlns="http://www.w3.org/2000/svg">
<path d="M15 1H5C2.79086 1 1 2.79086 1 5V15C1 17.2091 2.79086 19 5 19H15C17.2091 19 19 17.2091 19 15V5C19 2.79086 17.2091 1 15 1Z" fill="#3178C6"/>
<path fill-rule="evenodd" clip-rule="evenodd" d="M11.282 14.2073V16.0415C11.5594 16.1943 11.8876 16.3089 12.2664 16.3854C12.6452 16.4618 13.0444 16.5 13.4642 16.5C13.8732 16.5 14.2618 16.458 14.6299 16.3739C14.9981 16.2898 15.3209 16.1513 15.5983 15.9583C15.8758 15.7654 16.0954 15.5132 16.2572 15.2018C16.4191 14.8903 16.5 14.5054 16.5 14.0469C16.5 13.7144 16.4538 13.4231 16.3613 13.1728C16.2688 12.9225 16.1354 12.7 15.9611 12.5051C15.7869 12.3102 15.5779 12.1354 15.3342 11.9806C15.0906 11.8258 14.8158 11.6797 14.5099 11.5422C14.2858 11.4428 14.0849 11.3463 13.907 11.2527C13.7292 11.1591 13.578 11.0636 13.4535 10.9661C13.329 10.8687 13.233 10.7655 13.1654 10.6566C13.0978 10.5477 13.064 10.4245 13.064 10.2869C13.064 10.1608 13.0943 10.0471 13.1547 9.94588C13.2152 9.84461 13.3006 9.75771 13.4108 9.68509C13.5211 9.61251 13.6562 9.55612 13.8163 9.516C13.9764 9.47589 14.1542 9.45584 14.3499 9.45584C14.4921 9.45584 14.6424 9.46731 14.8007 9.49021C14.959 9.51315 15.1181 9.5485 15.2782 9.59624C15.4383 9.64402 15.5939 9.70421 15.7451 9.77679C15.8962 9.84941 16.0358 9.93346 16.1639 10.029V8.31523C15.9042 8.20825 15.6206 8.12897 15.3129 8.07738C15.0052 8.02579 14.6522 8 14.2538 8C13.8483 8 13.4642 8.04682 13.1014 8.14043C12.7386 8.23404 12.4194 8.38019 12.1437 8.57888C11.868 8.7776 11.6502 9.03073 11.4901 9.33835C11.33 9.64592 11.25 10.0137 11.25 10.4417C11.25 10.9881 11.3967 11.4543 11.6902 11.8402C11.9836 12.2261 12.4291 12.5528 13.0267 12.8203C13.2614 12.9235 13.4802 13.0247 13.6829 13.1241C13.8857 13.2234 14.0609 13.3266 14.2084 13.4336C14.3561 13.5406 14.4725 13.6571 14.5579 13.7832C14.6433 13.9093 14.686 14.0526 14.686 14.2131C14.686 14.3315 14.6593 14.4414 14.6059 14.5427C14.5526 14.6439 14.4717 14.7318 14.3632 14.8063C14.2547 14.8808 14.1195 14.9391 13.9577 14.9811C13.7958 15.0232 13.6065 15.0442 13.3895 15.0442C13.0196 15.0442 12.6532 14.9744 12.2904 14.835C11.9276 14.6955 11.5915 14.4863 11.282 14.2073ZM8.41295 9.68835H10.6023V8.18319H4.5V9.68835H6.67861V16.3901H8.41295V9.68835Z" fill="white"/>
</svg>
