<svg width="21" height="21" viewBox="0 0 21 21" fill="none" xmlns="http://www.w3.org/2000/svg">
<path d="M14.7158 13.4342C15.1056 13.168 15.5628 13.0176 16.0346 13.0004C16.5063 12.9832 16.9733 13.0999 17.3815 13.337C17.7896 13.5741 18.1223 13.922 18.3411 14.3403C18.5598 14.7586 18.6556 15.2303 18.6174 15.7008C17.6176 16.0503 16.5556 16.1863 15.4999 16.1C15.4967 15.1555 15.2247 14.2298 14.7158 13.4342ZM14.7158 13.4342C14.264 12.7257 13.6409 12.1434 12.904 11.7396C12.1671 11.3358 11.3402 11.1244 10.5 11.125C9.65981 11.1246 8.83314 11.336 8.09639 11.7398C7.35964 12.1436 6.73662 12.7266 6.28495 13.435M6.28495 13.435C5.89512 13.169 5.43798 13.0188 4.96638 13.0018C4.49478 12.9847 4.02798 13.1015 3.61995 13.3386C3.21192 13.5757 2.87933 13.9234 2.66064 14.3416C2.44194 14.7598 2.34607 15.2313 2.38411 15.7017C3.3832 16.0531 4.44464 16.1886 5.49995 16.0992M6.28495 13.435C5.7763 14.2307 5.50294 15.1548 5.49995 16.0992M15.4991 16.0992L15.4999 16.125C15.4999 16.3125 15.4899 16.4975 15.4691 16.68C13.9569 17.5476 12.2434 18.0028 10.5 18C8.69161 18 6.99411 17.52 5.53078 16.68C5.50936 16.4871 5.49906 16.2932 5.49995 16.0992M12.9999 6.125C12.9999 6.78804 12.7366 7.42393 12.2677 7.89277C11.7989 8.36161 11.163 8.625 10.5 8.625C9.83691 8.625 9.20102 8.36161 8.73218 7.89277C8.26334 7.42393 7.99995 6.78804 7.99995 6.125C7.99995 5.46196 8.26334 4.82607 8.73218 4.35723C9.20102 3.88839 9.83691 3.625 10.5 3.625C11.163 3.625 11.7989 3.88839 12.2677 4.35723C12.7366 4.82607 12.9999 5.46196 12.9999 6.125ZM17.9999 8.625C17.9999 8.87123 17.9514 9.11505 17.8572 9.34253C17.763 9.57002 17.6249 9.77672 17.4508 9.95082C17.2767 10.1249 17.07 10.2631 16.8425 10.3573C16.615 10.4515 16.3712 10.5 16.1249 10.5C15.8787 10.5 15.6349 10.4515 15.4074 10.3573C15.1799 10.2631 14.9732 10.1249 14.7991 9.95082C14.625 9.77672 14.4869 9.57002 14.3927 9.34253C14.2984 9.11505 14.2499 8.87123 14.2499 8.625C14.2499 8.12772 14.4475 7.65081 14.7991 7.29917C15.1508 6.94754 15.6277 6.75 16.1249 6.75C16.6222 6.75 17.0991 6.94754 17.4508 7.29917C17.8024 7.65081 17.9999 8.12772 17.9999 8.625ZM6.74995 8.625C6.74995 8.87123 6.70145 9.11505 6.60722 9.34253C6.51299 9.57002 6.37488 9.77672 6.20077 9.95082C6.02666 10.1249 5.81996 10.2631 5.59248 10.3573C5.36499 10.4515 5.12118 10.5 4.87495 10.5C4.62872 10.5 4.3849 10.4515 4.15742 10.3573C3.92993 10.2631 3.72323 10.1249 3.54912 9.95082C3.37501 9.77672 3.2369 9.57002 3.14267 9.34253C3.04845 9.11505 2.99995 8.87123 2.99995 8.625C2.99995 8.12772 3.19749 7.65081 3.54912 7.29917C3.90075 6.94754 4.37767 6.75 4.87495 6.75C5.37223 6.75 5.84914 6.94754 6.20077 7.29917C6.5524 7.65081 6.74995 8.12772 6.74995 8.625Z" stroke="black" stroke-width="1.5" stroke-linecap="round" stroke-linejoin="round"/>
</svg>
