<svg width="21" height="21" viewBox="0 0 21 21" fill="none" xmlns="http://www.w3.org/2000/svg">
<path d="M4.51782 6.0134C4.51782 5.1408 4.86446 4.30394 5.48148 3.68692C6.0985 3.0699 6.93535 2.72327 7.80795 2.72327C8.68055 2.72327 9.51741 3.0699 10.1344 3.68692C10.7514 4.30394 11.0981 5.1408 11.0981 6.0134C11.0981 6.88599 10.7514 7.72285 10.1344 8.33987C9.51741 8.95689 8.68055 9.30353 7.80795 9.30353C6.93535 9.30353 6.0985 8.95689 5.48148 8.33987C4.86446 7.72285 4.51782 6.88599 4.51782 6.0134ZM12.2945 7.80801C12.2945 7.4545 12.3641 7.10446 12.4994 6.77786C12.6347 6.45126 12.833 6.1545 13.0829 5.90453C13.3329 5.65457 13.6297 5.45628 13.9563 5.321C14.2829 5.18572 14.6329 5.11609 14.9864 5.11609C15.3399 5.11609 15.69 5.18572 16.0166 5.321C16.3432 5.45628 16.6399 5.65457 16.8899 5.90453C17.1399 6.1545 17.3381 6.45126 17.4734 6.77786C17.6087 7.10446 17.6783 7.4545 17.6783 7.80801C17.6783 8.52196 17.3947 9.20666 16.8899 9.71149C16.3851 10.2163 15.7004 10.4999 14.9864 10.4999C14.2725 10.4999 13.5878 10.2163 13.0829 9.71149C12.5781 9.20666 12.2945 8.52196 12.2945 7.80801ZM2.125 16.1829C2.125 14.6757 2.72374 13.2302 3.7895 12.1644C4.85526 11.0987 6.30074 10.4999 7.80795 10.4999C9.31516 10.4999 10.7606 11.0987 11.8264 12.1644C12.8922 13.2302 13.4909 14.6757 13.4909 16.1829V16.1853L13.4901 16.2802C13.4884 16.3816 13.461 16.481 13.4103 16.5689C13.3597 16.6568 13.2875 16.7304 13.2006 16.7827C11.5728 17.7629 9.70806 18.2795 7.80795 18.2766C5.83627 18.2766 3.9906 17.731 2.41613 16.7827C2.32907 16.7305 2.25674 16.6569 2.20595 16.569C2.15515 16.4811 2.12757 16.3817 2.1258 16.2802L2.125 16.1829ZM14.6873 16.1853L14.6865 16.3001C14.6821 16.566 14.6186 16.8275 14.5007 17.0658C15.8931 17.1517 17.2838 16.8741 18.5366 16.2603C18.6334 16.2129 18.7157 16.1402 18.7747 16.05C18.8337 15.9597 18.8671 15.8551 18.8716 15.7474C18.8997 15.0784 18.7546 14.4135 18.4504 13.817C18.1461 13.2205 17.6929 12.7127 17.1348 12.3428C16.5767 11.9729 15.9325 11.7534 15.2646 11.7055C14.5967 11.6576 13.9278 11.7831 13.3226 12.0696C14.2105 13.2569 14.6891 14.7003 14.6865 16.1829L14.6873 16.1853Z" fill="black"/>
</svg>
