<svg width="21" height="21" viewBox="0 0 21 21" fill="none" xmlns="http://www.w3.org/2000/svg">
<path d="M13.4088 5.84615C13.4088 6.61758 13.1023 7.3574 12.5569 7.90288C12.0114 8.44836 11.2715 8.75481 10.5001 8.75481C9.7287 8.75481 8.98888 8.44836 8.4434 7.90288C7.89792 7.3574 7.59147 6.61758 7.59147 5.84615C7.59147 5.07473 7.89792 4.3349 8.4434 3.78943C8.98888 3.24395 9.7287 2.9375 10.5001 2.9375C11.2715 2.9375 12.0114 3.24395 12.5569 3.78943C13.1023 4.3349 13.4088 5.07473 13.4088 5.84615ZM4.68359 16.7967C4.70852 15.2705 5.33229 13.8152 6.42039 12.7447C7.50849 11.6743 8.97373 11.0743 10.5001 11.0743C12.0265 11.0743 13.4918 11.6743 14.5799 12.7447C15.668 13.8152 16.2917 15.2705 16.3167 16.7967C14.4919 17.6334 12.5076 18.0652 10.5001 18.0625C8.42451 18.0625 6.45438 17.6095 4.68359 16.7967Z" stroke="black" stroke-width="1.5" stroke-linecap="round" stroke-linejoin="round"/>
</svg>
