<svg width="21" height="21" viewBox="0 0 21 21" fill="none" xmlns="http://www.w3.org/2000/svg">
<path d="M12.9999 16.44C13.7107 16.6464 14.4472 16.7508 15.1874 16.75C16.3777 16.7517 17.5526 16.4803 18.6215 15.9567C18.6531 15.2098 18.4404 14.4729 18.0155 13.8578C17.5906 13.2427 16.9768 12.7828 16.2671 12.5479C15.5574 12.313 14.7904 12.3159 14.0825 12.5562C13.3746 12.7964 12.7642 13.2609 12.344 13.8792M12.9999 16.44V16.4375C12.9999 15.51 12.7615 14.6375 12.344 13.8792M12.9999 16.44V16.5283C11.3961 17.4942 9.5587 18.0032 7.68652 18C5.74402 18 3.92652 17.4625 2.37486 16.5283L2.37402 16.4375C2.37338 15.2579 2.76537 14.1116 3.48818 13.1794C4.21098 12.2472 5.2235 11.582 6.3661 11.2888C7.50869 10.9956 8.71638 11.0911 9.79874 11.5601C10.8811 12.0291 11.7766 12.845 12.344 13.8792M10.4999 5.8125C10.4999 6.55842 10.2035 7.27379 9.6761 7.80124C9.14865 8.32868 8.43328 8.625 7.68736 8.625C6.94144 8.625 6.22607 8.32868 5.69862 7.80124C5.17117 7.27379 4.87486 6.55842 4.87486 5.8125C4.87486 5.06658 5.17117 4.35121 5.69862 3.82376C6.22607 3.29632 6.94144 3 7.68736 3C8.43328 3 9.14865 3.29632 9.6761 3.82376C10.2035 4.35121 10.4999 5.06658 10.4999 5.8125ZM17.3749 7.6875C17.3749 8.26766 17.1444 8.82406 16.7342 9.2343C16.3239 9.64453 15.7675 9.875 15.1874 9.875C14.6072 9.875 14.0508 9.64453 13.6406 9.2343C13.2303 8.82406 12.9999 8.26766 12.9999 7.6875C12.9999 7.10734 13.2303 6.55094 13.6406 6.1407C14.0508 5.73047 14.6072 5.5 15.1874 5.5C15.7675 5.5 16.3239 5.73047 16.7342 6.1407C17.1444 6.55094 17.3749 7.10734 17.3749 7.6875Z" stroke="black" stroke-width="1.5" stroke-linecap="round" stroke-linejoin="round"/>
</svg>
