<svg width="20" height="20" viewBox="0 0 20 20" fill="none" xmlns="http://www.w3.org/2000/svg">
<path d="M9.12049 1.02256C7.35443 1.21616 5.69391 1.89904 4.35354 2.97968C3.89971 3.34576 3.1574 4.10959 2.83023 4.54607C1.89794 5.79215 1.3034 7.21423 1.07824 8.74542C1.00084 9.26286 0.976217 10.252 1.02547 10.7694C1.17323 12.2936 1.65872 13.7016 2.45028 14.9019C3.90675 17.116 6.13367 18.5345 8.75109 18.9217C9.26825 18.9992 10.2568 19.0238 10.774 18.9745C12.2973 18.8267 13.7045 18.3409 14.9042 17.5489C17.117 16.0916 18.5348 13.8635 18.9218 11.2446C18.9992 10.7272 19.0238 9.73806 18.9745 9.22062C18.7951 7.37615 18.1372 5.74287 17.0115 4.34543C16.6456 3.89135 15.8822 3.14864 15.4459 2.82128C14.2005 1.88848 12.7898 1.30064 11.2489 1.06832C10.8232 1.00496 9.53562 0.976803 9.12049 1.02256ZM12.3184 9.2875C13.5392 11.4241 14.5383 13.1771 14.5383 13.1841C14.5383 13.1912 12.5365 13.1982 10.088 13.1982C7.63939 13.1982 5.63763 13.1912 5.63763 13.1806C5.63763 13.1525 10.0809 5.38031 10.0915 5.39439C10.095 5.39791 11.1011 7.15087 12.3184 9.2875Z" fill="black"/>
</svg>
