<svg width="200" height="200" viewBox="0 0 200 200" fill="none" xmlns="http://www.w3.org/2000/svg">
<path d="M10 60C10 49.0625 18.75 40 30 40H110C120.938 40 130 49.0625 130 60V140C130 151.25 120.938 160 110 160H30C18.75 160 10 151.25 10 140V60ZM184.688 51.25C187.812 53.125 190 56.5625 190 60V140C190 143.75 187.812 147.188 184.688 149.062C181.25 150.625 177.5 150.625 174.375 148.438L144.375 128.438L140 125.625V120V80V74.6875L144.375 71.875L174.375 51.875C177.5 49.6875 181.25 49.6875 184.688 51.25Z" fill="black"/>
</svg>
