<svg width="20" height="20" viewBox="0 0 20 20" fill="none" xmlns="http://www.w3.org/2000/svg">
<path d="M13.2596 1.03816C12.4224 1.13484 11.2375 1.87332 10.6492 2.66322C10.3098 3.11577 10.1103 3.54775 9.93747 4.19778L9.85107 4.52279L9.85519 4.86837C9.8593 5.05762 9.86959 5.23453 9.87987 5.26333C9.90661 5.33121 9.95804 5.34149 10.3201 5.34355C10.6204 5.34561 10.6389 5.34355 10.8961 5.26744C11.5831 5.06791 12.0871 4.76758 12.445 4.34177C12.5314 4.23686 12.661 4.09698 12.7289 4.02704C12.9552 3.80488 13.2452 3.31119 13.4056 2.88333C13.5661 2.4534 13.6381 2.05434 13.6587 1.48659L13.671 1.1225L13.6175 1.06901C13.5579 1.00936 13.525 1.0073 13.2596 1.03816Z" fill="black"/>
<path d="M13.0682 5.28968C12.6609 5.31025 11.5645 5.61469 10.7766 5.92325C10.2994 6.11044 10.2994 6.11044 10.2048 6.1269C10.0402 6.15364 9.63703 6.03639 8.9438 5.75663C8.57559 5.61058 8.19709 5.4995 7.63758 5.37196C7.40308 5.32054 7.01429 5.31437 6.84562 5.36168C6.77773 5.38019 6.5638 5.42339 6.37044 5.4563C5.95492 5.53036 5.72041 5.60235 5.40774 5.75663C4.46356 6.21741 3.8197 6.87978 3.30956 7.91653C3.08328 8.37319 2.91666 8.81957 2.79324 9.29475C2.61016 10.0003 2.60605 11.3538 2.78501 12.1746C2.80558 12.2754 2.82409 12.3947 2.82409 12.442C2.82409 12.5408 2.84261 12.6148 3.0154 13.2957C3.17585 13.9252 3.15939 13.8737 3.46589 14.6431C3.89581 15.723 4.03158 15.9616 4.90994 17.1732C5.26992 17.669 5.453 17.8953 5.71836 18.1647C5.99606 18.4486 6.22027 18.6132 6.53706 18.7695C6.89499 18.9443 7.05132 18.9834 7.38045 18.9814C7.80214 18.9814 8.14155 18.895 8.78747 18.6234C9.19476 18.4527 9.2215 18.4445 9.96204 18.2923C10.1842 18.2449 10.3899 18.2491 10.7026 18.3005C10.8095 18.3169 10.97 18.3416 11.0564 18.354C11.2312 18.3787 11.4081 18.4363 11.8648 18.6193C12.4161 18.8415 12.8049 18.9402 13.2122 18.9649C13.8046 19.0019 14.3765 18.7386 14.9874 18.1524C15.6107 17.5497 16.1928 16.7248 16.7811 15.6119C16.9395 15.3116 17.1926 14.6965 17.2357 14.5114C17.2543 14.4374 17.2851 14.3448 17.3077 14.3078C17.3283 14.2707 17.3468 14.2193 17.3468 14.1967C17.3468 14.1226 17.1967 14.0054 16.9313 13.8717C16.4314 13.6145 15.9398 13.1743 15.6086 12.6786C15.3721 12.3227 15.1334 11.7899 15.0738 11.4752C14.973 10.9568 14.9442 10.3891 15.0018 9.99414C15.0162 9.89129 15.0676 9.6753 15.117 9.51074C15.3289 8.79694 15.4749 8.51101 15.8061 8.1572C15.9069 8.05229 15.9892 7.95561 15.9892 7.94738C15.9892 7.91241 16.4932 7.49072 16.6166 7.42284C16.6845 7.38375 16.7709 7.3241 16.8079 7.28707C16.921 7.17599 16.9046 7.13279 16.6207 6.79955C16.2401 6.35317 15.7608 5.98702 15.1972 5.71343C14.8455 5.5427 14.6027 5.45836 14.2633 5.38842C13.9157 5.31437 13.3973 5.27117 13.0682 5.28968Z" fill="black"/>
</svg>
