<svg width="20" height="20" viewBox="0 0 20 20" fill="none" xmlns="http://www.w3.org/2000/svg">
<path d="M10 19C14.9706 19 19 14.9706 19 10C19 5.02944 14.9706 1 10 1C5.02944 1 1 5.02944 1 10C1 14.9706 5.02944 19 10 19Z" fill="#663399"/>
<path d="M4.98561 15.0143C3.63561 13.6643 2.92847 11.8643 2.92847 10.1286L9.93561 17.0714C8.13561 17.0072 6.33561 16.3643 4.98561 15.0143ZM11.5428 16.8786L3.12132 8.45716C3.82847 5.30716 6.65704 2.92859 9.9999 2.92859C12.3785 2.92859 14.4356 4.08573 15.7213 5.82145L14.757 6.65716C13.6642 5.17859 11.9285 4.2143 9.9999 4.2143C7.49275 4.2143 5.37132 5.82145 4.53561 8.07145L11.9285 15.4643C13.7928 14.8214 15.207 13.2143 15.657 11.2857H12.5713V10H17.0713C17.0713 13.3429 14.6928 16.1714 11.5428 16.8786Z" fill="white"/>
</svg>
