<svg width="20" height="20" viewBox="0 0 20 20" fill="none" xmlns="http://www.w3.org/2000/svg">
<path d="M4.76385 12.4122C4.76385 13.4534 3.92236 14.2949 2.88119 14.2949C1.84003 14.2949 0.998535 13.4534 0.998535 12.4122C0.998535 11.371 1.84003 10.5295 2.88119 10.5295H4.76385V12.4122ZM5.70518 12.4122C5.70518 11.371 6.54668 10.5295 7.58784 10.5295C8.62901 10.5295 9.4705 11.371 9.4705 12.4122V17.1188C9.4705 18.16 8.62901 19.0015 7.58784 19.0015C6.54668 19.0015 5.70518 18.16 5.70518 17.1188V12.4122Z" fill="#E01E5A"/>
<path d="M7.59101 4.75753C6.55159 4.75753 5.71151 3.91745 5.71151 2.87803C5.71151 1.83861 6.55159 0.998535 7.59101 0.998535C8.63042 0.998535 9.4705 1.83861 9.4705 2.87803V4.75753H7.59101ZM7.59101 5.71151C8.63042 5.71151 9.4705 6.55159 9.4705 7.59101C9.4705 8.63042 8.63042 9.4705 7.59101 9.4705H2.87803C1.83861 9.4705 0.998535 8.63042 0.998535 7.59101C0.998535 6.55159 1.83861 5.71151 2.87803 5.71151H7.59101Z" fill="#36C5F0"/>
<path d="M15.2362 7.59101C15.2362 6.55159 16.0777 5.71151 17.1188 5.71151C18.16 5.71151 19.0015 6.55159 19.0015 7.59101C19.0015 8.63042 18.16 9.4705 17.1188 9.4705H15.2362V7.59101ZM14.2949 7.59101C14.2949 8.63042 13.4534 9.4705 12.4122 9.4705C11.371 9.4705 10.5295 8.63042 10.5295 7.59101V2.87803C10.5295 1.83861 11.371 0.998535 12.4122 0.998535C13.4534 0.998535 14.2949 1.83861 14.2949 2.87803V7.59101Z" fill="#2EB67D"/>
<path d="M12.409 15.2362C13.4485 15.2362 14.2885 16.0777 14.2885 17.1188C14.2885 18.16 13.4485 19.0015 12.409 19.0015C11.3696 19.0015 10.5295 18.16 10.5295 17.1188V15.2362H12.409ZM12.409 14.2949C11.3696 14.2949 10.5295 13.4534 10.5295 12.4122C10.5295 11.371 11.3696 10.5295 12.409 10.5295H17.122C18.1614 10.5295 19.0015 11.371 19.0015 12.4122C19.0015 13.4534 18.1614 14.2949 17.122 14.2949H12.409Z" fill="#ECB22E"/>
</svg>
