<svg width="20" height="20" viewBox="0 0 20 20" fill="none" xmlns="http://www.w3.org/2000/svg">
<path d="M18.5921 4.33223C18.3093 4.45765 18.0186 4.5635 17.7215 4.64944C18.0732 4.2517 18.3413 3.7837 18.505 3.27157C18.5417 3.15678 18.5037 3.03113 18.4093 2.95605C18.3151 2.88091 18.1841 2.87191 18.0804 2.9334C17.4495 3.30757 16.7689 3.57647 16.0552 3.73371C15.3363 3.03124 14.3599 2.63147 13.3505 2.63147C11.2199 2.63147 9.4864 4.36487 9.4864 6.49548C9.4864 6.66329 9.49703 6.83016 9.51805 6.99472C6.87409 6.76258 4.41605 5.46304 2.72812 3.39252C2.66797 3.31872 2.5753 3.27895 2.48042 3.28655C2.38549 3.29398 2.30019 3.34752 2.25223 3.4298C1.90988 4.01723 1.72889 4.6891 1.72889 5.37269C1.72889 6.30375 2.06131 7.18714 2.64852 7.87741C2.46997 7.81557 2.2967 7.73829 2.13134 7.64649C2.04256 7.59708 1.93421 7.59783 1.84601 7.64841C1.75775 7.69898 1.70242 7.792 1.70009 7.89367C1.69969 7.9108 1.69969 7.92793 1.69969 7.94529C1.69969 9.33506 2.44767 10.5863 3.59125 11.2683C3.493 11.2584 3.39482 11.2442 3.29727 11.2256C3.1967 11.2064 3.09329 11.2416 3.02547 11.3183C2.95754 11.395 2.93506 11.5018 2.96636 11.5993C3.38965 12.9209 4.47946 13.8929 5.79694 14.1893C4.70423 14.8737 3.45462 15.2322 2.14283 15.2322C1.86912 15.2322 1.59384 15.2161 1.32442 15.1842C1.19058 15.1683 1.06261 15.2474 1.01703 15.3746C0.971445 15.502 1.01975 15.6439 1.13362 15.7169C2.81882 16.7974 4.7674 17.3686 6.76859 17.3686C10.7027 17.3686 13.1637 15.5134 14.5355 13.9571C16.2461 12.0165 17.2271 9.44794 17.2271 6.91C17.2271 6.80398 17.2255 6.69691 17.2223 6.59018C17.8971 6.08171 18.4782 5.46635 18.951 4.75906C19.0228 4.65165 19.0151 4.50968 18.9318 4.41079C18.8488 4.31185 18.7103 4.27986 18.5921 4.33223Z" fill="#1DA1F2"/>
</svg>
