<?xml version="1.0" standalone="no"?>
<!DOCTYPE svg PUBLIC "-//W3C//DTD SVG 1.1//EN" "http://www.w3.org/Graphics/SVG/1.1/DTD/svg11.dtd" >
<svg xmlns="http://www.w3.org/2000/svg">
<defs>
  <font id="icons" horiz-adv-x="1000">
    <font-face font-family="icons"
      units-per-em="1000" ascent="1000"
      descent="0" />
    <missing-glyph horiz-adv-x="0" />
    <glyph glyph-name="academic-cap-solid"
      unicode="&#xEA01;"
      horiz-adv-x="1000" d="M483.9400000000001 903.491C488.9225 905.9875 494.4185 907.2875 499.991 907.2875C505.565 907.2875 511.06 905.9875 516.04 903.491C656.485 833.117 787.97 746.1255 907.6599999999999 644.3865000000001C912.52 640.2574999999999 916.19 634.906 918.295 628.884C920.395 622.8625 920.8500000000003 616.389 919.6149999999998 610.1320000000001C918.38 603.875 915.4949999999998 598.062 911.26 593.2925C907.025 588.523 901.595 584.9705 895.525 583.002C762.445 539.841 636.06 478.255 520.055 400.045C514.13 396.04 507.14 393.9 499.991 393.9C492.84 393.9 485.8525 396.04 479.9275 400.045C447.615 421.815 414.4695 442.3250000000001 380.5660000000001 461.525V517.748C380.5660000000001 529.404 386.107 539.8655 394.9925 546.028C445.8095 581.2535 498.515 613.6745 552.87 643.1445C561.09 647.742 567.165 655.389 569.785 664.4315C572.41 673.4739999999999 571.365 683.185 566.885 691.4649999999999C562.4 699.7445 554.84 705.9275 545.835 708.6759999999999C536.8299999999999 711.4245 527.105 710.5185 518.765 706.153C462.087 675.423 407.1325 641.615 354.149 604.8805C340.1395 595.0944999999999 328.707 582.062 320.829 566.8969999999999C312.9515 551.732 308.862 534.885 308.911 517.7955V499.645C242.908 532.4475 174.57 560.326 104.455 583.0495000000001C98.3885 585.0184999999999 92.9575 588.571 88.7235 593.3405C84.489 598.1095 81.6045 603.923 80.3675 610.1800000000001C79.131 616.4365 79.5865 622.91 81.688 628.932C83.7895 634.9535000000001 87.4605 640.3054999999999 92.3215 644.434C212.014 746.1735 343.4955 833.165 483.9400000000001 903.539V903.491zM308.911 419.105C270.678 439.31 231.546 457.77 191.6355 474.4200000000001C183.5305 425.0899999999999 177.3155 375.4700000000001 173.005 325.665C172.3705 318.4400000000001 173.9445 311.1900000000001 177.5185 304.88C181.0925 298.565 186.498 293.49 193.0205 290.3150000000001C218.243 278.0850000000001 242.988 264.995 267.2555 251.145C257.2235 235.665 245.52 221.05 231.953 207.48C228.433 204.1999999999999 225.61 200.245 223.6515 195.8500000000001C221.6935 191.4550000000001 220.6405 186.71 220.5555 181.9000000000001C220.471 177.0899999999999 221.3555 172.3150000000001 223.1575 167.8499999999999C224.9595 163.3900000000001 227.6415 159.34 231.0435 155.9350000000001C234.4460000000001 152.535 238.4985 149.85 242.9595 148.05C247.4205 146.25 252.199 145.365 257.0095 145.4499999999999C261.8205000000001 145.535 266.5645 146.5849999999999 270.9595000000001 148.5450000000001C275.354 150.5000000000001 279.3095 153.3250000000001 282.5895 156.845C300.2645 174.47 315.551 193.6299999999999 328.4485 213.835C380.3985 180.1 429.813 142.61 476.297 101.6700000000001C482.8415 95.9 491.2665 92.7149999999999 499.991 92.7149999999999C508.715 92.7149999999999 517.14 95.9 523.685 101.6700000000001C609.1999999999999 177.01 704.485 240.48 806.9599999999999 290.36C813.485 293.525 818.895 298.5950000000001 822.475 304.895C826.0600000000001 311.2000000000001 827.6450000000001 318.4400000000001 827.0250000000001 325.665C822.715 375.4700000000001 816.4999999999999 425.0899999999999 808.395 474.4200000000001C721.4000000000001 438.115 638.21 393.295 560.04 340.615C542.2950000000001 328.665 521.385 322.2800000000001 499.991 322.2800000000001C478.5965 322.2800000000001 457.6885 328.665 439.944 340.615C420.3585000000001 353.755 400.486 366.4600000000001 380.2315 378.6900000000001C377.737 320.16 359.8775 263.27 328.4485 213.835C308.4065 226.8300000000001 288.0005 239.305 267.2555 251.145C294.5125 293.525 308.975 342.87 308.911 393.26V419.055V419.105z" />
    <glyph glyph-name="academic-cap"
      unicode="&#xEA02;"
      horiz-adv-x="1000" d="M177.491 577.218C166.03 489.485 159.2015 401.2100000000001 157.0325 312.76C276.9820000000001 262.655 391.8305000000001 201.12 499.991 129.0100000000001C608.165 201.12 723.025 262.655 842.99 312.76C840.82 401.2100000000001 833.99 489.485 822.5350000000001 577.218M822.5350000000001 577.218C858.99 589.4680000000001 895.95 600.8009999999999 933.285 611.1345C797.305 706.4575 652.1550000000001 787.9725 499.991 854.4680000000001C347.824 787.9585 202.674 706.4295 66.699 611.0930000000001C103.9195 600.818 140.85 589.5219999999999 177.449 577.218C288.643 539.8375 396.5300000000001 493.26 499.991 437.9700000000001C603.4399999999999 493.255 711.355 539.8344999999999 822.5350000000001 577.218zM281.241 375.01C289.529 375.01 297.4775 378.3000000000001 303.338 384.16C309.1985 390.025 312.491 397.9700000000001 312.491 406.26C312.491 414.5450000000001 309.1985 422.495 303.338 428.355C297.4775 434.2150000000001 289.529 437.51 281.241 437.51C272.953 437.51 265.0045 434.2150000000001 259.144 428.355C253.2835 422.495 249.991 414.5450000000001 249.991 406.26C249.991 397.9700000000001 253.2835 390.025 259.144 384.16C265.0045 378.3000000000001 272.953 375.01 281.241 375.01zM281.241 375.01V528.1345C351.938 572.0785000000001 424.9615000000001 612.165 499.991 648.2180000000001M208.0325 166.97C231.2815 190.16 249.7175 217.715 262.281 248.055C274.8445 278.395 281.288 310.9200000000001 281.241 343.76V406.26" />
    <glyph glyph-name="adjustments"
      unicode="&#xEA03;"
      horiz-adv-x="1000" d="M437.5 750H843.75M437.5 750C437.5 733.424 430.915 717.527 419.194 705.806C407.473 694.085 391.576 687.5 375 687.5C358.424 687.5 342.527 694.085 330.806 705.806C319.0850000000001 717.527 312.5 733.424 312.5 750M437.5 750C437.5 766.576 430.915 782.473 419.194 794.194C407.473 805.915 391.576 812.5 375 812.5C358.424 812.5 342.527 805.915 330.806 794.194C319.0850000000001 782.473 312.5 766.576 312.5 750M156.25 750H312.5M437.5 250H843.75M437.5 250C437.5 233.425 430.915 217.525 419.194 205.805C407.473 194.0849999999999 391.576 187.5 375 187.5C358.424 187.5 342.527 194.0849999999999 330.806 205.805C319.0850000000001 217.525 312.5 233.425 312.5 250M437.5 250C437.5 266.5750000000001 430.915 282.475 419.194 294.1950000000001C407.473 305.915 391.576 312.5 375 312.5C358.424 312.5 342.527 305.915 330.806 294.1950000000001C319.0850000000001 282.475 312.5 266.5750000000001 312.5 250M156.25 250H312.5M687.5 500H843.75M687.5 500C687.5 483.425 680.915 467.525 669.195 455.8049999999999C657.475 444.0850000000001 641.575 437.5 625 437.5C608.425 437.5 592.525 444.0850000000001 580.805 455.8049999999999C569.085 467.525 562.5 483.425 562.5 500M687.5 500C687.5 516.576 680.915 532.473 669.195 544.194C657.475 555.915 641.575 562.5 625 562.5C608.425 562.5 592.525 555.915 580.805 544.194C569.085 532.473 562.5 516.576 562.5 500M156.25 500H562.5" />
    <glyph glyph-name="arrow-down-circle-1"
      unicode="&#xEA04;"
      horiz-adv-x="1000" d="M375 468.75L500 343.75M500 343.75L625 468.75M500 343.75V656.25M875 500C875 450.755 865.3000000000001 401.99 846.4549999999999 356.495C827.6099999999999 310.995 799.985 269.655 765.165 234.8350000000001C730.345 200.015 689.005 172.3900000000001 643.505 153.5450000000001C598.01 134.6999999999999 549.245 125 500 125C450.7545 125 401.9910000000001 134.6999999999999 356.4935000000001 153.5450000000001C310.9965 172.3900000000001 269.657 200.015 234.835 234.8350000000001C200.013 269.655 172.3905 310.995 153.545 356.495C134.6995 401.99 125 450.755 125 500C125 599.456 164.509 694.8389999999999 234.835 765.165C305.161 835.491 400.544 875 500 875C599.455 875 694.84 835.491 765.165 765.165C835.49 694.8389999999999 875 599.456 875 500z" />
    <glyph glyph-name="arrow-down-circle"
      unicode="&#xEA05;"
      horiz-adv-x="1000" d="M500 100C606.085 100 707.8299999999999 142.145 782.845 217.155C857.855 292.1700000000001 900 393.915 900 500C900 606.0865 857.855 707.828 782.845 782.8425C707.8299999999999 857.8575000000001 606.085 900 500 900C393.9135 900 292.1720000000001 857.8575000000001 217.1575 782.8425C142.1425 707.828 100 606.0865 100 500C100 393.915 142.1425 292.1700000000001 217.1575 217.155C292.1720000000001 142.145 393.9135 100 500 100V100zM537.5 662.5C537.5 672.4455 533.55 681.984 526.515 689.0165C519.485 696.049 509.945 700 500 700C490.0545 700 480.516 696.049 473.4835 689.0165C466.451 681.984 462.5 672.4455 462.5 662.5V433L365 538C358.237 545.2935 348.8535 549.6015 338.914 549.9765C328.975 550.352 319.2935 546.7629999999999 312 540C304.7065 533.2370000000001 300.3985 523.8534999999999 300.0235 513.914C299.6485 503.975 303.237 494.295 310 487L472.4999999999999 312C476.0105 308.2150000000001 480.265 305.195 484.997 303.125C489.729 301.0600000000001 494.8365 299.995 500 299.995C505.165 299.995 510.27 301.0600000000001 515.005 303.125C519.735 305.195 523.99 308.2150000000001 527.5 312L690 487C696.765 494.295 700.35 503.975 699.975 513.914C699.6 523.8534999999999 695.2950000000001 533.2370000000001 688 540C680.705 546.7629999999999 671.025 550.352 661.085 549.9765C651.145 549.6015 641.765 545.2935 635 538L537.5 433V662.5z" />
    <glyph glyph-name="arrow-down-left-mini"
      unicode="&#xEA06;"
      horiz-adv-x="1000" d="M400.004 566.6655000000001L233.3375000000001 400L400.004 233.3300000000001M766.67 766.6655000000001V533.3325C766.67 497.97 752.625 464.0550000000001 727.62 439.0500000000001C702.615 414.0450000000001 668.7 400 633.335 400H233.3375000000001" />
    <glyph glyph-name="arrow-down-left"
      unicode="&#xEA07;"
      horiz-adv-x="1000" d="M375.0815 583.3435L166.748 375.01L375.0815 166.6750000000001M833.415 833.3435V541.6769999999999C833.415 497.475 815.855 455.0799999999999 784.6 423.825C753.345 392.5700000000001 710.9499999999999 375.01 666.75 375.01H166.748" />
    <glyph glyph-name="arrow-down-mini"
      unicode="&#xEA08;"
      horiz-adv-x="1000" d="M750 450.005L500 200.005M500 200.005L250 450.005M500 200.005V800.0029999999999" />
    <glyph glyph-name="arrow-down-tray"
      unicode="&#xEA09;"
      horiz-adv-x="1000" d="M125 312.5V218.75C125 193.885 134.877 170.04 152.4585 152.4599999999999C170.0405 134.8750000000001 193.886 125 218.75 125H781.25C806.115 125 829.96 134.8750000000001 847.5400000000001 152.4599999999999C865.1249999999999 170.04 875 193.885 875 218.75V312.5M687.5 500L500 312.5M500 312.5L312.5 500M500 312.5V875" />
    <glyph glyph-name="arrow-down"
      unicode="&#xEA0A;"
      horiz-adv-x="1000" d="M812.5 437.5L500 125M500 125L187.5 437.5M500 125V875" />
    <glyph glyph-name="arrow-left-mini"
      unicode="&#xEA0B;"
      horiz-adv-x="1000" d="M475 725L250 500M250 500L475 275M250 500H750" />
    <glyph glyph-name="arrow-left"
      unicode="&#xEA0C;"
      horiz-adv-x="1000" d="M437.5 187.5L125 500M125 500L437.5 812.5M125 500H875" />
    <glyph glyph-name="arrow-long-down"
      unicode="&#xEA0D;"
      horiz-adv-x="1000" d="M656.25 281.25L500 125M500 125L343.75 281.25M500 125V875" />
    <glyph glyph-name="arrow-long-left"
      unicode="&#xEA0E;"
      horiz-adv-x="1000" d="M281.25 343.75L125 500M125 500L281.25 656.25M125 500H875" />
    <glyph glyph-name="arrow-long-right"
      unicode="&#xEA0F;"
      horiz-adv-x="1000" d="M718.75 656.25L875 500M875 500L718.75 343.75M875 500H125" />
    <glyph glyph-name="arrow-long-up"
      unicode="&#xEA10;"
      horiz-adv-x="1000" d="M343.75 718.75L500 875M500 875L656.25 718.75M500 875V125" />
    <glyph glyph-name="arrow-path-mini"
      unicode="&#xEA11;"
      horiz-adv-x="1000" d="M667.6187500000001 610.5025H875.61875L743.0812500000001 743.1275C700.40625 785.799375 647.25625 816.4862499999999 588.9625000000001 832.1025C530.67125 847.71875 469.295625 847.71375 411.00625 832.08875C352.7175000000001 816.464375 299.56875 785.77 256.90375 743.09125C214.238125 700.413125 183.560625 647.2550000000001 167.95375 588.9606249999999M124.37 181.5V389.5025M124.37 389.5025H332.37M124.37 389.5025L256.87 256.875C299.541875 214.2062500000001 352.695 183.51875 410.98625 167.9000000000001C469.278125 152.2875 530.6531249999999 152.2937500000001 588.9425 167.9187500000001C647.23125 183.5437500000001 700.3812499999999 214.2375 743.04375 256.9125C785.7125000000001 299.59375 816.3875 352.75 831.99375 411.0443750000001M875.61875 818.5025V610.5856249999999" />
    <glyph glyph-name="arrow-path"
      unicode="&#xEA12;"
      horiz-adv-x="1000" d="M667.63 610.5H875.63V610.5415M124.3825 181.5V389.5M124.3825 389.5H332.3825M124.341 389.5L256.8825 256.875C299.5540000000001 214.2050000000001 352.707 183.5150000000001 410.9985 167.9C469.29 152.285 530.6650000000001 152.29 588.9549999999999 167.915C647.245 183.54 700.39 214.235 743.0550000000001 256.91C785.7249999999999 299.5900000000001 816.4 352.75 832.01 411.0400000000001M167.966 588.9585C183.5725 647.252 214.2505 700.4105 256.916 743.0889999999999C299.581 785.767 352.7295000000001 816.4615 411.0185 832.0865C469.308 847.7115 530.685 847.716 588.975 832.0995C647.265 816.4835 700.42 785.797 743.09 743.125L875.63 610.5415M875.63 818.5V610.5835" />
    <glyph glyph-name="arrow-right-mini"
      unicode="&#xEA13;"
      horiz-adv-x="1000" d="M250 500H750M750 500L525 725M750 500L525 275" />
    <glyph glyph-name="arrow-right-on-rectangle"
      unicode="&#xEA14;"
      horiz-adv-x="1000" d="M656.25 625V781.25C656.25 806.114 646.375 829.9594999999999 628.79 847.5415C611.21 865.123 587.365 875 562.5 875H312.5C287.636 875 263.7905 865.123 246.2085 847.5415C228.627 829.9594999999999 218.75 806.114 218.75 781.25V218.75C218.75 193.885 228.627 170.04 246.2085 152.4599999999999C263.7905 134.8750000000001 287.636 125 312.5 125H562.5C587.365 125 611.21 134.8750000000001 628.79 152.4599999999999C646.375 170.04 656.25 193.885 656.25 218.75V375M781.25 375L906.25 500M906.25 500L781.25 625M906.25 500H375" />
    <glyph glyph-name="arrow-up-circle-solid"
      unicode="&#xEA15;"
      horiz-adv-x="1000" d="M500 100C606.085 100 707.8299999999999 142.145 782.845 217.155C857.855 292.1700000000001 900 393.915 900 500C900 606.0865 857.855 707.828 782.845 782.8425C707.8299999999999 857.8575000000001 606.085 900 500 900C393.9135 900 292.1720000000001 857.8575000000001 217.1575 782.8425C142.1425 707.828 100 606.0865 100 500C100 393.915 142.1425 292.1700000000001 217.1575 217.155C292.1720000000001 142.145 393.9135 100 500 100V100zM462.5 337.5C462.5 327.555 466.451 318.015 473.4835 310.985C480.516 303.9500000000001 490.0545 300 500 300C509.945 300 519.485 303.9500000000001 526.515 310.985C533.55 318.015 537.5 327.555 537.5 337.5V567L635 462C641.765 454.7049999999999 651.145 450.4 661.085 450.025C671.025 449.65 680.705 453.235 688 460C695.2950000000001 466.765 699.6 476.145 699.975 486.085C700.35 496.025 696.765 505.7064999999999 690 513L527.5 688C523.99 691.7864999999999 519.735 694.807 515.005 696.873C510.27 698.9385 505.165 700.005 500 700.005C494.8365 700.005 489.729 698.9385 484.997 696.873C480.265 694.807 476.0105 691.7864999999999 472.4999999999999 688L310 513C306.6515 509.3885 304.0465000000001 505.153 302.3350000000001 500.535C300.623 495.915 299.8375 491.005 300.0235 486.085C300.209 481.165 301.3625 476.33 303.4175 471.85C305.4720000000001 467.375 308.3885 463.35 312 460C315.6115 456.65 319.847 454.045 324.4650000000001 452.3349999999999C329.0830000000001 450.625 333.9925 449.8400000000001 338.914 450.025C343.8355 450.2100000000001 348.6725 451.36 353.1485 453.4150000000001C357.624 455.47 361.6515 458.39 365 462L462.5 567V337.5z" />
    <glyph glyph-name="arrow-up-down"
      unicode="&#xEA16;"
      horiz-adv-x="1000" d="M125 687.5L312.5 875M312.5 875L500 687.5M312.5 875V312.5M875 312.5L687.5 125M687.5 125L500 312.5M687.5 125V687.5" />
    <glyph glyph-name="arrow-up-mini"
      unicode="&#xEA17;"
      horiz-adv-x="1000" d="M250 550L500 800M500 800L750 550M500 800V200" />
    <glyph glyph-name="arrow-up-right-mini"
      unicode="&#xEA18;"
      horiz-adv-x="1000" d="M287.5 287.5L712.5 712.5M712.5 712.5H337.4985000000001M712.5 712.5V337.5" />
    <glyph glyph-name="arrow-up-right-on-box"
      unicode="&#xEA19;"
      horiz-adv-x="1000" d="M452.6779999999999 733.6585H237.134C213.895 733.6585 191.608 724.427 175.1755 707.9945C158.7435 691.5625 149.5115 669.2750000000001 149.5115 646.0364999999999V237.13C149.5115 213.895 158.7435 191.605 175.1755 175.175C191.608 158.74 213.895 149.5100000000001 237.134 149.5100000000001H646.04C669.275 149.5100000000001 691.565 158.74 707.995 175.175C724.43 191.605 733.66 213.895 733.66 237.13V448.9650000000001M350.1615 349.3150000000001L850.4899999999999 850.4885M850.4899999999999 850.4885H646.04M850.4899999999999 850.4885V646.0364999999999" />
    <glyph glyph-name="arrow-up-tray"
      unicode="&#xEA1A;"
      horiz-adv-x="1000" d="M125 312.5V218.75C125 193.885 134.877 170.04 152.4585 152.4599999999999C170.0405 134.8750000000001 193.886 125 218.75 125H781.25C806.115 125 829.96 134.8750000000001 847.5400000000001 152.4599999999999C865.1249999999999 170.04 875 193.885 875 218.75V312.5M312.5 687.5L500 875M500 875L687.5 687.5M500 875V312.5" />
    <glyph glyph-name="arrow-uturn-left"
      unicode="&#xEA1B;"
      horiz-adv-x="1000" d="M383.3515 383.35L150.049 616.6514999999999M150.049 616.6514999999999L383.3515 849.954M150.049 616.6514999999999H616.655C678.5300000000001 616.6514999999999 737.87 592.0715 781.625 548.319C825.375 504.566 849.9549999999999 445.225 849.9549999999999 383.35C849.9549999999999 321.475 825.375 262.13 781.625 218.38C737.87 174.625 678.5300000000001 150.0450000000001 616.655 150.0450000000001H500.005" />
    <glyph glyph-name="arrows-pointing-out-mini"
      unicode="&#xEA1C;"
      horiz-adv-x="1000" d="M225 225V375M225 225H375M225 225L400 400M775 775H625M775 775V625M775 775L600 600" />
    <glyph glyph-name="arrows-pointing-out"
      unicode="&#xEA1D;"
      horiz-adv-x="1000" d="M156.25 156.25V343.75M156.25 156.25H343.75M156.25 156.25L375 375M843.75 843.75H656.25M843.75 843.75V656.25M843.75 843.75L625 625" />
    <glyph glyph-name="arrrow-right"
      unicode="&#xEA1E;"
      horiz-adv-x="1000" d="M562.5 812.5L875 500M875 500L562.5 187.5M875 500H125" />
    <glyph glyph-name="at-symbol"
      unicode="&#xEA1F;"
      horiz-adv-x="1000" d="M687.5 500C687.5 430.9599999999999 729.46 375 781.25 375C833.04 375 875 430.9599999999999 875 500C875 586.758 844.915 670.8315 789.875 737.8965000000001C734.84 804.961 658.245 850.8665 573.1550000000001 867.7915C488.0645 884.7165 399.7375 871.6134999999999 323.224 830.7155C246.71 789.8175 186.7445 723.6545 153.544 643.5C120.344 563.3454999999999 115.963 474.16 141.148 391.135C166.3335 308.115 219.5265 236.395 291.6635 188.1949999999999C363.8005 139.995 450.4185 118.3 536.76 126.8000000000001C623.1 135.305 703.8199999999999 173.485 765.165 234.8350000000001M687.5 500V656.2495M687.5 500C687.5 450.27 667.745 402.5800000000001 632.585 367.415C597.42 332.255 549.73 312.5 500 312.5C450.272 312.5 402.5805000000001 332.255 367.4175 367.415C332.2545 402.5800000000001 312.5 450.27 312.5 500C312.5 549.7275 332.2545 597.419 367.4175 632.582C402.5805000000001 667.745 450.272 687.4995 500 687.4995C549.73 687.4995 597.42 667.745 632.585 632.582C667.745 597.419 687.5 549.7275 687.5 500V500z" />
    <glyph glyph-name="backward-solid"
      unicode="&#xEA20;"
      horiz-adv-x="1000" d="M383.1245 262.9C435.208 233.1900000000001 499.9995 270.815 499.9995 330.7750000000001V428.275L789.375 262.9400000000001C841.46 233.1900000000001 906.25 270.775 906.25 330.7750000000001V669.234C906.25 729.2339999999999 841.46 766.8175 789.375 737.0675L499.9995 571.6510000000001V669.1510000000001C499.9995 729.1510000000001 435.208 766.7755 383.1245 737.0255L86.958 567.7755C34.458 537.7755 34.458 462.11 86.958 432.11L383.1245 262.9z" />
    <glyph glyph-name="bars-three"
      unicode="&#xEA21;"
      horiz-adv-x="1000" d="M156.25 750H843.75M156.25 500.003H843.75M156.25 250H843.75" />
    <glyph glyph-name="bell-alert-solid"
      unicode="&#xEA22;"
      horiz-adv-x="1000" d="M243.7485 854.1685C248.9645 860.385 251.558 868.386 250.9805 876.48C250.403 884.574 246.6995 892.126 240.6535 897.5385C234.608 902.951 226.694 905.7995 218.5855 905.482C210.477 905.164 202.8105 901.7045 197.207 895.8355C146.018 838.7415 112.0915 768.2875 99.3735 692.6685C98.197 684.583 100.2345 676.358 105.049 669.7565C109.863 663.1545 117.072 658.701 125.13 657.3495C133.1885 655.9985 141.4555 657.857 148.16 662.5274999999999C154.8645 667.1975 159.473 674.308 160.9985 682.3354999999999C171.754 746.2935 200.4505 805.8820000000001 243.7485 854.1685zM802.7900000000001 895.8355C800.0600000000001 898.9215 796.75 901.4375 793.0450000000001 903.2395C789.3399999999999 905.041 785.32 906.0925 781.205 906.334C777.095 906.575 772.975 906.0005 769.085 904.644C765.195 903.2875 761.615 901.1755 758.545 898.4295C755.475 895.6835 752.975 892.3575 751.1949999999999 888.643C749.4150000000001 884.928 748.39 880.8985 748.17 876.785C747.9549999999999 872.6715 748.55 868.556 749.93 864.6745C751.31 860.793 753.4449999999999 857.223 756.205 854.1685C799.52 805.886 828.2299999999999 746.297 839 682.3354999999999C840.3700000000001 674.158 844.93 666.8595 851.685 662.046C855.025 659.663 858.8050000000001 657.961 862.805 657.0385C866.805 656.116 870.95 655.99 875 656.6685C879.05 657.347 882.925 658.8165 886.4050000000001 660.9929999999999C889.885 663.1695 892.905 666.01 895.29 669.3530000000001C897.67 672.696 899.375 676.4755 900.2950000000001 680.476C901.22 684.4765 901.345 688.6195 900.6650000000001 692.6685C887.9200000000001 768.296 854.0050000000001 838.75 802.7900000000001 895.8355zM499.9925 906.25C425.4005 906.25 353.8635000000001 876.6185 301.1185 823.874C248.374 771.129 218.7425 699.592 218.7425 625V593.75C218.8705 508.7835 187.401 426.805 130.451 363.75C127.0305 359.955 124.593 355.38 123.3505 350.425C122.108 345.4700000000001 122.099 340.29 123.3245 335.3300000000001C124.55 330.37 126.972 325.7900000000001 130.379 321.985C133.786 318.175 138.074 315.265 142.8675 313.5C207.201 289.75 274.534 272.25 344.159 261.7099999999999C342.5915 240.285 345.4575000000001 218.7700000000001 352.5785 198.5049999999999C359.6995 178.2400000000001 370.9225 159.6600000000001 385.5465000000001 143.93C400.17 128.1950000000001 417.8810000000001 115.645 437.572 107.0650000000001C457.2635 98.485 478.5125 94.055 499.9925 94.055C521.4699999999999 94.055 542.72 98.485 562.415 107.0650000000001C582.105 115.645 599.8149999999999 128.1950000000001 614.44 143.93C629.0600000000001 159.6600000000001 640.285 178.2400000000001 647.405 198.5049999999999C654.525 218.7700000000001 657.395 240.285 655.825 261.7099999999999C724.495 272.12 791.925 289.485 857.075 313.54C861.8600000000001 315.3100000000001 866.145 318.2200000000001 869.545 322.025C872.9449999999999 325.8250000000001 875.365 330.405 876.59 335.355C877.815 340.3100000000001 877.8050000000001 345.485 876.57 350.435C875.3349999999999 355.385 872.9050000000001 359.955 869.49 363.75C812.5550000000001 426.81 781.105 508.789 781.24 593.75V625C781.24 699.592 751.61 771.129 698.865 823.874C646.12 876.6185 574.585 906.25 499.9925 906.25zM406.2425 250C406.2425 251.415 406.2425 252.79 406.326 254.165C468.644 248.55 531.3399999999999 248.55 593.6600000000001 254.165L593.74 250C593.74 225.135 583.865 201.29 566.285 183.7099999999999C548.7 166.1250000000001 524.855 156.25 499.9925 156.25C475.1285 156.25 451.283 166.1250000000001 433.701 183.7099999999999C416.1195 201.29 406.2425 225.135 406.2425 250z" />
    <glyph glyph-name="bell-alert"
      unicode="&#xEA23;"
      horiz-adv-x="1000" d="M619.05 288.25C696.685 297.4400000000001 772.9599999999999 315.765 846.3 342.8350000000001C784.1899999999999 411.635 749.87 501.0625 750.01 593.75V622.9165V625C750.01 691.3040000000001 723.67 754.8925 676.785 801.7764999999999C629.9000000000001 848.6610000000001 566.3149999999999 875 500.01 875C433.705 875 370.1165000000001 848.6610000000001 323.2325 801.7764999999999C276.3485 754.8925 250.009 691.3040000000001 250.009 625V593.75C250.135 501.057 215.8 411.625 153.676 342.8350000000001C225.884 316.165 302.009 297.625 380.9675 288.25M619.05 288.25C539.965 278.87 460.0515 278.87 380.9675 288.25M619.05 288.25C625.055 269.505 626.5500000000001 249.61 623.41 230.1800000000001C620.27 210.75 612.585 192.3349999999999 600.985 176.4350000000001C589.38 160.535 574.19 147.6000000000001 556.64 138.6850000000001C539.095 129.7650000000001 519.69 125.1200000000001 500.01 125.1200000000001C480.3265 125.1200000000001 460.9225 129.7650000000001 443.3760000000001 138.6850000000001C425.8295000000001 147.6000000000001 410.637 160.535 399.035 176.4350000000001C387.433 192.3349999999999 379.7495 210.75 376.6095000000001 230.1800000000001C373.4700000000001 249.61 374.963 269.505 380.9675 288.25M130.176 687.5C141.9245 757.293 173.2505 822.315 220.509 875M779.51 875C826.77 822.315 858.0949999999999 757.293 869.8399999999999 687.5" />
    <glyph glyph-name="bolt-solid"
      unicode="&#xEA24;"
      horiz-adv-x="1000" d="M601.6949999999999 921.1605C607.39 917.862 611.86 912.674 614.39 906.4235C616.92 900.1735 617.365 893.221 615.655 886.676L538.1899999999999 591.0885000000001H820.8349999999999C826.52 591.088 832.08 589.3589999999999 836.8299999999999 586.114C841.585 582.8689999999999 845.325 578.2495 847.5849999999999 572.823C849.85 567.3969999999999 850.54 561.4 849.5749999999999 555.5705C848.61 549.741 846.025 544.332 842.145 540.009L433.8110000000001 84.6650000000001C429.3635 79.6950000000001 423.4425 76.4250000000001 416.996 75.37C410.5495 74.3150000000001 403.9495 75.54 398.251 78.8500000000001C392.553 82.16 388.086 87.365 385.565 93.6299999999999C383.0435 99.8900000000001 382.6135 106.855 384.344 113.405L461.811 408.9500000000001H179.165C173.481 408.9500000000001 167.921 410.68 163.168 413.925C158.4155 417.1700000000001 154.6775 421.79 152.4135 427.2150000000001C150.1495 432.645 149.458 438.64 150.425 444.4700000000001C151.3915 450.3 153.9735 455.71 157.854 460.03L566.19 915.3725C570.635 920.325 576.5500000000001 923.5855 582.985 924.6345C589.42 925.6835 596.005 924.4605 601.6949999999999 921.1605z" />
    <glyph glyph-name="bolt"
      unicode="&#xEA25;"
      horiz-adv-x="1000" d="M156.25 437.5L593.75 906.25L500 562.5H843.75L406.25 93.75L500 437.5H156.25z" />
    <glyph glyph-name="book-open"
      unicode="&#xEA26;"
      horiz-adv-x="1000" d="M500 748.2495C431.3170000000001 809.8595 342.2665 843.877 250 843.7495C206.1665 843.7495 164.0835 836.2495 125 822.4165V228.665C165.151 242.8300000000001 207.4235 250.045 250 250C346.0415 250 433.6665 213.875 500 154.5M500 748.2495C568.68 809.863 657.735 843.881 750 843.7495C793.835 843.7495 835.915 836.2495 875 822.4165V228.665C834.8499999999999 242.8300000000001 792.5749999999999 250.045 750 250C657.735 250.125 568.685 216.11 500 154.5M500 748.2495V154.5" />
    <glyph glyph-name="bug-ant-solid"
      unicode="&#xEA27;"
      horiz-adv-x="1000" d="M339.3985 913.6385C346.9580000000001 908.261 352.074 900.103 353.6230000000001 890.956C355.1725 881.8095 353.0285 872.422 347.6615 864.855C338.8235 852.4105 331.5485 838.927 326.0005 824.7075C334.637 816.7715000000001 343.8335 809.349 353.5435 802.6265C371.01 824.739 393.262 842.604 418.6270000000001 854.8785C443.992 867.1525 471.8095 873.5165 499.988 873.491C559.37 873.491 612.26 845.7615000000001 646.43 802.6265C656.14 809.349 665.34 816.7245 673.975 824.7075C668.4300000000001 838.927 661.155 852.4105 652.315 864.855C647.225 872.429 645.29 881.6915 646.925 890.67C648.5649999999999 899.6485 653.645 907.6325 661.08 912.9215C668.52 918.2105 677.725 920.3865 686.745 918.986C695.765 917.585 703.88 912.718 709.36 905.4225C726.585 881.194 739.705 853.8375 747.735 824.3805C749.2950000000001 818.6425 749.37 812.601 747.9449999999999 806.8265C746.525 801.052 743.6550000000001 795.7345 739.61 791.376C721.545 771.8985 701.185 754.6865 678.97 740.1179999999999C684.12 722.8005 686.73 704.827 686.72 686.7595C686.72 662.4839999999999 672.67 641.8035 652.97 631.3465C635.67 622.1705 617.5749999999999 614.577 598.91 608.659C604.98 598.9490000000001 609.6949999999999 588.3050000000001 612.725 576.961C678.69 585.0840000000001 742.46 600.3025 803.2400000000001 621.7764999999999C803.975 657.914 802.57 694.063 799.04 730.0345C798.59 734.611 799.05 739.2305 800.39 743.63C801.725 748.029 803.915 752.1220000000001 806.835 755.6745C809.755 759.227 813.345 762.1695 817.405 764.3344999999999C821.46 766.499 825.905 767.8435 830.48 768.291C835.0550000000001 768.7384999999999 839.6750000000001 768.2805000000001 844.0749999999999 766.9425C848.475 765.6045 852.565 763.4135 856.1199999999999 760.494C859.6700000000001 757.5745 862.6150000000001 753.9835 864.78 749.927C866.9449999999999 745.87 868.29 741.4265 868.735 736.85C873.3449999999999 689.8805 874.59 642.6415 872.47 595.4939999999999C872.1650000000001 588.6759999999999 869.87 582.096 865.875 576.5640000000001C861.875 571.0314999999999 856.3449999999999 566.7885 849.97 564.3565C772.59 534.7745 691.75 515.181 609.415 506.0495C607.955 502.1195 606.29 498.27 604.42 494.52C688.355 485.67 770.7900000000001 465.9449999999999 849.645 435.8399999999999C856.55 433.1850000000001 862.435 428.4150000000001 866.46 422.2100000000001C870.49 416 872.4449999999999 408.6800000000001 872.05 401.295C867.8699999999999 320.375 853.645 240.29 829.71 162.885C828.35 158.4899999999999 826.135 154.4100000000001 823.1999999999999 150.8699999999999C820.26 147.335 816.6550000000001 144.4100000000001 812.585 142.2650000000001C808.5150000000001 140.1249999999999 804.0649999999999 138.8 799.4849999999999 138.3800000000001C794.91 137.9550000000001 790.29 138.44 785.9 139.8C781.505 141.16 777.4250000000001 143.375 773.885 146.3100000000001C770.35 149.25 767.425 152.8549999999999 765.28 156.9250000000001C763.14 160.99 761.815 165.4450000000001 761.395 170.0200000000001C760.97 174.6 761.4499999999999 179.2199999999999 762.8149999999999 183.61C782.1850000000001 246.165 795.025 311.66 800.44 379.2099999999999C777.33 387.3350000000001 753.755 394.525 729.855 400.735C732.19 387.475 733.4050000000001 373.89 733.4050000000001 359.98C733.4050000000001 275.2950000000001 709.27 205.365 666.835 155.9749999999999C646.28 131.86 620.69 112.5450000000001 591.86 99.395C563.035 86.2500000000001 531.67 79.5849999999999 499.988 79.88C468.3049999999999 79.5899999999999 436.944 86.2550000000001 408.116 99.4C379.288 112.5500000000001 353.6960000000001 131.86 333.1430000000001 155.9749999999999C290.6620000000001 205.41 266.5735 275.3450000000001 266.5735 359.98C266.5735 373.89 267.787 387.5200000000001 270.1215 400.735C246.1730000000001 394.525 222.6445 387.3350000000001 199.5365 379.26C204.952 311.66 217.743 246.2150000000001 237.163 183.61C239.9115 174.7400000000001 239.0235 165.1400000000001 234.6945 156.9250000000001C230.3655 148.7050000000001 222.9495 142.545 214.0785 139.8C205.2075 137.05 195.608 137.9400000000001 187.3915 142.2650000000001C179.175 146.5949999999999 173.015 154.0100000000001 170.2665 162.885C146.311 240.29 132.072 320.375 127.8785 401.295C127.492 408.6900000000001 129.462 416.02 133.505 422.23C137.5485 428.435 143.4565 433.2 150.3795 435.8399999999999C229.2175 465.9399999999999 311.6345 485.665 395.5585000000001 494.52C393.686 498.27 392.0185 502.1185 390.563 506.0495C308.225 515.181 227.3875 534.7745 150.006 564.3565C143.6285 566.7885 138.101 571.0314999999999 134.1035 576.5640000000001C130.106 582.096 127.812 588.6759999999999 127.505 595.4939999999999C125.4 642.642 126.648 689.8795 131.2395 736.85C131.687 741.4265 133.0315 745.87 135.1965 749.927C137.361 753.9835 140.304 757.5745 143.856 760.494C147.4085 763.4135 151.5015 765.6045 155.9005 766.9425C160.3 768.2805000000001 164.92 768.7384999999999 169.496 768.291C174.0725 767.8435 178.516 766.499 182.573 764.3344999999999C186.6295 762.1695 190.2205 759.227 193.14 755.6745C196.0595 752.1220000000001 198.2505 748.029 199.5885 743.63C200.9265 739.2305 201.3845 734.611 200.937 730.0345C197.4135 694.0465 196.0105 657.8824999999999 196.7355 621.73C257.517 600.3025 321.286 585.0840000000001 387.202 576.961C390.283 588.3050000000001 394.9515 598.9490000000001 401.067 608.659C382.4005 614.5775 364.3075 622.171 347.008 631.3465C336.88 636.6465000000001 328.3865 644.605 322.44 654.3679999999999C316.4935 664.1305 313.3185000000001 675.3285000000001 313.2565 686.7595C313.2445 704.827 315.8545000000001 722.8005 321.0055 740.1179999999999C298.776 754.6845 278.3975 771.8965 260.318 791.376C256.2805 795.739 253.4205 801.0585 252.0075 806.833C250.5945 812.607 250.675 818.646 252.2415 824.3805C260.162 853.443 273.1525 880.8785 290.615 905.4225C293.2815 909.168 296.6600000000001 912.352 300.5575 914.7925C304.4545 917.2325 308.7940000000001 918.881 313.3285 919.644C317.863 920.407 322.503 920.2695 326.9845000000001 919.239C331.4655 918.2085 335.653 916.3055 339.3985 913.6385z" />
    <glyph glyph-name="bug"
      unicode="&#xEA28;"
      horiz-adv-x="1000" d="M500.015 469.24C547.0749999999999 469.24 593.395 465.96 638.6949999999999 459.525C681.205 453.54 715.185 419.9250000000001 715.185 377.005C715.185 224.1850000000001 618.855 100.305 499.9755 100.305C381.0970000000001 100.305 284.8055 224.1850000000001 284.8055 377.005C284.8055 419.885 318.8295 453.54 361.2975 459.525C407.2530000000001 466 453.6065 469.25 500.015 469.24zM500.015 469.24C618.2 469.24 731.5 448.415 836.4399999999999 410.2100000000001C831.495 325.7150000000001 815.62 242.2150000000001 789.22 161.7950000000001M500.015 469.24C381.8350000000001 469.24 268.5315 448.415 163.55 410.2100000000001C168.674 323.9600000000001 184.866 240.665 210.814 161.7950000000001M500.015 469.24C512.49 469.235 524.83 471.765 536.3000000000001 476.6700000000001C547.77 481.575 558.12 488.75 566.735 497.77C575.35 506.7925 582.045 517.466 586.4150000000001 529.1475C590.785 540.829 592.745 553.276 592.165 565.735M500.015 469.24C487.5435000000001 469.235 475.2005 471.765 463.7325 476.6700000000001C452.2645 481.575 441.9105 488.75 433.2965 497.77C424.6825 506.7925 417.9875 517.466 413.6165000000001 529.1475C409.2450000000001 540.829 407.2885000000001 553.276 407.865 565.735M592.165 565.735C591.07 589.4359999999999 580.88 611.803 563.72 628.1865C546.5600000000001 644.5695000000001 523.745 653.7090000000001 500.015 653.7049999999999M592.165 565.735C664.97 572.4784999999999 736.8249999999999 587.356 806.3100000000001 610.0889999999999C804.06 656.2875 798.645 701.6659999999999 790.245 745.938M407.865 565.735C408.962 589.4359999999999 419.15 611.803 436.312 628.1865C453.474 644.5695000000001 476.2895 653.7090000000001 500.015 653.7049999999999M407.865 565.735C333.7915000000001 572.6215 262.137 587.707 193.7615 610.0889999999999C195.9655 655.6895 201.3345 701.0815 209.8305 745.938M500.015 653.7049999999999C540.8050000000001 653.7049999999999 580.815 656.9845 619.795 663.3789999999999C636.315 666.0844999999999 650.13 678.0545 652.385 694.6155C656.585 726.311 650.87 758.5295 636.03 786.8485000000001M500.015 653.7049999999999C459.2285000000001 653.7049999999999 419.261 656.9845 380.236 663.3789999999999C363.757 666.0844999999999 349.9015 678.0545 347.647 694.6155C343.313 726.358 349.048 758.6605 364.044 786.9715M364.044 786.9715C346.5835 798.599 330.6735000000001 812.3605 316.6980000000001 828.005C319.5675 853.8305 327.766 878.098 340.2275 899.619M364.044 786.9715C377.094 811.7335 396.6565 832.4214999999999 420.622 846.8815C444.588 861.3415 472.0465 868.9835 500.035 868.9835C528.025 868.9835 555.485 861.3415 579.45 846.8815C603.4150000000001 832.4214999999999 622.98 811.6925 636.03 786.9305C653.535 798.5315 669.4399999999999 812.346 683.375 827.8820000000001C680.595 853.1995 672.5649999999999 877.659 659.805 899.701" />
    <glyph glyph-name="building-storefront"
      unicode="&#xEA29;"
      horiz-adv-x="1000" d="M562.5 125V437.5C562.5 445.7900000000001 565.795 453.735 571.655 459.595C577.515 465.46 585.465 468.75 593.75 468.75H718.75C727.0400000000001 468.75 734.985 465.46 740.85 459.595C746.71 453.735 750 445.7900000000001 750 437.5V125M562.5 125H98.334M562.5 125H750M750 125H901.665M843.75 125V610.4585C860.36 620.0455 874.54 633.3254999999999 885.19 649.2705C895.8449999999999 665.2149999999999 902.69 683.3975 905.19 702.4105C907.69 721.423 905.785 740.7565 899.62 758.9145C893.45 777.0725 883.1899999999999 793.568 869.6249999999999 807.125L820.04 856.6665C808.3349999999999 868.391 792.445 874.9855 775.875 875H224.084C207.5135 874.9855 191.627 868.391 179.9175 856.6665L130.3755 807.1665C116.844 793.5944999999999 106.6095 777.0955 100.462 758.943C94.314 740.79 92.417 721.4680000000001 94.917 702.466C97.417 683.4639999999999 104.2475 665.29 114.8815 649.3455C125.515 633.4005 139.6685 620.1105 156.2505 610.5M156.2505 125.0400000000001V610.4165C181.2515 596.0005 210.4695 590.6765 238.9485 595.347C267.4275 600.0174999999999 293.4140000000001 614.3955000000001 312.5005 636.0415C324.2215 622.7315 338.6465 612.0740000000001 354.813 604.7815C370.9795000000001 597.4884999999999 388.5155000000001 593.7275 406.2505 593.75C443.584 593.75 477.0839999999999 610.125 500 636.0835C511.72 622.7655 526.14 612.1005 542.31 604.8005C558.4749999999999 597.5 576.01 593.733 593.75 593.75C631.085 593.75 664.585 610.125 687.5 636.0835C706.595 614.444 732.58 600.0740000000001 761.06 595.4110000000001C789.5400000000001 590.7479999999999 818.755 596.079 843.75 610.5M281.2505 250.04H437.5005C445.7885 250.04 453.737 253.3350000000001 459.5975 259.195C465.458 265.055 468.7505 273.005 468.7505 281.29V437.5C468.7505 445.7900000000001 465.458 453.735 459.5975 459.595C453.737 465.46 445.7885 468.75 437.5005 468.75H281.2505C272.9625 468.75 265.014 465.46 259.1535 459.595C253.293 453.735 250.0005 445.7900000000001 250.0005 437.5V281.25C250.0005 263.9599999999999 264.0005 250.04 281.2505 250.04z" />
    <glyph glyph-name="building-tax"
      unicode="&#xEA2A;"
      horiz-adv-x="1000" d="M875 625H125V708.3335L500 875L875 708.3335V625zM416.6665 166.6650000000001H125L161.4585 291.665H416.6665M208.325 625V291.665M374.992 291.665V625M856.77 440.105L601.5600000000001 184.895M614.5749999999999 395.8350000000001C631.8349999999999 395.8350000000001 645.8249999999999 409.8250000000001 645.8249999999999 427.0850000000001C645.8249999999999 444.3450000000001 631.8349999999999 458.335 614.5749999999999 458.335C597.315 458.335 583.3249999999999 444.3450000000001 583.3249999999999 427.0850000000001C583.3249999999999 409.8250000000001 597.315 395.8350000000001 614.5749999999999 395.8350000000001zM843.75 166.6650000000001C861.0099999999999 166.6650000000001 875 180.655 875 197.9150000000001C875 215.175 861.0099999999999 229.165 843.75 229.165C826.4900000000001 229.165 812.5 215.175 812.5 197.9150000000001C812.5 180.655 826.4900000000001 166.6650000000001 843.75 166.6650000000001z" />
    <glyph glyph-name="buildings-mini"
      unicode="&#xEA2B;"
      horiz-adv-x="1000" d="M778.73 236.75V546.453C778.73 554.6669999999999 775.465 562.5440000000001 769.655 568.352C763.8499999999999 574.1600000000001 755.97 577.423 747.755 577.423H623.875M221.2645 236.755V732.2775C221.2645 740.4915 224.5275 748.3685 230.3355 754.1765C236.1435 759.985 244.021 763.2475 252.235 763.2475H592.905C601.12 763.2475 608.995 759.985 614.805 754.1765C620.615 748.3685 623.875 740.4915 623.875 732.2775V236.755M337.378 632.358H507.715M337.378 500.003H507.715M337.4035 236.75H507.74V370.0850000000001H337.4035V236.75zM809.7099999999999 236.75H190.3075" />
    <glyph glyph-name="buildings-solid"
      unicode="&#xEA2C;"
      horiz-adv-x="1000" d="M694.62 792.293V636.2265H811.9849999999999C832.1949999999999 636.2265 851.58 628.197 865.875 613.904C880.1650000000001 599.6115 888.1949999999999 580.2265 888.1949999999999 560.0135V210.39H889.415C910.125 210.39 926.915 193.6 926.915 172.89C926.915 152.1800000000001 910.125 135.39 889.415 135.39H851.0799999999999L850.6949999999999 135.385L850.3149999999999 135.39H115.161C94.4505 135.39 77.661 152.1800000000001 77.661 172.89C77.661 193.6 94.4505 210.39 115.161 210.39H116.3575V792.293C116.3575 812.506 124.387 831.891 138.6795 846.1835C152.972 860.4765 172.357 868.506 192.57 868.506H618.41C638.62 868.506 658.005 860.4765 672.3 846.1835C686.59 831.891 694.62 812.506 694.62 792.293zM511.95 205.69C494.001 205.69 479.45 220.24 479.45 238.19V307.05H331.5305V238.19C331.5305 220.24 316.98 205.69 299.0305 205.69C281.0815 205.69 266.5305 220.24 266.5305 238.19V339.5500000000001C266.5305 357.5 281.0815 372.0500000000001 299.0305 372.0500000000001H511.95C529.9000000000001 372.0500000000001 544.4499999999999 357.5 544.4499999999999 339.5500000000001V238.19C544.4499999999999 220.24 529.9000000000001 205.69 511.95 205.69zM299.0205000000001 539.453C278.3095 539.453 261.5205000000001 522.664 261.5205000000001 501.953C261.5205000000001 481.24 278.3095 464.4549999999999 299.0205000000001 464.4549999999999H511.94C532.65 464.4549999999999 549.4399999999999 481.24 549.4399999999999 501.953C549.4399999999999 522.664 532.65 539.453 511.94 539.453H299.0205000000001zM773.06 205.8C752.35 205.8 735.56 222.59 735.56 243.3V501.951C735.56 522.6614999999999 752.35 539.451 773.06 539.451C793.7700000000001 539.451 810.5600000000001 522.6614999999999 810.5600000000001 501.951V243.3C810.5600000000001 222.59 793.7700000000001 205.8 773.06 205.8zM299.0205000000001 704.895C278.3095 704.895 261.5205000000001 688.1055 261.5205000000001 667.395C261.5205000000001 646.6845000000001 278.3095 629.895 299.0205000000001 629.895H511.94C532.65 629.895 549.4399999999999 646.6845000000001 549.4399999999999 667.395C549.4399999999999 688.1055 532.65 704.895 511.94 704.895H299.0205000000001z" />
    <glyph glyph-name="buildings"
      unicode="&#xEA2D;"
      horiz-adv-x="1000" d="M850.7149999999999 172.89V560.018C850.7149999999999 570.285 846.64 580.132 839.3800000000001 587.392C832.1199999999999 594.6519999999999 822.27 598.7305 812.0050000000001 598.7305H657.155M153.8575 172.89V792.293C153.8575 802.5605 157.936 812.4069999999999 165.196 819.667C172.456 826.927 182.303 831.006 192.57 831.006H618.41C628.675 831.006 638.525 826.927 645.785 819.667C653.045 812.4069999999999 657.12 802.5605 657.12 792.293V172.89M299.0235 667.395H511.9449999999999M299.0235 501.953H511.9449999999999M299.0435 172.89H511.965V339.5550000000001H299.0435V172.89zM889.4399999999999 172.89H115.1855" />
    <glyph glyph-name="calendar-mini"
      unicode="&#xEA2E;"
      horiz-adv-x="1000" d="M325 800V725M675 800V725M200 275V650C200 669.8910000000001 207.902 688.968 221.967 703.033C236.032 717.098 255.109 725 275 725H725C744.89 725 763.97 717.098 778.0350000000001 703.033C792.1 688.968 800 669.8910000000001 800 650V275M200 275C200 255.11 207.902 236.03 221.967 221.9649999999999C236.032 207.9 255.109 200 275 200H725C744.89 200 763.97 207.9 778.0350000000001 221.9649999999999C792.1 236.03 800 255.11 800 275M200 275V525C200 544.891 207.902 563.9680000000001 221.967 578.033C236.032 592.098 255.109 600 275 600H725C744.89 600 763.97 592.098 778.0350000000001 578.033C792.1 563.9680000000001 800 544.891 800 525V275M393.75 456.615C393.75 446.26 385.3555 437.865 375 437.865C364.6445 437.865 356.25 446.26 356.25 456.615C356.25 466.97 364.6445 475.365 375 475.365C385.3555 475.365 393.75 466.97 393.75 456.615zM393.75 340.285C393.75 329.93 385.3555 321.535 375 321.535C364.6445 321.535 356.25 329.93 356.25 340.285C356.25 350.64 364.6445 359.035 375 359.035C385.3555 359.035 393.75 350.64 393.75 340.285zM643.75 456.615C643.75 446.26 635.355 437.865 625 437.865C614.645 437.865 606.25 446.26 606.25 456.615C606.25 466.97 614.645 475.365 625 475.365C635.355 475.365 643.75 466.97 643.75 456.615zM518.75 456.615C518.75 446.26 510.355 437.865 500 437.865C489.6445 437.865 481.25 446.26 481.25 456.615C481.25 466.97 489.6445 475.365 500 475.365C510.355 475.365 518.75 466.97 518.75 456.615zM518.75 340.285C518.75 329.93 510.355 321.535 500 321.535C489.6445 321.535 481.25 329.93 481.25 340.285C481.25 350.64 489.6445 359.035 500 359.035C510.355 359.035 518.75 350.64 518.75 340.285z" />
    <glyph glyph-name="calendar-solid"
      unicode="&#xEA2F;"
      horiz-adv-x="1000" d="M531.25 468.75C531.25 460.4599999999999 527.96 452.515 522.095 446.655C516.235 440.79 508.29 437.5 500 437.5C491.712 437.5 483.7635 440.79 477.903 446.655C472.0425 452.515 468.75 460.4599999999999 468.75 468.75C468.75 477.0400000000001 472.0425 484.985 477.903 490.845C483.7635 496.71 491.712 500 500 500C508.29 500 516.235 496.71 522.095 490.845C527.96 484.985 531.25 477.0400000000001 531.25 468.75zM312.5 343.75C320.788 343.75 328.7365 347.04 334.597 352.905C340.4575 358.765 343.75 366.7099999999999 343.75 375C343.75 383.2900000000001 340.4575 391.235 334.597 397.0950000000001C328.7365 402.9600000000001 320.788 406.25 312.5 406.25C304.212 406.25 296.2635 402.9600000000001 290.403 397.0950000000001C284.5425 391.235 281.25 383.2900000000001 281.25 375C281.25 366.7099999999999 284.5425 358.765 290.403 352.905C296.2635 347.04 304.212 343.75 312.5 343.75zM343.75 281.25C343.75 272.9599999999999 340.4575 265.015 334.597 259.155C328.7365 253.29 320.788 250 312.5 250C304.212 250 296.2635 253.29 290.403 259.155C284.5425 265.015 281.25 272.9599999999999 281.25 281.25C281.25 289.5400000000001 284.5425 297.485 290.403 303.3450000000001C296.2635 309.2100000000001 304.212 312.5 312.5 312.5C320.788 312.5 328.7365 309.2100000000001 334.597 303.3450000000001C340.4575 297.485 343.75 289.5400000000001 343.75 281.25zM406.25 343.75C414.538 343.75 422.4865000000001 347.04 428.3470000000001 352.905C434.2075000000001 358.765 437.5 366.7099999999999 437.5 375C437.5 383.2900000000001 434.2075000000001 391.235 428.3470000000001 397.0950000000001C422.4865000000001 402.9600000000001 414.538 406.25 406.25 406.25C397.962 406.25 390.0135 402.9600000000001 384.153 397.0950000000001C378.2925 391.235 375 383.2900000000001 375 375C375 366.7099999999999 378.2925 358.765 384.153 352.905C390.0135 347.04 397.962 343.75 406.25 343.75zM437.5 281.25C437.5 272.9599999999999 434.2075000000001 265.015 428.3470000000001 259.155C422.4865000000001 253.29 414.538 250 406.25 250C397.962 250 390.0135 253.29 384.153 259.155C378.2925 265.015 375 272.9599999999999 375 281.25C375 289.5400000000001 378.2925 297.485 384.153 303.3450000000001C390.0135 309.2100000000001 397.962 312.5 406.25 312.5C414.538 312.5 422.4865000000001 309.2100000000001 428.3470000000001 303.3450000000001C434.2075000000001 297.485 437.5 289.5400000000001 437.5 281.25zM500 343.75C508.29 343.75 516.235 347.04 522.095 352.905C527.96 358.765 531.25 366.7099999999999 531.25 375C531.25 383.2900000000001 527.96 391.235 522.095 397.0950000000001C516.235 402.9600000000001 508.29 406.25 500 406.25C491.712 406.25 483.7635 402.9600000000001 477.903 397.0950000000001C472.0425 391.235 468.75 383.2900000000001 468.75 375C468.75 366.7099999999999 472.0425 358.765 477.903 352.905C483.7635 347.04 491.712 343.75 500 343.75zM531.25 281.25C531.25 272.9599999999999 527.96 265.015 522.095 259.155C516.235 253.29 508.29 250 500 250C491.712 250 483.7635 253.29 477.903 259.155C472.0425 265.015 468.75 272.9599999999999 468.75 281.25C468.75 289.5400000000001 472.0425 297.485 477.903 303.3450000000001C483.7635 309.2100000000001 491.712 312.5 500 312.5C508.29 312.5 516.235 309.2100000000001 522.095 303.3450000000001C527.96 297.485 531.25 289.5400000000001 531.25 281.25zM593.75 343.75C602.0400000000001 343.75 609.985 347.04 615.845 352.905C621.71 358.765 625 366.7099999999999 625 375C625 383.2900000000001 621.71 391.235 615.845 397.0950000000001C609.985 402.9600000000001 602.0400000000001 406.25 593.75 406.25C585.4599999999999 406.25 577.515 402.9600000000001 571.655 397.0950000000001C565.79 391.235 562.5 383.2900000000001 562.5 375C562.5 366.7099999999999 565.79 358.765 571.655 352.905C577.515 347.04 585.4599999999999 343.75 593.75 343.75zM625 281.25C625 272.9599999999999 621.71 265.015 615.845 259.155C609.985 253.29 602.0400000000001 250 593.75 250C585.4599999999999 250 577.515 253.29 571.655 259.155C565.79 265.015 562.5 272.9599999999999 562.5 281.25C562.5 289.5400000000001 565.79 297.485 571.655 303.3450000000001C577.515 309.2100000000001 585.4599999999999 312.5 593.75 312.5C602.0400000000001 312.5 609.985 309.2100000000001 615.845 303.3450000000001C621.71 297.485 625 289.5400000000001 625 281.25zM687.5 343.75C695.7900000000001 343.75 703.735 347.04 709.595 352.905C715.46 358.765 718.75 366.7099999999999 718.75 375C718.75 383.2900000000001 715.46 391.235 709.595 397.0950000000001C703.735 402.9600000000001 695.7900000000001 406.25 687.5 406.25C679.2099999999999 406.25 671.265 402.9600000000001 665.405 397.0950000000001C659.54 391.235 656.25 383.2900000000001 656.25 375C656.25 366.7099999999999 659.54 358.765 665.405 352.905C671.265 347.04 679.2099999999999 343.75 687.5 343.75zM625 468.75C625 460.4599999999999 621.71 452.515 615.845 446.655C609.985 440.79 602.0400000000001 437.5 593.75 437.5C585.4599999999999 437.5 577.515 440.79 571.655 446.655C565.79 452.515 562.5 460.4599999999999 562.5 468.75C562.5 477.0400000000001 565.79 484.985 571.655 490.845C577.515 496.71 585.4599999999999 500 593.75 500C602.0400000000001 500 609.985 496.71 615.845 490.845C621.71 484.985 625 477.0400000000001 625 468.75zM687.5 437.5C695.7900000000001 437.5 703.735 440.79 709.595 446.655C715.46 452.515 718.75 460.4599999999999 718.75 468.75C718.75 477.0400000000001 715.46 484.985 709.595 490.845C703.735 496.71 695.7900000000001 500 687.5 500C679.2099999999999 500 671.265 496.71 665.405 490.845C659.54 484.985 656.25 477.0400000000001 656.25 468.75C656.25 460.4599999999999 659.54 452.515 665.405 446.655C671.265 440.79 679.2099999999999 437.5 687.5 437.5zM281.25 906.25C289.538 906.25 297.4865 902.9575 303.347 897.097C309.2075 891.2365 312.5 883.288 312.5 875V812.5H687.5V875C687.5 883.288 690.79 891.2365 696.655 897.097C702.515 902.9575 710.4599999999999 906.25 718.75 906.25C727.0400000000001 906.25 734.985 902.9575 740.845 897.097C746.71 891.2365 750 883.288 750 875V812.5H781.25C814.4 812.5 846.1949999999999 799.3305 869.6400000000001 775.8885C893.0799999999999 752.4465 906.25 720.652 906.25 687.5V218.75C906.25 185.6 893.0799999999999 153.8050000000001 869.6400000000001 130.3599999999999C846.1949999999999 106.9200000000001 814.4 93.75 781.25 93.75H218.75C185.598 93.75 153.8035 106.9200000000001 130.3615 130.3599999999999C106.9195 153.8050000000001 93.75 185.6 93.75 218.75V687.5C93.75 720.652 106.9195 752.4465 130.3615 775.8885C153.8035 799.3305 185.598 812.5 218.75 812.5H250V875C250 883.288 253.2925 891.2365 259.153 897.097C265.0135 902.9575 272.962 906.25 281.25 906.25zM843.75 531.25C843.75 547.826 837.1650000000001 563.723 825.445 575.444C813.725 587.165 797.825 593.75 781.25 593.75H218.75C202.174 593.75 186.277 587.165 174.556 575.444C162.835 563.723 156.25 547.826 156.25 531.25V218.75C156.25 202.175 162.835 186.275 174.556 174.555C186.277 162.8349999999999 202.174 156.25 218.75 156.25H781.25C797.825 156.25 813.725 162.8349999999999 825.445 174.555C837.1650000000001 186.275 843.75 202.175 843.75 218.75V531.25z" />
    <glyph glyph-name="calendar"
      unicode="&#xEA30;"
      horiz-adv-x="1000" d="M281.25 875V781.25M718.75 875V781.25M125 218.75V687.5C125 712.364 134.877 736.2094999999999 152.4585 753.7915C170.0405 771.373 193.886 781.25 218.75 781.25H781.25C806.115 781.25 829.96 771.373 847.5400000000001 753.7915C865.1249999999999 736.2094999999999 875 712.364 875 687.5V218.75M125 218.75C125 193.885 134.877 170.04 152.4585 152.4599999999999C170.0405 134.8750000000001 193.886 125 218.75 125H781.25C806.115 125 829.96 134.8750000000001 847.5400000000001 152.4599999999999C865.1249999999999 170.04 875 193.885 875 218.75M125 218.75V531.25C125 556.114 134.877 579.9594999999999 152.4585 597.5415C170.0405 615.123 193.886 625 218.75 625H781.25C806.115 625 829.96 615.123 847.5400000000001 597.5415C865.1249999999999 579.9594999999999 875 556.114 875 531.25V218.75M500 468.75H500.335V468.415H500V468.75zM500 375H500.335V374.665H500V375zM500 281.25H500.335V280.915H500V281.25zM406.25 375H406.5835V374.665H406.25V375zM406.25 281.25H406.5835V280.915H406.25V281.25zM312.5 375H312.8335V374.665H312.5V375zM312.5 281.25H312.8335V280.915H312.5V281.25zM593.75 468.75H594.085V468.415H593.75V468.75zM593.75 375H594.085V374.665H593.75V375zM593.75 281.25H594.085V280.915H593.75V281.25zM687.5 468.75H687.835V468.415H687.5V468.75zM687.5 375H687.835V374.665H687.5V375z" />
    <glyph glyph-name="cash-solid"
      unicode="&#xEA31;"
      horiz-adv-x="1000" d="M50 800C50 813.261 55.268 825.9784999999999 64.6445 835.3555C74.0215 844.732 86.739 850 100 850H900C913.26 850 925.98 844.732 935.355 835.3555C944.73 825.9784999999999 950 813.261 950 800V400C950 386.74 944.73 374.02 935.355 364.645C925.98 355.27 913.26 350 900 350H100C86.739 350 74.0215 355.27 64.6445 364.645C55.268 374.02 50 386.74 50 400V800zM650 600C650 560.2175 634.1949999999999 522.0645 606.0649999999999 493.935C577.935 465.8050000000001 539.78 450 500 450C460.2175 450 422.0645 465.8050000000001 393.9340000000001 493.935C365.8035 522.0645 350 560.2175 350 600C350 639.7825 365.8035 677.9355 393.9340000000001 706.066C422.0645 734.1965 460.2175 750 500 750C539.78 750 577.935 734.1965 606.0649999999999 706.066C634.1949999999999 677.9355 650 639.7825 650 600zM200 550C213.261 550 225.9785 555.268 235.3555 564.6445C244.732 574.0215000000001 250 586.739 250 600C250 613.261 244.732 625.9784999999999 235.3555 635.3555C225.9785 644.732 213.261 650 200 650C186.739 650 174.0215 644.732 164.6445 635.3555C155.268 625.9784999999999 150 613.261 150 600C150 586.739 155.268 574.0215000000001 164.6445 564.6445C174.0215 555.268 186.739 550 200 550zM850 600C850 586.739 844.73 574.0215000000001 835.355 564.6445C825.98 555.268 813.26 550 800 550C786.74 550 774.02 555.268 764.645 564.6445C755.27 574.0215000000001 750 586.739 750 600C750 613.261 755.27 625.9784999999999 764.645 635.3555C774.02 644.732 786.74 650 800 650C813.26 650 825.98 644.732 835.355 635.3555C844.73 625.9784999999999 850 613.261 850 600zM87.5 275C77.5545 275 68.016 271.05 60.9835 264.015C53.951 256.985 50 247.4450000000001 50 237.5C50 227.555 53.951 218.015 60.9835 210.985C68.016 203.9500000000001 77.5545 200 87.5 200C308.35 200 522.15 169.8499999999999 724.95 113.5C780.5 98.05 837.5 139.1 837.5 198.3000000000001V237.5C837.5 247.4450000000001 833.55 256.985 826.515 264.015C819.485 271.05 809.9449999999999 275 800 275C790.055 275 780.515 271.05 773.485 264.015C766.45 256.985 762.5 247.4450000000001 762.5 237.5V198.3000000000001C762.42 196.2249999999999 761.865 194.1950000000001 760.88 192.37C759.895 190.545 758.505 188.9649999999999 756.815 187.7599999999999C755.125 186.5500000000001 753.1850000000001 185.75 751.135 185.4100000000001C749.085 185.0699999999999 746.99 185.2050000000001 745 185.8000000000001C530.885 245.1850000000001 309.6960000000001 275.195 87.5 275z" />
    <glyph glyph-name="cash"
      unicode="&#xEA32;"
      horiz-adv-x="1000" d="M100 251.635C318.8965 251.8150000000001 536.84 222.8300000000001 748.08 165.4400000000001C777.91 157.3199999999999 807.69 179.47 807.69 210.405V251.635M161.5385 836.252V805.4825C161.5385 797.322 158.2965 789.496 152.5265 783.7255C146.756 777.9549999999999 138.9295 774.7135000000001 130.769 774.7135000000001H100M100 774.7135000000001V790.098C100 815.575 120.677 836.252 146.154 836.252H838.46M100 774.7135000000001V405.485M838.46 836.252V805.4825C838.46 788.498 852.2449999999999 774.7135000000001 869.2299999999999 774.7135000000001H900M838.46 836.252H853.8449999999999C879.325 836.252 900 815.575 900 790.098V390.1C900 364.62 879.325 343.945 853.8449999999999 343.945H838.46M100 405.485V390.1C100 377.855 104.8625 366.12 113.518 357.4600000000001C122.1735 348.8050000000001 133.913 343.945 146.154 343.945H161.5385M100 405.485H130.769C138.9295 405.485 146.756 402.24 152.5265 396.4699999999999C158.2965 390.7000000000001 161.5385 382.875 161.5385 374.7150000000001V343.945M838.46 343.945V374.7150000000001C838.46 382.875 841.7049999999999 390.7000000000001 847.475 396.4699999999999C853.2450000000001 402.24 861.0699999999999 405.485 869.2299999999999 405.485H900M838.46 343.945H161.5385M623.0749999999999 590.098C623.0749999999999 557.456 610.11 526.1510000000001 587.03 503.0694999999999C563.945 479.99 532.64 467.02 500 467.02C467.358 467.02 436.053 479.99 412.9715 503.0694999999999C389.89 526.1510000000001 376.923 557.456 376.923 590.098C376.923 622.74 389.89 654.045 412.9715 677.1265000000001C436.053 700.208 467.358 713.175 500 713.175C532.64 713.175 563.945 700.208 587.03 677.1265000000001C610.11 654.045 623.0749999999999 622.74 623.0749999999999 590.098zM746.155 590.098H746.48V589.77H746.155V590.098zM253.846 590.098H254.1745V589.77H253.846V590.098z" />
    <glyph glyph-name="channels-solid"
      unicode="&#xEA33;"
      horiz-adv-x="1000" d="M619.9449999999999 828.1245C635.76 877.086 681.715 912.5 735.9399999999999 912.5C803.2500000000001 912.5 857.815 857.9345000000001 857.815 790.625C857.815 723.3154999999999 803.2500000000001 668.75 735.9399999999999 668.75C681.715 668.75 635.76 704.1635 619.9449999999999 753.1245L557.785 753.124C537.055 753.124 520.285 736.351 520.285 715.624V537.5005L619.9449999999999 537.5C635.76 586.462 681.715 621.876 735.9399999999999 621.876C803.2500000000001 621.876 857.815 567.3104999999999 857.815 500.001C857.815 432.6900000000001 803.2500000000001 378.125 735.9399999999999 378.125C681.715 378.125 635.76 413.54 619.9449999999999 462.5L520.285 462.5V284.375C520.285 263.65 537.055 246.875 557.785 246.875L619.9449999999999 246.875C635.76 295.8400000000001 681.715 331.25 735.9399999999999 331.25C803.2500000000001 331.25 857.815 276.685 857.815 209.375C857.815 142.0650000000001 803.2500000000001 87.5 735.9399999999999 87.5C681.715 87.5 635.76 122.9150000000001 619.9449999999999 171.875L557.785 171.875C495.6369999999999 171.875 445.284 222.225 445.284 284.375V462.5L345.672 462.5C329.8555 413.54 283.901 378.125 229.6755 378.125C162.3655 378.125 107.8005 432.6900000000001 107.8005 500.001C107.8005 567.3104999999999 162.3655 621.876 229.6755 621.876C283.901 621.876 329.8555 586.462 345.672 537.501L445.284 537.5005V715.624C445.284 777.7719999999999 495.636 828.124 557.785 828.124L619.9449999999999 828.1245z" />
    <glyph glyph-name="channels"
      unicode="&#xEA34;"
      horiz-adv-x="1000" d="M735.9399999999999 706.25C782.5350000000001 706.25 820.315 744.026 820.315 790.625C820.315 837.2239999999999 782.5350000000001 875 735.9399999999999 875C689.3399999999999 875 651.5600000000001 837.2239999999999 651.5600000000001 790.625C651.5600000000001 744.026 689.3399999999999 706.25 735.9399999999999 706.25zM735.9399999999999 415.625C782.5350000000001 415.625 820.315 453.4 820.315 500C820.315 546.5989999999999 782.5350000000001 584.375 735.9399999999999 584.375C689.3399999999999 584.375 651.5600000000001 546.5989999999999 651.5600000000001 500C651.5600000000001 453.4 689.3399999999999 415.625 735.9399999999999 415.625zM229.6875 415.625C276.2865 415.625 314.0625 453.4 314.0625 500C314.0625 546.5989999999999 276.2865 584.375 229.6875 584.375C183.0885 584.375 145.3125 546.5989999999999 145.3125 500C145.3125 453.4 183.0885 415.625 229.6875 415.625zM735.9399999999999 125.005C782.5350000000001 125.005 820.315 162.7800000000001 820.315 209.38C820.315 255.975 782.5350000000001 293.755 735.9399999999999 293.755C689.3399999999999 293.755 651.5600000000001 255.975 651.5600000000001 209.38C651.5600000000001 162.7800000000001 689.3399999999999 125.005 735.9399999999999 125.005zM651.54 790.625H557.79C516.35 790.625 482.788 757.0625 482.788 715.625V284.375C482.788 242.9350000000001 516.35 209.375 557.79 209.375H651.54M651.515 500H314.0135" />
    <glyph glyph-name="chat-bubble-left-right-solid"
      unicode="&#xEA35;"
      horiz-adv-x="1000" d="M204.7085 889.25C291.1665000000001 900.5 379.2915 906.25 468.75 906.25C558.2099999999999 906.25 646.335 900.4585 732.79 889.25C812.875 878.8335 869.915 811.7085 874.6650000000001 733.9585C860.735 738.5989999999999 846.3 741.5505 831.665 742.75C714.9250000000001 752.441 597.5749999999999 752.441 480.8335 742.75C382.5835 734.5835 312.5 651.5 312.5 558V379.415C312.4605 345.0950000000001 321.907 311.4250000000001 339.7965000000001 282.13C357.686 252.8400000000001 383.322 229.0600000000001 413.875 213.415L303.3335 102.915C298.963 98.55 293.3975000000001 95.58 287.339 94.375C281.2805 93.175 275.0015 93.7900000000001 269.295 96.1550000000001C263.588 98.5200000000001 258.7095 102.52 255.2755 107.655C251.841 112.7850000000001 250.0055 118.8250000000001 250 125V292.915C234.883 294.525 219.785 296.3 204.7085 298.25C121.0415 309.165 62.5 381.9600000000001 62.5 464.085V723.4165C62.5 805.5 121.0415 878.375 204.7085 889.25zM656.25 687.5C598.9150000000001 687.5 542.125 685.125 486.0000000000001 680.4580000000001C421.8335 675.125 375 620.708 375 557.958V379.415C375 316.625 422 262.165 486.25 256.915C538.04 252.665 590.415 250.375 643.25 250.04L759.165 134.165C763.535 129.8 769.105 126.8300000000001 775.16 125.625C781.22 124.425 787.5 125.0400000000001 793.205 127.4050000000001C798.91 129.7700000000001 803.7900000000001 133.77 807.225 138.905C810.6600000000001 144.0350000000001 812.495 150.0750000000001 812.5 156.25V255.8350000000001L826.2499999999999 256.915C890.4999999999999 262.125 937.5 316.625 937.5 379.415V558C937.5 620.708 890.625 675.125 826.5 680.5C769.87 685.1825 713.07 687.518 656.25 687.5z" />
    <glyph glyph-name="chat-bubble-left-right"
      unicode="&#xEA36;"
      horiz-adv-x="1000" d="M843.75 645.375C880.5849999999999 633.5415 906.25 598.375 906.25 558V379.415C906.25 332.0850000000001 870.96 291.915 823.7500000000001 288.04C809.585 286.9150000000001 795.4150000000001 285.875 781.25 285.04V156.25L656.25 281.25C599.835 281.25 544 283.54 488.75 288.04C476.722 289.015 465.022 292.4450000000001 454.375 298.125M843.75 645.375C837.3100000000001 647.447 830.655 648.7755 823.9150000000001 649.333C712.33 658.5965 600.17 658.5965 488.5835 649.333C441.4585 645.4165 406.25 605.2915 406.25 558V379.415C406.25 344.5400000000001 425.4165000000001 313.5849999999999 454.375 298.125M843.75 645.375V723.4585C843.75 791 795.75 849.5415 728.75 858.25C642.535 869.4255 555.685 875.0205 468.75 875C380.625 875 293.8335 869.2915 208.75 858.25C141.75 849.5415 93.75 791 93.75 723.4585V464.04C93.75 396.5 141.75 337.9600000000001 208.75 329.25C232.7915 326.125 256.9585 323.415 281.25 321.165V125L454.375 298.125" />
    <glyph glyph-name="chat-bubble"
      unicode="&#xEA37;"
      horiz-adv-x="1000" d="M359.375 593.75H343.75M515.625 593.75H500M671.875 593.75H656.25M359.375 593.75C359.375 589.606 357.729 585.6315 354.7985 582.7015C351.8685 579.771 347.894 578.125 343.75 578.125C339.606 578.125 335.6315 579.771 332.7015 582.7015C329.771 585.6315 328.125 589.606 328.125 593.75C328.125 597.894 329.771 601.8679999999999 332.7015 604.7985C335.6315 607.7284999999999 339.606 609.375 343.75 609.375C347.894 609.375 351.8685 607.7284999999999 354.7985 604.7985C357.729 601.8679999999999 359.375 597.894 359.375 593.75V593.75zM515.625 593.75C515.625 589.606 513.98 585.6315 511.05 582.7015C508.12 579.771 504.145 578.125 500 578.125C495.8560000000001 578.125 491.8815 579.771 488.9515 582.7015C486.021 585.6315 484.375 589.606 484.375 593.75C484.375 597.894 486.021 601.8679999999999 488.9515 604.7985C491.8815 607.7284999999999 495.8560000000001 609.375 500 609.375C504.145 609.375 508.12 607.7284999999999 511.05 604.7985C513.98 601.8679999999999 515.625 597.894 515.625 593.75V593.75zM671.875 593.75C671.875 589.606 670.23 585.6315 667.3 582.7015C664.37 579.771 660.395 578.125 656.25 578.125C652.105 578.125 648.13 579.771 645.2 582.7015C642.27 585.6315 640.625 589.606 640.625 593.75C640.625 597.894 642.27 601.8679999999999 645.2 604.7985C648.13 607.7284999999999 652.105 609.375 656.25 609.375C660.395 609.375 664.37 607.7284999999999 667.3 604.7985C670.23 601.8679999999999 671.875 597.894 671.875 593.75V593.75zM93.75 468.335C93.75 401.6650000000001 140.5415 343.5850000000001 206.5415 333.875C251.8335 327.2100000000001 297.5835 322.0850000000001 343.75 318.5V125L518.085 299.29C526.715 307.89 538.32 312.8400000000001 550.5 313.125C631.815 315.125 712.94 322.0550000000001 793.415 333.875C859.46 343.5850000000001 906.25 401.625 906.25 468.375V719.125C906.25 785.875 859.46 843.9165 793.4599999999999 853.625C696.2900000000001 867.887 598.21 875.031 500 875C400.3335 875 302.3335 867.708 206.5415 853.625C140.5415 843.9165 93.75 785.833 93.75 719.125V468.375V468.335z" />
    <glyph glyph-name="check-circle-mini-solid"
      unicode="&#xEA38;"
      horiz-adv-x="1000" d="M500 200C665.6850000000001 200 800 334.315 800 500C800 665.6855 665.6850000000001 800 500 800C334.3145 800 200 665.6855 200 500C200 334.315 334.3145 200 500 200zM661.76 596.6975C673.245 613.9300000000001 668.59 637.2125 651.355 648.7004999999999C634.125 660.1890000000001 610.845 655.5325 599.355 638.3L468.0615 441.36L395.9625 513.46C381.3175 528.1044999999999 357.574 528.1044999999999 342.9295 513.46C328.2845 498.815 328.2845 475.0700000000001 342.9295 460.4250000000001L447.3735 355.985C455.3175000000001 348.0400000000001 466.405 344.0750000000001 477.585 345.1800000000001C488.765 346.2900000000001 498.86 352.35 505.09 361.7000000000001L661.76 596.6975z" />
    <glyph glyph-name="check-circle-solid"
      unicode="&#xEA39;"
      horiz-adv-x="1000" d="M500 100C606.085 100 707.8299999999999 142.145 782.845 217.155C857.855 292.1700000000001 900 393.915 900 500C900 606.0865 857.855 707.828 782.845 782.8425C707.8299999999999 857.8575000000001 606.085 900 500 900C393.9135 900 292.1720000000001 857.8575000000001 217.1575 782.8425C142.1425 707.828 100 606.0865 100 500C100 393.915 142.1425 292.1700000000001 217.1575 217.155C292.1720000000001 142.145 393.9135 100 500 100V100zM692.8499999999999 590.45C695.745 594.4355 697.83 598.9525000000001 698.98 603.7429999999999C700.13 608.5335 700.325 613.5029999999999 699.55 618.3689999999999C698.78 623.2349999999999 697.0600000000001 627.9010000000001 694.485 632.1015C691.9100000000001 636.302 688.535 639.9545 684.5500000000001 642.85C680.565 645.7455 676.045 647.828 671.255 648.9780000000001C666.465 650.1279999999999 661.495 650.323 656.63 649.5525C651.765 648.7815 647.1 647.06 642.9 644.486C638.6999999999999 641.912 635.0450000000001 638.5355 632.1500000000001 634.55L458 395.05L364 489.05C360.539 492.6300000000001 356.4 495.485 351.8235 497.45C347.2475 499.41 342.3265 500.443 337.3470000000001 500.484C332.368 500.525 327.4305 499.575 322.823 497.685C318.2150000000001 495.8 314.0295 493.01 310.51 489.49C306.991 485.965 304.2085 481.78 302.325 477.17C300.4415 472.5599999999999 299.495 467.62 299.5405 462.64C299.5865 457.665 300.623 452.745 302.5905 448.17C304.558 443.5950000000001 307.4170000000001 439.4599999999999 311 436L436.0000000000001 311C439.8315 307.165 444.4480000000001 304.2099999999999 449.5325000000001 302.3300000000001C454.6165 300.4550000000001 460.047 299.7000000000001 465.4505 300.125C470.854 300.545 476.1015 302.135 480.8315 304.78C485.5615 307.4250000000001 489.662 311.065 492.85 315.45L692.8499999999999 590.45z" />
    <glyph glyph-name="check-mini"
      unicode="&#xEA3A;"
      horiz-adv-x="1000" d="M291.675 479.165L458.3414999999999 312.5L708.34 687.5" />
    <glyph glyph-name="check"
      unicode="&#xEA3B;"
      horiz-adv-x="1000" d="M187.5 468.75L437.5 218.75L812.5 781.25" />
    <glyph glyph-name="chevron-double-left-mini-solid"
      unicode="&#xEA3C;"
      horiz-adv-x="1000" d="M789.5 261.5C782.605 254.3450000000001 773.145 250.2150000000001 763.2049999999999 250.03C753.27 249.8400000000001 743.665 253.61 736.5 260.5L511.5 473C507.8700000000001 476.5 504.985 480.6899999999999 503.01 485.33C501.04 489.97 500.025 494.96 500.025 500C500.025 505.0405 501.04 510.0295 503.01 514.6685C504.985 519.3075 507.8700000000001 523.5015 511.5 526.9994999999999L736.5 739.4995C740.01 743.087 744.205 745.9335 748.8349999999999 747.87C753.465 749.807 758.435 750.7945 763.455 750.775C768.475 750.755 773.4350000000001 749.7280000000001 778.05 747.7545C782.665 745.7815 786.835 742.902 790.32 739.2864999999999C793.8 735.6714999999999 796.52 731.3945 798.315 726.7090000000001C800.1150000000001 722.0235 800.955 717.0245 800.785 712.009C800.615 706.9929999999999 799.4399999999999 702.0625 797.33 697.5085C795.22 692.9549999999999 792.22 688.8715 788.5 685.4995L591.6 500L788.5 314.5C795.655 307.5999999999999 799.785 298.145 799.97 288.205C800.16 278.27 796.39 268.665 789.5 261.5V261.5zM489.5005 261.5C482.6025 254.3450000000001 473.1455 250.2150000000001 463.2075 250.03C453.2695000000001 249.8400000000001 443.6635 253.61 436.5005 260.5L211.5005 473C207.871 476.5 204.984 480.6899999999999 203.0125 485.33C201.0405 489.97 200.0245 494.96 200.0245 500C200.0245 505.0405 201.0405 510.0295 203.0125 514.6685C204.984 519.3075 207.871 523.5015 211.5005 526.9994999999999L436.5005 739.4995C440.01 743.087 444.2040000000001 745.9335 448.834 747.87C453.4639999999999 749.807 458.4355 750.7945 463.454 750.775C468.4725 750.755 473.4365 749.7280000000001 478.0509999999999 747.7545C482.665 745.7815 486.8365 742.902 490.3175 739.2864999999999C493.799 735.6714999999999 496.519 731.3945 498.317 726.7090000000001C500.115 722.0235 500.955 717.0245 500.785 712.009C500.615 706.9929999999999 499.4405 702.0625 497.33 697.5085C495.22 692.9549999999999 492.2175 688.8715 488.5005 685.4995L291.6005 500L488.5005 314.5C495.657 307.5999999999999 499.7825 298.145 499.97 288.205C500.16 278.27 496.392 268.665 489.5005 261.5V261.5z" />
    <glyph glyph-name="chevron-double-left"
      unicode="&#xEA3D;"
      horiz-adv-x="1000" d="M781.25 187.5L468.75 500L781.25 812.5M531.25 187.5L218.75 500L531.25 812.5" />
    <glyph glyph-name="chevron-double-right-mini-solid"
      unicode="&#xEA3E;"
      horiz-adv-x="1000" d="M510.5000000000001 261.5C503.61 268.665 499.8425 278.27 500.03 288.205C500.215 298.145 504.345 307.5999999999999 511.5 314.5L708.4 500L511.5 685.4995C507.78 688.8715 504.78 692.9549999999999 502.67 697.5085C500.56 702.0625 499.385 706.9929999999999 499.2155 712.009C499.0465 717.0245 499.8855 722.0235 501.685 726.7090000000001C503.48 731.3945 506.2 735.6714999999999 509.68 739.2864999999999C513.165 742.902 517.335 745.7815 521.95 747.7545C526.5649999999999 749.7280000000001 531.525 750.755 536.545 750.775C541.565 750.7945 546.535 749.807 551.1650000000001 747.87C555.795 745.9335 559.99 743.087 563.5 739.4995L788.5 526.9994999999999C792.13 523.5015 795.015 519.3075 796.99 514.6685C798.96 510.0295 799.975 505.0405 799.975 500C799.975 494.96 798.96 489.97 796.99 485.33C795.015 480.6899999999999 792.13 476.5 788.5 473L563.5 260.5C556.335 253.61 546.73 249.8400000000001 536.7950000000001 250.03C526.855 250.2150000000001 517.4000000000001 254.3450000000001 510.5000000000001 261.5V261.5zM210.4995 261.5C203.608 268.665 199.8425 278.27 200.03 288.205C200.2175 298.145 204.343 307.5999999999999 211.4995 314.5L408.3995 500L211.4995 685.4995C207.7825 688.8715 204.78 692.9549999999999 202.67 697.5085C200.56 702.0625 199.385 706.9929999999999 199.2155 712.009C199.0465 717.0245 199.8855 722.0235 201.683 726.7090000000001C203.481 731.3945 206.201 735.6714999999999 209.6825 739.2864999999999C213.1635 742.902 217.335 745.7815 221.9495 747.7545C226.5635 749.7280000000001 231.5275000000001 750.755 236.546 750.775C241.5645 750.7945 246.536 749.807 251.166 747.87C255.796 745.9335 259.99 743.087 263.4995 739.4995L488.4995 526.9994999999999C492.129 523.5015 495.016 519.3075 496.9875 514.6685C498.9594999999999 510.0295 499.9755 505.0405 499.9755 500C499.9755 494.96 498.9594999999999 489.97 496.9875 485.33C495.016 480.6899999999999 492.129 476.5 488.4995 473L263.4995 260.5C256.3365 253.61 246.731 249.8400000000001 236.7925 250.03C226.8545 250.2150000000001 217.3975 254.3450000000001 210.4995 261.5V261.5z" />
    <glyph glyph-name="chevron-double-right"
      unicode="&#xEA3F;"
      horiz-adv-x="1000" d="M468.75 812.5L781.25 500L468.75 187.5M218.75 812.5L531.25 500L218.75 187.5" />
    <glyph glyph-name="chevron-down-mini"
      unicode="&#xEA40;"
      horiz-adv-x="1000" d="M750 600L500 350L250 600" />
    <glyph glyph-name="chevron-down"
      unicode="&#xEA41;"
      horiz-adv-x="1000" d="M812.5 656.25L500 343.75L187.5 656.25" />
    <glyph glyph-name="chevron-left-mini"
      unicode="&#xEA42;"
      horiz-adv-x="1000" d="M600 300L400 500L600 700" />
    <glyph glyph-name="chevron-left"
      unicode="&#xEA43;"
      horiz-adv-x="1000" d="M656.25 187.5L343.75 500L656.25 812.5" />
    <glyph glyph-name="chevron-right-mini"
      unicode="&#xEA44;"
      horiz-adv-x="1000" d="M400 700L600 500L400 300" />
    <glyph glyph-name="chevron-right"
      unicode="&#xEA45;"
      horiz-adv-x="1000" d="M343.75 812.5L656.25 500L343.75 187.5" />
    <glyph glyph-name="chevron-up-down"
      unicode="&#xEA46;"
      horiz-adv-x="1000" d="M300 362.5L487.5 175L675 362.5M300 662.5L487.5 850L675 662.5" />
    <glyph glyph-name="chevron-up-mini"
      unicode="&#xEA47;"
      horiz-adv-x="1000" d="M750 400L500 650L250 400" />
    <glyph glyph-name="circle-dotted-line"
      unicode="&#xEA48;"
      horiz-adv-x="1000" d="M625 853.2055C544.2 882.265 455.8 882.265 375 853.2055M131.5185 568.3995C147.1415 652.7629999999999 191.2805 729.1955 256.541 784.894M256.541 215.105C191.2815 270.8050000000001 147.143 347.24 131.5185 431.605M375 146.795C455.8 117.735 544.2 117.735 625 146.795M868.4799999999999 568.3995C852.8549999999999 652.7629999999999 808.7199999999999 729.1955 743.4549999999999 784.894M743.4549999999999 215.105C808.7149999999999 270.8050000000001 852.8549999999999 347.24 868.4799999999999 431.605" />
    <glyph glyph-name="circle-filled-solid"
      unicode="&#xEA49;"
      horiz-adv-x="1000" d="M137.5 500A362.5 362.5 0 0 1 862.5 500A362.5 362.5 0 0 1 137.5 500M250 500A250 250 0 0 1 750 500A250 250 0 0 1 250 500" />
    <glyph glyph-name="circle-half-solid"
      unicode="&#xEA4A;"
      horiz-adv-x="1000" d="M137.5 500A362.5 362.5 0 0 1 862.5 500A362.5 362.5 0 0 1 137.5 500M500 250C638.07 250 750 361.93 750 500C750 638.071 638.07 750 500 750V250z" />
    <glyph glyph-name="circle-mini-filled-solid"
      unicode="&#xEA4B;"
      horiz-adv-x="1000" d="M237.5 500A262.5 262.5 0 0 1 762.5 500A262.5 262.5 0 0 1 237.5 500M350 500A150 150 0 0 1 650 500A150 150 0 0 1 350 500" />
    <glyph glyph-name="circle-mini-solid"
      unicode="&#xEA4C;"
      horiz-adv-x="1000" d="M237.5 500A262.5 262.5 0 0 1 762.5 500A262.5 262.5 0 0 1 237.5 500" />
    <glyph glyph-name="circle-quarter-solid"
      unicode="&#xEA4D;"
      horiz-adv-x="1000" d="M137.5 500A362.5 362.5 0 0 1 862.5 500A362.5 362.5 0 0 1 137.5 500M750 500C750 638.071 638.07 750 500 750V500H750z" />
    <glyph glyph-name="circle-solid"
      unicode="&#xEA4E;"
      horiz-adv-x="1000" d="M137.5 500A362.5 362.5 0 0 1 862.5 500A362.5 362.5 0 0 1 137.5 500" />
    <glyph glyph-name="circle-stack-solid"
      unicode="&#xEA4F;"
      horiz-adv-x="1000" d="M875 734.375C875 622.2085 707.085 531.25 500 531.25C292.9165 531.25 125 622.2085 125 734.375C125 846.5415 292.9165 937.5 500 937.5C707.085 937.5 875 846.5415 875 734.375zM500 468.75C611.875 468.75 716.25 493.165 794.9150000000001 535.7905C823.87 551.1614999999999 850.4849999999999 570.5785 873.9599999999999 593.457C874.625 588.4155 875 583.2905000000001 875 578.1234999999999C875 465.955 707.085 375 500 375C292.9165 375 125 465.955 125 578.1234999999999C125 583.2905000000001 125.375 588.4155 126.0415 593.457C149.5175 570.5795 176.132 551.1625 205.0835 535.7905C283.7085 493.165 388.125 468.75 500 468.75zM500 312.5C611.875 312.5 716.25 336.9150000000001 794.9150000000001 379.54C823.87 394.91 850.4849999999999 414.3300000000001 873.9599999999999 437.205C874.625 432.165 875 427.0400000000001 875 421.875C875 309.7050000000001 707.085 218.75 500 218.75C292.9165 218.75 125 309.7050000000001 125 421.875C125 427.0400000000001 125.375 432.165 126.0415 437.205C149.517 414.3300000000001 176.1315 394.91 205.0835 379.54C283.7085 336.9150000000001 388.125 312.5 500 312.5zM500 156.25C611.875 156.25 716.25 180.665 794.9150000000001 223.29C823.87 238.66 850.4849999999999 258.0800000000001 873.9599999999999 280.955C874.625 275.915 875 270.7900000000001 875 265.625C875 153.4549999999999 707.085 62.5 500 62.5C292.9165 62.5 125 153.4549999999999 125 265.625C125 270.7900000000001 125.375 275.915 126.0415 280.955C149.517 258.0800000000001 176.1315 238.66 205.0835 223.29C283.7085 180.665 388.125 156.25 500 156.25z" />
    <glyph glyph-name="circle-stack"
      unicode="&#xEA50;"
      horiz-adv-x="1000" d="M843.75 734.375C843.75 639.4585 689.8349999999999 562.5 500 562.5C310.1665 562.5 156.25 639.4585 156.25 734.375M843.75 734.375C843.75 829.2915 689.8349999999999 906.25 500 906.25C310.1665 906.25 156.25 829.2915 156.25 734.375M843.75 734.375V265.625C843.75 170.71 689.8349999999999 93.75 500 93.75C310.1665 93.75 156.25 170.71 156.25 265.625V734.375M843.75 734.375V578.125M156.25 734.375V578.125M843.75 578.125V421.875C843.75 326.9599999999999 689.8349999999999 250 500 250C310.1665 250 156.25 326.9599999999999 156.25 421.875V578.125M843.75 578.125C843.75 483.2099999999999 689.8349999999999 406.25 500 406.25C310.1665 406.25 156.25 483.2099999999999 156.25 578.125" />
    <glyph glyph-name="circle-three-quarters-solid"
      unicode="&#xEA51;"
      horiz-adv-x="1000" d="M137.5 500A362.5 362.5 0 0 1 862.5 500A362.5 362.5 0 0 1 137.5 500M500 250C638.07 250 750 361.93 750 500C750 638.071 638.07 750 500 750V500H250C250 363.0750000000001 365.492 250 500 250z" />
    <glyph glyph-name="clock-changed-solid-mini"
      unicode="&#xEA52;"
      horiz-adv-x="1000" d="M200 500C200 665.6855 334.3145 800 500 800C665.6850000000001 800 800 665.6855 800 500C800 334.315 665.6850000000001 200 500 200C334.3145 200 200 334.315 200 500zM477.1155 519.295C486.3315 526.3945 498.321 528.8145 509.57 525.846L659.5699999999999 486.26C679.595 480.975 691.545 460.4549999999999 686.26 440.4300000000001C680.975 420.405 660.4549999999999 408.4550000000001 640.4300000000001 413.74L537.5 440.905V325C537.5 304.2900000000001 520.7099999999999 287.5 500 287.5C479.2895 287.5 462.5 304.2900000000001 462.5 325V489.585C462.5 501.2209999999999 467.8994999999999 512.1955 477.1155 519.295z" />
    <glyph glyph-name="clock-solid-mini"
      unicode="&#xEA53;"
      horiz-adv-x="1000" d="M200 500C200 665.6855 334.3145 800 500 800C665.6850000000001 800 800 665.6855 800 500C800 334.315 665.6850000000001 200 500 200C334.3145 200 200 334.315 200 500zM500 712.5C520.7099999999999 712.5 537.5 695.7104999999999 537.5 675V518.4745L659.5699999999999 486.26C679.595 480.975 691.545 460.4549999999999 686.26 440.4300000000001C680.975 420.405 660.4549999999999 408.4550000000001 640.4300000000001 413.74L490.431 453.3299999999999C473.9690000000001 457.675 462.5 472.5599999999999 462.5 489.585V675C462.5 695.7104999999999 479.2895 712.5 500 712.5z" />
    <glyph glyph-name="clock-solid"
      unicode="&#xEA54;"
      horiz-adv-x="1000" d="M87.5 500C87.5 727.8175 272.1825 912.5 500 912.5C727.815 912.5 912.5 727.8175 912.5 500C912.5 272.185 727.815 87.5 500 87.5C272.1825 87.5 87.5 272.185 87.5 500zM500 745.8375000000001C520.7099999999999 745.8375000000001 537.5 729.048 537.5 708.3375000000001V511.1265L643.895 449.06C661.785 438.625 667.825 415.665 657.39 397.7750000000001C646.955 379.885 623.995 373.8450000000001 606.105 384.2800000000001L481.105 457.1950000000001C469.5839999999999 463.915 462.5 476.25 462.5 489.585V708.3375000000001C462.5 729.048 479.2895 745.8375000000001 500 745.8375000000001z" />
    <glyph glyph-name="clock"
      unicode="&#xEA55;"
      horiz-adv-x="1000" d="M500 125C707.105 125 875 292.895 875 500C875 707.107 707.105 875 500 875C292.893 875 125 707.107 125 500C125 292.895 292.893 125 500 125zM500 708.3389999999999V489.59L625 416.67" />
    <glyph glyph-name="cloud-arrow-down"
      unicode="&#xEA56;"
      horiz-adv-x="1000" d="M500.01 593.7470000000001V312.495M500.01 312.495L375.0085 437.495M500.01 312.495L625.01 437.495M281.2585 187.495C236.6515000000001 187.4499999999999 193.4885 203.3050000000001 159.521 232.2199999999999C125.5535 261.13 103.0065 301.2100000000001 95.93 345.25C88.853 389.29 97.7095 434.415 120.9095 472.515C144.109 510.6135 180.132 539.1935000000001 222.5085 553.1220000000001C211.621 608.9065 222.8735 666.7384999999999 253.883 714.3715C284.8925 762.004 333.224 795.6975 388.6425 808.316C444.0610000000001 820.9345 502.215 811.4875 550.7900000000001 781.9755C599.365 752.464 634.545 705.2045 648.885 650.2055C671.05 657.4145000000001 694.79 658.2819999999999 717.425 652.7094999999999C740.06 647.137 760.685 635.347 776.97 618.6705C793.26 601.994 804.5550000000001 581.096 809.59 558.336C814.63 535.5765 813.1999999999999 511.8625 805.465 489.87C839.5749999999999 476.8449999999999 868.0500000000001 452.285 885.95 420.4600000000001C903.845 388.63 910.04 351.5450000000001 903.45 315.63C896.865 279.7100000000001 877.915 247.235 849.8849999999999 223.8299999999999C821.86 200.43 786.525 187.5750000000001 750.01 187.495H281.2585z" />
    <glyph glyph-name="cloud-arrow-up"
      unicode="&#xEA57;"
      horiz-adv-x="1000" d="M499.9965 312.5V593.7505M499.9965 593.7505L624.995 468.75M499.9965 593.7505L374.9965000000001 468.75M281.2465000000001 187.5C236.6395 187.4499999999999 193.4765 203.3100000000001 159.509 232.2199999999999C125.541 261.135 102.9945 301.2100000000001 95.9175 345.255C88.8405 389.295 97.6975 434.42 120.897 472.52C144.097 510.617 180.1195 539.1969999999999 222.4965 553.1255C211.609 608.9100000000001 222.8615 666.742 253.8705 714.375C284.88 762.0074999999999 333.2115 795.7005 388.6305 808.319C444.049 820.938 502.205 811.491 550.78 781.979C599.355 752.4675 634.535 705.2080000000001 648.87 650.2090000000001C671.04 657.418 694.78 658.2855 717.415 652.713C740.05 647.1405 760.675 635.3505 776.9599999999999 618.674C793.245 601.9975 804.5450000000001 581.099 809.58 558.3395C814.615 535.58 813.185 511.866 805.455 489.875C839.5649999999999 476.8449999999999 868.0400000000001 452.29 885.935 420.4600000000001C903.835 388.635 910.025 351.5450000000001 903.44 315.63C896.85 279.7150000000001 877.9 247.24 849.8749999999999 223.8349999999999C821.845 200.43 786.51 187.5750000000001 749.995 187.5H281.2465000000001z" />
    <glyph glyph-name="cog-six-tooth-solid"
      unicode="&#xEA58;"
      horiz-adv-x="1000" d="M461.5805 906.25C423.3725 906.25 390.789 878.625 384.4975 840.9585L377.0805000000001 796.2915C376.2475 791.2915 372.289 785.4585 364.7055 781.7915C350.4285 774.9285 336.6945 766.989 323.6225 758.0415C316.7055 753.25 309.7055000000001 752.7915 304.8725 754.5835L262.4975 770.5C245.174 776.99 226.1095 777.1225 208.698 770.8734999999999C191.286 764.6245 176.657 752.3995 167.414 736.375L128.9975 669.8335C119.751 653.8185 116.4855 635.0425 119.7815 616.8465C123.0775 598.6500000000001 132.721 582.2125 146.9975 570.4585L181.9975 541.625C185.9555 538.375 189.0805 532.0835 188.414 523.7085000000001C187.2265 507.911 187.2265 492.045 188.414 476.25C189.039 467.915 185.9555 461.585 182.039 458.335L146.9975 429.5C132.721 417.745 123.0775 401.31 119.7815 383.11C116.4855 364.915 119.751 346.14 128.9975 330.125L167.414 263.5849999999999C176.6635 247.565 191.2955 235.35 208.7065 229.11C226.118 222.87 245.1785 223.005 262.4975 229.5L304.9555 245.4150000000001C309.7475 247.2100000000001 316.7475 246.7100000000001 323.7055 242C336.7055000000001 233.0850000000001 350.414 225.125 364.7475 218.25C372.3305 214.585 376.289 208.75 377.1225 203.665L384.539 159.0400000000001C390.8305 121.3749999999999 423.414 93.75 461.6225 93.75H538.455C576.62 93.75 609.245 121.3749999999999 615.54 159.0400000000001L622.9549999999999 203.7099999999999C623.79 208.71 627.705 214.5400000000001 635.33 218.25C649.665 225.125 663.37 233.0850000000001 676.37 242C683.33 246.75 690.3299999999999 247.2100000000001 695.12 245.4150000000001L737.62 229.5C754.935 223.03 773.98 222.91 791.375 229.16C808.765 235.405 823.38 247.62 832.62 263.625L871.08 330.1650000000001C880.325 346.1800000000001 883.59 364.955 880.295 383.155C877 401.3499999999999 867.355 417.7850000000001 853.0799999999999 429.54L818.0799999999999 458.375C814.12 461.625 810.995 467.915 811.665 476.29C812.85 492.09 812.85 507.9525 811.665 523.75C810.995 532.0835 814.12 538.4165 818.0400000000001 541.6665L853.04 570.5C882.54 594.75 890.165 636.75 871.08 669.875L832.6650000000001 736.4165C823.415 752.434 808.78 764.65 791.37 770.891C773.96 777.1324999999999 754.9000000000001 776.9935 737.58 770.5L695.08 754.5835C690.3299999999999 752.7915 683.33 753.2915 676.37 758.0415C663.3149999999999 766.9875 649.5949999999999 774.9275 635.33 781.7915C627.705 785.4165 623.79 791.25 622.9549999999999 796.2915L615.495 840.9585C612.46 859.2055 603.045 875.7825 588.9300000000001 887.739C574.8149999999999 899.6949999999999 556.91 906.2545 538.415 906.25H461.6225H461.5805zM499.997 343.75C541.435 343.75 581.18 360.2100000000001 610.485 389.515C639.785 418.8150000000001 656.245 458.5600000000001 656.245 500C656.245 541.4399999999999 639.785 581.183 610.485 610.4855C581.18 639.788 541.435 656.25 499.997 656.25C458.557 656.25 418.8145 639.788 389.512 610.4855C360.2095 581.183 343.7475 541.4399999999999 343.7475 500C343.7475 458.5600000000001 360.2095 418.8150000000001 389.512 389.515C418.8145 360.2100000000001 458.557 343.75 499.997 343.75z" />
    <glyph glyph-name="cog-six-tooth"
      unicode="&#xEA59;"
      horiz-adv-x="1000" d="M399.7545 835.8335C403.5045 858.4165 423.088 875 446.0045 875H554.045C576.965 875 596.545 858.4165 600.2950000000001 835.8335L609.1700000000001 782.4585C611.7950000000001 766.875 622.215 753.875 636.0450000000001 746.2085C639.13 744.5415 642.1700000000001 742.75 645.2149999999999 740.9165C658.715 732.75 675.215 730.2085 690.005 735.75L740.7149999999999 754.75C751.105 758.658 762.545 758.751 773 755.0120000000001C783.455 751.273 792.24 743.9449999999999 797.795 734.3335L851.7950000000001 640.7085C857.3399999999999 631.0955 859.295 619.828 857.3100000000001 608.9100000000001C855.325 597.9915000000001 849.535 588.1315 840.9649999999999 581.0835L799.17 546.625C786.965 536.625 780.92 521.0835 781.215 505.2915C781.28 501.7505 781.28 498.21 781.215 494.665C780.92 478.9150000000001 786.965 463.415 799.13 453.4150000000001L841.005 418.915C858.6700000000001 404.3350000000001 863.255 379.165 851.8399999999999 359.3350000000001L797.755 265.7100000000001C792.2049999999999 256.1 783.43 248.77 772.985 245.02C762.54 241.275 751.105 241.355 740.7149999999999 245.25L690.005 264.25C675.215 269.79 658.755 267.25 645.17 259.0849999999999C642.15 257.245 639.095 255.4700000000001 636.005 253.75C622.215 246.125 611.7950000000001 233.125 609.1700000000001 217.54L600.2950000000001 164.2099999999999C596.545 141.585 576.965 125 554.045 125H445.963C423.046 125 403.463 141.585 399.713 164.1650000000001L390.838 217.54C388.2545 233.125 377.838 246.125 364.0045 253.79C360.915 255.495 357.8585 257.26 354.838 259.0849999999999C341.296 267.25 324.838 269.79 310.0045 264.25L259.296 245.25C248.91 241.355 237.478 241.265 227.0335000000001 245.005C216.589 248.745 207.809 256.065 202.2545 265.665L148.213 359.29C142.669 368.905 140.715 380.1700000000001 142.6985 391.0900000000001C144.682 402.01 150.475 411.87 159.046 418.915L200.8795 453.375C213.046 463.375 219.088 478.9150000000001 218.796 494.71C218.731 498.25 218.731 501.792 218.796 505.3335C219.088 521.0835 213.046 536.5835 200.8795 546.5835L159.046 581.0835C150.4855 588.1295 144.6995 597.982 142.716 608.8905C140.7325 619.7995000000001 142.68 631.058 148.213 640.6665L202.2545 734.2915C207.804 743.9110000000001 216.5885 751.2475 227.0425 754.9945C237.4965 758.741 248.9415 758.6545 259.338 754.75L310.0045 735.75C324.838 730.2085 341.296 732.75 354.838 740.9165C357.838 742.75 360.921 744.5415 364.0045 746.25C377.838 753.875 388.2545 766.875 390.838 782.4585L399.7545 835.8335V835.8335zM625 500C625 466.85 611.8299999999999 435.0550000000001 588.39 411.61C564.9449999999999 388.1700000000001 533.15 375 500 375C466.848 375 435.0535 388.1700000000001 411.6115 411.61C388.1695000000001 435.0550000000001 375 466.85 375 500C375 533.152 388.1695000000001 564.9465 411.6115 588.3885C435.0535 611.8305 466.848 625 500 625C533.15 625 564.9449999999999 611.8305 588.39 588.3885C611.8299999999999 564.9465 625 533.152 625 500V500z" />
    <glyph glyph-name="command-line-solid"
      unicode="&#xEA5A;"
      horiz-adv-x="1000" d="M93.75 750C93.75 783.152 106.9195 814.9465 130.3615 838.3885C153.8035 861.8305 185.598 875 218.75 875H781.25C814.4 875 846.1949999999999 861.8305 869.6400000000001 838.3885C893.0799999999999 814.9465 906.25 783.152 906.25 750V250C906.25 216.85 893.0799999999999 185.0550000000001 869.6400000000001 161.6099999999999C846.1949999999999 138.1700000000001 814.4 125 781.25 125H218.75C185.598 125 153.8035 138.1700000000001 130.3615 161.6099999999999C106.9195 185.0550000000001 93.75 216.85 93.75 250V750zM259.1665 709.5835C265.026 715.4355 272.9685 718.7225000000001 281.25 718.7225000000001C289.5315 718.7225000000001 297.474 715.4355 303.3335 709.5835L397.0835 615.8335C402.9355 609.9739999999999 406.2225 602.0315 406.2225 593.75C406.2225 585.4685 402.9355 577.5260000000001 397.0835 571.6665L303.3335 477.915C297.4095000000001 472.395 289.574 469.39 281.478 469.5350000000001C273.3825 469.675 265.658 472.9549999999999 259.9325 478.6800000000001C254.207 484.41 250.927 492.1299999999999 250.7845 500.2284999999999C250.6415 508.324 253.6465000000001 516.1595 259.1665 522.0835L330.8335 593.75L259.1665 665.4165C253.3145 671.2760000000001 250.0275 679.2185 250.0275 687.5C250.0275 695.7815 253.3145 703.7239999999999 259.1665 709.5835zM437.5 531.25C429.212 531.25 421.2635 527.9575 415.403 522.097C409.5425 516.2365 406.25 508.288 406.25 500C406.25 491.71 409.5425 483.765 415.403 477.905C421.2635 472.04 429.212 468.75 437.5 468.75H562.5C570.7900000000001 468.75 578.735 472.04 584.595 477.905C590.46 483.765 593.75 491.71 593.75 500C593.75 508.288 590.46 516.2365 584.595 522.097C578.735 527.9575 570.7900000000001 531.25 562.5 531.25H437.5z" />
    <glyph glyph-name="command-line"
      unicode="&#xEA5B;"
      horiz-adv-x="1000" d="M281.25 687.5L406.25 593.75L281.25 500M468.75 500H593.75M218.75 156.25H781.25C806.115 156.25 829.96 166.1250000000001 847.5400000000001 183.7099999999999C865.1249999999999 201.29 875 225.135 875 250V750C875 774.864 865.1249999999999 798.7094999999999 847.5400000000001 816.2915C829.96 833.873 806.115 843.75 781.25 843.75H218.75C193.886 843.75 170.0405 833.873 152.4585 816.2915C134.877 798.7094999999999 125 774.864 125 750V250C125 225.135 134.877 201.29 152.4585 183.7099999999999C170.0405 166.1250000000001 193.886 156.25 218.75 156.25z" />
    <glyph glyph-name="component-solid"
      unicode="&#xEA5C;"
      horiz-adv-x="1000" d="M256.25 631.2455L387.5 499.995L256.25 368.745L125 499.995L256.25 631.2455zM499.988 875L631.24 743.75L499.988 612.5L368.738 743.75L499.988 875zM743.76 631.2455L875.01 499.995L743.76 368.745L612.51 499.995L743.76 631.2455zM499.988 387.5L631.24 256.25L499.988 125L368.738 256.25L499.988 387.5z" />
    <glyph glyph-name="component"
      unicode="&#xEA5D;"
      horiz-adv-x="1000" d="M256.25 631.2455L387.5 499.995L256.25 368.745L125 499.995L256.25 631.2455zM499.988 875L631.24 743.75L499.988 612.5L368.738 743.75L499.988 875zM743.76 631.2455L875.01 499.995L743.76 368.745L612.51 499.995L743.76 631.2455zM499.988 387.5L631.24 256.25L499.988 125L368.738 256.25L499.988 387.5z" />
    <glyph glyph-name="computer-desktop-solid"
      unicode="&#xEA5E;"
      horiz-adv-x="1000" d="M100 787.5C100 817.337 111.8525 845.9515 132.9505 867.0495C154.0485 888.1475 182.663 900 212.5 900H787.5C817.3349999999999 900 845.95 888.1475 867.0500000000001 867.0495C888.1449999999999 845.9515 900 817.337 900 787.5V362.5C900 332.665 888.1449999999999 304.05 867.0500000000001 282.9500000000001C845.95 261.855 817.3349999999999 250 787.5 250H632.25C642.015 217.2850000000001 661.13 188.1399999999999 687.25 166.15C693.125 161.1900000000001 697.335 154.5400000000001 699.3050000000001 147.105C701.275 139.6750000000001 700.91 131.815 698.265 124.595C695.615 117.37 690.815 111.14 684.505 106.7399999999999C678.2 102.34 670.69 99.99 663 100H337C329.314 100 321.8135000000001 102.36 315.5135 106.7650000000001C309.2135 111.165 304.419 117.4 301.7785 124.615C299.1375 131.835 298.7785 139.6900000000001 300.75 147.12C302.7215 154.5450000000001 306.928 161.1900000000001 312.8 166.15C338.8995 188.1449999999999 357.9995 217.2900000000001 367.75 250H212.5C182.663 250 154.0485 261.855 132.9505 282.9500000000001C111.8525 304.05 100 332.665 100 362.5V787.5zM175 787.5C175 797.4455 178.951 806.9839999999999 185.9835 814.0165C193.016 821.049 202.5545 825 212.5 825H787.5C797.445 825 806.985 821.049 814.015 814.0165C821.05 806.9839999999999 825 797.4455 825 787.5V412.5C825 402.555 821.05 393.015 814.015 385.985C806.985 378.9500000000001 797.445 375 787.5 375H212.5C202.5545 375 193.016 378.9500000000001 185.9835 385.985C178.951 393.015 175 402.555 175 412.5V787.5z" />
    <glyph glyph-name="computer-desktop"
      unicode="&#xEA5F;"
      horiz-adv-x="1000" d="M375 281.25V239.29C375.002 222.87 371.7685 206.61 365.4840000000001 191.4400000000001C359.2 176.2700000000001 349.988 162.485 338.375 150.8749999999999L312.5 125H687.5L661.625 150.8749999999999C650.01 162.485 640.8000000000001 176.2700000000001 634.515 191.4400000000001C628.23 206.61 625 222.87 625 239.29V281.25M875 781.25V375C875 350.135 865.1249999999999 326.29 847.5400000000001 308.7100000000001C829.96 291.125 806.115 281.25 781.25 281.25H218.75C193.886 281.25 170.0405 291.125 152.4585 308.7100000000001C134.877 326.29 125 350.135 125 375V781.25M875 781.25C875 806.114 865.1249999999999 829.9594999999999 847.5400000000001 847.5415C829.96 865.123 806.115 875 781.25 875H218.75C193.886 875 170.0405 865.123 152.4585 847.5415C134.877 829.9594999999999 125 806.114 125 781.25M875 781.25V500C875 475.135 865.1249999999999 451.29 847.5400000000001 433.7100000000001C829.96 416.125 806.115 406.25 781.25 406.25H218.75C193.886 406.25 170.0405 416.125 152.4585 433.7100000000001C134.877 451.29 125 475.135 125 500V781.25" />
    <glyph glyph-name="credit-card-solid"
      unicode="&#xEA60;"
      horiz-adv-x="1000" d="M198.8015 831.3475C166.848 831.3475 136.203 818.654 113.6085 796.0595000000001C91.014 773.4649999999999 78.3205 742.8199999999999 78.3205 710.8665V680.746H921.69V710.8665C921.69 742.8199999999999 908.995 773.4649999999999 886.4000000000001 796.0595000000001C863.805 818.654 833.16 831.3475 801.205 831.3475H198.8015zM921.69 590.332H78.3205V289.13C78.3205 257.175 91.014 226.53 113.6085 203.935C136.203 181.3399999999999 166.848 168.6500000000001 198.8015 168.6500000000001H801.205C833.16 168.6500000000001 863.805 181.3399999999999 886.4000000000001 203.935C908.995 226.53 921.69 257.175 921.69 289.13V590.332zM198.8015 439.73C198.8015 447.7200000000001 201.975 455.38 207.6235 461.03C213.272 466.6750000000001 220.9335 469.85 228.922 469.85H469.884C477.8724999999999 469.85 485.5335 466.6750000000001 491.1825 461.03C496.831 455.38 500.005 447.7200000000001 500.005 439.73C500.005 431.74 496.831 424.0800000000001 491.1825 418.4300000000001C485.5335 412.785 477.8724999999999 409.61 469.884 409.61H228.922C220.9335 409.61 213.272 412.785 207.6235 418.4300000000001C201.975 424.0800000000001 198.8015 431.74 198.8015 439.73zM228.922 349.37C220.9335 349.37 213.272 346.195 207.6235 340.55C201.975 334.9 198.8015 327.24 198.8015 319.25C198.8015 311.26 201.975 303.5999999999999 207.6235 297.95C213.272 292.3 220.9335 289.13 228.922 289.13H349.403C357.3915 289.13 365.0525 292.3 370.701 297.95C376.35 303.5999999999999 379.5235 311.26 379.5235 319.25C379.5235 327.24 376.35 334.9 370.701 340.55C365.0525 346.195 357.3915 349.37 349.403 349.37H228.922z" />
    <glyph glyph-name="credit-card"
      unicode="&#xEA61;"
      horiz-adv-x="1000" d="M98.1328571428572 669.1476190476191H854.452380952381M98.1328571428572 640.0585714285714H854.452380952381M214.49 450.5190476190477H444.732380952381M214.49 349.1666666666667H330.8466666666667M185.4004761904762 232.8095238095238H767.1857142857143C790.3285714285715 232.8095238095238 812.5285714285714 242.004761904762 828.8952380952381 258.3714285714286C845.2571428571429 274.7333333333333 854.452380952381 296.9333333333333 854.452380952381 320.0761904761905V727.3261904761905C854.452380952381 750.4709523809524 845.2571428571429 772.6680952380952 828.8952380952381 789.0338095238095C812.5285714285714 805.4 790.3285714285715 814.5942857142857 767.1857142857143 814.5942857142857H185.4004761904762C162.2557142857143 814.5942857142857 140.0590476190476 805.4 123.6928571428572 789.0338095238095C107.3271428571429 772.6680952380952 98.1328571428572 750.4709523809524 98.1328571428572 727.3261904761905V320.0761904761905C98.1328571428572 296.9333333333333 107.3271428571429 274.7333333333333 123.6928571428572 258.3714285714286C140.0590476190476 242.004761904762 162.2557142857143 232.8095238095238 185.4004761904762 232.8095238095238z" />
    <glyph glyph-name="cube-solid"
      unicode="&#xEA62;"
      horiz-adv-x="1000" d="M517.31 918.3145C512.01 921.235 506.06 922.766 500.01 922.766C493.9605 922.766 488.0095 921.235 482.711 918.3145L142.6935 730.744L500.01 533.615L857.3249999999999 730.744L517.31 918.3145zM882.3199999999999 662.645L535.85 471.49V77.2299999999999L863.7800000000001 258.16C869.3949999999999 261.255 874.08 265.8050000000001 877.34 271.3250000000001C880.5999999999999 276.85 882.3199999999999 283.145 882.3199999999999 289.56V662.645zM464.169 77.2299999999999V471.49L117.7 662.645V289.56C117.699 283.145 119.4185 276.85 122.68 271.3250000000001C125.9415 265.8050000000001 130.625 261.255 136.242 258.16L464.169 77.2299999999999z" />
    </font>
</defs>
</svg>
